<svg width="35" height="35" viewBox="0 0 35 35" fill="none" xmlns="http://www.w3.org/2000/svg">
<circle cx="17.2574" cy="17.2574" r="17.2574" fill="#8755CD"/>
<g clip-path="url(#clip0_52_1333)">
<path d="M17.2574 9.31255C12.8766 9.31255 9.3125 12.8766 9.3125 17.2574C9.3125 21.6382 12.8766 25.2023 17.2574 25.2023C21.6382 25.2023 25.2023 21.6382 25.2023 17.2574C25.2023 12.8766 21.6382 9.31255 17.2574 9.31255ZM17.2574 23.7578C13.6731 23.7578 10.757 20.8417 10.757 17.2574C10.757 13.6731 13.6731 10.7571 17.2574 10.7571C20.8417 10.7571 23.7577 13.6731 23.7577 17.2574C23.7577 20.8417 20.8417 23.7578 17.2574 23.7578Z" fill="white"/>
<path d="M20.1463 16.5352C19.7475 16.5352 19.4241 16.8585 19.4241 17.2574C19.4241 18.4522 18.4521 19.4242 17.2573 19.4242C16.0625 19.4242 15.0905 18.4522 15.0905 17.2574C15.0905 16.8585 14.7671 16.5352 14.3683 16.5352C13.9694 16.5352 13.646 16.8585 13.646 17.2574C13.646 19.2487 15.266 20.8687 17.2573 20.8687C19.2486 20.8687 20.8686 19.2487 20.8686 17.2574C20.8686 16.8585 20.5452 16.5352 20.1463 16.5352Z" fill="white"/>
<path d="M14.3683 15.0907C14.7672 15.0907 15.0905 14.7673 15.0905 14.3684C15.0905 13.9695 14.7672 13.6461 14.3683 13.6461C13.9694 13.6461 13.646 13.9695 13.646 14.3684C13.646 14.7673 13.9694 15.0907 14.3683 15.0907Z" fill="white"/>
<path d="M20.1463 15.0907C20.5452 15.0907 20.8686 14.7673 20.8686 14.3684C20.8686 13.9695 20.5452 13.6461 20.1463 13.6461C19.7474 13.6461 19.4241 13.9695 19.4241 14.3684C19.4241 14.7673 19.7474 15.0907 20.1463 15.0907Z" fill="white"/>
<path d="M9.91971 11.4058C10.1684 11.094 10.1172 10.6395 9.80535 10.3908L8.44046 9.3023C8.12853 9.05355 7.67413 9.10478 7.42543 9.41666C7.17673 9.72854 7.22791 10.183 7.53979 10.4317L8.90473 11.5202C9.21656 11.7689 9.67106 11.7177 9.91971 11.4058Z" fill="white"/>
<path d="M24.7095 24.1241L26.0744 25.2126C26.3863 25.4613 26.8407 25.41 27.0894 25.0982C27.3381 24.7863 27.287 24.3319 26.9751 24.0832L25.6101 22.9947C25.2982 22.746 24.8438 22.7972 24.5951 23.1091C24.3464 23.4209 24.3976 23.8754 24.7095 24.1241Z" fill="white"/>
<path d="M17.9797 7.1458V5.65311C17.9797 5.25422 17.6563 4.93084 17.2574 4.93084C16.8585 4.93084 16.5352 5.25422 16.5352 5.65311V7.1458C16.5352 7.54468 16.8585 7.86807 17.2574 7.86807C17.6563 7.86807 17.9797 7.54468 17.9797 7.1458Z" fill="white"/>
<path d="M16.5352 27.3691V28.8618C16.5352 29.2607 16.8585 29.5841 17.2574 29.5841C17.6563 29.5841 17.9797 29.2607 17.9797 28.8618V27.3691C17.9797 26.9702 17.6563 26.6468 17.2574 26.6468C16.8585 26.6468 16.5352 26.9702 16.5352 27.3691Z" fill="white"/>
<path d="M5.4966 15.3249L7.24165 15.7122C7.63268 15.7991 8.01722 15.5513 8.10327 15.1637C8.1897 14.7742 7.94408 14.3885 7.55463 14.302L5.80958 13.9147C5.41994 13.8281 5.03435 14.0739 4.94796 14.4633C4.86158 14.8527 5.10715 15.2385 5.4966 15.3249Z" fill="white"/>
<path d="M29.0183 19.19L27.2732 18.8027C26.8835 18.7162 26.498 18.9619 26.4116 19.3513C26.3252 19.7407 26.5708 20.1265 26.9602 20.2129L28.7053 20.6002C29.0972 20.6872 29.481 20.4385 29.5669 20.0516C29.6533 19.6621 29.4077 19.2764 29.0183 19.19Z" fill="white"/>
<path d="M22.2951 8.46118L23.051 6.89126C23.2241 6.53186 23.073 6.10023 22.7136 5.92712C22.3543 5.75402 21.9226 5.90512 21.7495 6.26452L20.9936 7.83445C20.8205 8.19385 20.9716 8.62548 21.331 8.79858C21.6904 8.97164 22.122 8.82054 22.2951 8.46118Z" fill="white"/>
<path d="M12.2198 26.0537L11.4638 27.6236C11.2907 27.983 11.4418 28.4146 11.8012 28.5877C12.1606 28.7608 12.5922 28.6097 12.7653 28.2503L13.5212 26.6804C13.6943 26.321 13.5432 25.8894 13.1838 25.7163C12.8244 25.5433 12.3929 25.6943 12.2198 26.0537Z" fill="white"/>
<path d="M13.1838 8.79858C13.5433 8.62552 13.6943 8.19385 13.5212 7.83445L12.7653 6.26452C12.5922 5.90512 12.1604 5.75407 11.8012 5.92712C11.4418 6.10018 11.2907 6.53186 11.4638 6.89126L12.2198 8.46118C12.3928 8.82058 12.8244 8.97164 13.1838 8.79858Z" fill="white"/>
<path d="M21.331 25.7163C20.9716 25.8894 20.8205 26.321 20.9936 26.6804L21.7495 28.2503C21.9226 28.6097 22.3543 28.7608 22.7136 28.5877C23.073 28.4147 23.2241 27.983 23.051 27.6236L22.2951 26.0537C22.122 25.6943 21.6902 25.5433 21.331 25.7163Z" fill="white"/>
<path d="M7.42543 25.0982C7.67418 25.41 8.12853 25.4613 8.44046 25.2126L9.8054 24.1241C10.1173 23.8753 10.1685 23.4209 9.91976 23.1091C9.67101 22.7972 9.21661 22.746 8.90473 22.9947L7.53979 24.0832C7.22791 24.3319 7.17673 24.7863 7.42543 25.0982Z" fill="white"/>
<path d="M27.0894 9.41666C26.8408 9.10479 26.3863 9.0536 26.0744 9.3023L24.7095 10.3908C24.3976 10.6395 24.3464 11.094 24.5951 11.4058C24.8438 11.7177 25.2983 11.7689 25.6101 11.5202L26.9751 10.4317C27.287 10.183 27.3382 9.72854 27.0894 9.41666Z" fill="white"/>
<path d="M5.80958 20.6002L7.55463 20.2129C7.94408 20.1265 8.18965 19.7407 8.10327 19.3513C8.01688 18.9619 7.63138 18.7163 7.24165 18.8026L5.4966 19.1899C5.10715 19.2764 4.86158 19.6621 4.94796 20.0515C5.03449 20.4414 5.42042 20.6865 5.80958 20.6002Z" fill="white"/>
<path d="M28.7053 13.9147L26.9602 14.302C26.5708 14.3885 26.3252 14.7742 26.4116 15.1637C26.4977 15.5519 26.8827 15.799 27.2732 15.7122L29.0183 15.3249C29.4077 15.2385 29.6533 14.8527 29.5669 14.4633C29.4805 14.0739 29.0947 13.8283 28.7053 13.9147Z" fill="white"/>
</g>
<defs>
<clipPath id="clip0_52_1333">
<rect width="24.6535" height="24.6535" fill="white" transform="translate(4.93066 4.93069)"/>
</clipPath>
</defs>
</svg>
