<svg width="55" height="40" viewBox="0 0 55 40" fill="none" xmlns="http://www.w3.org/2000/svg">
<path d="M48.2176 5.00003C41.4384 -0.143202 34.9875 3.24899e-05 34.9875 3.24899e-05L34.3276 0.76175C42.3333 3.23896 46.0513 6.80992 46.0513 6.80992C41.6689 4.37181 36.8574 2.82368 31.8876 2.25263C28.7244 1.90098 25.5309 1.93377 22.3754 2.35029C22.1071 2.35743 21.8399 2.38901 21.5771 2.44469C19.929 2.58792 15.9245 3.20641 10.8868 5.44599C9.14531 6.25328 8.1088 6.8262 8.1088 6.8262C8.1088 6.8262 12.0167 3.06318 20.4923 0.585966L20.0223 0.0163046C20.0223 0.0163046 13.5843 -0.12693 6.789 5.0163C6.789 5.0163 0.00976562 17.4447 0.00976562 32.7767C0.00976562 32.7767 3.9627 39.6843 14.3698 40.0163C14.3698 40.0163 16.1145 37.8744 17.5276 36.0645C11.5467 34.2546 9.28694 30.446 9.28694 30.446C9.28694 30.446 9.75693 30.7715 10.6035 31.2533C10.6566 31.3135 10.7212 31.3622 10.7934 31.3965C10.9351 31.4909 11.0735 31.5397 11.2151 31.6341C12.3232 32.2551 13.4718 32.7989 14.653 33.2617C16.8946 34.1559 19.2123 34.8413 21.5771 35.3093C25.6035 36.0907 29.7387 36.1061 33.7707 35.3548C36.1178 34.9396 38.4098 34.2526 40.6015 33.3073C42.5054 32.5808 44.3218 31.6384 46.0158 30.4981C46.0158 30.4981 43.6595 34.4043 37.4919 36.1654C38.9051 37.9753 40.6015 40.0228 40.6015 40.0228C51.0053 39.6973 55.0098 32.7832 55.0098 32.7832C55.0001 17.4284 48.2176 5.00003 48.2176 5.00003ZM18.6929 28.3334C16.0565 28.3334 13.8901 25.9506 13.8901 23.0469C13.8901 20.1433 16.0082 17.7604 18.6929 17.7604C21.3775 17.7604 23.5439 20.1433 23.4957 23.0469C23.4474 25.9506 21.3775 28.3334 18.6929 28.3334ZM35.8824 28.3334C33.2428 28.3334 31.0796 25.9506 31.0796 23.0469C31.0796 20.1433 33.1978 17.7604 35.8824 17.7604C38.5671 17.7604 40.6852 20.1433 40.6852 23.0469C40.6852 25.9506 38.5638 28.3334 35.8824 28.3334Z" fill="#FCFCFC"/>
</svg>
