<svg width="285" height="83" viewBox="0 0 285 83" fill="none" xmlns="http://www.w3.org/2000/svg">
<g clip-path="url(#clip0_133_344)">
<path d="M62.206 54.0132C57.4474 47.9931 44.1054 48.1694 38.0435 43.4824C34.6093 40.8292 28.9635 33.1622 26.7688 29.3179C25.4953 27.0862 25.0708 22.2701 24.7185 22.8678C24.0351 23.9729 21.2673 25.9682 22.006 26.7379C18.61 32.0485 15.6385 37.0022 12.2722 42.3127C10.6209 44.8928 8.97809 45.2325 9.19458 48.3931C9.60949 52.5588 10.2701 56.6957 11.1727 60.7816C11.5972 62.5489 10.7058 62.4801 10.5233 64.3033C10.4044 65.5116 10.1582 66.6985 10.3153 67.9197C10.6506 70.5384 12.5693 72.2197 14.5942 73.656C17.0198 75.4459 19.5884 77.0281 22.2734 78.3861C23.687 79.0612 25.1218 79.9685 26.6627 80.1663C34.7282 81.1897 43.6766 79.2203 51.2327 76.6273C53.6141 75.8103 56.8531 75.8834 59.4552 74.8385C63.4668 73.2217 66.5529 70.1084 67.2618 65.9115C68.4461 58.8723 66.2133 59.1045 62.206 54.0132Z" fill="#FFD9BD"/>
<path d="M62.8512 65.5459C61.8239 65.5459 60.7287 66.3457 59.8797 67.1584C59.6457 67.0619 59.3836 67.0619 59.1496 67.1584C58.394 67.4809 57.7402 67.9754 57.6468 68.8785C57.5999 69.3343 57.7134 69.7922 57.9674 70.1715C58.2214 70.5507 58.5995 70.8268 59.035 70.9511C59.8829 71.1073 60.7552 71.0602 61.5819 70.8135C62.3963 70.6188 63.1351 70.1832 63.7044 69.5622C64.7232 68.4097 65.0076 65.5588 62.8512 65.5459Z" fill="#FFA294"/>
<path d="M30.0417 57.6597C29.8305 57.5313 29.5944 57.4509 29.3496 57.4242C29.1047 57.3975 28.8571 57.425 28.6238 57.5049C28.449 57.5168 28.2785 57.5651 28.1229 57.6468C27.9572 57.7382 27.8125 57.8643 27.6984 58.0166C27.5681 58.1092 27.4616 58.2322 27.3877 58.375C27.3139 58.5179 27.2748 58.6766 27.2739 58.8379C27.2758 59.0383 27.338 59.2333 27.4522 59.3969C27.5318 59.6674 27.6779 59.913 27.8767 60.1107C28.2308 60.4336 28.6915 60.6101 29.1679 60.6053C29.6443 60.6005 30.1015 60.4148 30.4492 60.0849C30.603 59.9079 30.7158 59.6983 30.7794 59.4715C30.8429 59.2447 30.8557 59.0063 30.8166 58.7738C30.7775 58.5414 30.6877 58.3207 30.5536 58.1279C30.4195 57.9351 30.2446 57.7752 30.0417 57.6597Z" fill="#FFA294"/>
<path d="M57.7403 53.9874C50.6044 50.4742 43.0653 47.5373 37.2837 41.8225C31.952 36.5506 28.3437 29.6447 24.9393 23.0139C24.4214 22.0034 22.9271 22.7129 23.1776 23.7665C23.1756 23.7807 23.1756 23.7952 23.1776 23.8095C23.0301 23.8813 22.9063 23.9948 22.821 24.1363C20.1934 28.2428 18.2364 32.7364 15.9144 36.9978C14.8013 39.0754 13.5695 41.0855 12.2255 43.0179C10.8119 45.0303 9.04178 46.7976 7.7131 48.8574C7.05088 49.8808 8.36682 51.2095 9.37713 50.543C13.308 47.963 16.1691 43.0351 18.4784 39.0145C20.7282 35.0842 21.4499 32.8353 22.7701 28.4836C24.8586 35.2218 28.9847 39.4703 34.0405 44.467C38.4638 48.8402 44.5002 51.6051 50.1715 53.6391C50.0534 53.7202 49.9596 53.8327 49.9005 53.9642C49.8414 54.0957 49.8192 54.2412 49.8363 54.3846C49.8534 54.5281 49.9091 54.664 49.9975 54.7775C50.0858 54.891 50.2033 54.9777 50.337 55.028C52.3788 55.7547 54.5141 56.9931 56.6408 57.3543C56.7801 57.3917 56.928 57.377 57.0574 57.3128C57.1867 57.2486 57.2889 57.1393 57.3452 57.005C57.4014 56.8706 57.408 56.7202 57.3636 56.5814C57.3192 56.4426 57.2268 56.3246 57.1035 56.2492C56.6295 55.8926 56.1219 55.5844 55.5881 55.329L57.0101 55.6988C58.0247 55.9396 58.7124 54.4647 57.7403 53.9874Z" fill="#FFA294"/>
<path d="M40.2934 79.9212C40.389 79.7099 40.552 79.5372 40.7561 79.431C41.5372 79.0483 42.2886 78.614 43.0739 78.2399L41.1042 78.399C37.4535 78.6699 33.3231 78.8634 29.7022 78.2872C23.0151 77.256 16.8754 73.9446 12.2977 68.9001C11.5761 68.096 11.0582 69.2957 11.7416 70.1171C15.8965 75.1622 21.6773 78.5584 28.0636 79.7062C28.0169 79.818 37.8101 80.1362 40.2934 79.9212Z" fill="#FFA294"/>
<path d="M90.0446 24.3943C87.175 23.1688 83.7578 23.3365 81.2108 25.2543C79.7267 26.4225 78.6946 28.0813 78.2945 29.9414C77.021 27.5463 75.5267 25.2457 74.1089 22.9968C71.8421 19.389 69.9106 17.4024 66.9391 14.3537C60.5716 7.80464 50.927 4.58819 42.1526 4.82899C24.5487 5.3192 7.2758 16.6241 3.36192 34.7145C2.27942 39.6762 2.32151 44.8219 3.48503 49.7648C4.4359 53.7294 6.12541 58.1585 10.086 59.8742C10.2496 59.9404 10.4273 59.9626 10.6019 59.9387C10.7765 59.9149 10.942 59.8457 11.0825 59.738C11.223 59.6303 11.3336 59.4877 11.4037 59.324C11.4738 59.1603 11.501 58.981 11.4826 58.8035C11.0581 55.7634 10.6336 52.7232 10.2515 49.6788C10.0266 47.877 10.1199 46.3892 10.9859 44.7767C11.8943 43.091 12.8877 41.4484 13.8598 39.8058C16.7039 35.0026 19.5353 30.165 22.4389 25.4005C21.9889 27.7011 22.0144 30.0317 22.0441 32.4527C22.0951 36.2754 22.2818 40.081 22.5408 43.8909C22.5705 44.3209 23.1818 44.222 23.1818 43.8091C23.1521 40.4594 22.978 37.1225 22.9271 33.7728C22.9271 31.1858 23.0802 28.6011 23.3855 26.0326C25.3 31.5066 28.055 36.6237 32.3892 40.5798C36.5747 44.4112 41.8555 47.2363 47.0046 49.911C46.5207 50.341 46.3891 51.2225 47.0046 51.631C48.7324 52.7017 50.4006 53.8197 52.1368 54.8904C52.1324 55.0421 52.1722 55.1917 52.2514 55.3204C53.0377 56.5081 53.6644 57.7966 54.115 59.1518L53.6311 58.7519C53.5269 58.6521 53.3879 58.5983 53.2446 58.6024C53.1013 58.6064 52.9655 58.6679 52.867 58.7734C52.7685 58.8789 52.7154 59.0197 52.7193 59.1649C52.7233 59.31 52.7841 59.4476 52.8882 59.5474C57.2053 64.0367 62.622 69.3731 62.4776 76.1586C62.4794 76.2525 62.5151 76.3424 62.5781 76.4113C62.641 76.4802 62.7268 76.5233 62.819 76.5323C62.9113 76.5413 63.0036 76.5157 63.0784 76.4603C63.1532 76.4048 63.2053 76.3235 63.2247 76.2317C63.8785 72.8518 62.2484 69.9923 60.8942 67.0037C59.8706 64.7914 58.3914 62.8267 56.5559 61.2416C57.4049 60.0419 58.8142 59.8914 60.1641 59.8269H60.1853C62.6856 59.9344 64.7105 61.7061 65.5722 64.0453C66.5231 66.6253 65.7802 69.1667 64.4473 71.4285C64.1799 71.8843 64.5322 72.5809 65.1138 72.3272C67.0683 71.5248 68.9209 70.4883 70.6322 69.2398C70.7829 69.3815 70.9764 69.4675 71.1813 69.4838C71.3863 69.5002 71.5907 69.4461 71.7614 69.3301C73.9646 67.7348 76.2017 65.89 77.5728 63.482C79.0501 60.9019 79.7802 57.8188 80.4085 54.9205C80.9581 52.3905 81.268 49.8131 81.3339 47.2234C81.3593 46.9611 81.3721 46.6945 81.389 46.4279C81.9559 47.337 82.6069 48.1894 83.3333 48.9735C85.7274 51.5536 89.3654 53.2478 92.7741 51.7256C95.8432 50.3496 97.5285 47.0299 98.2671 43.878C99.9014 36.886 96.9894 27.3657 90.0446 24.3943Z" fill="#B76F48"/>
<path d="M21.6325 24.3771C17.1116 29.8855 12.9855 35.6261 8.93153 41.5C7.47974 43.6027 4.84785 46.0494 5.29358 48.8101C5.76477 51.7642 7.48823 55.3161 9.11406 57.7929C9.21514 57.959 9.37153 58.0829 9.55495 58.1423C9.73836 58.2017 9.93671 58.1926 10.1141 58.1168C10.2915 58.041 10.4363 57.9033 10.5223 57.7288C10.6082 57.5543 10.6297 57.3543 10.5828 57.1651C10.2432 55.7676 9.78053 54.4174 9.35178 53.0457C9.58273 53.0071 9.79343 52.8889 9.94816 52.711C10.1029 52.5331 10.1921 52.3065 10.2008 52.0695C10.1503 51.1999 10.0239 50.3365 9.82298 49.4895C9.68012 48.5663 9.60915 47.6332 9.61073 46.6987C9.61425 46.5363 9.57467 46.376 9.49611 46.2343C9.78902 45.8559 10.0862 45.4904 10.3451 45.1335L13.1383 41.1215C16.6744 36.0346 20.0194 30.8788 23.1268 25.508C23.6404 24.6265 22.333 23.5257 21.6325 24.3771Z" fill="#A25234"/>
<path d="M64.0271 51.9191C60.508 50.1173 56.73 48.8617 53.1727 47.1116C49.6901 45.3922 46.3732 43.348 43.2649 41.0055C36.8285 36.1093 31.2409 30.1629 26.7306 23.4096C26.5464 23.159 26.2769 22.9866 25.9743 22.926C25.6717 22.8654 25.3576 22.9209 25.0931 23.0817C24.8286 23.2424 24.6325 23.497 24.5429 23.796C24.4533 24.095 24.4765 24.417 24.6082 24.6996C28.1875 32.5579 33.6334 39.3952 40.4589 44.6003C46.7458 49.4594 55.1933 54.4561 63.3182 54.6754C64.6936 54.6883 65.3176 52.5813 64.0271 51.9191Z" fill="#A25234"/>
<path d="M60.0751 55.0796C59.086 54.8947 58.0842 54.9592 57.1036 54.7786C56.0852 54.5949 55.0995 54.2586 54.1788 53.781C53.8973 53.6156 53.5625 53.5703 53.2481 53.655C52.9336 53.7397 52.6653 53.9474 52.502 54.2325C52.3388 54.5176 52.294 54.8568 52.3776 55.1753C52.4612 55.4938 52.6663 55.7657 52.9477 55.9311C54.0424 56.6965 55.2444 57.2908 56.5135 57.6941C56.4891 57.8359 56.4959 57.9815 56.5335 58.1203C56.5712 58.2592 56.6386 58.3879 56.7312 58.4972C56.8237 58.6065 56.9389 58.6938 57.0686 58.7527C57.1983 58.8116 57.3393 58.8407 57.4814 58.8379C57.7078 58.8461 57.9295 58.7702 58.1046 58.6245C58.2797 58.4788 58.3962 58.2733 58.4323 58.0467C58.9854 58.0858 59.5411 58.0467 60.0836 57.9306C61.4207 57.5952 61.4844 55.3333 60.0751 55.0796Z" fill="#A25234"/>
<path d="M85.9441 35.6821C85.6348 36.2042 85.4515 36.7929 85.4092 37.4004C85.3668 38.0078 85.4665 38.6168 85.7002 39.1778C85.9339 39.7388 86.295 40.2361 86.7541 40.6292C87.2133 41.0222 87.7575 41.3 88.3426 41.4398C90.9405 42.0763 93.4365 40.038 94.2388 37.63C96.2552 31.4379 89.1449 26.3079 83.9278 29.8899C81.6467 31.4894 80.0186 33.8755 79.3474 36.6023C76.6773 36.1422 73.9393 36.3959 71.2395 36.3228C68.0634 36.2416 64.8983 35.9095 61.7732 35.3294C55.8557 34.2243 50.1716 32.4011 44.4112 30.6897C43.0952 30.2984 42.5094 32.0872 43.524 32.8397C48.6647 36.5378 54.8454 38.705 61.0261 39.7671C64.114 40.3025 67.2341 40.6257 70.365 40.7346C72.5102 40.8679 74.6629 40.8017 76.7962 40.5368C76.4651 40.7045 76.1297 40.8851 75.7816 41.0571C74.6964 41.6038 73.5357 41.9807 72.339 42.1752C70.9551 42.4074 71.3753 44.4886 72.6573 44.5531C73.495 44.593 74.3344 44.5585 75.1661 44.4499C75.1774 44.6347 75.2333 44.8139 75.329 44.9717C75.4246 45.1296 75.5571 45.2612 75.7147 45.355C75.8723 45.4489 76.0503 45.502 76.2329 45.5099C76.4156 45.5178 76.5973 45.4801 76.7622 45.4002C77.3408 45.097 77.8895 44.7384 78.4008 44.3295C78.8111 44.0073 79.1729 43.6263 79.4748 43.1986C79.7186 44.0073 80.0534 44.785 80.4723 45.5163C81.134 46.6742 82.046 47.6652 83.1399 48.4149C84.2338 49.1646 85.4811 49.6537 86.7882 49.8452C88.0953 50.0368 89.4283 49.926 90.6871 49.5211C91.9459 49.1161 93.0978 48.4276 94.0563 47.5072C94.1059 47.4564 94.1376 47.3905 94.1467 47.3196C94.1557 47.2487 94.1416 47.1768 94.1064 47.1148C94.0713 47.0528 94.017 47.0043 93.952 46.9765C93.887 46.9488 93.8148 46.9434 93.7464 46.9611C89.2128 48.3845 84.1273 45.0605 83.8429 40.1928C83.7991 39.1538 83.9945 38.1187 84.4137 37.1694C84.8329 36.2201 85.4644 35.3826 86.2583 34.7231C86.9205 34.1856 87.7992 33.6696 88.6524 34.0996C89.1831 34.3705 89.5694 35.2606 89.7052 36.082C89.2382 34.6328 86.8908 34.0867 85.9441 35.6821Z" fill="#A25234"/>
<path d="M20.7452 49.3821C16.3346 47.7739 13.3928 51.73 13.3334 55.3291C13.291 57.7802 13.881 60.3172 15.9186 61.8609C18.351 63.71 21.9253 62.9617 23.5893 60.5064C26.0217 56.9115 24.9774 50.9258 20.7452 49.3821Z" fill="white"/>
<path d="M42.2291 51.1708C37.8228 49.6657 35.0126 53.6476 34.9447 57.0145C34.9065 59.3022 35.8574 61.8177 37.8907 63.2668C39.0931 64.0695 40.5494 64.3846 41.9706 64.1496C43.3917 63.9146 44.6735 63.1466 45.5614 61.9983C47.9938 58.6357 46.4614 52.6113 42.2291 51.1708Z" fill="white"/>
<path d="M32.1557 67.9797C32.0963 66.7499 32.1557 64.9697 31.6887 63.8044C30.861 61.6543 26.565 62.1961 24.7355 62.9443C24.5931 62.953 24.4575 63.0091 24.35 63.104C24.2425 63.1989 24.1691 63.3273 24.1412 63.469C24.0988 63.5959 24.0988 63.7334 24.1412 63.8603C24.2261 65.5201 24.1072 67.0208 24.5105 68.6763C24.8119 69.9019 25.1557 71.3897 26.2085 72.1465C26.3179 72.3 26.4401 72.4439 26.5735 72.5765C28.1484 74.1761 30.4492 73.4365 31.485 71.5961C32.0445 70.4801 32.2772 69.2253 32.1557 67.9797Z" fill="#FF7BB1"/>
<path d="M31.0351 62.9015C30.9954 62.7749 30.9283 62.659 30.8386 62.5622C30.749 62.4654 30.6391 62.3901 30.517 62.3418C30.3949 62.2936 30.2637 62.2736 30.133 62.2834C30.0023 62.2932 29.8754 62.3325 29.7616 62.3984C29.2112 62.6689 28.644 62.903 28.0636 63.0993C27.209 63.1025 26.356 63.0219 25.5166 62.8585C25.4154 62.8284 25.3073 62.8318 25.2081 62.8681C25.1089 62.9045 25.0237 62.9719 24.9648 63.0606C24.7641 63.124 24.5883 63.25 24.4625 63.4207C24.3367 63.5914 24.2674 63.7979 24.2644 64.0109C24.1646 65.4582 24.3082 66.9123 24.6889 68.311C24.7219 68.4559 24.7895 68.5905 24.8857 68.7029C24.9819 68.8154 25.1038 68.9022 25.2407 68.956C25.0309 69.3103 24.841 69.6764 24.6719 70.0525C24.5993 70.1916 24.5842 70.3543 24.63 70.5047C24.6757 70.6551 24.7786 70.7809 24.916 70.8544C25.0533 70.928 25.2139 70.9433 25.3624 70.8969C25.5108 70.8505 25.6351 70.7463 25.7077 70.6072C26.3369 69.7362 27.0778 68.9539 27.9108 68.2809C28.7046 67.6272 30.6106 66.7887 31.4724 66.277C32.7756 65.503 31.3365 64.2087 31.0351 62.9015Z" fill="#FF5FAF"/>
<path d="M29.9612 62.6778C29.3669 62.5531 28.7344 62.8025 28.1316 62.8843C27.3599 62.9941 26.575 62.9635 25.8138 62.794C25.262 62.6649 24.9012 63.5293 25.4573 63.7658C26.3458 64.0709 27.2943 64.1521 28.2208 64.0023C28.9679 63.9378 30.0716 63.9421 30.4664 63.2455C30.5895 63.0262 30.2032 62.7294 29.9612 62.6778Z" fill="white"/>
<path d="M10.8459 59.7625C10.6166 58.4725 8.55782 59.0358 8.88468 60.3473L8.91015 60.4462C7.19052 63.3826 5.93846 66.5751 5.20003 69.9064C4.52508 72.8562 4.25765 75.9265 5.90046 78.6054C5.9454 78.6735 6.01074 78.7253 6.08687 78.753C6.16299 78.7807 6.24589 78.7829 6.32335 78.7593C6.40082 78.7357 6.46877 78.6875 6.5172 78.6219C6.56563 78.5563 6.59198 78.4766 6.59239 78.3947C6.47777 74.43 6.73672 70.1859 8.63423 66.6297C9.27947 65.4214 10.7567 64.3335 11.1812 63.052C11.5081 62.0759 11.0114 60.6956 10.8459 59.7625Z" fill="#B76F48"/>
<path d="M8.92299 47.0902C8.90346 49.5354 9.06237 51.9788 9.39843 54.4003C9.72202 57.0168 10.2428 59.6044 10.9563 62.1404C10.9901 62.2659 11.0717 62.3726 11.1832 62.4371C11.2946 62.5016 11.4268 62.5186 11.5506 62.4844C11.6745 62.4502 11.7798 62.3676 11.8435 62.2547C11.9072 62.1418 11.924 62.0079 11.8902 61.8824C11.5464 59.3325 10.9309 56.8255 10.5318 54.2842C10.1337 51.8968 9.89827 49.4845 9.82717 47.0644C9.81627 46.9506 9.76394 46.8449 9.68036 46.7681C9.59678 46.6913 9.48795 46.6487 9.37508 46.6487C9.26221 46.6487 9.15338 46.6913 9.0698 46.7681C8.98622 46.8449 8.93389 46.9506 8.92299 47.0644V47.0902Z" fill="#313144"/>
<path d="M24.7227 56.5931C24.7093 56.2643 24.6738 55.9367 24.6166 55.6127C24.526 55.846 24.3612 56.0421 24.1482 56.1698C23.9352 56.2976 23.6863 56.3497 23.4408 56.3179C21.8659 56.1803 22.0781 53.7078 23.6488 53.8411C23.8178 53.8553 23.9823 53.9035 24.1327 53.983C23.2837 52.0953 21.6621 50.8267 19.8155 50.8826C17.2091 50.9686 15.1758 53.6562 15.2734 56.9027C15.371 60.1493 17.5699 62.6949 20.1806 62.6132C22.7913 62.5315 24.8204 59.8311 24.7227 56.5931Z" fill="#313144"/>
<path d="M45.0733 58.3434C43.4984 58.2058 43.7106 55.729 45.2855 55.8666C45.4624 55.8806 45.6345 55.9318 45.7906 56.0171C45.1751 53.9746 43.6427 52.4781 41.7494 52.3491C39.1472 52.1685 36.8592 54.6411 36.6554 57.8704C36.4517 61.0998 38.3746 63.869 40.9768 64.0453C43.579 64.2216 45.8671 61.7534 46.0708 58.524C46.0708 58.3176 46.0708 58.1155 46.0708 57.9134C45.9548 58.0657 45.8022 58.1852 45.6275 58.2605C45.4528 58.3358 45.262 58.3643 45.0733 58.3434Z" fill="#313144"/>
<path d="M37.5044 52.3406C38.1955 51.8877 38.9725 51.5863 39.7855 51.456C40.5985 51.3257 41.4294 51.3692 42.2248 51.5838C42.9613 51.8009 43.6373 52.1897 44.1987 52.719C44.8737 53.364 45.1793 54.2154 45.71 54.9636C45.8925 55.2216 46.3977 55.2517 46.4656 54.8604C46.6651 53.7037 46.0708 52.5599 45.3491 51.6913C44.6729 50.9089 43.7888 50.3402 42.8021 50.053C41.7868 49.7553 40.7176 49.6978 39.6769 49.885C38.6362 50.0721 37.6519 50.4988 36.7997 51.1323C36.0951 51.6526 36.7318 52.8523 37.4959 52.3406H37.5044Z" fill="#313144"/>
<path d="M14.5221 52.8093C14.8394 51.9957 15.3524 51.2753 16.0144 50.7136C16.6764 50.1519 17.4665 49.7666 18.3129 49.5929C20.0406 49.2832 21.7513 50.1089 23.0291 51.2355C23.4111 51.5752 24.0479 51.1452 23.7635 50.6636C23.1774 49.6989 22.3133 48.9396 21.2877 48.4882C20.2621 48.0368 19.1245 47.9151 18.0285 48.1394C16.9559 48.3404 15.9597 48.8398 15.1515 49.5818C14.3433 50.3238 13.755 51.279 13.4524 52.3406C13.2529 52.9813 14.2759 53.4457 14.5433 52.8093H14.5221Z" fill="#313144"/>
<path d="M9.00775 59.7711C7.08902 63.2714 5.14906 66.8447 4.37647 70.8137C4.01564 72.6627 3.79066 74.7096 4.37647 76.5371C4.84766 78.0378 5.95136 79.4181 7.55597 79.6289C7.81067 79.6633 7.91254 79.2461 7.68756 79.1386C4.2194 77.4874 4.63117 73.1185 5.41225 69.9666C6.26124 66.4835 7.92528 63.2499 9.54687 60.0764C9.7294 59.7195 9.21151 59.4099 9.02049 59.7625L9.00775 59.7711Z" fill="#313144"/>
<path d="M8.31157 65.4814C7.15269 67.7863 5.94711 70.1556 5.53535 72.74C5.18726 74.9287 5.33583 77.4227 6.65602 79.2761C6.70046 79.3485 6.77109 79.4005 6.85283 79.4209C6.93457 79.4413 7.02095 79.4285 7.09353 79.3853C7.16611 79.3421 7.21913 79.2719 7.24129 79.1896C7.26345 79.1073 7.25298 79.0195 7.21212 78.945C6.19717 76.9736 5.87384 74.7113 6.2952 72.5293C6.7197 70.1427 7.78094 67.9454 8.81672 65.7781C8.97803 65.4384 8.48561 65.1417 8.31157 65.4814Z" fill="#313144"/>
<path d="M1.91863 35.7292C0.379012 39.4087 -0.249091 43.4137 0.0890422 47.3953C0.251078 49.3672 0.653156 51.3112 1.28613 53.1832C1.84536 55.0348 2.76959 56.7522 4.00292 58.2315C4.63763 58.9879 5.42291 59.5999 6.30734 60.0275C7.19178 60.455 8.15541 60.6885 9.13511 60.7126C9.17907 60.697 9.21714 60.6679 9.24407 60.6294C9.27101 60.5909 9.28548 60.5448 9.28548 60.4976C9.28548 60.4504 9.27101 60.4044 9.24407 60.3659C9.21714 60.3274 9.17907 60.2983 9.13511 60.2826C5.25095 60.0375 3.0011 56.4126 1.81251 53.0585C-0.14778 47.4779 -0.00569155 41.3607 2.21154 35.8797C2.2837 35.7077 1.9908 35.583 1.91863 35.7507V35.7292Z" fill="#313144"/>
<path d="M19.0983 41.8181L19.4548 41.9514L19.5992 42.0116L19.6756 42.046C19.8836 42.1363 20.1001 42.2395 20.2954 42.347C20.7238 42.5743 21.1352 42.833 21.5264 43.121L21.6495 43.2113L21.7132 43.2586C21.8023 43.3274 21.8915 43.4048 21.9806 43.4779C22.1631 43.637 22.3414 43.8004 22.5197 43.9681C22.8804 44.3336 23.2663 44.6728 23.6744 44.983C24.0989 45.2668 24.7653 44.7852 24.5658 44.2907C24.4483 43.9941 24.2896 43.7161 24.0946 43.465C23.9346 43.2643 23.7631 43.0734 23.581 42.8931C23.1852 42.513 22.7593 42.1664 22.3075 41.8568C21.4335 41.2527 20.4766 40.7818 19.4676 40.4593C19.2909 40.4128 19.1033 40.4381 18.9447 40.5296C18.7862 40.6212 18.6691 40.7718 18.6186 40.9495C18.5751 41.1289 18.6016 41.3184 18.6925 41.4786C18.7834 41.6388 18.9318 41.7573 19.1068 41.8095L19.0983 41.8181Z" fill="#313144"/>
<path d="M36.2776 46.8794C37.194 46.4634 38.1479 46.138 39.126 45.9076C40.1151 45.6668 41.1084 45.4346 42.0975 45.2583C42.6706 45.1594 42.4923 44.3165 41.9701 44.2821C40.8692 44.2106 39.764 44.3107 38.693 44.5789C37.626 44.8587 36.5872 45.2387 35.5899 45.7141C35.4384 45.8046 35.3285 45.9522 35.2839 46.1246C35.2394 46.2969 35.2639 46.4802 35.3522 46.6343C35.444 46.7862 35.5901 46.8965 35.76 46.9422C35.93 46.9878 36.1108 46.9653 36.2649 46.8794H36.2776Z" fill="#313144"/>
<path d="M62.8173 11.047C66.3035 11.5177 69.5675 13.0456 72.1805 15.4301C74.7936 17.8146 76.6334 20.9441 77.4583 24.4073C77.9112 26.411 78.0544 28.4738 77.8828 30.522C77.8531 30.8832 78.4601 30.952 78.5153 30.608C79.6657 23.027 75.3485 15.3944 68.565 12.1822C66.7549 11.3263 64.8168 10.7813 62.8301 10.5697C62.5244 10.5353 62.5329 10.9997 62.8301 11.047H62.8173Z" fill="#313144"/>
<path d="M24.4129 62.953C26.1109 63.3314 27.9574 63.1465 29.6724 63.0347C29.9781 63.0132 30.2837 62.9831 30.5893 62.9702C30.636 62.9702 30.8058 62.9702 30.8313 62.9702C30.8568 62.9702 30.7252 62.9186 30.6615 62.9143C30.5978 62.91 30.6233 62.7724 30.6615 62.9358C30.7475 63.2033 30.851 63.4648 30.9714 63.7184C31.1157 64.1484 31.2303 64.6042 31.3322 65.0557C31.7864 67.0638 32.1812 69.3816 31.2898 71.3338C30.8186 72.3787 29.804 73.3506 28.5984 73.2947C27.2316 73.2302 26.2425 72.0863 25.6821 70.9253C25.1066 69.6003 24.7785 68.1788 24.7143 66.7327C24.6032 65.3497 24.6174 63.9593 24.7567 62.5789C24.8034 62.1489 24.12 62.1489 24.069 62.5789C23.7294 65.2922 23.7634 68.3367 24.761 70.9167C25.2789 72.254 26.1151 73.4968 27.4693 74.0558C28.0631 74.306 28.7144 74.3818 29.3488 74.2746C29.9831 74.1673 30.5749 73.8814 31.0563 73.4495C33.0599 71.7294 33.0387 68.6721 32.6227 66.2597C32.4591 65.2398 32.2207 64.2337 31.9095 63.2497C31.7228 62.6821 31.485 61.9597 30.8101 61.9124C29.9105 61.9231 29.0127 61.9963 28.123 62.1317C26.9666 62.3063 25.7936 62.3396 24.6294 62.2306C24.1539 62.1575 23.9332 62.867 24.4256 62.9788L24.4129 62.953Z" fill="#313144"/>
<path d="M42.7427 32.672C51.1658 36.8119 60.1987 39.5337 69.4861 40.7304C72.1257 41.0821 74.7882 41.2258 77.4497 41.1604C77.5432 41.1604 77.6328 41.1228 77.6989 41.0558C77.7649 40.9889 77.8021 40.8981 77.8021 40.8035C77.8021 40.7088 77.7649 40.618 77.6989 40.5511C77.6328 40.4842 77.5432 40.4466 77.4497 40.4466C72.8524 40.0595 68.2678 39.651 63.7257 38.8082C59.2224 37.9716 54.7932 36.768 50.4813 35.2091C47.9683 34.3017 45.5062 33.2482 43.095 32.0915C42.696 31.898 42.3437 32.4957 42.7469 32.6935L42.7427 32.672Z" fill="#313144"/>
<path d="M71.6936 43.4694C73.9973 43.2477 76.2671 42.7511 78.4559 41.9901C78.5173 41.9666 78.5678 41.9207 78.5976 41.8614C78.6273 41.802 78.634 41.7336 78.6165 41.6695C78.5989 41.6054 78.5583 41.5502 78.5027 41.5149C78.4471 41.4795 78.3804 41.4665 78.3158 41.4784C76.1433 42.1046 73.9306 42.5773 71.6936 42.8932C71.337 42.9362 71.3328 43.5081 71.6936 43.4694Z" fill="#313144"/>
<path d="M51.5893 55.3764C53.7118 56.9159 56.2588 58.0511 58.9119 58.193C58.9754 58.1946 59.0373 58.1726 59.0858 58.131C59.1344 58.0895 59.1661 58.0313 59.175 57.9676C59.1839 57.9038 59.1694 57.839 59.1342 57.7854C59.099 57.7318 59.0455 57.6932 58.984 57.677C56.471 57.1008 54.0344 56.3353 51.8355 54.9464C51.5638 54.7744 51.3346 55.1958 51.5893 55.3764Z" fill="#313144"/>
<path d="M52.6379 57.9176C55.0533 61.0996 58.2031 63.6797 60.4317 67.0208C62.4226 70.0008 63.7471 73.7117 62.1807 77.1819C61.8199 78.0136 61.2948 78.7616 60.6378 79.3799C59.9807 79.9982 59.2056 80.4735 58.3602 80.7767C58.3042 80.7998 58.2585 80.8429 58.2319 80.8979C58.2053 80.9529 58.1996 81.0159 58.2158 81.0749C58.2321 81.1338 58.2692 81.1847 58.3201 81.2177C58.371 81.2508 58.4321 81.2637 58.4918 81.254C61.8198 80.6692 63.7428 76.9884 63.7301 73.8106C63.7046 69.5837 61.0303 66.0447 58.271 63.1421C56.5221 61.306 54.6586 59.5731 53.0709 57.5779C52.8757 57.3371 52.4469 57.6639 52.6464 57.9176H52.6379Z" fill="#313144"/>
<path d="M53.8816 61.0997C56.5178 63.7313 59.086 66.5264 60.7458 69.9062C61.5857 71.6045 62.134 73.4353 62.3673 75.32C62.5669 77.1884 62.3981 79.0783 61.8707 80.88C61.8028 81.1251 62.1763 81.31 62.2952 81.0606C63.8955 77.6205 63.1442 73.385 61.5523 70.0696C59.8288 66.4662 57.0356 63.5292 54.2 60.803C54.1583 60.7608 54.1018 60.7371 54.0429 60.7371C53.984 60.7371 53.9275 60.7608 53.8859 60.803C53.8442 60.8452 53.8208 60.9024 53.8208 60.9621C53.8208 61.0217 53.8442 61.079 53.8859 61.1212L53.8816 61.0997Z" fill="#313144"/>
<path d="M47.0471 66.0232C47.1452 65.9949 47.2404 65.9575 47.3315 65.9114L47.3655 65.8856C47.3897 65.8723 47.4125 65.8565 47.4334 65.8383L47.4971 65.7867L47.5268 65.7566C47.5613 65.7147 47.5925 65.6701 47.6202 65.6233C47.634 65.6002 47.6454 65.5757 47.6542 65.5502C47.6542 65.5502 47.6754 65.5029 47.6839 65.4771C47.6996 65.4241 47.7067 65.369 47.7051 65.3137C47.7034 65.21 47.6772 65.1083 47.6287 65.017C47.5912 64.9437 47.5357 64.8814 47.4674 64.8364C47.4463 64.8141 47.422 64.7953 47.3952 64.7805C47.3515 64.7582 47.3061 64.7395 47.2594 64.7246C47.2099 64.709 47.1583 64.7018 47.1066 64.7031C47.0827 64.6989 47.0583 64.6989 47.0344 64.7031H46.9622C46.9209 64.7158 46.881 64.7331 46.8434 64.7547L46.7542 64.8235C46.72 64.8568 46.69 64.8944 46.6651 64.9353C46.6361 64.9851 46.6187 65.041 46.6141 65.0987C46.5994 65.155 46.5994 65.2143 46.6141 65.2707L46.6566 65.3739C46.6828 65.4239 46.7207 65.4667 46.767 65.4986C46.7954 65.5238 46.8286 65.5428 46.8646 65.5545C46.9147 65.5799 46.9699 65.5931 47.0259 65.5932H47.1405C47.2119 65.5715 47.2773 65.5332 47.3315 65.4814L47.2424 65.5502L47.1363 65.5932H47.0217H47.0429H46.9283H46.9877L46.8816 65.5502H46.9113L46.8179 65.4771L46.8476 65.5072L46.7755 65.4126L46.8009 65.4556L46.7542 65.3438C46.7567 65.3638 46.7567 65.384 46.7542 65.404V65.275C46.7585 65.286 46.7585 65.2983 46.7542 65.3094V65.1847C46.7556 65.1947 46.7556 65.2048 46.7542 65.2148L46.8052 65.0987L46.7797 65.1417L46.8519 65.0471C46.8399 65.0635 46.8256 65.078 46.8094 65.0901L46.907 65.0127L46.8306 65.0557L46.9453 65.0084C46.8879 65.0312 46.828 65.0471 46.767 65.0557C46.7053 65.0717 46.6485 65.1027 46.6014 65.146C46.5494 65.1817 46.5059 65.2287 46.4741 65.2836C46.4392 65.3389 46.4201 65.4029 46.4189 65.4685C46.3998 65.533 46.3998 65.6018 46.4189 65.6663L46.4656 65.7867C46.5094 65.8597 46.5707 65.9204 46.6439 65.963L46.7585 66.0146C46.8449 66.0361 46.9352 66.0361 47.0217 66.0146L47.0471 66.0232Z" fill="#FF7486"/>
<path d="M49.1358 66.1954C49.4002 65.995 49.646 65.7704 49.8702 65.5246C50.0834 65.2643 50.2592 64.9748 50.3923 64.6646C50.4387 64.5747 50.4522 64.4712 50.4305 64.3722C50.4178 64.3244 50.3959 64.2797 50.366 64.2406C50.3361 64.2015 50.2989 64.1687 50.2564 64.1443C50.1697 64.0963 50.0681 64.0838 49.9726 64.1094C49.877 64.135 49.7948 64.1968 49.7428 64.2819C49.6706 64.4109 49.5942 64.5399 49.5093 64.6646L49.382 64.8452L49.3523 64.8839C49.3098 64.9355 49.2674 64.9914 49.2292 65.0473L49.1103 65.2236L49.0806 65.2623C49.0806 65.2623 49.0254 65.3311 49.0806 65.2623C49.1358 65.1935 49.0806 65.2623 49.0806 65.2623L49.0509 65.301C48.9532 65.4214 48.8514 65.5375 48.7452 65.645C48.6926 65.7027 48.6613 65.777 48.6566 65.8554C48.652 65.9338 48.6743 66.0114 48.7198 66.075C48.7674 66.14 48.8369 66.1851 48.9151 66.2018C48.9933 66.2184 49.0748 66.2054 49.1443 66.1653L49.1358 66.1954Z" fill="#FF7486"/>
<path d="M13.3081 66.1394C13.3992 65.9398 13.5117 65.7509 13.6435 65.5761L13.5755 65.6707C13.6592 65.5615 13.7499 65.458 13.8472 65.3611C13.9449 65.2665 14.0383 65.1676 14.1401 65.0816C14.2186 65.0015 14.2628 64.8934 14.2632 64.7806C14.2629 64.6856 14.2316 64.5933 14.1741 64.5183C14.1112 64.4375 14.0218 64.3822 13.9221 64.3625C13.8224 64.3427 13.719 64.3599 13.6307 64.4108C13.3824 64.5573 13.1612 64.7464 12.977 64.9698C12.7876 65.1835 12.6277 65.4221 12.5016 65.6793C12.4417 65.791 12.4251 65.9213 12.4549 66.0448C12.488 66.163 12.5638 66.2643 12.6671 66.3286C12.7769 66.3909 12.9061 66.4078 13.0279 66.3759C13.1463 66.3433 13.2471 66.2645 13.3081 66.1566V66.1394Z" fill="#FF7486"/>
<path d="M14.556 66.3631L15.0399 65.6493C15.2012 65.4128 15.354 65.172 15.4983 64.9226C15.528 64.8952 15.551 64.8611 15.5654 64.8231C15.5799 64.7851 15.5854 64.7442 15.5815 64.7037C15.5777 64.6632 15.5646 64.6241 15.5432 64.5896C15.5219 64.5551 15.4929 64.5261 15.4586 64.5049C15.4243 64.4837 15.3856 64.4709 15.3456 64.4675C15.3055 64.4641 15.2652 64.4701 15.2279 64.4852C15.1906 64.5003 15.1572 64.5239 15.1305 64.5543C15.1037 64.5847 15.0843 64.621 15.0738 64.6603C14.9083 64.8968 14.7512 65.1333 14.6026 65.3784L14.1527 66.1094C14.1203 66.1665 14.1114 66.2343 14.1281 66.2979C14.1448 66.3615 14.1857 66.4159 14.2418 66.4491C14.2979 66.4812 14.3641 66.4902 14.4265 66.4742C14.489 66.4582 14.5429 66.4184 14.5772 66.3631H14.556Z" fill="#FF7486"/>
<path d="M9.74657 45.2453C9.19322 46.0562 8.56187 46.8095 7.8618 47.4943C7.68776 47.6534 7.91698 47.963 8.11225 47.8254C9.95458 46.5354 11.2451 44.3595 12.4846 42.5062C13.9321 40.3303 15.3075 38.0986 16.7296 35.9056C16.7552 35.8692 16.7689 35.8256 16.7689 35.7809C16.7689 35.7362 16.7552 35.6926 16.7296 35.6562C16.7848 35.5788 16.8357 35.4971 16.8866 35.4154C18.712 32.5472 20.3845 29.5802 22.1886 26.6991C21.8242 28.8157 21.624 30.958 21.5901 33.1062C21.4857 36.3656 21.7708 39.6258 22.4391 42.8158C22.714 44.0911 23.1092 45.3366 23.6192 46.5354C23.7593 47.1804 23.9121 47.8254 24.0946 48.4532C24.1132 48.4983 24.1473 48.5351 24.1906 48.5566C24.234 48.5782 24.2835 48.5832 24.3301 48.5706C24.3768 48.558 24.4173 48.5287 24.4443 48.4881C24.4712 48.4476 24.4827 48.3985 24.4767 48.35C24.4215 48.0275 24.3706 47.7093 24.3196 47.3868C24.3506 47.3534 24.3712 47.3116 24.3787 47.2664C24.3863 47.2213 24.3805 47.1749 24.3621 47.1331C24.3154 47.0256 24.2729 46.9181 24.2305 46.8106C23.186 39.9639 23.0761 33.0042 23.9036 26.1272C24.7102 29.8511 25.6398 33.605 27.4906 36.9462C29.1589 39.9562 31.5913 42.6094 34.6647 44.1445C36.0716 44.8558 37.6009 45.2851 39.1686 45.4087C41.4712 47.2557 43.9785 48.8243 46.6398 50.0829C49.3964 51.4203 52.3634 52.2572 55.4057 52.5555C55.7622 52.5856 55.8514 51.9663 55.4906 51.9147C50.0952 51.1579 45.0691 48.565 40.7265 45.3141L40.5015 45.1421C40.4952 45.0794 40.466 45.0213 40.4197 44.9792C40.3734 44.9371 40.3133 44.9139 40.2511 44.9142H40.1959C35.6168 41.3918 31.7209 37.0414 28.7047 32.0828C27.0017 29.2989 25.6928 26.2867 24.8163 23.1344C24.7838 23.0501 24.7216 22.9811 24.6418 22.9406C24.562 22.9001 24.4702 22.891 24.3842 22.915C24.2981 22.9391 24.2239 22.9946 24.1759 23.0709C24.128 23.1471 24.1096 23.2387 24.1243 23.3279C25.6525 29.1287 28.7938 34.4522 32.6143 38.9973C34.3443 41.0621 36.2475 42.9713 38.3026 44.7035C35.6321 44.1319 33.1827 42.7875 31.2517 40.8335C28.5646 38.2276 26.9006 34.8779 25.7587 31.3303C25.0752 29.2104 24.5658 27.0302 24.0607 24.8802C24.0607 24.8458 24.0607 24.8071 24.0607 24.7684C24.0667 24.7267 24.0611 24.6841 24.0446 24.6453C24.0281 24.6066 24.0014 24.5733 23.9673 24.5491V24.4545C23.9079 24.1922 23.5131 24.304 23.5683 24.5663L23.6319 24.8673C22.9861 28.7398 22.6736 32.6619 22.698 36.5893C22.698 38.6017 22.7914 40.64 23.0037 42.661C22.7235 41.2764 22.5325 39.8702 22.3882 38.4856C22.0528 35.3424 22.0329 32.1728 22.3287 29.0255C22.4322 27.913 22.5908 26.8064 22.8042 25.7101C22.9867 25.4263 23.1735 25.1425 23.3602 24.8501C23.3958 24.8 23.4181 24.7416 23.425 24.6804C23.4319 24.6192 23.4233 24.5572 23.3999 24.5003C23.3765 24.4434 23.3391 24.3935 23.2913 24.3554C23.2435 24.3173 23.1869 24.2922 23.1268 24.2825C23.1403 24.2329 23.1338 24.1799 23.1087 24.1351C23.0836 24.0903 23.042 24.0575 22.9931 24.0438C22.9441 24.0301 22.8918 24.0367 22.8476 24.0621C22.8034 24.0875 22.771 24.1297 22.7575 24.1793L22.6938 24.4244V24.4502C20.376 27.7741 18.2832 31.2486 16.1141 34.6715C14.1868 37.7073 12.1535 40.8464 9.58951 43.3791C9.29661 43.6672 9.72111 44.0585 10.014 43.8091C10.8275 43.1515 11.5909 42.4328 12.2978 41.6591L12.0983 41.9472C11.3314 43.0767 10.5475 44.176 9.74657 45.2453Z" fill="#313144"/>
<path d="M58.9884 68.3495C59.6323 67.7495 60.3448 67.2298 61.1109 66.8015L61.3613 66.6811L61.4887 66.6209L61.5821 66.5779C61.7646 66.5005 61.9514 66.436 62.1381 66.3715C62.635 66.2095 63.1201 66.0126 63.5899 65.7824C63.9847 65.5889 63.764 64.9955 63.3777 64.9869C62.368 64.9628 61.3716 65.2233 60.4996 65.7394C59.6679 66.261 58.8999 66.8802 58.2115 67.5841C58.1113 67.6862 58.0553 67.8244 58.0557 67.9684C58.0561 68.1123 58.1129 68.2502 58.2137 68.3517C58.3144 68.4532 58.4509 68.51 58.593 68.5096C58.7351 68.5092 58.8712 68.4516 58.9714 68.3495H58.9884Z" fill="#313144"/>
<path d="M98.0677 34.0866C97.7547 32.9297 97.3281 31.8075 96.7942 30.7368C96.8537 27.3785 94.6972 24.1921 91.73 22.7387C88.334 21.0659 84.1187 21.7626 81.0793 23.9298C79.445 25.0951 78.0229 26.7162 77.5135 28.7029C74.7468 21.6101 69.9291 15.5297 63.6918 11.2588C57.4545 6.98779 50.0888 4.72557 42.5603 4.76867C33.9939 4.76867 25.2662 7.74862 18.2492 12.6722C11.3044 17.5227 5.67559 24.549 2.93757 32.6675C0.292946 40.5281 0.717445 49.3733 5.35722 56.391C5.94711 57.2843 6.59223 58.1389 7.28869 58.9496C7.84478 59.5903 8.74047 58.6615 8.20985 58.0165C5.61503 54.9182 3.83247 51.2078 3.02672 47.2276C2.3198 43.3474 2.46473 39.3571 3.45122 35.54C5.44212 27.5075 10.4639 20.4037 16.8229 15.2866C23.349 10.0709 31.233 6.89283 39.5124 6.14039C48.3356 5.419 57.1245 7.90042 64.3074 13.1409C70.5299 17.8263 75.1838 24.3326 77.6409 31.7817C77.6398 31.796 77.6398 31.8104 77.6409 31.8247C77.8107 32.3407 77.972 32.8567 78.1205 33.3771C78.4007 34.3661 78.6427 35.368 78.8422 36.3871C78.9356 36.8644 79.6275 36.658 79.5511 36.1893C79.311 34.7371 78.9835 33.301 78.5705 31.8892C78.6017 31.8228 78.6217 31.7516 78.6299 31.6785C78.6318 31.6499 78.6318 31.6212 78.6299 31.5925C78.6299 31.5323 78.6299 31.4678 78.6597 31.4076C78.6894 31.3474 78.6936 31.1969 78.7106 31.0894C78.7573 30.8529 78.7955 30.6121 78.8379 30.3756C78.9279 29.9059 79.0455 29.4421 79.1903 28.9867C79.214 28.8963 79.2159 28.8015 79.196 28.7103C79.176 28.619 79.1348 28.5339 79.0757 28.4621C79.1073 28.4397 79.1335 28.4103 79.1521 28.3761C80.7779 25.4133 84.3819 24.119 87.5911 24.7554C91.0932 25.4477 93.8737 28.1353 95.4359 31.2915C97.0993 34.8465 97.7224 38.8099 97.2315 42.7125C96.807 46.0838 94.9816 49.6485 91.5687 50.7106C87.8628 51.8631 84.3819 49.2013 82.5735 46.1225C82.0915 45.2988 81.6783 44.4358 81.3382 43.5424C81.2576 42.6566 81.1557 41.7751 81.0411 40.8893C81.0252 40.7678 80.963 40.6575 80.8677 40.582C80.7725 40.5064 80.6519 40.4716 80.5317 40.4851C80.2335 38.7625 80.4356 36.9893 81.1133 35.3809C82.1703 33.0588 84.7979 31.0335 87.3534 30.8529C87.9824 30.7856 88.6178 30.8896 89.1939 31.1541C89.77 31.4187 90.266 31.8343 90.6305 32.3579C90.9828 32.974 91.2094 33.6554 91.297 34.3618C91.6196 36.1248 91.7215 38.2834 91.0253 39.9519C90.913 40.2589 90.7363 40.5376 90.5074 40.7689C90.3474 40.9311 90.1347 41.0289 89.9089 41.0441C89.4014 41.0486 88.9108 40.8604 88.5336 40.5165C88.1564 40.1726 87.9201 39.6981 87.8713 39.1864C87.8099 38.4306 87.8862 37.6698 88.0963 36.9418C88.1268 36.7892 88.0991 36.6306 88.0187 36.4979C87.9383 36.3652 87.8112 36.2684 87.663 36.2269C87.5149 36.1854 87.3568 36.2024 87.2205 36.2745C87.0842 36.3465 86.98 36.4682 86.9289 36.615C86.5044 38.1845 86.2412 40.3088 87.5911 41.5128C88.4231 42.1793 89.7051 42.6093 90.7112 42.1793C92.6893 41.3494 92.8337 38.3479 92.8082 36.5247C92.7615 34.3188 92.4346 31.7946 90.5541 30.41C87.8798 28.4234 84.2418 30.0875 82.0641 32.0655C79.0417 34.8262 78.7446 39.0273 79.861 42.8157C80.0011 43.293 80.1624 43.7703 80.3407 44.2433C80.3407 44.6475 80.3407 45.0517 80.3407 45.456C80.3174 45.5227 80.3174 45.5956 80.3407 45.6624C80.4017 49.5191 79.8835 53.3629 78.804 57.0619C77.3586 61.5038 74.652 65.4152 71.0229 68.3065C69.1057 69.9189 66.915 71.1647 64.5578 71.9831C67.5548 67.8937 67.1472 60.661 61.5863 59.199C60.3484 58.8751 59.0414 58.9523 57.8491 59.4197C56.6567 59.8871 55.6389 60.7212 54.9387 61.8048C54.6925 62.1617 55.2655 62.6218 55.5372 62.2735C56.1565 61.4687 56.9853 60.8551 57.9303 60.5018C58.8753 60.1485 59.899 60.0696 60.8859 60.274C61.8409 60.484 62.7184 60.9618 63.418 61.653C64.1176 62.3442 64.6112 63.2209 64.8422 64.1828C65.1458 65.511 65.123 66.8944 64.7759 68.2116C64.4288 69.5289 63.768 70.7397 62.8513 71.738C61.3231 73.3118 59.2346 74.1933 57.1503 74.7137C54.6033 75.3587 51.9544 75.363 49.3395 75.5995C48.915 75.6339 48.7749 76.2832 49.2377 76.3735C49.4966 76.4251 49.7598 76.4681 50.023 76.5025C47.4676 77.3767 44.8548 78.0678 42.2037 78.5708C38.6321 79.3224 35.0035 79.7626 31.3578 79.8866H31.0224C30.6786 79.8866 30.3305 79.8866 29.9866 79.8866C29.2682 79.866 28.5513 79.8086 27.8387 79.7146C26.0473 79.0051 24.205 78.4246 22.4263 77.6764C20.5755 76.9075 18.8027 75.9584 17.1328 74.8427C14.5179 73.0796 11.9285 70.5942 11.2365 67.3648C10.9194 65.6495 11.1561 63.8764 11.9115 62.3079C12.1577 61.7618 11.4191 61.2931 11.1049 61.8263C10.2352 63.2769 9.80864 64.9557 9.87889 66.6513C9.94914 68.347 10.5131 69.9837 11.4997 71.3553C13.775 74.6491 17.379 76.8551 20.9618 78.4117C23.2371 79.4007 25.6313 80.2607 28.1401 80.4715C28.7473 80.6117 29.368 80.6838 29.9909 80.6865C30.3157 80.6871 30.6403 80.6685 30.963 80.6305C31.0001 80.7055 31.0581 80.7678 31.1297 80.8099C31.2014 80.8519 31.2836 80.8718 31.3663 80.8671C35.0721 80.7832 38.7642 80.3819 42.4032 79.6673C45.5275 79.0868 48.8768 78.4676 51.6615 76.8422C51.7316 76.8031 51.7879 76.743 51.8228 76.6702C53.6301 76.7062 55.4352 76.5272 57.2012 76.137C59.6591 75.6124 62.1679 74.6233 63.9296 72.7485L64.1376 72.5163C64.1677 72.5899 64.2227 72.6501 64.2927 72.6864C64.3627 72.7226 64.4431 72.7324 64.5196 72.7141C69.2485 71.7251 73.2728 68.7881 76.2018 64.974C79.3856 60.8201 80.918 55.8277 81.3849 50.6289C81.4826 49.5195 81.5208 48.4144 81.5123 47.3093C83.4824 50.3964 84.2719 54.1061 83.7324 57.7413C83.4111 59.7757 82.6696 61.7186 81.5562 63.4429C80.4429 65.1672 78.9829 66.634 77.2715 67.7475C75.3749 68.9802 73.2401 69.7881 71.0102 70.1169C70.6281 70.1771 70.713 70.8307 71.0993 70.8049C75.3443 70.4996 79.3049 68.0528 81.8434 64.6386C83.1695 62.8395 84.0822 60.7631 84.5148 58.5609C84.9474 56.3588 84.8889 54.0867 84.3437 51.9104C84.1318 51.0434 83.8478 50.1961 83.4947 49.3776C84.6398 50.6308 86.0886 51.5588 87.6972 52.0695C91.7087 53.2907 95.6396 50.9858 97.4607 47.3394C99.4771 43.3446 99.2011 38.3092 98.0677 34.0866ZM90.5668 24.4157C87.0944 22.8333 83.1891 23.2891 80.3534 25.9336C79.6991 26.5482 79.1585 27.2763 78.7573 28.0837C78.7349 28.1273 78.7261 28.1768 78.7318 28.2256C78.5972 28.2154 78.4633 28.2527 78.3527 28.331C78.2421 28.4094 78.1616 28.524 78.1248 28.6556C78.0229 28.9738 77.9295 29.3006 77.8531 29.6231L77.7979 29.4683C77.8317 29.4528 77.8611 29.4289 77.8833 29.3988C77.9056 29.3687 77.92 29.3335 77.9253 29.2963C78.6215 25.6756 82.3613 23.2504 85.736 22.6355C89.1108 22.0206 92.7191 23.2934 94.7184 26.2518C95.3594 27.1931 95.8043 28.2568 96.0259 29.378C94.7317 27.2126 92.8317 25.4854 90.5668 24.4157Z" fill="#313144"/>
<path d="M47.9343 51.7084C47.8995 51.6881 47.861 51.6749 47.8212 51.6696C47.7813 51.6643 47.7408 51.6671 47.702 51.6776C47.6631 51.6882 47.6268 51.7064 47.5949 51.7313C47.563 51.7561 47.5363 51.787 47.5162 51.8223C47.4961 51.8576 47.4831 51.8966 47.4779 51.937C47.4727 51.9774 47.4754 52.0184 47.4859 52.0577C47.4963 52.097 47.5143 52.1339 47.5388 52.1662C47.5633 52.1985 47.5939 52.2256 47.6287 52.2459C49.9781 53.6149 52.4676 54.7208 55.0532 55.544C57.4983 56.3482 60.109 57.0663 62.6942 56.9889C62.7673 56.9889 62.8375 56.9594 62.8893 56.907C62.941 56.8546 62.9701 56.7835 62.9701 56.7094C62.9701 56.6352 62.941 56.5641 62.8893 56.5117C62.8375 56.4593 62.7673 56.4299 62.6942 56.4299C60.1477 56.2533 57.6348 55.7416 55.2187 54.9076C52.6836 54.1112 50.2411 53.0385 47.9343 51.7084Z" fill="#313144"/>
<path d="M60.0454 59.3151C59.9555 59.3154 59.8678 59.2868 59.795 59.2334C59.7425 59.1961 59.6996 59.1465 59.6701 59.0889C59.6405 59.0313 59.6251 58.9673 59.6252 58.9023C59.5603 57.8385 59.4285 56.78 59.2304 55.7332C58.3149 55.9525 57.3779 56.0665 56.4372 56.0729C53.6143 56.0729 51.4918 54.9333 50.2862 52.7747C49.7556 51.8201 49.6664 51.0289 50.0187 50.4183C50.3711 49.8077 51.1861 49.4422 52.3323 49.4422C54.488 49.5411 56.5584 50.3249 58.2498 51.6825C57.8867 50.46 57.4616 49.2572 56.9763 48.079L56.8617 47.7995C55.5471 48.4883 54.0961 48.8675 52.6167 48.9089C51.809 48.9258 51.007 48.7689 50.2636 48.4487C49.5201 48.1285 48.8522 47.6522 48.3038 47.0513C47.3699 46.0537 47.4038 45.3055 47.5949 44.854C47.9599 43.994 49.174 43.5038 50.9229 43.5038C52.4419 43.5087 53.9394 43.8677 55.2995 44.553C54.5621 43.1899 53.7441 41.8731 52.8502 40.6098C51.5852 41.3663 50.1501 41.7822 48.6816 41.8181C47.2138 41.8257 45.7914 41.3027 44.6701 40.3432C44.0715 39.8444 43.4178 39.079 43.7022 38.2749C43.9866 37.4708 45.2686 36.9246 47.0982 36.9246C48.2139 36.922 49.3224 37.1051 50.3796 37.4665C49.3662 36.316 48.2876 35.2262 47.1491 34.2027C46.1728 35.0283 43.7871 36.7354 40.7817 36.7354C39.3362 36.729 37.9182 36.3343 36.6725 35.5916C35.0721 34.6671 34.9151 33.7856 35.0679 33.2094C35.2504 32.5085 35.9806 31.9194 37.1904 31.4894C38.4133 31.0898 39.6921 30.8938 40.9769 30.9088C41.7612 30.908 42.544 30.9785 43.3159 31.1196C42.5815 30.6035 41.8217 30.1047 41.0491 29.6274H40.892C38.7695 29.6274 36.265 28.4879 34.0151 26.497C31.9648 24.6737 30.6192 22.5624 30.6192 21.1176C30.608 20.8448 30.6602 20.5731 30.7715 20.3244C30.8828 20.0757 31.0502 19.8569 31.2601 19.6857C31.7958 19.3153 32.4382 19.1368 33.0855 19.1783C33.4565 19.1809 33.8268 19.2111 34.1934 19.2686C35.4531 19.4497 36.6577 19.9106 37.7211 20.6183C38.7844 21.326 39.6802 22.2629 40.3444 23.3622C41.2402 24.8122 41.8688 26.4149 42.1995 28.0923C43.1886 28.7072 44.1564 29.3565 45.0818 30.0359C44.584 28.7964 44.2527 27.4947 44.097 26.1659C43.8508 24.2179 43.9951 22.5108 44.4875 21.6035C44.5818 21.3776 44.7377 21.1835 44.9369 21.0442C45.1362 20.9048 45.3705 20.8258 45.6124 20.8166C46.2407 20.8166 46.8859 21.3197 47.6076 22.3603C48.6518 23.8327 49.2675 25.5723 49.3845 27.3814C49.5016 29.1905 49.1154 30.9966 48.2698 32.5945C49.6264 33.7975 50.9027 35.0903 52.0903 36.4645C52.0054 33.7727 53.0412 30.8099 54.2722 29.2748C54.8411 28.561 55.4184 28.1998 55.9702 28.1998C56.9848 28.1998 57.4772 29.335 57.7149 30.2896C58.8865 35.0197 55.7452 38.133 54.2892 39.2811C55.3028 40.6989 56.2231 42.1828 57.0442 43.7231C57.4113 41.3971 58.4176 39.2229 59.9478 37.4493C60.4784 36.8687 61.2807 36.1592 62.0703 36.1592C63.3098 36.1592 63.5985 37.6557 63.6579 38.5458C63.9975 43.5554 60.2237 46.0279 58.5639 46.875C58.6262 47.0212 58.6856 47.1646 58.7422 47.305C59.2219 48.4574 59.6464 49.6357 60.0157 50.8182C60.5053 49.4457 61.2487 48.1804 62.2061 47.09C63.5688 45.5162 65.1139 44.5401 66.2473 44.5401C66.466 44.5344 66.6835 44.5734 66.887 44.6546C67.0905 44.7359 67.2757 44.8578 67.4317 45.0131C67.8562 45.4431 68.0727 46.1655 68.0684 47.133C68.0684 49.5669 66.969 51.5707 64.838 53.0972C63.6791 53.9014 62.3967 54.5059 61.043 54.8861C61.3004 56.1623 61.4664 57.4557 61.5396 58.7561C61.541 58.8207 61.528 58.8848 61.5015 58.9436C61.4751 59.0025 61.4359 59.0545 61.3868 59.0958C61.3105 59.1599 61.2143 59.1949 61.1151 59.1947H61.0302C60.8999 59.1714 60.7678 59.1599 60.6355 59.1603C60.485 59.1573 60.3349 59.1762 60.1897 59.2162C60.1474 59.2571 60.0986 59.2905 60.0454 59.3151Z" fill="#17FFDD"/>
<path d="M33.0514 19.6126C33.401 19.6165 33.75 19.6452 34.0956 19.6986C39.8434 20.5586 41.4098 26.3422 41.7876 28.3847C43.3434 29.3404 44.8391 30.3931 46.266 31.5367C43.9016 27.787 43.8294 21.2939 45.5783 21.2939C46.0028 21.2939 46.5674 21.6981 47.2254 22.6527C48.2501 24.1074 48.8398 25.8302 48.9241 27.6152C49.0084 29.4002 48.5837 31.1721 47.7008 32.7192C49.3245 34.1401 50.8334 35.6902 52.2132 37.3547L52.6377 37.875C51.8397 34.035 54.2041 28.6771 55.9488 28.6771C56.4922 28.6771 56.9761 29.1931 57.286 30.4402C58.4873 35.2906 54.9428 38.3308 53.682 39.2381C55.0961 41.1745 56.3336 43.237 57.3794 45.4001C57.0992 41.5559 60.2702 36.6495 62.0489 36.6495C62.6644 36.6495 63.1229 37.2343 63.2163 38.6404C63.5686 43.8392 59.192 46.1827 57.9737 46.7288C58.0926 46.9954 58.2072 47.2621 58.3175 47.5287C58.9934 49.1656 59.5606 50.8463 60.0155 52.5597C60.44 48.9262 64.1204 45.026 66.2005 45.026C67.0495 45.026 67.6098 45.6581 67.6013 47.176C67.5716 52.564 61.8579 54.2884 60.5037 54.6238C60.8014 56.0097 60.9902 57.4174 61.0683 58.8335C60.9104 58.8013 60.7497 58.7855 60.5886 58.7862C60.3994 58.7843 60.2108 58.8089 60.0283 58.8593C59.9572 57.6219 59.7954 56.3916 59.5443 55.1785C58.5255 55.4574 57.4754 55.6019 56.42 55.6085C54.4079 55.6085 52.018 54.9979 50.6384 52.5253C49.5898 50.6462 50.6129 49.8292 52.3364 49.8292C54.4334 49.8292 57.5662 51.0762 59.1029 53.1187C58.6462 51.3294 58.0617 49.5761 57.3539 47.8727C57.2563 47.6362 57.1544 47.3997 57.0525 47.1675C55.6952 47.9537 54.1705 48.3963 52.608 48.4575C51.8581 48.4735 51.1133 48.3285 50.4226 48.032C49.732 47.7356 49.1111 47.2944 48.6008 46.7374C46.9028 44.9013 48.5668 43.908 50.9143 43.908C52.8075 43.908 55.138 44.553 56.4752 45.9247C55.4745 43.8583 54.2955 41.8855 52.9519 40.0293C51.6776 40.8659 50.2032 41.337 48.6857 41.3925C47.3153 41.3981 45.9878 40.9087 44.9416 40.0121C42.9337 38.3394 44.6614 37.3504 47.0938 37.3504C48.8177 37.3285 50.5112 37.8107 51.9713 38.7393C51.7803 38.4985 51.5892 38.2577 51.394 38.0212C50.0944 36.4477 48.675 34.9797 47.149 33.6308C46.5717 34.1597 44.0374 36.3055 40.7815 36.3055C39.4092 36.2977 38.0633 35.9223 36.8804 35.2175C33.374 33.1879 36.9016 31.3475 40.964 31.3475C42.5255 31.3316 44.0724 31.6527 45.5019 32.2892C44.1011 31.1779 42.6337 30.1554 41.1084 29.2275H40.8409C34.8555 29.2275 27.3164 19.6298 33.0514 19.6298V19.6126ZM33.0514 18.7698C32.2024 18.7698 31.0223 18.9762 30.4577 19.9609C30.1011 20.593 29.8931 21.7239 30.9331 23.5515C31.9893 25.2702 33.3838 26.7501 35.0295 27.8988C37.5511 29.6963 39.5844 30.0747 40.8452 30.0747H40.8834C41.1211 30.2166 41.3546 30.3671 41.5838 30.5047H40.9301C39.5978 30.4905 38.2719 30.6938 37.0035 31.1067C35.6705 31.5754 34.847 32.2677 34.6263 33.1105C34.4352 33.8329 34.5965 34.9165 36.4261 35.9787C37.7383 36.7538 39.2286 37.166 40.7475 37.1741C43.6426 37.1741 45.9646 35.6863 47.115 34.7746C47.79 35.3939 48.4437 36.0389 49.0677 36.6968C48.4114 36.5708 47.7448 36.5075 47.0768 36.5076C45.0392 36.5076 43.6596 37.1053 43.2945 38.1416C43.0908 38.7178 43.1162 39.6251 44.3897 40.6829C45.5918 41.7067 47.1153 42.2618 48.6857 42.2482C50.0981 42.2179 51.4833 41.8479 52.7269 41.1688C53.2915 41.9773 53.8221 42.8115 54.3188 43.6629C53.2257 43.2816 52.0788 43.0827 50.9228 43.0738C48.9998 43.0738 47.6456 43.6629 47.2084 44.682C46.9664 45.2539 46.907 46.1784 47.998 47.3481C48.8248 48.2575 49.9034 48.893 51.0926 49.1713C50.7987 49.2376 50.5209 49.3632 50.2759 49.5405C50.0309 49.7178 49.8235 49.9432 49.6663 50.2033C49.1271 51.1407 49.5134 52.2329 49.9337 52.9854C51.2072 55.286 53.4698 56.4986 56.4497 56.4986C57.2738 56.4947 58.0955 56.4097 58.9034 56.2449C59.0604 57.1278 59.1639 58.0196 59.2132 58.9152C59.2176 59.0447 59.2508 59.1715 59.3103 59.2862C59.3699 59.4009 59.4542 59.5004 59.5571 59.5775C59.66 59.656 59.7797 59.709 59.9065 59.7321C60.0333 59.7553 60.1637 59.748 60.2872 59.7108C60.3954 59.6829 60.5067 59.6698 60.6183 59.6721C60.7222 59.6717 60.8258 59.6803 60.9282 59.6979C60.9889 59.7045 61.0501 59.7045 61.1107 59.6979C61.2244 59.6979 61.3369 59.6748 61.4416 59.63C61.5463 59.5852 61.6411 59.5195 61.7203 59.4369C61.7994 59.3543 61.8614 59.2564 61.9026 59.1491C61.9437 59.0417 61.9632 58.9271 61.9597 58.812C61.8969 57.6141 61.7551 56.4218 61.5352 55.243C62.8016 54.8492 64.0011 54.2619 65.0925 53.5015C67.3084 51.9147 68.4885 49.7346 68.4885 47.1889C68.4885 46.1053 68.2381 45.2883 67.7244 44.768C67.5299 44.5726 67.2984 44.4189 67.0438 44.3162C66.7892 44.2135 66.5169 44.1639 66.2429 44.1703C64.9694 44.1703 63.3479 45.1765 61.8876 46.8664C61.1546 47.7044 60.539 48.6406 60.058 49.6486C59.775 48.823 59.4665 48.006 59.1326 47.1975L59.1071 47.1287C60.1231 46.5747 61.0447 45.8589 61.8366 45.0088C62.6442 44.1581 63.2633 43.1428 63.6527 42.0305C64.0421 40.9183 64.1929 39.7347 64.095 38.5587C64.0667 37.8945 63.8772 37.2476 63.5431 36.6753C63.3895 36.4135 63.1714 36.1967 62.9103 36.0459C62.6491 35.8952 62.3537 35.8157 62.0531 35.8153C61.2848 35.8153 60.4613 36.2883 59.6038 37.2214C58.6519 38.3076 57.8935 39.5531 57.3624 40.9022C57.1439 41.4422 56.9623 41.9968 56.8191 42.5621C56.2035 41.4871 55.5456 40.4378 54.8282 39.423C55.7263 38.6748 56.4977 37.783 57.112 36.7828C57.7107 35.8203 58.1065 34.7429 58.2745 33.6181C58.4425 32.4933 58.3791 31.3455 58.0883 30.2467C57.5959 28.2557 56.645 27.8386 55.9361 27.8386C55.2272 27.8386 54.5565 28.2686 53.9028 29.0727C52.7906 30.4617 51.827 32.9686 51.6529 35.4412C50.7327 34.4245 49.7622 33.4557 48.7451 32.5386C49.2574 31.4547 49.5888 30.2923 49.7257 29.0985C49.9932 26.6448 49.3451 24.1784 47.9088 22.184C47.1108 21.023 46.3467 20.464 45.5698 20.464C45.2529 20.4737 44.9449 20.573 44.6808 20.7509C44.4167 20.9287 44.2071 21.1779 44.0756 21.4702C43.2945 22.915 43.3242 26.0842 44.1987 28.9738C43.6497 28.5983 43.0936 28.2328 42.5304 27.8773C42.1873 26.2003 41.5519 24.5985 40.6541 23.1472C39.9943 22.0969 39.1445 21.1821 38.1496 20.4511C36.9812 19.6126 35.6321 19.0686 34.2145 18.8644C33.8268 18.8035 33.4352 18.7719 33.0429 18.7698H33.0514ZM54.0131 49.2186C54.9175 49.054 55.7976 48.7737 56.6323 48.3844C56.9323 49.1211 57.2153 49.865 57.4813 50.6161C56.4136 49.9632 55.2479 49.4911 54.0301 49.2186H54.0131Z" fill="#313144"/>
<path d="M2.41543 41.2377C2.38159 41.2418 2.34738 41.2418 2.31355 41.2377C2.22506 41.2146 2.14628 41.1632 2.08892 41.0912C2.03156 41.0191 1.99868 40.9302 1.99517 40.8378C1.94527 40.1112 2.0317 39.3817 2.24987 38.6877C2.26239 38.661 2.27656 38.6352 2.29232 38.6103C2.9885 37.5353 3.79505 36.327 4.54216 35.3724L4.43604 35.1531C3.90542 34.0952 3.30687 32.8998 5.37418 28.647C5.63737 28.1353 5.9515 27.8816 6.31232 27.8816C6.45207 27.8875 6.58787 27.9303 6.70627 28.0057C6.82466 28.0811 6.92153 28.1866 6.98728 28.3116C7.46271 29.0642 7.50517 30.8143 6.8387 33.0417C7.4047 32.4684 7.9707 31.9309 8.5367 31.4292L8.56217 31.2228C8.68457 29.7445 9.03106 28.2941 9.58946 26.9227C9.93978 26.0728 10.4907 25.3229 11.1938 24.7388C11.8969 24.1548 12.7307 23.7545 13.6222 23.573C13.9288 23.5027 14.2418 23.4652 14.5561 23.4612C14.8309 23.4438 15.1062 23.4849 15.3643 23.5819C15.6224 23.679 15.8575 23.8297 16.0546 24.0245C16.3917 24.4107 16.5655 24.9157 16.5385 25.4306C16.5385 26.7464 15.6895 28.5998 14.3693 30.1607C12.8963 31.9065 11.1728 32.9041 9.64039 32.9041H9.57672C9.15222 33.2653 8.75319 33.6394 8.35841 34.0221C9.57156 33.5066 10.8647 33.2111 12.1789 33.1492C12.9939 33.1492 13.4864 33.3771 13.6434 33.8286C13.8344 34.3704 13.4566 35.0069 12.4548 35.8282C10.9054 37.0967 9.41541 37.7417 8.03155 37.7417C7.19079 37.7567 6.37014 37.4806 5.70529 36.9591C4.64416 38.2542 3.66852 39.6189 2.78474 41.0442C2.74473 41.1058 2.68975 41.156 2.62507 41.1898C2.56039 41.2237 2.4882 41.2402 2.41543 41.2377Z" fill="#17FFDD"/>
<path d="M14.556 23.8913C18.6312 23.8913 13.9235 32.4914 9.64034 32.4914H9.42809C8.29773 33.4602 7.23136 34.503 6.23586 35.6133C8.12488 34.3232 10.7101 33.5535 12.1534 33.5535C13.3972 33.5535 13.7962 34.134 12.1534 35.4757C10.5106 36.8173 9.07151 37.2946 7.99753 37.2946C7.55641 37.3134 7.11656 37.2343 6.70884 37.0627C6.30112 36.8911 5.93539 36.6312 5.63731 36.3013C4.46505 37.7287 3.38865 39.2343 2.41537 40.8077C2.3709 40.1454 2.44863 39.4804 2.6446 38.8469C3.34927 37.7633 4.24071 36.426 5.03028 35.4413C4.55909 34.2587 3.45963 33.5535 5.75617 28.8406C5.93871 28.4794 6.13398 28.3117 6.31227 28.3117C7.01693 28.3117 7.42021 31.0122 5.70523 34.8564C6.716 33.7084 7.80086 32.6296 8.95265 31.6271C9.22433 29.5287 9.56393 24.8803 13.724 23.9902C14.0028 23.9271 14.2874 23.894 14.573 23.8913H14.556ZM14.573 23.0312C14.229 23.0344 13.8862 23.0733 13.55 23.1474C9.02906 24.1192 8.45599 28.8664 8.16308 31.1455V31.1928L7.60274 31.7002C7.91687 29.9802 7.75981 28.6901 7.34804 28.0666C7.2418 27.8851 7.09182 27.7339 6.91216 27.6271C6.73249 27.5203 6.529 27.4614 6.32076 27.456C5.95569 27.456 5.43355 27.628 5.0133 28.445C4.06667 30.393 3.59547 31.8378 3.5318 32.9945C3.48188 33.8016 3.66635 34.6058 4.06242 35.308C3.35351 36.2368 2.61064 37.3591 1.93993 38.361C1.90662 38.4126 1.87819 38.4674 1.85503 38.5244C1.61739 39.2661 1.52228 40.047 1.57486 40.8249C1.58675 41.0063 1.65506 41.1792 1.76998 41.3188C1.8849 41.4583 2.04052 41.5575 2.2145 41.6019C2.38849 41.6463 2.5719 41.6337 2.7384 41.566C2.9049 41.4983 3.04593 41.3788 3.14126 41.2249C3.93932 39.9283 4.8199 38.6859 5.7774 37.5053C6.45424 37.924 7.23424 38.1402 8.02724 38.1288C9.51299 38.1288 11.0879 37.4537 12.6967 36.1207C13.4269 35.523 14.3565 34.6156 14.0212 33.6481C13.741 32.8655 12.8538 32.7193 12.1788 32.7193H11.9793C13.0261 32.1492 13.9543 31.3797 14.7131 30.4532C16.1097 28.7976 16.9799 26.8841 16.9799 25.4479C16.9799 24.0117 16.0588 23.0527 14.5773 23.0527L14.573 23.0312Z" fill="#313144"/>
<path d="M132.974 28.6429C131.96 30.2898 130.894 31.1799 129.85 31.2616C129.311 31.3003 128.237 30.4016 127.456 30.0834C126.979 29.939 126.559 29.6493 126.251 29.2537C125.943 28.8581 125.764 28.376 125.736 27.8732C125.653 25.7936 125.881 23.7132 126.411 21.7026C126.526 20.9715 126.967 19.574 126.963 19.4923L126.874 19.4536C126.513 19.6944 125.978 20.3738 125.257 21.4059C124.555 22.4605 123.922 23.5608 123.364 24.6997C122.799 25.9 122.329 27.1438 121.958 28.4193C121.663 29.3421 121.425 30.2828 121.245 31.2358C121.245 31.7905 120.791 31.9109 119.271 31.2358C117.998 30.694 117.382 30.1049 117.331 29.4255C117.24 27.1474 117.408 24.8662 117.832 22.6271C117.985 21.8101 118.257 20.2577 118.626 18.0174L118.494 17.9443C117.06 19.9228 115.867 22.0698 114.941 24.3385C114.801 24.7298 114.156 26.2262 114.016 26.6175C113.91 26.8411 113.804 27.1465 113.63 27.6281C113.212 28.7826 112.949 29.9888 112.849 31.2143C112.895 31.8507 112.776 32.5043 112.399 32.5258C111.821 32.4862 111.256 32.3405 110.73 32.0958C110.129 31.9008 109.567 31.5978 109.071 31.2014C108.846 31.0036 108.731 30.5908 108.684 29.9544C108.684 29.8297 108.684 28.8923 108.765 27.0992C108.881 24.7859 109.131 22.4814 109.512 20.1975C109.937 17.4885 110.361 15.2869 110.824 13.5496C111.685 13.5063 112.546 13.6139 113.371 13.8678C114.317 14.1344 114.801 14.4397 114.827 14.7751C114.827 14.9041 114.458 16.5898 113.651 19.8836C113.253 21.6027 112.949 23.3426 112.738 25.0953L112.866 25.1297C113.884 22.4594 115.188 19.6385 116.686 16.5898C118.036 13.8936 119.318 12.5219 120.57 12.4273C121.297 12.394 122.02 12.5588 122.663 12.9046C123.182 13.1047 123.633 13.4545 123.958 13.9108C123.856 14.2591 123.414 15.6309 122.799 18.0819C121.712 22.1154 121.101 24.5879 121.003 25.5726L121.131 25.6027C122.339 22.9178 123.716 20.3138 125.253 17.8067C126.564 15.6567 127.613 14.5644 128.364 14.5085C129.194 14.4652 130.022 14.6122 130.788 14.9385C131.569 15.3041 132.015 15.6524 132.168 15.9792C132.07 16.3705 131.348 18.5076 130.576 21.1393C129.82 23.9601 129.472 26.0284 129.574 27.4217C129.616 27.9721 129.765 28.2817 130.054 28.2344C131.263 28.1441 133.246 25.4436 134.596 21.5564C134.867 20.7264 135.131 20.2663 135.381 20.2663C135.84 20.2319 136.069 20.5114 136.111 21.0618C136.022 21.8002 135.837 22.5233 135.559 23.2119C134.886 25.1082 134.02 26.9283 132.974 28.6429Z" fill="white"/>
<path d="M142.394 28.346C141.566 29.6361 140.696 30.3456 139.736 30.4187C138.607 30.5047 136.765 29.4555 135.53 28.0192C134.965 27.1889 134.657 26.2067 134.647 25.1984C134.592 23.6164 134.685 22.0328 134.923 20.4683C135.194 18.4516 135.479 16.6455 135.827 15.1276C136.027 14.0151 136.297 12.9164 136.633 11.8381C137.528 11.799 138.424 11.8873 139.295 12.1004C140.28 12.367 140.81 12.7067 140.836 13.0894C140.989 13.4162 140.08 15.3125 139.299 19.4965C138.726 22.5065 138.518 24.7856 138.633 26.3078C138.701 29.4942 140.806 27.3312 142.385 24.2782C143.039 22.9126 143.606 21.5066 144.083 20.0684C144.185 19.7201 144.38 19.5352 144.588 19.518C144.881 19.518 145.293 19.948 145.327 20.378C145.33 20.7298 145.271 21.0793 145.153 21.41C144.096 24.7297 143.179 27.056 142.394 28.346ZM142.394 6.66507C141.702 7.52509 140.938 8.011 140.106 8.0755C138.977 8.1615 138.213 7.45199 138.115 6.14046C138.073 5.18278 138.341 4.23747 138.879 3.44862C139.095 3.0477 139.405 2.70668 139.782 2.45551C140.159 2.20435 140.591 2.05071 141.04 2.0081C141.328 1.97887 141.619 2.01061 141.894 2.10132C142.169 2.19202 142.423 2.33971 142.639 2.53501C142.855 2.73031 143.028 2.96894 143.148 3.23578C143.268 3.50261 143.332 3.79181 143.336 4.08503C143.359 5.03862 143.015 5.96392 142.377 6.66507H142.394Z" fill="white"/>
<path d="M156.415 29.5287C155.706 29.5846 154.628 28.6687 153.983 28.3978C152.854 27.9334 152.191 27.4733 151.988 26.9787C151.864 26.5844 151.791 26.1753 151.771 25.7618C151.692 24.3784 151.758 22.9904 151.966 21.6209C152.251 19.5681 152.704 17.5429 153.321 15.5664L153.189 15.4933C152.062 17.1136 151.025 18.7961 150.082 20.5329C148.57 23.371 147.717 25.9854 147.475 28.3849C147.522 29.017 147.288 29.8426 146.915 29.8727C146.541 29.9028 146.066 29.7265 145.315 29.2707C144.715 28.9888 144.193 28.5621 143.795 28.028C143.631 27.7825 143.55 27.4897 143.566 27.1938C143.539 26.4401 143.567 25.6856 143.651 24.9362C143.936 20.5242 144.607 16.1467 145.658 11.8554C147.662 11.7049 149.309 12.4273 149.517 12.9648C149.666 13.2959 149.385 13.9968 148.668 16.7704C148.208 18.53 147.864 20.3184 147.637 22.124L147.768 22.1541C148.888 19.3048 150.195 16.535 151.682 13.8635C152.871 11.7737 154.004 10.6686 155.048 10.5869C155.723 10.5269 156.4 10.6556 157.007 10.9589C157.614 11.2622 158.128 11.7284 158.491 12.3069C158.389 12.6122 158.007 13.6614 157.341 15.4116C156.702 17.2359 156.251 19.1222 155.995 21.0403C155.705 22.5214 155.563 24.0283 155.57 25.5382C155.626 26.2993 155.647 26.596 156.19 26.553C156.734 26.51 157.438 25.822 158.389 24.5148C159.419 23.0201 160.217 21.3741 160.754 19.6342C161.178 18.37 161.178 18.2367 161.53 18.2152C161.883 18.1937 162.269 18.5807 162.311 19.1311C162.296 19.4863 162.223 19.8364 162.095 20.1674C161.525 22.0912 160.792 23.9616 159.905 25.7575C158.894 27.8517 157.358 29.4556 156.415 29.5287Z" fill="white"/>
<path d="M168.602 26.3465C167.775 27.6366 166.904 28.3461 165.945 28.4192C164.816 28.5052 162.974 27.456 161.734 26.0197C161.225 25.379 160.944 24.4244 160.855 23.1989C160.797 21.6169 160.889 20.0328 161.131 18.4688C161.399 16.4521 161.687 14.6418 162.035 13.1281C162.236 12.0146 162.504 10.9146 162.838 9.83427C163.734 9.79902 164.631 9.88873 165.504 10.1009C166.488 10.3675 167.019 10.7072 167.044 11.0899C167.197 11.4167 166.289 13.313 165.508 17.497C164.935 20.507 164.727 22.7861 164.837 24.3083C164.909 27.4904 167.015 25.3317 168.59 22.2787C169.243 20.9131 169.81 19.507 170.288 18.0689C170.39 17.7206 170.585 17.5357 170.793 17.5185C171.086 17.497 171.497 17.9485 171.531 18.3785C171.533 18.7305 171.472 19.0799 171.353 19.4105C170.305 22.7302 169.388 25.0522 168.602 26.3465ZM168.581 4.66558C167.893 5.52559 167.129 6.0115 166.297 6.0717C165.168 6.1577 164.404 5.45249 164.306 4.14097C164.262 3.18298 164.531 2.23687 165.071 1.44912C165.287 1.0482 165.597 0.707185 165.974 0.456019C166.35 0.204852 166.782 0.0512163 167.231 0.00860057C167.519 -0.0206621 167.81 0.0110907 168.085 0.101838C168.36 0.192585 168.613 0.34034 168.829 0.5357C169.045 0.73106 169.218 0.969746 169.337 1.23657C169.457 1.5034 169.52 1.79252 169.524 2.08554C169.554 3.03713 169.215 3.96294 168.581 4.66558Z" fill="white"/>
<path d="M173.098 30.466C173.463 30.4359 173.552 30.466 173.628 30.6036C173.769 30.7326 173.777 31.0336 173.696 31.4636C173.663 31.7401 173.575 32.0069 173.438 32.2485C173.301 32.49 173.117 32.7012 172.898 32.8697L109.19 37.8148C108.693 37.8492 108.595 37.3289 108.765 36.5248C108.884 35.9265 109.084 35.3477 109.359 34.8047C116.151 34.8047 159.998 31.4679 169.91 30.767C170.977 30.7224 172.041 30.622 173.098 30.466Z" fill="white"/>
<path d="M108.68 41.1216H118.346L129.06 58.5799L139.775 41.1216H149.441V82.4023H140.526V55.4537L129.065 73.084H128.835L117.48 55.6257V82.4066H108.68V41.1216Z" fill="white"/>
<path d="M108.884 41.3193H118.456L129.069 58.6013L139.681 41.3193H149.25V82.1958H140.42V55.5096L129.06 72.9679H128.831L117.591 55.6816V82.1958H108.884V41.3193Z" fill="white"/>
<path d="M108.68 41.1216H118.346L129.06 58.5799L139.775 41.1216H149.441V82.4023H140.526V55.4537L129.065 73.084H128.835L117.48 55.6257V82.4066H108.68V41.1216Z" fill="white"/>
<path d="M159.225 41.1216H189.972V49.2014H168.136V57.578H187.348V65.6578H168.136V74.331H190.26V82.4109H159.225V41.1216Z" fill="white"/>
<path d="M159.378 41.3193H189.819V49.3175H168.199V57.6123H187.225V65.6104H168.199V74.2106H190.108V82.213H159.378V41.3193Z" fill="white"/>
<path d="M159.225 41.1216H189.972V49.2014H168.136V57.578H187.348V65.6578H168.136V74.331H190.26V82.4109H159.225V41.1216Z" fill="white"/>
<path d="M207.728 49.4895H195.329V41.1216H229.098V49.4895H216.698V82.4023H207.728V49.4895Z" fill="white"/>
<path d="M207.775 49.6185H195.494V41.3193H228.932V49.6185H216.651V82.2044H207.775V49.6185Z" fill="white"/>
<path d="M207.728 49.4895H195.329V41.1216H229.098V49.4895H216.698V82.4023H207.728V49.4895Z" fill="white"/>
<path d="M236.378 41.1216H245.348V82.4023H236.378V41.1216Z" fill="white"/>
<path d="M236.425 41.3193H245.301V82.1958H236.425V41.3193Z" fill="white"/>
<path d="M236.378 41.1216H245.348V82.4023H236.378V41.1216Z" fill="white"/>
<path d="M252.742 76.3952L258.04 69.945C261.767 73.0153 265.55 74.9589 270.211 74.9589C273.938 74.9589 276.09 73.484 276.09 71.0674V70.99C276.09 68.6894 274.693 67.451 267.88 65.7396C259.611 63.6755 254.372 61.2546 254.372 53.1146V52.9985C254.372 45.5077 260.252 40.5282 268.636 40.5282C274.133 40.4386 279.488 42.2955 283.778 45.7786L279.108 52.6243C275.436 50.0873 272.002 48.5522 268.496 48.5522C264.989 48.5522 263.253 50.0873 263.253 52.1513V52.2674C263.253 55.041 265.002 55.8064 272.049 57.6941C280.318 59.9345 284.975 62.8843 284.975 70.0826V70.1987C284.975 78.399 278.802 83.0001 270.011 83.0001C263.643 83.0551 257.485 80.6997 252.742 76.3952Z" fill="white"/>
<path d="M252.904 76.2488L258.146 69.8804C261.839 72.9206 265.605 74.8599 270.198 74.8599C273.887 74.8599 276.018 73.3979 276.018 70.9898V70.8737C276.018 68.599 274.634 67.3692 267.888 65.6792C259.704 63.6324 254.517 61.2373 254.517 53.1789V53.0628C254.517 45.6495 260.337 40.7431 268.64 40.7431C274.082 40.6534 279.383 42.4922 283.629 45.9419L279.014 52.7145C275.385 50.2033 271.985 48.6854 268.525 48.6854C265.065 48.6854 263.338 50.2033 263.338 52.2458V52.3619C263.338 55.1097 265.065 55.8665 272.04 57.737C280.229 59.9558 284.839 62.8756 284.839 69.9965V70.1298C284.839 78.2441 278.726 82.8021 270.024 82.8021C263.709 82.86 257.602 80.5223 252.904 76.2488Z" fill="white"/>
<path d="M252.742 76.3952L258.04 69.945C261.767 73.0153 265.55 74.9589 270.211 74.9589C273.938 74.9589 276.09 73.484 276.09 71.0674V70.99C276.09 68.6894 274.693 67.451 267.88 65.7396C259.611 63.6755 254.372 61.2546 254.372 53.1146V52.9985C254.372 45.5077 260.252 40.5282 268.636 40.5282C274.133 40.4386 279.488 42.2955 283.778 45.7786L279.108 52.6243C275.436 50.0873 272.002 48.5522 268.496 48.5522C264.989 48.5522 263.253 50.0873 263.253 52.1513V52.2674C263.253 55.041 265.002 55.8064 272.049 57.6941C280.318 59.9345 284.975 62.8843 284.975 70.0826V70.1987C284.975 78.399 278.802 83.0001 270.011 83.0001C263.643 83.0551 257.485 80.6997 252.742 76.3952Z" fill="white"/>
</g>
<defs>
<clipPath id="clip0_133_344">
<rect width="285" height="83" fill="white"/>
</clipPath>
</defs>
</svg>
