<svg width="228" height="77" viewBox="0 0 228 77" fill="none" xmlns="http://www.w3.org/2000/svg">
<g clip-path="url(#clip0_501_508)">
<path d="M38.5781 77.0072C59.8842 77.0072 77.1562 59.7686 77.1562 38.5036C77.1562 17.2387 59.8842 0 38.5781 0C17.272 0 0 17.2387 0 38.5036C0 59.7686 17.272 77.0072 38.5781 77.0072Z" fill="#04D8CC"/>
<path d="M51.2589 47.2517C47.4228 42.455 36.6601 42.6067 31.7745 38.8864C29.0023 36.777 24.4497 30.6944 22.6836 27.6315C21.6559 25.8616 21.3229 22.0329 21.0334 22.5025C20.4833 23.3838 18.254 24.9658 18.8476 25.5654C16.1261 29.7842 13.7159 33.7213 10.9944 37.94C9.66264 39.9989 8.3381 40.2589 8.51181 42.7729C8.68552 45.2651 9.53959 50.1846 10.1041 52.6119C10.4299 54.0205 9.72778 53.9627 9.58302 55.4147C9.48893 56.3755 9.28626 57.3219 9.41655 58.2899C9.69159 60.3704 11.2333 61.7068 12.869 62.8482C14.8305 64.2207 16.8933 65.5788 19.0647 66.5974C20.201 67.132 21.3591 67.8544 22.604 68.0133C29.0964 68.8296 36.3271 67.262 42.4142 65.2032C44.3395 64.553 46.9524 64.6108 49.0441 63.7801C52.2795 62.4942 54.7693 60.0092 55.3339 56.6862C56.2893 51.1165 54.487 51.2971 51.2589 47.2517Z" fill="#FFD9BD"/>
<path d="M25.3182 50.1342C24.9491 49.9103 24.551 49.8958 24.1746 50.0114C24.0371 50.0258 23.8924 50.062 23.7693 50.127C23.6246 50.1992 23.5087 50.3076 23.4147 50.4232C23.2048 50.5893 23.06 50.7916 23.06 51.0733C23.06 51.2395 23.1179 51.3912 23.2048 51.514C23.2627 51.7235 23.3712 51.9257 23.5305 52.0847C24.0661 52.612 25.0866 52.612 25.6005 52.063C26.1506 51.4851 25.9841 50.546 25.311 50.1342H25.3182Z" fill="#FFA294"/>
<path d="M73.711 23.7161C71.3948 22.7409 68.6444 22.8709 66.5889 24.3952C65.3367 25.3198 64.5984 26.6635 64.2365 28.1155C63.2015 26.2156 62.0073 24.3879 60.8564 22.5964C59.0252 19.7429 57.4691 18.1537 55.0806 15.7264C49.9416 10.5252 42.1681 7.96791 35.0894 8.16296C20.8959 8.56028 6.96291 17.5396 3.81441 31.9153C2.9531 35.8379 2.96034 39.9772 3.90851 43.8854C4.67573 47.035 6.03645 50.5531 9.23561 51.9184C9.80017 52.1568 10.4443 51.6728 10.3575 51.066C10.0245 48.6532 9.66989 46.2331 9.36589 43.8203C9.18495 42.39 9.25733 41.2053 9.9594 39.9266C10.6904 38.5902 11.4938 37.2827 12.2755 35.9751C14.57 32.1609 16.8499 28.3178 19.195 24.5324C18.8331 26.3601 18.8476 28.2094 18.8765 30.1382C18.9199 33.1722 19.0719 36.1991 19.2746 39.2259C19.2963 39.5654 19.7957 39.486 19.7885 39.1609C19.7668 36.5025 19.6293 33.8441 19.5858 31.1857C19.5496 29.1124 19.7451 27.0752 19.955 25.0236C21.5039 29.3725 23.7259 33.4395 27.2146 36.5819C30.5947 39.6232 34.8506 41.8699 39.0052 43.9937C38.6143 44.3332 38.5057 45.034 39.0052 45.3446C40.4021 46.197 41.7556 47.0856 43.1452 47.938C43.1452 48.0608 43.1742 48.1836 43.2393 48.2775C43.898 49.2383 44.3685 50.2569 44.7376 51.3188C44.6073 51.2177 44.477 51.1093 44.3467 51.0009C43.9125 50.647 43.3551 51.2321 43.746 51.6366C47.2274 55.2053 51.5919 59.4457 51.4761 64.8348C51.4688 65.1815 52.0117 65.2321 52.0768 64.8926C52.6052 62.2053 51.2879 59.937 50.195 57.5603C49.2975 55.6098 48.1177 54.2589 46.6918 52.9803C47.365 52.0267 48.5158 51.9112 49.6015 51.8606C49.6015 51.8606 49.6087 51.8606 49.6159 51.8606C51.6353 51.94 53.2639 53.3487 53.9587 55.2125C54.7259 57.2569 54.1252 59.2868 53.054 61.0783C52.8368 61.4395 53.1263 61.9958 53.5896 61.7935C55.1819 61.1145 56.6946 60.3487 58.0409 59.3374C58.287 59.5396 58.6489 59.6263 58.9456 59.4096C60.7261 58.1454 62.5284 56.679 63.6358 54.7646C64.8228 52.7058 65.4163 50.2641 65.923 47.9597C66.3717 45.9153 66.6178 43.8781 66.6685 41.841C66.6902 41.6315 66.6974 41.422 66.7119 41.2053C67.1896 41.9493 67.718 42.6284 68.2825 43.228C70.215 45.2724 73.1464 46.6232 75.8968 45.4096C78.3722 44.3188 79.7329 41.682 80.3264 39.1753C81.6437 33.6346 79.2986 26.0711 73.6965 23.7089L73.711 23.7161Z" fill="#BF6440"/>
<path d="M18.5435 23.7017C14.8956 28.0794 11.5662 32.6377 8.30189 37.3043C7.12935 38.9731 5.00864 40.9235 5.37053 43.1196C5.75414 45.4674 7.14382 48.292 8.43217 50.2569C8.83026 50.8637 9.80014 50.488 9.61919 49.7584C9.34415 48.6459 8.96778 47.5768 8.6276 46.486C8.98949 46.4209 9.32967 46.1248 9.32967 45.713C9.32967 45.0051 9.14873 44.3694 9.02568 43.6759C8.90264 42.939 8.85921 42.2022 8.85197 41.4581C8.85197 41.3136 8.81578 41.1908 8.75788 41.0897C8.99673 40.7863 9.23558 40.4973 9.43101 40.2156C10.1837 39.1537 10.9293 38.0917 11.682 37.0298C14.5337 32.9844 17.2335 28.8884 19.7378 24.6263C20.1576 23.9039 19.1081 23.0298 18.5435 23.7089V23.7017Z" fill="#A5513A"/>
<path d="M52.7282 45.5832C49.891 44.1528 46.8438 43.1559 43.9776 41.7617C41.162 40.3964 38.4985 38.771 35.9869 36.9144C30.8046 33.0785 26.2881 28.2529 22.6547 22.9361C21.9237 21.8597 20.3965 22.7772 20.9248 23.9475C23.8055 30.2395 28.1989 35.5636 33.707 39.7607C38.7735 43.6255 45.5916 47.5914 52.142 47.7648C53.2711 47.7937 53.7705 46.1177 52.7282 45.5904V45.5832Z" fill="#A5513A"/>
<path d="M49.5435 48.0898C48.7473 47.9453 47.9367 47.9958 47.1405 47.8514C46.3154 47.6997 45.5337 47.4324 44.781 47.0567C43.6446 46.4788 42.7471 48.0392 43.7894 48.7471C44.6217 49.3106 45.6206 49.838 46.6628 50.1486C46.6194 50.582 46.8727 51.0588 47.4445 51.0588C47.886 51.0588 48.1466 50.7626 48.2117 50.4303C48.6605 50.4592 49.1092 50.4303 49.5435 50.3364C50.6364 50.098 50.6799 48.2993 49.5435 48.0898Z" fill="#A25234"/>
<path d="M70.4032 32.6812C69.3537 34.4439 70.2874 36.7628 72.3358 37.2612C74.4275 37.7669 76.4541 36.1487 77.0911 34.2344C78.7196 29.3149 73.0016 25.2333 68.7747 28.0868C66.9001 29.3582 65.6407 31.2942 65.0834 33.4253C62.9265 33.0569 60.7189 33.2591 58.5475 33.2013C55.9853 33.1363 53.4303 32.8763 50.9115 32.4139C46.1417 31.5326 41.5529 30.0878 36.9134 28.7297C35.8494 28.4191 35.379 29.8422 36.1968 30.4201C40.3442 33.3603 45.3239 35.0796 50.3108 35.9248C52.8006 36.3438 55.3194 36.6111 57.8382 36.6905C59.5174 36.7411 61.3124 36.7989 63.0278 36.5388C62.76 36.6688 62.4922 36.8133 62.2099 36.9506C61.3196 37.3912 60.4149 37.673 59.4378 37.8391C58.3232 38.0197 58.6633 39.674 59.6911 39.7318C60.2846 39.7607 60.9939 39.7462 61.7105 39.6523C61.7539 40.1941 62.3474 40.7359 62.9988 40.4108C63.4693 40.1725 63.9036 39.8979 64.3234 39.5801C64.6708 39.3128 64.9386 39.0166 65.1919 38.6771C65.3874 39.3128 65.6552 39.9341 65.9953 40.5192C68.3477 44.5068 73.6458 45.1931 76.9535 42.1012C77.1417 41.9279 76.9535 41.5956 76.7002 41.6678C73.0451 42.802 68.9484 40.158 68.7168 36.2932C68.6227 34.6678 69.3827 32.963 70.6638 31.9516C71.1994 31.5254 71.9087 31.1136 72.5963 31.4604C73.0234 31.6699 73.3346 32.3778 73.4432 33.0352C73.0595 31.8721 71.1632 31.4387 70.4032 32.7101V32.6812Z" fill="#A5513A"/>
<path d="M17.827 43.5677C14.2731 42.2891 11.8991 45.4315 11.8484 48.2921C11.8123 50.2354 12.29 52.2509 13.933 53.4789C15.8944 54.9454 18.7824 54.353 20.1214 52.4026C22.0829 49.5419 21.2433 44.7885 17.827 43.5605V43.5677Z" fill="white"/>
<path d="M35.1473 44.9906C31.5935 43.7987 29.3208 46.9628 29.2701 49.6356C29.234 51.4561 30.0012 53.4571 31.6442 54.6057C33.6057 55.9783 36.4936 55.422 37.8326 53.6016C39.7941 50.9287 38.5564 46.1465 35.1473 44.9979V44.9906Z" fill="white"/>
<path d="M27.0264 58.355C26.983 57.3798 27.0119 55.9567 26.65 55.0393C25.9841 53.3344 22.5172 53.7606 21.0406 54.3674C20.8162 54.3891 20.6136 54.5336 20.5629 54.7864C20.5267 54.8875 20.5195 54.9959 20.5484 55.097C20.6136 56.419 20.5195 57.611 20.8452 58.9257C21.0913 59.901 21.3663 61.0785 22.2204 61.6853C22.3145 61.8153 22.4086 61.9309 22.5172 62.0393C23.791 63.3107 25.6439 62.7111 26.4763 61.2591C26.9902 60.3705 27.0698 59.3592 27.0264 58.355Z" fill="#FF7D7D"/>
<path d="M26.1216 54.3096C26.0058 53.8256 25.4702 53.7389 25.0866 53.9123C24.6596 54.1073 24.1891 54.324 23.7042 54.4685C23.0238 54.4396 22.3507 54.4324 21.6631 54.2735C21.4604 54.2301 21.3084 54.3096 21.2143 54.4324C20.9031 54.5191 20.6787 54.7936 20.6498 55.1837C20.5629 56.3539 20.686 57.4809 20.99 58.615C21.0623 58.8823 21.2288 59.0485 21.4315 59.1279C21.265 59.4025 21.113 59.6914 20.9755 60.002C20.7222 60.5655 21.4677 60.9339 21.8078 60.4427C22.2855 59.7564 22.9297 59.1207 23.5811 58.5934C24.2181 58.0732 25.7597 57.4086 26.4546 56.9969C27.5186 56.3684 26.3605 55.3426 26.1216 54.3023V54.3096Z" fill="#FF6161"/>
<path d="M25.2603 54.1362C24.7754 54.0351 24.2687 54.2374 23.7838 54.3024C23.1613 54.3891 22.5316 54.3674 21.9164 54.2301C21.4749 54.129 21.1782 54.8153 21.6269 55.0031C22.3217 55.292 23.0962 55.2559 23.8562 55.1909C24.4569 55.1403 25.3472 55.1403 25.6657 54.5913C25.767 54.418 25.4558 54.1796 25.2603 54.1434V54.1362Z" fill="white"/>
<path d="M9.84359 51.8174C9.6554 50.7916 7.99792 51.2395 8.25848 52.2797C8.25848 52.3086 8.27296 52.3303 8.2802 52.3592C6.89052 54.6131 5.87721 57.3509 5.29094 59.8649C4.74809 62.2054 4.53096 64.6616 5.8555 66.7782C6.01473 67.031 6.42729 66.9154 6.41281 66.612C6.31872 63.4624 6.52862 60.0888 8.05582 57.2642C8.57695 56.3035 9.77121 55.4438 10.1114 54.4252C10.372 53.6595 9.96663 52.5615 9.83635 51.8246L9.84359 51.8174Z" fill="#BF6440"/>
<path d="M8.2874 41.7473C8.27292 43.6905 8.39596 45.6338 8.671 47.5626C8.96776 49.6358 9.31518 51.7235 9.9304 53.7318C10.0824 54.223 10.7483 54.0063 10.6831 53.5223C10.4081 51.4924 9.90869 49.5058 9.59022 47.4903C9.28623 45.5904 9.06185 43.6761 9.02566 41.7545C9.01843 41.285 8.30187 41.285 8.29463 41.7545L8.2874 41.7473Z" fill="#443247"/>
<path d="M21.0334 49.3035C21.0262 49.0362 20.9972 48.7761 20.9538 48.5233C20.809 48.8628 20.4833 49.1229 20.0056 49.0867C18.739 48.9784 18.9054 47.0135 20.1721 47.1218C20.3241 47.1363 20.4544 47.1724 20.5629 47.2374C19.8898 45.7348 18.5725 44.7307 17.0815 44.7741C14.9753 44.8391 13.3395 46.9774 13.4191 49.5491C13.4987 52.1208 15.272 54.1507 17.371 54.0857C19.4772 54.0207 21.113 51.8824 21.0334 49.3107V49.3035Z" fill="#443247"/>
<path d="M37.4417 50.6904C36.1751 50.5821 36.3416 48.6171 37.6082 48.7255C37.7674 48.74 37.9049 48.7833 38.0208 48.8483C37.5213 47.2229 36.2837 46.0382 34.7637 45.9298C32.6647 45.7854 30.819 47.7503 30.6453 50.322C30.4716 52.8865 32.0278 55.0826 34.1268 55.2271C36.2258 55.3715 38.0714 53.4066 38.2451 50.8349C38.2596 50.6688 38.2596 50.5098 38.2596 50.3509C38.0859 50.5748 37.8109 50.7193 37.4417 50.6904Z" fill="#443247"/>
<path d="M31.3402 45.9225C32.4693 45.2001 33.8879 44.9617 35.1473 45.3229C35.7191 45.489 36.2909 45.8069 36.7397 46.2259C37.2825 46.7388 37.5358 47.4178 37.9556 48.0102C38.1076 48.2197 38.5129 48.2414 38.5636 47.9307C38.7228 47.0061 38.2451 46.1031 37.6661 45.4096C37.1305 44.7739 36.3995 44.3477 35.6033 44.1093C33.9675 43.6108 32.1508 43.972 30.7756 44.9689C30.2111 45.3807 30.725 46.3198 31.3402 45.9297V45.9225Z" fill="#443247"/>
<path d="M12.8039 46.2911C13.3467 45.0052 14.4614 43.9794 15.8655 43.7338C17.2552 43.4882 18.6376 44.1456 19.6654 45.0414C19.9767 45.3087 20.4905 44.9691 20.2589 44.5863C19.2891 42.9681 17.4651 42.2674 15.6339 42.578C13.8317 42.8814 12.4637 44.2034 11.9281 45.9155C11.7689 46.4211 12.594 46.7968 12.8111 46.2839L12.8039 46.2911Z" fill="#443247"/>
<path d="M20.7801 54.3529C22.148 54.6564 23.639 54.5047 25.0215 54.418C25.2676 54.4035 25.5137 54.3818 25.7598 54.3674C25.7959 54.3674 25.9335 54.3818 25.9552 54.3674C25.9769 54.3457 25.8683 54.3313 25.8177 54.3241C25.7163 54.3168 25.7887 54.2085 25.8104 54.3385C25.8394 54.5263 25.9986 54.7719 26.0638 54.9598C26.1796 55.3065 26.2737 55.6677 26.3533 56.0217C26.7224 57.6182 27.0264 59.4603 26.3171 61.0062C25.9407 61.837 25.1156 62.6099 24.1457 62.5666C23.0455 62.516 22.2421 61.6058 21.7934 60.6811C21.294 59.6553 21.0985 58.485 21.0117 57.3509C20.9248 56.2528 20.9248 55.1404 21.0479 54.0495C21.0841 53.6956 20.534 53.7028 20.4906 54.0495C20.2155 56.2095 20.2445 58.6295 21.0479 60.6739C21.4677 61.7358 22.1408 62.7183 23.2337 63.1662C24.2326 63.5779 25.311 63.3757 26.1289 62.6822C27.7502 61.3096 27.7285 58.8896 27.3955 56.968C27.258 56.1589 27.0771 55.3426 26.8237 54.5624C26.6717 54.1073 26.498 53.5222 25.9335 53.5005C25.2242 53.4716 24.4714 53.6089 23.7693 53.6739C22.8574 53.7606 21.8658 53.8978 20.9538 53.7534C20.5702 53.6956 20.3965 54.259 20.7873 54.3457L20.7801 54.3529Z" fill="#443247"/>
<path d="M42.6964 48.3354C44.4263 49.5635 46.4674 50.4593 48.6026 50.5749C48.8414 50.5893 48.8921 50.2137 48.6605 50.1631C46.6339 49.708 44.6724 49.1012 42.8991 47.9959C42.682 47.8587 42.4938 48.191 42.6964 48.3354Z" fill="#443247"/>
<path d="M39.0341 56.7947C39.1137 56.7731 39.1933 56.7442 39.2657 56.7081C39.2729 56.7081 39.2874 56.6936 39.2946 56.6936C39.3091 56.6792 39.3308 56.6647 39.3453 56.6575C39.3598 56.643 39.3815 56.6286 39.396 56.6141C39.4032 56.6141 39.4104 56.5997 39.4177 56.5925C39.4466 56.5636 39.4756 56.5275 39.4973 56.4913C39.5045 56.4697 39.5118 56.448 39.5262 56.4335C39.5335 56.4191 39.548 56.3974 39.548 56.3758C39.5624 56.3324 39.5624 56.2891 39.5624 56.2457C39.5624 56.1518 39.5407 56.0868 39.4973 56.0073C39.4683 55.9423 39.4177 55.9062 39.367 55.8629C39.3453 55.8484 39.3308 55.834 39.3091 55.8195C39.2729 55.7978 39.2367 55.7834 39.2005 55.7762C39.1643 55.7617 39.1209 55.7617 39.0775 55.7617C39.0558 55.7617 39.0341 55.7617 39.0196 55.7617C39.0051 55.7617 38.9762 55.7617 38.9617 55.7689C38.9327 55.7762 38.8965 55.7906 38.8676 55.8051H38.8604L38.788 55.8629C38.788 55.8629 38.7373 55.9206 38.7156 55.9568C38.6939 55.9929 38.6794 56.0362 38.6722 56.0868C38.6649 56.1301 38.6649 56.1807 38.6722 56.2241L38.7084 56.3035C38.7301 56.3469 38.759 56.3758 38.7952 56.3974C38.8169 56.4191 38.8386 56.4335 38.8748 56.4408C38.9183 56.4624 38.9617 56.4697 39.0051 56.4697L39.0992 56.4552C39.1571 56.4408 39.2078 56.4119 39.2512 56.3685L39.1788 56.4191H39.1933L39.1064 56.448H39.0268L39.0413 56.4552L38.9472 56.4408H38.9617L38.8748 56.4046C38.8748 56.4046 38.8893 56.4119 38.8965 56.4191L38.8242 56.3613C38.8242 56.3613 38.8386 56.3758 38.8459 56.383L38.788 56.3107C38.788 56.3107 38.8025 56.3324 38.8097 56.3469L38.7735 56.2602C38.7735 56.2602 38.788 56.2891 38.788 56.3035L38.7735 56.2024C38.7735 56.2024 38.7735 56.2168 38.7735 56.2313L38.788 56.1301C38.788 56.1301 38.788 56.1446 38.788 56.1518L38.8242 56.0579C38.8242 56.0579 38.8097 56.0796 38.8025 56.094L38.8604 56.0146C38.8604 56.0146 38.8386 56.0362 38.8242 56.0507L38.9038 55.9929C38.9038 55.9929 38.8676 56.0146 38.8459 56.029L38.94 55.9929C38.8965 56.0146 38.8459 56.0218 38.7952 56.029C38.7445 56.0434 38.7011 56.0651 38.6577 56.1012C38.6143 56.1301 38.5781 56.1663 38.5564 56.2096C38.5274 56.2529 38.5129 56.3035 38.5129 56.3541C38.4985 56.4046 38.5057 56.4624 38.5129 56.513L38.5564 56.6069C38.5926 56.6647 38.636 56.7153 38.7011 56.7514L38.7952 56.7947C38.8676 56.8164 38.9327 56.8164 39.0051 56.7947H39.0341Z" fill="#FF7486"/>
<path d="M40.7205 56.9246C40.9304 56.7657 41.1331 56.5923 41.314 56.39C41.495 56.195 41.6253 55.9421 41.7338 55.7037C41.77 55.6315 41.7845 55.552 41.7628 55.4726C41.7411 55.4003 41.6904 55.3281 41.6253 55.292C41.4805 55.2197 41.2923 55.2559 41.2127 55.4003C41.1548 55.5015 41.0897 55.6098 41.0245 55.7037C40.9883 55.7543 40.9594 55.7977 40.9232 55.8482C40.8942 55.8843 40.9159 55.8554 40.9304 55.8338C40.9232 55.841 40.9159 55.8554 40.9087 55.8627C40.8725 55.906 40.8436 55.9494 40.8146 55.9927C40.7857 56.0433 40.7495 56.0866 40.7133 56.1372L40.6916 56.1661C40.6916 56.1661 40.6481 56.2239 40.6771 56.1805C40.706 56.1372 40.6699 56.195 40.6626 56.195L40.6409 56.2239C40.5613 56.3178 40.4817 56.4117 40.3948 56.4984C40.3007 56.5923 40.2935 56.7512 40.3731 56.8523C40.4455 56.9463 40.6192 57.0041 40.7205 56.9246Z" fill="#FF7486"/>
<path d="M11.8268 56.8813C11.8991 56.7223 11.9932 56.5706 12.1018 56.4334L12.0439 56.5056C12.109 56.4189 12.1814 56.3395 12.261 56.26C12.3407 56.1878 12.413 56.1083 12.4999 56.0361C12.5578 55.9855 12.6012 55.8699 12.6012 55.7977C12.6012 55.7182 12.5723 55.6532 12.5288 55.5954C12.4275 55.4654 12.2393 55.422 12.0873 55.5087C11.8919 55.6243 11.711 55.7688 11.559 55.9349C11.407 56.1083 11.2767 56.2961 11.1753 56.4984C11.1319 56.5923 11.1102 56.6862 11.1392 56.7874C11.1609 56.8741 11.2333 56.968 11.3129 57.0113C11.3997 57.0546 11.5083 57.0835 11.6024 57.0474C11.6892 57.0185 11.7906 56.9607 11.8268 56.8741V56.8813Z" fill="#FF7486"/>
<path d="M12.8328 57.0619L13.2237 56.4985C13.354 56.3106 13.477 56.1156 13.5928 55.9206C13.6507 55.8266 13.6145 55.6894 13.5205 55.6316C13.4119 55.5738 13.3033 55.6099 13.2309 55.7038C13.1007 55.8917 12.9704 56.0795 12.8546 56.2745L12.4927 56.8597C12.4348 56.9463 12.471 57.0836 12.565 57.1269C12.6664 57.1775 12.7749 57.1486 12.8328 57.0547V57.0619Z" fill="#FF7486"/>
<path d="M12.8328 23.3117C12.6302 23.3117 12.4058 23.3406 12.1525 23.3911C8.79409 24.0991 8.52628 27.7905 8.30191 29.4592C7.38269 30.2539 6.5069 31.1063 5.68178 32.0237C7.06422 28.968 6.73852 26.8225 6.17396 26.8225C6.0292 26.8225 5.8772 26.9525 5.72521 27.2415C3.8723 30.9835 4.76257 31.547 5.14618 32.4861C4.50924 33.2663 3.79268 34.3354 3.22089 35.1951C3.22089 35.1951 2.99651 35.7657 3.03994 36.7554C3.74202 35.5563 4.89285 34.1187 5.66007 33.1723C5.90616 33.4902 6.55757 33.9598 7.56364 33.9598C8.43219 33.9598 9.55407 33.613 10.9148 32.515C12.2321 31.4531 11.9136 30.9907 10.9076 30.9907C9.74225 30.9907 7.65773 31.612 6.13777 32.6233C6.94842 31.7276 7.80249 30.8968 8.70723 30.1238C8.76513 30.1238 8.82304 30.1238 8.88094 30.1238C12.3334 30.1238 16.1261 23.3044 12.8401 23.3044L12.8328 23.3117Z" fill="#17FFDD"/>
<path d="M13.3033 39.9412C13.3902 39.8906 13.477 39.8329 13.5711 39.7823C13.6001 39.7678 13.629 39.7462 13.6652 39.7317C13.6652 39.7317 13.7303 39.6956 13.7448 39.6884C13.9113 39.6017 14.0778 39.5294 14.2442 39.4572C14.6061 39.3055 14.9753 39.1755 15.3516 39.0816C15.3878 39.0743 15.4312 39.0599 15.4674 39.0527L15.5471 39.031C15.6339 39.0093 15.7135 38.9949 15.8004 38.9804C15.9886 38.9443 16.184 38.9154 16.3794 38.8937C16.792 38.8359 17.1901 38.7998 17.5954 38.6842C17.979 38.5759 18.0297 37.9041 17.6243 37.7813C17.3638 37.7018 17.1466 37.6657 16.8788 37.6584C16.6689 37.6584 16.4663 37.6657 16.2636 37.6946C15.8293 37.7451 15.3951 37.8463 14.968 37.9691C14.1501 38.2075 13.3757 38.5687 12.6591 39.031C12.4058 39.1971 12.3551 39.5728 12.5216 39.8112C12.7098 40.0712 13.0427 40.1001 13.3033 39.9484V39.9412Z" fill="#443247"/>
<path d="M58.9094 38.8577C60.7406 38.6482 62.6297 38.3231 64.3595 37.6802C64.6056 37.5862 64.5115 37.2034 64.251 37.2756C62.4777 37.7379 60.7334 38.1858 58.9094 38.3953C58.6199 38.4314 58.6199 38.8866 58.9094 38.8504V38.8577Z" fill="#443247"/>
<path d="M80.1816 31.4169C79.9283 30.4995 79.5881 29.6037 79.1611 28.7513C79.2045 26.0857 77.4674 23.5501 75.0789 22.3942C72.3285 21.065 68.9411 21.6213 66.4875 23.3406C65.7203 23.8751 65.0182 24.5397 64.4826 25.3055C63.9759 20.4871 60.8347 16.0805 56.3834 14.0072C54.9213 13.3282 53.3652 12.8947 51.7583 12.7214C51.7149 12.7214 51.6787 12.7214 51.6498 12.743C46.8148 9.72343 41.1475 8.09804 35.4224 8.09082C28.5174 8.09082 21.4749 10.4603 15.8148 14.3684C10.2127 18.2405 5.67453 23.8029 3.46696 30.2755C3.19916 31.0557 2.97478 31.8504 2.7866 32.6522C2.7287 32.6378 2.67079 32.6522 2.64908 32.71C1.4114 35.6285 0.897503 38.8215 1.17254 41.9783C1.31006 43.5459 1.62853 45.0919 2.14242 46.5728C2.64184 48.0176 3.30049 49.4407 4.33551 50.582C5.29092 51.6367 6.55755 52.388 7.96895 52.5253C6.55755 55.0753 5.20406 57.6976 4.63227 60.58C4.34275 62.0464 4.1618 63.6718 4.62503 65.1238C5.0014 66.3158 5.8989 67.4138 7.18725 67.58C7.38991 67.6089 7.47677 67.2766 7.29582 67.1899C7.15106 67.1177 7.01354 67.0454 6.88326 66.966C6.08709 65.3911 5.86271 63.6791 6.18118 61.9381C6.5286 60.0454 7.37544 58.2972 8.21503 56.5707C8.34532 56.3034 7.94723 56.065 7.80971 56.3323C6.87602 58.1672 5.8989 60.0454 5.56596 62.097C5.3633 63.3323 5.37777 64.6904 5.77586 65.8968C4.67569 64.2498 4.97969 61.8008 5.45739 59.8937C6.10156 57.3003 7.31753 54.8875 8.54074 52.5253C8.62036 52.4964 8.64931 52.4169 8.63483 52.3375C8.6855 52.2363 8.73617 52.1352 8.78683 52.0413C8.93159 51.7596 8.51179 51.5139 8.35979 51.7957C8.29465 51.9113 8.22951 52.0341 8.16437 52.1496C5.21854 51.7957 3.48868 49.0217 2.56222 46.4427C1.56339 43.6687 1.24492 40.6708 1.59234 37.7451C1.76605 36.322 2.10623 34.9205 2.59841 33.5769C1.57063 38.9082 2.33785 44.5067 5.4212 49.1156C5.8989 49.8235 6.42003 50.4954 6.97735 51.1383C7.4261 51.6512 8.14989 50.9071 7.72286 50.3942C5.64558 47.9092 4.17628 45.0124 3.54658 41.8266C3.25706 40.3674 3.15573 38.8793 3.19916 37.3984C3.37287 37.355 3.5321 37.2467 3.6262 37.0805C4.19799 36.1053 5.10273 34.935 5.75414 34.1259C6.20289 34.4076 6.81812 34.6244 7.57086 34.6244C8.76512 34.6244 10.039 34.0898 11.3491 33.0279C11.9353 32.5511 12.6881 31.8287 12.413 31.063C12.1887 30.4272 11.4721 30.2972 10.9075 30.2972C10.8569 30.2972 10.8062 30.2972 10.7483 30.2972C11.5083 29.9071 12.261 29.2931 12.9486 28.4985C14.0777 27.1837 14.7798 25.6594 14.7798 24.5253C14.7798 23.3478 14.0343 22.6182 12.8401 22.6182C12.5867 22.6182 12.3117 22.6471 12.0149 22.7121C8.36703 23.485 7.89657 27.2559 7.66495 29.0691V29.1053C7.50572 29.2353 7.36096 29.3726 7.20896 29.5098C7.46229 28.1517 7.33201 27.1331 7.0063 26.6275C6.85431 26.3891 6.64441 26.2301 6.40556 26.1723C8.45389 22.4231 11.3273 19.1073 14.664 16.4634C19.8174 12.3818 26.3967 9.73066 32.9615 9.19608C40.0112 8.61817 47.2346 10.6048 52.9598 14.7657C57.9685 18.4138 61.7322 23.7162 63.7154 29.5748C63.7154 29.5893 63.7226 29.5965 63.7298 29.6109C63.8674 30.0227 63.9976 30.4345 64.1207 30.8462C64.3523 31.6336 64.5405 32.4283 64.707 33.2301C64.7866 33.6058 65.3367 33.4396 65.2788 33.0712C65.0833 31.9082 64.8228 30.7596 64.4898 29.6398C64.5115 29.5893 64.526 29.5315 64.5405 29.4665V29.387C64.555 29.3364 64.5622 29.2859 64.5694 29.2425C64.5839 29.1558 64.5984 29.0764 64.6129 28.9897C64.6491 28.8019 64.678 28.6068 64.7142 28.419C64.7866 28.0433 64.8807 27.6822 64.9965 27.321C65.0399 27.1837 64.9965 27.0175 64.9024 26.902C64.9241 26.8875 64.9458 26.8658 64.9675 26.8297C66.2776 24.4747 69.1872 23.4489 71.7712 23.9546C74.594 24.5036 76.8377 26.6419 78.0971 29.1486C79.4578 31.8576 79.9211 35.2239 79.5447 38.2219C79.2117 40.902 77.728 43.7337 74.9776 44.579C71.9883 45.4964 69.18 43.3798 67.7252 40.9309C67.3488 40.3024 67.0086 39.6089 66.7263 38.872C66.6612 38.1713 66.5816 37.4706 66.4875 36.7626C66.4585 36.5387 66.2559 36.4231 66.0749 36.4376C65.8723 35.0433 65.9664 33.6347 66.5454 32.3849C67.3995 30.5356 69.5202 28.9319 71.5757 28.7874C72.618 28.7152 73.6168 29.1053 74.2176 29.9866C74.5288 30.4417 74.6519 31.0196 74.7532 31.5831C75.0138 32.9845 75.0934 34.6966 74.5361 36.0403C74.4347 36.2859 74.2972 36.5243 74.1162 36.6904C73.9643 36.8277 73.805 36.8999 73.6313 36.9071C72.7917 36.9577 72.0896 36.2497 71.9883 35.4334C71.9159 34.8339 72.0245 34.227 72.1693 33.6491C72.3285 33.0423 71.402 32.7895 71.2283 33.3891C70.8737 34.6316 70.671 36.322 71.7639 37.2828C72.4081 37.8535 73.4431 38.1858 74.2682 37.8462C75.8606 37.1889 75.9909 34.805 75.9619 33.3529C75.9185 31.5975 75.6579 29.6037 74.138 28.4912C71.9811 26.9164 69.0497 28.2312 67.3054 29.806C64.8662 32.0021 64.6273 35.3395 65.5321 38.3375C65.6479 38.7131 65.7782 39.096 65.9229 39.4716C65.9229 39.7895 65.9302 40.1146 65.9374 40.4324C65.9229 40.483 65.9157 40.5408 65.9374 40.5986C65.9374 43.6687 65.6189 46.7534 64.6997 49.6574C63.5706 53.2188 61.3196 56.2456 58.4245 58.5862C56.8683 59.8431 55.1167 60.8834 53.2132 61.5047C55.6017 58.2972 55.3049 52.6481 50.9839 51.3911C51.0345 51.29 51.0563 51.1816 51.0563 51.0661C51.0563 51.0299 51.0345 50.4809 50.9187 49.5924C51.1721 49.5996 51.4182 49.6068 51.6715 49.5924C51.961 49.5851 51.9538 49.1589 51.6715 49.1517C51.3964 49.1373 51.1214 49.1156 50.8536 49.0939C50.8102 48.8266 50.7667 48.5377 50.7088 48.227C51.4471 47.9959 52.5473 47.5697 53.575 46.8473C55.3628 45.5903 56.311 43.8566 56.3255 41.8339C56.3255 40.9742 56.1228 40.3241 55.7102 39.9123C55.399 39.6017 54.9864 39.4355 54.516 39.4355C53.4954 39.4355 52.1781 40.2374 51.0056 41.5738C50.3976 42.2673 49.8982 43.0186 49.5291 43.7843C49.3047 43.1269 49.0514 42.4768 48.7836 41.8339L48.7618 41.7833C49.3915 41.4438 50.2167 40.8947 50.9622 40.1001C51.5629 39.4572 52.0261 38.742 52.3301 37.9763C52.5835 37.3478 52.721 36.6832 52.7716 35.9897C54.2265 36.2714 55.6813 36.5026 57.1506 36.6832C59.2858 36.9505 61.421 37.0733 63.5706 37.0083C63.9397 36.9938 63.9325 36.4737 63.5706 36.4376C59.9589 36.1414 56.3472 35.8163 52.7789 35.1806C52.7789 35.1156 52.7789 35.0506 52.7789 34.9856C52.7355 34.3282 52.5979 33.8225 52.3591 33.4541C52.0768 33.0134 51.6498 32.7678 51.1576 32.7678C50.5424 32.7678 49.8765 33.1435 49.1816 33.8875C49.0513 34.0248 48.9211 34.1837 48.798 34.3426C48.1756 34.1909 47.5603 34.0392 46.9451 33.8731C47.0247 33.7647 47.1044 33.6564 47.1767 33.5408C48.1611 31.9371 48.4289 30.1889 47.9657 28.3468C47.5676 26.7647 46.8004 26.4324 46.2286 26.4324C45.6568 26.4324 45.1139 26.7647 44.5856 27.4149C43.6881 28.5201 42.9136 30.5139 42.7688 32.4716C42.0306 31.6698 41.2489 30.8968 40.4238 30.1672C40.7277 29.5315 41.0824 28.5779 41.2127 27.4149C41.4298 25.4644 40.9376 23.6151 39.7506 21.9174C39.1065 20.9928 38.4912 20.5449 37.8688 20.5449C37.5793 20.5449 37.0437 20.646 36.66 21.3468C36.0303 22.4954 36.0593 25.0093 36.7614 27.3065C36.3199 27.0103 35.8711 26.7214 35.4151 26.4396C35.2197 25.5366 34.7927 24.0702 33.9024 22.6904C33.3378 21.8235 32.6575 21.1011 31.883 20.5449C30.9566 19.8875 29.8926 19.4613 28.7056 19.2807C28.3654 19.2301 28.0469 19.2012 27.7574 19.2012C27.0553 19.2012 26.1216 19.3674 25.6656 20.1476C25.3761 20.646 25.2097 21.549 26.0493 23.001C26.7441 24.2002 27.9745 25.4933 29.3497 26.4541C31.3836 27.8844 33.0266 28.1806 34.0399 28.1806H34.0689C34.2571 28.2962 34.4452 28.4118 34.6334 28.5346C34.4452 28.5274 34.2715 28.5201 34.1051 28.5201C32.9542 28.5201 31.8323 28.6935 30.9421 28.9969C29.8636 29.3726 29.205 29.9216 29.024 30.5934C28.872 31.1641 29.0023 32.0237 30.4789 32.8689C31.5863 33.4974 32.7588 33.8225 33.9675 33.8225C36.2981 33.8225 38.1728 32.6378 39.1065 31.9154C39.6493 32.4066 40.1777 32.9195 40.6843 33.4396C40.1632 33.3385 39.6203 33.2879 39.0775 33.2879C37.4345 33.2879 36.3199 33.7647 36.0231 34.5882C35.8566 35.0433 35.8783 35.7657 36.9061 36.6109C37.9194 37.4417 39.0775 37.8607 40.3586 37.8607C41.7121 37.8607 42.8846 37.3839 43.6229 37.001C44.0789 37.644 44.5059 38.3086 44.904 38.9876C43.9486 38.6553 42.957 38.5181 42.1681 38.5181C40.6192 38.5181 39.5263 38.9804 39.1716 39.7967C38.9762 40.2518 38.9255 40.9814 39.8085 41.9133C40.5178 42.6574 41.3502 43.1414 42.3056 43.3653C41.6687 43.5459 41.3285 43.8855 41.1548 44.1889C41.1331 44.225 41.1186 44.2683 41.0969 44.3117C38.6143 43.3653 36.2764 42.0072 34.1412 40.4469C34.4525 40.3818 34.7565 40.3168 35.0677 40.2663C35.5309 40.1868 35.3862 39.515 34.9591 39.4933C34.3077 39.4572 33.6491 39.4861 33.0121 39.5872C29.5596 36.871 26.5414 33.5335 24.2543 29.7988C22.8935 27.581 21.8151 25.1971 21.1202 22.6904C21.0189 22.3292 20.4616 22.4809 20.5629 22.8421C21.8006 27.451 24.3266 31.677 27.41 35.2962C28.7924 36.9216 30.3269 38.4531 31.9916 39.8256C29.8492 39.4138 27.9094 38.2941 26.3171 36.7699C24.1529 34.6966 22.8139 32.0382 21.8875 29.2209C21.3374 27.5377 20.9248 25.8111 20.5195 24.0846C20.5195 24.0557 20.5267 24.0268 20.534 23.9979C20.5484 23.9185 20.5123 23.8607 20.4616 23.8246L20.4471 23.7523C20.3964 23.5428 20.078 23.6295 20.1286 23.839L20.1793 24.0774C19.6654 27.1476 19.4049 30.2828 19.4266 33.3963C19.441 34.9928 19.4989 36.6182 19.6727 38.2219C19.4483 37.1238 19.289 36.0041 19.1732 34.9061C18.9054 32.4211 18.8837 29.8999 19.1298 27.4076C19.2167 26.5263 19.3397 25.645 19.5134 24.7709C19.6582 24.547 19.8102 24.3158 19.9622 24.0919C20.0997 23.8824 19.9622 23.6873 19.774 23.6367C19.8246 23.4417 19.5279 23.355 19.4772 23.5501C19.4555 23.6151 19.441 23.6801 19.4266 23.7451C19.4266 23.7451 19.4121 23.7596 19.4121 23.7668C17.5447 26.4035 15.8583 29.1703 14.1067 31.8865C12.5505 34.2993 10.9148 36.7915 8.84473 38.807C8.61312 39.0382 8.9533 39.3488 9.19215 39.1538C9.8508 38.6336 10.4588 38.063 11.0306 37.4489C10.9799 37.5284 10.922 37.6006 10.8713 37.6801C10.2561 38.5542 9.62643 39.4138 8.98949 40.2663C8.52627 40.8803 8.04856 41.5377 7.46953 42.0506C7.33201 42.1734 7.51296 42.419 7.67219 42.3106C9.15596 41.2704 10.1982 39.5583 11.1971 38.0846C12.3696 36.3509 13.477 34.581 14.6278 32.84C14.6785 32.7678 14.6713 32.6956 14.6278 32.645C14.6713 32.58 14.7147 32.515 14.7509 32.45C16.2274 30.1672 17.5737 27.8122 19.0285 25.5222C18.7245 27.1981 18.587 28.9174 18.5435 30.6151C18.4784 33.2012 18.6521 35.8019 19.2167 38.3302C19.441 39.3416 19.7523 40.3385 20.1648 41.2848C20.2734 41.7977 20.4037 42.3034 20.5484 42.8091C20.6063 43.0114 20.8959 42.9247 20.8597 42.7224C20.8162 42.4696 20.7728 42.2167 20.7294 41.9567C20.7728 41.9061 20.8018 41.8339 20.7656 41.7544C20.7294 41.6677 20.6932 41.581 20.657 41.4943C19.8246 36.0908 19.7161 30.4923 20.3964 25.0599C21.0479 28.0217 21.7934 31.0052 23.2916 33.6564C24.6379 36.0403 26.5993 38.1569 29.0747 39.3777C29.7261 39.6956 30.3992 39.934 31.0868 40.1073C30.667 40.259 30.2472 40.4324 29.8419 40.6202C29.5814 40.743 29.509 41.1187 29.6465 41.3571C29.8057 41.6316 30.117 41.6677 30.3848 41.5521C31.123 41.2198 31.8975 40.967 32.6792 40.7792C32.8167 40.743 32.9615 40.7141 33.099 40.6852C34.8578 42.0217 36.7397 43.1847 38.7301 44.1022C39.4611 44.4345 40.2066 44.7379 40.9594 44.9979C40.9594 45.4169 41.0969 45.8359 41.2634 46.1827C40.7639 45.9371 40.2645 45.6698 39.7796 45.388C39.5045 45.2291 39.2584 45.6553 39.5335 45.8142C40.25 46.2332 40.9956 46.6089 41.7483 46.9556C42.8195 48.4221 44.4915 49.195 46.6411 49.195C47.0754 49.195 47.488 49.1589 47.8643 49.1156C48.1321 49.1806 48.3999 49.2384 48.6677 49.2962C48.8415 50.4303 48.8704 51.1094 48.8704 51.1166C48.8704 51.1527 48.8776 51.1889 48.8849 51.225C47.886 51.3767 46.9596 51.839 46.2068 52.547C45.4107 51.7451 44.6362 50.9288 43.9197 50.0547C43.7604 49.8597 43.4203 50.1197 43.5723 50.322C44.2743 51.2394 45.0488 52.0846 45.845 52.9226C45.7436 53.0382 45.6423 53.161 45.5482 53.291C45.3093 53.0599 45.0705 52.8287 44.8244 52.5975C44.6579 52.4386 44.4046 52.6914 44.5711 52.8504C46.0331 54.2879 47.4663 55.7977 48.6533 57.4665C48.4578 57.6398 48.2624 57.8132 48.0742 57.9938C47.9078 58.1527 47.915 58.4417 48.0742 58.6006C48.2479 58.774 48.5085 58.7523 48.6822 58.6006C48.8415 58.4634 49.0007 58.3333 49.1599 58.2105C49.5001 58.7379 49.8258 59.2797 50.1081 59.8504C50.4555 60.5511 50.745 61.2807 50.9694 62.0392C49.8692 62.8339 48.5664 63.3323 47.2563 63.6574C45.1863 64.1703 43.0656 64.1703 40.9594 64.3581C40.6337 64.387 40.5034 64.9071 40.8725 64.9794C41.0824 65.0227 41.2923 65.0516 41.5022 65.0805C39.4539 65.7957 37.3115 66.3086 35.198 66.7276C32.3173 67.2983 29.3859 67.7028 26.4546 67.7678C26.4329 67.7678 26.4184 67.7678 26.3967 67.7678C26.3243 67.7678 26.2519 67.7678 26.1795 67.7678C25.8973 67.7606 25.6222 67.7678 25.3472 67.7534C24.7681 67.7245 24.1891 67.7028 23.6173 67.6161C23.6173 67.6161 23.6173 67.6161 23.6101 67.6161C22.1697 67.0526 20.6787 66.5903 19.2456 65.9979C17.7546 65.3839 16.3143 64.6398 14.9752 63.7441C12.869 62.3426 10.7773 60.3705 10.2199 57.806C9.92318 56.4479 10.191 55.0392 10.7628 53.7895C10.9582 53.356 10.3647 52.9876 10.1114 53.4066C8.66379 55.8339 8.80854 58.6656 10.4298 60.9773C12.2683 63.5924 15.1707 65.3478 18.0586 66.5831C19.897 67.3705 21.844 68.0568 23.8489 68.2229C24.3411 68.3241 24.8405 68.3963 25.3399 68.3891C25.6005 68.3891 25.8683 68.3746 26.1289 68.3457C26.1868 68.4541 26.2953 68.5336 26.4546 68.5336C29.4366 68.4974 32.4259 68.1218 35.3572 67.58C37.876 67.1177 40.583 66.6264 42.8267 65.3333C42.8846 65.2972 42.9281 65.2539 42.957 65.1961C44.4118 65.2394 45.8811 65.0661 47.2925 64.7699C48.6677 64.4809 50.0574 64.0114 51.2589 63.2528C51.3168 63.549 51.3747 63.8524 51.4109 64.1558C51.4471 64.4665 51.4688 64.7771 51.4761 65.0877C51.4109 65.2683 51.3385 65.4489 51.2589 65.6295C50.6509 66.966 49.5797 67.999 48.1828 68.483C47.9367 68.5697 48.038 68.9092 48.2914 68.8658C49.6231 68.6347 50.6726 67.8039 51.3964 66.7131C51.3168 67.3344 51.1865 67.9484 51.0201 68.5624C50.9694 68.7575 51.2662 68.902 51.3602 68.7069C51.8524 67.6595 52.0696 66.5325 52.0768 65.3839C52.3736 64.5965 52.5256 63.7585 52.5183 62.9567C52.5183 62.7399 52.5038 62.5305 52.4894 62.3137C52.569 62.2343 52.6558 62.1693 52.7282 62.0898C52.7861 62.032 52.844 61.967 52.8947 61.902C52.9381 62.0103 53.0467 62.0898 53.1987 62.0609C57.0131 61.2807 60.2556 58.9474 62.6224 55.9061C65.1919 52.6048 66.4223 48.6388 66.7987 44.5139C66.8783 43.6326 66.9073 42.7513 66.9 41.8772C68.4779 44.2972 69.1366 47.3096 68.6951 50.1631C68.1884 53.4355 66.2631 56.3179 63.4838 58.1166C61.9493 59.1063 60.2412 59.7203 58.4317 59.9949C58.1205 60.0454 58.1928 60.5583 58.5041 60.5366C61.9276 60.2983 65.1195 58.3478 67.1679 55.6388C69.3392 52.7565 69.9906 49.0361 69.1293 45.5542C68.9556 44.8607 68.7312 44.1889 68.4417 43.5387C69.3682 44.5067 70.4973 45.258 71.8363 45.6625C75.0717 46.6306 78.2419 44.8029 79.7184 41.9133C81.3325 38.7492 81.1226 34.7327 80.2033 31.3953L80.1816 31.4169ZM3.87952 32.5583C3.94467 32.3055 4.01704 32.0599 4.08942 31.807C4.16904 32.031 4.26313 32.226 4.34999 32.3994C4.14733 32.6667 3.93743 32.9556 3.72753 33.2518C3.77819 33.0206 3.82886 32.7895 3.88676 32.5583H3.87952ZM5.689 32.0237C6.51413 31.1063 7.38267 30.2467 8.30913 29.4592C8.52626 27.7905 8.80131 24.0991 12.1597 23.3911C12.413 23.3406 12.6446 23.3117 12.8401 23.3117C16.1261 23.3117 12.3334 30.1311 8.88092 30.1311C8.82302 30.1311 8.76512 30.1311 8.70721 30.1311C7.80247 30.904 6.9484 31.7348 6.13775 32.6306C7.66495 31.612 9.74223 30.9979 10.9075 30.9979C11.9136 30.9979 12.2321 31.4603 10.9148 32.5222C9.55405 33.6202 8.43217 33.967 7.56362 33.967C6.55755 33.967 5.90614 33.4974 5.66005 33.1796C4.96521 34.032 3.95914 35.289 3.25706 36.4087C3.29325 35.903 3.34392 35.4045 3.42354 34.9061C3.95914 34.1042 4.5816 33.1868 5.1534 32.4933C4.89283 31.8504 4.39342 31.3808 4.70465 29.936C5.08826 28.8885 5.52977 27.87 6.03642 26.8803C6.08709 26.8514 6.13775 26.8297 6.18118 26.8297C6.75298 26.8297 7.07144 28.9752 5.689 32.031V32.0237ZM63.614 27.1331C61.8552 22.6832 59.0252 18.6739 55.3918 15.5098C54.4364 14.6791 53.4231 13.9133 52.3736 13.2126C57.8092 14.1662 62.2967 18.3271 63.5634 23.7234C63.7588 24.5686 63.8746 25.4211 63.9253 26.2807C63.8022 26.5552 63.6864 26.837 63.614 27.1331ZM63.947 27.6388C63.9253 27.711 63.9036 27.7761 63.8891 27.8483C63.8746 27.805 63.8601 27.7616 63.8456 27.7255C63.8963 27.7038 63.9325 27.6605 63.947 27.5882V27.6388ZM74.1452 23.7307C71.3441 22.4737 68.1956 22.8349 65.9085 24.9371C65.3801 25.4211 64.9458 25.999 64.6201 26.6347C64.5984 26.6708 64.5912 26.7141 64.5984 26.7503C64.5839 26.7503 64.5694 26.7503 64.555 26.7503C64.555 26.5046 64.555 26.2663 64.5405 26.0206C65.6768 24.0124 68.0581 22.6832 70.2512 22.2931C73.0233 21.8019 75.8823 22.8132 77.4964 25.1682C78.0102 25.9195 78.3794 26.7647 78.5531 27.6533C77.4819 25.9701 76.0198 24.5686 74.1524 23.7307H74.1452ZM51.1576 33.4685C51.657 33.4685 52.0261 33.9309 52.0985 35.0506C52.0985 35.0578 52.0985 35.065 52.0985 35.0722C51.2372 34.9133 50.3831 34.7327 49.5363 34.5377C50.1081 33.8803 50.6871 33.4685 51.1576 33.4685ZM48.342 34.9928C47.9729 35.5562 47.64 36.1847 47.3722 36.8277C47.2202 37.1961 47.0609 37.6512 46.9306 38.1496C46.4312 37.2972 45.8956 36.4592 45.3311 35.6574C45.6857 35.3612 46.0983 34.9639 46.4964 34.4799C47.1116 34.6605 47.7268 34.8266 48.342 34.9928ZM46.2213 27.1331C46.6556 27.1331 47.0464 27.5449 47.2998 28.5346C47.8571 30.7523 47.1478 32.4861 46.2575 33.6997C45.3093 33.4324 44.3684 33.1507 43.4347 32.84C43.5361 30.0877 45.0488 27.1259 46.2213 27.1259V27.1331ZM39.4901 31.4025C39.367 31.2869 39.244 31.1713 39.1137 31.063C39.0775 31.0991 39.0268 31.1424 38.9617 31.193C37.9194 30.7596 36.8844 30.3044 35.8639 29.8204C35.5454 29.6687 35.2631 30.1455 35.5816 30.2972C36.5225 30.7523 37.4779 31.1858 38.4478 31.5975C37.5431 32.2549 35.9218 33.1868 33.9675 33.1868C32.9832 33.1868 31.9192 32.9484 30.819 32.3271C27.989 30.7162 30.8335 29.2497 34.1123 29.2497C35.3789 29.2497 36.7107 29.4665 37.8036 29.9866C36.689 29.1125 35.5092 28.3034 34.2571 27.5521C34.1847 27.5521 34.1123 27.5521 34.0472 27.5521C29.2195 27.5521 23.1396 19.9236 27.7646 19.9236C28.0107 19.9236 28.293 19.9453 28.6115 19.9959C33.2437 20.6894 34.5104 25.2694 34.8144 26.8947C36.0882 27.6677 37.2897 28.4985 38.4261 29.3942C36.5153 26.418 36.4574 21.2528 37.8688 21.2528C38.2234 21.2528 38.6649 21.5779 39.1933 22.3292C41.7483 25.9773 40.1053 29.4303 39.5769 30.3406C40.2573 30.9329 40.9159 31.547 41.5384 32.1827C40.8508 31.9371 40.1704 31.6698 39.4901 31.3953V31.4025ZM43.5143 47.7503C44.1658 48.0031 44.8172 48.2415 45.4831 48.4582C44.8099 48.3498 44.1368 48.1331 43.5143 47.7503ZM47.5097 48.5016C46.88 48.3426 46.2503 48.1548 45.6351 47.9598C44.5349 47.6058 43.442 47.2012 42.3852 46.7317C42.2332 46.5366 42.0885 46.3271 41.9582 46.096C41.7772 45.7781 41.6759 45.4964 41.6397 45.2508C42.986 45.6698 44.3684 45.966 45.787 46.0888C46.0766 46.1104 46.1489 45.6192 45.8594 45.5831C44.4553 45.388 43.0801 45.0413 41.7411 44.5717C41.9799 44.1527 42.5662 43.9577 43.3117 43.9577C45.0054 43.9577 47.5314 44.9474 48.7691 46.5728C48.4506 45.3375 47.9946 43.9216 47.3577 42.4045C47.2781 42.2167 47.1984 42.0289 47.1116 41.8411C46.6339 42.1084 45.1574 42.8597 43.5288 42.8597C42.4359 42.8597 41.2778 42.5274 40.2935 41.4871C38.911 40.0279 40.2645 39.2405 42.1609 39.2405C43.6881 39.2405 45.5699 39.7534 46.6411 40.8442C45.8377 39.1971 44.8895 37.6295 43.8039 36.1486C43.3696 36.4303 41.9871 37.225 40.3514 37.225C39.3887 37.225 38.332 36.9505 37.3332 36.1269C35.7119 34.7977 37.1088 34.0103 39.0703 34.0103C40.3731 34.0103 41.922 34.3571 43.0149 35.1156C42.8629 34.9278 42.7109 34.7327 42.5517 34.5449C41.9582 33.837 41.3213 33.1579 40.6554 32.4933C41.2561 32.7245 41.8569 32.9484 42.4648 33.1651C42.7182 33.4469 42.9715 33.7286 43.2104 34.0175C43.3262 34.1548 43.4347 34.2921 43.5505 34.4293C43.4854 34.1331 43.4564 33.8225 43.442 33.5047C44.2164 33.7719 45.0054 34.0248 45.787 34.2632C45.2587 34.8555 44.7231 35.2745 44.3901 35.5129C45.5337 37.0516 46.5253 38.6914 47.3722 40.4107C47.2419 38.6336 48.0525 36.582 49.0369 35.1662C50.0502 35.419 51.0707 35.6502 52.0985 35.8597C51.9031 39.4211 48.7836 41.0681 47.8716 41.4727C47.9657 41.6822 48.0598 41.8916 48.1466 42.1084C48.7546 43.5604 49.1961 44.9113 49.5218 46.1032C49.8475 43.2136 52.8295 40.1146 54.5087 40.1146C55.1819 40.1146 55.6451 40.613 55.6379 41.8339C55.6161 46.1177 51.0056 47.483 49.9127 47.7503C50.0068 48.2126 50.0864 48.6388 50.1443 49.0217C49.8475 48.9783 49.558 48.935 49.2612 48.8772C49.2251 48.6605 49.1816 48.4293 49.1382 48.1909C48.798 48.2848 48.2118 48.4221 47.5097 48.4943V48.5016ZM44.6652 43.4376C45.4975 43.2931 46.2358 43.0186 46.7786 42.773C47.0247 43.3581 47.2491 43.9505 47.4518 44.5428C46.5687 44.0083 45.5844 43.6326 44.6652 43.4303V43.4376ZM50.3687 51.1022C50.3687 51.1022 50.2022 51.0661 49.9778 51.0661C49.8403 51.0661 49.6811 51.0805 49.5291 51.1238C49.5291 51.1094 49.5073 50.4881 49.3553 49.4479C49.6449 49.4912 49.9344 49.5274 50.2239 49.5562C50.3542 50.517 50.3687 51.1022 50.3687 51.1022ZM51.4326 61.6997C51.2372 61.1073 51.0273 60.5294 50.745 60.0021C49.5146 57.7338 48.7329 56.8308 48.6316 56.708C47.8137 55.6749 46.9162 54.6997 45.9825 53.775C46.0766 53.6595 46.1779 53.5511 46.2865 53.4427C47.0754 54.2663 48.4072 55.7616 48.979 56.4696C50.3397 58.1455 51.3458 60.2116 51.6353 61.5335C51.5701 61.5913 51.505 61.6564 51.4399 61.7141L51.4326 61.6997ZM52.2143 60.9051C51.8741 59.6409 51.2589 58.4634 50.5062 57.3726C50.5424 57.3581 50.5786 57.3364 50.6147 57.322C50.6509 57.3075 50.6799 57.2931 50.7161 57.2714C50.7161 57.2714 50.774 57.2497 50.7885 57.2425C50.9332 57.1847 51.0852 57.1269 51.2372 57.0764C51.6425 56.9463 52.0261 56.7874 52.4025 56.6068C52.721 56.4551 52.5473 55.9856 52.2288 55.9783C51.4109 55.9567 50.6147 56.1734 49.9054 56.5779C49.3409 55.8483 48.7184 55.162 48.0959 54.5191C47.6327 54.0351 47.155 53.5655 46.6846 53.0888C47.6761 52.3013 48.9717 51.9474 50.2528 52.2291C51.838 52.5686 53.0467 53.775 53.4448 55.3354C53.9152 57.192 53.423 59.4025 52.2071 60.9123L52.2143 60.9051Z" fill="#443247"/>
<path d="M54.4943 40.1217C52.8151 40.1217 49.833 43.2208 49.5073 46.1104C49.1889 44.9184 48.7401 43.5675 48.1321 42.1155C48.0453 41.8988 47.9512 41.6893 47.8571 41.4798C48.8414 41.0464 52.3663 39.1826 52.084 35.0505C52.0044 33.9308 51.6425 33.4685 51.1431 33.4685C49.6955 33.4685 47.1405 37.3622 47.3649 40.4179C46.5181 38.6986 45.5265 37.0588 44.3829 35.5201C45.4034 34.7977 48.2624 32.3849 47.2925 28.5273C47.0464 27.5376 46.6556 27.1259 46.2141 27.1259C44.8099 27.1259 42.8991 31.388 43.5433 34.4365C43.4347 34.2992 43.3189 34.162 43.2031 34.0247C42.1029 32.71 40.887 31.4819 39.5624 30.3405C40.0908 29.4231 41.7338 25.9772 39.1788 22.3292C38.6505 21.5706 38.2017 21.2528 37.8543 21.2528C36.4429 21.2528 36.5008 26.4179 38.4116 29.3942C37.2753 28.4984 36.0665 27.6604 34.7999 26.8947C34.4959 25.2693 33.2293 20.6821 28.597 19.9958C28.2858 19.9525 28.0035 19.9236 27.7502 19.9236C23.1251 19.9236 29.205 27.5521 34.0327 27.5521C34.105 27.5521 34.1774 27.5521 34.2426 27.5521C35.4875 28.3034 36.6745 29.1124 37.7891 29.9865C36.6962 29.4736 35.3644 29.2497 34.0978 29.2497C30.819 29.2497 27.9745 30.7162 30.8046 32.3271C31.9047 32.9556 32.9687 33.1867 33.9531 33.1867C36.5949 33.1867 38.636 31.4819 39.0992 31.0629C40.3441 32.1465 41.495 33.3096 42.5372 34.5521C42.6965 34.7399 42.8485 34.9277 43.0004 35.1228C41.9075 34.3642 40.3586 34.0175 39.0558 34.0175C37.0943 34.0175 35.6974 34.8049 37.3187 36.1341C38.3175 36.9576 39.3743 37.2322 40.3369 37.2322C41.9727 37.2322 43.3551 36.4375 43.7894 36.1558C44.8751 37.6295 45.8232 39.2043 46.6266 40.8513C45.5482 39.7605 43.6736 39.2476 42.1464 39.2476C40.25 39.2476 38.8966 40.035 40.279 41.4943C41.2561 42.5273 42.4214 42.8668 43.5143 42.8668C45.1429 42.8668 46.6194 42.1228 47.0971 41.8482C47.1767 42.0361 47.2636 42.2239 47.3432 42.4117C47.9801 43.9287 48.4361 45.3446 48.7546 46.5799C47.5169 44.9545 44.9909 43.9649 43.2972 43.9649C41.9292 43.9649 41.0969 44.615 41.9437 46.1104C43.0584 48.0753 44.9836 48.5593 46.6049 48.5593C47.6979 48.5593 48.646 48.3426 49.1237 48.2125C49.4784 49.9969 49.5146 51.1166 49.5146 51.1382C49.6666 51.0949 49.8258 51.0804 49.9633 51.0804C50.1877 51.0804 50.3542 51.1166 50.3542 51.1166C50.3542 51.1166 50.3107 49.7585 49.8982 47.7719C50.9911 47.5046 55.5944 46.1393 55.6234 41.8555C55.6234 40.6418 55.1674 40.1362 54.4943 40.1362V40.1217Z" fill="#17FFDD"/>
<path d="M89.4244 38.8142H98.6094L106.093 50.9288L113.577 38.8142H122.762V70.1083H114.12V52.1352L106.101 64.387H105.92L97.9435 52.1785V70.1083H89.4317V38.8142H89.4244Z" fill="#04D8CC"/>
<path d="M128.393 38.8142H153.61V46.1465H136.992V50.9288H152.04V57.7698H136.992V62.7327H153.835V70.1083H128.393V38.8142Z" fill="#04D8CC"/>
<path d="M166.067 46.4138H156.708V38.8142H184.169V46.4138H174.759V70.1083H166.067V46.4138Z" fill="#04D8CC"/>
<path d="M188.287 38.8142H196.98V70.1083H188.287V38.8142Z" fill="#04D8CC"/>
<path d="M200.425 65.4634L205.26 59.6987C208.437 62.2054 211.847 63.4552 215.429 63.4552C217.803 63.4552 219.055 62.6967 219.055 61.3097V61.223C219.055 59.8793 218.028 59.2581 213.728 58.1817C207.098 56.6647 201.902 54.8298 201.902 48.3933V48.3066C201.902 42.448 206.512 38.2942 214.04 38.2942C219.417 38.2942 223.536 39.7245 226.938 42.4552L222.595 48.5811C219.729 46.4789 216.638 45.4965 213.815 45.4965C211.709 45.4965 210.681 46.2983 210.681 47.5047V47.5914C210.681 48.9784 211.76 49.6936 216.146 50.6327C223.311 52.2003 227.792 54.5192 227.792 60.3778V60.4645C227.792 66.8577 222.732 70.6575 215.118 70.6575C209.516 70.6575 204.37 68.9165 200.425 65.4707V65.4634Z" fill="#04D8CC"/>
<path d="M114.46 32.6448C113.36 34.2124 112.246 35.0287 111.203 35.0504C110.66 35.0576 109.633 34.1185 108.873 33.7573C107.816 33.2733 107.302 32.5364 107.28 31.489C107.244 29.8202 107.584 27.8048 108.294 25.4497C108.446 24.7346 108.967 23.3909 108.96 23.3042L108.873 23.2609C108.504 23.4776 107.925 24.1133 107.15 25.0958C106.376 26.1144 105.681 27.1763 105.08 28.231C104.472 29.329 103.951 30.5065 103.473 31.814C102.996 33.1216 102.72 34.0029 102.605 34.5447C102.576 35.0865 102.112 35.1804 100.636 34.4147C99.4127 33.8151 98.812 33.1938 98.7975 32.5292C98.7613 30.8171 99.0508 28.5922 99.6661 25.8687C99.8615 25.0741 100.209 23.5571 100.708 21.3754L100.578 21.296C99.2246 22.8708 97.929 24.9007 96.6768 27.393C96.5176 27.7759 95.7938 29.2062 95.6346 29.5891C95.5115 29.7986 95.3957 30.0947 95.193 30.5571C94.6719 31.7779 94.4765 32.5364 94.2159 34.0462C94.2304 34.6747 94.0712 35.3032 93.6948 35.3104C93.4053 35.3104 92.8552 35.1587 92.0518 34.7975C91.2484 34.4363 90.6983 34.1113 90.4377 33.8295C90.2278 33.6273 90.1337 33.2083 90.1193 32.5798C90.1193 32.457 90.1844 31.5323 90.3581 29.7769C90.5318 27.9348 90.901 25.6737 91.48 23.0225C92.059 20.3713 92.6019 18.233 93.1519 16.5499C93.9047 16.5354 94.7443 16.6871 95.6707 16.9977C96.5972 17.3156 97.0677 17.6407 97.0749 17.973C97.0749 18.0958 96.6044 19.7356 95.6273 22.9358C95.0772 24.8285 94.6936 26.5044 94.4331 28.0142L94.5561 28.0504C95.7214 25.4786 97.169 22.7769 98.8337 19.8584C100.332 17.2795 101.685 16.0008 102.945 15.9719C103.575 15.9575 104.291 16.1525 105.008 16.5571C105.724 16.9616 106.115 17.33 106.245 17.619C106.13 17.9585 105.608 19.3022 104.863 21.6572C103.56 25.5726 102.815 27.9637 102.663 28.9317L102.786 28.9678C104.277 26.1794 105.782 23.6871 107.324 21.5199C108.75 19.4828 109.857 18.457 110.61 18.4425C111.406 18.4281 112.202 18.6231 113.006 18.9771C113.766 19.3816 114.193 19.7501 114.323 20.0824C114.207 20.458 113.367 22.5241 112.455 25.0524C111.543 27.7903 111.087 29.8058 111.109 31.1783C111.124 31.7201 111.254 32.0091 111.543 32.0091C112.759 31.9874 114.88 29.4374 116.444 25.6809C116.762 24.8791 117.044 24.4601 117.298 24.4528C117.761 24.4456 117.971 24.7346 117.985 25.2764C117.985 25.5653 117.754 26.2805 117.312 27.3785C116.516 29.2784 115.546 31.0483 114.446 32.6159L114.46 32.6448Z" fill="#04D8CC"/>
<path d="M123.884 32.876C122.987 34.1041 122.082 34.7543 121.119 34.7687C119.99 34.7904 118.21 33.6562 117.044 32.1753C116.574 31.518 116.342 30.5572 116.321 29.3508C116.299 28.2672 116.48 26.714 116.856 24.6985C117.233 22.7264 117.616 20.9638 118.05 19.4901C118.477 17.8503 118.832 16.7594 119.035 16.2971C119.787 16.2827 120.671 16.4344 121.684 16.7016C122.654 17.0195 123.16 17.3807 123.168 17.7563C123.298 18.0886 122.292 19.9018 121.278 23.9762C120.54 26.9163 120.207 29.1413 120.236 30.6439C120.135 33.779 122.35 31.7708 124.094 28.8523C124.861 27.4581 125.505 26.1072 126.019 24.7997C126.135 24.4602 126.345 24.294 126.555 24.2868C126.844 24.2868 127.235 24.7347 127.243 25.1898C127.243 25.4426 127.17 25.7749 127.011 26.1939C125.773 29.3941 124.731 31.6335 123.877 32.8616L123.884 32.876ZM125.049 11.5365C124.311 12.3456 123.522 12.779 122.69 12.7935C121.561 12.8152 120.83 12.0783 120.808 10.7852C120.794 9.91114 121.105 9.02259 121.72 8.17739C122.335 7.33219 123.073 6.89875 123.957 6.87708C125.296 6.84819 126.113 7.83787 126.135 9.05149C126.15 9.88947 125.795 10.7274 125.057 11.5365H125.049Z" fill="#04D8CC"/>
<path d="M137.824 34.8121C137.115 34.8265 136.087 33.844 135.458 33.5623C134.357 33.0422 133.72 32.551 133.539 32.0525C133.453 31.7635 133.402 31.3446 133.387 30.8461C133.366 29.6758 133.503 28.3394 133.807 26.7863C134.147 24.9441 134.734 22.9648 135.494 20.8987L135.363 20.8193C134.097 22.4302 132.96 24.0412 131.983 25.6087C130.319 28.3177 129.327 30.8461 128.951 33.1939C128.965 33.8224 128.683 34.617 128.306 34.6242C127.974 34.6242 127.467 34.4292 126.743 33.9452C126.019 33.4973 125.556 33.0928 125.296 32.6376C125.165 32.5148 125.122 32.2259 125.115 31.8069C125.107 31.3446 125.172 30.5933 125.324 29.5891C125.94 24.8936 126.823 20.6603 128.046 16.8317C130.058 16.7883 131.665 17.5974 131.839 18.132C131.969 18.4643 131.65 19.1361 130.782 21.8306C130.116 23.9761 129.689 25.6954 129.465 27.0391L129.588 27.0752C130.912 24.2506 132.367 21.585 133.952 19.1289C135.255 17.1423 136.449 16.1093 137.491 16.0876C138.917 16.0587 140.017 16.7089 140.835 17.9875C140.712 18.2837 140.278 19.295 139.511 20.9782C138.83 22.5386 138.28 24.3879 137.861 26.4467C137.397 28.5489 137.18 30.0154 137.195 30.8461C137.209 31.5974 137.216 31.8936 137.759 31.8791C138.259 31.8719 139.048 31.229 140.068 29.9937C141.089 28.7584 141.935 27.198 142.695 25.3053C143.173 24.0845 143.209 23.9545 143.55 23.9545C143.89 23.9545 144.266 24.359 144.281 24.9008C144.281 25.067 144.208 25.4065 144.006 25.9122C143.412 27.552 142.609 29.3652 141.516 31.2723C140.387 33.3022 138.78 34.7976 137.817 34.8121H137.824Z" fill="#04D8CC"/>
<path d="M150.172 32.3487C149.275 33.5768 148.37 34.2269 147.407 34.2414C146.278 34.2631 144.498 33.1289 143.332 31.648C142.862 30.9906 142.63 30.0298 142.609 28.8234C142.587 27.7398 142.768 26.1867 143.144 24.1712C143.521 22.1991 143.904 20.4364 144.338 18.9627C144.766 17.3229 145.12 16.2321 145.323 15.7698C146.076 15.7553 146.959 15.907 147.972 16.1743C148.942 16.4922 149.448 16.8534 149.456 17.229C149.586 17.5613 148.58 19.3745 147.567 23.4488C146.828 26.389 146.495 28.6139 146.524 30.1165C146.423 33.2517 148.638 31.2434 150.382 28.325C151.149 26.9307 151.794 25.5799 152.307 24.2723C152.423 23.9328 152.633 23.7667 152.843 23.7594C153.133 23.7594 153.523 24.2073 153.531 24.6624C153.531 24.9153 153.458 25.2476 153.299 25.6666C152.061 28.8668 151.019 31.1062 150.165 32.3343L150.172 32.3487ZM151.338 11.0092C150.599 11.8183 149.81 12.2517 148.978 12.2661C147.849 12.2878 147.118 11.551 147.096 10.2579C147.082 9.38379 147.393 8.49525 148.008 7.65005C148.623 6.80485 149.362 6.37141 150.245 6.34974C151.584 6.32084 152.402 7.31052 152.423 8.52414C152.438 9.36212 152.083 10.2001 151.345 11.0092H151.338Z" fill="#04D8CC"/>
</g>
<defs>
<clipPath id="clip0_501_508">
<rect width="227.792" height="77" fill="white"/>
</clipPath>
</defs>
</svg>
