<svg width="270" height="80" viewBox="0 0 270 80" fill="none" xmlns="http://www.w3.org/2000/svg">
<g clip-path="url(#clip0_119_310)">
<path d="M59.8458 51.8167C55.2718 46.0993 42.432 46.2667 36.6001 41.8152C33.2962 39.2954 27.8646 32.0138 25.7533 28.3628C24.5281 26.2432 24.1197 21.6693 23.7807 22.2369C23.1232 23.2865 20.4605 25.1814 21.1752 25.9125C17.908 30.9561 15.0493 35.6608 11.8067 40.7044C10.218 43.1547 8.63755 43.4774 8.84583 46.4791C9.05411 49.4807 10.071 55.3371 10.7489 58.2448C11.1573 59.9233 10.2997 59.858 10.1241 61.5895C10.0097 62.7371 9.77288 63.8643 9.92399 65.0241C10.2466 67.5112 12.0966 69.108 14.0406 70.4721C16.3762 72.1711 18.8486 73.6737 21.4325 74.9644C22.7883 75.6055 24.1728 76.4673 25.6512 76.6551C33.4106 77.6271 42.0195 75.7566 49.2889 73.294C51.584 72.5181 54.7001 72.5875 57.2035 71.5951C61.0587 70.0596 64.0277 67.1028 64.7097 63.1169C65.8492 56.4316 63.701 56.6521 59.8458 51.8167Z" fill="#FFD9BD"/>
<path d="M60.4706 62.7698C59.4782 62.7698 58.4286 63.5294 57.6119 64.3013C57.3867 64.2096 57.1346 64.2096 56.9094 64.3013C56.1825 64.6076 55.5536 65.0772 55.4637 65.9348C55.4187 66.3683 55.5286 66.8036 55.7737 67.1639C56.0189 67.5242 56.3836 67.7861 56.8033 67.9033C57.619 68.0517 58.4582 68.0069 59.2536 67.7726C60.037 67.5877 60.7478 67.174 61.2956 66.5842C62.2675 65.4897 62.5412 62.7821 60.4706 62.7698Z" fill="#FFA294"/>
<path d="M28.9018 55.2799C28.6987 55.158 28.4715 55.0816 28.236 55.0563C28.0005 55.0309 27.7622 55.057 27.5378 55.1329C27.3696 55.1442 27.2056 55.19 27.0559 55.2676C26.8965 55.3545 26.7573 55.4742 26.6475 55.6189C26.5226 55.7073 26.4205 55.8242 26.3495 55.9597C26.2785 56.0953 26.2407 56.2458 26.2391 56.3989C26.241 56.5892 26.3008 56.7744 26.4107 56.9298C26.4794 57.1854 26.613 57.419 26.7986 57.6077C27.1393 57.9144 27.5825 58.082 28.0408 58.0774C28.4991 58.0729 28.939 57.8965 29.2735 57.5832C29.4223 57.4165 29.5321 57.2186 29.5948 57.0041C29.6575 56.7896 29.6715 56.5638 29.6359 56.3431C29.6003 56.1224 29.516 55.9125 29.389 55.7286C29.262 55.5447 29.0956 55.3914 28.9018 55.2799Z" fill="#FFA294"/>
<path d="M55.5536 51.7922C48.6844 48.4557 41.4314 45.6663 35.8732 40.2388C30.7397 35.2319 27.2724 28.6732 23.9931 22.3758C23.4948 21.4161 22.0573 22.0899 22.2982 23.0905C22.3001 23.104 22.3001 23.1178 22.2982 23.1313C22.1563 23.1995 22.0372 23.3073 21.9552 23.4417C19.4272 27.3418 17.5486 31.6095 15.3106 35.6567C14.2411 37.6298 13.0575 39.5388 11.7658 41.3742C10.4018 43.2854 8.69878 44.9639 7.42052 46.9201C6.78342 47.8921 8.04944 49.154 9.02549 48.521C12.8072 46.0707 15.5598 41.3905 17.7773 37.572C19.9418 33.8393 20.6565 31.7034 21.9062 27.5705C23.9154 33.97 27.885 38.0049 32.749 42.7504C37.0044 46.9038 42.8117 49.5297 48.2679 51.4614C48.1544 51.5388 48.0644 51.6459 48.0078 51.7711C47.9512 51.8962 47.9302 52.0345 47.9471 52.1708C47.964 52.3071 48.0181 52.4361 48.1035 52.5437C48.1889 52.6513 48.3023 52.7332 48.4312 52.7805C50.3956 53.4707 52.4498 54.6469 54.4958 54.9899C54.6293 55.0235 54.7705 55.0081 54.8936 54.9466C55.0168 54.8851 55.1138 54.7815 55.1671 54.6546C55.2204 54.5277 55.2265 54.3858 55.1843 54.2548C55.1421 54.1238 55.0543 54.0122 54.9369 53.9404C54.4815 53.6008 53.993 53.308 53.4789 53.0664L54.8511 53.4176C55.8068 53.6463 56.4847 52.2455 55.5536 51.7922Z" fill="#FFA294"/>
<path d="M38.7646 76.4223C38.8581 76.2213 39.0163 76.0574 39.2138 75.9568C39.9612 75.5933 40.6841 75.1808 41.4396 74.8255L39.5487 74.9766C36.0365 75.2339 32.0588 75.4177 28.5793 74.8705C22.1459 73.8911 16.2392 70.7461 11.8353 65.9553C11.141 65.1916 10.6387 66.331 11.3003 67.111C15.2953 71.9031 20.8557 75.1288 26.9988 76.2181C26.9539 76.3243 36.3755 76.6265 38.7646 76.4223Z" fill="#FFA294"/>
<path d="M86.628 23.6867C83.8673 22.5228 80.5839 22.6821 78.1294 24.5035C76.7017 25.6122 75.7098 27.1881 75.3279 28.955C74.1027 26.6802 72.6611 24.4953 71.2971 22.3594C69.1162 18.9494 67.2581 17.0504 64.4034 14.1508C58.2775 7.93097 48.9989 4.8762 40.5574 5.1049C23.6214 5.57046 7.00394 16.3071 3.24265 33.4881C2.19747 38.1998 2.23655 43.0874 3.35699 47.7818C4.27179 51.5472 5.89718 55.7536 9.70748 57.3831C9.86489 57.4459 10.0359 57.467 10.2038 57.4444C10.3718 57.4217 10.5311 57.3561 10.6662 57.2538C10.8014 57.1515 10.9078 57.016 10.9752 56.8605C11.0427 56.7051 11.0688 56.5348 11.0511 56.3662C10.6427 53.4789 10.2343 50.5916 9.86676 47.7001C9.65031 45.989 9.74423 44.576 10.5733 43.0445C11.4472 41.4436 12.4029 39.8835 13.3381 38.3235C16.0743 33.7617 18.7983 29.1673 21.5917 24.6424C21.1588 26.8273 21.1833 29.0407 21.2119 31.34C21.265 34.9706 21.4406 38.5848 21.6897 42.2032C21.7183 42.6116 22.3105 42.5177 22.3064 42.1256C22.2819 38.9442 22.1144 35.7751 22.0613 32.5937C22.0614 30.1368 22.2086 27.682 22.5024 25.2427C24.3483 30.4415 26.9947 35.3014 31.1644 39.0586C35.1911 42.6974 40.2715 45.3805 45.2253 47.9207C44.7638 48.3291 44.6331 49.1663 45.2253 49.5542C46.8915 50.5711 48.5129 51.633 50.1628 52.6499C50.1585 52.7939 50.1968 52.936 50.273 53.0582C51.0294 54.1862 51.6324 55.4099 52.0659 56.697L51.6003 56.3172C51.4997 56.2254 51.367 56.1769 51.2309 56.1821C51.0948 56.1873 50.9663 56.2459 50.873 56.3451C50.7797 56.4443 50.7291 56.5762 50.7323 56.7123C50.7354 56.8485 50.7919 56.9779 50.8897 57.0727C55.043 61.3363 60.25 66.4045 60.1112 72.8489C60.1165 72.9363 60.1528 73.019 60.2136 73.082C60.2744 73.145 60.3557 73.1843 60.4429 73.1927C60.5301 73.201 60.6174 73.178 60.6891 73.1277C60.7608 73.0774 60.8122 73.0032 60.8341 72.9183C61.4589 69.7084 59.8948 66.9926 58.5879 64.1543C57.6045 62.0523 56.1811 60.1861 54.4141 58.6818C55.2309 57.5424 56.5868 57.3994 57.8895 57.3382C60.2949 57.4403 62.243 59.1229 63.072 61.3445C63.9868 63.7949 63.2721 66.2085 61.9898 68.3566C61.7325 68.7895 62.0755 69.4511 62.6309 69.2101C64.5107 68.4469 66.293 67.4625 67.94 66.2779C68.084 66.4128 68.2695 66.4947 68.4661 66.5103C68.6628 66.5259 68.8589 66.4742 69.0223 66.3637C71.1459 64.8485 73.2941 63.0965 74.6132 60.8095C76.0344 58.3592 76.7368 55.431 77.3412 52.6784C77.872 50.2759 78.1702 47.8279 78.2315 45.3682C78.256 45.1191 78.2683 44.8659 78.2846 44.6127C78.83 45.4761 79.4563 46.2857 80.155 47.0304C82.4625 49.4807 85.9624 51.0898 89.2377 49.6441C92.1903 48.3372 93.8117 45.1845 94.5223 42.1909C96.1109 35.5505 93.3134 26.5087 86.628 23.6867Z" fill="#B76F48"/>
<path d="M20.8116 23.6704C16.4623 28.9019 12.4927 34.3539 8.59255 39.9325C7.19585 41.9296 4.66791 44.2533 5.09263 46.8752C5.54595 49.6808 7.2081 53.0542 8.76816 55.4065C8.86722 55.5615 9.01786 55.6765 9.19348 55.7312C9.36909 55.7859 9.55838 55.7767 9.72792 55.7054C9.89746 55.6341 10.0363 55.5051 10.12 55.3413C10.2037 55.1775 10.2268 54.9894 10.1853 54.8103C9.85858 53.483 9.40933 52.2006 8.99686 50.8979C9.21937 50.862 9.42251 50.7499 9.57151 50.5808C9.7205 50.4117 9.80609 50.1961 9.81364 49.9708C9.76442 49.1452 9.64417 48.3254 9.45425 47.5205C9.31275 46.6442 9.24445 45.7576 9.25006 44.87C9.24948 44.7162 9.21164 44.5649 9.13978 44.4289C9.42157 44.0695 9.70745 43.7224 9.95657 43.3834L12.6397 39.5732C16.0457 34.7419 19.2597 29.8453 22.2492 24.7445C22.7392 23.9073 21.4896 22.8618 20.8116 23.6704Z" fill="#A25234"/>
<path d="M61.5977 49.8279C58.2162 48.1167 54.5774 46.9242 51.1592 45.262C47.8075 43.6291 44.615 41.6877 41.6233 39.4629C35.4311 34.8142 30.0566 29.1664 25.7205 22.7515C25.64 22.6161 25.5337 22.4978 25.4076 22.4035C25.2814 22.3092 25.1379 22.2406 24.9853 22.2018C24.8326 22.1629 24.6738 22.1545 24.5179 22.177C24.362 22.1995 24.2121 22.2525 24.0767 22.3329C23.9413 22.4133 23.823 22.5197 23.7287 22.6458C23.6344 22.772 23.5658 22.9155 23.527 23.0681C23.4881 23.2207 23.4797 23.3795 23.5022 23.5354C23.5247 23.6913 23.5777 23.8413 23.6581 23.9767C27.1013 31.4389 32.339 37.9323 38.9034 42.877C44.9516 47.4919 53.0827 52.2374 60.8952 52.4457C62.2429 52.4579 62.8392 50.4568 61.5977 49.8279Z" fill="#A25234"/>
<path d="M57.7997 52.8296C56.8441 52.6539 55.8803 52.7152 54.941 52.5437C53.9616 52.3679 53.0134 52.0486 52.1272 51.5962C51.8564 51.4397 51.5345 51.3972 51.2324 51.478C50.9303 51.5588 50.6726 51.7563 50.5161 52.0271C50.3596 52.2978 50.317 52.6197 50.3978 52.9218C50.4786 53.224 50.6761 53.4817 50.9469 53.6382C51.9979 54.3661 53.1532 54.9306 54.3733 55.3126C54.3505 55.4472 54.3577 55.5851 54.3941 55.7167C54.4306 55.8482 54.4956 55.9702 54.5844 56.0738C54.6733 56.1775 54.7839 56.2603 54.9083 56.3165C55.0327 56.3727 55.168 56.4008 55.3045 56.3989C55.5225 56.4075 55.7362 56.3358 55.9048 56.1972C56.0735 56.0587 56.1854 55.8631 56.2193 55.6474C56.7527 55.6846 57.2887 55.6475 57.812 55.5372C59.1025 55.2186 59.1515 53.0705 57.7997 52.8296Z" fill="#A25234"/>
<path d="M82.683 34.407C82.3854 34.9029 82.209 35.462 82.1683 36.0389C82.1275 36.6158 82.2234 37.1942 82.4483 37.727C82.6731 38.2599 83.0205 38.7321 83.4622 39.1054C83.904 39.4787 84.4275 39.7425 84.9904 39.8754C87.4897 40.4798 89.8911 38.544 90.6629 36.257C92.6069 30.3762 85.7623 25.5041 80.7431 28.906C78.5497 30.4262 76.9836 32.6918 76.3366 35.281C73.7678 34.844 71.1337 35.0849 68.5363 35.0155C65.4807 34.9384 62.4357 34.623 59.4291 34.0721C53.7402 33.0226 48.2678 31.291 42.7259 29.6656C41.4599 29.2939 40.8963 30.9928 41.8724 31.7075C46.818 35.2197 52.7642 37.278 58.7104 38.2867C61.6811 38.795 64.6828 39.102 67.695 39.2056C69.7588 39.3323 71.8298 39.2694 73.8821 39.0177C73.5636 39.177 73.2409 39.3485 72.9061 39.5119C71.8625 40.0331 70.7457 40.3925 69.594 40.5778C68.2627 40.7983 68.671 42.7749 69.9003 42.8362C70.7062 42.8742 71.5138 42.8414 72.3139 42.7382C72.3255 42.9139 72.3799 43.084 72.4723 43.2338C72.5648 43.3837 72.6926 43.5085 72.8445 43.5976C72.9964 43.6866 73.1678 43.7371 73.3437 43.7446C73.5196 43.7521 73.6946 43.7165 73.8536 43.6407C74.4074 43.3595 74.9337 43.0273 75.4259 42.6483C75.8206 42.3424 76.1686 41.9805 76.4591 41.5743C76.6951 42.3425 77.0185 43.081 77.4229 43.7755C78.0595 44.8752 78.9368 45.8163 79.9892 46.5284C81.0416 47.2404 82.2415 47.7049 83.4991 47.8868C84.7566 48.0688 86.039 47.9635 87.25 47.5789C88.461 47.1944 89.5693 46.5405 90.4914 45.6664C90.5366 45.6169 90.5648 45.5543 90.5719 45.4876C90.5791 45.421 90.5647 45.3538 90.531 45.2959C90.4972 45.238 90.4459 45.1924 90.3844 45.1658C90.3229 45.1391 90.2546 45.1328 90.1892 45.1477C85.8317 46.4995 80.935 43.3426 80.6614 38.7196C80.6193 37.7328 80.8073 36.7498 81.2106 35.8482C81.6139 34.9466 82.2215 34.1512 82.9852 33.5249C83.6264 33.0144 84.4677 32.5243 85.2885 32.9327C85.8031 33.19 86.1747 34.0354 86.3013 34.8154C85.8521 33.4105 83.5855 32.8919 82.683 34.407Z" fill="#A25234"/>
<path d="M19.9581 47.4184C15.719 45.891 12.8848 49.6482 12.8276 53.0664C12.7867 55.3943 13.3585 57.8038 15.3147 59.2699C17.6548 61.026 21.0975 60.3154 22.6943 57.9835C25.0344 54.5693 24.0298 48.8845 19.9581 47.4184Z" fill="white"/>
<path d="M40.6309 49.1173C36.3877 47.6879 33.6882 51.4696 33.6229 54.6673C33.5821 56.84 34.4968 59.229 36.453 60.6053C37.6097 61.3676 39.0109 61.6669 40.3781 61.4437C41.7453 61.2205 42.9785 60.4911 43.8327 59.4006C46.1769 56.2069 44.6821 50.4854 40.6309 49.1173Z" fill="white"/>
<path d="M30.9357 65.0813C30.8785 63.9133 30.9153 62.2225 30.4864 61.1158C29.6697 59.0738 25.5572 59.5884 23.797 60.299C23.6602 60.3079 23.5302 60.3615 23.4269 60.4515C23.3236 60.5415 23.2527 60.663 23.2253 60.7973C23.1822 60.9174 23.1822 61.0488 23.2253 61.1689C23.3028 62.7453 23.1885 64.1706 23.5805 65.7429C23.8664 66.9068 24.2013 68.3198 25.2141 69.0386C25.3194 69.1844 25.4369 69.321 25.5653 69.447C27.0845 70.9662 29.298 70.2638 30.2904 68.5159C30.8287 67.456 31.0526 66.2643 30.9357 65.0813Z" fill="#FF7BB1"/>
<path d="M29.8617 60.2582C29.8228 60.1385 29.7579 60.0289 29.6715 59.9374C29.5852 59.8459 29.4795 59.7747 29.3623 59.7289C29.2451 59.6832 29.1191 59.6641 28.9936 59.673C28.8681 59.6819 28.7461 59.7186 28.6365 59.7804C28.1069 60.0373 27.5612 60.2597 27.0029 60.4461C26.1807 60.4492 25.36 60.3726 24.5526 60.2174C24.4551 60.1895 24.3514 60.193 24.256 60.2274C24.1607 60.2619 24.0787 60.3255 24.0216 60.4093C23.8289 60.4701 23.6601 60.5899 23.5392 60.7519C23.4182 60.9139 23.3513 61.1097 23.3478 61.3118C23.2518 62.6865 23.3899 64.0674 23.7562 65.3958C23.7873 65.5337 23.8521 65.6619 23.9447 65.7687C24.0373 65.8756 24.155 65.9579 24.2871 66.0083C24.0821 66.3431 23.8992 66.691 23.7398 67.0497C23.67 67.1819 23.6555 67.3364 23.6995 67.4792C23.7435 67.622 23.8425 67.7415 23.9747 67.8114C24.1068 67.8813 24.2613 67.8958 24.4041 67.8517C24.547 67.8077 24.6665 67.7087 24.7363 67.5766C25.3391 66.7485 26.0507 66.0054 26.8518 65.3672C27.6155 64.7464 29.4532 63.95 30.2823 63.4641C31.532 62.729 30.1475 61.4997 29.8617 60.2582Z" fill="#FF5FAF"/>
<path d="M28.8283 60.0458C28.2525 59.9274 27.644 60.1643 27.0641 60.2419C26.323 60.3463 25.5692 60.3172 24.8383 60.1561C24.3074 60.0336 23.9562 60.8544 24.4912 61.0791C25.346 61.3688 26.2585 61.4459 27.1498 61.3037C27.8686 61.2424 28.9304 61.2465 29.3102 60.5849C29.4287 60.3766 29.0611 60.0948 28.8283 60.0458Z" fill="white"/>
<path d="M10.4345 57.2769C10.2139 56.0518 8.23731 56.5868 8.54769 57.8323L8.57219 57.9263C6.91952 60.7159 5.71508 63.7477 5.00285 66.9109C4.3576 69.7125 4.09621 72.6284 5.67669 75.1727C5.71921 75.2392 5.78228 75.2902 5.85633 75.3177C5.93038 75.3452 6.01138 75.3479 6.08707 75.3253C6.16277 75.3027 6.22903 75.256 6.27584 75.1924C6.32264 75.1287 6.34743 75.0515 6.34645 74.9725C6.2321 71.2072 6.48122 67.1764 8.31082 63.799C8.93157 62.6514 10.3528 61.6181 10.7612 60.4011C11.0715 59.4741 10.5978 58.1631 10.4345 57.2769Z" fill="#B76F48"/>
<path d="M8.58435 45.2416C8.56961 47.5638 8.72248 49.8841 9.04174 52.1843C9.35252 54.6697 9.85497 57.1274 10.5446 59.5353C10.5853 59.6442 10.6653 59.7339 10.7687 59.7868C10.8722 59.8397 10.9917 59.852 11.1037 59.8213C11.2158 59.7906 11.3124 59.7191 11.3744 59.6209C11.4364 59.5226 11.4595 59.4047 11.439 59.2903C11.1123 56.8685 10.5161 54.4876 10.1322 52.074C9.74915 49.8066 9.52263 47.5156 9.45422 45.2171C9.44374 45.109 9.3934 45.0087 9.31299 44.9358C9.23258 44.8628 9.12787 44.8223 9.01928 44.8223C8.91069 44.8223 8.80601 44.8628 8.7256 44.9358C8.6452 45.0087 8.59483 45.109 8.58435 45.2171V45.2416Z" fill="#313144"/>
<path d="M23.7847 54.2671C23.7711 53.955 23.7384 53.644 23.6867 53.3359C23.5982 53.5574 23.4387 53.7433 23.2333 53.8645C23.0278 53.9857 22.788 54.0354 22.5514 54.0057C21.0362 53.875 21.2404 51.5268 22.7515 51.6534C22.9155 51.6663 23.0752 51.7121 23.2211 51.7881C22.4043 49.9953 20.8443 48.7905 19.0678 48.8436C16.5562 48.9253 14.6 51.4778 14.698 54.5611C14.796 57.6445 16.9033 60.0622 19.4149 59.9846C21.9265 59.907 23.8786 57.3423 23.7847 54.2671Z" fill="#313144"/>
<path d="M43.3631 55.9292C41.852 55.7986 42.0562 53.4462 43.5673 53.5769C43.7375 53.5902 43.903 53.6389 44.0533 53.7198C43.4611 51.78 41.9868 50.3588 40.1694 50.2363C37.6619 50.0647 35.4648 52.413 35.2688 55.48C35.0727 58.547 36.9227 61.1771 39.4262 61.3445C41.9296 61.512 44.1309 59.1678 44.3269 56.1008C44.337 55.9076 44.337 55.714 44.3269 55.5208C44.2149 55.6661 44.0674 55.78 43.8986 55.8515C43.7297 55.923 43.5453 55.9498 43.3631 55.9292Z" fill="#313144"/>
<path d="M36.0815 50.2281C36.747 49.7976 37.4952 49.5112 38.2781 49.3875C39.0609 49.2637 39.861 49.3052 40.6268 49.5093C41.3341 49.7157 41.9831 50.0849 42.5218 50.5875C43.1711 51.2001 43.4652 52.0087 43.9757 52.7193C44.1513 52.9643 44.6373 52.9929 44.7026 52.6213C44.8946 51.5227 44.3228 50.4364 43.6327 49.6114C42.9817 48.8689 42.1312 48.3289 41.1823 48.0555C40.2073 47.7747 39.181 47.7212 38.1821 47.8989C37.1832 48.0766 36.2382 48.4808 35.4199 49.0805C34.742 49.5747 35.3545 50.7141 36.0896 50.2281H36.0815Z" fill="#313144"/>
<path d="M13.9711 50.6732C14.277 49.9003 14.7713 49.2159 15.4089 48.6825C16.0465 48.149 16.8072 47.7833 17.6221 47.6185C19.2802 47.3244 20.926 48.1085 22.1553 49.1785C22.5269 49.5012 23.1354 49.0928 22.8618 48.6354C22.298 47.7192 21.4666 46.998 20.48 46.5693C19.4933 46.1407 18.3988 46.025 17.3444 46.2381C16.3093 46.4268 15.3473 46.9 14.5661 47.6048C13.7849 48.3095 13.2154 49.2179 12.9215 50.2281C12.7296 50.8366 13.7138 51.2777 13.9711 50.6732Z" fill="#313144"/>
<path d="M8.66604 57.2851C6.82011 60.6094 4.95377 64.0032 4.2105 67.7726C3.86336 69.5287 3.651 71.4726 4.2105 73.2083C4.66381 74.6336 5.72971 75.9445 7.27343 76.1446C7.51847 76.1773 7.61648 75.7812 7.40003 75.6791C4.05939 74.1108 4.45962 69.9616 5.20697 66.9681C6.02376 63.6601 7.62465 60.589 9.1847 57.5751C9.36031 57.2361 8.86208 56.9421 8.6783 57.2769L8.66604 57.2851Z" fill="#313144"/>
<path d="M8.00034 62.7085C6.88134 64.8975 5.72152 67.1478 5.32538 69.6022C4.9905 71.6809 5.13344 74.0496 6.40354 75.8098C6.44629 75.8785 6.51424 75.9279 6.59288 75.9473C6.67152 75.9667 6.75462 75.9545 6.82444 75.9135C6.89427 75.8725 6.94528 75.8058 6.9666 75.7276C6.98791 75.6495 6.97784 75.5661 6.93853 75.4953C5.96159 73.6231 5.65188 71.4739 6.06048 69.4021C6.46887 67.1355 7.48576 65.0486 8.48224 62.9903C8.63743 62.6677 8.16369 62.3859 8.00034 62.7085Z" fill="#313144"/>
<path d="M1.84596 34.4519C0.367471 37.9472 -0.236691 41.7502 0.085791 45.5316C0.243649 47.4041 0.630424 49.2502 1.23746 51.0285C1.775 52.7855 2.66116 54.4162 3.843 55.823C4.45249 56.5417 5.20717 57.1232 6.05745 57.5293C6.90773 57.9355 7.83435 58.157 8.77638 58.1795C8.81867 58.1646 8.85528 58.137 8.88119 58.1004C8.90711 58.0638 8.92103 58.0201 8.92103 57.9753C8.92103 57.9304 8.90711 57.8867 8.88119 57.8502C8.85528 57.8136 8.81867 57.7859 8.77638 57.7711C5.03959 57.5383 2.87512 54.0956 1.73162 50.9101C-0.156468 45.6101 -0.0182802 39.7991 2.1196 34.5949C2.18494 34.4315 1.90315 34.3131 1.83372 34.4723L1.84596 34.4519Z" fill="#313144"/>
<path d="M18.3735 40.2348C18.4879 40.2756 18.6063 40.3164 18.7165 40.3614L18.8554 40.4185L18.9289 40.4512C19.1331 40.537 19.3373 40.635 19.5252 40.7371C19.9373 40.9529 20.3332 41.1986 20.7095 41.4722L20.832 41.5579C20.832 41.5579 20.9627 41.656 20.8892 41.6029C20.979 41.6682 21.0607 41.7417 21.1465 41.8111C21.3262 41.9622 21.4977 42.1174 21.6651 42.2767C22.0131 42.6229 22.3842 42.9449 22.776 43.2405C23.1843 43.5101 23.8255 43.0527 23.6336 42.583C23.5237 42.2999 23.3708 42.0354 23.1803 41.7989C23.0275 41.6073 22.8624 41.4259 22.6861 41.2557C22.3054 40.8947 21.8956 40.5655 21.4609 40.2715C20.6226 39.6984 19.7049 39.2513 18.737 38.9442C18.567 38.9001 18.3865 38.9241 18.234 39.011C18.0814 39.098 17.9688 39.2411 17.9202 39.4098C17.8783 39.5802 17.9038 39.7602 17.9913 39.9123C18.0788 40.0644 18.2215 40.177 18.3898 40.2266L18.3735 40.2348Z" fill="#313144"/>
<path d="M34.9012 45.0415C35.7828 44.6465 36.7005 44.3374 37.6415 44.1186C38.5931 43.8899 39.5487 43.6693 40.5003 43.5019C41.0516 43.408 40.88 42.6075 40.3777 42.5748C39.3199 42.5069 38.258 42.6019 37.229 42.8566C36.201 43.1217 35.2002 43.4827 34.2396 43.9348C34.0939 44.0208 33.988 44.1609 33.9452 44.3246C33.9024 44.4884 33.926 44.6624 34.0109 44.8087C34.0992 44.9531 34.2397 45.0578 34.4033 45.1011C34.5668 45.1445 34.7408 45.1231 34.889 45.0415H34.9012Z" fill="#313144"/>
<path d="M60.4339 11.0102C63.7877 11.4573 66.9279 12.9084 69.4418 15.173C71.9557 17.4377 73.7258 20.4098 74.5193 23.699C74.955 25.602 75.0928 27.5611 74.9277 29.5063C74.8991 29.8493 75.4831 29.9147 75.5362 29.588C76.6471 22.388 72.4896 15.1391 65.9635 12.0884C64.2222 11.275 62.3575 10.7574 60.4461 10.5569C60.1521 10.5243 60.1602 10.9653 60.4461 11.0102H60.4339Z" fill="#313144"/>
<path d="M23.4866 60.3072C25.1202 60.6666 26.9008 60.491 28.5466 60.3848C28.8406 60.3644 29.1387 60.3358 29.4328 60.3235C29.4736 60.3235 29.637 60.3235 29.6656 60.3235C29.6941 60.3235 29.5594 60.2745 29.4981 60.2704C29.4369 60.2664 29.4614 60.1357 29.4981 60.2909C29.5823 60.5451 29.6832 60.7934 29.8003 61.0341C29.9351 61.4425 30.0454 61.8754 30.1434 62.3042C30.5804 64.2114 30.9602 66.4127 30.1025 68.2668C29.6492 69.2591 28.6732 70.1821 27.5174 70.129C26.1983 70.0678 25.2468 68.9814 24.7077 67.8788C24.154 66.6204 23.8383 65.2704 23.7766 63.897C23.6697 62.5835 23.6833 61.2629 23.8174 59.9519C23.8623 59.5435 23.2089 59.5435 23.1558 59.9519C22.8291 62.5289 22.8618 65.4203 23.8215 67.8706C24.3197 69.1407 25.1242 70.321 26.427 70.8519C26.9983 71.0895 27.6249 71.1615 28.2352 71.0597C28.8455 70.9578 29.4148 70.6863 29.8779 70.276C31.8055 68.6425 31.7851 65.7388 31.389 63.4477C31.2316 62.4791 31.0023 61.5235 30.7029 60.589C30.5232 60.0499 30.2945 59.3638 29.6411 59.3189C28.7756 59.3292 27.9119 59.3988 27.056 59.5272C25.9434 59.6931 24.8149 59.7246 23.6949 59.6211C23.2375 59.5517 23.0292 60.2255 23.4989 60.3317L23.4866 60.3072Z" fill="#313144"/>
<path d="M41.1332 31.5483C49.2371 35.4793 57.9271 38.0642 66.8619 39.2015C69.4013 39.5356 71.9628 39.6721 74.5233 39.6099C74.6132 39.6099 74.6994 39.5742 74.763 39.5106C74.8266 39.4471 74.8623 39.3608 74.8623 39.2709C74.8623 39.181 74.8266 39.0948 74.763 39.0313C74.6994 38.9677 74.6132 38.932 74.5233 38.932C70.1004 38.5644 65.6898 38.1765 61.32 37.376C56.9877 36.5815 52.7265 35.4383 48.5782 33.9578C46.1605 33.0961 43.7919 32.0955 41.4722 30.9969C41.0883 30.8132 40.7534 31.3808 41.1373 31.5687L41.1332 31.5483Z" fill="#313144"/>
<path d="M68.9733 41.803C71.1896 41.5924 73.3733 41.1209 75.479 40.3981C75.5369 40.3753 75.5845 40.332 75.6125 40.2764C75.6405 40.2208 75.6471 40.1568 75.6309 40.0967C75.6147 40.0366 75.577 39.9845 75.5249 39.9504C75.4727 39.9164 75.4098 39.9027 75.3483 39.9121C73.2568 40.5064 71.1267 40.9553 68.9733 41.2557C68.6302 41.2966 68.6262 41.8397 68.9733 41.803Z" fill="#313144"/>
<path d="M49.6318 53.1113C51.6942 54.5734 54.1242 55.6515 56.6807 55.7863C56.7414 55.7868 56.8002 55.7651 56.8461 55.7253C56.892 55.6855 56.9217 55.6303 56.9298 55.5701C56.9378 55.5099 56.9235 55.4489 56.8897 55.3984C56.8558 55.348 56.8048 55.3116 56.746 55.2962C54.3284 54.749 51.9882 54.022 49.8687 52.7029C49.6073 52.5396 49.3868 52.9398 49.6318 53.1113Z" fill="#313144"/>
<path d="M50.6406 55.5249C52.9602 58.5634 55.9946 60.9974 58.1427 64.1706C60.054 67.0007 61.3282 70.5252 59.8212 73.8209C59.4741 74.6108 58.969 75.3212 58.3368 75.9084C57.7047 76.4956 56.959 76.9471 56.1457 77.235C56.0918 77.2569 56.0479 77.2979 56.0223 77.3501C55.9967 77.4023 55.9911 77.4622 56.0068 77.5182C56.0224 77.5742 56.0581 77.6225 56.1071 77.6539C56.156 77.6852 56.2149 77.6975 56.2723 77.6883C59.4741 77.1329 61.3282 73.6371 61.3118 70.6191C61.3118 66.6046 58.7186 63.2435 56.0599 60.4869C54.3774 58.7431 52.5845 57.0972 51.0571 55.2023C50.8693 54.9736 50.4568 55.284 50.6487 55.5249H50.6406Z" fill="#313144"/>
<path d="M51.8412 58.547C54.3733 61.0464 56.844 63.7009 58.4449 66.9109C59.2517 68.524 59.7779 70.2628 60.0009 72.0526C60.1901 73.8203 60.0277 75.6079 59.5231 77.3126C59.4577 77.5454 59.8212 77.721 59.9315 77.4842C61.4752 74.217 60.7482 70.1944 59.2168 67.0457C57.5587 63.6233 54.8715 60.834 52.1475 58.2448C52.1075 58.2047 52.0531 58.1822 51.9964 58.1822C51.9398 58.1822 51.8854 58.2047 51.8453 58.2448C51.8053 58.2849 51.7827 58.3393 51.7827 58.3959C51.7827 58.4526 51.8053 58.507 51.8453 58.547H51.8412Z" fill="#313144"/>
<path d="M45.262 63.2231C45.3564 63.1963 45.4479 63.1608 45.5356 63.1169L45.5724 63.0924L45.6336 63.0475L45.6949 62.9985L45.7235 62.9699C45.7593 62.9313 45.7908 62.8888 45.8175 62.8433C45.8294 62.8213 45.839 62.798 45.846 62.7739C45.846 62.7739 45.8665 62.729 45.8746 62.7045C45.8829 62.6531 45.8829 62.6007 45.8746 62.5493C45.875 62.4506 45.8497 62.3534 45.8011 62.2675C45.7651 62.1979 45.7116 62.1388 45.6459 62.096C45.6256 62.0748 45.6022 62.0569 45.5765 62.0429C45.5347 62.021 45.491 62.0032 45.4458 61.9898C45.3996 61.975 45.3513 61.9681 45.3029 61.9694C45.2786 61.9651 45.2537 61.9651 45.2293 61.9694H45.1599C45.1215 61.9815 45.0845 61.9979 45.0497 62.0184L44.968 62.0837C44.9326 62.1142 44.9023 62.15 44.8781 62.1899C44.8497 62.2367 44.8342 62.2903 44.8332 62.3451C44.8168 62.3983 44.8168 62.4552 44.8332 62.5084L44.874 62.6065C44.9008 62.6542 44.9386 62.6948 44.9843 62.7249C45.0096 62.7495 45.0404 62.7677 45.0742 62.778C45.1236 62.8026 45.1782 62.8152 45.2334 62.8147H45.3437C45.4118 62.7955 45.4737 62.7589 45.5234 62.7086L45.4417 62.7739L45.3396 62.8147H45.2253H45.2498H45.1354L45.0333 62.7739H45.0619L44.9721 62.7045L45.0007 62.7331L44.9312 62.6432C44.9423 62.6549 44.9507 62.6688 44.9558 62.684L44.9108 62.5779C44.9149 62.5967 44.9149 62.6162 44.9108 62.635V62.5125C44.9126 62.5233 44.9126 62.5344 44.9108 62.5452V62.4268C44.9103 62.4363 44.9103 62.4458 44.9108 62.4554L44.9558 62.3451L44.9312 62.3859L45.0007 62.2961C44.9892 62.3117 44.9754 62.3254 44.9598 62.3369L45.0538 62.2634C45.0312 62.2802 45.0065 62.294 44.9802 62.3042L45.0905 62.2593C45.0365 62.2805 44.9804 62.2955 44.9231 62.3042C44.8628 62.32 44.8069 62.3493 44.7597 62.39C44.7101 62.4232 44.6694 62.4681 44.6413 62.5207C44.6065 62.5729 44.5868 62.6336 44.5841 62.6963C44.5657 62.7576 44.5657 62.8229 44.5841 62.8842L44.6331 62.9985C44.6737 63.0677 44.7314 63.1254 44.8006 63.166L44.9149 63.215C44.9967 63.2354 45.0823 63.2354 45.164 63.215L45.262 63.2231Z" fill="#FF7486"/>
<path d="M47.2713 63.3865C47.5265 63.1971 47.7631 62.9838 47.9778 62.7494C48.1845 62.5033 48.3538 62.2281 48.4801 61.9326C48.5286 61.8485 48.5418 61.7487 48.5169 61.6549C48.5054 61.6098 48.4849 61.5674 48.4569 61.5303C48.4289 61.4931 48.3937 61.4619 48.3535 61.4384C48.2703 61.3919 48.1722 61.3794 48.08 61.4038C47.9878 61.4282 47.9087 61.4875 47.8594 61.5691C47.7899 61.6916 47.7123 61.8142 47.6306 61.9326C47.5953 61.9898 47.5544 62.0469 47.5082 62.1041L47.4795 62.1409C47.4387 62.1899 47.4019 62.243 47.3652 62.2961L47.2468 62.4635L47.2182 62.5003C47.2182 62.5003 47.1692 62.5656 47.2182 62.5003C47.2672 62.4349 47.2182 62.5003 47.2182 62.5003L47.1896 62.537C47.0957 62.6514 46.9977 62.7616 46.8956 62.8637C46.8449 62.9185 46.8147 62.9891 46.8103 63.0635C46.8058 63.138 46.8273 63.2117 46.871 63.2721C46.9169 63.3339 46.9837 63.3767 47.059 63.3925C47.1342 63.4083 47.2126 63.396 47.2794 63.3579L47.2713 63.3865Z" fill="#FF7486"/>
<path d="M12.803 63.3334C12.8922 63.1437 13.0017 62.9643 13.1297 62.7984L13.0603 62.8882C13.1419 62.7855 13.2292 62.6873 13.3217 62.5942C13.4156 62.5044 13.5055 62.4104 13.6035 62.3287C13.6804 62.2533 13.7245 62.1506 13.726 62.0429C13.7226 61.9601 13.6941 61.8804 13.6443 61.8142C13.5838 61.7374 13.4978 61.6849 13.4019 61.6662C13.306 61.6474 13.2065 61.6637 13.1216 61.7121C12.8853 61.8464 12.6739 62.0205 12.4967 62.2266C12.3146 62.4305 12.1595 62.657 12.0353 62.9005C11.9777 63.0066 11.9617 63.1303 11.9903 63.2476C12.0236 63.3604 12.0979 63.4565 12.1986 63.5172C12.3027 63.5765 12.4258 63.5926 12.5417 63.5621C12.6556 63.5311 12.7525 63.4562 12.8112 63.3538L12.803 63.3334Z" fill="#FF7486"/>
<path d="M14.0037 63.5457L14.4693 62.8678C14.6245 62.6432 14.7715 62.4145 14.9144 62.1776C14.9474 62.1202 14.9563 62.0521 14.9391 61.9881C14.9218 61.9241 14.8799 61.8697 14.8225 61.8366C14.7651 61.8036 14.6969 61.7947 14.633 61.8119C14.569 61.8292 14.5145 61.8711 14.4815 61.9285C14.3222 62.1531 14.1711 62.3777 14.0282 62.6105L13.5994 63.3048C13.5678 63.3585 13.5587 63.4225 13.574 63.4829C13.5893 63.5433 13.6278 63.5952 13.6811 63.6274C13.735 63.6579 13.7987 63.6664 13.8587 63.6512C13.9188 63.636 13.9707 63.5982 14.0037 63.5457Z" fill="#FF7486"/>
<path d="M9.3807 43.4896C8.84567 44.2589 8.23701 44.9742 7.56335 45.6255C7.39999 45.7766 7.62053 46.0707 7.80431 45.94C9.57673 44.7148 10.8223 42.6483 12.0107 40.8882C13.4034 38.8217 14.7265 36.7022 16.0947 34.6194C16.1187 34.5846 16.1316 34.5432 16.1316 34.5009C16.1316 34.4586 16.1187 34.4173 16.0947 34.3825L16.2417 34.1538C18.0018 31.4298 19.6068 28.6119 21.3425 25.8757C20.9938 27.8862 20.8013 29.9206 20.7667 31.9607C20.6662 35.0563 20.9405 38.1526 21.5834 41.1822C21.8465 42.3933 22.2254 43.5762 22.7147 44.7148C22.8495 45.3274 23.0006 45.94 23.1721 46.5362C23.1851 46.5855 23.2171 46.6276 23.2612 46.6533C23.3052 46.6789 23.3576 46.686 23.4069 46.673C23.4562 46.66 23.4983 46.628 23.524 46.584C23.5496 46.5399 23.5567 46.4875 23.5437 46.4382C23.4906 46.1319 23.4375 45.8297 23.3885 45.5234C23.4193 45.4924 23.4398 45.4525 23.4471 45.4094C23.4544 45.3663 23.4482 45.322 23.4294 45.2825L23.3028 44.9762C22.2973 38.4737 22.1929 31.8636 22.9924 25.3325C23.7683 28.8692 24.6586 32.4345 26.4433 35.6077C28.0442 38.4664 30.3843 40.9862 33.341 42.4442C34.6946 43.1197 36.1659 43.5274 37.6741 43.6448C39.8893 45.3989 42.3014 46.8887 44.8617 48.084C47.514 49.3536 50.3683 50.1484 53.295 50.4323C53.6381 50.4609 53.7239 49.8728 53.3768 49.8238C48.1861 49.105 43.3507 46.6424 39.177 43.555L38.9564 43.3916C38.9504 43.3327 38.923 43.2782 38.8793 43.2382C38.8356 43.1983 38.7787 43.1759 38.7196 43.1752H38.6706C34.2663 39.8287 30.5183 35.6972 27.6154 30.9888C25.977 28.3448 24.7178 25.484 23.8745 22.4901C23.8433 22.4101 23.7835 22.3446 23.7067 22.3061C23.6299 22.2676 23.5416 22.259 23.4588 22.2818C23.376 22.3047 23.3047 22.3574 23.2585 22.4298C23.2123 22.5023 23.1946 22.5892 23.2088 22.6739C24.679 28.1831 27.7011 33.239 31.3767 37.5557C33.041 39.5167 34.872 41.3299 36.8491 42.9751C34.2803 42.4313 31.9241 41.1546 30.0657 39.2995C27.4806 36.8247 25.8838 33.6433 24.7812 30.2741C24.1236 28.2607 23.6336 26.1902 23.1476 24.1482C23.1499 24.1128 23.1499 24.0774 23.1476 24.042C23.1533 24.0024 23.148 23.9619 23.1321 23.9252C23.1163 23.8884 23.0905 23.8567 23.0577 23.8337L23.0373 23.7439C22.9801 23.4948 22.6003 23.601 22.6534 23.8501L22.7147 24.1359C22.1022 27.8147 21.8084 31.5394 21.8366 35.2687C21.8366 37.18 21.9265 39.1158 22.1348 41.0352C21.8611 39.7202 21.6774 38.3847 21.5385 37.0697C21.2159 34.0845 21.1968 31.0742 21.4813 28.0851C21.5875 27.0314 21.7345 25.9778 21.9387 24.9364L22.4737 24.1196C22.5079 24.0721 22.5293 24.0166 22.536 23.9585C22.5427 23.9003 22.5344 23.8414 22.5119 23.7874C22.4894 23.7334 22.4534 23.686 22.4074 23.6498C22.3614 23.6136 22.3069 23.5897 22.2491 23.5805C22.2621 23.5334 22.2559 23.4831 22.2318 23.4406C22.2076 23.3981 22.1676 23.3669 22.1205 23.3539C22.0734 23.3409 22.023 23.3471 21.9805 23.3713C21.938 23.3954 21.9068 23.4354 21.8938 23.4825L21.8326 23.7153V23.7398C19.6027 26.8967 17.5935 30.1965 15.5025 33.4473C13.6484 36.3305 11.6963 39.3118 9.22551 41.7172C8.9478 41.9908 9.35211 42.3625 9.6339 42.1256C10.4165 41.5011 11.151 40.8185 11.831 40.0836L11.6391 40.3573C10.9013 41.43 10.1485 42.4741 9.3807 43.4896Z" fill="#313144"/>
<path d="M56.7502 65.4325C57.3691 64.8619 58.0547 64.3683 58.7921 63.9623L59.029 63.848L59.1515 63.7908L59.2414 63.7499C59.417 63.6764 59.5966 63.6152 59.7763 63.5539C60.2543 63.4 60.721 63.2131 61.1731 62.9944C61.5529 62.8106 61.3446 62.2471 60.9689 62.2389C59.9975 62.216 59.0389 62.4634 58.2 62.9536C57.3998 63.449 56.661 64.037 55.9987 64.7056C55.9023 64.8025 55.8484 64.9338 55.8488 65.0705C55.8491 65.2072 55.9038 65.3382 56.0008 65.4346C56.0977 65.531 56.229 65.5849 56.3657 65.5845C56.5024 65.5841 56.6334 65.5295 56.7298 65.4325H56.7502Z" fill="#313144"/>
<path d="M94.3507 32.8919C94.0477 31.7937 93.6374 30.7281 93.1255 29.7105C93.1786 26.521 91.0836 23.4948 88.2493 22.1144C84.9822 20.5258 80.9268 21.1874 78.0068 23.2457C76.4304 24.3524 75.0623 25.892 74.5722 27.7788C71.9106 21.0426 67.2756 15.2678 61.275 11.2116C55.2744 7.15528 48.1881 5.00678 40.9453 5.04772C32.708 5.04772 24.3115 7.87787 17.5567 12.554C10.8754 17.1606 5.47648 23.8337 2.8301 31.5442C0.289902 39.0096 0.702357 47.4102 5.15791 54.0751C5.72322 54.9212 6.344 55.7289 7.01611 56.4928C7.55111 57.1013 8.40872 56.2192 7.89823 55.6066C5.40155 52.6648 3.68782 49.1405 2.91584 45.3601C2.2336 41.6751 2.37305 37.8849 3.32424 34.26C5.23959 26.6312 10.0709 19.8846 16.1886 15.0247C22.4673 10.0718 30.052 7.05355 38.0171 6.33824C46.5084 5.65565 54.9656 8.01677 61.8754 12.9991C67.8631 17.4477 72.3408 23.6273 74.7029 30.7029C74.7036 30.7165 74.7036 30.7301 74.7029 30.7437C74.8663 31.2338 75.0215 31.7239 75.1644 32.218C75.4381 33.1573 75.6667 34.1089 75.8587 35.0768C75.9526 35.5301 76.6142 35.334 76.5407 34.8889C76.3092 33.5101 75.9955 32.1464 75.6014 30.805C75.6281 30.741 75.646 30.6737 75.6545 30.6049V30.5232C75.6545 30.466 75.6545 30.4048 75.6831 30.3476C75.7117 30.2904 75.7158 30.1475 75.7362 30.0454C75.777 29.8208 75.8138 29.5921 75.8546 29.3674C75.9411 28.9214 76.0543 28.4809 76.1936 28.0483C76.2174 27.9626 76.2198 27.8723 76.2006 27.7855C76.1814 27.6986 76.1411 27.6178 76.0833 27.5501C76.1147 27.5299 76.14 27.5017 76.1568 27.4684C77.725 24.6546 81.1882 23.4253 84.2756 24.0298C87.6449 24.6873 90.3199 27.2397 91.8227 30.2373C93.4251 33.613 94.0246 37.3778 93.5502 41.0842C93.1418 44.286 91.3857 47.6716 88.1023 48.6803C84.537 49.7748 81.1882 47.2468 79.4525 44.3227C78.9891 43.5397 78.5903 42.7202 78.26 41.8724C78.1824 41.0311 78.0885 40.1939 77.9783 39.3526C77.961 39.2374 77.9 39.1332 77.808 39.0617C77.716 38.9903 77.6 38.9569 77.4841 38.9687C77.1968 37.3324 77.3927 35.6479 78.0477 34.1211C79.0646 31.9158 81.5925 29.9923 84.047 29.8208C84.6521 29.7568 85.2634 29.8556 85.8177 30.1068C86.3719 30.3581 86.849 30.7528 87.1997 31.2501C87.5404 31.8344 87.7586 32.4819 87.8409 33.1532C88.1513 34.8276 88.2493 36.8778 87.5796 38.4623C87.4713 38.7529 87.3029 39.0173 87.0854 39.2383C86.9296 39.392 86.7238 39.4847 86.5055 39.4996C86.0178 39.5021 85.5468 39.3227 85.1843 38.9964C84.8218 38.6702 84.5939 38.2206 84.5452 37.7354C84.4855 37.0173 84.5603 36.2943 84.7657 35.6036C84.7951 35.4587 84.7684 35.308 84.6911 35.182C84.6137 35.056 84.4914 34.964 84.3489 34.9246C84.2064 34.8852 84.0543 34.9014 83.9232 34.9698C83.7921 35.0382 83.6918 35.1538 83.6426 35.2932C83.2343 36.7838 82.9769 38.8013 84.2756 39.9448C85.0475 40.6268 86.2809 41.027 87.2692 40.6186C89.1682 39.8304 89.3111 36.9799 89.2866 35.2483C89.2376 33.1532 88.9232 30.756 87.114 29.441C84.5411 27.5542 81.0453 29.1347 78.9461 31.0133C76.0384 33.6351 75.7525 37.6251 76.8266 41.2231C76.9654 41.6764 77.1165 42.1297 77.2921 42.5789C77.2921 42.9628 77.2921 43.3467 77.2921 43.7306C77.2697 43.794 77.2697 43.8632 77.2921 43.9266C77.3508 47.5895 76.8523 51.24 75.8138 54.7531C74.4251 58.9473 71.8366 62.6419 68.3688 65.3794C66.5243 66.9107 64.4168 68.0939 62.149 68.8712C65.0322 64.9874 64.6402 58.1182 59.2902 56.7297C58.0987 56.4224 56.8409 56.4959 55.6932 56.9397C54.5455 57.3836 53.5655 58.1755 52.8907 59.2045C52.6539 59.5435 53.2093 59.9805 53.4707 59.6497C54.0655 58.8853 54.8621 58.3024 55.7707 57.9669C56.6792 57.6313 57.6634 57.5564 58.6123 57.7507C59.5317 57.9498 60.3765 58.4035 61.0502 59.06C61.724 59.7164 62.1995 60.5491 62.4226 61.4629C62.7137 62.7247 62.691 64.0387 62.3564 65.2897C62.0217 66.5406 61.3854 67.6905 60.5032 68.6384C59.033 70.1331 57.0237 70.9703 55.0185 71.4645C52.5681 72.077 50.0239 72.0811 47.5082 72.3057C47.0998 72.3384 46.9609 72.9551 47.4061 73.0409C47.6593 73.0899 47.9084 73.1307 48.1616 73.1634C45.7032 73.9936 43.1894 74.65 40.639 75.1277C37.203 75.8418 33.712 76.2599 30.2046 76.3774H29.882C29.5512 76.3774 29.2204 76.3774 28.8855 76.3774C28.1944 76.3575 27.5047 76.303 26.819 76.214C25.0956 75.5402 23.3232 74.9889 21.6161 74.2783C19.8338 73.5489 18.1268 72.6475 16.5194 71.587C14.0037 69.9126 11.5166 67.5521 10.8468 64.485C10.5409 62.8556 10.7701 61.1709 11.5002 59.6824C11.733 59.1637 11.0224 58.7186 10.7243 59.225C9.887 60.6022 9.4759 62.1964 9.54276 63.8068C9.60962 65.4172 10.1515 66.9718 11.1 68.2749C13.289 71.4032 16.7562 73.4982 20.2031 74.9766C22.3961 75.9159 24.6954 76.7327 27.109 76.9328C27.6933 77.0656 28.2904 77.1341 28.8896 77.137C29.2021 77.1377 29.5144 77.1199 29.8248 77.0839C29.8618 77.1586 29.9208 77.2201 29.9938 77.2602C30.0668 77.3004 30.1503 77.3172 30.2332 77.3085C33.7984 77.229 37.3504 76.8478 40.8514 76.1691C43.8571 75.6178 47.0834 75.0297 49.7624 73.486C49.827 73.4466 49.8793 73.39 49.9136 73.3226C51.6522 73.357 53.3889 73.1871 55.0879 72.8162C57.4525 72.318 59.8661 71.3787 61.5609 69.5981L61.7651 69.3776C61.7926 69.4476 61.8446 69.5053 61.9115 69.5399C61.9784 69.5744 62.0555 69.5835 62.1286 69.5654C66.678 68.6261 70.5496 65.8368 73.3675 62.2144C76.4304 58.2693 77.9047 53.5279 78.354 48.5904C78.4477 47.5422 78.4886 46.49 78.4765 45.4377C80.3747 48.3684 81.1345 51.8927 80.6124 55.3452C80.3033 57.2774 79.5899 59.1227 78.5188 60.7603C77.4477 62.3979 76.043 63.791 74.3967 64.8485C72.572 66.0192 70.5182 66.7865 68.3729 67.0987C68.0053 67.1559 68.0911 67.7767 68.4627 67.7522C72.5466 67.4622 76.3529 65.1385 78.795 61.8958C80.0549 60.1857 80.9185 58.2168 81.3232 56.1316C81.728 54.0464 81.6637 51.8974 81.1351 49.8401C80.9312 49.0167 80.658 48.212 80.3183 47.4347C81.4242 48.6201 82.8208 49.4958 84.3696 49.9749C88.2289 51.1347 92.0106 48.9457 93.7626 45.4826C95.7025 41.6845 95.4492 36.9023 94.3507 32.8919ZM87.1548 23.7071C83.8101 22.2043 80.0569 22.6371 77.3289 25.1488C76.6981 25.7323 76.1768 26.4238 75.7893 27.1907C75.7678 27.2322 75.7592 27.2791 75.7648 27.3255C75.6356 27.3153 75.507 27.3505 75.4011 27.4251C75.2952 27.4996 75.2187 27.6089 75.1848 27.7339C75.0827 28.0361 74.997 28.3465 74.9235 28.6528L74.8663 28.5057C74.8994 28.4912 74.9283 28.4687 74.9504 28.4401C74.9725 28.4116 74.9871 28.378 74.9929 28.3424C75.6627 24.9037 79.2565 22.6004 82.5032 22.0164C85.8112 21.4242 89.2213 22.6412 91.1448 25.451C91.7611 26.3456 92.1903 27.3554 92.4067 28.42C91.1607 26.3642 89.333 24.7241 87.1548 23.7071Z" fill="#313144"/>
<path d="M46.1197 49.6278C46.052 49.5882 45.9714 49.5772 45.8956 49.5971C45.8197 49.617 45.7549 49.6662 45.7154 49.7339C45.6759 49.8016 45.6648 49.8823 45.6847 49.9581C45.7047 50.0339 45.7539 50.0987 45.8216 50.1382C48.0796 51.4371 50.4718 52.4874 52.9562 53.2706C55.3085 54.0343 57.8201 54.7163 60.3072 54.6428C60.3776 54.6428 60.4451 54.6148 60.4949 54.5651C60.5447 54.5153 60.5727 54.4478 60.5727 54.3774C60.5727 54.307 60.5447 54.2394 60.4949 54.1897C60.4451 54.1399 60.3776 54.1119 60.3072 54.1119C57.8574 53.9438 55.4399 53.4578 53.1155 52.6662C50.6803 51.9099 48.3346 50.8911 46.1197 49.6278Z" fill="#313144"/>
<path d="M57.7506 56.8522C57.6641 56.8525 57.5798 56.8253 57.5097 56.7746C57.4606 56.7378 57.4204 56.6905 57.3922 56.636C57.3639 56.5816 57.3482 56.5215 57.3463 56.4601C57.2865 55.4496 57.1596 54.4441 56.9665 53.4503C56.0858 53.6586 55.1843 53.7669 54.2793 53.7729C51.5676 53.7729 49.5216 52.6907 48.3617 50.6406C47.8512 49.7339 47.7655 48.9825 48.1044 48.4026C48.4434 47.8227 49.2275 47.4755 50.3302 47.4755C52.4043 47.5689 54.3962 48.3134 56.0232 49.6033C55.6721 48.4428 55.2631 47.3006 54.798 46.1809C54.7612 46.0911 54.7204 46.0053 54.6836 45.9155C53.4192 46.5703 52.0231 46.9305 50.5997 46.9691C49.8227 46.9851 49.0511 46.8361 48.3359 46.532C47.6206 46.2279 46.978 45.7756 46.4504 45.2049C45.5561 44.2574 45.5847 43.5468 45.7725 43.118C46.1238 42.3012 47.2877 41.8356 48.9702 41.8356C50.4316 41.8404 51.8723 42.1813 53.1808 42.8321C52.4728 41.5367 51.6858 40.286 50.8243 39.0872C49.6076 39.8061 48.2268 40.2012 46.8139 40.2347C45.4019 40.2412 44.0338 39.7446 42.9546 38.834C42.3788 38.3602 41.7294 37.6333 42.0235 36.8696C42.3175 36.1059 43.5304 35.5872 45.2906 35.5872C46.364 35.5848 47.4305 35.7586 48.4475 36.1018C47.4736 35.0082 46.4358 33.9731 45.3396 33.0021C44.4003 33.7862 42.1052 35.4076 39.2137 35.4076C37.8218 35.402 36.4562 35.0271 35.2564 34.3212C33.7168 33.4432 33.5698 32.606 33.7127 32.0587C33.8883 31.3931 34.5908 30.8336 35.7547 30.4252C36.9313 30.0461 38.1614 29.8599 39.3975 29.8738C40.1521 29.8729 40.9052 29.9398 41.6477 30.074C40.9412 29.5839 40.2102 29.1102 39.4669 28.6568H39.3199C37.278 28.6568 34.8644 27.5746 32.704 25.6838C30.7274 23.9522 29.4368 21.947 29.4368 20.5748C29.4261 20.3157 29.4763 20.0576 29.5834 19.8214C29.6905 19.5853 29.8515 19.3775 30.0535 19.2148C30.5692 18.8637 31.187 18.6942 31.8096 18.7329C32.1665 18.7355 32.5228 18.7641 32.8755 18.8187C34.0876 18.9902 35.2467 19.4277 36.2698 20.0998C37.2929 20.772 38.1546 21.6622 38.7931 22.7066C39.6549 24.0837 40.2596 25.6058 40.5778 27.1989C41.5334 27.7829 42.4605 28.3996 43.3508 29.0448C42.8756 27.8663 42.5571 26.6306 42.4033 25.3693C42.1664 23.5193 42.3053 21.898 42.779 21.0363C42.87 20.8211 43.0206 20.6364 43.2131 20.504C43.4055 20.3716 43.6318 20.2969 43.8653 20.2889C44.4657 20.2889 45.0905 20.7667 45.7807 21.755C46.7853 23.1534 47.3776 24.8056 47.4902 26.5237C47.6028 28.2419 47.2313 29.9572 46.4178 31.4747C47.7239 32.6162 48.9519 33.8441 50.0933 35.1503C50.0157 32.5937 51.0081 29.7799 52.1924 28.322C52.7438 27.644 53.2951 27.301 53.826 27.301C54.798 27.301 55.2758 28.3791 55.5004 29.2858C56.6317 33.7781 53.6055 36.7348 52.2047 37.8252C53.1798 39.1718 54.0652 40.5811 54.8552 42.0439C55.2101 39.8354 56.1779 37.7709 57.6485 36.0855C58.159 35.5342 58.935 34.8603 59.6905 34.8603C60.8871 34.8603 61.1607 36.2815 61.2179 37.1269C61.5446 41.8846 57.914 44.2329 56.3172 45.0374L56.4928 45.4458C56.9502 46.5403 57.3586 47.6593 57.718 48.7824C58.1874 47.4782 58.9027 46.2762 59.8253 45.2416C61.1321 43.7469 62.6227 42.8199 63.7091 42.8199C63.9194 42.8145 64.1287 42.8515 64.3244 42.9286C64.5202 43.0058 64.6984 43.1216 64.8485 43.2691C65.2569 43.6775 65.4693 44.3636 65.4611 45.2825C65.4611 47.594 64.4034 49.4971 62.3573 50.9469C61.2343 51.7121 59.9923 52.2862 58.6818 52.6458C58.9295 53.8578 59.0891 55.0862 59.1596 56.3213C59.1596 56.4296 59.1166 56.5335 59.04 56.6101C58.9634 56.6867 58.8595 56.7297 58.7512 56.7297H58.6654C58.5401 56.7076 58.413 56.6966 58.2857 56.697C58.1478 56.6961 58.0104 56.714 57.8773 56.7501C57.8408 56.7907 57.7981 56.8252 57.7506 56.8522Z" fill="#17FFDD"/>
<path d="M31.7974 19.1454C32.1351 19.1493 32.4722 19.1765 32.8061 19.2271C38.3317 20.0439 39.8386 25.5367 40.2021 27.4766C41.6996 28.3852 43.1398 29.3849 44.5147 30.4701C42.2359 26.9089 42.1664 20.7422 43.8531 20.7422C44.2615 20.7422 44.8047 21.1261 45.4336 22.0327C46.4209 23.4131 46.9906 25.0483 47.0746 26.7434C47.1586 28.4385 46.7534 30.1219 45.9073 31.5932C47.4671 32.9438 48.9173 34.4159 50.2444 35.9956C50.3833 36.159 50.5181 36.3224 50.6528 36.4898C49.8851 32.8429 52.1639 27.7543 53.8424 27.7543C54.3651 27.7543 54.8266 28.2444 55.1247 29.4287C56.2805 34.0354 52.8704 36.9227 51.6575 37.7844C53.0193 39.6225 54.21 41.5814 55.2146 43.6367C54.9491 39.9856 57.9957 35.3259 59.7069 35.3259C60.3032 35.3259 60.7401 35.8813 60.83 37.2167C61.1689 42.1542 56.9584 44.3799 55.7904 44.8986C55.9007 45.1518 56.0109 45.405 56.1171 45.6582C56.7673 47.2128 57.313 48.8091 57.7507 50.4364C58.1591 46.9855 61.6998 43.2814 63.7009 43.2814C64.5177 43.2814 65.0568 43.8817 65.0486 45.3233C65.0201 50.4405 59.5272 52.0781 58.2204 52.3967C58.5066 53.7131 58.6896 55.0499 58.7676 56.3948C58.6143 56.3644 58.4583 56.3494 58.302 56.3499C58.12 56.348 57.9386 56.3714 57.763 56.4193C57.6945 55.2441 57.5389 54.0756 57.2974 52.9235C56.3172 53.1884 55.3069 53.3256 54.2916 53.3319C52.3558 53.3319 50.0566 52.752 48.7293 50.4037C47.7206 48.619 48.7048 47.8431 50.3425 47.8431C52.3844 47.8431 55.3739 49.0274 56.8522 50.9673C56.4129 49.2679 55.8506 47.6027 55.1697 45.9849C55.0757 45.7603 54.9777 45.5357 54.8797 45.3151C53.5739 46.0619 52.107 46.4822 50.6038 46.5403C49.8824 46.5553 49.1659 46.4174 48.5015 46.1359C47.8371 45.8544 47.2397 45.4355 46.7486 44.9068C45.1151 43.1629 46.7159 42.2195 48.9744 42.2195C50.7958 42.2195 53.0583 42.8321 54.3243 44.1349C53.3651 42.1674 52.232 40.2895 50.9387 38.5236C49.7072 39.3181 48.2828 39.7627 46.818 39.81C45.4997 39.8154 44.2226 39.3506 43.216 38.4991C41.2843 36.9104 42.9465 35.9711 45.2866 35.9711C46.9513 35.9536 48.5854 36.4189 49.9912 37.3107C49.8116 37.082 49.6237 36.8533 49.4358 36.6287C48.1857 35.1341 46.8202 33.7399 45.3519 32.459C44.7965 32.9613 42.3584 34.9992 39.226 34.9992C37.9044 34.9923 36.6081 34.6358 35.4688 33.9659C32.0955 32.0383 35.4688 30.2904 39.3976 30.2904C40.9119 30.2641 42.4144 30.5621 43.8041 31.1644C42.4543 30.1099 41.0414 29.1388 39.5732 28.2566H39.32C33.5576 28.2566 26.3045 19.1413 31.8219 19.1413L31.7974 19.1454ZM31.8219 18.3245C30.9806 18.3245 29.8657 18.5206 29.3266 19.4558C28.9795 20.0561 28.7794 21.1302 29.784 22.8659C30.7986 24.4981 32.1387 25.9037 33.7209 26.9947C36.1508 28.7018 38.107 29.0612 39.32 29.0612H39.3567C39.5813 29.1959 39.8059 29.3389 40.0306 29.4695H39.3976C38.1172 29.4561 36.843 29.6491 35.624 30.0413C34.3376 30.4864 33.5453 31.144 33.333 31.9444C33.1533 32.6305 33.3044 33.6596 35.0686 34.6684C36.3308 35.4051 37.7646 35.7966 39.226 35.8037C42.0072 35.8037 44.2452 34.3907 45.3519 33.5249C46.0013 34.113 46.6302 34.7255 47.2346 35.3504C46.6018 35.231 45.9592 35.1708 45.3152 35.1707C43.3549 35.1707 42.048 35.7384 41.6764 36.7226C41.4804 37.2698 41.5049 38.1315 42.73 39.1362C43.8808 40.1086 45.34 40.6398 46.8466 40.635C48.2069 40.6068 49.5409 40.2555 50.7386 39.6099C51.2777 40.3777 51.7881 41.17 52.266 41.9786C51.2144 41.6165 50.111 41.4275 48.9988 41.4191C47.1488 41.4191 45.8461 41.9786 45.4295 42.9465C45.1926 43.4896 45.1355 44.3677 46.1851 45.4785C46.9819 46.3426 48.0209 46.9461 49.1663 47.2101C48.8832 47.2737 48.6157 47.3931 48.3794 47.5614C48.143 47.7297 47.9427 47.9435 47.79 48.1902C47.2714 49.0805 47.643 50.1178 48.0473 50.8325C49.2725 53.0174 51.4492 54.1691 54.3161 54.1691C55.1089 54.1655 55.8995 54.0848 56.6766 53.9281C56.8249 54.7671 56.9258 55.6139 56.9788 56.4642C56.9812 56.5876 57.0123 56.7087 57.0698 56.8179C57.1272 56.9271 57.2093 57.0213 57.3096 57.0932C57.4079 57.1677 57.5223 57.218 57.6437 57.24C57.765 57.262 57.8898 57.2551 58.008 57.2198C58.112 57.1933 58.2192 57.1809 58.3265 57.183C58.4264 57.1822 58.5262 57.1904 58.6247 57.2075C58.683 57.2133 58.7418 57.2133 58.8002 57.2075C58.9096 57.2076 59.0179 57.1856 59.1186 57.1431C59.2193 57.1005 59.3105 57.0381 59.3867 56.9597C59.4628 56.8812 59.5225 56.7883 59.562 56.6863C59.6016 56.5844 59.6203 56.4755 59.617 56.3662C59.5616 55.2281 59.4251 54.0953 59.2086 52.9766C60.4269 52.6026 61.581 52.0448 62.631 51.3226C64.7628 49.8156 65.8981 47.7451 65.8981 45.3274C65.8981 44.2983 65.6572 43.5223 65.163 43.0282C64.976 42.8424 64.7533 42.6963 64.5083 42.5988C64.2634 42.5012 64.0013 42.4542 63.7377 42.4605C62.5126 42.4605 60.9525 43.4161 59.5476 45.0211C58.8452 45.8191 58.2532 46.7078 57.7874 47.6634C57.5152 46.8793 57.2184 46.1033 56.8972 45.3356L56.8726 45.2702C57.8507 44.7431 58.7386 44.0635 59.5027 43.2568C60.1997 42.5185 60.7536 41.6572 61.1363 40.7167C61.5853 39.5834 61.7696 38.3626 61.6753 37.1473C61.661 36.5067 61.4885 35.8795 61.173 35.3218C61.0255 35.0729 60.8158 34.8668 60.5645 34.7235C60.3131 34.5803 60.0288 34.505 59.7396 34.505C59.0004 34.505 58.2081 34.9542 57.3831 35.8405C56.1074 37.2996 55.1901 39.0364 54.7041 40.9127C54.1119 39.8917 53.4789 38.8952 52.7928 37.9314C53.6548 37.2186 54.3966 36.372 54.99 35.4239C55.565 34.5094 55.9453 33.4862 56.1069 32.4181C56.2685 31.35 56.2081 30.26 55.9293 29.2163C55.4515 27.3255 54.5407 26.9293 53.8587 26.9293C53.1767 26.9293 52.5274 27.3377 51.8985 28.1014C50.8285 29.4205 49.9055 31.8015 49.734 34.1497C48.8559 33.19 47.9207 32.2711 46.9406 31.3931C47.4318 30.3633 47.7492 29.2594 47.8798 28.1259C48.1372 25.7955 47.5138 23.4531 46.132 21.559C45.3642 20.4563 44.6291 19.9254 43.8858 19.9254C43.5802 19.9338 43.283 20.0279 43.0281 20.1968C42.7733 20.3657 42.571 20.6028 42.4442 20.8811C41.6927 22.2533 41.7213 25.2631 42.5626 28.0075C42.0399 27.6508 41.5062 27.3037 40.9617 26.9661C40.6298 25.3732 40.0172 23.8521 39.1525 22.4738C38.5178 21.4775 37.7019 20.6089 36.7471 19.9132C35.6212 19.1175 34.3221 18.6009 32.9572 18.4062C32.5843 18.3482 32.2075 18.3182 31.8301 18.3164L31.8219 18.3245ZM51.9883 47.2428C52.8571 47.0866 53.7025 46.8203 54.504 46.4505C54.7953 47.1502 55.0676 47.8567 55.3208 48.57C54.2932 47.9508 53.1718 47.5026 52.0006 47.2428H51.9883Z" fill="#313144"/>
<path d="M2.3074 39.6834H2.20939C2.12426 39.6615 2.04846 39.6127 1.99328 39.5443C1.9381 39.4759 1.90648 39.3915 1.9031 39.3036C1.85509 38.6136 1.93823 37.9207 2.14812 37.2617C2.16016 37.2363 2.17382 37.2118 2.18898 37.1881C2.86282 36.1672 3.63876 35.0196 4.35345 34.113C4.32078 34.0435 4.28811 33.9741 4.25135 33.9047C3.74086 32.9 3.16502 31.7647 5.15797 27.7257C5.41117 27.2397 5.7093 26.9988 6.05644 26.9988C6.19098 27.0039 6.32179 27.0444 6.43576 27.1161C6.54973 27.1877 6.64287 27.2881 6.70579 27.4072C7.16727 28.1218 7.20401 29.784 6.56284 31.8995C7.10736 31.3549 7.65188 30.8445 8.1964 30.368L8.22091 30.172C8.34258 28.7682 8.67723 27.3911 9.21332 26.0881C9.54907 25.2807 10.0781 24.5683 10.754 24.0135C11.4298 23.4588 12.2317 23.0787 13.089 22.9067C13.384 22.8404 13.6851 22.8048 13.9874 22.8005C14.2413 22.7737 14.4979 22.8033 14.739 22.8873C14.9801 22.9713 15.1996 23.1075 15.3818 23.2862C15.5641 23.465 15.7046 23.6818 15.7932 23.9212C15.8818 24.1606 15.9165 24.4166 15.8946 24.6709C15.8946 25.9206 15.0778 27.6808 13.8118 29.1632C12.3906 30.8213 10.7325 31.7688 9.26232 31.7688H9.19697C8.78858 32.1118 8.40877 32.4671 8.02489 32.8306C9.19098 32.3354 10.4351 32.0492 11.7004 31.9852C12.4845 31.9852 12.9583 32.2017 13.1094 32.6305C13.2931 33.1451 12.9297 33.7495 11.9659 34.5295C10.4752 35.7343 9.04586 36.3469 7.7145 36.3469C6.9044 36.3611 6.11363 36.0989 5.47244 35.6036C4.45157 36.8336 3.51295 38.1297 2.6627 39.4833C2.62621 39.5449 2.57418 39.5958 2.51182 39.6309C2.44947 39.666 2.37897 39.6841 2.3074 39.6834Z" fill="#17FFDD"/>
<path d="M14.0038 23.2089C17.9243 23.2089 13.3953 31.3767 9.27869 31.3767H9.07041C7.98355 32.3048 6.95899 33.3034 6.00338 34.3662C7.82481 33.141 10.3078 32.41 11.6964 32.41C12.897 32.41 13.2768 32.9613 11.6964 34.2355C10.1159 35.5097 8.73554 35.963 7.70231 35.963C7.27728 35.9812 6.85342 35.9062 6.46045 35.7432C6.06749 35.5802 5.71495 35.3333 5.42756 35.0196C4.28996 36.3744 3.24482 37.8043 2.29927 39.2995C2.25648 38.6705 2.33129 38.0389 2.51981 37.4373C3.19774 36.4081 4.05537 35.138 4.81906 34.2028C4.36575 33.0797 3.30393 32.41 5.51333 27.934C5.69302 27.5909 5.8768 27.4317 6.04832 27.4317C6.72625 27.4317 7.1142 29.9964 5.4643 33.6474C6.43775 32.5581 7.48139 31.5335 8.58851 30.5804C8.84988 28.5874 9.17659 24.1727 13.1829 23.3273C13.451 23.267 13.7249 23.2355 13.9997 23.2334L14.0038 23.2089ZM13.9997 22.4166C13.6701 22.4199 13.3416 22.4568 13.0195 22.5269C8.67018 23.4499 8.11887 27.9585 7.83299 30.123V30.1679L7.28983 30.6498C7.59204 29.0162 7.44092 27.7911 7.04886 27.1989C6.94571 27.0264 6.80066 26.8829 6.62716 26.7815C6.45367 26.6801 6.25735 26.6242 6.05648 26.619C5.70526 26.619 5.20702 26.7823 4.80271 27.5583C3.892 29.4083 3.43868 30.7805 3.37334 31.8791C3.32532 32.6456 3.50278 33.4094 3.88383 34.0762C3.2059 34.9583 2.48713 36.0242 1.84187 36.9758C1.80958 37.024 1.78351 37.0762 1.76427 37.131C1.53307 37.8348 1.44016 38.5767 1.49066 39.3159C1.5009 39.4893 1.56618 39.6549 1.67701 39.7887C1.78783 39.9225 1.93842 40.0175 2.10691 40.0598C2.2754 40.1022 2.45302 40.0897 2.61394 40.0242C2.77485 39.9587 2.91068 39.8436 3.00171 39.6957C3.76673 38.4625 4.61404 37.2823 5.53783 36.1631C6.18873 36.5614 6.93931 36.7667 7.70231 36.7553C9.12759 36.7553 10.6427 36.1141 12.1946 34.8481C12.897 34.2804 13.7955 33.4187 13.4688 32.4998C13.2033 31.7402 12.3457 31.585 11.6759 31.585H11.4881C12.4938 31.0434 13.3855 30.3126 14.1141 29.4328C15.4618 27.8605 16.2949 26.0431 16.2989 24.6791C16.303 23.3151 15.4087 22.4044 13.9834 22.4044L13.9997 22.4166Z" fill="#313144"/>
<path d="M123.91 27.203C122.938 28.7671 121.913 29.6125 120.908 29.6901C120.386 29.7268 119.352 28.8733 118.605 28.5711C118.151 28.4307 117.751 28.1546 117.459 27.78C117.167 27.4054 116.997 26.9503 116.972 26.476C116.891 24.4996 117.11 22.5224 117.621 20.6115C117.731 19.9173 118.156 18.5941 118.148 18.5124L118.066 18.4797C117.719 18.7043 117.204 19.3496 116.51 20.3297C115.835 21.3322 115.225 22.3771 114.685 23.458C114.144 24.5988 113.694 25.7799 113.337 26.9906C113.052 27.8671 112.823 28.7605 112.651 29.6656C112.651 30.1924 112.214 30.3067 110.752 29.6656C109.527 29.151 108.934 28.5915 108.885 27.9462C108.797 25.7826 108.959 23.6161 109.367 21.4896C109.51 20.7136 109.776 19.2393 110.131 17.1157L110.004 17.0422C108.623 18.921 107.474 20.9601 106.582 23.115C106.451 23.4866 105.831 24.9078 105.696 25.2794C105.594 25.4918 105.492 25.7818 105.324 26.2392C104.922 27.3356 104.669 28.4813 104.573 29.6452C104.618 30.2496 104.503 30.8703 104.14 30.8703C103.584 30.8327 103.041 30.6943 102.535 30.4619C101.956 30.2767 101.415 29.9889 100.938 29.6125C100.722 29.4287 100.611 29.0326 100.566 28.4281C100.566 28.3097 100.566 27.4194 100.644 25.7164C100.757 23.5262 100.997 21.3445 101.363 19.1822C101.771 16.6093 102.18 14.5183 102.621 12.8725C103.449 12.8281 104.278 12.929 105.071 13.1706C105.978 13.4238 106.443 13.7138 106.468 14.0364C106.468 14.1549 106.116 15.7558 105.341 18.884C104.958 20.518 104.664 22.1718 104.462 23.8378L104.585 23.8664C105.565 21.3303 106.819 18.6512 108.261 15.7558C109.559 13.1951 110.793 11.8924 111.997 11.8025C112.697 11.7731 113.391 11.9295 114.011 12.2558C114.503 12.4485 114.929 12.7806 115.236 13.2115C115.142 13.5423 114.717 14.8655 114.121 17.1729C113.08 21.0036 112.487 23.3518 112.398 24.2871L112.52 24.3197C113.672 21.7618 114.987 19.2805 116.457 16.8911C117.719 14.8491 118.728 13.8159 119.45 13.7587C120.249 13.7184 121.045 13.858 121.782 14.1671C122.534 14.5142 122.963 14.845 123.11 15.1554C123.016 15.5271 122.321 17.5568 121.578 20.0561C120.851 22.7352 120.516 24.6995 120.614 26.0227C120.655 26.5455 120.794 26.8191 121.076 26.7946C122.24 26.7088 124.147 24.1441 125.446 20.4523C125.707 19.6641 125.96 19.2271 126.201 19.2271C126.642 19.1944 126.863 19.4599 126.904 19.9826C126.816 20.6834 126.638 21.3699 126.373 22.0246C125.734 23.8315 124.909 25.567 123.91 27.203Z" fill="#00DACC"/>
<path d="M132.96 26.9212C132.143 28.1464 131.326 28.8202 130.404 28.8937C129.317 28.9754 127.545 27.9748 126.356 26.6108C125.813 25.8222 125.517 24.8894 125.507 23.9317C125.453 22.4293 125.542 20.9251 125.772 19.4394C126.034 17.5241 126.307 15.8088 126.642 14.3672C126.836 13.3107 127.095 12.2673 127.418 11.243C128.279 11.2061 129.141 11.29 129.979 11.4921C130.926 11.7453 131.437 12.068 131.461 12.4314C131.608 12.7418 130.734 14.5469 129.983 18.5165C129.432 21.3752 129.231 23.5397 129.342 24.9854C129.407 28.0116 131.433 25.9615 132.952 23.0578C133.58 21.7609 134.126 20.4255 134.585 19.0596C134.683 18.7288 134.871 18.5532 135.071 18.5369C135.353 18.5369 135.749 18.9453 135.782 19.3537C135.785 19.6878 135.728 20.0197 135.615 20.3338C134.598 23.4866 133.711 25.696 132.96 26.9212ZM132.96 6.33007C132.294 7.14685 131.559 7.60834 130.759 7.6696C129.672 7.75127 128.937 7.07743 128.843 5.83592C128.801 4.92482 129.059 4.02497 129.579 3.2753C129.787 2.89521 130.086 2.5719 130.448 2.33347C130.811 2.09503 131.226 1.9487 131.657 1.90719C131.934 1.8794 132.214 1.90955 132.478 1.99574C132.743 2.08193 132.987 2.22225 133.194 2.40779C133.402 2.59333 133.568 2.82002 133.683 3.07343C133.798 3.32685 133.859 3.60143 133.863 3.87972C133.889 4.78525 133.559 5.66491 132.944 6.33007H132.96Z" fill="#00DACC"/>
<path d="M146.449 28.0443C145.767 28.0973 144.73 27.2275 144.105 26.9702C143.023 26.5291 142.386 26.0921 142.19 25.6225C142.068 25.2484 141.998 24.8596 141.981 24.4667C141.904 23.1529 141.967 21.8344 142.169 20.5339C142.443 18.5844 142.879 16.661 143.472 14.7838L143.345 14.7144C142.262 16.2538 141.264 17.8517 140.356 19.5007C138.902 22.1961 138.081 24.6791 137.848 26.9579C137.893 27.5624 137.669 28.3424 137.309 28.371C136.95 28.3996 136.493 28.2321 135.77 27.7992C135.192 27.5327 134.69 27.1272 134.308 26.619C134.15 26.3859 134.073 26.1077 134.087 25.8267C134.062 25.111 134.089 24.3943 134.169 23.6826C134.443 19.4938 135.089 15.3376 136.101 11.2634C138.028 11.1164 139.613 11.8066 139.813 12.313C139.956 12.6275 139.686 13.2931 138.996 15.9273C138.554 17.5985 138.223 19.297 138.004 21.0118L138.126 21.0403C139.201 18.3354 140.455 15.705 141.879 13.1665C143.023 11.1818 144.113 10.1322 145.118 10.0546C145.767 9.99763 146.418 10.1198 147.003 10.4079C147.587 10.6959 148.08 11.1388 148.43 11.6882C148.332 11.9781 147.964 12.9746 147.323 14.6368C146.708 16.3707 146.275 18.1635 146.029 19.9867C145.75 21.392 145.613 22.8217 145.62 24.2544C145.673 24.9772 145.694 25.259 146.216 25.2182C146.739 25.1773 147.417 24.5239 148.332 23.2824C149.325 21.8583 150.093 20.2893 150.607 18.6308C151.015 17.4302 151.015 17.3076 151.354 17.2831C151.693 17.2586 152.065 17.6303 152.105 18.153C152.091 18.4903 152.021 18.8229 151.897 19.1372C151.348 20.9574 150.643 22.7268 149.79 24.4259C148.822 26.4515 147.372 27.9748 146.449 28.0443Z" fill="#00DACC"/>
<path d="M158.174 25.0222C157.357 26.2473 156.541 26.9212 155.618 26.9906C154.531 27.0723 152.759 26.0758 151.566 24.7118C151.076 24.1033 150.807 23.1966 150.721 22.0327C150.665 20.5302 150.754 19.0258 150.987 17.5404C151.244 15.6251 151.521 13.9057 151.856 12.4682C152.049 11.4118 152.307 10.3684 152.628 9.344C153.491 9.30692 154.354 9.39078 155.193 9.59312C156.14 9.84632 156.647 10.169 156.675 10.5324C156.822 10.8428 155.948 12.6438 155.197 16.6175C154.646 19.4762 154.446 21.6407 154.552 23.0864C154.621 26.1085 156.647 24.0583 158.162 21.1588C158.79 19.8618 159.336 18.5264 159.795 17.1606C159.893 16.8298 160.081 16.6542 160.281 16.6379C160.563 16.6379 160.955 17.0463 160.992 17.4751C160.993 17.8094 160.935 18.1412 160.821 18.4552C159.812 21.5876 158.93 23.7929 158.174 25.0222ZM158.154 4.43105C157.488 5.24783 156.757 5.70931 155.953 5.76649C154.87 5.84817 154.135 5.17841 154.041 3.93281C153.999 3.02305 154.257 2.12469 154.776 1.37628C154.984 0.995818 155.281 0.672099 155.643 0.433554C156.005 0.195009 156.42 0.0489364 156.851 0.00816708C157.128 -0.0202295 157.408 0.00947508 157.673 0.0953856C157.939 0.181296 158.183 0.321526 158.391 0.507128C158.599 0.69273 158.766 0.919628 158.881 1.17335C158.996 1.42706 159.057 1.70203 159.06 1.9807C159.089 2.88446 158.764 3.76373 158.154 4.43105Z" fill="#00DACC"/>
<path d="M162.499 28.9345C162.85 28.91 162.936 28.955 163.01 29.0652C163.083 29.1755 163.153 29.4736 163.075 29.882C163.037 30.1395 162.95 30.3871 162.817 30.6106C162.683 30.8341 162.508 31.0292 162.299 31.1848L101.008 35.8813C100.53 35.914 100.436 35.4198 100.599 34.6561C100.714 34.0879 100.906 33.5382 101.171 33.0225C107.705 33.0225 149.888 29.8534 159.424 29.1878C160.453 29.1566 161.479 29.0721 162.499 28.9345Z" fill="#00DACC"/>
<path d="M100.722 40.2878H109.931L120.141 56.7011L130.351 40.2878H139.556V79.1096H131.073V53.7648L120.145 70.3455H119.924L109.11 53.9281V79.1096H100.734L100.722 40.2878Z" fill="#00DACC"/>
<path d="M149.3 40.2878H178.586V47.8839H157.807V55.7577H176.107V63.3579H157.807V71.5257H178.88V79.1259H149.32L149.3 40.2878Z" fill="#00DACC"/>
<path d="M195.861 48.1616H184.046V40.2878H216.207V48.1616H204.392V79.1096H195.852L195.861 48.1616Z" fill="#00DACC"/>
<path d="M223.423 40.2878H231.962V79.1096H223.423V40.2878Z" fill="#00DACC"/>
<path d="M239.277 73.4492L244.32 67.4051C247.869 70.2883 251.475 72.122 255.914 72.122C259.463 72.122 261.514 70.7334 261.514 68.4465V68.3484C261.514 66.184 260.182 65.02 253.693 63.411C245.819 61.4711 240.829 59.1964 240.829 51.5431V51.4329C240.829 44.3922 246.428 39.7324 254.416 39.7324C259.65 39.6449 264.751 41.3884 268.836 44.6617L264.397 51.1021C260.905 48.717 257.634 47.2754 254.305 47.2754C250.977 47.2754 249.311 48.717 249.311 50.6569V50.7876C249.311 53.3931 250.977 54.116 257.687 55.8925C265.561 57.9998 270 60.7932 270 67.5357V67.6501C270 75.3564 264.119 79.6813 255.747 79.6813C249.671 79.736 243.795 77.5126 239.277 73.4492Z" fill="#00DACC"/>
</g>
<defs>
<clipPath id="clip0_119_310">
<rect width="270" height="79.6609" fill="white"/>
</clipPath>
</defs>
</svg>
