<svg width="316" height="107" viewBox="0 0 316 107" fill="none" xmlns="http://www.w3.org/2000/svg">
<g clip-path="url(#clip0_792_532)">
<path d="M53.3 106.6C82.7368 106.6 106.6 82.7368 106.6 53.3C106.6 23.8632 82.7368 0 53.3 0C23.8632 0 0 23.8632 0 53.3C0 82.7368 23.8632 106.6 53.3 106.6Z" fill="white"/>
<path d="M70.81 65.4099C65.51 58.7699 50.6501 58.98 43.8901 53.82C40.0701 50.9 33.7801 42.4799 31.3301 38.2399C29.9101 35.7899 29.45 30.4899 29.05 31.1499C28.29 32.3599 25.2 34.5599 26.05 35.3899C22.29 41.2299 18.9601 46.6799 15.2001 52.5199C13.3601 55.3699 11.5301 55.73 11.7701 59.21C12.2333 63.7895 12.9679 68.3375 13.97 72.83C14.43 74.78 13.45 74.7 13.25 76.71C13.016 78.0296 12.9388 79.3722 13.0201 80.71C13.3901 83.59 15.53 85.4499 17.79 87.0199C20.4906 88.9902 23.3543 90.7265 26.35 92.21C27.92 92.96 29.52 93.96 31.23 94.21C40.23 95.34 50.23 93.21 58.61 90.32C61.26 89.42 64.8701 89.5 67.7701 88.32C72.2401 86.54 75.68 83.0999 76.47 78.4999C77.81 70.7499 75.29 71.0099 70.81 65.4099Z" fill="#FFD9BD"/>
<path d="M34.99 69.3999C34.7547 69.2585 34.4916 69.1701 34.2187 69.1407C33.9459 69.1114 33.6699 69.1418 33.41 69.2298C33.2047 69.241 33.0044 69.2969 32.823 69.3937C32.6416 69.4904 32.4836 69.6257 32.36 69.7899C32.2385 69.8684 32.1342 69.9708 32.0535 70.0908C31.9727 70.2108 31.917 70.3458 31.8899 70.4879C31.8628 70.63 31.8648 70.7761 31.8957 70.9173C31.9267 71.0586 31.986 71.1922 32.07 71.3099C32.1498 71.6045 32.3049 71.8734 32.52 72.0899C32.9113 72.4498 33.4234 72.6494 33.955 72.6494C34.4866 72.6494 34.9987 72.4498 35.39 72.0899C35.5698 71.8995 35.7039 71.6708 35.7825 71.421C35.861 71.1712 35.8818 70.9068 35.8433 70.6478C35.8048 70.3888 35.708 70.1418 35.5602 69.9256C35.4124 69.7095 35.2174 69.5297 34.99 69.3999Z" fill="#FFA294"/>
<path d="M101.81 32.83C100.229 32.1207 98.4908 31.8344 96.7658 31.9992C95.0408 32.164 93.3882 32.7742 91.97 33.77C90.3192 35.0594 89.1699 36.8842 88.72 38.93C87.29 36.3 85.6401 33.77 84.0501 31.29C81.7703 27.8137 79.0847 24.6212 76.0501 21.78C68.9501 14.58 58.2101 11.04 48.4401 11.31C28.8201 11.85 9.58004 24.31 5.22004 44.18C4.01287 49.6424 4.05731 55.3071 5.35004 60.75C6.42004 65.11 8.30009 69.9799 12.7101 71.8699C12.8923 71.9414 13.0898 71.9648 13.2836 71.9378C13.4775 71.9108 13.6611 71.8343 13.8168 71.7158C13.9725 71.5972 14.0951 71.4406 14.1727 71.2609C14.2504 71.0813 14.2805 70.8847 14.2601 70.69C13.8101 67.34 13.3201 64 12.8901 60.69C12.5487 58.8523 12.8376 56.9531 13.7101 55.3C14.7101 53.45 15.83 51.64 16.92 49.83C20.08 44.55 23.24 39.2299 26.47 33.9899C26.0556 36.5545 25.9082 39.155 26.03 41.75C26.09 45.95 26.3001 50.14 26.5901 54.33C26.5901 54.8 27.3001 54.6899 27.3001 54.2399C27.3001 50.5599 27.0801 46.8799 27.0101 43.2399C27.013 40.3888 27.1866 37.5404 27.53 34.71C29.66 40.71 32.74 46.36 37.53 50.71C42.19 54.92 48.0701 58.03 53.8101 60.97C53.6669 61.0803 53.551 61.2219 53.4712 61.384C53.3914 61.5461 53.3499 61.7243 53.3499 61.905C53.3499 62.0857 53.3914 62.2639 53.4712 62.426C53.551 62.5881 53.6669 62.7298 53.8101 62.84C55.7301 64.02 57.61 65.25 59.53 66.43C59.5169 66.5956 59.5591 66.7609 59.6501 66.9C60.525 68.2061 61.2243 69.6215 61.73 71.1099L61.1901 70.67C61.0701 70.5833 60.9226 70.5431 60.7752 70.5571C60.6278 70.571 60.4905 70.6381 60.3889 70.7458C60.2873 70.8535 60.2284 70.9944 60.2231 71.1424C60.2178 71.2904 60.2664 71.4353 60.3601 71.55C65.1701 76.49 71.2101 82.36 71.0501 89.82C71.0526 89.9226 71.0927 90.0207 71.1626 90.0958C71.2325 90.1709 71.3275 90.2177 71.4296 90.2275C71.5318 90.2373 71.6339 90.2095 71.7169 90.1491C71.7999 90.0888 71.858 90.0002 71.8801 89.9C72.6101 86.18 70.79 83.04 69.28 79.75C68.1409 77.3162 66.494 75.1545 64.4501 73.41C65.3801 72.09 66.9701 71.9299 68.4501 71.8599C69.7964 71.9551 71.0844 72.4465 72.1521 73.2722C73.2198 74.0978 74.0193 75.2209 74.4501 76.5C75.5101 79.33 74.6901 82.1399 73.2001 84.6199C72.9001 85.1199 73.3001 85.8899 73.9401 85.6199C76.1198 84.7389 78.1848 83.5974 80.0901 82.22C80.2558 82.3768 80.4701 82.4721 80.6975 82.4903C80.9248 82.5085 81.1516 82.4484 81.3401 82.32C83.9314 80.6602 86.1402 78.4683 87.8201 75.89C89.3411 72.9303 90.4064 69.7578 90.98 66.4799C91.5829 63.695 91.9177 60.8587 91.98 58.01C91.98 57.72 91.98 57.43 92.04 57.14C92.6784 58.1361 93.4047 59.0733 94.2101 59.94C96.8801 62.77 100.93 64.63 104.72 62.94C108.14 61.43 110.02 57.77 110.84 54.31C112.81 46.57 109.58 36.1 101.81 32.83Z" fill="#BF6440"/>
<path d="M25.62 32.81C20.62 38.87 15.98 45.18 11.47 51.64C9.85 53.96 6.92 56.64 7.41 59.64C8.18232 63.1729 9.62141 66.5262 11.6501 69.52C11.7625 69.7033 11.9369 69.8404 12.1416 69.9062C12.3464 69.9721 12.568 69.9624 12.7662 69.879C12.9645 69.7956 13.1263 69.6439 13.2224 69.4515C13.3185 69.2591 13.3424 69.0386 13.29 68.8301C12.91 67.2901 12.39 65.83 11.91 64.3C12.1774 64.2714 12.4256 64.1476 12.6092 63.9512C12.7928 63.7547 12.8995 63.4986 12.91 63.23C12.8549 62.2793 12.7143 61.3355 12.49 60.41C12.3286 59.3948 12.2517 58.368 12.26 57.3401C12.263 57.1615 12.2181 56.9854 12.13 56.8301C12.46 56.4101 12.79 56.01 13.06 55.62L16.17 51.2101C20.11 45.6101 23.84 39.94 27.3 34.03C27.81 33.09 26.4 31.91 25.62 32.81Z" fill="#A5513A"/>
<path d="M72.8101 63.0998C68.8901 61.0998 64.6801 59.7399 60.7201 57.8099C56.8521 55.9212 53.1694 53.6747 49.7201 51.0998C42.5494 45.716 36.3244 39.1768 31.3001 31.7499C31.1157 31.4329 30.8131 31.2023 30.4586 31.1085C30.1042 31.0147 29.727 31.0655 29.4101 31.2499C29.0931 31.4342 28.8624 31.7368 28.7686 32.0913C28.6749 32.4457 28.7257 32.8229 28.9101 33.1399C32.8982 41.7833 38.9656 49.304 46.5701 55.0299C53.5701 60.3699 62.9901 65.8698 72.0401 66.1098C72.3855 66.0901 72.7157 65.9609 72.9829 65.7409C73.25 65.521 73.4403 65.2218 73.526 64.8866C73.6118 64.5513 73.5886 64.1974 73.4599 63.8762C73.3312 63.555 73.1036 63.2831 72.8101 63.0998Z" fill="#A5513A"/>
<path d="M68.4501 66.5699C67.3501 66.3599 66.2301 66.4298 65.1301 66.2398C63.9948 66.0319 62.8963 65.6579 61.8701 65.1298C61.7158 65.0399 61.5453 64.9813 61.3683 64.9572C61.1913 64.9332 61.0113 64.9442 60.8386 64.9897C60.6659 65.0352 60.5038 65.1142 60.3616 65.2224C60.2195 65.3305 60.1 65.4655 60.0101 65.6198C59.9201 65.7741 59.8614 65.9447 59.8373 66.1217C59.8133 66.2986 59.8243 66.4786 59.8698 66.6513C59.9153 66.824 59.9944 66.9861 60.1025 67.1282C60.2107 67.2704 60.3458 67.3898 60.5001 67.4798C61.7287 68.3208 63.0772 68.9715 64.5001 69.4099C64.472 69.5667 64.479 69.7278 64.5206 69.8817C64.5621 70.0355 64.6373 70.1782 64.7405 70.2996C64.8437 70.421 64.9725 70.5181 65.1177 70.5838C65.2628 70.6495 65.4208 70.6824 65.5801 70.6799C65.8344 70.6973 66.0856 70.6168 66.2827 70.4551C66.4797 70.2934 66.6075 70.0627 66.6401 69.8099C67.2565 69.8471 67.875 69.8034 68.48 69.6799C69.96 69.3499 70.0201 66.9099 68.4501 66.5699Z" fill="#A25234"/>
<path d="M97.2701 45.2399C96.9291 45.8153 96.7278 46.4627 96.6823 47.13C96.6368 47.7973 96.7483 48.4661 97.0079 49.0825C97.2675 49.699 97.668 50.246 98.1772 50.6797C98.6864 51.1134 99.2901 51.4218 99.94 51.58C102.84 52.28 105.64 50.0399 106.51 47.3899C108.76 40.5699 100.86 34.9299 95.0201 38.8799C92.4815 40.6446 90.6694 43.2704 89.92 46.2699C86.92 45.7599 83.92 46.04 80.92 45.96C77.3806 45.8674 73.8536 45.5029 70.37 44.8699C63.8391 43.5031 57.3837 41.7974 51.03 39.7599C49.56 39.3299 48.91 41.2999 50.03 42.0999C55.8781 46.0667 62.5418 48.6708 69.53 49.72C72.9685 50.3113 76.4432 50.6687 79.93 50.7899C82.3217 50.9357 84.7217 50.862 87.1 50.57C86.72 50.75 86.3501 50.9499 85.9601 51.1399C84.7537 51.7432 83.4621 52.158 82.13 52.3699C80.59 52.6299 81.06 54.9199 82.48 54.9899C83.4151 55.0313 84.3519 54.9912 85.28 54.8699C85.3006 55.0689 85.3687 55.2601 85.4786 55.4273C85.5884 55.5945 85.7367 55.7328 85.9111 55.8308C86.0855 55.9288 86.2809 55.9834 86.4808 55.9902C86.6807 55.9971 86.8794 55.9558 87.06 55.8699C87.7003 55.5425 88.3095 55.1577 88.88 54.72C89.3368 54.3618 89.7408 53.941 90.0801 53.47C90.352 54.3594 90.7244 55.2148 91.19 56.0199C91.9278 57.295 92.9449 58.3863 94.165 59.2119C95.385 60.0375 96.7763 60.5759 98.2343 60.7866C99.6923 60.9974 101.179 60.875 102.583 60.4287C103.987 59.9824 105.271 59.2239 106.34 58.21C106.395 58.1536 106.431 58.0806 106.44 58.0022C106.45 57.9238 106.434 57.8445 106.394 57.7763C106.354 57.708 106.293 57.6548 106.22 57.6248C106.147 57.5947 106.066 57.5894 105.99 57.6099C100.99 59.1799 95.27 55.5199 94.99 50.1699C94.941 49.0295 95.1586 47.8934 95.6256 46.8518C96.0926 45.8103 96.796 44.892 97.68 44.1699C98.0125 43.8117 98.4412 43.557 98.9148 43.4364C99.3884 43.3158 99.8867 43.3344 100.35 43.4899C100.684 43.7535 100.961 44.0831 101.162 44.4581C101.363 44.8332 101.485 45.2457 101.52 45.6699C101.362 45.2559 101.092 44.894 100.74 44.6245C100.388 44.3551 99.9686 44.1887 99.5277 44.1441C99.0868 44.0994 98.6421 44.1783 98.2434 44.3718C97.8448 44.5653 97.5078 44.8659 97.2701 45.2399Z" fill="#A5513A"/>
<path d="M24.63 60.31C19.72 58.54 16.44 62.8999 16.37 66.8599C16.37 69.5499 16.98 72.3399 19.25 74.0399C19.9085 74.5057 20.6525 74.8367 21.4393 75.0139C22.2262 75.1912 23.0402 75.2111 23.8348 75.0726C24.6293 74.9342 25.3887 74.64 26.0692 74.207C26.7497 73.7741 27.3379 73.211 27.8 72.5499C30.51 68.5899 29.34 62.01 24.63 60.31Z" fill="white"/>
<path d="M48.5701 62.2801C43.6601 60.6301 40.5701 65.0001 40.4501 68.7101C40.4074 70.0341 40.683 71.3489 41.2538 72.5444C41.8245 73.7398 42.6737 74.7809 43.7301 75.5801C45.0701 76.4622 46.6925 76.8088 48.276 76.5513C49.8594 76.2939 51.2885 75.4512 52.2801 74.1901C54.9901 70.4901 53.2801 63.9101 48.5701 62.2801Z" fill="white"/>
<path d="M37.3401 80.78C37.3897 79.2329 37.2145 77.6869 36.8201 76.1901C35.9001 73.8201 31.1101 74.42 29.0801 75.26C28.9216 75.2693 28.7705 75.3299 28.6496 75.4327C28.5287 75.5356 28.4446 75.6752 28.4101 75.8301C28.3597 75.9724 28.3597 76.1277 28.4101 76.27C28.3674 78.0427 28.5048 79.8151 28.8201 81.5601C29.1501 82.9101 29.5401 84.56 30.7201 85.38C30.8392 85.5544 30.9731 85.7183 31.1201 85.87C32.8801 87.63 35.4401 86.8 36.6001 84.79C37.228 83.5526 37.485 82.1601 37.3401 80.78Z" fill="#FF7D7D"/>
<path d="M36.1 75.18C36.0526 75.0419 35.9755 74.9158 35.8741 74.8107C35.7728 74.7056 35.6496 74.624 35.5133 74.5716C35.377 74.5192 35.2309 74.4972 35.0852 74.5073C34.9395 74.5174 34.7978 74.5592 34.67 74.63C34.0503 74.9269 33.4124 75.1841 32.7601 75.4C31.8101 75.4039 30.8621 75.3134 29.93 75.13C29.8171 75.0982 29.697 75.1035 29.5873 75.1448C29.4775 75.1862 29.3839 75.2616 29.3201 75.3599C29.1027 75.4257 28.9111 75.5572 28.7714 75.7363C28.6318 75.9153 28.5509 76.1331 28.54 76.3599C28.4224 77.9579 28.5779 79.5642 29 81.1099C29.0371 81.2701 29.113 81.4188 29.2211 81.5427C29.3293 81.6665 29.4663 81.7618 29.62 81.82C29.3848 82.2114 29.1711 82.6153 28.98 83.03C28.9224 83.1808 28.9222 83.3474 28.9792 83.4985C29.0362 83.6495 29.1465 83.7744 29.2894 83.8496C29.4323 83.9247 29.5978 83.9449 29.7545 83.9063C29.9112 83.8677 30.0484 83.7729 30.1401 83.64C30.8353 82.6782 31.6597 81.8168 32.5901 81.08C33.882 80.2708 35.2174 79.533 36.5901 78.8699C38.0301 78.0399 36.43 76.62 36.1 75.18Z" fill="#FF6161"/>
<path d="M34.9001 74.91C34.2252 74.8721 33.5488 74.9498 32.9001 75.1399C32.0402 75.2535 31.1671 75.2163 30.3201 75.03C29.7101 74.89 29.32 75.8399 29.92 76.0999C30.9089 76.4422 31.9678 76.5316 33.0001 76.3599C33.8301 76.2899 35.0601 76.3 35.5001 75.53C35.6001 75.32 35.1701 74.99 34.9001 74.91Z" fill="white"/>
<path d="M13.6 71.73C13.35 70.31 11.05 70.93 11.42 72.37C11.4153 72.4065 11.4153 72.4435 11.42 72.48C9.51372 75.7207 8.12693 79.2401 7.30998 82.9101C6.55998 86.1601 6.31001 89.55 8.09001 92.48C8.13978 92.555 8.21232 92.6122 8.29698 92.6429C8.38164 92.6735 8.47389 92.6761 8.56016 92.6503C8.64644 92.6245 8.72219 92.5717 8.77616 92.4997C8.83014 92.4276 8.8595 92.3401 8.85997 92.25C8.73997 87.89 9.02 83.2501 11.14 79.3101C11.86 77.9801 13.51 76.78 13.98 75.38C14.34 74.28 13.81 72.76 13.6 71.73Z" fill="#BF6440"/>
<path d="M11.4601 57.79C11.4392 60.4661 11.6163 63.1401 11.9901 65.79C12.3482 68.6742 12.9299 71.5261 13.73 74.3201C13.93 75.0101 14.85 74.7 14.73 74.04C14.35 71.23 13.66 68.4801 13.22 65.6801C12.7752 63.0548 12.5146 60.4016 12.4401 57.74C12.4168 57.6245 12.3543 57.5206 12.2632 57.4459C12.172 57.3713 12.0579 57.3306 11.9401 57.3306C11.8222 57.3306 11.7081 57.3713 11.6169 57.4459C11.5258 57.5206 11.4633 57.6245 11.4401 57.74L11.4601 57.79Z" fill="#443247"/>
<path d="M29.06 68.2499C29.0486 67.8844 29.0119 67.5203 28.95 67.1599C28.8479 67.418 28.6627 67.6348 28.4237 67.776C28.1846 67.9172 27.9054 67.975 27.63 67.9399C27.2913 67.8815 26.987 67.6978 26.7774 67.4254C26.5678 67.153 26.4682 66.8118 26.4984 66.4695C26.5286 66.1271 26.6864 65.8086 26.9405 65.5771C27.1946 65.3457 27.5263 65.2182 27.87 65.22C28.0579 65.2351 28.2412 65.2859 28.41 65.3699C28.0383 64.3875 27.3822 63.5385 26.5253 62.931C25.6685 62.3236 24.65 61.9855 23.6 61.96C20.69 62.06 18.43 65.0199 18.54 68.5699C18.65 72.1199 21.09 74.9499 24 74.8599C26.91 74.7699 29.17 71.8099 29.06 68.2499Z" fill="#443247"/>
<path d="M51.74 70.17C51.4022 70.1117 51.0985 69.9288 50.889 69.6574C50.6794 69.3861 50.5792 69.0462 50.6081 68.7046C50.637 68.363 50.7929 68.0446 51.045 67.8124C51.2971 67.5801 51.6272 67.4509 51.97 67.4501C52.1699 67.4577 52.3653 67.5125 52.54 67.61C52.2798 66.5659 51.7098 65.6251 50.9048 64.9111C50.0998 64.1972 49.0976 63.7436 48.03 63.61C45.13 63.42 42.59 66.14 42.34 69.69C42.09 73.24 44.26 76.28 47.16 76.48C50.06 76.68 52.61 73.96 52.85 70.41C52.85 70.18 52.85 69.96 52.85 69.74C52.7147 69.8976 52.5427 70.0193 52.349 70.0943C52.1554 70.1694 51.9461 70.1954 51.74 70.17Z" fill="#443247"/>
<path d="M43.3 63.5699C44.07 63.0716 44.9356 62.7393 45.8414 62.5947C46.7471 62.4501 47.673 62.4961 48.56 62.7298C49.3805 62.9699 50.1338 63.3978 50.76 63.9798C51.3989 64.7466 51.9616 65.574 52.44 66.4499C52.65 66.7399 53.21 66.7699 53.29 66.3399C53.3447 65.7026 53.2614 65.0607 53.0457 64.4585C52.83 63.8562 52.4869 63.3075 52.04 62.8498C51.2842 61.9914 50.2989 61.367 49.2 61.0499C48.0713 60.7242 46.8829 60.6622 45.7265 60.8685C44.57 61.0748 43.4764 61.544 42.53 62.2398C41.74 62.8098 42.45 64.1099 43.3 63.5699Z" fill="#443247"/>
<path d="M17.7 64.0799C18.0518 63.1844 18.6223 62.3912 19.3595 61.7728C20.0966 61.1544 20.9769 60.7305 21.92 60.5399C22.8743 60.4379 23.8394 60.5472 24.7467 60.86C25.654 61.1728 26.4813 61.6814 27.17 62.3498C27.6 62.7298 28.31 62.25 27.99 61.72C27.3383 60.6574 26.3758 59.8208 25.2328 59.3236C24.0898 58.8263 22.8216 58.6924 21.6 58.9399C20.4015 59.1617 19.2882 59.712 18.3841 60.5295C17.4801 61.347 16.8209 62.3997 16.48 63.5699C16.26 64.2699 17.4 64.7799 17.7 64.0799Z" fill="#443247"/>
<path d="M28.7201 75.24C30.6599 75.54 32.632 75.5704 34.5801 75.3301C34.9201 75.3301 35.2601 75.27 35.5801 75.26C35.6301 75.26 35.8201 75.26 35.8501 75.26C35.8801 75.26 35.7301 75.2001 35.6601 75.2001C35.5901 75.2001 35.6601 75.0401 35.6601 75.2001C35.756 75.4933 35.8696 75.7805 36.0001 76.0601C36.1601 76.5501 36.2901 77.06 36.4001 77.53C36.9101 79.74 37.3301 82.2901 36.3501 84.4401C36.1133 85.0514 35.7034 85.5804 35.1706 85.9623C34.6377 86.3442 34.005 86.5624 33.3501 86.5901C32.6249 86.4883 31.9405 86.1931 31.3686 85.7356C30.7968 85.2781 30.3586 84.6751 30.1001 83.99C29.4538 82.5348 29.0875 80.9709 29.0201 79.38C28.8751 77.8601 28.8751 76.3299 29.0201 74.8101C29.0701 74.3101 28.3101 74.3201 28.2501 74.8101C27.7572 77.8839 28.0215 81.0314 29.0201 83.98C29.2619 84.7275 29.6523 85.4185 30.1678 86.0114C30.6833 86.6042 31.3134 87.0868 32.0201 87.4301C32.6823 87.7064 33.409 87.79 34.1167 87.6715C34.8243 87.553 35.4841 87.237 36.0201 86.76C38.2601 84.86 38.2301 81.51 37.7701 78.86C37.5921 77.7315 37.328 76.6182 36.9801 75.53C36.7701 74.9 36.5201 74.09 35.7501 74.05C34.7459 74.0645 33.7438 74.1446 32.7501 74.29C31.4599 74.4897 30.1501 74.53 28.8501 74.41C28.3301 74.32 28.0801 75.11 28.6301 75.23L28.7201 75.24Z" fill="#443247"/>
<path d="M58.99 66.9101C61.3697 68.6859 64.2008 69.7566 67.16 70C67.2299 69.9987 67.2969 69.9723 67.3488 69.9256C67.4007 69.8788 67.434 69.8149 67.4425 69.7455C67.451 69.6762 67.4343 69.6059 67.3952 69.548C67.3562 69.49 67.2975 69.4482 67.23 69.4301C64.4123 68.8918 61.7069 67.8773 59.23 66.4301C58.93 66.2401 58.67 66.7101 58.95 66.9101H58.99Z" fill="#443247"/>
<path d="M53.93 78.6199L54.25 78.4899L54.32 78.43L54.4 78.3699C54.4389 78.3275 54.4724 78.2805 54.5 78.2299V78.15C54.5042 78.1201 54.5042 78.0898 54.5 78.06C54.5103 78.0038 54.5103 77.9461 54.5 77.89C54.501 77.7738 54.4698 77.6596 54.41 77.56C54.3723 77.4762 54.3094 77.4062 54.23 77.3599C54.2078 77.3345 54.1806 77.3141 54.15 77.3L54 77.2399C53.9438 77.2296 53.8862 77.2296 53.83 77.2399H53.81L53.68 77.3L53.58 77.3699C53.5412 77.4088 53.5076 77.4525 53.48 77.4999C53.4482 77.5553 53.4278 77.6166 53.42 77.68C53.4051 77.7425 53.4051 77.8075 53.42 77.8699L53.47 77.9799C53.4988 78.0351 53.5399 78.083 53.59 78.1199C53.6207 78.1493 53.6587 78.1701 53.7 78.18C53.7592 78.194 53.8208 78.194 53.88 78.18H54.01C54.0896 78.1599 54.1622 78.1184 54.22 78.06L54.12 78.14H54.01H53.92H53.79H53.67L53.57 78.07L53.49 77.96L53.44 77.84C53.44 77.84 53.44 77.84 53.44 77.9V77.7599V77.6199V77.4999L53.5299 77.39L53.64 77.3L53.55 77.3499L53.68 77.3L53.48 77.3499C53.3497 77.3975 53.2377 77.485 53.16 77.5999C53.1218 77.6641 53.098 77.7358 53.09 77.81C53.0751 77.8792 53.0751 77.9507 53.09 78.02L53.15 78.15C53.1942 78.2325 53.2598 78.3016 53.34 78.3499L53.47 78.41C53.5656 78.4299 53.6644 78.4299 53.76 78.41L53.93 78.6199Z" fill="#FF7486"/>
<path d="M56.26 78.7999C56.5562 78.5836 56.8308 78.3391 57.08 78.07C57.3197 77.7658 57.515 77.4291 57.66 77.07C57.7148 76.9743 57.7298 76.8608 57.7018 76.7542C57.6737 76.6475 57.6048 76.5562 57.51 76.4999C57.4138 76.4476 57.3012 76.4341 57.1953 76.4619C57.0893 76.4898 56.998 76.557 56.94 76.6499C56.86 76.7899 56.77 76.94 56.68 77.07L56.54 77.2699L56.4 77.45L56.27 77.6499C56.27 77.6499 56.27 77.7299 56.27 77.6499C56.27 77.5699 56.27 77.6499 56.27 77.6499C56.1645 77.7834 56.051 77.9103 55.93 78.0299C55.8695 78.0992 55.8362 78.188 55.8362 78.2799C55.8362 78.3719 55.8695 78.4607 55.93 78.5299C55.984 78.6025 56.0635 78.652 56.1524 78.6687C56.2414 78.6854 56.3333 78.668 56.41 78.6199L56.26 78.7999Z" fill="#FF7486"/>
<path d="M16.34 78.7399C16.4476 78.5221 16.5747 78.3146 16.72 78.1199L16.64 78.2298C16.7292 78.1074 16.8296 77.9936 16.94 77.8899L17.27 77.5799C17.3585 77.4928 17.4087 77.374 17.41 77.2499C17.4072 77.1452 17.3723 77.0441 17.31 76.96C17.2391 76.8708 17.1388 76.8098 17.027 76.7878C16.9153 76.7658 16.7994 76.7843 16.7 76.84C16.4301 77.001 16.1871 77.2034 15.98 77.4399C15.7687 77.6768 15.5873 77.9388 15.44 78.22C15.3908 78.3487 15.3908 78.4911 15.44 78.6199C15.4808 78.7483 15.5659 78.8582 15.68 78.9299C15.7994 78.9988 15.9412 79.0174 16.0743 78.9818C16.2075 78.9462 16.321 78.8591 16.39 78.7399H16.34Z" fill="#FF7486"/>
<path d="M17.74 78.9899L18.27 78.21L18.79 77.41C18.8095 77.3766 18.8222 77.3397 18.8272 77.3013C18.8322 77.263 18.8295 77.2241 18.8192 77.1868C18.809 77.1496 18.7914 77.1147 18.7675 77.0843C18.7436 77.0539 18.7138 77.0287 18.68 77.0099C18.6147 76.9729 18.5376 76.9626 18.4649 76.9813C18.3921 76.9999 18.3294 77.046 18.29 77.1099C18.1 77.3699 17.93 77.64 17.76 77.91L17.26 78.71C17.226 78.7744 17.2173 78.8491 17.2359 78.9195C17.2544 78.9899 17.2987 79.0508 17.36 79.09C17.4248 79.1219 17.4989 79.1293 17.5687 79.1109C17.6385 79.0925 17.6993 79.0495 17.74 78.9899Z" fill="#FF7486"/>
<path d="M17.73 32.27C17.4139 32.2765 17.0991 32.3133 16.79 32.38C12.15 33.38 11.79 38.48 11.47 40.78C10.1877 41.8872 8.97845 43.0764 7.85001 44.3401C9.76001 40.1101 9.31 37.14 8.53 37.14C8.33 37.14 8.12 37.3201 7.91 37.7201C5.35 42.9001 6.58001 43.72 7.10001 44.98C6.22001 46.06 5.23003 47.53 4.44003 48.73C4.22705 49.4256 4.14234 50.1541 4.19003 50.88C5.28099 49.1325 6.49049 47.462 7.81003 45.88C8.14096 46.245 8.5481 46.5327 9.00259 46.7228C9.45709 46.9129 9.94782 47.0006 10.44 46.98C12.1678 46.867 13.8034 46.1604 15.07 44.98C16.89 43.51 16.45 42.87 15.07 42.87C12.7164 43.0556 10.4486 43.8367 8.48001 45.14C9.58537 43.9093 10.7713 42.7535 12.03 41.6801H12.2701C17.0301 41.7201 22.27 32.27 17.73 32.27Z" fill="#17FFDD"/>
<path d="M18.39 55.2901L18.75 55.0801L18.88 55.0101L18.99 54.9501C19.21 54.8401 19.44 54.7301 19.68 54.6301C20.1775 54.4192 20.6887 54.2421 21.21 54.1H21.37H21.48L21.83 54.0201L22.63 53.9001C23.1962 53.844 23.7577 53.7471 24.31 53.61C24.4323 53.5576 24.5365 53.4705 24.6098 53.3594C24.683 53.2483 24.7221 53.1181 24.7221 52.985C24.7221 52.852 24.683 52.7219 24.6098 52.6108C24.5365 52.4997 24.4323 52.4125 24.31 52.36C23.9862 52.257 23.6496 52.1998 23.31 52.1901C23.0269 52.1749 22.7431 52.1749 22.46 52.1901C21.8536 52.2657 21.2547 52.3928 20.67 52.5701C19.5415 52.8996 18.4669 53.3914 17.48 54.0301C17.3889 54.0859 17.3104 54.1598 17.2491 54.2473C17.1878 54.3347 17.1451 54.4339 17.1236 54.5385C17.1022 54.6431 17.1025 54.751 17.1245 54.8555C17.1465 54.96 17.1896 55.0588 17.2514 55.1459C17.3131 55.2331 17.3921 55.3066 17.4834 55.362C17.5748 55.4174 17.6765 55.4534 17.7823 55.4678C17.8881 55.4823 17.9957 55.4748 18.0986 55.446C18.2014 55.4171 18.2971 55.3675 18.38 55.3001L18.39 55.2901Z" fill="#443247"/>
<path d="M81.4 53.7899C83.9659 53.5485 86.4938 53.0013 88.9299 52.1599C89.0042 52.1386 89.067 52.0888 89.1045 52.0213C89.142 51.9538 89.1512 51.8741 89.1299 51.7999C89.1087 51.7256 89.0588 51.6628 88.9913 51.6253C88.9238 51.5878 88.8442 51.5786 88.7699 51.5998C86.3522 52.289 83.8896 52.8103 81.4 53.1599C81 53.1999 80.99 53.8299 81.4 53.7899Z" fill="#443247"/>
<path d="M110.81 43.49C110.461 42.2172 109.989 40.9814 109.4 39.8C109.369 37.9543 108.824 36.1537 107.826 34.6008C106.828 33.048 105.416 31.8044 103.75 31.01C101.831 30.175 99.7262 29.8566 97.6457 30.0864C95.5652 30.3162 93.581 31.0863 91.8901 32.3201C90.8145 33.0608 89.8741 33.9808 89.1101 35.04C88.7275 31.6971 87.4992 28.5068 85.5413 25.7703C83.5835 23.0338 80.9605 20.8414 77.9201 19.4C75.904 18.4551 73.7443 17.8535 71.53 17.62C71.4841 17.6086 71.4361 17.6086 71.3901 17.62C64.6642 13.4244 56.8973 11.1969 48.97 11.1901C39.2472 11.3078 29.7843 14.346 21.8101 19.91C13.9561 25.2575 8.0033 32.9611 4.81007 41.91C4.44007 42.99 4.13007 44.0901 3.87007 45.2001C3.85245 45.192 3.83335 45.1877 3.81398 45.1874C3.7946 45.1871 3.77538 45.1908 3.75752 45.1984C3.73966 45.2059 3.72355 45.217 3.71022 45.2311C3.69689 45.2451 3.68662 45.2618 3.68007 45.28C1.96687 49.3273 1.26334 53.7304 1.63008 58.11C1.81499 60.2768 2.26498 62.4129 2.97004 64.4701C3.58524 66.5036 4.60573 68.3914 5.97005 70.02C7.24475 71.5083 9.02648 72.4705 10.97 72.7201C8.86603 76.176 7.31088 79.9373 6.36006 83.87C5.84023 85.9344 5.84023 88.0956 6.36006 90.16C6.56781 91.0037 7.01075 91.771 7.6374 92.3729C8.26406 92.9748 9.04873 93.3865 9.9001 93.5601C10.1901 93.5601 10.3001 93.14 10.0501 93.02C9.85377 92.9287 9.66339 92.8252 9.48005 92.7101C8.37515 90.5536 8.02315 88.0896 8.48005 85.7101C9.08408 83.1232 10.029 80.6281 11.2901 78.29C11.4701 77.91 10.9201 77.5801 10.7301 77.9601C9.2881 80.4498 8.24228 83.1488 7.63008 85.9601C7.31385 87.7125 7.41664 89.515 7.93007 91.2201C6.40007 88.9501 6.82006 85.56 7.48005 82.91C8.49774 79.3557 9.92745 75.9325 11.7401 72.7101C11.7882 72.6904 11.8283 72.6549 11.8538 72.6095C11.8792 72.5641 11.8885 72.5114 11.8801 72.4601L12.0901 72.04C12.1352 71.9618 12.1473 71.8688 12.1239 71.7816C12.1004 71.6944 12.0433 71.6202 11.9651 71.5751C11.8869 71.53 11.7939 71.5178 11.7067 71.5413C11.6195 71.5647 11.5452 71.6218 11.5001 71.7001L11.2301 72.1901C7.16005 71.7001 4.77006 67.86 3.49006 64.29C2.12059 60.4477 1.66191 56.3398 2.1501 52.29C2.38687 50.3201 2.84987 48.3839 3.53004 46.52C1.94612 53.9219 3.35155 61.6498 7.44008 68.02C8.0933 69.0004 8.8116 69.9359 9.5901 70.8201C10.2101 71.5301 11.2101 70.5001 10.5901 69.8201C7.69146 66.4192 5.70275 62.3386 4.81007 57.9601C4.42042 55.9379 4.25943 53.8783 4.33009 51.8201C4.57392 51.7562 4.78461 51.6026 4.92006 51.39C5.80818 49.9629 6.79035 48.5966 7.86006 47.3C8.61175 47.761 9.47836 48.0001 10.3601 47.99C12.3017 47.8723 14.1442 47.0923 15.5801 45.78C16.4001 45.12 17.4401 44.12 17.0601 43.05C16.868 42.6778 16.564 42.3752 16.1908 42.1851C15.8176 41.9949 15.3941 41.9266 14.9801 41.99H14.8101C15.9776 41.3598 17.013 40.5111 17.8601 39.49C19.2794 37.9819 20.1648 36.0497 20.3801 33.99C20.4078 33.6328 20.3572 33.2739 20.2318 32.9382C20.1063 32.6026 19.9091 32.2984 19.6538 32.047C19.3986 31.7956 19.0914 31.6029 18.754 31.4825C18.4165 31.3622 18.0569 31.3169 17.7001 31.35C17.3201 31.3571 16.9417 31.4006 16.5701 31.48C11.5701 32.55 10.8801 37.77 10.5701 40.28V40.3301L9.94008 40.89C10.3082 39.564 10.2093 38.1518 9.66005 36.89C9.46822 36.587 9.17356 36.3633 8.83009 36.26C11.6977 31.063 15.5773 26.4931 20.2401 22.8201C27.5105 17.0821 36.2951 13.5863 45.5201 12.76C55.3503 11.9674 65.1416 14.7006 73.1401 20.4701C80.0768 25.6195 85.2641 32.7757 88.0001 40.9701C88.1901 41.5401 88.37 42.1101 88.53 42.6801C88.85 43.7701 89.1101 44.87 89.3401 45.98C89.4401 46.5 90.2101 46.27 90.1301 45.76C89.859 44.1569 89.495 42.5709 89.0401 41.01C89.0718 40.9334 89.092 40.8525 89.1001 40.77V40.66V40.4601L89.16 40.11C89.16 39.85 89.2501 39.5801 89.3001 39.3201C89.3993 38.806 89.5296 38.2984 89.6901 37.8C89.7169 37.7001 89.7191 37.595 89.6965 37.494C89.6738 37.393 89.627 37.299 89.5601 37.2201C89.5973 37.194 89.6281 37.1597 89.6501 37.12C91.4601 33.86 95.4801 32.44 99.0501 33.12C102.95 33.88 106.05 36.8401 107.79 40.3101C109.644 44.2193 110.338 48.5782 109.79 52.87C109.33 56.58 107.28 60.5 103.48 61.66C99.3501 62.93 95.4801 60.01 93.4801 56.66C92.9428 55.7494 92.4812 54.7963 92.1001 53.8101C92.0067 52.8367 91.8968 51.8667 91.7701 50.9C91.755 50.7663 91.6877 50.644 91.5828 50.5597C91.4779 50.4754 91.3439 50.436 91.2101 50.4501C90.8743 48.5576 91.0967 46.6083 91.8501 44.8401C92.5067 43.4886 93.4913 42.3229 94.714 41.4496C95.9367 40.5762 97.3586 40.0229 98.8501 39.8401C99.5498 39.77 100.256 39.8856 100.896 40.1753C101.537 40.465 102.09 40.9184 102.5 41.49C102.889 42.1712 103.14 42.9221 103.24 43.7001C103.708 45.7453 103.604 47.8797 102.94 49.87C102.809 50.2058 102.612 50.5119 102.36 50.77C102.178 50.9438 101.941 51.0497 101.69 51.0701C101.133 51.0718 100.594 50.8693 100.176 50.5007C99.7573 50.1322 99.4885 49.6233 99.4201 49.0701C99.3533 48.2417 99.438 47.408 99.6701 46.61C99.7178 46.4376 99.6951 46.2533 99.6069 46.0977C99.5188 45.942 99.3725 45.8278 99.2001 45.78C99.0277 45.7323 98.8434 45.755 98.6878 45.8431C98.5321 45.9313 98.4178 46.0776 98.3701 46.25C97.8801 47.97 97.6101 50.31 99.1101 51.64C99.5667 52.0638 100.127 52.3591 100.735 52.4961C101.343 52.6331 101.976 52.6069 102.57 52.42C104.78 51.5 104.96 48.2001 104.91 46.2001C104.85 43.7701 104.49 41.0101 102.39 39.4701C99.3901 37.2901 95.3901 39.11 92.9601 41.29C89.5901 44.29 89.2601 48.95 90.5001 53.1C90.6601 53.62 90.8401 54.1 91.0401 54.67C91.0401 55.11 91.0401 55.56 91.0401 56C91.0201 56.0754 91.0201 56.1546 91.0401 56.23C91.1122 60.4727 90.5356 64.7015 89.3301 68.77C87.7214 73.6544 84.705 77.9545 80.66 81.13C78.5232 82.8899 76.0833 84.2454 73.4601 85.13C76.7601 80.68 76.3501 72.87 70.3801 71.13C70.448 70.9898 70.4822 70.8358 70.4801 70.6801C70.4801 70.6801 70.4801 69.8701 70.2901 68.6801C70.6401 68.6801 70.9801 68.6801 71.2901 68.6801C71.3723 68.6801 71.4512 68.6474 71.5093 68.5892C71.5674 68.5311 71.6001 68.4522 71.6001 68.37C71.6001 68.2878 71.5674 68.209 71.5093 68.1509C71.4512 68.0927 71.3723 68.0601 71.2901 68.0601C70.9101 68.0601 70.5301 68.06 70.1501 67.98C70.1501 67.61 70.0301 67.21 69.9601 66.78C71.3829 66.3508 72.7318 65.7067 73.9601 64.87C75.1294 64.1209 76.0937 63.0923 76.7658 61.8772C77.438 60.6621 77.7969 59.2986 77.8101 57.91C77.8524 57.4309 77.799 56.9481 77.6531 56.4897C77.5072 56.0314 77.2716 55.6065 76.9601 55.24C76.7439 55.0242 76.4862 54.8545 76.2027 54.7411C75.9191 54.6277 75.6154 54.5729 75.3101 54.5801C73.9001 54.5801 72.0901 55.6901 70.4601 57.5801C69.6577 58.5046 68.9848 59.534 68.4601 60.64C68.1501 59.73 67.8001 58.8301 67.4601 57.9401V57.87C68.5923 57.2576 69.6215 56.4714 70.5101 55.54C71.3173 54.6822 71.9582 53.682 72.4001 52.5901C72.7465 51.7111 72.9524 50.7831 73.0101 49.8401C75.0101 50.2301 77.0101 50.5501 79.0101 50.8401C81.9544 51.2148 84.923 51.3652 87.8901 51.29C87.9841 51.275 88.0696 51.2271 88.1314 51.1547C88.1931 51.0823 88.227 50.9902 88.227 50.895C88.227 50.7999 88.1931 50.7079 88.1314 50.6355C88.0696 50.5631 87.9841 50.515 87.8901 50.5C82.8901 50.09 77.8901 49.64 72.9801 48.76C72.9801 48.67 72.9801 48.58 72.9801 48.49C72.9684 47.7489 72.7688 47.0229 72.4001 46.38C72.2378 46.0804 71.9982 45.8296 71.7063 45.6538C71.4144 45.478 71.0808 45.3835 70.7401 45.38C70.204 45.4409 69.6858 45.6096 69.2166 45.876C68.7475 46.1423 68.3371 46.5009 68.0101 46.9301C67.8301 47.1201 67.6601 47.3301 67.4801 47.5601C66.6301 47.3501 65.7701 47.13 64.9201 46.9C65.0347 46.7524 65.1415 46.5989 65.2401 46.4401C65.9072 45.3832 66.3484 44.1996 66.536 42.964C66.7235 41.7283 66.6535 40.4673 66.3301 39.26C65.7801 37.07 64.7201 36.61 63.9301 36.61C63.4738 36.6469 63.032 36.7879 62.6385 37.0219C62.245 37.2558 61.9103 37.5768 61.66 37.9601C60.1879 40.0142 59.3186 42.4385 59.1501 44.9601C58.1288 43.8421 57.0506 42.7773 55.9201 41.77C56.492 40.5692 56.8604 39.2817 57.0101 37.9601C57.3103 35.2632 56.5975 32.5508 55.0101 30.35C54.1201 29.08 53.27 28.4601 52.41 28.4601C52.0561 28.4666 51.7113 28.5733 51.4157 28.7681C51.12 28.9628 50.8858 29.2374 50.7401 29.5601C49.8701 31.1601 49.9101 34.6401 50.8801 37.8201C50.2701 37.4001 49.6501 37 49.0201 36.61C48.6339 34.7737 47.9264 33.0201 46.9301 31.4301C46.1982 30.2626 45.2515 29.2445 44.1401 28.4301C42.8396 27.5094 41.3379 26.9128 39.7601 26.6901C39.3267 26.6215 38.8888 26.5848 38.4501 26.5801C37.8949 26.5274 37.3356 26.6216 36.8284 26.8533C36.3211 27.085 35.8838 27.4459 35.5601 27.9C35.1601 28.59 34.9301 29.8301 36.0901 31.8401C37.2647 33.7304 38.8172 35.3577 40.6501 36.62C42.5088 38.0729 44.7734 38.9117 47.1301 39.02L47.91 39.5H47.1801C45.6969 39.477 44.2203 39.7 42.8101 40.16C41.3201 40.67 40.41 41.44 40.16 42.36C39.91 43.28 40.16 44.36 42.16 45.51C43.6181 46.3683 45.2781 46.8239 46.97 46.8301C49.5612 46.7477 52.0545 45.8206 54.0701 44.1901C54.8201 44.8801 55.5501 45.5801 56.2501 46.3101C55.5185 46.1694 54.775 46.099 54.03 46.1C51.76 46.1 50.2201 46.75 49.8101 47.9C49.5901 48.53 49.61 49.5201 51.03 50.6901C52.3643 51.8147 54.0551 52.4279 55.8001 52.42C57.3754 52.3875 58.9207 51.9831 60.3101 51.24C60.9301 52.13 61.5201 53.05 62.0801 53.98C60.8632 53.5627 59.5865 53.3467 58.3001 53.3401C56.1501 53.3401 54.65 53.98 54.16 55.1C53.89 55.73 53.82 56.75 55.0401 58.03C55.9592 59.0329 57.163 59.7308 58.4901 60.03C58.1632 60.1033 57.8543 60.2409 57.5813 60.4349C57.3083 60.629 57.0767 60.8755 56.9001 61.16L56.8201 61.3301C53.3967 59.981 50.1683 58.1817 47.22 55.98C47.64 55.89 48.0701 55.8 48.5001 55.73C49.1301 55.62 48.93 54.73 48.35 54.66C47.4517 54.5999 46.5495 54.6402 45.66 54.78C40.8603 51.015 36.764 46.4311 33.5601 41.24C31.6606 38.1767 30.2028 34.8607 29.2301 31.39C29.1894 31.3009 29.1183 31.2293 29.0294 31.1881C28.9406 31.1469 28.84 31.1389 28.7457 31.1655C28.6515 31.1921 28.5699 31.2516 28.5156 31.3331C28.4614 31.4147 28.4382 31.5128 28.4501 31.61C30.2562 37.9963 33.4525 43.9042 37.8101 48.91C39.7319 51.1818 41.8501 53.2799 44.1401 55.1801C41.1739 54.5544 38.4515 53.0856 36.3001 50.9501C33.4279 48.026 31.3252 44.4355 30.1801 40.5C29.4201 38.17 28.8501 35.78 28.2901 33.39C28.2949 33.3502 28.2949 33.3099 28.2901 33.27C28.299 33.2232 28.2943 33.1747 28.2766 33.1304C28.2589 33.0861 28.2289 33.0478 28.1901 33.02V32.92C28.1201 32.63 27.6801 32.76 27.7401 33.04L27.8101 33.37C27.1025 37.6328 26.7679 41.9491 26.8101 46.27C26.8089 48.501 26.9224 50.7307 27.1501 52.9501C26.842 51.4328 26.6117 49.9007 26.4601 48.36C26.0852 44.9111 26.0651 41.4329 26.4001 37.98C26.5074 36.7542 26.6843 35.5357 26.9301 34.3301L27.5401 33.39C27.5807 33.3356 27.6065 33.2715 27.6148 33.2041C27.6231 33.1367 27.6136 33.0684 27.5874 33.0057C27.5611 32.9431 27.5189 32.8884 27.465 32.847C27.4111 32.8057 27.3473 32.7791 27.28 32.77C27.296 32.7157 27.2897 32.6572 27.2625 32.6075C27.2353 32.5578 27.1895 32.5209 27.1351 32.505C27.0807 32.4891 27.0222 32.4955 26.9725 32.5227C26.9228 32.5499 26.886 32.5957 26.8701 32.65L26.8001 32.9301C24.2101 36.5801 21.89 40.4 19.47 44.16C17.417 47.6182 14.9781 50.832 12.2001 53.74C11.8701 54.06 12.3401 54.49 12.6801 54.23C13.5833 53.5065 14.4322 52.7177 15.22 51.87L15.0001 52.1901C14.1601 53.3901 13.2801 54.58 12.4001 55.76C11.7829 56.6534 11.0795 57.484 10.3001 58.24C10.1001 58.41 10.3601 58.75 10.5801 58.6C12.5801 57.16 14.0701 54.79 15.4401 52.75C17.0601 50.35 18.5901 47.9 20.1801 45.49C20.2085 45.4507 20.2238 45.4035 20.2238 45.355C20.2238 45.3065 20.2085 45.2594 20.1801 45.2201L20.35 44.9501C22.35 41.8001 24.2501 38.53 26.2601 35.36C25.8554 37.6724 25.6314 40.0128 25.5901 42.36C25.4636 45.9446 25.7759 49.5313 26.5201 53.04C26.8248 54.4422 27.2634 55.8118 27.8301 57.13C27.9901 57.84 28.1601 58.55 28.3601 59.24C28.3746 59.297 28.4113 59.346 28.4619 59.376C28.5126 59.406 28.5731 59.4146 28.6301 59.4C28.6871 59.3854 28.736 59.3489 28.766 59.2982C28.796 59.2476 28.8046 59.187 28.7901 59.13L28.6101 58.0701C28.6472 58.0348 28.672 57.9886 28.681 57.9382C28.69 57.8879 28.6826 57.8359 28.66 57.79L28.5101 57.4301C27.3506 49.8988 27.2295 42.2442 28.1501 34.6801C28.8855 38.8232 30.2337 42.8339 32.1501 46.5801C33.9675 49.9586 36.7535 52.7166 40.1501 54.5C41.0398 54.9284 41.9714 55.2635 42.9301 55.5C42.3418 55.7073 41.7644 55.9444 41.2001 56.2101C41.0349 56.3099 40.9152 56.4703 40.8666 56.6571C40.8181 56.8439 40.8444 57.0424 40.9401 57.2101C41.0417 57.3732 41.2014 57.4916 41.387 57.5417C41.5725 57.5918 41.7701 57.5698 41.9401 57.48C42.9639 57.0237 44.0287 56.6655 45.1201 56.41L45.7001 56.28C48.1148 58.1305 50.7234 59.7131 53.4801 61C54.4801 61.47 55.4801 61.88 56.5601 62.25C56.5796 62.8206 56.7229 63.3802 56.9801 63.89C56.2901 63.54 55.6001 63.18 54.9801 62.79C54.9018 62.7436 54.8084 62.7302 54.7202 62.7527C54.6321 62.7752 54.5565 62.8318 54.5101 62.91C54.4637 62.9883 54.4502 63.0818 54.4727 63.1699C54.4952 63.2581 54.5518 63.3336 54.6301 63.38C55.6301 63.96 56.6301 64.4801 57.6901 64.9601C58.477 65.9907 59.5049 66.8123 60.6836 67.3528C61.8623 67.8933 63.1556 68.1362 64.4501 68.0601C65.0118 68.0563 65.5727 68.0196 66.1301 67.9501L67.2501 68.2001C67.386 69.0348 67.4794 69.8759 67.53 70.7201C67.5252 70.77 67.5252 70.8201 67.53 70.87C66.1377 71.0844 64.8455 71.7236 63.8301 72.7001C62.7207 71.6057 61.6692 70.4541 60.6801 69.25C60.4601 68.98 59.9801 69.34 60.1901 69.62C61.1747 70.8759 62.2227 72.0808 63.3301 73.23C63.1901 73.39 63.0601 73.56 62.9301 73.74L61.9301 72.74C61.7001 72.52 61.3501 72.8601 61.5801 73.0901C63.6451 75.0494 65.5324 77.1877 67.22 79.48C66.9501 79.72 66.6801 79.9601 66.4201 80.2101C66.3073 80.3228 66.244 80.4756 66.244 80.635C66.244 80.7944 66.3073 80.9473 66.4201 81.0601C66.5328 81.1728 66.6856 81.2361 66.845 81.2361C67.0045 81.2361 67.1574 81.1728 67.2701 81.0601L67.9201 80.51C68.3994 81.2412 68.8367 81.9992 69.2301 82.78C69.7105 83.7447 70.1086 84.7483 70.4201 85.78C68.8671 86.8443 67.1263 87.6044 65.2901 88.02C62.4203 88.5779 59.5116 88.9123 56.5901 89.02C56.1401 89.02 55.95 89.78 56.47 89.88L57.35 90.02C54.5046 90.9834 51.5938 91.742 48.6401 92.29C44.6588 93.1173 40.614 93.6024 36.5501 93.74H36.1801C35.7901 93.74 35.4101 93.74 35.0201 93.74C34.2201 93.74 33.4301 93.6701 32.6301 93.55C30.6301 92.7701 28.6301 92.1301 26.6301 91.3101C24.5658 90.4661 22.5896 89.421 20.7301 88.1901C17.8201 86.2501 14.94 83.5201 14.16 79.9701C13.8079 78.08 14.0744 76.1267 14.9201 74.4C15.1901 73.81 14.3701 73.29 14.0201 73.88C13.0474 75.4736 12.569 77.3199 12.6456 79.1853C12.7221 81.0507 13.3501 82.8514 14.4501 84.36C16.9901 87.98 21.0101 90.36 25.0001 92.12C27.5297 93.2955 30.23 94.0617 33.0001 94.39C33.6764 94.5411 34.3671 94.6182 35.0601 94.62C35.4201 94.62 35.7801 94.6201 36.1401 94.5601C36.1832 94.6412 36.2482 94.7087 36.3278 94.7546C36.4073 94.8006 36.4983 94.8233 36.5901 94.8201C40.7202 94.7306 44.8351 94.2889 48.8901 93.5C52.3801 92.86 56.1101 92.18 59.2101 90.39C59.2892 90.348 59.3525 90.2814 59.3901 90.2001C61.4063 90.2405 63.4203 90.0424 65.3901 89.61C67.3308 89.2436 69.1902 88.5324 70.8801 87.51C70.9601 87.93 71.0301 88.34 71.0801 88.76C71.135 89.1879 71.165 89.6187 71.1701 90.05C71.0874 90.3066 70.9872 90.5572 70.8701 90.8C70.477 91.7245 69.8963 92.5573 69.1647 93.2458C68.4332 93.9344 67.5667 94.4636 66.6201 94.8C66.5613 94.829 66.5145 94.8775 66.4879 94.9374C66.4612 94.9972 66.4564 95.0645 66.4743 95.1276C66.4921 95.1906 66.5315 95.2453 66.5855 95.2823C66.6396 95.3194 66.7049 95.3363 66.7701 95.3301C67.6516 95.1517 68.4868 94.7932 69.2233 94.277C69.9598 93.7607 70.5817 93.0979 71.0501 92.3301C70.9404 93.1951 70.7666 94.0507 70.53 94.89C70.46 95.16 70.8701 95.3601 71.0001 95.0901C71.6585 93.6459 71.9995 92.0772 72.0001 90.49C72.402 89.4153 72.6085 88.2774 72.6101 87.13C72.6101 86.83 72.6101 86.54 72.6101 86.24C72.7201 86.14 72.8401 86.0401 72.9401 85.9301C73.022 85.8481 73.0987 85.7613 73.1701 85.67C73.2051 85.7509 73.2672 85.817 73.3456 85.8572C73.424 85.8973 73.514 85.9089 73.6001 85.89C78.8114 84.6927 83.4225 81.6706 86.6001 77.37C90.0064 72.7803 92.0137 67.3039 92.3801 61.6C92.4901 60.38 92.5301 59.1601 92.5201 57.9501C94.7165 61.3435 95.5951 65.4234 94.9901 69.42C94.6326 71.6561 93.8074 73.7916 92.5685 75.687C91.3296 77.5825 89.7047 79.1953 87.8001 80.42C85.6782 81.7746 83.2917 82.661 80.8001 83.02C80.3701 83.09 80.4701 83.81 80.9001 83.78C83.2657 83.5571 85.5575 82.8371 87.6254 81.667C89.6934 80.4969 91.4909 78.903 92.9001 76.99C94.3649 75.005 95.3682 72.7182 95.8371 70.2963C96.3059 67.8743 96.2283 65.3782 95.6101 62.99C95.3733 62.0379 95.0554 61.108 94.66 60.2101C95.9452 61.5763 97.5604 62.5887 99.3501 63.15C103.82 64.49 108.2 61.9601 110.24 57.9601C112.35 53.6701 112.06 48.12 110.81 43.49ZM5.39009 45.0801C5.48009 44.7301 5.58007 44.38 5.68007 44.03C5.77238 44.3147 5.89297 44.5894 6.04005 44.85C5.75005 45.22 5.46006 45.62 5.17006 46.03C5.21006 45.71 5.28006 45.3901 5.36006 45.0801H5.39009ZM7.88008 44.3401C9.00853 43.0764 10.2177 41.8872 11.5001 40.78C11.8101 38.48 12.1801 33.37 16.8201 32.38C17.1292 32.3133 17.444 32.2765 17.7601 32.27C22.3001 32.27 17.0601 41.7201 12.2901 41.7201H12.0501C10.7914 42.7935 9.60544 43.9493 8.50007 45.1801C10.4687 43.8768 12.7365 43.0956 15.0901 42.91C16.4801 42.91 16.9201 43.55 15.0901 45.02C13.8235 46.2005 12.1878 46.907 10.4601 47.02C9.9638 47.0424 9.46868 46.9545 9.01045 46.7626C8.55222 46.5706 8.14225 46.2795 7.81007 45.91C6.62441 47.3432 5.51615 48.8386 4.49006 50.39C4.54006 49.69 4.61004 49.0001 4.72004 48.3101C5.45004 47.2001 6.32005 45.9301 7.10005 44.9701C6.75681 44.4553 6.52448 43.8747 6.41774 43.2653C6.311 42.6558 6.3322 42.0308 6.48005 41.4301C7.01197 39.9845 7.62977 38.572 8.33009 37.2001C8.38925 37.1592 8.4583 37.1349 8.53004 37.13C9.31004 37.14 9.81007 40.1101 7.81007 44.3401H7.88008ZM87.8801 37.5701C85.4313 31.3798 81.5401 25.8635 76.53 21.48C75.2114 20.3265 73.8184 19.2609 72.3601 18.29C76.0683 18.9572 79.5028 20.6876 82.2457 23.2708C84.9887 25.8539 86.9218 29.1785 87.8101 32.8401C88.0759 34.0039 88.2431 35.1881 88.3101 36.38C88.1331 36.7637 87.9892 37.1619 87.8801 37.5701ZM88.3401 38.26C88.3401 38.36 88.2801 38.46 88.2601 38.55L88.2001 38.38C88.2368 38.3616 88.2685 38.3349 88.2929 38.3019C88.3172 38.2689 88.3334 38.2305 88.3401 38.1901V38.26ZM102.42 32.85C100.573 31.9595 98.5024 31.6428 96.4741 31.9404C94.4457 32.2381 92.553 33.1366 91.0401 34.52C90.3147 35.1978 89.7124 35.9963 89.2601 36.88C89.2506 36.9296 89.2506 36.9805 89.2601 37.03H89.2001C89.2001 36.69 89.2001 36.35 89.2001 36.03C90.0798 34.6647 91.2369 33.4997 92.5962 32.6107C93.9555 31.7217 95.4866 31.1287 97.0901 30.87C98.9652 30.4991 100.908 30.6795 102.682 31.3894C104.457 32.0993 105.988 33.3082 107.09 34.87C107.799 35.9089 108.295 37.0782 108.55 38.3101C107.092 35.9235 104.959 34.0232 102.42 32.85ZM70.66 46.3301C71.3501 46.3301 71.8601 46.97 71.9601 48.52C70.7801 48.29 69.6001 48.05 68.4201 47.78C68.9498 47.0238 69.7532 46.5037 70.66 46.3301ZM66.78 48.4401C65.8778 49.777 65.2021 51.2534 64.78 52.8101C64.1 51.6301 63.3601 50.48 62.5701 49.36C63.1508 48.862 63.6893 48.3168 64.1801 47.73C65.0701 47.98 65.9201 48.2201 66.8101 48.4401H66.78ZM63.8101 37.5601C64.4101 37.5601 64.9501 38.13 65.3001 39.5C65.622 40.7233 65.6586 42.0041 65.4072 43.2438C65.1558 44.4834 64.6231 45.6488 63.85 46.65C62.55 46.28 61.2501 45.8901 59.9601 45.4601C60.1301 41.6501 62.2301 37.5601 63.8101 37.5601ZM54.5101 43.4701L53.9901 42.99L53.78 43.17C52.34 42.57 50.9134 41.9367 49.5001 41.27C49.0601 41.06 48.6701 41.7201 49.1101 41.9301C50.4434 42.5634 51.7767 43.1633 53.1101 43.73C51.3209 45.0873 49.1546 45.856 46.91 45.9301C45.3801 45.9264 43.8788 45.5157 42.5601 44.74C38.6601 42.5 42.5601 40.4701 47.1101 40.4701C48.8652 40.4353 50.6075 40.7762 52.22 41.4701C50.6568 40.2481 49.0205 39.1225 47.3201 38.1H47.0201C40.3501 38.1 31.9501 27.54 38.3401 27.54C38.7321 27.5423 39.1234 27.5757 39.5101 27.64C45.9101 28.64 47.6501 34.9401 48.0701 37.1901C49.8057 38.2404 51.4755 39.3958 53.0701 40.65C50.4301 36.53 50.3501 29.39 52.3001 29.39C52.7901 29.39 53.4001 29.83 54.1301 30.88C55.2763 32.4834 55.9359 34.3832 56.0299 36.3519C56.1239 38.3206 55.6482 40.2747 54.66 41.98C55.61 42.79 56.5101 43.64 57.3801 44.52C56.4301 44.21 55.4901 43.8401 54.5501 43.4701H54.5101ZM60.0701 66.1C60.9701 66.45 61.87 66.78 62.78 67.1C61.8332 66.9446 60.926 66.6049 60.1101 66.1H60.0701ZM65.5901 67.1C64.7101 66.87 63.8501 66.62 63.0001 66.35C61.4715 65.862 59.9695 65.2946 58.5001 64.65C58.2806 64.3727 58.0833 64.0784 57.91 63.77C57.6947 63.413 57.5456 63.02 57.47 62.61C59.3317 63.2036 61.2535 63.5894 63.2001 63.76C63.6001 63.76 63.6901 63.1201 63.2901 63.0601C61.3545 62.7853 59.4516 62.3162 57.6101 61.66C57.8692 61.3449 58.2046 61.1014 58.5844 60.9526C58.9643 60.8039 59.3759 60.7548 59.78 60.8101C61.2161 60.8681 62.6254 61.2181 63.9218 61.8387C65.2181 62.4594 66.3744 63.3377 67.3201 64.42C66.8127 62.4547 66.1609 60.5294 65.3701 58.66L65.0401 57.88C63.5254 58.7349 61.8282 59.215 60.0901 59.28C59.254 59.2974 58.4236 59.1381 57.6533 58.8124C56.883 58.4867 56.1901 58.002 55.6201 57.39C53.7101 55.39 55.6201 54.28 58.2001 54.28C60.4656 54.2265 62.6707 55.0138 64.3901 56.49C63.2821 54.2127 61.97 52.0405 60.47 50C59.0434 50.9175 57.3953 51.4323 55.7001 51.49C54.174 51.4926 52.6965 50.9541 51.53 49.9701C49.29 48.1301 51.2201 47.04 53.9301 47.04C55.8562 47.0145 57.7487 47.5458 59.3801 48.5701C59.1701 48.3101 58.9601 48.04 58.7401 47.78C57.9101 46.78 57.0401 45.8601 56.1201 44.9501C56.9501 45.2701 57.7801 45.58 58.6201 45.88C58.9701 46.27 59.3201 46.6601 59.6201 47.0601L60.0901 47.63C60.0045 47.2116 59.9543 46.7868 59.9401 46.36C61.0101 46.73 62.0901 47.07 63.1801 47.36C62.6045 48.008 61.957 48.5885 61.2501 49.0901C62.8294 51.2183 64.2086 53.4879 65.3701 55.87C65.3452 53.267 66.1509 50.7238 67.6701 48.61C69.0701 48.9633 70.4801 49.2967 71.9001 49.61C71.6301 54.54 67.3201 56.81 66.0501 57.37L66.4401 58.25C67.194 60.0521 67.8254 61.903 68.3301 63.79C68.7801 59.79 72.91 55.5 75.22 55.5C76.15 55.5 76.79 56.2 76.78 57.88C76.78 63.81 70.3901 65.7001 68.8801 66.0701C69.0101 66.7101 69.1101 67.3001 69.2001 67.8301L67.9801 67.63C67.9801 67.33 67.8701 67.02 67.8101 66.63C67.0981 66.8577 66.3691 67.0282 65.6301 67.14L65.5901 67.1ZM61.6501 60.1C62.659 59.9255 63.6407 59.6196 64.5701 59.1901C64.9001 59.9901 65.2101 60.81 65.5001 61.64C64.319 60.934 63.0328 60.4209 61.6901 60.12L61.6501 60.1ZM69.5401 70.7201C69.3605 70.7028 69.1797 70.7028 69.0001 70.7201C68.7907 70.7184 68.5821 70.7453 68.3801 70.8C68.3389 70.0228 68.2554 69.2482 68.1301 68.48C68.5301 68.55 68.9301 68.59 69.3301 68.63C69.5501 69.91 69.5801 70.74 69.5801 70.74L69.5401 70.7201ZM71.0001 85.39C70.7396 84.5744 70.4049 83.7845 70.0001 83.03C69.1848 81.4145 68.2063 79.8866 67.0801 78.4701C65.9454 77.0422 64.723 75.6862 63.4201 74.41C63.5469 74.2452 63.6874 74.0913 63.8401 73.9501C64.9301 75.0801 66.7701 77.16 67.5601 78.13C69.2564 80.1831 70.5062 82.5671 71.2301 85.13L71.0001 85.39ZM72.0801 84.28C71.5778 82.5275 70.7796 80.8737 69.72 79.39L69.8601 79.3201L70.0001 79.25H70.1101C70.3127 79.163 70.5197 79.0862 70.7301 79.02C71.281 78.8407 71.819 78.6235 72.3401 78.37C72.7901 78.16 72.5401 77.51 72.1101 77.49C70.9841 77.4665 69.8735 77.7538 68.9001 78.3201C68.1172 77.327 67.2827 76.3757 66.4001 75.4701C65.7601 74.8001 65.1001 74.1501 64.4001 73.4701C65.081 72.9164 65.8771 72.5221 66.7302 72.3162C67.5833 72.1102 68.4716 72.0979 69.3301 72.28C70.3948 72.5103 71.3731 73.0358 72.153 73.7963C72.933 74.5567 73.483 75.5215 73.7401 76.5801C74.0586 77.9065 74.0786 79.2871 73.7984 80.6222C73.5183 81.9573 72.945 83.2135 72.1201 84.3L72.0801 84.28Z" fill="#443247"/>
<path d="M75.29 55.54C72.98 55.54 68.8501 59.8301 68.4001 63.8301C67.8954 61.943 67.2639 60.0921 66.5101 58.29L66.12 57.41C67.48 56.81 72.3601 54.24 71.9601 48.52C71.8601 46.97 71.35 46.3301 70.66 46.3301C68.66 46.3301 65.13 51.7201 65.44 55.9501C64.2786 53.5679 62.8994 51.2983 61.32 49.17C62.73 48.17 66.68 44.83 65.32 39.5C64.97 38.13 64.4301 37.5601 63.8301 37.5601C61.8901 37.5601 59.2501 43.45 60.1401 47.67L59.67 47.1C58.1441 45.2705 56.4719 43.5683 54.67 42.01C55.6582 40.3047 56.1338 38.3507 56.0398 36.382C55.9458 34.4133 55.2862 32.5134 54.1401 30.91C53.4101 29.91 52.8 29.42 52.31 29.42C50.31 29.42 50.4401 36.5601 53.0801 40.6801C51.4855 39.4259 49.8157 38.2704 48.0801 37.2201C47.6601 34.9701 45.9201 28.62 39.5201 27.67C39.1333 27.6057 38.7421 27.5723 38.35 27.5701C31.96 27.5701 40.35 38.13 47.03 38.13H47.3301C49.0305 39.1526 50.6668 40.278 52.23 41.5C50.6175 40.8061 48.8752 40.4652 47.12 40.5C42.6 40.5 38.6701 42.5 42.5701 44.77C43.8888 45.5457 45.3901 45.9565 46.92 45.9601C49.5637 45.8409 52.0824 44.8008 54.04 43.02C55.7447 44.506 57.3327 46.1207 58.79 47.85C59.01 48.11 59.22 48.38 59.43 48.64C57.7986 47.6157 55.9061 47.0844 53.98 47.11C51.27 47.11 49.3401 48.2 51.5801 50.04C52.7465 51.0241 54.224 51.5626 55.75 51.5601C57.4453 51.5024 59.0934 50.9876 60.5201 50.0701C62.02 52.1106 63.3321 54.2828 64.44 56.5601C62.7207 55.0838 60.5156 54.2965 58.25 54.35C55.63 54.35 53.76 55.4401 55.67 57.4601C56.2401 58.072 56.9329 58.5566 57.7032 58.8823C58.4735 59.208 59.3039 59.3674 60.1401 59.35C61.8781 59.2849 63.5754 58.805 65.0901 57.9501L65.42 58.73C66.2109 60.5994 66.8626 62.5246 67.37 64.49C66.4243 63.4077 65.2681 62.5295 63.9717 61.9088C62.6754 61.2881 61.2662 60.938 59.8301 60.88C57.9401 60.88 56.8301 61.78 57.9601 63.88C58.6203 64.9828 59.5714 65.8825 60.7091 66.4805C61.8469 67.0784 63.1273 67.3516 64.41 67.27C65.5858 67.2602 66.7555 67.0989 67.8901 66.79C68.1633 68.1091 68.3438 69.4457 68.43 70.79C68.6321 70.7353 68.8407 70.7084 69.05 70.7101C69.2296 70.6927 69.4105 70.6927 69.5901 70.7101C69.5008 69.1527 69.2901 67.6047 68.9601 66.0801C70.4701 65.7101 76.83 63.82 76.86 57.89C76.86 56.24 76.22 55.54 75.29 55.54Z" fill="#17FFDD"/>
<path d="M170.6 98.05H156.66V75.54L147.12 90.13H145.81L136.33 75.6V98.05H122.56V52.73H136.81L146.59 68.6L156.36 52.73H170.61L170.6 98.05ZM158.66 96.05H168.6V54.73H157.47L146.58 72.41L135.68 54.73H124.56V96.05H134.31V68.91L146.46 87.53L158.66 68.86V96.05Z" fill="white"/>
<path d="M213.55 98.05H176.4V52.73H213.24V64.91H190.24V69.53H211.03V81H190.28V85.87H213.55V98.05ZM178.4 96.05H211.55V87.8401H188.28V78.9701H209.07V71.5H188.28V62.91H211.28V54.76H178.4V96.05Z" fill="white"/>
<path d="M242.45 98.05H228.45V65.25H215.51V52.73H255.45V65.25H242.45V98.05ZM230.45 96.05H240.45V63.25H253.45V54.73H217.51V63.25H230.45V96.05Z" fill="white"/>
<path d="M273.15 98.05H259.15V52.73H273.15V98.05ZM261.15 96.05H271.15V54.73H261.15V96.05Z" fill="white"/>
<path d="M297.21 98.8C289.535 98.987 282.06 96.3422 276.21 91.37L275.48 90.73L283.41 81.25L284.17 81.85C287.94 85.0091 292.682 86.7747 297.6 86.85C299.44 86.85 301.6 86.51 301.6 84.85V84.73C301.6 83.73 301.14 83.03 294.99 81.49C285.99 79.42 277.89 76.7501 277.89 66.9701V66.8401C277.89 57.9501 285.04 51.98 295.67 51.98C303.07 51.98 309.1 53.98 314.11 57.98L314.85 58.5701L307.71 68.64L306.89 68.04C303.581 65.4855 299.54 64.0591 295.36 63.9701C294.11 63.9701 292.02 64.2 292.02 65.75V65.87C292.02 66.87 292.52 67.76 298.78 69.1C307.55 71.02 315.66 74.1001 315.66 83.5701V83.7001C315.72 92.9101 308.46 98.8 297.21 98.8ZM278.32 90.5C283.697 94.7252 290.374 96.9521 297.21 96.8C307.4 96.8 313.72 91.8001 313.72 83.6901V83.5601C313.72 76.9701 309.43 73.46 298.42 71.05C292.77 69.84 290.08 68.75 290.08 65.86V65.74C290.08 64.85 290.47 61.9601 295.42 61.9601C299.681 62.0303 303.824 63.3785 307.31 65.8301L312.18 58.9501C307.64 55.5701 302.39 53.9501 295.73 53.9501C286.14 53.9501 279.95 59.0001 279.95 66.8101V66.9401C279.95 74.5001 285.42 77.2 295.52 79.52C301.06 80.9 303.66 81.8601 303.66 84.7001V84.8201C303.66 86.0201 303.07 88.8201 297.66 88.8201C292.629 88.769 287.752 87.0765 283.77 84L278.32 90.5Z" fill="white"/>
<path d="M169.52 17.7101C170.154 17.6624 170.772 17.483 171.333 17.1834C171.894 16.8838 172.387 16.4707 172.78 15.9701C173.706 15.0576 174.241 13.8201 174.27 12.5201C174.287 12.1216 174.221 11.7239 174.076 11.3522C173.931 10.9806 173.711 10.643 173.429 10.361C173.147 10.079 172.809 9.85855 172.438 9.71379C172.066 9.56904 171.668 9.50309 171.27 9.52007C170.647 9.54436 170.039 9.72125 169.501 10.0351C168.962 10.3489 168.508 10.7902 168.18 11.3201C167.377 12.3538 166.935 13.6216 166.92 14.9301C166.95 16.7201 167.95 17.7401 169.52 17.7101Z" fill="white"/>
<path d="M211.18 32.91C210.89 32.91 210.61 33.16 210.44 33.62C209.674 35.5449 208.786 37.4187 207.78 39.23C205.37 43.23 202.3 46.0501 202.45 41.7101C202.552 38.5869 203.032 35.4875 203.88 32.48C205.28 26.84 206.67 24.33 206.49 23.87C206.49 23.35 205.77 22.87 204.43 22.4C203.244 22.0488 202.016 21.8604 200.78 21.8401C200.233 23.2865 199.779 24.7661 199.42 26.27C198.82 28.27 198.29 30.7401 197.77 33.4701V33.65C197.63 33.93 197.47 34.36 197.2 35.05C196.329 37.3865 195.105 39.5753 193.57 41.54C192.15 43.25 191.07 44.14 190.38 44.15C189.69 44.16 189.62 43.7601 189.6 42.7201C189.697 40.6639 190.005 38.6231 190.52 36.63C191.017 34.0348 191.781 31.498 192.8 29.0601C193.8 26.7201 194.46 25.32 194.62 24.91C194.165 24.0911 193.493 23.4133 192.678 22.9512C191.863 22.489 190.936 22.2602 190 22.29C188.55 22.29 186.9 23.74 185.11 26.49C182.867 30.0185 180.862 33.6934 179.11 37.49H178.93C179.377 35.0482 179.988 32.6394 180.76 30.28C181.96 26.55 182.4 25.61 182.22 25.16C181.97 24.41 179.75 23.3 176.98 23.35C175.86 26.8893 174.969 30.4967 174.31 34.15C174.256 34.226 174.216 34.3106 174.19 34.4C173.416 36.3232 172.525 38.1967 171.52 40.01C169.12 44.01 166.05 46.83 166.19 42.48C166.292 39.3594 166.775 36.263 167.63 33.26C169.02 27.62 170.42 25.1 170.23 24.64C170.23 24.12 169.52 23.6401 168.18 23.1801C166.993 22.8197 165.761 22.6311 164.52 22.62C163.983 24.0661 163.529 25.5419 163.16 27.04C162.57 29.04 162.04 31.52 161.52 34.25C161.52 34.38 161.52 34.51 161.44 34.64C161.255 34.9595 161.098 35.294 160.97 35.64C158.81 40.83 155.87 44.36 154.2 44.39C153.79 44.39 153.61 44 153.6 43.25C153.6 41.34 154.2 38.55 155.45 34.76C156.71 31.27 157.87 28.41 158.03 27.88C157.599 27.194 156.962 26.662 156.21 26.36C155.176 25.8666 154.045 25.6104 152.9 25.61C151.9 25.61 150.32 27.05 148.35 29.87C146.043 33.1699 143.949 36.6136 142.08 40.1801L141.91 40.12C142.722 36.7101 143.723 33.3483 144.91 30.05C145.91 26.79 146.66 24.9301 146.83 24.4601C146.413 23.8162 145.819 23.3059 145.12 22.99C144.259 22.4713 143.275 22.1917 142.27 22.1801C140.53 22.1801 138.66 23.9901 136.59 27.5601C134.3 31.5601 132.29 35.34 130.69 38.9H130.51C130.935 36.5389 131.485 34.2022 132.16 31.9C133.52 27.48 134.16 25.21 134.16 25.04C134.16 24.57 133.5 24.1201 132.22 23.6901C131.106 23.279 129.928 23.0658 128.74 23.0601C127.816 26.0184 127.045 29.0224 126.43 32.0601C125.729 35.1401 125.212 38.2588 124.88 41.4C124.64 43.84 124.55 45.11 124.55 45.29C124.487 45.8975 124.643 46.5075 124.99 47.01C125.646 47.5912 126.401 48.0486 127.22 48.36C127.927 48.7301 128.697 48.9675 129.49 49.0601C130.01 49.0601 130.22 48.1801 130.2 47.3101C130.439 45.6485 130.893 44.0249 131.55 42.48C131.83 41.84 132 41.43 132.16 41.14C132.38 40.62 133.39 38.63 133.61 38.14C135.057 35.1236 136.864 32.2931 138.99 29.7101L139.17 29.8201C138.48 32.8201 138 34.93 137.73 36.04C136.973 39.0563 136.57 42.1505 136.53 45.26C136.53 46.19 137.37 47.04 139.07 47.87C141.07 48.93 141.75 48.8 141.79 48.05C142.11 46.7627 142.511 45.4968 142.99 44.26C143.592 42.5371 144.331 40.8651 145.2 39.26C146.061 37.7521 147.019 36.3023 148.07 34.92C148.736 33.9684 149.534 33.1164 150.44 32.39H150.56C150.56 32.51 149.85 34.39 149.64 35.39C148.753 38.0899 148.281 40.9086 148.24 43.75C148.24 44.436 148.451 45.1053 148.845 45.6671C149.238 46.2289 149.795 46.6559 150.44 46.89C151.5 47.39 152.91 48.6901 153.66 48.6801C155.11 48.6801 156.66 47.52 158.17 45.35C159.122 43.9638 159.984 42.5175 160.75 41.02C160.725 42.317 161.072 43.5941 161.75 44.7001C163.35 46.7001 165.81 48.32 167.38 48.29C168.71 48.29 169.96 47.37 171.2 45.67C171.891 44.6137 172.503 43.5072 173.03 42.36C172.954 42.9639 172.911 43.5715 172.9 44.1801C172.858 44.5847 172.949 44.992 173.16 45.3401C173.67 46.0966 174.357 46.7177 175.16 47.15C175.78 47.6561 176.527 47.9814 177.32 48.0901C177.84 48.0901 178.22 46.9701 178.21 46.0901C178.904 42.3537 180.324 38.7897 182.39 35.6C183.826 33.3074 185.385 31.0943 187.06 28.9701L187.24 29.0801C186.241 31.7246 185.461 34.4472 184.91 37.2201C184.52 39.0713 184.326 40.9582 184.33 42.85C184.332 43.4131 184.402 43.974 184.54 44.52C184.78 45.21 185.67 45.89 187.18 46.61C188.06 47 189.48 48.3601 190.46 48.3401C191.79 48.3401 194 46.2401 195.57 43.4301C196.14 42.4301 196.63 41.43 197.09 40.52C197.095 41.7377 197.441 42.9297 198.09 43.9601C199.69 45.9601 202.15 47.58 203.71 47.55C205.04 47.55 206.3 46.6301 207.53 44.9301C209.298 42.0163 210.749 38.9221 211.86 35.7001C212.052 35.2605 212.16 34.7892 212.18 34.3101C212.12 33.5201 211.59 32.91 211.18 32.91Z" fill="white"/>
<path d="M205.81 16.99C206.445 16.9393 207.062 16.7576 207.623 16.4564C208.184 16.1552 208.677 15.741 209.07 15.24C209.998 14.3316 210.536 13.098 210.57 11.8C210.585 11.4019 210.518 11.0049 210.373 10.6339C210.228 10.2629 210.007 9.92599 209.726 9.64427C209.444 9.36255 209.107 9.1421 208.736 8.99681C208.365 8.85152 207.968 8.78457 207.57 8.80003C206.948 8.82689 206.341 9.00475 205.803 9.31834C205.264 9.63193 204.81 10.0718 204.48 10.6C203.678 11.6337 203.235 12.9015 203.22 14.2101C203.27 16.0001 204.27 17.02 205.81 16.99Z" fill="white"/>
</g>
<defs>
<clipPath id="clip0_792_532">
<rect width="315.72" height="106.59" fill="white"/>
</clipPath>
</defs>
</svg>
