<svg width="228" height="77" viewBox="0 0 228 77" fill="none" xmlns="http://www.w3.org/2000/svg">
<g clip-path="url(#clip0_501_417)">
<path d="M38.4911 77.0072C59.7491 77.0072 76.9821 59.7686 76.9821 38.5036C76.9821 17.2387 59.7491 0 38.4911 0C17.233 0 0 17.2387 0 38.5036C0 59.7686 17.233 77.0072 38.4911 77.0072Z" fill="white"/>
<path d="M51.1432 47.2517C47.3158 42.455 36.5773 42.6067 31.7027 38.8864C28.9369 36.777 24.3945 30.6944 22.6324 27.6315C21.607 25.8616 21.2748 22.0329 20.9859 22.5025C20.4371 23.3838 18.2128 24.9658 18.805 25.5654C16.0897 29.7842 13.6849 33.7212 10.9696 37.94C9.64078 39.9989 8.31923 40.2589 8.49255 42.7728C8.66587 45.2651 9.51801 50.1846 10.0813 52.6119C10.4063 54.0205 9.70577 53.9627 9.56134 55.4147C9.46746 56.3755 9.26526 57.3219 9.39525 58.2899C9.66967 60.3704 11.2079 61.7068 12.8399 62.8482C14.797 64.2207 16.8551 65.5788 19.0216 66.5974C20.1554 67.132 21.3109 67.8544 22.553 68.0133C29.0307 68.8296 36.2451 67.262 42.3185 65.2032C44.2394 64.553 46.8464 64.6108 48.9334 63.7801C52.1615 62.4942 54.6457 60.0092 55.209 56.6862C56.1623 51.1165 54.3641 51.2971 51.1432 47.2517Z" fill="#FFD9BD"/>
<path d="M25.2611 50.1342C24.8928 49.9103 24.4956 49.8958 24.1201 50.0114C23.9828 50.0258 23.8384 50.062 23.7156 50.127C23.5712 50.1992 23.4557 50.3076 23.3618 50.4232C23.1524 50.5893 23.0079 50.7916 23.0079 51.0733C23.0079 51.2395 23.0657 51.3912 23.1524 51.514C23.2101 51.7235 23.3185 51.9257 23.4773 52.0847C24.0117 52.612 25.03 52.612 25.5427 52.063C26.0916 51.4851 25.9255 50.546 25.2538 50.1342H25.2611Z" fill="#FFA294"/>
<path d="M73.5447 23.7161C71.2338 22.7409 68.4896 22.8709 66.4386 24.3952C65.1893 25.3198 64.4527 26.6635 64.0916 28.1155C63.0589 26.2156 61.8674 24.3879 60.7191 22.5964C58.8921 19.7429 57.3394 18.1537 54.9563 15.7264C49.829 10.5252 42.073 7.96791 35.0103 8.16296C20.8487 8.56028 6.94718 17.5396 3.80579 31.9153C2.94642 35.8379 2.95364 39.9772 3.89967 43.8854C4.66515 47.035 6.02281 50.5531 9.21476 51.9184C9.77804 52.1568 10.4208 51.6728 10.3341 51.066C10.0019 48.6532 9.64805 46.2331 9.34474 43.8203C9.1642 42.39 9.23642 41.2053 9.93691 39.9266C10.6663 38.5902 11.4679 37.2827 12.2478 35.9751C14.5371 32.1609 16.8119 28.3178 19.1517 24.5324C18.7906 26.3601 18.805 28.2094 18.8339 30.1382C18.8772 33.1722 19.0289 36.1991 19.2311 39.2259C19.2528 39.5654 19.7511 39.486 19.7438 39.1609C19.7222 36.5025 19.585 33.8441 19.5416 31.1857C19.5055 29.1124 19.7005 27.0752 19.9099 25.0236C21.4553 29.3725 23.6724 33.4395 27.1532 36.5819C30.5257 39.6232 34.772 41.8699 38.9171 43.9937C38.5272 44.3332 38.4189 45.034 38.9171 45.3446C40.3109 46.197 41.6614 47.0856 43.0479 47.938C43.0479 48.0608 43.0768 48.1836 43.1418 48.2775C43.7989 49.2383 44.2683 50.2569 44.6367 51.3188C44.5067 51.2177 44.3767 51.1093 44.2467 51.0009C43.8134 50.647 43.2573 51.2321 43.6473 51.6366C47.1209 55.2053 51.4755 59.4457 51.36 64.8348C51.3527 65.1815 51.8943 65.2321 51.9593 64.8926C52.4865 62.2053 51.1722 59.937 50.0817 57.5603C49.1862 55.6098 48.0091 54.2589 46.5865 52.9803C47.2581 52.0267 48.4063 51.9112 49.4896 51.8606C49.4896 51.8606 49.4968 51.8606 49.504 51.8606C51.5188 51.94 53.1437 53.3487 53.837 55.2125C54.6024 57.2569 54.0031 59.2868 52.9343 61.0783C52.7176 61.4395 53.0065 61.9958 53.4687 61.7935C55.0574 61.1145 56.5667 60.3487 57.9099 59.3374C58.1555 59.5396 58.5165 59.6263 58.8126 59.4096C60.5891 58.1454 62.3873 56.679 63.4922 54.7646C64.6766 52.7058 65.2687 50.2641 65.7742 47.9597C66.222 45.9153 66.4675 43.8781 66.5181 41.841C66.5397 41.6315 66.5469 41.422 66.5614 41.2053C67.038 41.9493 67.5652 42.6284 68.1285 43.228C70.0566 45.2724 72.9814 46.6232 75.7256 45.4096C78.1954 44.3188 79.553 41.682 80.1452 39.1753C81.4595 33.6346 79.1197 26.0711 73.5302 23.7089L73.5447 23.7161Z" fill="#BF6440"/>
<path d="M18.5017 23.7017C14.862 28.0794 11.5401 32.6377 8.28316 37.3043C7.11326 38.9731 4.99734 40.9235 5.35842 43.1196C5.74116 45.4674 7.12771 48.292 8.41315 50.2569C8.81034 50.8637 9.77803 50.488 9.59749 49.7584C9.32307 48.6459 8.94755 47.5768 8.60813 46.486C8.96921 46.4209 9.30863 46.1248 9.30863 45.713C9.30863 45.0051 9.12809 44.3694 9.00532 43.6759C8.88255 42.939 8.83922 42.2022 8.832 41.4581C8.832 41.3136 8.79589 41.1908 8.73812 41.0897C8.97643 40.7863 9.21475 40.4973 9.40973 40.2156C10.1608 39.1537 10.9046 38.0917 11.6556 37.0298C14.5009 32.9844 17.1946 28.8884 19.6933 24.6263C20.1121 23.9039 19.065 23.0298 18.5017 23.7089V23.7017Z" fill="#A5513A"/>
<path d="M52.6092 45.5832C49.7784 44.1528 46.7381 43.1559 43.8783 41.7617C41.0691 40.3964 38.4116 38.771 35.9057 36.9144C30.7351 33.0785 26.2288 28.2529 22.6035 22.9361C21.8742 21.8597 20.3504 22.7772 20.8776 23.9475C23.7518 30.2395 28.1353 35.5636 33.6309 39.7607C38.686 43.6255 45.4888 47.5914 52.0243 47.7648C53.1509 47.7937 53.6492 46.1177 52.6092 45.5904V45.5832Z" fill="#A5513A"/>
<path d="M49.4317 48.0898C48.6373 47.9453 47.8285 47.9958 47.0341 47.8514C46.2109 47.6997 45.4309 47.4324 44.6799 47.0567C43.5461 46.4788 42.6506 48.0392 43.6905 48.7471C44.521 49.3106 45.5176 49.838 46.5575 50.1486C46.5142 50.582 46.7669 51.0588 47.3374 51.0588C47.778 51.0588 48.0379 50.7626 48.1029 50.4303C48.5507 50.4592 48.9984 50.4303 49.4317 50.3364C50.5222 50.098 50.5655 48.2993 49.4317 48.0898Z" fill="#A25234"/>
<path d="M70.2443 32.6812C69.1972 34.4439 70.1288 36.7628 72.1725 37.2612C74.2595 37.7669 76.2816 36.1487 76.9171 34.2344C78.5419 29.3149 72.8369 25.2333 68.6195 28.0868C66.7491 29.3582 65.4925 31.2942 64.9365 33.4253C62.7844 33.0569 60.5818 33.2591 58.4154 33.2013C55.8589 33.1363 53.3097 32.8763 50.7966 32.4139C46.0376 31.5326 41.4591 30.0878 36.83 28.7297C35.7685 28.4191 35.2991 29.8422 36.1151 30.4201C40.2531 33.3603 45.2215 35.0796 50.1972 35.9248C52.6814 36.3438 55.1945 36.6111 57.7076 36.6905C59.3831 36.7411 61.174 36.7989 62.8855 36.5388C62.6183 36.6688 62.3511 36.8133 62.0695 36.9506C61.1812 37.3912 60.2785 37.673 59.3036 37.8391C58.1915 38.0197 58.5309 39.674 59.5564 39.7318C60.1485 39.7607 60.8563 39.7462 61.5712 39.6523C61.6145 40.1941 62.2067 40.7359 62.8566 40.4108C63.326 40.1725 63.7593 39.8979 64.1782 39.5801C64.5248 39.3128 64.792 39.0166 65.0448 38.6771C65.2398 39.3128 65.507 39.9341 65.8464 40.5192C68.1934 44.5068 73.4796 45.1931 76.7799 42.1012C76.9676 41.9279 76.7799 41.5956 76.5271 41.6678C72.8802 42.802 68.7928 40.158 68.5617 36.2932C68.4678 34.6678 69.2261 32.963 70.5043 31.9516C71.0387 31.5254 71.7464 31.1136 72.4325 31.4604C72.8585 31.6699 73.1691 32.3778 73.2774 33.0352C72.8946 31.8721 71.0026 31.4387 70.2443 32.7101V32.6812Z" fill="#A5513A"/>
<path d="M17.7867 43.5677C14.2409 42.2891 11.8723 45.4315 11.8217 48.2921C11.7856 50.2354 12.2622 52.2509 13.9015 53.4789C15.8586 54.9454 18.74 54.353 20.076 52.4026C22.033 49.5419 21.1953 44.7885 17.7867 43.5605V43.5677Z" fill="white"/>
<path d="M35.068 44.9906C31.5222 43.7987 29.2547 46.9628 29.2041 49.6356C29.168 51.4561 29.9335 53.4571 31.5728 54.6057C33.5298 55.9783 36.4112 55.422 37.7472 53.6016C39.7043 50.9287 38.4694 46.1465 35.068 44.9979V44.9906Z" fill="white"/>
<path d="M26.9654 58.355C26.9221 57.3798 26.951 55.9567 26.5899 55.0393C25.9255 53.3344 22.4663 53.7606 20.9931 54.3674C20.7693 54.3891 20.5671 54.5336 20.5165 54.7864C20.4804 54.8875 20.4732 54.9959 20.5021 55.097C20.5671 56.419 20.4732 57.611 20.7982 58.9257C21.0437 59.901 21.3181 61.0785 22.1703 61.6853C22.2641 61.8153 22.358 61.9309 22.4664 62.0393C23.7373 63.3107 25.5861 62.7111 26.4166 61.2591C26.9293 60.3705 27.0087 59.3592 26.9654 58.355Z" fill="#FF7D7D"/>
<path d="M26.0627 54.3096C25.9472 53.8256 25.4128 53.7389 25.03 53.9123C24.604 54.1073 24.1346 54.324 23.6507 54.4685C22.9719 54.4396 22.3003 54.4324 21.6142 54.2735C21.412 54.2301 21.2604 54.3096 21.1665 54.4324C20.856 54.5191 20.6321 54.7936 20.6032 55.1837C20.5165 56.3539 20.6393 57.4809 20.9426 58.615C21.0148 58.8823 21.1809 59.0485 21.3831 59.1279C21.217 59.4025 21.0654 59.6914 20.9282 60.002C20.6754 60.5655 21.4192 60.9339 21.7587 60.4427C22.2353 59.7564 22.878 59.1207 23.5279 58.5934C24.1634 58.0732 25.7016 57.4086 26.3949 56.9969C27.4565 56.3684 26.301 55.3426 26.0627 54.3023V54.3096Z" fill="#FF6161"/>
<path d="M25.2033 54.1362C24.7195 54.0351 24.2139 54.2374 23.7301 54.3024C23.109 54.3891 22.4808 54.3674 21.8669 54.2301C21.4264 54.129 21.1303 54.8153 21.5781 55.0031C22.2713 55.292 23.044 55.2559 23.8023 55.1909C24.4017 55.1403 25.29 55.1403 25.6077 54.5913C25.7088 54.418 25.3983 54.1796 25.2033 54.1434V54.1362Z" fill="white"/>
<path d="M9.82131 51.8174C9.63355 50.7916 7.97981 51.2395 8.23978 52.2797C8.23978 52.3086 8.25423 52.3303 8.26145 52.3592C6.8749 54.6131 5.86388 57.3509 5.27893 59.8649C4.73731 62.2054 4.52067 64.6616 5.84222 66.7782C6.00109 67.031 6.41272 66.9154 6.39828 66.612C6.3044 63.4624 6.51383 60.0888 8.03758 57.2642C8.55753 56.3035 9.7491 55.4438 10.0885 54.4252C10.3485 53.6595 9.94408 52.5615 9.81409 51.8246L9.82131 51.8174Z" fill="#BF6440"/>
<path d="M8.26872 41.7473C8.25427 43.6905 8.37704 45.6338 8.65146 47.5626C8.94755 49.6358 9.29418 51.7235 9.90802 53.7318C10.0597 54.223 10.7241 54.0063 10.6591 53.5223C10.3846 51.4924 9.88635 49.5058 9.5686 47.4903C9.2653 45.5904 9.04143 43.6761 9.00532 41.7545C8.9981 41.285 8.28316 41.285 8.27594 41.7545L8.26872 41.7473Z" fill="#443247"/>
<path d="M20.9859 49.3035C20.9787 49.0362 20.9498 48.7761 20.9064 48.5233C20.762 48.8628 20.437 49.1229 19.9604 49.0867C18.6966 48.9784 18.8627 47.0135 20.1265 47.1218C20.2782 47.1363 20.4082 47.1724 20.5165 47.2374C19.8449 45.7348 18.5305 44.7307 17.0429 44.7741C14.9414 44.8391 13.3093 46.9774 13.3888 49.5491C13.4682 52.1208 15.2375 54.1507 17.3318 54.0857C19.4332 54.0207 21.0653 51.8824 20.9859 49.3107V49.3035Z" fill="#443247"/>
<path d="M37.3573 50.6904C36.0935 50.5821 36.2596 48.6171 37.5234 48.7255C37.6822 48.74 37.8194 48.7833 37.935 48.8483C37.4367 47.2229 36.2018 46.0382 34.6853 45.9298C32.591 45.7854 30.7495 47.7503 30.5762 50.322C30.4029 52.8865 31.9555 55.0826 34.0498 55.2271C36.144 55.3715 37.9855 53.4066 38.1589 50.8349C38.1733 50.6688 38.1733 50.5098 38.1733 50.3509C38 50.5748 37.7256 50.7193 37.3573 50.6904Z" fill="#443247"/>
<path d="M31.2694 45.9225C32.396 45.2001 33.8114 44.9617 35.068 45.3229C35.6385 45.489 36.209 45.8069 36.6567 46.2259C37.1984 46.7388 37.4511 47.4178 37.87 48.0102C38.0216 48.2197 38.426 48.2414 38.4766 47.9307C38.6355 47.0061 38.1588 46.1031 37.5811 45.4096C37.0467 44.7739 36.3173 44.3477 35.523 44.1093C33.8909 43.6108 32.0783 43.972 30.7062 44.9689C30.1429 45.3807 30.6556 46.3198 31.2694 45.9297V45.9225Z" fill="#443247"/>
<path d="M12.775 46.2911C13.3166 45.0052 14.4287 43.9794 15.8297 43.7338C17.2163 43.4882 18.5956 44.1456 19.6211 45.0414C19.9316 45.3087 20.4443 44.9691 20.2132 44.5863C19.2455 42.9681 17.4257 42.2674 15.5986 42.578C13.8005 42.8814 12.4356 44.2034 11.9012 45.9155C11.7423 46.4211 12.5656 46.7968 12.7822 46.2839L12.775 46.2911Z" fill="#443247"/>
<path d="M20.7332 54.3529C22.098 54.6564 23.5857 54.5047 24.965 54.418C25.2106 54.4035 25.4561 54.3818 25.7016 54.3674C25.7377 54.3674 25.8749 54.3818 25.8966 54.3674C25.9183 54.3457 25.8099 54.3313 25.7594 54.3241C25.6583 54.3168 25.7305 54.2085 25.7522 54.3385C25.7811 54.5263 25.9399 54.7719 26.0049 54.9598C26.1205 55.3065 26.2144 55.6677 26.2938 56.0217C26.6621 57.6182 26.9654 59.4603 26.2577 61.0062C25.8822 61.837 25.0589 62.6099 24.0912 62.5666C22.9935 62.516 22.1919 61.6058 21.7442 60.6811C21.2459 59.6553 21.0509 58.485 20.9643 57.3509C20.8776 56.2528 20.8776 55.1404 21.0004 54.0495C21.0365 53.6956 20.4876 53.7028 20.4443 54.0495C20.1699 56.2095 20.1988 58.6295 21.0004 60.6739C21.4192 61.7358 22.0908 62.7183 23.1813 63.1662C24.1779 63.5779 25.2539 63.3757 26.0699 62.6822C27.6876 61.3096 27.6659 58.8896 27.3337 56.968C27.1965 56.1589 27.016 55.3426 26.7632 54.5624C26.6115 54.1073 26.4382 53.5222 25.8749 53.5005C25.1672 53.4716 24.4162 53.6089 23.7157 53.6739C22.8058 53.7606 21.8164 53.8978 20.9065 53.7534C20.5237 53.6956 20.3504 54.259 20.7404 54.3457L20.7332 54.3529Z" fill="#443247"/>
<path d="M42.6001 48.3354C44.3261 49.5635 46.3626 50.4593 48.4929 50.5749C48.7312 50.5893 48.7818 50.2137 48.5507 50.1631C46.5287 49.708 44.5716 49.1012 42.8023 47.9959C42.5857 47.8587 42.3979 48.191 42.6001 48.3354Z" fill="#443247"/>
<path d="M38.946 56.7947C39.0255 56.7731 39.1049 56.7442 39.1771 56.7081C39.1843 56.7081 39.1988 56.6936 39.206 56.6936C39.2204 56.6792 39.2421 56.6647 39.2565 56.6575C39.271 56.643 39.2927 56.6286 39.3071 56.6141C39.3143 56.6141 39.3215 56.5997 39.3288 56.5925C39.3576 56.5636 39.3865 56.5275 39.4082 56.4913C39.4154 56.4697 39.4226 56.448 39.4371 56.4335C39.4443 56.4191 39.4588 56.3974 39.4588 56.3758C39.4732 56.3324 39.4732 56.2891 39.4732 56.2457C39.4732 56.1518 39.4515 56.0868 39.4082 56.0073C39.3793 55.9423 39.3288 55.9062 39.2782 55.8629C39.2565 55.8484 39.2421 55.834 39.2204 55.8195C39.1843 55.7978 39.1482 55.7834 39.1121 55.7762C39.076 55.7617 39.0327 55.7617 38.9893 55.7617C38.9677 55.7617 38.946 55.7617 38.9316 55.7617C38.9171 55.7617 38.8882 55.7617 38.8738 55.7689C38.8449 55.7762 38.8088 55.7906 38.7799 55.8051H38.7727L38.7005 55.8629C38.7005 55.8629 38.6499 55.9206 38.6283 55.9568C38.6066 55.9929 38.5922 56.0362 38.5849 56.0868C38.5777 56.1301 38.5777 56.1807 38.5849 56.2241L38.621 56.3035C38.6427 56.3469 38.6716 56.3758 38.7077 56.3974C38.7294 56.4191 38.751 56.4335 38.7871 56.4408C38.8305 56.4624 38.8738 56.4697 38.9171 56.4697L39.011 56.4552C39.0688 56.4408 39.1193 56.4119 39.1627 56.3685L39.0905 56.4191H39.1049L39.0182 56.448H38.9388L38.9532 56.4552L38.8594 56.4408H38.8738L38.7871 56.4046C38.7871 56.4046 38.8016 56.4119 38.8088 56.4191L38.7366 56.3613C38.7366 56.3613 38.751 56.3758 38.7583 56.383L38.7005 56.3107C38.7005 56.3107 38.7149 56.3324 38.7221 56.3469L38.686 56.2602C38.686 56.2602 38.7005 56.2891 38.7005 56.3035L38.686 56.2024C38.686 56.2024 38.686 56.2168 38.686 56.2313L38.7005 56.1301C38.7005 56.1301 38.7005 56.1446 38.7005 56.1518L38.7366 56.0579C38.7366 56.0579 38.7221 56.0796 38.7149 56.094L38.7727 56.0146C38.7727 56.0146 38.751 56.0362 38.7366 56.0507L38.816 55.9929C38.816 55.9929 38.7799 56.0146 38.7583 56.029L38.8521 55.9929C38.8088 56.0146 38.7583 56.0218 38.7077 56.029C38.6572 56.0434 38.6138 56.0651 38.5705 56.1012C38.5272 56.1301 38.4911 56.1663 38.4694 56.2096C38.4405 56.2529 38.4261 56.3035 38.4261 56.3541C38.4116 56.4046 38.4188 56.4624 38.4261 56.513L38.4694 56.6069C38.5055 56.6647 38.5488 56.7153 38.6138 56.7514L38.7077 56.7947C38.7799 56.8164 38.8449 56.8164 38.9171 56.7947H38.946Z" fill="#FF7486"/>
<path d="M40.6287 56.9246C40.8381 56.7657 41.0403 56.5923 41.2208 56.39C41.4014 56.195 41.5314 55.9421 41.6397 55.7037C41.6758 55.6315 41.6902 55.552 41.6686 55.4726C41.6469 55.4003 41.5964 55.3281 41.5314 55.292C41.3869 55.2197 41.1992 55.2559 41.1197 55.4003C41.062 55.5015 40.997 55.6098 40.932 55.7037C40.8959 55.7543 40.867 55.7977 40.8309 55.8482C40.802 55.8843 40.8236 55.8554 40.8381 55.8338C40.8309 55.841 40.8236 55.8554 40.8164 55.8627C40.7803 55.906 40.7514 55.9494 40.7225 55.9927C40.6937 56.0433 40.6576 56.0866 40.6214 56.1372L40.5998 56.1661C40.5998 56.1661 40.5565 56.2239 40.5853 56.1805C40.6142 56.1372 40.5781 56.195 40.5709 56.195L40.5492 56.2239C40.4698 56.3178 40.3904 56.4117 40.3037 56.4984C40.2098 56.5923 40.2026 56.7512 40.282 56.8523C40.3542 56.9463 40.5276 57.0041 40.6287 56.9246Z" fill="#FF7486"/>
<path d="M11.8 56.8813C11.8722 56.7223 11.9661 56.5706 12.0745 56.4334L12.0167 56.5056C12.0817 56.4189 12.1539 56.3395 12.2333 56.26C12.3128 56.1878 12.385 56.1083 12.4716 56.0361C12.5294 55.9855 12.5727 55.8699 12.5727 55.7977C12.5727 55.7182 12.5439 55.6532 12.5005 55.5954C12.3994 55.4654 12.2117 55.422 12.06 55.5087C11.865 55.6243 11.6845 55.7688 11.5328 55.9349C11.3812 56.1083 11.2512 56.2961 11.1501 56.4984C11.1068 56.5923 11.0851 56.6862 11.114 56.7874C11.1356 56.8741 11.2079 56.968 11.2873 57.0113C11.374 57.0546 11.4823 57.0835 11.5762 57.0474C11.6628 57.0185 11.7639 56.9607 11.8 56.8741V56.8813Z" fill="#FF7486"/>
<path d="M12.8039 57.0619L13.1938 56.4985C13.3238 56.3106 13.4466 56.1156 13.5621 55.9206C13.6199 55.8266 13.5838 55.6894 13.4899 55.6316C13.3816 55.5738 13.2733 55.6099 13.2011 55.7038C13.0711 55.8917 12.9411 56.0795 12.8255 56.2745L12.4645 56.8597C12.4067 56.9463 12.4428 57.0836 12.5367 57.1269C12.6378 57.1775 12.7461 57.1486 12.8039 57.0547V57.0619Z" fill="#FF7486"/>
<path d="M12.8038 23.3117C12.6016 23.3117 12.3778 23.3406 12.125 23.3911C8.7742 24.0991 8.507 27.7905 8.28313 29.4592C7.36599 30.2539 6.49217 31.1063 5.66891 32.0237C7.04823 28.968 6.72326 26.8225 6.15998 26.8225C6.01555 26.8225 5.86389 26.9525 5.71224 27.2415C3.86351 30.9835 4.75177 31.547 5.13451 32.4861C4.49901 33.2663 3.78408 34.3354 3.21357 35.1951C3.21357 35.1951 2.9897 35.7657 3.03303 36.7554C3.73353 35.5563 4.88176 34.1187 5.64725 33.1723C5.89278 33.4902 6.54272 33.9598 7.54652 33.9598C8.41312 33.9598 9.53246 33.613 10.8901 32.515C12.2044 31.4531 11.8867 30.9907 10.8829 30.9907C9.72022 30.9907 7.64041 31.612 6.12387 32.6233C6.93269 31.7276 7.78484 30.8968 8.68754 30.1238C8.74531 30.1238 8.80308 30.1238 8.86085 30.1238C12.3056 30.1238 16.0897 23.3044 12.8111 23.3044L12.8038 23.3117Z" fill="#17FFDD"/>
<path d="M13.2732 39.9412C13.3599 39.8906 13.4466 39.8329 13.5404 39.7823C13.5693 39.7678 13.5982 39.7462 13.6343 39.7317C13.6343 39.7317 13.6993 39.6956 13.7138 39.6884C13.8799 39.6017 14.0459 39.5294 14.212 39.4572C14.5731 39.3055 14.9414 39.1755 15.3169 39.0816C15.3531 39.0743 15.3964 39.0599 15.4325 39.0527L15.5119 39.031C15.5986 39.0093 15.678 38.9949 15.7647 38.9804C15.9524 38.9443 16.1474 38.9154 16.3424 38.8937C16.754 38.8359 17.1512 38.7998 17.5556 38.6842C17.9384 38.5759 17.9889 37.9041 17.5845 37.7813C17.3246 37.7018 17.1079 37.6657 16.8407 37.6584C16.6313 37.6584 16.4291 37.6657 16.2269 37.6946C15.7936 37.7451 15.3603 37.8463 14.9342 37.9691C14.1182 38.2075 13.3455 38.5687 12.6305 39.031C12.3778 39.1971 12.3272 39.5728 12.4933 39.8112C12.6811 40.0712 13.0133 40.1001 13.2732 39.9484V39.9412Z" fill="#443247"/>
<path d="M58.7765 38.8577C60.6035 38.6482 62.4884 38.3231 64.2143 37.6802C64.4599 37.5862 64.366 37.2034 64.106 37.2756C62.3367 37.7379 60.5963 38.1858 58.7765 38.3953C58.4876 38.4314 58.4876 38.8866 58.7765 38.8504V38.8577Z" fill="#443247"/>
<path d="M80.0007 31.4169C79.748 30.4995 79.4086 29.6037 78.9825 28.7513C79.0258 26.0857 77.2926 23.5501 74.9095 22.3942C72.1653 21.065 68.7856 21.6213 66.3375 23.3406C65.572 23.8751 64.8715 24.5397 64.3371 25.3055C63.8316 20.4871 60.6974 16.0805 56.2562 14.0072C54.7974 13.3282 53.2448 12.8947 51.6416 12.7214C51.5982 12.7214 51.5621 12.7214 51.5332 12.743C46.7092 9.72343 41.0547 8.09804 35.3424 8.09082C28.453 8.09082 21.4264 10.4603 15.7792 14.3684C10.1896 18.2405 5.66171 23.8029 3.45912 30.2755C3.19192 31.0557 2.96805 31.8504 2.78029 32.6522C2.72252 32.6378 2.66475 32.6522 2.64308 32.71C1.40819 35.6285 0.895458 38.8215 1.16988 41.9783C1.30709 43.5459 1.62484 45.0919 2.13757 46.5728C2.63586 48.0176 3.29303 49.4407 4.32571 50.582C5.27896 51.6367 6.54274 52.388 7.95095 52.5253C6.54274 55.0753 5.1923 57.6976 4.6218 60.58C4.33293 62.0464 4.15239 63.6718 4.61458 65.1238C4.9901 66.3158 5.88558 67.4138 7.17102 67.58C7.37322 67.6089 7.45988 67.2766 7.27934 67.1899C7.13491 67.1177 6.9977 67.0454 6.86771 66.966C6.07334 65.3911 5.84947 63.6791 6.16722 61.9381C6.51385 60.0454 7.35878 58.2972 8.19648 56.5707C8.32647 56.3034 7.92929 56.065 7.79207 56.3323C6.86049 58.1672 5.88558 60.0454 5.55338 62.097C5.35118 63.3323 5.36562 64.6904 5.76281 65.8968C4.66513 64.2498 4.96843 61.8008 5.44506 59.8937C6.08778 57.3003 7.30101 54.8875 8.52146 52.5253C8.60089 52.4964 8.62978 52.4169 8.61534 52.3375C8.66589 52.2363 8.71644 52.1352 8.76699 52.0413C8.91142 51.7596 8.49257 51.5139 8.34092 51.7957C8.27592 51.9113 8.21093 52.0341 8.14593 52.1496C5.20675 51.7957 3.48079 49.0217 2.55642 46.4427C1.55984 43.6687 1.24209 40.6708 1.58873 37.7451C1.76205 36.322 2.10146 34.9205 2.59253 33.5769C1.56707 38.9082 2.33255 44.5067 5.40895 49.1156C5.88558 49.8235 6.40553 50.4954 6.96159 51.1383C7.40933 51.6512 8.13149 50.9071 7.70542 50.3942C5.63282 47.9092 4.16684 45.0124 3.53856 41.8266C3.2497 40.3674 3.14859 38.8793 3.19192 37.3984C3.36524 37.355 3.52412 37.2467 3.618 37.0805C4.1885 36.1053 5.0912 34.935 5.74114 34.1259C6.18888 34.4076 6.80272 34.6244 7.55376 34.6244C8.74532 34.6244 10.0163 34.0898 11.3234 33.0279C11.9084 32.5511 12.6594 31.8287 12.385 31.063C12.1611 30.4272 11.4462 30.2972 10.8829 30.2972C10.8324 30.2972 10.7818 30.2972 10.724 30.2972C11.4823 29.9071 12.2334 29.2931 12.9194 28.4985C14.046 27.1837 14.7465 25.6594 14.7465 24.5253C14.7465 23.3478 14.0026 22.6182 12.8111 22.6182C12.5583 22.6182 12.2839 22.6471 11.9878 22.7121C8.34814 23.485 7.87873 27.2559 7.64764 29.0691V29.1053C7.48877 29.2353 7.34434 29.3726 7.19268 29.5098C7.44544 28.1517 7.31545 27.1331 6.99048 26.6275C6.83883 26.3891 6.6294 26.2301 6.39109 26.1723C8.4348 22.4231 11.3018 19.1073 14.6309 16.4634C19.7727 12.3818 26.3371 9.73066 32.8871 9.19608C39.9209 8.61817 47.1281 10.6048 52.8403 14.7657C57.8377 18.4138 61.5929 23.7162 63.5716 29.5748C63.5716 29.5893 63.5788 29.5965 63.5861 29.6109C63.7233 30.0227 63.8533 30.4345 63.976 30.8462C64.2071 31.6336 64.3949 32.4283 64.561 33.2301C64.6404 33.6058 65.1893 33.4396 65.1315 33.0712C64.9365 31.9082 64.6765 30.7596 64.3443 29.6398C64.366 29.5893 64.3804 29.5315 64.3949 29.4665V29.387C64.4093 29.3364 64.4166 29.2859 64.4238 29.2425C64.4382 29.1558 64.4527 29.0764 64.4671 28.9897C64.5032 28.8019 64.5321 28.6068 64.5682 28.419C64.6404 28.0433 64.7343 27.6822 64.8498 27.321C64.8932 27.1837 64.8498 27.0175 64.756 26.902C64.7776 26.8875 64.7993 26.8658 64.821 26.8297C66.1281 24.4747 69.0312 23.4489 71.6093 23.9546C74.4257 24.5036 76.6644 26.6419 77.9209 29.1486C79.2786 31.8576 79.7408 35.2239 79.3652 38.2219C79.0331 40.902 77.5526 43.7337 74.8084 44.579C71.8259 45.4964 69.0239 43.3798 67.5724 40.9309C67.1969 40.3024 66.8575 39.6089 66.5758 38.872C66.5108 38.1713 66.4314 37.4706 66.3375 36.7626C66.3086 36.5387 66.1064 36.4231 65.9259 36.4376C65.7237 35.0433 65.8175 33.6347 66.3953 32.3849C67.2474 30.5356 69.3633 28.9319 71.4143 28.7874C72.4542 28.7152 73.4508 29.1053 74.0502 29.9866C74.3607 30.4417 74.4834 31.0196 74.5845 31.5831C74.8445 32.9845 74.924 34.6966 74.3679 36.0403C74.2668 36.2859 74.1296 36.5243 73.9491 36.6904C73.7974 36.8277 73.6385 36.8999 73.4652 36.9071C72.6275 36.9577 71.927 36.2497 71.8259 35.4334C71.7537 34.8339 71.862 34.227 72.0064 33.6491C72.1653 33.0423 71.241 32.7895 71.0676 33.3891C70.7138 34.6316 70.5116 36.322 71.602 37.2828C72.2448 37.8535 73.2774 38.1858 74.1007 37.8462C75.6895 37.1889 75.8194 34.805 75.7906 33.3529C75.7472 31.5975 75.4873 29.6037 73.9707 28.4912C71.8187 26.9164 68.8939 28.2312 67.1535 29.806C64.7199 32.0021 64.4815 35.3395 65.3842 38.3375C65.4998 38.7131 65.6298 39.096 65.7742 39.4716C65.7742 39.7895 65.7814 40.1146 65.7887 40.4324C65.7742 40.483 65.767 40.5408 65.7887 40.5986C65.7887 43.6687 65.4709 46.7534 64.5538 49.6574C63.4272 53.2188 61.1813 56.2456 58.2926 58.5862C56.74 59.8431 54.9924 60.8834 53.0931 61.5047C55.4762 58.2972 55.1801 52.6481 50.8689 51.3911C50.9194 51.29 50.9411 51.1816 50.9411 51.0661C50.9411 51.0299 50.9194 50.4809 50.8039 49.5924C51.0566 49.5996 51.3021 49.6068 51.5549 49.5924C51.8438 49.5851 51.8365 49.1589 51.5549 49.1517C51.2805 49.1373 51.0061 49.1156 50.7389 49.0939C50.6955 48.8266 50.6522 48.5377 50.5944 48.227C51.331 47.9959 52.4287 47.5697 53.4542 46.8473C55.2379 45.5903 56.1839 43.8566 56.1984 41.8339C56.1984 40.9742 55.9962 40.3241 55.5846 39.9123C55.274 39.6017 54.8624 39.4355 54.393 39.4355C53.3747 39.4355 52.0604 40.2374 50.8905 41.5738C50.2839 42.2673 49.7856 43.0186 49.4173 43.7843C49.1934 43.1269 48.9407 42.4768 48.6735 41.8339L48.6518 41.7833C49.2801 41.4438 50.1034 40.8947 50.8472 40.1001C51.4466 39.4572 51.9088 38.742 52.2121 37.9763C52.4648 37.3478 52.602 36.6832 52.6526 35.9897C54.1041 36.2714 55.5557 36.5026 57.0216 36.6832C59.152 36.9505 61.2824 37.0733 63.4272 37.0083C63.7955 36.9938 63.7883 36.4737 63.4272 36.4376C59.8236 36.1414 56.22 35.8163 52.6598 35.1806C52.6598 35.1156 52.6598 35.0506 52.6598 34.9856C52.6165 34.3282 52.4793 33.8225 52.241 33.4541C51.9593 33.0134 51.5332 32.7678 51.0422 32.7678C50.4283 32.7678 49.7639 33.1435 49.0707 33.8875C48.9407 34.0248 48.8107 34.1837 48.6879 34.3426C48.0669 34.1909 47.453 34.0392 46.8392 33.8731C46.9186 33.7647 46.9981 33.6564 47.0703 33.5408C48.0524 31.9371 48.3196 30.1889 47.8574 28.3468C47.4603 26.7647 46.6948 26.4324 46.1243 26.4324C45.5538 26.4324 45.0121 26.7647 44.485 27.4149C43.5895 28.5201 42.8168 30.5139 42.6723 32.4716C41.9357 31.6698 41.1558 30.8968 40.3326 30.1672C40.6359 29.5315 40.9897 28.5779 41.1197 27.4149C41.3364 25.4644 40.8453 23.6151 39.6609 21.9174C39.0182 20.9928 38.4044 20.5449 37.7833 20.5449C37.4945 20.5449 36.9601 20.646 36.5773 21.3468C35.9491 22.4954 35.9779 25.0093 36.6784 27.3065C36.2379 27.0103 35.7902 26.7214 35.3352 26.4396C35.1402 25.5366 34.7142 24.0702 33.8259 22.6904C33.2626 21.8235 32.5838 21.1011 31.8111 20.5449C30.8867 19.8875 29.8251 19.4613 28.6408 19.2807C28.3014 19.2301 27.9836 19.2012 27.6948 19.2012C26.9943 19.2012 26.0627 19.3674 25.6077 20.1476C25.3189 20.646 25.1528 21.549 25.9905 23.001C26.6838 24.2002 27.9114 25.4933 29.2835 26.4541C31.3128 27.8844 32.9521 28.1806 33.9631 28.1806H33.992C34.1798 28.2962 34.3675 28.4118 34.5553 28.5346C34.3675 28.5274 34.1942 28.5201 34.0281 28.5201C32.8799 28.5201 31.7605 28.6935 30.8723 28.9969C29.7963 29.3726 29.1391 29.9216 28.9585 30.5934C28.8069 31.1641 28.9369 32.0237 30.4101 32.8689C31.515 33.4974 32.6849 33.8225 33.8909 33.8225C36.2162 33.8225 38.0866 32.6378 39.0182 31.9154C39.5598 32.4066 40.087 32.9195 40.5925 33.4396C40.0726 33.3385 39.531 33.2879 38.9893 33.2879C37.35 33.2879 36.2379 33.7647 35.9418 34.5882C35.7757 35.0433 35.7974 35.7657 36.8229 36.6109C37.8339 37.4417 38.9893 37.8607 40.2676 37.8607C41.618 37.8607 42.7879 37.3839 43.5245 37.001C43.9795 37.644 44.4055 38.3086 44.8027 38.9876C43.8495 38.6553 42.8601 38.5181 42.073 38.5181C40.5275 38.5181 39.4371 38.9804 39.0832 39.7967C38.8882 40.2518 38.8377 40.9814 39.7187 41.9133C40.4264 42.6574 41.2569 43.1414 42.2102 43.3653C41.5747 43.5459 41.2353 43.8855 41.0619 44.1889C41.0403 44.225 41.0258 44.2683 41.0042 44.3117C38.5272 43.3653 36.1946 42.0072 34.0642 40.4469C34.3747 40.3818 34.6781 40.3168 34.9886 40.2663C35.4508 40.1868 35.3063 39.515 34.8803 39.4933C34.2303 39.4572 33.5731 39.4861 32.9376 39.5872C29.4929 36.871 26.4815 33.5335 24.1995 29.7988C22.8419 27.581 21.7658 25.1971 21.0726 22.6904C20.9715 22.3292 20.4154 22.4809 20.5165 22.8421C21.7514 27.451 24.2717 31.677 27.3481 35.2962C28.7275 36.9216 30.2584 38.4531 31.9194 39.8256C29.7818 39.4138 27.8464 38.2941 26.2577 36.7699C24.0984 34.6966 22.7624 32.0382 21.8381 29.2209C21.2892 27.5377 20.8776 25.8111 20.4732 24.0846C20.4732 24.0557 20.4804 24.0268 20.4876 23.9979C20.5021 23.9185 20.466 23.8607 20.4154 23.8246L20.401 23.7523C20.3504 23.5428 20.0327 23.6295 20.0832 23.839L20.1338 24.0774C19.621 27.1476 19.3611 30.2828 19.3827 33.3963C19.3972 34.9928 19.4549 36.6182 19.6283 38.2219C19.4044 37.1238 19.2455 36.0041 19.13 34.9061C18.8628 32.4211 18.8411 29.8999 19.0866 27.4076C19.1733 26.5263 19.2961 25.645 19.4694 24.7709C19.6138 24.547 19.7655 24.3158 19.9171 24.0919C20.0543 23.8824 19.9171 23.6873 19.7294 23.6367C19.7799 23.4417 19.4838 23.355 19.4333 23.5501C19.4116 23.6151 19.3972 23.6801 19.3827 23.7451C19.3827 23.7451 19.3683 23.7596 19.3683 23.7668C17.5051 26.4035 15.8225 29.1703 14.0749 31.8865C12.5222 34.2993 10.8901 36.7915 8.82476 38.807C8.59367 39.0382 8.93309 39.3488 9.1714 39.1538C9.82856 38.6336 10.4352 38.063 11.0057 37.4489C10.9551 37.5284 10.8974 37.6006 10.8468 37.6801C10.233 38.5542 9.60469 39.4138 8.96919 40.2663C8.50701 40.8803 8.03039 41.5377 7.45266 42.0506C7.31545 42.1734 7.49599 42.419 7.65486 42.3106C9.13529 41.2704 10.1752 39.5583 11.1718 38.0846C12.3417 36.3509 13.4466 34.581 14.5948 32.84C14.6454 32.7678 14.6381 32.6956 14.5948 32.645C14.6381 32.58 14.6815 32.515 14.7176 32.45C16.1908 30.1672 17.534 27.8122 18.9855 25.5222C18.6822 27.1981 18.545 28.9174 18.5017 30.6151C18.4367 33.2012 18.61 35.8019 19.1733 38.3302C19.3972 39.3416 19.7077 40.3385 20.1193 41.2848C20.2277 41.7977 20.3576 42.3034 20.5021 42.8091C20.5598 43.0114 20.8487 42.9247 20.8126 42.7224C20.7693 42.4696 20.7259 42.2167 20.6826 41.9567C20.7259 41.9061 20.7548 41.8339 20.7187 41.7544C20.6826 41.6677 20.6465 41.581 20.6104 41.4943C19.7799 36.0908 19.6716 30.4923 20.3504 25.0599C21.0004 28.0217 21.7442 31.0052 23.2391 33.6564C24.5823 36.0403 26.5393 38.1569 29.0091 39.3777C29.659 39.6956 30.3307 39.934 31.0167 40.1073C30.5979 40.259 30.179 40.4324 29.7746 40.6202C29.5146 40.743 29.4424 41.1187 29.5796 41.3571C29.7385 41.6316 30.049 41.6677 30.3162 41.5521C31.0528 41.2198 31.8255 40.967 32.6055 40.7792C32.7427 40.743 32.8871 40.7141 33.0243 40.6852C34.7792 42.0217 36.6568 43.1847 38.6427 44.1022C39.3721 44.4345 40.1159 44.7379 40.867 44.9979C40.867 45.4169 41.0042 45.8359 41.1703 46.1827C40.672 45.9371 40.1737 45.6698 39.6898 45.388C39.4154 45.2291 39.1699 45.6553 39.4443 45.8142C40.1592 46.2332 40.9031 46.6089 41.6541 46.9556C42.7229 48.4221 44.3911 49.195 46.5359 49.195C46.9692 49.195 47.3808 49.1589 47.7563 49.1156C48.0235 49.1806 48.2907 49.2384 48.5579 49.2962C48.7313 50.4303 48.7601 51.1094 48.7601 51.1166C48.7601 51.1527 48.7674 51.1889 48.7746 51.225C47.778 51.3767 46.8536 51.839 46.1026 52.547C45.3082 51.7451 44.5355 50.9288 43.8206 50.0547C43.6617 49.8597 43.3223 50.1197 43.4739 50.322C44.1744 51.2394 44.9471 52.0846 45.7415 52.9226C45.6404 53.0382 45.5393 53.161 45.4454 53.291C45.2071 53.0599 44.9688 52.8287 44.7233 52.5975C44.5572 52.4386 44.3044 52.6914 44.4705 52.8504C45.9293 54.2879 47.3592 55.7977 48.5435 57.4665C48.3485 57.6398 48.1535 57.8132 47.9658 57.9938C47.7997 58.1527 47.8069 58.4417 47.9658 58.6006C48.1391 58.774 48.3991 58.7523 48.5724 58.6006C48.7313 58.4634 48.8901 58.3333 49.049 58.2105C49.3884 58.7379 49.7134 59.2797 49.995 59.8504C50.3417 60.5511 50.6305 61.2807 50.8544 62.0392C49.7567 62.8339 48.4568 63.3323 47.1497 63.6574C45.0844 64.1703 42.9684 64.1703 40.867 64.3581C40.542 64.387 40.412 64.9071 40.7803 64.9794C40.9897 65.0227 41.1991 65.0516 41.4086 65.0805C39.3649 65.7957 37.2273 66.3086 35.1186 66.7276C32.2444 67.2983 29.3196 67.7028 26.3949 67.7678C26.3732 67.7678 26.3588 67.7678 26.3371 67.7678C26.2649 67.7678 26.1927 67.7678 26.1205 67.7678C25.8388 67.7606 25.5644 67.7678 25.29 67.7534C24.7123 67.7245 24.1345 67.7028 23.564 67.6161C23.564 67.6161 23.564 67.6161 23.5568 67.6161C22.1197 67.0526 20.6321 66.5903 19.2022 65.9979C17.7145 65.3839 16.2774 64.6398 14.9414 63.7441C12.84 62.3426 10.7529 60.3705 10.1969 57.806C9.90078 56.4479 10.168 55.0392 10.7385 53.7895C10.9335 53.356 10.3413 52.9876 10.0885 53.4066C8.64422 55.8339 8.78865 58.6656 10.4063 60.9773C12.2406 63.5924 15.1364 65.3478 18.0178 66.5831C19.8521 67.3705 21.7947 68.0568 23.7951 68.2229C24.2862 68.3241 24.7845 68.3963 25.2828 68.3891C25.5427 68.3891 25.8099 68.3746 26.0699 68.3457C26.1277 68.4541 26.236 68.5336 26.3949 68.5336C29.3702 68.4974 32.3527 68.1218 35.2774 67.58C37.7906 67.1177 40.4914 66.6264 42.7301 65.3333C42.7879 65.2972 42.8312 65.2539 42.8601 65.1961C44.3116 65.2394 45.7776 65.0661 47.1858 64.7699C48.5579 64.4809 49.9445 64.0114 51.1433 63.2528C51.201 63.549 51.2588 63.8524 51.2949 64.1558C51.331 64.4665 51.3527 64.7771 51.3599 65.0877C51.2949 65.2683 51.2227 65.4489 51.1433 65.6295C50.5367 66.966 49.4679 67.999 48.0741 68.483C47.8286 68.5697 47.9297 68.9092 48.1824 68.8658C49.5112 68.6347 50.5583 67.8039 51.2805 66.7131C51.201 67.3344 51.0711 67.9484 50.905 68.5624C50.8544 68.7575 51.1505 68.902 51.2444 68.7069C51.7354 67.6595 51.9521 66.5325 51.9593 65.3839C52.2554 64.5965 52.4071 63.7585 52.3998 62.9567C52.3998 62.7399 52.3854 62.5305 52.3709 62.3137C52.4504 62.2343 52.537 62.1693 52.6093 62.0898C52.667 62.032 52.7248 61.967 52.7754 61.902C52.8187 62.0103 52.927 62.0898 53.0787 62.0609C56.8844 61.2807 60.1197 58.9474 62.4812 55.9061C65.0448 52.6048 66.2725 48.6388 66.648 44.5139C66.7275 43.6326 66.7563 42.7513 66.7491 41.8772C68.3234 44.2972 68.9806 47.3096 68.5401 50.1631C68.0346 53.4355 66.1136 56.3179 63.3405 58.1166C61.8096 59.1063 60.1053 59.7203 58.2999 59.9949C57.9893 60.0454 58.0616 60.5583 58.3721 60.5366C61.7879 60.2983 64.9726 58.3478 67.0163 55.6388C69.1828 52.7565 69.8327 49.0361 68.9734 45.5542C68.8001 44.8607 68.5762 44.1889 68.2873 43.5387C69.2117 44.5067 70.3383 45.258 71.6742 45.6625C74.9023 46.6306 78.0654 44.8029 79.5386 41.9133C81.149 38.7492 80.9395 34.7327 80.0224 31.3953L80.0007 31.4169ZM3.87075 32.5583C3.93575 32.3055 4.00796 32.0599 4.08018 31.807C4.15962 32.031 4.2535 32.226 4.34016 32.3994C4.13795 32.6667 3.92853 32.9556 3.7191 33.2518C3.76965 33.0206 3.8202 32.7895 3.87797 32.5583H3.87075ZM5.67615 32.0237C6.49941 31.1063 7.366 30.2467 8.29036 29.4592C8.50701 27.7905 8.78143 24.0991 12.1322 23.3911C12.385 23.3406 12.6161 23.3117 12.8111 23.3117C16.0897 23.3117 12.3056 30.1311 8.86087 30.1311C8.8031 30.1311 8.74532 30.1311 8.68755 30.1311C7.78485 30.904 6.93271 31.7348 6.12389 32.6306C7.64764 31.612 9.72024 30.9979 10.8829 30.9979C11.8867 30.9979 12.2045 31.4603 10.8901 32.5222C9.53248 33.6202 8.41313 33.967 7.54654 33.967C6.54274 33.967 5.8928 33.4974 5.64726 33.1796C4.95399 34.032 3.95019 35.289 3.2497 36.4087C3.2858 35.903 3.33635 35.4045 3.41579 34.9061C3.95019 34.1042 4.57125 33.1868 5.14175 32.4933C4.88177 31.8504 4.38349 31.3808 4.69401 29.936C5.07676 28.8885 5.51727 27.87 6.02279 26.8803C6.07334 26.8514 6.12389 26.8297 6.16722 26.8297C6.73772 26.8297 7.05547 28.9752 5.67615 32.031V32.0237ZM63.4705 27.1331C61.7157 22.6832 58.892 18.6739 55.2668 15.5098C54.3135 14.6791 53.3025 13.9133 52.2554 13.2126C57.6788 14.1662 62.1562 18.3271 63.42 23.7234C63.615 24.5686 63.7305 25.4211 63.7811 26.2807C63.6583 26.5552 63.5427 26.837 63.4705 27.1331ZM63.8027 27.6388C63.7811 27.711 63.7594 27.7761 63.7449 27.8483C63.7305 27.805 63.7161 27.7616 63.7016 27.7255C63.7522 27.7038 63.7883 27.6605 63.8027 27.5882V27.6388ZM73.9779 23.7307C71.1832 22.4737 68.0418 22.8349 65.7598 24.9371C65.2326 25.4211 64.7993 25.999 64.4743 26.6347C64.4527 26.6708 64.4454 26.7141 64.4527 26.7503C64.4382 26.7503 64.4238 26.7503 64.4093 26.7503C64.4093 26.5046 64.4093 26.2663 64.3949 26.0206C65.5287 24.0124 67.9046 22.6832 70.0927 22.2931C72.8586 21.8019 75.7111 22.8132 77.3215 25.1682C77.8343 25.9195 78.2026 26.7647 78.3759 27.6533C77.3071 25.9701 75.8483 24.5686 73.9852 23.7307H73.9779ZM51.0422 33.4685C51.5405 33.4685 51.9088 33.9309 51.981 35.0506C51.981 35.0578 51.981 35.065 51.981 35.0722C51.1216 34.9133 50.2695 34.7327 49.4245 34.5377C49.995 33.8803 50.5728 33.4685 51.0422 33.4685ZM48.233 34.9928C47.8647 35.5562 47.5325 36.1847 47.2653 36.8277C47.1136 37.1961 46.9547 37.6512 46.8248 38.1496C46.3265 37.2972 45.7921 36.4592 45.2288 35.6574C45.5826 35.3612 45.9943 34.9639 46.3915 34.4799C47.0053 34.6605 47.6191 34.8266 48.233 34.9928ZM46.117 27.1331C46.5503 27.1331 46.9403 27.5449 47.1931 28.5346C47.7491 30.7523 47.0414 32.4861 46.1532 33.6997C45.2071 33.4324 44.2683 33.1507 43.3367 32.84C43.4378 30.0877 44.9471 27.1259 46.117 27.1259V27.1331ZM39.401 31.4025C39.2782 31.2869 39.1554 31.1713 39.0254 31.063C38.9893 31.0991 38.9388 31.1424 38.8738 31.193C37.8339 30.7596 36.8012 30.3044 35.783 29.8204C35.4652 29.6687 35.1836 30.1455 35.5013 30.2972C36.4401 30.7523 37.3934 31.1858 38.3611 31.5975C37.4584 32.2549 35.8407 33.1868 33.8909 33.1868C32.9088 33.1868 31.8472 32.9484 30.7495 32.3271C27.9259 30.7162 30.7639 29.2497 34.0353 29.2497C35.2991 29.2497 36.6279 29.4665 37.7183 29.9866C36.6062 29.1125 35.4291 28.3034 34.1798 27.5521C34.1075 27.5521 34.0353 27.5521 33.9703 27.5521C29.1535 27.5521 23.0874 19.9236 27.702 19.9236C27.9475 19.9236 28.2292 19.9453 28.5469 19.9959C33.1687 20.6894 34.4325 25.2694 34.7358 26.8947C36.0068 27.6677 37.2056 28.4985 38.3394 29.3942C36.4329 26.418 36.3751 21.2528 37.7833 21.2528C38.1372 21.2528 38.5777 21.5779 39.1049 22.3292C41.6541 25.9773 40.0148 29.4303 39.4876 30.3406C40.1665 30.9329 40.8236 31.547 41.4447 32.1827C40.7586 31.9371 40.0798 31.6698 39.401 31.3953V31.4025ZM43.4162 47.7503C44.0661 48.0031 44.7161 48.2415 45.3804 48.4582C44.7088 48.3498 44.0372 48.1331 43.4162 47.7503ZM47.4025 48.5016C46.7742 48.3426 46.1459 48.1548 45.5321 47.9598C44.4344 47.6058 43.344 47.2012 42.2896 46.7317C42.138 46.5366 41.9935 46.3271 41.8635 46.096C41.683 45.7781 41.5819 45.4964 41.5458 45.2508C42.889 45.6698 44.2683 45.966 45.6838 46.0888C45.9726 46.1104 46.0448 45.6192 45.756 45.5831C44.355 45.388 42.9829 45.0413 41.6469 44.5717C41.8852 44.1527 42.4701 43.9577 43.214 43.9577C44.9038 43.9577 47.4242 44.9474 48.659 46.5728C48.3413 45.3375 47.8863 43.9216 47.2508 42.4045C47.1714 42.2167 47.092 42.0289 47.0053 41.8411C46.5287 42.1084 45.0555 42.8597 43.4306 42.8597C42.3402 42.8597 41.1847 42.5274 40.2026 41.4871C38.8232 40.0279 40.1737 39.2405 42.0657 39.2405C43.5895 39.2405 45.4671 39.7534 46.5359 40.8442C45.7343 39.1971 44.7883 37.6295 43.705 36.1486C43.2717 36.4303 41.8924 37.225 40.2603 37.225C39.2999 37.225 38.2455 36.9505 37.2489 36.1269C35.6313 34.7977 37.0251 34.0103 38.9821 34.0103C40.282 34.0103 41.8274 34.3571 42.9179 35.1156C42.7662 34.9278 42.6146 34.7327 42.4557 34.5449C41.8635 33.837 41.228 33.1579 40.5636 32.4933C41.163 32.7245 41.7624 32.9484 42.369 33.1651C42.6218 33.4469 42.8746 33.7286 43.1129 34.0175C43.2284 34.1548 43.3367 34.2921 43.4523 34.4293C43.3873 34.1331 43.3584 33.8225 43.344 33.5047C44.1167 33.7719 44.9038 34.0248 45.6838 34.2632C45.1566 34.8555 44.6222 35.2745 44.29 35.5129C45.431 37.0516 46.4203 38.6914 47.2653 40.4107C47.1353 38.6336 47.9441 36.582 48.9262 35.1662C49.9373 35.419 50.9555 35.6502 51.981 35.8597C51.786 39.4211 48.6735 41.0681 47.7636 41.4727C47.8574 41.6822 47.9513 41.8916 48.038 42.1084C48.6446 43.5604 49.0851 44.9113 49.4101 46.1032C49.7351 43.2136 52.7104 40.1146 54.3858 40.1146C55.0574 40.1146 55.5196 40.613 55.5123 41.8339C55.4907 46.1177 50.8905 47.483 49.8001 47.7503C49.8939 48.2126 49.9734 48.6388 50.0311 49.0217C49.7351 48.9783 49.4462 48.935 49.1501 48.8772C49.114 48.6605 49.0707 48.4293 49.0273 48.1909C48.6879 48.2848 48.103 48.4221 47.4025 48.4943V48.5016ZM44.5644 43.4376C45.3949 43.2931 46.1315 43.0186 46.6731 42.773C46.9186 43.3581 47.1425 43.9505 47.3447 44.5428C46.4637 44.0083 45.4815 43.6326 44.5644 43.4303V43.4376ZM50.255 51.1022C50.255 51.1022 50.0889 51.0661 49.8651 51.0661C49.7278 51.0661 49.569 51.0805 49.4173 51.1238C49.4173 51.1094 49.3956 50.4881 49.244 49.4479C49.5329 49.4912 49.8217 49.5274 50.1106 49.5562C50.2406 50.517 50.255 51.1022 50.255 51.1022ZM51.3166 61.6997C51.1216 61.1073 50.9122 60.5294 50.6305 60.0021C49.4029 57.7338 48.6229 56.8308 48.5218 56.708C47.7058 55.6749 46.8103 54.6997 45.8787 53.775C45.9726 53.6595 46.0737 53.5511 46.182 53.4427C46.9692 54.2663 48.298 55.7616 48.8685 56.4696C50.2261 58.1455 51.2299 60.2116 51.5188 61.5335C51.4538 61.5913 51.3888 61.6564 51.3238 61.7141L51.3166 61.6997ZM52.0965 60.9051C51.7571 59.6409 51.1433 58.4634 50.3922 57.3726C50.4283 57.3581 50.4644 57.3364 50.5006 57.322C50.5367 57.3075 50.5655 57.2931 50.6017 57.2714C50.6017 57.2714 50.6594 57.2497 50.6739 57.2425C50.8183 57.1847 50.97 57.1269 51.1216 57.0764C51.526 56.9463 51.9088 56.7874 52.2843 56.6068C52.602 56.4551 52.4287 55.9856 52.111 55.9783C51.2949 55.9567 50.5005 56.1734 49.7928 56.5779C49.2295 55.8483 48.6085 55.162 47.9874 54.5191C47.5253 54.0351 47.0486 53.5655 46.5792 53.0888C47.5686 52.3013 48.8613 51.9474 50.1395 52.2291C51.721 52.5686 52.927 53.775 53.3242 55.3354C53.7936 57.192 53.3025 59.4025 52.0893 60.9123L52.0965 60.9051Z" fill="#443247"/>
<path d="M54.3714 40.1217C52.696 40.1217 49.7207 43.2208 49.3957 46.1104C49.0779 44.9184 48.6302 43.5675 48.0236 42.1155C47.9369 41.8988 47.8431 41.6893 47.7492 41.4798C48.7313 41.0464 52.2482 39.1826 51.9666 35.0505C51.8871 33.9308 51.5261 33.4685 51.0278 33.4685C49.5835 33.4685 47.0342 37.3622 47.2581 40.4179C46.4132 38.6986 45.4238 37.0588 44.2828 35.5201C45.3011 34.7977 48.1536 32.3849 47.1859 28.5273C46.9404 27.5376 46.5504 27.1259 46.1099 27.1259C44.7089 27.1259 42.8024 31.388 43.4451 34.4365C43.3368 34.2992 43.2212 34.162 43.1057 34.0247C42.008 32.71 40.7948 31.4819 39.4732 30.3405C40.0004 29.4231 41.6397 25.9772 39.0905 22.3292C38.5633 21.5706 38.1156 21.2528 37.7689 21.2528C36.3607 21.2528 36.4185 26.4179 38.325 29.3942C37.1912 28.4984 35.9852 27.6604 34.7214 26.8947C34.4181 25.2693 33.1543 20.6821 28.5325 19.9958C28.222 19.9525 27.9404 19.9236 27.6876 19.9236C23.073 19.9236 29.1391 27.5521 33.9559 27.5521C34.0282 27.5521 34.1004 27.5521 34.1654 27.5521C35.4075 28.3034 36.5918 29.1124 37.7039 29.9865C36.6135 29.4736 35.2847 29.2497 34.0209 29.2497C30.7496 29.2497 27.9115 30.7162 30.7351 32.3271C31.8328 32.9556 32.8944 33.1867 33.8765 33.1867C36.5124 33.1867 38.5489 31.4819 39.0111 31.0629C40.2532 32.1465 41.4014 33.3096 42.4413 34.5521C42.6002 34.7399 42.7518 34.9277 42.9035 35.1228C41.813 34.3642 40.2676 34.0175 38.9677 34.0175C37.0107 34.0175 35.6169 34.8049 37.2345 36.1341C38.2311 36.9576 39.2855 37.2322 40.2459 37.2322C41.878 37.2322 43.2573 36.4375 43.6906 36.1558C44.7739 37.6295 45.7199 39.2043 46.5215 40.8513C45.4455 39.7605 43.5751 39.2476 42.0513 39.2476C40.1593 39.2476 38.8089 40.035 40.1882 41.4943C41.1631 42.5273 42.3258 42.8668 43.4162 42.8668C45.0411 42.8668 46.5143 42.1228 46.9909 41.8482C47.0703 42.0361 47.157 42.2239 47.2364 42.4117C47.8719 43.9287 48.3269 45.3446 48.6447 46.5799C47.4098 44.9545 44.8894 43.9649 43.1996 43.9649C41.8347 43.9649 41.0042 44.615 41.8491 46.1104C42.9613 48.0753 44.8822 48.5593 46.4998 48.5593C47.5903 48.5593 48.5363 48.3426 49.013 48.2125C49.3668 49.9969 49.4029 51.1166 49.4029 51.1382C49.5546 51.0949 49.7134 51.0804 49.8507 51.0804C50.0745 51.0804 50.2406 51.1166 50.2406 51.1166C50.2406 51.1166 50.1973 49.7585 49.7857 47.7719C50.8761 47.5046 55.4691 46.1393 55.4979 41.8555C55.4979 40.6418 55.043 40.1362 54.3714 40.1362V40.1217Z" fill="#17FFDD"/>
<path d="M123.2 70.8307H113.133V54.5624L106.244 65.1093H105.284L98.4447 54.613V70.8307H88.5078V38.0918H98.7986L105.861 49.5562L112.924 38.0918H123.215V70.8307H123.2ZM114.578 69.3859H121.756V39.5366H113.718L105.854 52.3085L97.9898 39.5366H89.9521V69.3859H97.0004V49.7512L105.767 63.2022L114.578 49.7079V69.3859Z" fill="white"/>
<path d="M154.217 70.8307H127.389V38.0918H153.993V46.8689H137.412V50.2063H152.426V58.4922H137.412V62.0103H154.217V70.8307ZM128.833 69.3859H152.773V63.4551H135.968V57.0474H150.982V51.6511H135.968V45.4241H152.549V39.5366H128.833V69.3859Z" fill="white"/>
<path d="M175.087 70.8307H164.97V47.1362H155.632V38.0918H184.475V47.1362H175.087V70.8307ZM166.414 69.3859H173.643V45.6914H183.031V39.5366H157.077V45.6914H166.414V69.3859Z" fill="white"/>
<path d="M197.251 70.8307H187.133V38.0918H197.251V70.8307ZM188.577 69.3859H195.806V39.5366H188.577V69.3859Z" fill="white"/>
<path d="M214.633 71.3725C208.74 71.3725 203.512 69.516 199.496 66.0051L198.962 65.5428L204.689 58.6945L205.238 59.1279C208.263 61.519 211.528 62.7254 214.936 62.7254C216.258 62.7254 217.832 62.4798 217.832 61.3023V61.2156C217.832 60.5221 217.5 59.9876 213.059 58.8751C206.559 57.3797 200.71 55.4509 200.71 48.3859V48.2992C200.71 41.8771 205.866 37.5645 213.542 37.5645C218.894 37.5645 223.248 38.9803 226.866 41.8844L227.393 42.3106L222.244 49.5923L221.652 49.1589C219.031 47.2301 216.149 46.2115 213.319 46.2115C212.423 46.2115 210.914 46.3777 210.914 47.4974V47.5841C210.914 48.3137 211.275 48.9494 215.796 49.9174C222.129 51.3044 227.986 53.5294 227.986 60.3704V60.4571C227.986 67.0887 222.736 71.3725 214.618 71.3725H214.633ZM200.991 65.3766C204.66 68.3601 209.361 69.9277 214.633 69.9277C221.992 69.9277 226.556 66.3013 226.556 60.4571V60.3704C226.556 55.6026 223.458 53.067 215.507 51.3333C211.427 50.4592 209.484 49.679 209.484 47.5913V47.5046C209.484 46.8617 209.758 44.7739 213.333 44.7739C216.251 44.7739 219.211 45.742 221.919 47.5768L225.436 42.6068C222.158 40.1651 218.366 39.0237 213.557 39.0237C206.639 39.0237 202.168 42.6718 202.168 48.3137V48.4004C202.168 53.8689 206.119 55.8121 213.405 57.4881C217.406 58.485 219.284 59.1857 219.284 61.2301V61.3168C219.284 62.1764 218.858 64.1847 214.943 64.1847C211.412 64.1847 208.04 63.0144 204.905 60.7027L200.984 65.3911L200.991 65.3766Z" fill="white"/>
<path d="M114.202 32.6448C113.105 34.2124 111.992 35.0287 110.953 35.0504C110.411 35.0576 109.385 34.1185 108.627 33.7573C107.573 33.2733 107.06 32.5364 107.038 31.489C107.002 29.8202 107.342 27.8048 108.049 25.4497C108.201 24.7346 108.721 23.3909 108.714 23.3042L108.627 23.2609C108.259 23.4776 107.681 24.1133 106.908 25.0958C106.136 26.1144 105.442 27.1763 104.843 28.231C104.236 29.329 103.716 30.5065 103.24 31.814C102.763 33.1216 102.489 34.0029 102.373 34.5447C102.344 35.0865 101.882 35.1804 100.409 34.4147C99.1885 33.8151 98.5891 33.1938 98.5747 32.5292C98.5386 30.8171 98.8275 28.5922 99.4413 25.8687C99.6363 25.0741 99.9829 23.5571 100.481 21.3754L100.351 21.296C99.0008 22.8708 97.7081 24.9007 96.4588 27.393C96.2999 27.7759 95.5777 29.2062 95.4189 29.5891C95.2961 29.7986 95.1806 30.0947 94.9784 30.5571C94.4584 31.7779 94.2634 32.5364 94.0034 34.0462C94.0179 34.6747 93.859 35.3032 93.4835 35.3104C93.1946 35.3104 92.6458 35.1587 91.8442 34.7975C91.0426 34.4363 90.4937 34.1113 90.2338 33.8295C90.0243 33.6273 89.9305 33.2083 89.916 32.5798C89.916 32.457 89.981 31.5323 90.1543 29.7769C90.3276 27.9348 90.6959 25.6737 91.2737 23.0225C91.8442 20.3785 92.393 18.233 92.9419 16.5499C93.6929 16.5354 94.5306 16.6871 95.455 16.9977C96.3793 17.3156 96.8487 17.6407 96.856 17.973C96.856 18.0958 96.3866 19.7356 95.4116 22.9358C94.8628 24.8285 94.4801 26.5044 94.2201 28.0142L94.3428 28.0504C95.5055 25.4786 96.9498 22.7769 98.6108 19.8584C100.106 17.2795 101.456 16.0008 102.713 15.9719C103.341 15.9575 104.056 16.1525 104.771 16.5571C105.486 16.9616 105.876 17.33 106.006 17.619C105.89 17.9585 105.37 19.3022 104.626 21.6572C103.327 25.5726 102.583 27.9637 102.431 28.9317L102.554 28.9678C104.041 26.1794 105.544 23.6871 107.082 21.5199C108.504 19.4828 109.609 18.457 110.36 18.4425C111.155 18.4281 111.949 18.6231 112.751 18.9771C113.509 19.3816 113.935 19.7501 114.065 20.0824C113.949 20.458 113.112 22.5241 112.202 25.0524C111.292 27.7903 110.837 29.8058 110.859 31.1783C110.873 31.7201 111.003 32.0091 111.292 32.0091C112.505 31.9874 114.621 29.4374 116.181 25.6809C116.499 24.8791 116.78 24.4601 117.033 24.4528C117.495 24.4456 117.705 24.7346 117.719 25.2764C117.719 25.5653 117.488 26.2805 117.048 27.3785C116.253 29.2784 115.285 31.0483 114.188 32.6159L114.202 32.6448Z" fill="white"/>
<path d="M123.605 32.8761C122.709 34.1041 121.807 34.7543 120.846 34.7687C119.719 34.7904 117.943 33.6562 116.78 32.1753C116.311 31.518 116.08 30.5572 116.058 29.3508C116.036 28.2672 116.217 26.714 116.593 24.6985C116.968 22.7264 117.351 20.9638 117.784 19.4901C118.21 17.8503 118.564 16.7594 118.766 16.2971C119.517 16.2827 120.398 16.4344 121.409 16.7016C122.377 17.0195 122.883 17.3807 122.89 17.7563C123.02 18.0886 122.016 19.9018 121.005 23.9762C120.268 26.9163 119.936 29.1413 119.965 30.6439C119.864 33.779 122.074 31.7708 123.814 28.8523C124.58 27.4581 125.222 26.1072 125.735 24.7997C125.851 24.4602 126.06 24.294 126.269 24.2868C126.558 24.2868 126.948 24.7347 126.956 25.1898C126.956 25.4426 126.883 25.7749 126.724 26.1939C125.49 29.3941 124.45 31.6335 123.597 32.8616L123.605 32.8761ZM124.767 11.5365C124.031 12.3456 123.244 12.779 122.413 12.7935C121.287 12.8152 120.557 12.0783 120.536 10.7852C120.521 9.91114 120.832 9.02259 121.445 8.17739C122.059 7.33219 122.796 6.89875 123.677 6.87708C125.013 6.84819 125.829 7.83787 125.851 9.05149C125.865 9.88947 125.511 10.7274 124.775 11.5365H124.767Z" fill="white"/>
<path d="M137.514 34.8121C136.806 34.8265 135.78 33.844 135.152 33.5623C134.054 33.0422 133.419 32.551 133.238 32.0525C133.152 31.7635 133.101 31.3446 133.087 30.8461C133.065 29.6758 133.202 28.3394 133.506 26.7863C133.845 24.9441 134.43 22.9648 135.188 20.8987L135.058 20.8193C133.794 22.4302 132.661 24.0412 131.686 25.6087C130.025 28.3177 129.035 30.8461 128.66 33.1939C128.674 33.8224 128.393 34.617 128.017 34.6242C127.685 34.6242 127.179 34.4292 126.457 33.9452C125.735 33.4973 125.273 33.0928 125.013 32.6376C124.883 32.5148 124.84 32.2259 124.832 31.8069C124.825 31.3446 124.89 30.5933 125.042 29.5891C125.656 24.8936 126.537 20.6603 127.757 16.8317C129.765 16.7883 131.368 17.5974 131.541 18.132C131.671 18.4643 131.354 19.1361 130.487 21.8306C129.823 23.9761 129.396 25.6954 129.173 27.0391L129.295 27.0752C130.617 24.2506 132.068 21.585 133.65 19.1289C134.95 17.1423 136.141 16.1093 137.181 16.0876C138.604 16.0587 139.702 16.7089 140.518 17.9875C140.395 18.2837 139.962 19.295 139.196 20.9782C138.517 22.5386 137.969 24.3879 137.55 26.4467C137.087 28.5489 136.871 30.0154 136.885 30.8461C136.9 31.5974 136.907 31.8936 137.449 31.8791C137.947 31.8719 138.734 31.229 139.752 29.9937C140.77 28.7584 141.615 27.198 142.374 25.3053C142.85 24.0845 142.886 23.9545 143.226 23.9545C143.565 23.9545 143.941 24.359 143.955 24.9008C143.955 25.067 143.883 25.4065 143.681 25.9122C143.089 27.552 142.287 29.3652 141.197 31.2723C140.07 33.3022 138.467 34.7976 137.506 34.8121H137.514Z" fill="white"/>
<path d="M149.834 32.3487C148.938 33.5768 148.035 34.2269 147.075 34.2414C145.948 34.2631 144.172 33.1289 143.009 31.648C142.54 30.9906 142.309 30.0298 142.287 28.8234C142.265 27.7398 142.446 26.1867 142.821 24.1712C143.197 22.1991 143.58 20.4364 144.013 18.9627C144.439 17.3229 144.793 16.2321 144.995 15.7698C145.746 15.7553 146.627 15.907 147.638 16.1743C148.606 16.4922 149.111 16.8534 149.119 17.229C149.249 17.5613 148.245 19.3745 147.234 23.4488C146.497 26.389 146.165 28.6139 146.194 30.1165C146.093 33.2517 148.303 31.2434 150.043 28.325C150.808 26.9307 151.451 25.5799 151.964 24.2723C152.079 23.9328 152.289 23.7667 152.498 23.7594C152.787 23.7594 153.177 24.2073 153.184 24.6624C153.184 24.9153 153.112 25.2476 152.953 25.6666C151.718 28.8668 150.679 31.1062 149.826 32.3343L149.834 32.3487ZM150.996 11.0092C150.26 11.8183 149.473 12.2517 148.642 12.2661C147.515 12.2878 146.786 11.551 146.764 10.2579C146.75 9.38379 147.06 8.49525 147.674 7.65005C148.281 6.80485 149.025 6.37141 149.906 6.34974C151.242 6.32084 152.058 7.31052 152.079 8.52415C152.094 9.36212 151.74 10.2001 151.003 11.0092H150.996Z" fill="white"/>
</g>
<defs>
<clipPath id="clip0_501_417">
<rect width="228" height="77" fill="white"/>
</clipPath>
</defs>
</svg>
