<svg width="245" height="83" viewBox="0 0 245 83" fill="none" xmlns="http://www.w3.org/2000/svg">
<g clip-path="url(#clip0_266_51)">
<path d="M41.4898 83.005C64.404 83.005 82.9796 64.4237 82.9796 41.5025C82.9796 18.5813 64.404 0 41.4898 0C18.5756 0 0 18.5813 0 41.5025C0 64.4237 18.5756 83.005 41.4898 83.005Z" fill="#04D8CC"/>
<path d="M55.1294 50.9279C51.0067 45.7854 39.4335 45.9245 34.1684 41.9099C31.1882 39.6343 26.2956 33.0808 24.3883 29.7767C23.2856 27.8687 22.9279 23.7398 22.6101 24.2516C22.019 25.1956 19.6298 26.9048 20.2606 27.5557C17.335 32.1019 14.7422 36.3451 11.8166 40.8914C10.3861 43.1173 8.96059 43.3756 9.14933 46.1034C9.51311 49.6717 10.087 53.2155 10.8679 56.7163C11.2206 58.2068 10.4656 58.1721 10.3067 59.7322C10.1265 60.7535 10.0648 61.7921 10.1229 62.8276C10.4159 65.0734 12.0799 66.5143 13.8382 67.7415C15.9426 69.272 18.1706 70.6248 20.4991 71.7859C21.7209 72.3673 22.9826 73.1424 24.3038 73.3113C31.2875 74.1858 39.0609 72.5014 45.6125 70.2805C47.6788 69.5799 50.4901 69.6445 52.7452 68.7452C56.2221 67.3639 58.8994 64.6809 59.5153 61.1035C60.5435 55.0915 58.6063 55.2903 55.1294 50.9279Z" fill="#FFD9BD"/>
<path d="M27.2145 54.0382C27.0309 53.9287 26.8258 53.8601 26.6132 53.837C26.4007 53.8138 26.1856 53.8367 25.9827 53.904C25.8324 53.9161 25.6858 53.9566 25.5506 54.0233C25.4025 54.1017 25.2723 54.2099 25.1681 54.3413C25.0536 54.4203 24.9596 54.5256 24.8939 54.6483C24.8283 54.771 24.7929 54.9076 24.7906 55.0468C24.7881 55.2246 24.842 55.3985 24.9446 55.5437C25.0073 55.7759 25.1288 55.9881 25.2973 56.1598C25.6046 56.4357 26.0042 56.5863 26.4172 56.5817C26.8302 56.5771 27.2264 56.4177 27.5275 56.1349C27.6661 55.9858 27.7693 55.8073 27.8295 55.6127C27.8897 55.4182 27.9054 55.2126 27.8753 55.0112C27.8453 54.8098 27.7703 54.6178 27.6559 54.4493C27.5415 54.2809 27.3906 54.1403 27.2145 54.0382Z" fill="#FFA294"/>
<path d="M79.2792 25.5633C78.0474 25.0115 76.6934 24.7892 75.35 24.9181C74.0065 25.047 72.7195 25.5228 71.615 26.2987C70.3279 27.2991 69.4331 28.72 69.0867 30.3133C67.9741 28.2612 66.6877 26.2937 65.4558 24.351C63.469 21.2754 61.815 19.5563 59.2421 16.9478C53.7137 11.3383 45.3343 8.58072 37.7446 8.7894C22.4759 9.20676 7.49527 18.8905 4.0978 34.3875C3.15479 38.646 3.19045 43.0631 4.2021 47.3058C5.0316 50.6993 6.49688 54.4953 9.92912 55.966C10.0713 56.0224 10.2255 56.0411 10.377 56.0204C10.5285 55.9998 10.6721 55.9404 10.794 55.8479C10.9158 55.7555 11.0118 55.6333 11.0726 55.4929C11.1334 55.3526 11.157 55.1989 11.1411 55.0468C10.7835 52.4433 10.401 49.8397 10.0732 47.2362C9.80435 45.8046 10.0303 44.324 10.7139 43.0378C11.4987 41.5919 12.358 40.1858 13.1974 38.7748C15.681 34.6657 18.1198 30.5219 20.648 26.4378C20.3232 28.4342 20.2083 30.4592 20.3053 32.4796C20.35 35.7538 20.5139 39.0132 20.7374 42.2776C20.7623 42.6403 21.2937 42.5558 21.2937 42.208C21.2937 39.3412 21.1199 36.4793 21.0702 33.6124C21.0707 31.3921 21.2034 29.1739 21.4676 26.9694C23.1316 31.6598 25.5257 36.0371 29.2758 39.4306C32.9117 42.7099 37.4863 45.1295 41.9567 47.4201C41.8454 47.5059 41.7552 47.6162 41.6932 47.7424C41.6312 47.8686 41.5989 48.0073 41.5989 48.148C41.5989 48.2886 41.6312 48.4273 41.6932 48.5535C41.7552 48.6797 41.8454 48.79 41.9567 48.8758C43.4468 49.795 44.9369 50.749 46.427 51.6682C46.4208 51.7981 46.4556 51.9268 46.5264 52.0359C47.2058 53.0535 47.7485 54.156 48.1407 55.3151L47.7234 54.9723C47.6289 54.9288 47.5231 54.916 47.421 54.9359C47.3189 54.9557 47.2255 55.0072 47.1542 55.0829C47.0828 55.1587 47.0371 55.2549 47.0233 55.3581C47.0096 55.4613 47.0286 55.5662 47.0777 55.658C50.8229 59.4987 55.5217 64.0698 55.3926 69.883C55.3995 69.9602 55.4331 70.0326 55.4876 70.0877C55.5421 70.1427 55.6141 70.177 55.6912 70.1847C55.7683 70.1923 55.8456 70.1728 55.9099 70.1296C55.9742 70.0863 56.0214 70.0219 56.0433 69.9476C56.6095 67.0509 55.1939 64.6014 54.0217 62.0426C53.1318 60.1488 51.8483 58.4667 50.2567 57.1088C50.9818 56.0803 52.2186 55.9511 53.3909 55.8964C54.4394 55.9698 55.4427 56.352 56.2744 56.9948C57.1062 57.6376 57.7291 58.5123 58.0648 59.5086C58.8844 61.7097 58.2437 63.8959 57.0714 65.8286C56.838 66.2212 57.1459 66.8223 57.6476 66.5988C59.3428 65.9106 60.9502 65.0233 62.4359 63.9555C62.5663 64.0827 62.7373 64.16 62.919 64.1736C63.1007 64.1872 63.2814 64.1364 63.4293 64.03C65.3466 62.6686 67.2837 61.0886 68.4708 59.0267C69.7523 56.8107 70.3881 54.1773 70.9544 51.693C71.4302 49.5258 71.698 47.318 71.7541 45.0997C71.7541 44.8712 71.7888 44.6476 71.8037 44.419C72.297 45.1962 72.8607 45.9263 73.4876 46.6003C75.5688 48.8013 78.7228 50.2571 81.6782 48.9554C84.3356 47.7778 85.8009 44.9308 86.4416 42.2329C87.8126 36.2606 85.2992 28.1072 79.2792 25.5633Z" fill="#BF6440"/>
<path d="M19.9428 25.5484C16.0188 30.2685 12.4425 35.1825 8.92584 40.2107C7.66421 42.0143 5.38433 44.111 5.77176 46.481C6.17906 49.01 7.67415 52.0557 9.06492 54.1773C9.15686 54.3103 9.29194 54.4074 9.44728 54.4521C9.60261 54.4968 9.76862 54.4864 9.91716 54.4227C10.0657 54.3589 10.1876 54.2457 10.2622 54.1023C10.3368 53.9588 10.3596 53.794 10.3266 53.6357C10.0335 52.4383 9.6262 51.2856 9.25864 50.1081C9.46129 50.0781 9.64713 49.9783 9.78407 49.8259C9.92101 49.6735 10.0004 49.4781 10.0087 49.2733C9.96308 48.5335 9.85508 47.7988 9.68581 47.0772C9.56008 46.2869 9.49861 45.4876 9.50202 44.6873C9.50351 44.5485 9.4693 44.4116 9.40268 44.2898C9.656 43.9669 9.89939 43.6489 10.1279 43.3458L12.5468 39.9125C15.6165 35.5551 18.5073 31.138 21.2094 26.5371C21.6812 25.762 20.5488 24.818 19.9428 25.5484Z" fill="#A5513A"/>
<path d="M56.7088 49.1342C53.659 47.5939 50.3808 46.5207 47.2962 45.0153C44.2755 43.5443 41.3987 41.7944 38.7032 39.7883C33.1193 35.5971 28.2729 30.5041 24.3634 24.7186C24.2115 24.488 23.977 24.3244 23.7082 24.2616C23.4394 24.1988 23.1567 24.2416 22.9185 24.3811C22.6802 24.5207 22.5046 24.7463 22.4278 25.0116C22.351 25.2768 22.3789 25.5614 22.5057 25.8067C25.6096 32.5357 30.3315 38.3908 36.2495 42.849C41.7133 47.0126 49.0297 51.2955 56.078 51.4744C57.29 51.5092 57.8314 49.7006 56.7088 49.1342Z" fill="#A5513A"/>
<path d="M53.2816 51.8321C52.4223 51.6731 51.558 51.7278 50.6987 51.5738C49.8154 51.4148 48.9602 51.1268 48.1605 50.7192C47.9188 50.5762 47.6302 50.5352 47.3582 50.605C47.0862 50.6749 46.8531 50.85 46.7102 51.0918C46.5672 51.3336 46.5262 51.6224 46.596 51.8944C46.6659 52.1665 46.841 52.3997 47.0827 52.5426C48.0314 53.1927 49.073 53.6952 50.1722 54.0332C50.1493 54.1556 50.154 54.2816 50.1858 54.402C50.2176 54.5224 50.2758 54.6342 50.3562 54.7293C50.4365 54.8245 50.537 54.9005 50.6504 54.952C50.7638 55.0034 50.8872 55.029 51.0116 55.0269C51.2078 55.0343 51.3999 54.9697 51.5518 54.8452C51.7036 54.7208 51.8048 54.5451 51.8362 54.3512C52.3153 54.3831 52.7965 54.3496 53.2667 54.2518C54.4588 53.9984 54.5035 52.0607 53.2816 51.8321Z" fill="#A25234"/>
<path d="M75.7178 35.2272C75.4522 35.6752 75.2955 36.1793 75.2601 36.699C75.2247 37.2186 75.3118 37.7393 75.5142 38.2192C75.7166 38.6991 76.0288 39.1248 76.4256 39.462C76.8225 39.7993 77.2929 40.0387 77.799 40.161C80.0541 40.7075 82.2346 38.9586 82.9151 36.9016C84.6635 31.5951 78.5093 27.198 73.9744 30.2735C71.9947 31.6445 70.5821 33.6898 70.0007 36.0271C67.6811 35.6296 65.3069 35.8482 62.9674 35.7837C60.2124 35.7173 57.467 35.4332 54.7569 34.934C49.6259 33.99 44.6936 32.4497 39.6967 30.9592C38.5543 30.6213 38.0477 32.1516 38.9268 32.7777C43.3972 35.9476 48.7467 37.8009 54.1062 38.7102C56.7827 39.1725 59.4878 39.4497 62.2025 39.5399C64.063 39.6544 65.9302 39.5979 67.7805 39.371C67.4924 39.5151 67.2043 39.6691 66.9013 39.8181C65.9612 40.2835 64.9566 40.6051 63.9211 40.7721C62.719 40.9708 63.0866 42.7595 64.1992 42.8092C64.9255 42.8456 65.6535 42.8173 66.3748 42.7248C66.384 42.8834 66.4322 43.0373 66.5153 43.1728C66.5983 43.3082 66.7135 43.4211 66.8507 43.5012C66.9879 43.5814 67.1427 43.6264 67.3015 43.6322C67.4602 43.638 67.6179 43.6045 67.7606 43.5346C68.261 43.2815 68.7366 42.9821 69.1812 42.6403C69.5349 42.3628 69.8477 42.0366 70.11 41.6714C70.323 42.3649 70.6146 43.0317 70.9792 43.6588C71.5531 44.6513 72.3444 45.5007 73.2936 46.1433C74.2428 46.7859 75.3253 47.205 76.4597 47.369C77.5941 47.533 78.7508 47.4377 79.8431 47.0903C80.9354 46.7429 81.9347 46.1523 82.7661 45.3631C82.8069 45.3185 82.8324 45.2619 82.8388 45.2018C82.8452 45.1416 82.8322 45.081 82.8016 45.0288C82.7711 44.9766 82.7246 44.9355 82.6691 44.9116C82.6135 44.8877 82.5518 44.8823 82.4929 44.896C78.5639 46.1133 74.1532 43.2663 73.9048 39.0977C73.8674 38.2076 74.0373 37.3211 74.4011 36.508C74.7648 35.6949 75.3125 34.9774 76.0009 34.4123C76.5771 33.9552 77.3371 33.513 78.0772 33.8807C78.5391 34.1092 78.8719 34.8744 78.9911 35.575C78.5739 34.3577 76.5324 33.8608 75.7178 35.2272Z" fill="#A5513A"/>
<path d="M19.1728 46.9629C15.3482 45.5867 12.7951 48.9504 12.7405 52.0557C12.7057 54.1525 13.2372 56.3287 14.9856 57.6503C15.4976 58.0131 16.0763 58.271 16.6883 58.4092C17.3003 58.5474 17.9337 58.5632 18.5518 58.4556C19.1699 58.348 19.7607 58.1192 20.2901 57.7823C20.8195 57.4454 21.2771 57.0071 21.6365 56.4927C23.7375 53.4121 22.8385 48.2697 19.1728 46.9629Z" fill="white"/>
<path d="M37.8043 48.4933C33.9797 47.2064 31.5409 50.6149 31.4862 53.5016C31.4508 54.5331 31.6643 55.558 32.1087 56.4894C32.5531 57.4209 33.2153 58.2315 34.0393 58.8527C35.0814 59.543 36.3454 59.8149 37.5791 59.6141C38.8128 59.4134 39.9255 58.7547 40.6951 57.7696C42.8061 54.8878 41.475 49.7305 37.8043 48.4933Z" fill="white"/>
<path d="M29.0672 62.8972C29.0175 61.8488 29.0672 60.3135 28.6648 59.3248C27.9446 57.4864 24.2193 57.9485 22.6348 58.5993C22.5105 58.6075 22.3922 58.6561 22.2981 58.7377C22.2039 58.8193 22.139 58.9295 22.1133 59.0515C22.075 59.1592 22.075 59.2767 22.1133 59.3844C22.1878 60.8054 22.0835 62.0922 22.4312 63.5083C22.6944 64.5616 22.9925 65.8336 23.9213 66.4894C24.0176 66.6247 24.1238 66.7526 24.2392 66.872C25.6051 68.2384 27.6019 67.5974 28.496 66.0323C28.9873 65.0651 29.1858 63.9756 29.0672 62.8972Z" fill="#FF7D7D"/>
<path d="M28.0987 58.5397C28.0636 58.4303 28.0045 58.3301 27.9257 58.2464C27.8469 58.1628 27.7503 58.0979 27.6432 58.0564C27.536 58.015 27.4209 57.998 27.3064 58.0069C27.1918 58.0157 27.0807 58.0501 26.9811 58.1074C26.4993 58.3443 26.0013 58.5468 25.491 58.7136C24.7543 58.7129 24.0192 58.6431 23.2956 58.5049C23.2052 58.4752 23.1075 58.4761 23.0177 58.5075C22.9279 58.539 22.8509 58.5992 22.7988 58.6788C22.6248 58.7333 22.4725 58.8415 22.3636 58.9879C22.2548 59.1342 22.195 59.3113 22.1929 59.4937C22.102 60.7376 22.2247 61.9878 22.5555 63.1903C22.5847 63.3169 22.6456 63.4339 22.7325 63.5304C22.8194 63.6268 22.9294 63.6996 23.0522 63.7418C22.8669 64.044 22.7009 64.3576 22.5555 64.6809C22.4896 64.8001 22.4738 64.9407 22.5115 65.0716C22.5492 65.2025 22.6374 65.3131 22.7566 65.379C22.8758 65.4448 23.0163 65.4607 23.1472 65.4229C23.2781 65.3852 23.3886 65.297 23.4545 65.1777C23.9976 64.4321 24.6392 63.7636 25.3618 63.1903C26.0523 62.6289 27.7063 61.9134 28.4514 61.4712C29.6037 60.7706 28.357 59.6626 28.0987 58.5397Z" fill="#FF6161"/>
<path d="M27.1649 58.3509C26.6288 58.3223 26.0917 58.3828 25.5754 58.5298C24.9135 58.618 24.2414 58.591 23.5886 58.4503C23.0919 58.341 22.7939 59.0763 23.2807 59.28C24.0496 59.5447 24.8722 59.6147 25.6748 59.4837C26.3205 59.4291 27.2791 59.4341 27.6219 58.8378C27.7113 58.649 27.3735 58.3956 27.1649 58.3509Z" fill="white"/>
<path d="M10.5848 55.8517C10.3861 54.7487 8.598 55.2307 8.88608 56.3486C8.88608 56.3784 8.88608 56.4032 8.88608 56.433C7.3972 58.9463 6.31114 61.6773 5.66743 64.5268C5.08628 67.0509 4.85283 69.6941 6.27341 71.9797C6.31133 72.0405 6.36814 72.0873 6.43514 72.1128C6.50214 72.1382 6.57564 72.141 6.64439 72.1207C6.71314 72.1004 6.77334 72.0582 6.81579 72.0004C6.85823 71.9426 6.88057 71.8725 6.87939 71.8008C6.77508 68.4073 6.9986 64.7703 8.64766 61.7246C9.20894 60.6911 10.4954 59.7371 10.863 58.659C11.161 57.8342 10.7289 56.6566 10.5848 55.8517Z" fill="#BF6440"/>
<path d="M8.91586 45.0003C8.90398 47.0912 9.04342 49.1801 9.33309 51.2508C9.6126 53.4985 10.066 55.7212 10.6891 57.8988C10.848 58.4304 11.5633 58.1919 11.4938 57.6752C11.2007 55.489 10.6643 53.3476 10.3166 51.1713C9.97175 49.1258 9.76762 47.059 9.70562 44.9855C9.70562 44.8814 9.66428 44.7815 9.59069 44.7079C9.5171 44.6343 9.4173 44.5929 9.31323 44.5929C9.20916 44.5929 9.10934 44.6343 9.03575 44.7079C8.96217 44.7815 8.92082 44.8814 8.92082 44.9855L8.91586 45.0003Z" fill="#443247"/>
<path d="M22.62 53.1389C22.6082 52.8574 22.5783 52.5769 22.5306 52.2992C22.4482 52.4971 22.304 52.6631 22.1196 52.7724C21.9352 52.8816 21.7204 52.9283 21.5073 52.9054C20.1414 52.7861 20.3252 50.6645 21.6911 50.7838C21.8381 50.7966 21.9813 50.8371 22.1133 50.903C21.3881 49.2833 19.9676 48.2001 18.3682 48.2498C16.1032 48.3194 14.3399 50.6248 14.4293 53.3973C14.5187 56.1697 16.4161 58.3658 18.6811 58.2863C20.9461 58.2068 22.7044 55.9113 22.62 53.1389Z" fill="#443247"/>
<path d="M40.2729 54.6344C38.9069 54.5201 39.0907 52.3985 40.4517 52.5178C40.6067 52.5283 40.7575 52.5724 40.8938 52.647C40.3573 50.898 39.0311 49.6161 37.392 49.5019C35.132 49.3478 33.1501 51.4893 32.9614 54.2369C32.7726 56.9846 34.4515 59.3695 36.7065 59.5235C38.9616 59.6775 40.9484 57.5609 41.1371 54.7934C41.1371 54.6145 41.1371 54.4489 41.1371 54.2966C41.0315 54.419 40.8975 54.5138 40.7469 54.5726C40.5963 54.6315 40.4336 54.6527 40.2729 54.6344Z" fill="#443247"/>
<path d="M33.7064 49.4969C34.3066 49.1092 34.9812 48.8515 35.687 48.7403C36.3927 48.629 37.1139 48.6667 37.8042 48.851C38.4442 49.0427 39.0297 49.3832 39.5129 49.8447C40.099 50.3962 40.3622 51.1266 40.8242 51.7675C40.9831 51.9911 41.4202 52.016 41.4798 51.6831C41.6537 50.6894 41.1371 49.6957 40.4864 48.9653C39.8998 48.2928 39.13 47.8058 38.2711 47.5641C37.3923 47.3089 36.4665 47.2595 35.5655 47.4197C34.6645 47.58 33.8125 47.9456 33.0756 48.4883C32.4696 48.9305 33.0209 49.9441 33.6815 49.5217L33.7064 49.4969Z" fill="#443247"/>
<path d="M13.7736 49.8994C14.0465 49.2008 14.4907 48.582 15.0653 48.1002C15.6399 47.6183 16.3265 47.2887 17.0618 47.1418C18.5519 46.8785 20.042 47.584 21.1497 48.5529C21.4825 48.8411 22.0338 48.4734 21.7855 48.056C21.2791 47.2297 20.5309 46.5791 19.6424 46.1925C18.7539 45.8058 17.768 45.7019 16.8184 45.8947C15.8881 46.0676 15.024 46.4954 14.3225 47.1306C13.6209 47.7657 13.1093 48.5832 12.8448 49.492C12.6759 50.0435 13.56 50.441 13.7935 49.8944L13.7736 49.8994Z" fill="#443247"/>
<path d="M22.3517 58.5844C23.8419 58.9124 25.4263 58.7484 26.9165 58.654L27.7112 58.5993C27.7804 58.6095 27.8506 58.6095 27.9198 58.5993C27.9446 58.5993 27.8254 58.5546 27.7708 58.5497C27.7162 58.5447 27.741 58.4304 27.7708 58.5497C27.8473 58.7782 27.9368 59.0021 28.039 59.2204C28.1632 59.598 28.2625 59.9806 28.3519 60.3681C28.7443 62.0873 29.0771 64.0697 28.3172 65.7392C27.9099 66.6385 27.0257 67.4682 25.9827 67.4235C24.7955 67.3689 23.9362 66.3901 23.4544 65.3914C22.9535 64.2584 22.6688 63.0417 22.615 61.8041C22.5172 60.618 22.5288 59.4255 22.6498 58.2416C22.6895 57.859 22.0984 57.869 22.0537 58.2416C21.7607 60.5669 21.7855 63.1754 22.6498 65.3814C22.8389 65.9659 23.1447 66.506 23.5485 66.9689C23.9523 67.4317 24.4458 67.8078 24.9992 68.0744C25.5128 68.2913 26.0769 68.3597 26.6274 68.2718C27.178 68.184 27.6928 67.9435 28.1135 67.5775C29.852 66.087 29.8321 63.4884 29.4745 61.4215C29.3328 60.5426 29.1253 59.6756 28.8536 58.8279C28.6947 58.331 28.501 57.705 27.8999 57.6802C27.1201 57.691 26.3418 57.7541 25.5704 57.869C24.5677 58.0211 23.5501 58.0495 22.5405 57.9534C22.1282 57.8938 21.9345 58.5 22.3617 58.5944L22.3517 58.5844Z" fill="#443247"/>
<path d="M45.9204 52.0955C47.7717 53.4803 49.9747 54.317 52.2783 54.5102C52.3349 54.5141 52.3908 54.4963 52.4348 54.4604C52.4788 54.4245 52.5074 54.3733 52.515 54.317C52.5226 54.2608 52.5085 54.2038 52.4756 54.1575C52.4427 54.1113 52.3935 54.0793 52.3379 54.068C50.1543 53.6485 48.057 52.8641 46.134 51.7477C45.9006 51.6036 45.7019 51.9613 45.9204 52.1154V52.0955Z" fill="#443247"/>
<path d="M41.9816 61.2128C42.0677 61.1909 42.1511 61.1593 42.23 61.1184H42.2598L42.3194 61.0787L42.374 61.034H42.3988C42.4297 60.9979 42.4579 60.9597 42.4833 60.9197C42.4937 60.8991 42.502 60.8774 42.5081 60.8551L42.5379 60.7905C42.5428 60.7459 42.5428 60.7009 42.5379 60.6563C42.5365 60.5664 42.5144 60.478 42.4733 60.398C42.4407 60.3357 42.3929 60.2828 42.3343 60.2439L42.2697 60.1943L42.1505 60.1446C42.1076 60.1394 42.0642 60.1394 42.0213 60.1446H41.9568H41.8922C41.857 60.1543 41.8235 60.1694 41.7929 60.1893L41.7184 60.2489C41.6866 60.2774 41.6597 60.311 41.6389 60.3483C41.6132 60.3902 41.5994 60.4383 41.5991 60.4874C41.5842 60.536 41.5842 60.5879 41.5991 60.6365L41.6339 60.7209C41.6577 60.7636 41.6918 60.7995 41.7333 60.8253C41.7545 60.849 41.7821 60.8662 41.8127 60.875C41.857 60.8987 41.9066 60.9107 41.9568 60.9097H42.0561C42.1177 60.8923 42.174 60.8599 42.22 60.8153L42.1405 60.875L42.0511 60.9147H41.9468H41.8475L41.7581 60.875H41.7829L41.7035 60.8153L41.6389 60.7359L41.6637 60.7706L41.624 60.6762V60.7259V60.6166V60.6464V60.5371L41.6637 60.4427C41.666 60.4542 41.666 60.466 41.6637 60.4775L41.7283 60.398L41.6935 60.4328L41.778 60.3682L41.7134 60.4029L41.8127 60.3632C41.7627 60.3811 41.7112 60.3944 41.6587 60.4029C41.6046 60.4163 41.5549 60.4438 41.5147 60.4825C41.4673 60.5105 41.4292 60.552 41.4054 60.6017C41.3728 60.6486 41.3539 60.7037 41.3508 60.7607C41.336 60.816 41.336 60.8743 41.3508 60.9296L41.3955 61.029C41.4303 61.0929 41.4818 61.1461 41.5445 61.183L41.6488 61.2228C41.7212 61.2477 41.7999 61.2477 41.8723 61.2228L41.9816 61.2128Z" fill="#FF7486"/>
<path d="M43.7945 61.3618C44.0237 61.1897 44.2365 60.9968 44.4303 60.7855C44.618 60.5624 44.7719 60.313 44.8872 60.0452C44.9267 59.9669 44.9372 59.8771 44.9171 59.7918C44.8933 59.7109 44.8401 59.6417 44.768 59.598C44.6926 59.556 44.6038 59.545 44.5204 59.5672C44.437 59.5895 44.3655 59.6433 44.321 59.7173C44.2597 59.8305 44.1917 59.94 44.1174 60.0452C44.0826 60.0949 44.0478 60.1495 44.0081 60.1992L43.9832 60.234C43.9457 60.2782 43.9109 60.3247 43.8789 60.3731L43.7746 60.5222L43.7498 60.5569C43.7498 60.5569 43.7001 60.6166 43.7498 60.5569C43.7995 60.4973 43.7498 60.5569 43.7498 60.5569L43.72 60.5868C43.6376 60.6907 43.5497 60.7902 43.4567 60.8849C43.4103 60.9358 43.3833 61.0015 43.3805 61.0704C43.3777 61.1392 43.3992 61.2069 43.4413 61.2615C43.4834 61.316 43.5434 61.354 43.6107 61.3687C43.678 61.3835 43.7484 61.374 43.8094 61.342L43.7945 61.3618Z" fill="#FF7486"/>
<path d="M12.7207 61.3171C12.7987 61.1407 12.8971 60.974 13.0137 60.8203L12.9491 60.8998C13.0221 60.8063 13.1018 60.7183 13.1876 60.6365C13.2687 60.5502 13.355 60.469 13.4459 60.393C13.4796 60.3591 13.5063 60.3188 13.5242 60.2744C13.5421 60.23 13.5509 60.1825 13.5502 60.1346C13.5464 60.0539 13.5188 59.976 13.4707 59.911C13.415 59.8355 13.3325 59.7842 13.2401 59.7676C13.1478 59.7509 13.0525 59.7703 12.974 59.8216C12.7597 59.9414 12.5681 60.0977 12.4077 60.2837C12.2459 60.468 12.1074 60.6716 11.9955 60.8899C11.9428 60.9853 11.9286 61.0973 11.9557 61.2029C11.9836 61.3045 12.0494 61.3917 12.1395 61.4463C12.1864 61.4734 12.2382 61.4909 12.292 61.4977C12.3457 61.5046 12.4003 61.5006 12.4524 61.4861C12.5031 61.473 12.5507 61.45 12.5925 61.4184C12.6342 61.3869 12.6694 61.3474 12.6958 61.3022L12.7207 61.3171Z" fill="#FF7486"/>
<path d="M13.8035 61.506L14.2257 60.8948C14.3648 60.6911 14.4939 60.4874 14.623 60.2737C14.6524 60.2221 14.6605 60.1611 14.6457 60.1036C14.6309 60.0461 14.5942 59.9966 14.5436 59.9657C14.4909 59.9373 14.4296 59.9297 14.3716 59.9444C14.3136 59.9591 14.2633 59.9951 14.2306 60.0452C14.0916 60.2489 13.9525 60.4526 13.8233 60.6613L13.4359 61.2923C13.4216 61.3161 13.4123 61.3424 13.4083 61.3698C13.4043 61.3973 13.4058 61.4252 13.4128 61.452C13.4197 61.4788 13.4319 61.504 13.4487 61.5261C13.4654 61.5481 13.4864 61.5666 13.5104 61.5805C13.5595 61.6082 13.6173 61.616 13.6719 61.6021C13.7265 61.5882 13.7737 61.5538 13.8035 61.506Z" fill="#FF7486"/>
<path d="M13.8035 25.131C13.5561 25.1327 13.3096 25.161 13.0684 25.2155C9.4573 25.9807 9.16424 29.9605 8.92582 31.7541C7.93006 32.6168 6.98943 33.5411 6.1095 34.5216C7.59962 31.2325 7.24696 28.9171 6.63602 28.9171C6.48204 28.9171 6.31813 29.0612 6.13931 29.3692C4.15249 33.4037 5.10616 34.0099 5.51346 35.0235C4.82304 35.8632 4.05314 37.0109 3.4422 37.94C3.27247 38.4827 3.2051 39.0521 3.24352 39.6194C4.0967 38.271 5.03924 36.9812 6.0648 35.7588C6.32326 36.0412 6.64038 36.2636 6.99391 36.4104C7.34744 36.5572 7.7288 36.6248 8.11123 36.6085C9.04503 36.6085 10.257 36.2308 11.7173 35.0533C13.1776 33.8757 12.7902 33.4087 11.7173 33.4087C9.88583 33.5516 8.12047 34.1567 6.58634 35.1676C7.44823 34.2116 8.37069 33.3121 9.34802 32.4746H9.53678C13.2571 32.4796 17.3351 25.131 13.8035 25.131Z" fill="#17FFDD"/>
<path d="M14.3002 43.0527L14.5883 42.8837L14.6826 42.8341L14.7969 42.8043C14.9757 42.7148 15.1545 42.6304 15.3383 42.5509C15.7241 42.3877 16.1208 42.2516 16.5254 42.1434L16.6546 42.1087H16.739L17.0122 42.054C17.2208 42.0143 17.4245 41.9844 17.6331 41.9546C18.0754 41.9152 18.5139 41.8405 18.9444 41.7311C19.0406 41.6936 19.1237 41.6286 19.1833 41.5442C19.2429 41.4598 19.2764 41.3597 19.2796 41.2565C19.2828 41.1532 19.2555 41.0513 19.2012 40.9634C19.1469 40.8755 19.0679 40.8055 18.9742 40.7622C18.714 40.6782 18.4429 40.633 18.1695 40.628C17.9471 40.6247 17.7248 40.6363 17.5039 40.6628C17.0328 40.7229 16.5675 40.8226 16.1132 40.9609C15.2354 41.2199 14.3991 41.6031 13.6296 42.0987C13.4979 42.1916 13.4084 42.3331 13.381 42.4919C13.3535 42.6508 13.3902 42.8141 13.4831 42.9459C13.576 43.0776 13.7174 43.1671 13.8762 43.1946C14.035 43.2221 14.1982 43.1853 14.33 43.0924L14.3002 43.0527Z" fill="#443247"/>
<path d="M63.3598 41.8801C65.3581 41.6925 67.3272 41.2688 69.2259 40.6181C69.277 40.5966 69.3186 40.5573 69.3429 40.5075C69.3672 40.4577 69.3726 40.4007 69.358 40.3472C69.3434 40.2937 69.3099 40.2473 69.2636 40.2167C69.2174 40.1861 69.1616 40.1733 69.1067 40.1808C67.2215 40.7168 65.3012 41.1202 63.3598 41.3882C63.0518 41.428 63.0469 41.9199 63.3598 41.8801Z" fill="#443247"/>
<path d="M86.238 33.8608C85.966 32.8695 85.5967 31.9075 85.1353 30.989C85.1127 29.5515 84.6898 28.1488 83.9142 26.9384C83.1385 25.7281 82.0408 24.758 80.7444 24.1373C77.7642 22.7064 74.1383 23.3026 71.5057 25.131C70.6702 25.7102 69.9395 26.4277 69.3451 27.2526C69.0484 24.649 68.0926 22.1642 66.5681 20.0332C65.0435 17.9023 63.0007 16.1956 60.6328 15.0747C59.0654 14.3405 57.3868 13.8721 55.6658 13.6884C55.6286 13.6769 55.5888 13.6769 55.5515 13.6884C50.3146 10.4226 44.2686 8.68779 38.0973 8.6801C30.6467 8.6801 23.0968 11.229 17.0122 15.4473C10.9275 19.6656 6.08465 25.618 3.73523 32.5938C3.44714 33.4335 3.20376 34.2931 3.00011 35.1576C2.97171 35.1457 2.93983 35.1453 2.91113 35.1565C2.88243 35.1676 2.85914 35.1893 2.84613 35.2172C1.49872 38.3932 0.952874 41.8519 1.25667 45.2885C1.39662 46.9812 1.7453 48.6501 2.29479 50.2571C2.78056 51.8419 3.58137 53.3122 4.64917 54.5798C5.64906 55.7371 7.04129 56.4838 8.55824 56.6765C7.04329 59.4291 5.57801 62.2513 4.97203 65.3616C4.6591 66.9416 4.47532 68.6955 4.97203 70.2606C5.37933 71.5425 6.33797 72.7449 7.73371 72.9089C7.95226 72.9387 8.04167 72.5809 7.84795 72.4865C7.6953 72.4154 7.54761 72.334 7.40588 72.243C6.55719 70.5726 6.29143 68.6662 6.6509 66.8273C7.02839 64.7852 7.93736 62.9021 8.8364 61.0439C8.97547 60.7557 8.54831 60.4973 8.39929 60.7905C7.40588 62.7779 6.3479 64.7952 5.99028 67.0062C5.74365 68.3712 5.8202 69.7751 6.21379 71.1053C5.03163 69.3315 5.35946 66.6932 5.87106 64.6461C6.56645 61.8538 7.85789 59.2502 9.18906 56.6964C9.22635 56.6786 9.25674 56.649 9.27558 56.6121C9.29443 56.5753 9.30068 56.5334 9.29336 56.4927L9.45728 56.1747C9.61622 55.8716 9.16422 55.6033 9.00031 55.9064L8.78672 56.289C5.61774 55.9064 3.7551 52.9153 2.76169 50.1379C1.15552 45.6513 1.16781 40.7441 2.79646 36.2656C1.69377 42.0093 2.51831 48.0461 5.8363 53.0097C6.34758 53.7714 6.90667 54.5 7.51019 55.1909C8.0069 55.7424 8.77183 54.9425 8.30989 54.391C6.06722 51.7351 4.52977 48.5567 3.83954 45.1494C3.5344 43.5771 3.40942 41.9752 3.46701 40.3746C3.562 40.352 3.65143 40.3104 3.72995 40.2523C3.80848 40.1943 3.87447 40.1209 3.92398 40.0368C4.61619 38.9254 5.37939 37.8599 6.20883 36.8469C6.7955 37.2073 7.47249 37.3934 8.16088 37.3836C9.44734 37.3836 10.8133 36.8072 12.2239 35.6644C12.8597 35.1676 13.6693 34.3726 13.3713 33.5428C13.1329 32.8621 12.3779 32.7181 11.757 32.7181H11.5881C12.4942 32.227 13.2983 31.5676 13.9574 30.7753C15.1694 29.3593 15.9443 27.7197 15.9443 26.4924C15.9683 26.2082 15.9289 25.9222 15.8288 25.6551C15.7287 25.388 15.5704 25.1465 15.3655 24.9482C15.1605 24.7499 14.9141 24.5996 14.6439 24.5084C14.3737 24.4171 14.0866 24.3871 13.8035 24.4205C13.5058 24.4232 13.2094 24.4582 12.9193 24.5249C8.99534 25.3546 8.4887 29.4189 8.24035 31.3716V31.3765L7.74365 31.8138C8.01187 30.348 7.87776 29.25 7.52013 28.7034C7.37542 28.4621 7.1447 28.2846 6.87441 28.2066C9.11735 24.1604 12.1492 20.6057 15.7903 17.7527C21.4498 13.2839 28.2882 10.5612 35.4697 9.91727C43.1247 9.29917 50.7495 11.4288 56.9771 15.9243C62.3651 19.9346 66.394 25.5012 68.5205 31.8734C68.5184 31.8849 68.5184 31.8967 68.5205 31.9082C68.6695 32.3504 68.8086 32.7926 68.9378 33.2398C69.1828 34.091 69.3914 34.9473 69.5636 35.8085C69.6481 36.2159 70.2491 36.0371 70.1795 35.6396C69.9718 34.3896 69.6881 33.1535 69.3302 31.938C69.3571 31.88 69.3739 31.8178 69.3798 31.7542C69.3798 31.7542 69.3798 31.7045 69.3798 31.6796C69.3798 31.625 69.3798 31.5703 69.4047 31.5206C69.4295 31.4709 69.4345 31.3368 69.4543 31.2473C69.4941 31.0436 69.5239 30.8399 69.5636 30.6362C69.6394 30.2344 69.7406 29.8377 69.8666 29.4487C69.888 29.371 69.8901 29.2891 69.8728 29.2104C69.8555 29.1316 69.8193 29.0582 69.7673 28.9966C69.7961 28.9792 69.8187 28.9531 69.8318 28.9221C71.2474 26.3881 74.3717 25.2751 77.1533 25.8217C80.1931 26.4179 82.617 28.7184 83.9581 31.4213C85.4006 34.4648 85.9402 37.8584 85.5128 41.1994C85.1552 44.0911 83.5608 47.1617 80.6054 48.0511C77.3917 49.0448 74.3717 46.7593 72.8021 44.1209C72.3825 43.414 72.0236 42.6726 71.7292 41.9049C71.6597 41.1448 71.5753 40.3895 71.4759 39.6343C71.4611 39.5306 71.4069 39.4366 71.3245 39.3718C71.2422 39.3071 71.1381 39.2765 71.0339 39.2865C70.7708 37.8117 70.9434 36.2923 71.5306 34.9142C72.4495 32.9267 74.7293 31.1877 76.9447 31.0337C77.4902 30.9779 78.0407 31.0681 78.54 31.2951C79.0392 31.5221 79.4691 31.8777 79.7858 32.3255C80.0943 32.8527 80.2904 33.438 80.362 34.0447C80.6401 35.5352 80.7296 37.4034 80.1285 38.8493C80.0305 39.1117 79.8782 39.3504 79.6815 39.5498C79.5413 39.6877 79.3562 39.7706 79.16 39.7834C78.7193 39.7866 78.2934 39.6247 77.9661 39.3295C77.6388 39.0343 77.4339 38.6273 77.3917 38.1885C77.3408 37.5424 77.4082 36.8925 77.5904 36.2706C77.599 36.1495 77.5656 36.0292 77.4957 35.93C77.4259 35.8308 77.324 35.7587 77.2072 35.726C77.0904 35.6933 76.9658 35.7019 76.8546 35.7505C76.7435 35.799 76.6524 35.8844 76.597 35.9923C76.2145 37.3338 75.996 39.1523 77.1682 40.1858C77.5213 40.521 77.9572 40.7562 78.4312 40.8671C78.9052 40.978 79.4002 40.9606 79.8653 40.8168C81.5789 40.1063 81.718 37.5376 81.6832 35.9774C81.6435 34.0844 81.3604 31.933 79.7262 30.7405C77.4066 29.0363 74.2624 30.4623 72.3799 32.1516C69.7573 34.5216 69.499 38.1139 70.4676 41.3485C70.5918 41.7559 70.7309 42.1683 70.8849 42.5707C70.8849 42.9185 70.8849 43.2614 70.8849 43.6092C70.8627 43.6667 70.8627 43.7305 70.8849 43.788C70.9364 47.0913 70.4859 50.3833 69.5487 53.5513C68.2999 57.3501 65.9609 60.6972 62.8233 63.1754C61.1597 64.5558 59.2597 65.6231 57.2155 66.3255C59.7835 62.8475 59.4656 56.7809 54.8164 55.4244C54.8681 55.3159 54.8936 55.1968 54.8909 55.0766C54.8909 55.0369 54.8661 54.4407 54.7469 53.4867C55.0151 53.4867 55.2833 53.4867 55.5565 53.4867C55.6224 53.4867 55.6856 53.4605 55.7321 53.4139C55.7787 53.3673 55.8049 53.3041 55.8049 53.2383C55.8049 53.1724 55.7787 53.1092 55.7321 53.0626C55.6856 53.016 55.6224 52.9898 55.5565 52.9898C55.2585 52.9898 54.9654 52.9501 54.6724 52.9252C54.6277 52.6321 54.578 52.324 54.5184 51.9911C55.6161 51.6533 56.6561 51.1507 57.6029 50.5006C58.5027 49.9128 59.2432 49.1118 59.7588 48.1687C60.2744 47.2256 60.5491 46.1696 60.5583 45.0948C60.5907 44.7229 60.549 44.3482 60.4356 43.9926C60.3222 43.637 60.1393 43.3074 59.8977 43.0229C59.7273 42.8583 59.5257 42.7296 59.3048 42.6442C59.0838 42.5589 58.848 42.5187 58.6113 42.526C57.5086 42.526 56.0979 43.3906 54.8313 44.8364C54.1976 45.5559 53.6646 46.3582 53.2468 47.2213C53.0018 46.5125 52.7336 45.8119 52.4422 45.1196V45.0649C53.3239 44.5891 54.1238 43.9752 54.8115 43.2465C55.4444 42.5809 55.9495 41.8044 56.3016 40.956C56.5694 40.2711 56.7286 39.5485 56.7735 38.8145C58.3381 39.1126 59.9077 39.366 61.4872 39.5598C63.7774 39.8585 66.0876 39.9765 68.3964 39.9125C68.4707 39.903 68.539 39.8668 68.5885 39.8105C68.638 39.7543 68.6653 39.6819 68.6653 39.607C68.6653 39.532 68.638 39.4597 68.5885 39.4034C68.539 39.3472 68.4707 39.3109 68.3964 39.3014C64.5072 38.9785 60.6279 38.6356 56.7884 37.945C56.7884 37.8754 56.7884 37.8059 56.7884 37.7363C56.7786 37.1572 56.6231 36.5899 56.3363 36.0867C56.203 35.8596 56.0118 35.672 55.7823 35.5428C55.5529 35.4136 55.2933 35.3476 55.03 35.3514C54.3644 35.3514 53.6492 35.7588 52.9091 36.5588C52.765 36.7078 52.6309 36.8767 52.4919 37.0556C51.8263 36.8966 51.1607 36.7277 50.505 36.5588C50.5895 36.4395 50.6739 36.3302 50.7534 36.201C51.2716 35.3769 51.6141 34.4546 51.7594 33.4919C51.9047 32.5292 51.8497 31.5468 51.5978 30.6064C51.1706 28.8972 50.3461 28.5395 49.7302 28.5395C49.3755 28.5717 49.0328 28.6836 48.7275 28.8668C48.4221 29.0501 48.1621 29.2999 47.9669 29.5978C46.8181 31.2012 46.1418 33.0947 46.0148 35.0632C45.2201 34.1987 44.3806 33.3706 43.4965 32.5789C43.9437 31.6395 44.2308 30.6319 44.3459 29.5978C44.5744 27.4958 44.0112 25.3841 42.7663 23.6752C42.0759 22.6815 41.4104 22.1847 40.7398 22.1847C40.4644 22.19 40.1962 22.2737 39.9667 22.4259C39.7371 22.5782 39.5556 22.7926 39.4434 23.0442C38.7629 24.2814 38.7927 26.9942 39.5477 29.4686C39.0758 29.1506 38.594 28.8376 38.1023 28.5345C37.8042 27.1025 37.2542 25.7348 36.4781 24.4951C35.9031 23.5977 35.1672 22.8144 34.3075 22.1847C33.2926 21.4667 32.121 21.0017 30.8901 20.8283C30.5532 20.7752 30.2129 20.7469 29.8719 20.7438C29.1169 20.7438 28.1135 20.9226 27.6218 21.7673C27.3138 22.3089 27.1251 23.2579 28.0341 24.8429C28.9505 26.3136 30.1593 27.5803 31.5855 28.5643C33.776 30.1046 35.5592 30.4276 36.632 30.4276H36.6519L37.2579 30.8051C37.0542 30.8051 36.8655 30.8051 36.6867 30.8051C35.5334 30.789 34.3848 30.9567 33.2842 31.302C32.1269 31.7045 31.4117 32.2957 31.2229 33.0211C31.059 33.6422 31.2229 34.5664 32.7826 35.4756C33.9204 36.1425 35.214 36.4973 36.5327 36.5041C38.5487 36.4386 40.4881 35.7163 42.0561 34.4471C42.6422 34.9804 43.2084 35.5286 43.7548 36.0917C43.1846 35.9864 42.6061 35.9332 42.0263 35.9327C40.258 35.9327 39.046 36.4296 38.743 37.3289C38.5642 37.8257 38.5891 38.6008 39.6917 39.5051C40.7279 40.3836 42.0438 40.8629 43.4021 40.8566C44.6279 40.8318 45.8301 40.515 46.9089 39.9324C47.3956 40.628 47.8559 41.3402 48.2897 42.0689C47.3429 41.7453 46.3498 41.5775 45.3492 41.5721C43.6803 41.5721 42.5081 42.0689 42.1306 42.9483C41.917 43.4452 41.8673 44.2302 42.8111 45.2289C43.5283 46.009 44.4653 46.553 45.4982 46.7891C44.9851 46.9082 44.5402 47.2263 44.2614 47.6735C44.2366 47.7182 44.2217 47.7629 44.2018 47.8026C41.5354 46.7514 39.0201 45.3514 36.7215 43.639C37.0542 43.5694 37.3821 43.4999 37.7149 43.4402C38.2116 43.3558 38.0526 42.6353 37.6006 42.6055C36.8987 42.5639 36.1944 42.5972 35.4995 42.7049C31.7594 39.7699 28.5649 36.1993 26.0621 32.1566C24.5857 29.7717 23.452 27.1909 22.6945 24.4901C22.6721 24.4097 22.6187 24.3415 22.546 24.3005C22.4734 24.2595 22.3874 24.2491 22.307 24.2715C22.2267 24.2939 22.1585 24.3473 22.1175 24.42C22.0766 24.4927 22.0661 24.5786 22.0885 24.659C23.4197 29.6276 26.1367 34.1838 29.4497 38.0742C30.952 39.8378 32.6003 41.4716 34.377 42.9583C32.0678 42.4704 29.9482 41.3267 28.2725 39.6641C25.9429 37.4332 24.5025 34.5664 23.5091 31.5256C22.918 29.7071 22.4759 27.8489 22.019 25.9856C22.019 25.9558 22.019 25.9211 22.019 25.8912C22.0253 25.8555 22.0211 25.8186 22.007 25.7851C21.993 25.7516 21.9695 25.7229 21.9395 25.7024V25.6229C21.8849 25.3993 21.5421 25.4937 21.5918 25.7173L21.6464 25.9757C21.0882 29.2933 20.819 32.653 20.8418 36.0172C20.8418 37.7413 20.9212 39.4952 21.105 41.2193C20.8616 40.0318 20.6977 38.8294 20.5686 37.6419C20.2789 34.9559 20.2622 32.2474 20.5189 29.5581C20.6133 28.6091 20.7474 27.66 20.9312 26.721L21.4279 25.9906C21.4603 25.9473 21.4808 25.8963 21.4877 25.8427C21.4945 25.789 21.4873 25.7345 21.4668 25.6845C21.4462 25.6344 21.4131 25.5906 21.3706 25.5571C21.3281 25.5237 21.2777 25.5019 21.2242 25.4937C21.2283 25.4536 21.2179 25.4134 21.1949 25.3803C21.172 25.3473 21.1379 25.3235 21.0989 25.3133C21.06 25.3031 21.0187 25.3072 20.9824 25.3248C20.9462 25.3424 20.9174 25.3723 20.9014 25.4093C20.9014 25.4788 20.8666 25.5484 20.8467 25.6179V25.6428C18.8599 28.4848 17.0221 31.466 15.1396 34.3925C13.4707 36.996 11.7074 39.684 9.48211 41.8453C9.2288 42.0888 9.59635 42.4266 9.85961 42.218C10.5675 41.6583 11.2317 41.0453 11.8464 40.3846L11.6776 40.628C11.0169 41.572 10.3364 42.4962 9.64603 43.4154C9.16562 44.1099 8.61827 44.7556 8.01186 45.3432C7.86285 45.4773 8.06154 45.7407 8.23042 45.6214C9.82484 44.5035 10.9474 42.6403 12.0203 41.0702C13.2769 39.202 14.469 37.2941 15.7058 35.416C15.7274 35.3845 15.7389 35.3473 15.7389 35.3092C15.7389 35.271 15.7274 35.2338 15.7058 35.2023L15.8399 34.9986C17.4244 32.5392 18.8748 30.0002 20.4394 27.5458C20.1315 29.3518 19.9654 31.1792 19.9427 33.0112C19.8464 35.8026 20.0882 38.5954 20.663 41.3286C20.9009 42.4206 21.2436 43.4872 21.6862 44.5134C21.8054 45.0699 21.9395 45.6165 22.0984 46.158C22.1147 46.1969 22.1445 46.2285 22.1822 46.2471C22.22 46.2656 22.2633 46.2698 22.3039 46.2589C22.3446 46.248 22.3799 46.2227 22.4033 46.1877C22.4267 46.1527 22.4366 46.1104 22.4312 46.0686C22.3816 45.7953 22.3369 45.5171 22.2921 45.2438C22.3192 45.2151 22.3374 45.1792 22.3444 45.1404C22.3515 45.1016 22.3471 45.0616 22.3319 45.0252C22.2921 44.9358 22.2524 44.8414 22.2176 44.747C21.3116 38.8836 21.2163 32.9234 21.9345 27.034C22.6349 30.2238 23.4246 33.4434 25.0439 36.3004C26.4541 38.933 28.6223 41.0812 31.2676 42.4664C31.9575 42.8063 32.6819 43.0712 33.4283 43.2564C32.9746 43.422 32.5276 43.6059 32.0872 43.8079C32.0116 43.8407 31.9439 43.8892 31.8885 43.9502C31.8331 44.0111 31.7913 44.0832 31.7658 44.1615C31.7404 44.2399 31.7319 44.3228 31.7409 44.4047C31.7499 44.4866 31.7762 44.5656 31.818 44.6366C31.8599 44.7075 31.9163 44.7688 31.9836 44.8163C32.051 44.8638 32.1276 44.8964 32.2085 44.912C32.2893 44.9276 32.3726 44.9258 32.4527 44.9068C32.5329 44.8878 32.6081 44.8519 32.6733 44.8016C33.4731 44.4473 34.3047 44.1695 35.1568 43.9719L35.6088 43.8675C37.4875 45.3136 39.5197 46.5482 41.6686 47.5492C42.4534 47.907 43.2515 48.2299 44.0628 48.5181C44.0747 48.9636 44.1885 49.4004 44.3955 49.795C43.8541 49.5267 43.3177 49.2435 42.8011 48.9404C42.7405 48.9123 42.6715 48.9079 42.6077 48.928C42.544 48.9481 42.49 48.9913 42.4564 49.0492C42.4229 49.107 42.4121 49.1753 42.4262 49.2407C42.4404 49.306 42.4784 49.3638 42.5329 49.4025C43.2978 49.8547 44.1025 50.2571 44.9121 50.6347C46.0645 52.2098 47.8625 53.0445 50.1722 53.0445C50.6125 53.0439 51.0522 53.014 51.4885 52.955C51.7716 53.0246 52.0647 53.0892 52.3528 53.1488C52.4597 53.7988 52.5327 54.4539 52.5713 55.1114C52.5689 55.1511 52.5689 55.1909 52.5713 55.2307C51.4886 55.3978 50.484 55.8959 49.6954 56.6566C48.831 55.8027 48.0104 54.9056 47.2367 53.9686C47.0678 53.7599 46.6953 54.0432 46.8642 54.2568C47.6263 55.237 48.4422 56.1742 49.308 57.0641C49.1987 57.1932 49.0894 57.3274 48.9901 57.4665L48.1854 56.7163C48.0066 56.5473 47.7334 56.8156 47.9122 56.9895C49.5178 58.5145 50.9871 60.177 52.3031 61.9581C52.0945 62.1419 51.8859 62.3357 51.6822 62.5245C51.6059 62.6136 51.5659 62.7282 51.5702 62.8455C51.5746 62.9627 51.6228 63.0741 51.7054 63.1573C51.7881 63.2406 51.899 63.2897 52.0162 63.2949C52.1334 63.3001 52.2482 63.261 52.3379 63.1853C52.5117 63.0413 52.6806 62.8972 52.8346 62.763C53.2058 63.332 53.5457 63.9208 53.8528 64.5268C54.2263 65.2845 54.5354 66.0724 54.7767 66.882C53.5744 67.7095 52.226 68.3013 50.803 68.6259C48.5778 69.1725 46.2979 69.1774 44.028 69.3811C43.6803 69.411 43.5313 69.9674 43.9386 70.0469C44.1671 70.0867 44.3906 70.1264 44.6191 70.1562C42.4031 70.9047 40.1376 71.4974 37.839 71.93C34.7405 72.5695 31.5934 72.9452 28.4314 73.0529H28.1433C27.8403 73.0529 27.5423 73.0529 27.2443 73.0529C26.6213 73.0374 25.9996 72.9893 25.3817 72.9089C23.827 72.2977 22.2325 71.8008 20.6878 71.1599C19.0827 70.503 17.5456 69.6909 16.0982 68.7352C13.8283 67.2447 11.5832 65.0982 10.9822 62.3307C10.7069 60.8611 10.9125 59.3418 11.5683 57.9982C11.7819 57.5311 11.1411 57.1287 10.8679 57.5858C10.1123 58.8281 9.74154 60.2665 9.80254 61.7194C9.86354 63.1723 10.3535 64.5746 11.2106 65.7491C13.1975 68.5663 16.3118 70.4544 19.4212 71.7909C21.3884 72.7074 23.4895 73.3028 25.6449 73.5548C26.1712 73.6753 26.7093 73.7369 27.2493 73.7386C27.5315 73.7394 27.8135 73.7228 28.0937 73.6889C28.1255 73.753 28.1754 73.8065 28.2371 73.8427C28.2989 73.8789 28.3699 73.8962 28.4414 73.8926C31.6583 73.8227 34.8636 73.4803 38.0228 72.8691C40.7299 72.3722 43.6405 71.8356 46.0545 70.4444C46.1138 70.4124 46.1609 70.3618 46.1887 70.3004C47.7575 70.3301 49.3244 70.1766 50.8577 69.8432C52.365 69.5511 53.8093 68.9962 55.1244 68.2036C55.189 68.5266 55.2486 68.8495 55.2883 69.1973C55.3266 69.5272 55.3482 69.8589 55.3529 70.191C55.287 70.3887 55.2108 70.5827 55.1244 70.7723C54.8116 71.4843 54.3563 72.1245 53.7864 72.6535C53.2166 73.1825 52.5444 73.589 51.8114 73.8479C51.7567 73.863 51.7103 73.8993 51.6823 73.9487C51.6544 73.9981 51.6472 74.0565 51.6623 74.1112C51.6775 74.1659 51.7137 74.2123 51.7631 74.2403C51.8125 74.2683 51.8709 74.2754 51.9256 74.2603C52.6117 74.1244 53.2621 73.8475 53.8358 73.4473C54.4095 73.047 54.8939 72.5321 55.2585 71.935C55.173 72.6064 55.0385 73.2707 54.8562 73.9224C54.7966 74.1361 55.1194 74.2851 55.2188 74.0765C55.7328 72.9526 55.9955 71.73 55.9886 70.4941C56.3102 69.66 56.4785 68.7746 56.4854 67.8806C56.4854 67.6471 56.4854 67.4186 56.4556 67.19L56.7138 66.9466L56.8927 66.7478C56.9191 66.8106 56.9673 66.8618 57.0285 66.8919C57.0896 66.922 57.1595 66.9291 57.2255 66.9118C61.3233 66.0721 64.8151 63.553 67.3582 60.2837C70.1199 56.7262 71.4461 52.4483 71.8534 47.9964C71.9379 47.0474 71.9677 46.0984 71.9627 45.1544C73.6717 47.8016 74.3569 50.9814 73.8899 54.0978C73.6072 55.8445 72.9588 57.5118 71.9873 58.9905C71.0158 60.4692 69.743 61.726 68.2523 62.6785C66.6061 63.7339 64.7534 64.4251 62.8183 64.7057C62.4856 64.7604 62.5601 65.3169 62.8978 65.297C64.7348 65.1209 66.5141 64.5596 68.1196 63.6495C69.7252 62.7395 71.121 61.5012 72.216 60.0154C73.3507 58.4728 74.1283 56.6972 74.4926 54.817C74.8568 52.9368 74.7986 50.9991 74.3221 49.1442C74.14 48.4006 73.894 47.6741 73.5869 46.9729C74.5831 48.0421 75.8418 48.8318 77.2377 49.2634C80.7146 50.3118 84.127 48.3392 85.7165 45.219C87.4549 41.8105 87.2314 37.468 86.238 33.8608ZM4.16737 35.098C4.23691 34.8247 4.31638 34.5564 4.39088 34.2881C4.47082 34.5062 4.5654 34.7187 4.674 34.9241C4.45048 35.2123 4.22697 35.5253 3.99848 35.8433C4.05312 35.5949 4.10776 35.3514 4.16737 35.098ZM6.10948 34.5217C6.98941 33.5411 7.93003 32.6168 8.9258 31.7542C9.16422 29.9605 9.45728 25.9807 13.0683 25.2155C13.3096 25.161 13.5561 25.1327 13.8035 25.131C17.335 25.131 13.2571 32.4795 9.54172 32.4795H9.3331C8.35577 33.317 7.43331 34.2166 6.57142 35.1725C8.10555 34.1617 9.8709 33.5565 11.7024 33.4136C12.7852 33.4136 13.1279 33.9105 11.7024 35.0582C10.2768 36.206 9.03011 36.6134 8.0963 36.6134C7.71388 36.6297 7.33252 36.5622 6.97899 36.4154C6.62546 36.2686 6.30833 36.0462 6.04988 35.7638C5.1234 36.8742 4.25945 38.0353 3.46204 39.2418C3.50674 38.7002 3.56138 38.1586 3.63589 37.622C4.21207 36.7575 4.88759 35.7737 5.49854 35.0235C5.21541 34.3279 4.67897 33.826 5.00183 32.2709C5.41259 31.1429 5.89198 30.0411 6.43731 28.9717C6.4831 28.9406 6.53612 28.9218 6.59129 28.9171C7.24694 28.9171 7.5996 31.2325 6.10948 34.5217ZM68.4113 29.25C66.5027 24.4289 63.4716 20.1331 59.5699 16.7192C58.5424 15.8212 57.4573 14.9913 56.3214 14.235C59.2108 14.7495 61.8878 16.0949 64.0251 18.1067C66.1625 20.1186 67.6676 22.7096 68.3566 25.5633C68.5664 26.4695 68.6977 27.3921 68.749 28.3209C68.6109 28.6207 68.4979 28.9314 68.4113 29.25ZM68.7689 29.7916C68.7689 29.8711 68.7242 29.9456 68.7043 30.0201L68.6546 29.886C68.6841 29.8726 68.7096 29.8518 68.7288 29.8257C68.7479 29.7996 68.76 29.769 68.7639 29.7369V29.7916H68.7689ZM79.7312 25.5782C78.2906 24.8891 76.6767 24.6471 75.0974 24.8835C73.5181 25.12 72.0457 25.824 70.87 26.9048C70.3054 27.4299 69.8379 28.0505 69.4891 28.7382C69.4671 28.7757 69.4584 28.8194 69.4643 28.8624H69.4345C69.4345 28.5991 69.4345 28.3656 69.4345 28.0774C70.6564 25.9161 73.2194 24.4802 75.5787 24.0578C77.0309 23.7693 78.5355 23.9054 79.9123 24.45C81.2892 24.9946 82.48 25.9245 83.3422 27.1284C83.9 27.936 84.2871 28.8489 84.4797 29.8114C83.3503 27.9615 81.6978 26.4883 79.7312 25.5782ZM55.03 36.0718C55.5665 36.0718 55.9589 36.5687 56.0234 37.7761C55.0995 37.6038 54.1806 37.4117 53.2667 37.1997C53.8727 36.519 54.5035 36.0718 55.03 36.0718ZM52.0051 37.7164C51.5947 38.3441 51.2454 39.0096 50.962 39.7039C50.7721 40.1678 50.6144 40.6442 50.4901 41.1298C49.9586 40.2057 49.3825 39.3064 48.7666 38.4418C49.2209 38.0562 49.6413 37.6323 50.0232 37.1749C50.654 37.3388 51.3146 37.5425 51.9802 37.7164H52.0051ZM49.7252 29.2699C50.2219 29.2699 50.6143 29.7121 50.8825 30.7604C51.1312 31.7171 51.1571 32.7181 50.9582 33.6863C50.7592 34.6545 50.3408 35.5641 49.7351 36.3451C48.7417 36.0569 47.7086 35.7489 46.7003 35.421C46.8095 32.4349 48.4387 29.245 49.7004 29.245L49.7252 29.2699ZM42.4634 33.8608C42.3243 33.7366 42.1951 33.6124 42.0561 33.4932L41.8971 33.6323C40.7746 33.1652 39.6619 32.6684 38.5642 32.1417C38.2165 31.9777 37.9135 32.4895 38.2612 32.6385C39.2745 33.1321 40.301 33.6008 41.3408 34.0447C39.9485 35.0996 38.2635 35.6968 36.5178 35.7538C35.3264 35.7491 34.1575 35.4285 33.1303 34.8247C30.0904 33.0857 33.1303 31.5057 36.6718 31.5057C38.0375 31.4827 39.3923 31.7521 40.6454 32.2957C39.4283 31.3446 38.1544 30.4685 36.8307 29.6723H36.6022C31.4117 29.6723 24.87 21.4493 29.8421 21.4543C30.1466 21.4547 30.4505 21.4796 30.751 21.5288C35.7181 22.2741 37.094 27.2129 37.4218 28.9817C38.7713 29.7994 40.0686 30.7005 41.306 31.6796C39.2546 28.4699 39.1901 22.9051 40.71 22.9051C41.0925 22.9051 41.5693 23.2529 42.1405 24.0678C43.03 25.3169 43.5418 26.7955 43.6149 28.3274C43.688 29.8593 43.3193 31.3799 42.5528 32.7081C43.2879 33.3441 43.9883 34.0049 44.6638 34.6955C43.9253 34.4239 43.1919 34.1457 42.4634 33.8608ZM46.7897 51.4843C47.4851 51.7576 48.1904 52.016 48.9007 52.2495C48.1512 52.1361 47.4329 51.8706 46.7897 51.4694V51.4843ZM51.0862 52.2893C50.4057 52.1154 49.7351 51.9216 49.0695 51.7079C47.8893 51.3275 46.7288 50.888 45.5926 50.3913C45.4228 50.1738 45.2684 49.9447 45.1307 49.7056C44.9633 49.4253 44.8473 49.1174 44.7879 48.7964C46.2406 49.2592 47.7397 49.5607 49.2583 49.6957C49.5712 49.6957 49.6457 49.1988 49.3328 49.1491C47.8251 48.9342 46.3426 48.5697 44.9072 48.061C45.1654 47.6039 45.7963 47.3952 46.6009 47.3952C48.4238 47.3952 51.1358 48.4634 52.472 50.2124C52.0755 48.6866 51.5675 47.192 50.9521 45.7407C50.8676 45.537 50.7832 45.3333 50.6938 45.1345C49.5152 45.8029 48.1932 46.1778 46.8393 46.2276C46.1875 46.2384 45.5407 46.1111 44.9415 45.8542C44.3423 45.5973 43.8042 45.2166 43.3624 44.737C41.8723 43.162 43.3326 42.3124 45.3492 42.3124C46.9933 42.3124 49.0149 42.8688 50.1722 44.0414C49.2977 42.2574 48.2636 40.5562 47.0827 38.9586C45.9735 39.6778 44.6886 40.0799 43.3674 40.1212C42.1796 40.1276 41.0289 39.7081 40.1239 38.9387C38.3804 37.5028 39.8805 36.6581 41.9915 36.6581C43.4909 36.6375 44.9642 37.0517 46.2334 37.8506C46.0694 37.6469 45.9055 37.4382 45.7367 37.2394C45.0909 36.4743 44.4104 35.7373 43.6952 35.0284C44.3409 35.2818 44.9916 35.5253 45.6423 35.7588C45.9155 36.0619 46.1837 36.365 46.442 36.678C46.5661 36.8221 46.6903 36.9711 46.8095 37.1202C46.7418 36.7929 46.7019 36.4605 46.6903 36.1265C47.5248 36.4147 48.3692 36.683 49.2136 36.9413C48.7681 37.4438 48.2683 37.8954 47.7235 38.2878C48.951 39.9473 50.025 41.7152 50.9322 43.5694C50.7931 41.6515 51.6623 39.4356 52.7203 37.9102C53.8131 38.1885 54.9108 38.4385 56.0135 38.6605C55.7999 42.4962 52.4471 44.27 51.4637 44.7072C51.563 44.9358 51.6623 45.1594 51.7567 45.3929C52.3483 46.7942 52.8461 48.2333 53.2468 49.7006C53.5945 46.5903 56.8082 43.2415 58.6113 43.2415C59.3364 43.2415 59.8331 43.7831 59.8232 45.0948C59.8232 49.7106 54.8562 51.1862 53.669 51.4744C53.7733 51.9713 53.8528 52.4284 53.9174 52.8408C53.6045 52.7961 53.2866 52.7464 52.9736 52.6868C52.9339 52.4532 52.8892 52.1899 52.8346 51.9464C52.2618 52.1039 51.677 52.2136 51.0862 52.2744V52.2893ZM48.0215 46.8238C48.805 46.6807 49.5675 46.4404 50.2914 46.1084C50.5547 46.7344 50.7882 47.3753 51.0166 48.0163C50.0901 47.4566 49.0784 47.0521 48.0215 46.8189V46.8238ZM54.1608 55.0866C54.023 55.0629 53.8834 55.0513 53.7435 55.0518C53.5759 55.047 53.4085 55.0671 53.2468 55.1114C53.2141 54.5074 53.1511 53.9055 53.0581 53.3078C53.371 53.3575 53.679 53.3923 53.9919 53.4221C54.1409 54.4506 54.1608 55.0816 54.1608 55.0816V55.0866ZM55.3032 66.5143C55.1087 65.8833 54.8611 65.27 54.5631 64.6809C53.9257 63.4235 53.1636 62.2333 52.2882 61.1284C51.4042 60.0154 50.452 58.9584 49.4371 57.9634C49.5399 57.8383 49.6493 57.7189 49.7649 57.6056C50.6093 58.49 52.0498 60.0899 52.6607 60.865C53.9825 62.4682 54.9552 64.3297 55.5168 66.3304L55.3032 66.5143ZM56.1426 65.6547C55.7509 64.2883 55.1276 62.9993 54.2999 61.8438L54.4141 61.7892L54.5234 61.7345L54.6029 61.6998C54.7618 61.6352 54.9257 61.5755 55.0996 61.5258C55.5286 61.3873 55.9484 61.2213 56.3562 61.029C56.6989 60.865 56.5102 60.3582 56.1724 60.3483C55.3008 60.3294 54.441 60.553 53.6889 60.9942C53.0795 60.2184 52.4296 59.4754 51.7418 58.7683C51.2451 58.2714 50.7484 57.7398 50.2219 57.228C50.7536 56.7991 51.3736 56.4934 52.0375 56.3327C52.7014 56.1721 53.3926 56.1605 54.0614 56.2989C54.8897 56.4795 55.6506 56.8891 56.2574 57.4812C56.8642 58.0733 57.2926 58.824 57.4937 59.6477C57.7269 60.6874 57.7268 61.7659 57.4931 62.8055C57.2595 63.8451 56.7983 64.8199 56.1426 65.6597V65.6547Z" fill="#443247"/>
<path d="M58.6113 43.2465C56.8083 43.2465 53.5946 46.5903 53.2469 49.7056C52.8461 48.2383 52.3483 46.7992 51.7568 45.3978C51.6624 45.1643 51.563 44.9408 51.4637 44.7122C52.5167 44.2153 56.3165 42.2279 56.0086 37.7562C55.9241 36.5538 55.5119 36.052 55.0151 36.052C53.4605 36.052 50.7087 40.2554 50.9521 43.5495C50.0449 41.6953 48.9709 39.9275 47.7434 38.2679C48.8361 37.4928 51.9107 34.8893 50.8677 30.7356C50.5994 29.6674 50.1822 29.245 49.7103 29.245C48.2202 29.245 46.144 33.836 46.8394 37.1202C46.7202 36.9711 46.596 36.8221 46.4718 36.678C45.2788 35.2491 43.9715 33.9197 42.5627 32.7031C43.3293 31.3749 43.6979 29.8543 43.6248 28.3224C43.5518 26.7905 43.04 25.312 42.1505 24.0628C41.5793 23.248 41.1024 22.9002 40.72 22.9002C39.2 22.9002 39.2646 28.4649 41.316 31.6746C40.0785 30.6955 38.7813 29.7945 37.4318 28.9767C37.1039 27.2228 35.743 22.284 30.761 21.5239C30.4605 21.4746 30.1565 21.4497 29.852 21.4493C24.885 21.4493 31.4216 29.6673 36.6122 29.6673H36.8407C38.1643 30.4635 39.4383 31.3396 40.6554 32.2908C39.4023 31.7471 38.0474 31.4778 36.6817 31.5008C33.1601 31.5008 30.1004 33.0808 33.1402 34.8198C34.1675 35.4235 35.3363 35.7441 36.5278 35.7489C39.3689 35.7489 41.5644 33.9155 42.066 33.4633C43.3966 34.6177 44.6339 35.8753 45.7665 37.2246C45.9354 37.4233 46.0993 37.632 46.2632 37.8357C44.994 37.0367 43.5207 36.6226 42.0213 36.6432C39.9103 36.6432 38.4103 37.4879 40.1537 38.9238C41.0588 39.6932 42.2095 40.1127 43.3972 40.1063C44.7185 40.065 46.0033 39.6629 47.1126 38.9437C48.2804 40.5363 49.3028 42.2308 50.1673 44.0066C49.01 42.8341 46.9884 42.2776 45.3443 42.2776C43.3078 42.2776 41.8673 43.1272 43.3575 44.7023C43.7992 45.1818 44.3374 45.5625 44.9366 45.8194C45.5358 46.0763 46.1826 46.2036 46.8344 46.1928C48.1883 46.143 49.5103 45.7681 50.6888 45.0997C50.7783 45.2985 50.8627 45.5022 50.9471 45.7059C51.5626 47.1572 52.0706 48.6518 52.467 50.1776C51.1309 48.4287 48.4189 47.3604 46.596 47.3604C45.1059 47.3604 44.2317 48.061 45.1406 49.6708C46.3377 51.7874 48.409 52.3091 50.1574 52.3091C51.0724 52.3033 51.9827 52.1763 52.8644 51.9315C53.0842 52.9711 53.2254 54.0257 53.2866 55.0865C53.4483 55.0422 53.6157 55.0221 53.7833 55.0269C53.9231 55.0265 54.0627 55.0381 54.2005 55.0617C54.1305 53.8497 53.9644 52.6452 53.7038 51.4595C54.881 51.1713 59.8332 49.6957 59.858 45.0799C59.8332 43.798 59.3365 43.2465 58.6113 43.2465Z" fill="#17FFDD"/>
<path d="M96.182 42.8043H106.057L114.103 55.8666L122.15 42.8043H132.019V76.5409H122.726V57.1634L114.103 70.3798H113.909L105.336 57.2131V76.5409H96.182V42.8043Z" fill="#08B7AA"/>
<path d="M138.094 42.8043H165.219V50.7092H147.338V55.8666H163.525V63.24H147.343V68.5862H165.458V76.5359H138.094V42.8043Z" fill="#08B7AA"/>
<path d="M178.61 51.0074H168.542V42.8043H198.081V50.9974H187.958V76.5409H178.61V51.0074Z" fill="#08B7AA"/>
<path d="M202.507 42.8043H211.855V76.5409H202.507V42.8043Z" fill="#08B7AA"/>
<path d="M215.565 71.5375V69.5849L220.766 65.3218C224.188 68.0198 227.849 69.3712 231.693 69.3712C234.246 69.3712 235.592 68.5514 235.592 67.0558V66.9614C235.592 65.5156 234.485 64.8399 229.86 63.6822C222.733 62.0426 217.145 60.0701 217.145 53.129V53.0346C217.145 46.7195 222.112 42.2378 230.198 42.2378C235.617 42.2378 244.076 44.7668 244.076 44.7668V46.7195L239.402 53.3227C236.689 51.2401 233.384 50.0759 229.965 49.9987C227.7 49.9987 226.592 50.8633 226.592 52.1651V52.2445C226.592 53.7351 227.744 54.5102 232.468 55.5238C240.177 57.2081 244.995 59.7173 244.995 66.0274V66.1267C244.995 73.0181 239.531 77.1122 231.36 77.1122C225.34 77.1271 219.802 75.249 215.565 71.5375Z" fill="#08B7AA"/>
<path d="M96.182 40.8615H106.057L114.103 53.9239L122.15 40.8615H132.019V74.6031H122.726V55.2257L114.103 68.4272H113.909L105.336 55.2753V74.6031H96.182V40.8615Z" fill="#04D8CC"/>
<path d="M138.094 40.8615H165.219V48.7665H147.338V53.9239H163.525V61.2973H147.343V66.6534H165.458V74.6031H138.094V40.8615Z" fill="#04D8CC"/>
<path d="M178.61 49.0547H168.542V40.8615H198.081V49.0547H187.958V74.6031H178.61V49.0547Z" fill="#04D8CC"/>
<path d="M202.507 40.8615H211.855V74.6031H202.507V40.8615Z" fill="#04D8CC"/>
<path d="M215.565 69.5849L220.766 63.3692C224.188 66.0671 227.849 67.4185 231.693 67.4185C234.246 67.4185 235.592 66.5987 235.592 65.1032V65.0088C235.592 63.5629 234.485 62.8872 229.86 61.7296C222.733 60.0899 217.145 58.1174 217.145 51.1763V51.0819C217.145 44.7668 222.112 40.2852 230.198 40.2852C235.98 40.2852 240.41 41.8254 244.076 44.7569L239.402 51.3601C236.689 49.2775 233.384 48.1133 229.965 48.0362C227.7 48.0362 226.592 48.9007 226.592 50.2025V50.3018C226.592 51.7924 227.744 52.5625 232.468 53.5761C240.177 55.2654 244.995 57.7696 244.995 64.0797V64.1791C244.995 71.0705 239.531 75.1646 231.36 75.1646C225.34 75.1745 219.802 73.2964 215.565 69.5849Z" fill="#04D8CC"/>
<path d="M123.108 34.2086C121.926 35.8979 120.729 36.7774 119.602 36.8022C119.016 36.8022 117.918 35.8085 117.118 35.411C116.615 35.2304 116.18 34.8985 115.874 34.4608C115.567 34.0231 115.403 33.5011 115.404 32.9665C115.431 30.7543 115.796 28.5591 116.487 26.4576C116.651 25.6875 117.208 24.2367 117.208 24.1473L117.118 24.1025C116.407 24.6713 115.783 25.3408 115.265 26.09C114.45 27.1667 113.705 28.2953 113.035 29.4686C112.363 30.7112 111.787 32.0035 111.312 33.3342C110.94 34.296 110.628 35.28 110.378 36.2805C110.343 36.8668 109.851 36.9662 108.257 36.1414C106.941 35.4905 106.295 34.8297 106.27 34.1093C106.296 31.6806 106.603 29.2631 107.184 26.9048C107.393 26.0403 107.765 24.4205 108.307 22.0605L108.168 21.971C106.511 23.9855 105.103 26.1926 103.975 28.5444C103.801 28.9519 103.022 30.4971 102.853 30.9095C102.669 31.2482 102.503 31.5965 102.356 31.9529C101.841 33.1543 101.488 34.4192 101.308 35.7141C101.308 36.3898 101.154 37.0705 100.747 37.0755C100.128 37.0057 99.5284 36.8203 98.9785 36.5289C98.3443 36.2855 97.7589 35.9305 97.2499 35.4806C96.9736 35.0894 96.8516 34.6098 96.9072 34.1341C96.9072 33.9999 96.9718 33.0062 97.1605 31.1132C97.4183 28.6651 97.8213 26.2345 98.3675 23.8342C98.8494 21.4868 99.4495 19.1652 100.166 16.8782C101.092 16.8845 102.009 17.0527 102.878 17.3751C103.871 17.7179 104.368 18.0657 104.368 18.4284C104.368 18.5626 103.871 20.3314 102.808 23.7746C102.28 25.5716 101.851 27.3962 101.522 29.2401L101.656 29.2848C102.907 26.5123 104.472 23.5958 106.255 20.4556C107.865 17.6732 109.325 16.292 110.676 16.2671C111.459 16.2766 112.225 16.4944 112.896 16.8981C113.441 17.1405 113.902 17.5379 114.222 18.0409C114.098 18.4036 113.542 19.8594 112.732 22.3983C111.332 26.6117 110.527 29.1953 110.368 30.2387L110.507 30.2785C111.961 27.5017 113.592 24.8214 115.39 22.2542C116.919 20.0581 118.117 18.9551 118.926 18.9402C119.818 18.937 120.699 19.134 121.504 19.5166C122.324 19.9538 122.781 20.3463 122.925 20.7041C122.795 21.1164 121.896 23.3374 120.913 26.0602C119.92 29.0115 119.423 31.1828 119.468 32.6684C119.468 33.2546 119.622 33.5677 119.939 33.5577C121.246 33.5577 123.531 30.7853 125.205 26.7409C125.547 25.8813 125.855 25.4242 126.123 25.4192C126.62 25.4192 126.854 25.7173 126.864 26.3036C126.726 27.0876 126.483 27.8496 126.143 28.5693C125.333 30.5506 124.315 32.4408 123.108 34.2086Z" fill="#04D8CC"/>
<path d="M133.246 34.457C132.283 35.7836 131.304 36.4792 130.266 36.4991C129.049 36.524 127.132 35.3017 125.885 33.7018C125.327 32.7871 125.056 31.7264 125.105 30.6561C125.136 28.9704 125.329 27.2916 125.681 25.6428C126.089 23.5163 126.501 21.6182 126.963 20.0283C127.247 18.8605 127.6 17.7107 128.021 16.5851C128.985 16.5996 129.943 16.7468 130.867 17.0223C131.91 17.3651 132.456 17.7577 132.466 18.1651C132.61 18.5228 131.523 20.4804 130.44 24.8726C129.645 28.0426 129.288 30.4375 129.322 32.0572C129.208 35.4358 131.597 33.2745 133.47 30.1294C134.251 28.7179 134.945 27.2593 135.546 25.762C135.67 25.3993 135.894 25.2155 136.117 25.2105C136.435 25.2105 136.847 25.7074 136.857 26.2043C136.842 26.5791 136.757 26.9479 136.609 27.2924C135.288 30.7207 134.165 33.1304 133.246 34.457ZM134.503 11.4575C134.196 11.8467 133.813 12.1681 133.376 12.4015C132.939 12.635 132.459 12.7754 131.965 12.8139C130.748 12.8388 129.978 12.0438 129.938 10.6477C129.952 9.6267 130.301 8.63867 130.932 7.83542C131.188 7.42388 131.541 7.08117 131.96 6.83701C132.379 6.59285 132.851 6.4546 133.336 6.43428C133.647 6.42021 133.958 6.47108 134.248 6.58364C134.539 6.6962 134.802 6.868 135.023 7.08811C135.243 7.30821 135.416 7.57181 135.529 7.86214C135.642 8.15247 135.694 8.46317 135.68 8.77449C135.653 9.78824 135.23 10.7511 134.503 11.4575Z" fill="#04D8CC"/>
<path d="M148.237 36.5439C147.472 36.5439 146.374 35.5004 145.689 35.1974C144.506 34.6359 143.821 34.1092 143.632 33.5726C143.519 33.1482 143.464 32.7102 143.468 32.2709C143.471 30.8009 143.629 29.3353 143.94 27.8985C144.365 25.7368 144.97 23.6145 145.748 21.5537L145.609 21.4642C144.305 23.1187 143.093 24.8438 141.978 26.6316C140.366 29.1162 139.258 31.8931 138.715 34.8049C138.715 35.4806 138.432 36.3401 138.024 36.3501C137.408 36.2652 136.826 36.0106 136.346 35.6147C135.716 35.2816 135.18 34.7965 134.786 34.2036C134.62 33.9367 134.55 33.6213 134.587 33.3093C134.603 32.5066 134.678 31.7062 134.811 30.9145C135.378 26.2526 136.357 21.6503 137.736 17.1615C139.897 17.1217 141.626 17.9862 141.814 18.5675C141.958 18.9253 141.611 19.6557 140.677 22.5424C140.082 24.3807 139.609 26.2563 139.261 28.1569L139.395 28.1966C140.766 25.241 142.335 22.381 144.089 19.6358C145.485 17.4894 146.771 16.3814 147.894 16.3615C148.624 16.338 149.346 16.5162 149.981 16.8764C150.617 17.2367 151.14 17.7651 151.495 18.4036C151.366 18.7216 150.894 19.8147 150.075 21.6332C149.278 23.5297 148.684 25.5049 148.301 27.5259C147.905 29.0798 147.663 30.6692 147.581 32.2709C147.581 33.0807 147.606 33.3938 148.192 33.3838C148.778 33.3739 149.573 32.6783 150.676 31.3517C151.875 29.8231 152.829 28.1165 153.502 26.2937C153.999 24.977 154.058 24.8429 154.421 24.8329C154.652 24.8823 154.858 25.0124 155.002 25.2C155.146 25.3876 155.218 25.6204 155.206 25.8565C155.169 26.2314 155.07 26.5975 154.912 26.9396C154.19 28.9401 153.294 30.8736 152.235 32.7181C150.998 34.9142 149.275 36.524 148.237 36.5439Z" fill="#04D8CC"/>
<path d="M161.514 33.8906C160.55 35.2172 159.577 35.9128 158.534 35.9327C157.322 35.9575 155.404 34.7353 154.158 33.1404C153.598 32.2243 153.325 31.162 153.373 30.0897C153.407 28.4041 153.6 26.7256 153.949 25.0764C154.356 22.9548 154.769 21.0519 155.235 19.4669C155.514 18.2983 155.866 17.1483 156.288 16.0236C157.253 16.035 158.211 16.1822 159.135 16.4609C160.178 16.7987 160.729 17.1962 160.734 17.5987C160.878 17.9564 159.79 19.914 158.707 24.3063C157.918 27.4762 157.56 29.871 157.59 31.4908C157.476 34.8744 159.865 32.7081 161.742 29.563C162.523 28.1519 163.215 26.6933 163.814 25.1956C163.943 24.8329 164.166 24.6491 164.39 24.6441C164.703 24.6441 165.12 25.141 165.13 25.6378C165.112 26.0107 165.028 26.3774 164.881 26.721C163.56 30.1592 162.438 32.569 161.514 33.8906ZM162.77 10.8911C162.465 11.2824 162.081 11.6053 161.643 11.839C161.205 12.0726 160.722 12.2118 160.227 12.2475C159.015 12.2475 158.241 11.4774 158.206 10.0812C158.221 9.06042 158.57 8.07261 159.199 7.26901C159.456 6.85746 159.809 6.51476 160.228 6.27059C160.647 6.02643 161.119 5.88818 161.603 5.86787C161.914 5.85455 162.225 5.90594 162.515 6.01877C162.805 6.13159 163.068 6.30341 163.289 6.52336C163.509 6.74331 163.681 7.00662 163.795 7.2966C163.908 7.58659 163.96 7.89695 163.948 8.20807C163.918 9.22123 163.496 10.1832 162.77 10.8911Z" fill="#04D8CC"/>
</g>
<defs>
<clipPath id="clip0_266_51">
<rect width="245" height="83" fill="white"/>
</clipPath>
</defs>
</svg>
