<svg width="51" height="48" viewBox="0 0 51 48" fill="none" xmlns="http://www.w3.org/2000/svg">
<g clip-path="url(#clip0_6_103)">
<path d="M48.2076 0.303795L28.5171 15.117L32.1784 6.38582L48.2076 0.303795Z" fill="#E17726" stroke="#E17726" stroke-linecap="round" stroke-linejoin="round"/>
<path d="M2.79236 0.303795L22.3091 15.2506L18.8216 6.38582L2.79236 0.303795Z" fill="#E27625" stroke="#E27625" stroke-linecap="round" stroke-linejoin="round"/>
<path d="M41.1188 34.6451L35.8816 42.7808L47.0991 45.922L50.3109 34.8213L41.1188 34.6451Z" fill="#E27625" stroke="#E27625" stroke-linecap="round" stroke-linejoin="round"/>
<path d="M0.707031 34.8213L3.9009 45.922L15.1004 42.7808L9.88116 34.6451L0.707031 34.8213Z" fill="#E27625" stroke="#E27625" stroke-linecap="round" stroke-linejoin="round"/>
<path d="M14.4952 20.9013L11.3793 25.677L22.4829 26.1934L22.1114 14.0476L14.4952 20.9013Z" fill="#E27625" stroke="#E27625" stroke-linecap="round" stroke-linejoin="round"/>
<path d="M36.5048 20.9013L28.7748 13.9078L28.5171 26.1934L39.6207 25.677L36.5048 20.9013Z" fill="#E27625" stroke="#E27625" stroke-linecap="round" stroke-linejoin="round"/>
<path d="M15.1005 42.7808L21.8178 39.4815L16.0353 34.9003L15.1005 42.7808Z" fill="#E27625" stroke="#E27625" stroke-linecap="round" stroke-linejoin="round"/>
<path d="M29.1823 39.4815L35.8816 42.7808L34.9648 34.9003L29.1823 39.4815Z" fill="#E27625" stroke="#E27625" stroke-linecap="round" stroke-linejoin="round"/>
<path d="M35.8816 42.7808L29.1823 39.4815L29.7275 43.9048L29.6676 45.7823L35.8816 42.7808Z" fill="#D5BFB2" stroke="#D5BFB2" stroke-linecap="round" stroke-linejoin="round"/>
<path d="M15.1005 42.7808L21.3324 45.7823L21.2905 43.9048L21.8178 39.4815L15.1005 42.7808Z" fill="#D5BFB2" stroke="#D5BFB2" stroke-linecap="round" stroke-linejoin="round"/>
<path d="M21.4522 31.9777L15.8794 30.319L19.8103 28.4841L21.4522 31.9777Z" fill="#233447" stroke="#233447" stroke-linecap="round" stroke-linejoin="round"/>
<path d="M29.5477 31.9777L31.1896 28.4841L35.1385 30.319L29.5477 31.9777Z" fill="#233447" stroke="#233447" stroke-linecap="round" stroke-linejoin="round"/>
<path d="M15.1005 42.7808L16.0712 34.6451L9.88123 34.8213L15.1005 42.7808Z" fill="#CC6228" stroke="#CC6228" stroke-linecap="round" stroke-linejoin="round"/>
<path d="M34.9229 34.6451L35.8816 42.7808L41.1188 34.8213L34.9229 34.6451Z" fill="#CC6228" stroke="#CC6228" stroke-linecap="round" stroke-linejoin="round"/>
<path d="M39.6207 25.677L28.5171 26.1934L29.5478 31.9777L31.1896 28.484L35.1385 30.319L39.6207 25.677Z" fill="#CC6228" stroke="#CC6228" stroke-linecap="round" stroke-linejoin="round"/>
<path d="M15.8794 30.319L19.8104 28.484L21.4522 31.9777L22.4829 26.1934L11.3793 25.677L15.8794 30.319Z" fill="#CC6228" stroke="#CC6228" stroke-linecap="round" stroke-linejoin="round"/>
<path d="M11.3793 25.677L16.0352 34.9002L15.8794 30.319L11.3793 25.677Z" fill="#E27525" stroke="#E27525" stroke-linecap="round" stroke-linejoin="round"/>
<path d="M35.1385 30.319L34.9647 34.9002L39.6207 25.677L35.1385 30.319Z" fill="#E27525" stroke="#E27525" stroke-linecap="round" stroke-linejoin="round"/>
<path d="M22.4829 26.1934L21.4523 31.9777L22.7526 38.8132L23.0462 29.8025L22.4829 26.1934Z" fill="#E27525" stroke="#E27525" stroke-linecap="round" stroke-linejoin="round"/>
<path d="M28.5171 26.1934L27.9718 29.7843L28.2474 38.8132L29.5478 31.9777L28.5171 26.1934Z" fill="#E27525" stroke="#E27525" stroke-linecap="round" stroke-linejoin="round"/>
<path d="M29.5478 31.9777L28.2474 38.8132L29.1822 39.4815L34.9647 34.9003L35.1385 30.319L29.5478 31.9777Z" fill="#F5841F" stroke="#F5841F" stroke-linecap="round" stroke-linejoin="round"/>
<path d="M15.8794 30.319L16.0352 34.9003L21.8177 39.4815L22.7525 38.8132L21.4522 31.9777L15.8794 30.319Z" fill="#F5841F" stroke="#F5841F" stroke-linecap="round" stroke-linejoin="round"/>
<path d="M29.6676 45.7823L29.7275 43.9048L29.2182 43.4734H21.7818L21.2905 43.9048L21.3324 45.7823L15.1005 42.7808L17.2816 44.5975L21.7039 47.6962H29.2781L33.7184 44.5975L35.8816 42.7808L29.6676 45.7823Z" fill="#C0AC9D" stroke="#C0AC9D" stroke-linecap="round" stroke-linejoin="round"/>
<path d="M29.1822 39.4815L28.2474 38.8132H22.7525L21.8177 39.4815L21.2904 43.9048L21.7818 43.4734H29.2181L29.7275 43.9048L29.1822 39.4815Z" fill="#161616" stroke="#161616" stroke-linecap="round" stroke-linejoin="round"/>
<path d="M49.0465 16.083L50.7004 7.90481L48.2076 0.303795L29.1823 14.6187L36.5048 20.9013L46.8414 23.9635L49.1244 21.2537L48.1297 20.5246L49.7057 19.0663L48.5013 18.1185L50.0772 16.8911L49.0465 16.083Z" fill="#763E1A" stroke="#763E1A" stroke-linecap="round" stroke-linejoin="round"/>
<path d="M0.299561 7.90481L1.9714 16.083L0.904777 16.8911L2.49871 18.1185L1.29427 19.0663L2.87023 20.5246L1.87552 21.2537L4.15257 23.9635L14.4952 20.9013L21.8177 14.6187L2.79233 0.303795L0.299561 7.90481Z" fill="#763E1A" stroke="#763E1A" stroke-linecap="round" stroke-linejoin="round"/>
<path d="M46.8413 23.9635L36.5047 20.9013L39.6207 25.677L34.9647 34.9003L41.1188 34.8213H50.3109L46.8413 23.9635Z" fill="#F5841F" stroke="#F5841F" stroke-linecap="round" stroke-linejoin="round"/>
<path d="M14.4952 20.9013L4.15257 23.9635L0.707031 34.8213H9.88116L16.0352 34.9003L11.3792 25.677L14.4952 20.9013Z" fill="#F5841F" stroke="#F5841F" stroke-linecap="round" stroke-linejoin="round"/>
<path d="M28.5171 26.1934L29.1822 14.6187L32.1784 6.38582H18.8217L21.8178 14.6187L22.4829 26.1934L22.7346 29.8268L22.7526 38.8132H28.2475L28.2654 29.8268L28.5171 26.1934Z" fill="#F5841F" stroke="#F5841F" stroke-linecap="round" stroke-linejoin="round"/>
</g>
<defs>
<clipPath id="clip0_6_103">
<rect width="51" height="48" fill="white"/>
</clipPath>
</defs>
</svg>
