<svg xmlns="http://www.w3.org/2000/svg" width="369.676" height="506.92" viewBox="0 0 369.676 506.92">
  <g id="Girl_stone" transform="translate(-4.024 -4.39)">
    <path id="Path_560" data-name="Path 560" d="M368,458.7c0-.1-.1-.1-.1-.2s-.1-.2-.1-.3c-.1-.1-.1-.2-.2-.4-.1-.1-.1-.3-.2-.4s-.1-.2-.2-.3c0-.1-.1-.1-.1-.2l-.3-.6c0-.1-.1-.2-.1-.3a.349.349,0,0,0-.1-.2,2.187,2.187,0,0,0-.3-.5c-.1-.1-.1-.2-.2-.3s-.1-.2-.2-.4c-.1-.1-.1-.3-.2-.4s-.1-.2-.2-.3a2.092,2.092,0,0,0-.4-.6c-.1-.2-.3-.5-.4-.7a4.348,4.348,0,0,1-.4-.7h0c-.2-.3-.3-.5-.5-.8-.1-.2-.2-.3-.3-.5-8.7-13.9-25.6-34.7-32.3-37.4-8.4-3.4-82.7-17.7-82.7-17.7s-20.9-19.6-27-23.6a24.163,24.163,0,0,0-2.8-.6c-2.7-.5-7.1-1.1-12.8-1.8-48.1-7.2-81.3-9.4-101.8-9.9-13.7-.7-23.7-.7-26,.5-1.9,1-5.8,4.3-10.9,8.8-1,.9-53.5,47.4-57.3,59.6a.367.367,0,0,0-.1.3c-.4,3.2-.3,17.2-.2,27.9h0v2c.1,5.6.2,9.9.2,10.7v.2s119.4,39.2,133.9,36.1c8.9-1.9,121.6-5.5,135.1-9.8s48.1-12.8,74.2-13.6l15.2-22.8A3.091,3.091,0,0,0,368,458.7Z" fill="#443247" stroke="#443247" stroke-width="11"/>
    <g id="Group_316" data-name="Group 316">
      <path id="Path_561" data-name="Path 561" d="M353.8,483,369,460.2c-4.2-11-28.7-43-37.1-46.4s-82.7-17.7-82.7-17.7-24.5-21.9-27-23.6S88.1,355.7,78.8,360.7s-67.5,63.4-68.3,68.8,0,40.8,0,40.8,119.4,39.2,133.9,36.1c8.9-1.9,121.6-5.5,135.1-9.8C293.1,492.2,327.6,483.8,353.8,483Z" fill="#7e7e7e"/>
      <path id="Path_562" data-name="Path 562" d="M78.8,360.7c9.3-5,140.9,10.1,143.4,11.8s27,23.6,27,23.6,74.2,14.3,82.7,17.7c0,0,8.8,11.7,9.3,15.9s-28.7,17.6-38.6,19.1-83.2-10.3-89.6-8.4-43.7,3.6-44.9,5-63.5-30.8-67.5-31.6c-4-.7-82.7,13.3-90.1,15.7C11.4,424.1,69.6,365.7,78.8,360.7Z" fill="#9a9a9a"/>
      <path id="Path_563" data-name="Path 563" d="M10.2,451.2c.1,9.8.3,19.1.3,19.1s119.4,39.2,133.9,36.1c8.9-1.9,121.6-5.5,135.1-9.8s48.1-12.8,74.2-13.6l15.2-22.8c-1.7-4.3-6.5-12-12.3-19.8,0,0,5.9,13.8,3.6,15.8s-16.7,19.8-22.1,19.3-30.7-13.4-30.7-13.4-12.9,10-19.8,10.9c-6.9,1-67.2,6.9-70,5.4s-6.3-16.4-6.3-16.4-3.7,26.8-4.6,27.8-8.8-7.9-8.8-7.9-43.1,3.5-44.5,2.5c-1.5-1,12.2-39,12.2-39l-65.2-31.6s-4,7.3-8.7,15.8c-2.5,1.5-5,3.1-7.5,4.7a34.065,34.065,0,0,0-4.4,3,25.056,25.056,0,0,0-3.3,4c-2.3,3.4-4.5,6.9-6.7,10.3-1.1,1.8-2.3,3.6-3.4,5.4-.4.6-.9,1.3-1.3,2-14.4,2.6-38.3,5.1-42.5,3.1C17.2,459.2,10.7,451.8,10.2,451.2Zm66.2,4.9c-.4.4-2.2,1-4.9,1.6.6-1,1.2-2,1.9-3,2.2-3.4,4.3-6.9,6.3-10.4.9-1.5,1.7-3,2.7-4.5.5-.7.9-1.5,1.4-2.1a13.229,13.229,0,0,1,2.2-1.8l3.9-2.7C84,443.8,77.7,454.9,76.4,456.1Z" fill="#6b6b6b"/>
      <path id="Path_564" data-name="Path 564" d="M323.2,441.4s-15.7,9.8-22.1,9.8-77-9.7-85.6-9.8c-8.6,0-49.7,4-49.7,4l-65.2-31.6s59.7,26.1,65.2,26.5,44.3-4.5,51.9-4,84.8,12.4,84.8,12.4Z" fill="#dedede"/>
      <path id="Path_565" data-name="Path 565" d="M177.9,403.5l44.4-31c6.1,4,27,23.6,27,23.6s-22.6,11.1-42.5,19.8a1.38,1.38,0,0,0-.4-.3c-6.5-4.7-16.1-2.4-18.5,5.5a2.836,2.836,0,0,0,.2,2.4c-5.3,1.9-9,2.9-10.2,2.3C172.4,423.1,177.9,403.5,177.9,403.5Z" fill="#aeaeae"/>
      <path id="Path_566" data-name="Path 566" d="M78.8,360.7l7.9,22.6s2.9.8,7.6,1.9a8.241,8.241,0,0,1,6.1-5.3c6.1-1.3,14.6,4,16.9,10.1,10,1.8,47.8,7.4,54.6,7.1,13.4-17.2,40-26.2,40-26.2C118.3,356.3,78.8,360.7,78.8,360.7Zm46.8,19.4c2.2.5,4.6,1.4,4.5,4.1a2.144,2.144,0,0,1-1.1,1.9c-2.7,1.4-5.7-.5-7.3-2.6-.1-.1-.2-.3-.3-.4C119.4,380.1,122.8,379.5,125.6,380.1Z" fill="#aeaeae"/>
      <path id="Path_567" data-name="Path 567" d="M327.9,418.8c.3.1.6.3.9.4,2,1,4.2,2,4.9,4.3a11.379,11.379,0,0,1,.4,3.7c-.1,3.9-6,6-8.9,7.6q-7.35,3.9-15,7.2a50.693,50.693,0,0,1-6.5,2.4,5.471,5.471,0,0,1-3.1.4,60.213,60.213,0,0,0-7.4-1.3c-6.5-1.1-13.1-2.1-19.6-3.1a81.625,81.625,0,0,0-9.8-1.1,27.363,27.363,0,0,1-5.7-1.1l-6-1.2c11.4-.8,22.3-4.5,33.1-8.1,2.6-.9,5.3-1.8,7.2-3.7,2-1.9,3-5.1,1.6-7.4a6.894,6.894,0,0,1-.4,12.6,8.01,8.01,0,0,0,10-5.4c1.2-4.8-2.2-9.5-5.8-12.9a74.145,74.145,0,0,1,20.4,3.1A53.632,53.632,0,0,1,327.9,418.8Z" fill="#aeaeae"/>
      <path id="Path_568" data-name="Path 568" d="M97.9,387.7c.4-2.7,3.1-3.5,5.5-3.3,2.9.3,6.2,1.5,7.9,3.9a12.878,12.878,0,0,1,1.6,1.7,4.494,4.494,0,0,1,1.1,3.5,5.119,5.119,0,0,1-5.2,3.4c-2.6-.2-4.5-1.8-6.4-3.3l-2.7-2.1A4.5,4.5,0,0,1,97.9,387.7Z" fill="#aeaeae"/>
      <path id="Path_569" data-name="Path 569" d="M93.5,394a2.092,2.092,0,0,1,.4-.6,2.233,2.233,0,0,1,1.3-.6c.3,0,.7.1,1,.1a3.553,3.553,0,0,1,.9.4,3.6,3.6,0,0,1,1.2.8,5.241,5.241,0,0,1,1,1.1,3.506,3.506,0,0,1,.6,1.4.9.9,0,0,0,.1.5.844.844,0,0,1-.2.7c0,.2-.1.3-.3.4a1.205,1.205,0,0,1-.5.5,2.6,2.6,0,0,1-1.5.4h-.3a2.2,2.2,0,0,1-.8-.1,2.384,2.384,0,0,1-1.1-.6c-.1-.1-.3-.2-.4-.3-.1-.2-.3-.3-.4-.5v-.1c-.1-.1-.1-.3-.2-.4a2.092,2.092,0,0,1-.4-.6,3.552,3.552,0,0,1-.4-.9c-.1-.3-.1-.7-.2-1C93.4,394.4,93.4,394.2,93.5,394Z" fill="#aeaeae"/>
      <path id="Path_570" data-name="Path 570" d="M222.2,372.5l-44.4,31c-.9,3.9-2.4,22.4-2.4,22.4l-3.5-21.6S206.2,368.5,222.2,372.5Z" fill="#dedede"/>
      <path id="Path_571" data-name="Path 571" d="M10.3,457.4c1.4,1.1,13.6,11.3,21.6,14.1,5.4,1.9,47,3.5,47,3.5s8.8-13.9,10.4-14.8c4.5-2.5,65.4,0,65.4,0L145.5,497c7.9.5,51.7-7.2,51.7-7.2s8,5.9,10.5,4,4.4-12,4.4-12,8,10.9,10.3,11.9,69.5-7.9,74.9-8.9,8.4-13.9,11.9-14.4,33.2,8.4,36.1,7.4c3-1,19.8-17.7,19.8-17.7v-7.7a41.031,41.031,0,0,1,4,7.7L353.8,483c-26.1.8-60.7,9.3-74.2,13.6s-126.2,7.9-135.1,9.8C130,509.5,10.6,470.3,10.6,470.3S10.4,464.6,10.3,457.4Z" fill="#5c5c5c"/>
      <path id="Path_572" data-name="Path 572" d="M279.6,496.6c-13.5,4.3-126.2,7.9-135.1,9.8C130,509.5,10.6,470.3,10.6,470.3s-.1-3.3-.2-8.1c1.6,1.6,12.9,12,23.5,12.7,11.4.8,34.6,5.9,40.6,6.9,5.9,1,65.3,5,65.3,5v15.3c5,2,57.3-4.3,57.3-4.3s7.5.8,11,0,3.9-7.6,3.9-7.6,7,5.9,10.3,7.4,58.6-6.9,71-9.4a67.413,67.413,0,0,0,21.8-8.8s34.2.4,36.1,0c2-.4,17.9-19.3,17.9-19.3L353.8,483C327.6,483.8,293.1,492.2,279.6,496.6Z" fill="#3d3d3d"/>
      <path id="Path_573" data-name="Path 573" d="M82.3,416.2s-25.3-6.4-28.7-9.7c-3.5-3.3,14.4-37,14.4-37s-54.5,48.2-57.5,60Z" fill="#6b6b6b"/>
      <path id="Path_574" data-name="Path 574" d="M40.3,424s-22.8,13.5-23.8,16.4,3.4,19.8,3.4,19.8l-9.7-8.9.3-21.8S32.3,421,40.3,424Z" fill="#6b6b6b"/>
      <path id="Path_575" data-name="Path 575" d="M194.3,420.3a6.524,6.524,0,0,1,2.1-1.6,10.173,10.173,0,0,1,3.3-.9,5.95,5.95,0,0,1,2.3.1h0a3.331,3.331,0,0,1,3.2,2.3,3.444,3.444,0,0,1-.9,3.2,4.177,4.177,0,0,1-1.5,1.1,7.815,7.815,0,0,1-2,1.1,7.419,7.419,0,0,1-2.5.5,4.188,4.188,0,0,1-2.5-.5,3.561,3.561,0,0,1-1.8-1.4A2.923,2.923,0,0,1,194.3,420.3Z" fill="#aeaeae"/>
      <path id="Path_576" data-name="Path 576" d="M212.9,418.6a2.075,2.075,0,0,1,.6-1,1.794,1.794,0,0,1,.7-.5,1.909,1.909,0,0,1,.8-.3c.2,0,.4-.1.6-.1a1.786,1.786,0,0,1,1.5.8,1.486,1.486,0,0,1,.2.9,1.689,1.689,0,0,1-.3,1,2.7,2.7,0,0,1-.7.8c-.2.1-.3.2-.5.2a.349.349,0,0,0-.2.1c-.1,0-.3.1-.4.1h-.3c-.1.1-.2.1-.4.2-.2,0-.3.1-.5,0h-.3a.52.52,0,0,1-.4-.2,2.092,2.092,0,0,1-.4-.6A3.267,3.267,0,0,1,212.9,418.6Z" fill="#aeaeae"/>
      <path id="Path_577" data-name="Path 577" d="M103.8,401.4a2.56,2.56,0,0,1,1.3-1,3.3,3.3,0,0,1,1.4,0,1.612,1.612,0,0,1,.7.4,1.756,1.756,0,0,1,.5.4,2.181,2.181,0,0,1,.4.5,2.145,2.145,0,0,1,.5,2v.1a1.1,1.1,0,0,1-1.2.8h0a.6.6,0,0,0-.4.1h-.4a3.513,3.513,0,0,1-2-.5,1.991,1.991,0,0,1-.8-1.2A1.348,1.348,0,0,1,103.8,401.4Z" fill="#aeaeae"/>
      <path id="Path_578" data-name="Path 578" d="M338.4,440.3a23.394,23.394,0,0,1,2.5-3c.8-.9,1.7-1.8,2.5-2.7a2.379,2.379,0,0,1,2.2-.8.669.669,0,0,1,1-.2,29.228,29.228,0,0,1,4.5,4.1,57.244,57.244,0,0,1,4,4.6,13.359,13.359,0,0,1,2.4,10.6c-.4,1.8-1.1,4.2-3.1,4.8-2.1.6-4-1.6-5.5-2.8a113.708,113.708,0,0,1-8.7-8.3,15.7,15.7,0,0,1-2.1-2.4A3.9,3.9,0,0,1,338.4,440.3Z" fill="#9a9a9a"/>
      <g id="Group_315" data-name="Group 315">
        <path id="Path_579" data-name="Path 579" d="M328.4,451.3a11.762,11.762,0,0,0,2.8,2c1.9,1.1,3.8,2.3,5.7,3.4a2.158,2.158,0,0,0,3.2-1.8,11.236,11.236,0,0,0-1.7-5.9c-.1-.2-.3-.4-.4-.6a1,1,0,0,0-.4-.5c-.1-.1-.2-.2-.3-.2l-.1-.1h0a11.318,11.318,0,0,0-1-1.3,5.258,5.258,0,0,0-2.8-1.8,4.933,4.933,0,0,0-5.9,3A3.767,3.767,0,0,0,328.4,451.3Z" fill="#9a9a9a"/>
        <path id="Path_580" data-name="Path 580" d="M332,449.2Z" fill="#9a9a9a"/>
        <path id="Path_581" data-name="Path 581" d="M337.2,447.7h0C337.1,447.6,337.2,447.6,337.2,447.7Z" fill="#9a9a9a"/>
        <path id="Path_582" data-name="Path 582" d="M332,449.2Z" fill="#9a9a9a"/>
      </g>
      <path id="Path_583" data-name="Path 583" d="M235.3,425l-10.5,12.3h-9.7Z" fill="#dedede"/>
      <path id="Path_584" data-name="Path 584" d="M26,449c-.1-1.2.1-2.4-.1-3.7,0-.3-1-3.4-.9-3.4a74.416,74.416,0,0,1,21.3-14.7c-2.5,2.6-5,5.3-7.4,8.1-1.2,1.4-2.3,3-3.6,4.3-.4.5-1,.7-1.4,1.2-2.2,2-3.4,5.4-4.6,8-.5,1-1.1,1.8-1.5,2.8a29.873,29.873,0,0,0-1,5.2c-.1.7-1.2.5-1.2-.2C25.7,454.1,26.1,451.6,26,449Z" fill="#6b6b6b"/>
      <path id="Path_585" data-name="Path 585" d="M223,380a3.873,3.873,0,0,1,2.8-.3,5.506,5.506,0,0,1,2.3,1.4c1.2,1,2.3,2.2,3.4,3.3,1.5,1.4,3,2.9,4.5,4.3a23.123,23.123,0,0,1,2.9,2.4c.9.9,1.7,1.9,1.3,3.2a3.028,3.028,0,0,1-2.4,1.8,13.55,13.55,0,0,1-3.5-.1,26.619,26.619,0,0,1-3.9-.7,9.587,9.587,0,0,1-5.9-3.9,14.38,14.38,0,0,1-1.5-4.1c-.4-1.6-.7-3.1-1.1-4.7A2.426,2.426,0,0,1,223,380Z" fill="#bdbdbd"/>
      <path id="Path_586" data-name="Path 586" d="M211.9,385.5a6.686,6.686,0,0,1,1.6-2.5,3.865,3.865,0,0,1,3.5-1.1l.6.3a1.874,1.874,0,0,1,.7.6,9.319,9.319,0,0,1,1.7,4.9,7.442,7.442,0,0,1-.2,2.6,2.189,2.189,0,0,1-.8,1.4,1.4,1.4,0,0,1-1.2.9,2.836,2.836,0,0,1-1.3-.4,5.151,5.151,0,0,1-3.6-1.9A4.647,4.647,0,0,1,211.9,385.5Z" fill="#bdbdbd"/>
      <path id="Path_587" data-name="Path 587" d="M316.9,420.1a3.37,3.37,0,0,1,3.8-1.6,9.114,9.114,0,0,1,5.1,3.5c.1.1.2.1.2.2a5.5,5.5,0,0,1,1.7,5,8.086,8.086,0,0,1-.8,2.5,7.009,7.009,0,0,1-2.1,2.1,12.947,12.947,0,0,1-5.4,1.9c-.9.1-2.1-.2-2.3-1.3a42.485,42.485,0,0,1-.6-8C316.4,422.9,316.2,421.3,316.9,420.1Z" fill="#bdbdbd"/>
      <path id="Path_588" data-name="Path 588" d="M308.2,432.2a3.079,3.079,0,0,1,.3-1.3,1.887,1.887,0,0,1,1.3-1c1.4-.4,2.8.8,3.4,2a5.549,5.549,0,0,1,.6,2.2,3.5,3.5,0,0,1-.8,2.2,2.878,2.878,0,0,1-2.1.9,2.768,2.768,0,0,1-1.3-.3c-.2-.1-.4-.3-.6-.4a2.513,2.513,0,0,1-.6-1.4,5.852,5.852,0,0,1-.2-1.3A8.536,8.536,0,0,1,308.2,432.2Z" fill="#bdbdbd"/>
      <path id="Path_589" data-name="Path 589" d="M210.8,453.4c-1-2-3.8,36.4-3.8,36.4S218.9,469.6,210.8,453.4Z" fill="#3d3d3d"/>
      <path id="Path_590" data-name="Path 590" d="M89.8,442.9l-.6,17.3L78.8,475C78.8,474.9,84.5,448,89.8,442.9Z" fill="#3d3d3d"/>
    </g>
    <path id="Path_591" data-name="Path 591" d="M147.2,354.3a3.379,3.379,0,0,0-3.6-3.2c-4.7.5-9.5,1.7-14-.6a16.049,16.049,0,0,1-8.1-10.7c-.8-3.5-6.3-2.7-6.2.8.1,7.1,3.3,14.1,9.6,17.8a20.053,20.053,0,0,0,15.1,2.3C133,368.9,151.3,351.4,147.2,354.3Z" fill="#ffa294"/>
    <path id="Path_592" data-name="Path 592" d="M148.2,306.4s-32.8,20.6-31.1,38.9c1.7,18.2,16.5,18.5,16.5,18.5l20.4-6.1.7-31.1Z" fill="#ffe1cc"/>
    <path id="Path_593" data-name="Path 593" d="M241.8,300.6s39.7,19.7,38,37.9-23.4,19.4-23.4,19.4L236,351.8l-.7-31.1Z" fill="#ffe1cc"/>
    <path id="Path_594" data-name="Path 594" d="M146.6,306.2s7.8,2.6,7.6,27.6l82.5-4.6s2.4-22.2,8.5-27.6l-67.5-1.5L151,306.2Z" fill="#17ffdd"/>
    <path id="Path_595" data-name="Path 595" d="M327.5,214.9c-3.9-15.8-3.7-32-7.2-47.9-2.8-12.7-8.9-24.5-16.5-35-15.5-21.5-37.7-41-62.3-51.1C190.5,60,138.4,89,105.2,128.8a5.047,5.047,0,0,0-4.2,1.3c-21.8,19.3-24.7,49-32.6,75.2-3.8,12.5-12,24.2-7.9,37.7,3.5,11.2,12.9,20,24.1,23.4,2.5.8,5.7.6,8.1,1.6,2.2.9.4-.7,2.6,1.2.9.8,1.6,3.1,2.2,4.1a64.4,64.4,0,0,0,12,14.5c9.4,8.5,20.6,11.5,32.7,15.2,29.1,8.7,66.7,6.2,96,.2,12-2.5,23.2-5.9,31-10.1,10.9-5.9,15.1-19.5,26-24.6C319,257.6,334.4,242.7,327.5,214.9Z" fill="#ffe1cc"/>
    <path id="Path_596" data-name="Path 596" d="M173.6,340.9a22.879,22.879,0,0,1,1-2.3c.9-3.2.1-6.7-2.8-8.6a7.44,7.44,0,0,0-4.1-1.1c-.4-2.8-3.7-6-6.1-6.8a7.654,7.654,0,0,0-8,1.7c-.6.7-1.7,3.9-2.6,6.2a9.967,9.967,0,0,0-2,2.1c-3.1-.4-5.2,4.6-2.6,6.5-1,6.4.5,15.9,7.4,17.9,3.9,1.2,8.2-1.3,11.7-2.9,2.8-1.3,6.5-2.7,8-5.7,1.1-2.1.4-3.5.3-5.7C172.9,341.1,172.8,340.7,173.6,340.9Z" fill="#ffe1cc"/>
    <path id="Path_597" data-name="Path 597" d="M257,314.9a5.982,5.982,0,0,0-8.1.3,3.877,3.877,0,0,0-2.2,5.2c1.6,3.6,4.1,7.8,5.4,11.9-7.1,6.8-7.7,14.9,0,21.5,1.9,12.7,18.5,11.1,24.2.5C285,337.7,267.9,324.4,257,314.9Z" fill="#ffe1cc"/>
    <path id="Path_598" data-name="Path 598" d="M205,410.9c-5-19.2-11.4-49-37-48.1-22.4.7-31.3,23.3-27.2,42.5a2.764,2.764,0,0,0,2.2,2.2c.4.6,6.1,1.8,6.6,2.5,1.1,1.7,3.5,8.2,5.8,14.1,1.8,4.4,6,5,8.9,3.3,3.9,1.8,8.2.9,11.6-1.5,7.9-5.5,11.3-13.3,22.7-8.5C202.4,419,205.9,414.4,205,410.9Z" fill="#ffe1cc"/>
    <path id="Path_599" data-name="Path 599" d="M269.5,391.1c-1.9-7.4-10.9-9.5-16.2-13.6-6.3-4.8-12.6-6.5-20.5-6.4-7.8.1-14.9,2.2-19.6,8.8-4.8,7-4.5,14.6-5.4,22.3a5.36,5.36,0,0,0-.3,8.9c11.5,8.2,32.6,28.6,45.7,11.8,2.3-3,2.2-6.2,3.7-9.4,2-4.4,5-3.7,8.2-6.1C269.6,404,270.9,396.7,269.5,391.1Z" fill="#ffe1cc"/>
    <path id="Path_600" data-name="Path 600" d="M175.6,346.9c-2.7-1.5-5.5-.9-8.4-.2-3,.7-6,1.5-9.1,2.3-5.2,1.3-3,9.1,2.2,8,5.1-1.1,13.1-1.3,16.3-5.9A3.038,3.038,0,0,0,175.6,346.9Z" fill="#ffa294" opacity="0.4"/>
    <path id="Path_601" data-name="Path 601" d="M277.9,340.9c-.1-1.4-2-2.6-3.1-1.3-4.7,5.5-8.7,18.9-18.4,15.4-3.3-1.2-5.4,3.9-2.4,5.7C266.8,368.1,279.2,353.4,277.9,340.9Z" fill="#ffa294" opacity="0.4"/>
    <path id="Path_602" data-name="Path 602" d="M159.6,369.5c1.9-2.8-2.5-6.3-4.7-3.7a53.111,53.111,0,0,0-9.5,15.6,43.7,43.7,0,0,0-2.5,9.6c-.5,3.4.2,7.4-.7,10.7-2.7,10,15.2,8,10.1-1.3-2.1-3.9-.2-11.6.7-15.7A48.086,48.086,0,0,1,159.6,369.5Z" fill="#ffa294" opacity="0.4"/>
    <path id="Path_603" data-name="Path 603" d="M243.3,371.8c-3.4-2.2-7.4,2.9-4.4,5.7,6.9,6.3,17,15.7,16.7,25.6-.2,6.4,9.6,7.7,11.1,1.5C270.4,390.1,253.7,378.5,243.3,371.8Z" fill="#ffa294" opacity="0.4"/>
    <path id="Path_604" data-name="Path 604" d="M199.5,226.7c-.4-.1-.8-.1-1.3-.2-.1-.1-.2-.1-.2-.2a9.355,9.355,0,0,0-5.1-1.4c-4.7.3-8.6,4.6-7.2,9.4a8.36,8.36,0,0,0,9.2,5.7,9.906,9.906,0,0,0,5.2-2.6,12.176,12.176,0,0,0,2.8-4.8C203.7,230.4,201.9,227.2,199.5,226.7Z" fill="#ffa294"/>
    <ellipse id="Ellipse_17" data-name="Ellipse 17" cx="24.2" cy="17.3" rx="24.2" ry="17.3" transform="translate(112.992 245.035) rotate(-4.227)" fill="#ff9594" opacity="0.25"/>
    <ellipse id="Ellipse_18" data-name="Ellipse 18" cx="24.2" cy="17.3" rx="24.2" ry="17.3" transform="translate(228.292 237.634) rotate(-4.227)" fill="#ff9594" opacity="0.25"/>
    <ellipse id="Ellipse_19" data-name="Ellipse 19" cx="12.1" cy="12.4" rx="12.1" ry="12.4" transform="translate(127.4 203.3)" fill="#fff"/>
    <ellipse id="Ellipse_20" data-name="Ellipse 20" cx="10.1" cy="15.2" rx="10.1" ry="15.2" transform="translate(242.8 195.6)" fill="#fff"/>
    <path id="Path_605" data-name="Path 605" d="M84.1,216.4c0-1.9-2.9-2.4-3.3-.5-3.8,18.1-15,30.3-26,44.5-8.6,11-13.2,22.3-7.9,35.9,1.1,2.7,5.5,1.5,4.4-1.2-7.1-18.3,9.4-31.2,19.2-44.4C78.1,240.5,83.9,229.4,84.1,216.4Z" fill="#b76f48"/>
    <path id="Path_606" data-name="Path 606" d="M106.7,284.2c-3.2-3.4-5.7-10.2-9.2-13-3-2.4-8.4-2.4-12-3.4a2.2,2.2,0,0,0-1.4.1c-1-.3-2.1-.7-3.1-1-.1-1.1-.3-2.2-.5-3.3-.6-2.8-4.3-1.8-4.6.6-3.3,26.9-26.2,46.4-23.9,74.7,1.6,19.5,13.4,42.3,34.2,46a3.917,3.917,0,0,0,3.1-.6,22.085,22.085,0,0,0,5.8,10.1c1.9,2,5.2-.1,4.6-2.7-3.8-14.9,2.2-25.5,7.2-39.2,4.9-13.2,6.8-27.5,7-41.5C113.9,300.7,113.9,292,106.7,284.2Z" fill="#b76f48"/>
    <path id="Path_607" data-name="Path 607" d="M342.1,113.5c-8.7-27.2-26.2-49.9-48.3-67.6-11.5-9.2-23.5-19-37.1-24.9-14.7-6.3-31.2-8.7-46.9-11.2-28.7-4.6-59.3-5.7-82.5,13.9a2.849,2.849,0,0,0-1,1.6,170.322,170.322,0,0,0-74.5,77.9c-9,19.1-15.2,40-13.9,61.3,1.1,19.3,7.1,43.2,20.8,57.6a3.886,3.886,0,0,0,6.1-.8c3.3-5.9,9.7-8.9,15.4-12a3.287,3.287,0,0,0,1.7-3c-.5-4.8.5-9.7,1.1-14.4,7.6-8.4,14.8-18.3,17.4-28.9a3.725,3.725,0,0,0-.3-2.6c3.9-6.6,7.4-13.6,10.6-20.5-.5,22.2,3.3,43.7,10.7,65.3a4.451,4.451,0,0,0,4.4,3,3.609,3.609,0,0,0,4.2-.1c4.5-3.6,9-7.3,13.8-10.5a56.373,56.373,0,0,1,5.5-2.7,4.217,4.217,0,0,0,2.1,1.1,3.64,3.64,0,0,0,4.4-2.5c.7-1.9-.2-3.4-.7-5-.1-.4-.1-.8-.2-1.2.3-2.6.1-5.4.2-7.4.2-6.7.4-13.4.4-20.1,0-12.8-.3-25.7,1.1-38.4,1.1-10.1,4.6-19.6,7.1-29.3,5.1,17.5,11.7,34.5,18.7,51.3,7.5,17.9,14.3,38.1,27.1,52.9a5.118,5.118,0,0,0,6.5,1.1c3.6,3.3,8.5,1.1,10.2-3,1.3-3.1,2.3-6,5.5-7.5,3.9-1.8,3.4-.7,6.3,1.3,5,3.5,9.6,4.8,15.7,5.4a5.833,5.833,0,0,0,2.3-.3c2.8,5.2,12.6,5.7,13.7-1.3a154.471,154.471,0,0,0,1.6-29.7c8.2,11.6,17.4,24.2,28.8,31.5a61.237,61.237,0,0,0-1.2,9.7c0,3,3.3,6,6.3,4.8a20.389,20.389,0,0,1,15.9,0,7.494,7.494,0,0,0,.5,1.6,7.319,7.319,0,0,0,2.7,3.4c0,.1.1.2.1.4v.2a10.948,10.948,0,0,0,.2,2.2,3.431,3.431,0,0,0,3.1,2.4,3.33,3.33,0,0,0,3.1-2.4,4.537,4.537,0,0,0-.1-2.3l.3-.3c3.8-2.3,4.3-8.2,3.9-12.6.2-.2.4-.5.6-.7C351.4,176.1,350.5,139.6,342.1,113.5Z" fill="#b76f48"/>
    <path id="Path_608" data-name="Path 608" d="M303.6,216.4c-.6-2.6-4.6-2-4.6.6a67.793,67.793,0,0,0,1.1,12,4.552,4.552,0,0,0-2,.5,3.986,3.986,0,0,0-1.4,5.3c1.5,3,2.6,6.1,5.2,8.2a3.554,3.554,0,0,0,2,.8c4.3,14,9.8,27.8,8.4,42.8-.2,2.2,3.2,2.2,3.4,0C317.9,262.5,309.2,239.6,303.6,216.4Z" fill="#b76f48"/>
    <path id="Path_609" data-name="Path 609" d="M108.4,287.4a2.659,2.659,0,0,0-2.5-1.4,129.293,129.293,0,0,0-6.7-16c-2.4-4.7-10-1.4-8.5,3.6,6.3,20.3,4.6,42.2.8,62.8-3.2,17.7-7.9,36-.7,53.3,1.5,3.6,7.4,2.3,6.1-1.7a41.806,41.806,0,0,1-.9-22.9c1.2,1.3,3.5,1.6,4.4-.4,6-12.5,9.3-26.4,11-40.1C113,312.1,114.3,298.9,108.4,287.4Z" fill="#a25234"/>
    <path id="Path_610" data-name="Path 610" d="M102.5,151.3c10-16.3,17.8-34.3,16.7-53.2-.2-4.3-5.9-4-6.5,0-2.4,17.7-14.8,34.2-24.2,48.8-4.6,7.1-9.1,14.3-14.2,21-2.7,3.4-5.4,6.9-8.2,10.2-.9,1-4.7,5.9-8.7,8.8a7.818,7.818,0,0,0-3.2,1.8.9.9,0,0,1-.5.1c-3.7-11.2-8.1-22.2-9.8-34.2-.3-2.4-4.3-1.8-4.2.6.6,9.8,1.5,20.5,4.3,30.4a2.045,2.045,0,0,0,0,1.1,119.788,119.788,0,0,0,11,30.7c2.2,4.3,8.7,3.3,10.4-.7a20.157,20.157,0,0,1,7.1-5.1c2.4-.9,4.6-1,6.3-3.2,1.8-2.3,1.6-4.9,1.6-7.6a23.215,23.215,0,0,1,1-7.2c1.6-2.1,3.1-4.3,4.5-6.3,7.1-10,12.5-20.6,17.8-31.5A3.579,3.579,0,0,0,102.5,151.3Z" fill="#a25234"/>
    <path id="Path_611" data-name="Path 611" d="M264.3,148.9c-1-3.8-7.4-3.2-7.1,1,.6,7.5,0,15.4-.1,23.1-2.2-7.3-4.8-14.5-7.4-21.7-1.2-3.8-2.4-7.2-3.4-9.9-1.5-4.7-8-3.6-8.4,1.1-.2,3-.2,17.8-.2,25.4a49.027,49.027,0,0,0-4.9-4.5c-2-1.5-5-1.1-7.1,0a9.261,9.261,0,0,0-5,5.1,23.256,23.256,0,0,0-.5,2.8,6.574,6.574,0,0,0-4.7,1.9,402.516,402.516,0,0,1-21-38.3c-8.4-18.1-17.3-35.7-26.3-53.4-1.2-2.4-4.2-2.3-5.9-.8a3.572,3.572,0,0,0-3.6,1.9c-9.9,17.6-16.3,35.8-17.9,56-1.4,16.5-2.6,41.2,9.2,54.4a3.192,3.192,0,0,0,5.3-1.4c2-8.3.1-17.4-.5-25.8a179.474,179.474,0,0,1-.3-25.4,204.279,204.279,0,0,1,9.2-48.2c11.3,36,22.6,74.9,48.8,103.1,3.4,3.7,11.3,2.2,12-3.2.3-2.2.6-4.3.9-6.5a11.1,11.1,0,0,0,4.5-1.6,6.975,6.975,0,0,0,2.1-2.1c5.4,4.8,11.6,8.3,17.2,1.8.2,1.9.4,3.7.5,5.6a5.37,5.37,0,0,0,9.3,3.5c2.6,3.6,9.6,3,10.6-2C272.6,177.5,267.7,161.9,264.3,148.9Z" fill="#a25234"/>
    <path id="Path_612" data-name="Path 612" d="M142.1,190.1c-.6-2-1.5-4-2.3-6-1.9-4.1-9.1-1.2-7.4,3.1a43.179,43.179,0,0,1,1.6,5.1,19.316,19.316,0,0,0,2,5.2c1.4,2.5,5.9,2.2,6.5-.8a15.666,15.666,0,0,0,.5-3A14.618,14.618,0,0,0,142.1,190.1Z" fill="#a25234"/>
    <path id="Path_613" data-name="Path 613" d="M132.6,198.9c-1.1-2.6-2.2-5.2-3.3-7.7a2.874,2.874,0,0,0-3.3-1.9,2.687,2.687,0,0,0-1.9,3.3c1,2.6,2.1,5.2,3.1,7.8a2.794,2.794,0,0,0,3.4,1.9C132,201.9,133.2,200.2,132.6,198.9Z" fill="#a25234"/>
    <path id="Path_614" data-name="Path 614" d="M327.6,202.6a4.031,4.031,0,0,0-.7-5.9c-8.3-7-18.2-11.8-26.5-18.7-7.2-6-15.9-12.6-22-20.2,2.6-13.7-5.8-30.7-11.8-42.5-2-3.9-8.7-1.2-7.1,3a143.137,143.137,0,0,1,6.2,21.5c1.4,6.7,1.5,14,4.4,20.2a3.8,3.8,0,0,0,3.4,2.2c5,9.2,9.3,17.8,17.6,25.2a97.125,97.125,0,0,0,13.1,10.2c-3.3,1.3-2.8,7.2,1.4,7.2,2.6,0,3.8-2.2,3.6-4.3a44.31,44.31,0,0,0,12.9,4.6,4.781,4.781,0,0,0,3.1-.5c.1.1.3.2.4.3a1.673,1.673,0,0,0,2.2,0,1.569,1.569,0,0,0,0-2.2C327.7,202.7,327.6,202.7,327.6,202.6Z" fill="#a25234"/>
    <path id="Path_615" data-name="Path 615" d="M105.6,34.8C68.8,64.3,42.9,102.3,42.3,150.7a.65.65,0,0,0,1.3,0A120.645,120.645,0,0,1,54.9,108a4.452,4.452,0,0,0,6.2,2.5c4.2-2.3,6.9-6.9,9.4-11a4.837,4.837,0,0,0,1.5,3.6c3,2.9,6.8-.2,8.4-2.9a4.348,4.348,0,0,0,.4-.7,3.139,3.139,0,0,0,2.7,1.2,8.305,8.305,0,0,0,.1,2.2c.5,2.5,3.9,2.6,5.1.7a8.384,8.384,0,0,0,1.1-5.8c-.1-1.3-.2-3-1-4-.9-1.2-2.1-1.1-3.4-.6a.9.9,0,0,0-.1-.5h0c1.8-2.2,2.1-5.3,0-7.4a5.675,5.675,0,0,0-6-1.1c.3-.6.7-1.2,1-1.8a5.551,5.551,0,0,0-4.7-8,259.3,259.3,0,0,1,34.1-35.3C113.1,36.5,108.7,32.4,105.6,34.8Z" fill="#ffa466" opacity="0.25"/>
    <path id="Path_616" data-name="Path 616" d="M323.5,85.1a5.874,5.874,0,0,0-1.1-5.1c-.4-.5-.8-1-1.1-1.4h0c-1.2-1.5-2.4-3.1-3.7-4.5C302.7,48.8,280.7,28.8,252.1,21c-3.8-1.1-5.2,4.5-1.6,5.8,15,5.8,28.2,15.2,39.3,26.7-4.1-1-8.8,1.2-8.6,6.2.2,4.1,1.9,7.6,4,10.9a5.356,5.356,0,0,0-1.5,1.5c-2.7,3.7-1,7.5.6,11.3,1.8,4.5,2.8,8.9,8,10.2a4.709,4.709,0,0,0,5.3-2.2c.3-.6.5-1.2.7-1.7a5.547,5.547,0,0,0,.6.8l.1.1c3.2,5.6,10.8,2.9,12.1-1.9h0a6.675,6.675,0,0,0,4.6,1.8c14.3,28.3,24.9,61.1,20.3,93-.2,1.1,1.5,1.6,1.7.5C343.4,152.5,338.3,115.9,323.5,85.1Z" fill="#ffa466" opacity="0.25"/>
    <path id="Path_617" data-name="Path 617" d="M286.1,89.7a18.559,18.559,0,0,0-1.3-4.6c-.6-1.2-1.1-2.5-1.7-3.7-1-2.1-3.9-2.8-5.9-1.9-1.9.8-3.6,3.4-2.7,5.6,1.5,3.6,0,0,1.7,4a20.878,20.878,0,0,0,3,4.7c1.1,1.4,3.5,1.5,5,.6A4.319,4.319,0,0,0,286.1,89.7Z" fill="#ffa466" opacity="0.25"/>
    <path id="Path_618" data-name="Path 618" d="M166.2,357.9l-2.9-4c-1-1.8-3.6-1.1-4.2.5-2.8.6-5,2.9-7.7,3.5.7-1.2-29.5,19.8-33.8-10.1-.1,8.4,5.4,15.3,13.5,16.4a1.483,1.483,0,0,0,.7.1,35.274,35.274,0,0,0-4.6,4.8c-7.4,9.7-9.6,24.2-6,35.7.7,2.2,3,4.4,5.5,4.2,3.7-.3,7.4-.5,11.1-.9,2.4-.3,5.1-2,4.8-4.8-.7-8,1.9-16.8,5-24.2,3.7-8.8,10.4-11.9,18-16.7A2.9,2.9,0,0,0,166.2,357.9Z" fill="#17ffdd"/>
    <path id="Path_619" data-name="Path 619" d="M280.8,376.9c-2.7-5.9-8-11-14.6-11.9-4.9-.7-4,.8-8.9-3.1-5.8-4.6-1.9-2.9-4.7-5.5a10.627,10.627,0,0,0-1.1-.9c.9-1.4,1-3.5-.4-4.5-7.8-6-15.8-14.9-14.3-5.9a3.7,3.7,0,0,0-.5,1.1,26.092,26.092,0,0,1-4.4,10.9,6.956,6.956,0,0,0-2.3,2.8,41.289,41.289,0,0,1-9.5,7.3,4.148,4.148,0,0,0-3.5-.8c-5.5,1.4-10.7,2.7-16.4,1.9a5.431,5.431,0,0,0-3.9.8,28.858,28.858,0,0,0-3.5-1.9c-4.3-1.9-8,4.3-3.7,6.4,9.6,4.7,10.3,14.4,11.9,23.8.8,4.5,7.6,3.2,7.7-1,.1-5.1,0-10.8,2.7-15.4,2.3-3.9,6.2-4.7,9.2-7.8h0a39.6,39.6,0,0,0,10.6-5.6,4.851,4.851,0,0,0,2.1.8,47.281,47.281,0,0,1,11.2,3.4A66.83,66.83,0,0,1,252,378c3.3,3.2,6.4,8.1,11.1,9.1,1.8,4.2,4.4,9,2.8,15.2-.9,3.6-.9,6.4,2.6,6.8C286.8,410.9,286.6,389.4,280.8,376.9Z" fill="#17ffdd"/>
    <path id="Path_620" data-name="Path 620" d="M251.7,336.3a3,3,0,0,0,.6-4.6,9.138,9.138,0,0,1-2.1-2.3l-.1-.1-.6-.9c-1.1-1.9-4-1.3-4.7.4-8.9,5.2-4.3,21.5,3.4,25.6a2.642,2.642,0,0,0,3.6-3.6C250.1,347.7,247.1,338.8,251.7,336.3Z" fill="#ffa294" opacity="0.4"/>
    <path id="Path_621" data-name="Path 621" d="M160.5,353.2a40.118,40.118,0,0,0-13,6.3c-.2-1.8-7.6,4.9-22.3,4.1a20.053,20.053,0,0,0,15.1,2.3c-7.1,8.1-10.7,18.7-6.1,29.1,1.4,3.1,5.8,1.8,6.7-.9,2.2-6.5,2.7-13.2,6.6-19.1A32.828,32.828,0,0,1,163,362.5C168.8,360.3,166.7,351.6,160.5,353.2Z" fill="#0ec4a5"/>
    <path id="Path_622" data-name="Path 622" d="M209.7,382a19.782,19.782,0,0,0-3.2-6.1,41.2,41.2,0,0,0-8.6-8.1c-4.9-3.5-9.9,3.9-6.2,8a20.59,20.59,0,0,1,4.1,6.4c1.5,3.5,2.5,6.5,5.9,8.5,2.2,1.3,5.9.7,7.1-1.9C209.8,386.6,210.4,384.6,209.7,382Z" fill="#0ec4a5"/>
    <path id="Path_623" data-name="Path 623" d="M218.8,365.2c-7.9,0-7.9,12.2,0,12.2C226.6,377.5,226.7,365.2,218.8,365.2Z" fill="#0ec4a5"/>
    <path id="Path_624" data-name="Path 624" d="M224.1,360c-24.6.5-6.1,5.3-1.8,6.5,8.2,2.4,30.3,7.2,36.1,13.6,5.9,6.4,8.3,14.3,10.8,22.4,1.2,3.7,7.7,4.5,8.4,0C281.1,379.6,248.7,359.4,224.1,360Z" fill="#0ec4a5"/>
    <path id="Path_625" data-name="Path 625" d="M235.6,279.4a15.876,15.876,0,0,0-15.9-15.9H179.3c-8.8,0-17.9,8.6-17.9,17.4l1.4,51A10.485,10.485,0,0,1,167,333a2.841,2.841,0,0,1,1.5,2.3,3.114,3.114,0,0,1-.9,2.6,7.993,7.993,0,0,1-1.3,1.3c-.4.3-.8.6-1.3,1-.1.1-.2.2-.3.2-.1.1-.4.3-.5.4s-.2.2-.3.2l-.1.1h0a.6.6,0,0,0,.1.4c0,.1.1.3.1.4a.1.1,0,0,0,.1.1l.2.2a.349.349,0,0,0,.2.1l.1.1h0a2.01,2.01,0,0,0,.8.4c.1,0,.2.1.3.1a13.321,13.321,0,0,0,1.9.5,3.238,3.238,0,0,1,2.3,2.6,3.03,3.03,0,0,1-1.5,3.1,17.768,17.768,0,0,1-5,2.4v1.4c0,8.8,9.6,16.1,18.3,16.1l36.1-1.4c8.8,0,18-8.6,18-17.4Z" fill="#fff"/>
    <path id="Path_626" data-name="Path 626" d="M231.3,283.4c0-8.4-6.2-15.2-13.9-15.2H182c-7.7,0-15.7,8.2-15.7,16.6l1.2,48.7a9.719,9.719,0,0,1,3.7,1,2.7,2.7,0,0,1,1.3,2.2,3.293,3.293,0,0,1-.8,2.5,3.447,3.447,0,0,1-1.2,1.2c-.4.3-.7.6-1.1.9-.1.1-.2.2-.3.2l-.4.4c-.1.1-.1.2-.2.2l-.1.1h0a.6.6,0,0,0,.1.4c0,.1.1.2.1.4v.1a.349.349,0,0,1,.1.2l.1.1a.1.1,0,0,1,.1.1h0a4.348,4.348,0,0,0,.7.4c.1,0,.2.1.3.1a10.926,10.926,0,0,0,1.7.5,2.936,2.936,0,0,1,2,2.5,3.088,3.088,0,0,1-1.3,3,14.225,14.225,0,0,1-4.4,2.3v1.3c0,8.4,8.4,15.3,16.1,15.3l31.6-1.4c7.7,0,15.8-8.2,15.8-16.6Z" fill="#f3dde9"/>
    <path id="Path_627" data-name="Path 627" d="M188.4,414.2a34.457,34.457,0,0,0-11.7,6.1c-2.1,1.6-3.3,3.7-5.8,4.3-1.1-.1-2.3-.2-3.4-.3h-.3c-2.3-.9-4.3-3-6.2-4.6-2.5-2.1-6.9.6-4.9,3.8a39.833,39.833,0,0,0,7.1,8.4h0c7,14.4,40.8,8.2,40.9-8.7C204.1,414.4,195.4,412.2,188.4,414.2Z" fill="#17ffdd"/>
    <path id="Path_628" data-name="Path 628" d="M243.3,423.1a43.732,43.732,0,0,1-4.9,2.3h-.3c-1.6-4.6-4.8-7.4-8.8-10.2A12.911,12.911,0,0,0,222,413a14.643,14.643,0,0,0-10.7-.1c-.1,0-.1-.1-.2-.1a2.989,2.989,0,0,0-4.4,1.8c-.8,3.9-.5,9.3,1.8,12.7,2.8,4,6.7,4.2,11.1,5,4.2.8,8.1,1.9,12.3,1.7,6.3,1.4,13.3-.8,16.6-6.7C250.2,423.8,245.4,420.8,243.3,423.1Z" fill="#17ffdd"/>
    <g id="Group_317" data-name="Group 317">
      <path id="Path_629" data-name="Path 629" d="M268.8,322.9a81.814,81.814,0,0,0-9.1-6.3c-2.6-1.5-5.6-3-8.8-3-3.1,0-6.4,1.5-7.2,4.7-.8,3.1,1.1,5.9,2.7,8.4.9,1.5,1.7,3.1,2.6,4.6a15.978,15.978,0,0,0,4.1,4.5,2.106,2.106,0,0,0,2.9-2.9c-.8-1.3-1.2-2.3-1.9-3.7-.6-1.2-1.3-2.4-1.9-3.6s-1.4-2.3-2.1-3.5c-.1-.2-.3-.5-.4-.7s-.2-.3-.2-.5c0,0,.2.4.1.1a1.445,1.445,0,0,1-.2-.7.367.367,0,0,0-.1-.3c-.2-.6,0,.4,0,.1v-.3c0-.2.1-.2,0,0-.4.5.2-.3.1-.3s-.3.6,0,.1c0,0-.4.5-.2.2.2-.2-.5.2-.1.1.3-.1.7-.3.2-.1.2-.1.5-.1.7-.2.6-.2-.3,0,.2,0h.9c.3,0,.6.1.1,0a1.884,1.884,0,0,1,.8.2,8.446,8.446,0,0,1,1.7.5c.1,0,.3.1.4.1-.1,0-.4-.2,0,0a3,3,0,0,1,.8.4c.7.3,1.3.7,1.9,1a78.986,78.986,0,0,1,9,6.1c1.2.9,3.1.2,3.9-1a2.865,2.865,0,0,0-.9-4Z" fill="#443247"/>
      <path id="Path_630" data-name="Path 630" d="M253.7,332.6c-5.2,1-7.8,6.8-8,11.6a9.626,9.626,0,0,0,2.7,7.4,7.29,7.29,0,0,0,7.3,1.7c-.6-1.5-1.3-3-1.9-4.6-4.9,3.4-4.6,10-.8,14.1,3.7,3.9,9,4.4,13.7,2.4,9.9-4.1,18.3-15.8,14.5-26.7a30.5,30.5,0,0,0-4.8-8.4c-1-1.3-2.2-2.6-3.3-3.8-1.4-1.5-2.7-3-4.8-3.5-1.7-.5-3.8,1.3-3.1,3.1,1,2.5,3.1,3.9,4.9,5.8a34.535,34.535,0,0,1,4.2,5.1c2.2,3.5,3.4,7.4,2.1,11.4-1.2,3.8-4.2,7.2-7.3,9.7-2.5,1.9-5.9,3.9-9.1,3.2a6.9,6.9,0,0,1-4.4-3.4c-.7-1.5-.7-3.8.8-4.8,2.1-1.5.9-5.7-1.9-4.6-3.2,1.2-4.1-3-3.8-5.3.3-2.6,1.5-5.7,4.3-6.3,2.6-.5,1.4-4.6-1.3-4.1Z" fill="#443247"/>
      <path id="Path_631" data-name="Path 631" d="M250.9,327c-3.7-2.4-7.7,1.4-9.7,4.4a18.257,18.257,0,0,0-2.9,11.4c.7,7.3,7.1,15.2,14.9,14.9,1.1,0,1.8-1.8.6-2.3a24.331,24.331,0,0,1-7-4.4,14.031,14.031,0,0,1-4-7.1,13.615,13.615,0,0,1,.8-8.2,13.932,13.932,0,0,1,2.2-3.7c.6-.7,2-2.4,3.2-1.8,2.1.9,3.8-2,1.9-3.2Z" fill="#443247"/>
    </g>
    <path id="Path_632" data-name="Path 632" d="M143,405.1c-.6-12.2,2.6-27.8,13.4-35.2,10-6.9,25.7-1.2,32.8,7.5,8.8,10.9,12.5,26.6,13.4,40.3.3,5.4,0,12.3-5.4,15.2-3,1.7-6.8,2.1-10.1,2.7-4.3.7-8.8,1.2-13.1.2-17.3-3.9-20.4-24.7-19.7-39.5.1-2.6-4.2-3.3-4.6-.6-1.3,9.1-1.5,18.3,2,26.9,2.8,7,7.9,13.4,14.7,16.9,8.3,4.2,17.7,3,26.5,1.2,7.8-1.6,13.7-6,15.3-14.1,1.6-8-.2-16.6-1.8-24.5a77.511,77.511,0,0,0-8.9-24.2c-3.7-6.2-8.6-11.2-15.3-14.1-7.1-3.1-15.5-4.8-23.1-2.5-8.3,2.6-13.8,10.2-17,17.9a56.126,56.126,0,0,0-3.7,25.7c.2,3.1,4.7,3.2,4.6.2Z" fill="#443247"/>
    <path id="Path_633" data-name="Path 633" d="M263.7,387.1c-6.1-10.1-16.8-18.7-28.8-20.2-13.6-1.7-22.6,8.8-27.2,20.4a68.949,68.949,0,0,0-4.3,19c-.6,6.4-.8,13.3,1.7,19.3,2.9,6.8,9.3,9.9,16,11.8,6.2,1.7,13.2,2.3,19.4.3,7.4-2.4,12.2-8.4,14.2-15.9a54.131,54.131,0,0,0,1.6-12c.3-4.8.7-9.5,1.2-14.3.2-1.7-2.5-2.4-3.2-.9-5,10.7-.2,27.3-11.3,34.9-4.4,3.1-10.1,3.5-15.3,2.8-5.1-.7-12-2.4-15.3-6.7s-3.2-10.3-2.9-15.4a68.61,68.61,0,0,1,2.7-16.2c2.7-8.9,8.4-20.2,18.9-20.9,10.9-.8,22.6,7.6,28.3,16.4,1.8,2.6,5.9.3,4.3-2.4Z" fill="#443247"/>
    <path id="Path_634" data-name="Path 634" d="M174.7,427a21.516,21.516,0,0,1,11.6-10.6,23.277,23.277,0,0,1,17.2.9,2.531,2.531,0,0,0,2.5-4.4,23.006,23.006,0,0,0-21.6-1.8,24.353,24.353,0,0,0-13.3,14.3c-.7,2.2,2.7,3.6,3.6,1.6Z" fill="#443247"/>
    <path id="Path_635" data-name="Path 635" d="M206.2,414.8c1.8-1.2,4.3-1.5,6.6-1.6a39.678,39.678,0,0,1,9.1.4,15.415,15.415,0,0,1,7.2,2.7,17.083,17.083,0,0,1,5.8,8.4c.7,2.3,4.3,1.9,4.2-.6a15.837,15.837,0,0,0-5.5-11.6,18.453,18.453,0,0,0-9.7-4.2,51.586,51.586,0,0,0-11.1-.4c-3,.3-6.6.7-9.1,2.5-2.6,1.9-.2,6.2,2.5,4.4Z" fill="#443247"/>
    <path id="Path_636" data-name="Path 636" d="M157,422.1a61.662,61.662,0,0,0,7.2,3.8,52.506,52.506,0,0,0,7.9,2.7,1.822,1.822,0,0,0,1-3.5,74.642,74.642,0,0,1-14.3-6,1.75,1.75,0,0,0-1.8,3Z" fill="#443247"/>
    <path id="Path_637" data-name="Path 637" d="M237.5,427.1a26.46,26.46,0,0,0,6.3-.7,24.923,24.923,0,0,0,5.9-2.3,1.962,1.962,0,0,0,.7-2.7,2.054,2.054,0,0,0-2.7-.7c.2-.1.1-.1-.1,0a.6.6,0,0,1-.4.1c-.2.1-.4.1-.6.2a5.732,5.732,0,0,1-1.4.4,26.814,26.814,0,0,1-2.7.7c-.4.1-.9.2-1.3.3-.3,0-.5.1-.8.1.4-.1-.1,0-.2,0a27.148,27.148,0,0,1-2.9.1,2.112,2.112,0,0,0-2.1,2.1,2.487,2.487,0,0,0,2.3,2.4Z" fill="#443247"/>
    <path id="Path_638" data-name="Path 638" d="M128.7,363c-5.7,5.7-10.6,12.9-12.3,21-2,9.1.4,19.3,7.7,25.4a1.586,1.586,0,0,0,2.5-1.9c-2-3.8-4.2-7.6-5.1-11.9a25.969,25.969,0,0,1,0-11.1c1.6-7,5.5-13.1,10.3-18.3a2.228,2.228,0,0,0-3.1-3.2Z" fill="#443247"/>
    <path id="Path_639" data-name="Path 639" d="M265,366.8c8.5.8,13.8,9.9,15.7,17.4,2,7.7,1.2,17.5-6.1,22.2-2.4,1.5-.3,4.9,2.2,3.7,16.1-7.7,10.5-32.6-.3-42.3a18.669,18.669,0,0,0-11.6-5.1c-2.6-.2-2.5,3.8.1,4.1Z" fill="#443247"/>
    <path id="Path_640" data-name="Path 640" d="M259.5,384.8c4.8,5.4,6,13,4.2,19.9a1.821,1.821,0,0,0,3.5,1c3-7.9.4-17.3-5.2-23.3-1.6-1.8-4,.7-2.5,2.4Z" fill="#443247"/>
    <path id="Path_641" data-name="Path 641" d="M153.5,337.4a34.483,34.483,0,0,1,4.6-10.6c.4-.5.9-1.3,1.6-.7s.5,2.9.7,3.7c.5,2.9,2.3,4.4,5.1,5.2.9.3,1.9.4,2.8.7l.3.1s0-.2-.1-.1c-.1,0,0-.3,0-.3.8.2-.3.4,0,.2-.7.5-1.5,1.2-2.2,1.8a7.22,7.22,0,0,0-2.7,3.3c-.9,2.6,1.3,3.5,3,4.4l2.7,1.2c.4.2.9.4,1.3.6a.758.758,0,0,0,.4.2c.1.1.6.3.5.3a.1.1,0,0,1-.1-.1c.1-1.8,0-2.4-.5-1.6.1-.1-.2.2-.1.2l-.9.9a8.9,8.9,0,0,1-2.2,1.1c-2.1,1-4.4,1.7-6.7,2.6a61.861,61.861,0,0,0-10.9,5.5c-1.8,1.1-.7,4.4,1.5,3.6,3.8-1.5,7.6-2.8,11.4-4.2a48.167,48.167,0,0,0,7.4-3.1,11,11,0,0,0,4.4-4.9c1.1-2.6-1.6-3.8-3.5-4.7a29.173,29.173,0,0,1-3.1-1.4c-.2-.1-.3-.4-.6-.5l-.1-.1a1.656,1.656,0,0,1,.3,1.7c.1,0,.6-.8.7-.8,2.1-1.9,5-3,4.7-6.4-.2-3.1-3.1-4.1-5.7-4.8-.8-.2-2-.4-2.3-.9a7.439,7.439,0,0,0-.3-1.5,13.71,13.71,0,0,0-.8-3.5,5.508,5.508,0,0,0-8.8-1.5c-1.6,1.6-2.5,4.1-3.4,6.2a45.213,45.213,0,0,0-2.3,7.1c-.5,2.5,3.2,3.6,3.9,1.1Z" fill="#443247"/>
    <path id="Path_642" data-name="Path 642" d="M148.6,356.7c-5.8,2.5-13.2,5.3-19.7,4a10.441,10.441,0,0,1-7.5-6.3c-3.4-7.2-1.1-15.3,3.1-21.9a68.863,68.863,0,0,1,8.3-10.4c1.5-1.6,3.1-3.2,4.7-4.7,1.5-1.4,11.2-8.5,12.3-10.2.9-1.5-.7-3.9-2.4-3.1-3.5,1.5-14.5,10.5-17.1,13.2a83.9,83.9,0,0,0-7.8,9c-4.7,6.2-8.5,13.5-8.2,21.5.3,9.3,5.7,17.7,15.4,18.6,7.4.7,14.6-2.7,21-5.9,2.4-1.4.3-4.8-2.1-3.8Z" fill="#443247"/>
    <path id="Path_643" data-name="Path 643" d="M127.3,339.8a93.4,93.4,0,0,1,12.8-3.6c4.3-.9,8.7-1.3,13.1-1.9,2.3-.3,1.6-3.7-.5-3.9a47.971,47.971,0,0,0-13.6,1.3,84.132,84.132,0,0,0-13,3.8,2.233,2.233,0,1,0,1.2,4.3Z" fill="#443247"/>
    <path id="Path_644" data-name="Path 644" d="M164,323.5V288.6a31.82,31.82,0,0,1,1.3-10.6,21.4,21.4,0,0,1,15.6-13.4c3.4-.7,7-.5,10.5-.5h15c3.3,0,6.7-.3,10,.2a21.486,21.486,0,0,1,16.4,12.3,24.052,24.052,0,0,1,1.9,10.6v58.1a21.887,21.887,0,0,1-7.8,16.6c-7.7,6.4-18.3,4.9-27.6,4.9-9.5,0-20.3,1.5-28-5.3a22.421,22.421,0,0,1-6.2-9.2c-.9-2.5-4.9-1.4-4,1.1a26.163,26.163,0,0,0,15.3,15.9c4.3,1.7,8.8,1.6,13.4,1.6h15.7c3.7,0,7.6.3,11.3-.3,13-1.8,22-13.1,22.1-25.9V285.1a26.02,26.02,0,0,0-9.2-19.3c-8.6-7-19.2-5.9-29.5-5.9-10.1,0-21.2-1.4-29.8,4.9A26.126,26.126,0,0,0,160,283.2a84.172,84.172,0,0,0-.1,8.7v31.6c-.1,2.7,4.1,2.7,4.1,0Z" fill="#443247"/>
    <circle id="Ellipse_21" data-name="Ellipse 21" cx="6.9" cy="6.9" r="6.9" transform="translate(171.443 291.597) rotate(-76.691)" fill="#443247"/>
    <path id="Path_645" data-name="Path 645" d="M199.5,286.5a5.2,5.2,0,1,1-5.2-5.2A5.164,5.164,0,0,1,199.5,286.5Z" fill="#443247"/>
    <path id="Path_646" data-name="Path 646" d="M243.5,303.8c9.1,1.3,28.1,17.9,32.3,25.7.9,1.7,1.8,3.5,2.7,5.2,1.1,2.3,2.5,4.5,2.4,7.1-.2,4.1-4.2,7-4.7,11a1.4,1.4,0,0,0,2.7.7c1.5-4.2,5.4-7.2,5.6-11.8a19.563,19.563,0,0,0-1.4-7.5,53.712,53.712,0,0,0-2.9-6.5c-4.8-8.5-21.2-24.5-31.5-26.4C238.1,299.5,241,302.8,243.5,303.8Z" fill="#443247"/>
    <path id="Path_647" data-name="Path 647" d="M202.7,394a11.6,11.6,0,0,0,3.7-.3,7.493,7.493,0,0,0,1.6-.4,6.08,6.08,0,0,0,1.8-.9,1.24,1.24,0,0,0,.5-1.5,1.274,1.274,0,0,0-1.4-.7,9.365,9.365,0,0,0-1.6.4,7.491,7.491,0,0,1-1.6.4c-.1,0-.3.1-.4.1,0,0-.4.1-.1,0-.3,0-.6.1-.8.1h-1.7a1.4,1.4,0,1,0,0,2.8Z" fill="#443247"/>
    <g id="Group_318" data-name="Group 318">
      <path id="Path_648" data-name="Path 648" d="M148,192.7c-7.9,0-14.7,6-17.8,14.6a4.868,4.868,0,0,1,1.2-.1,7.9,7.9,0,0,1,0,15.8,10.054,10.054,0,0,1-2.5-.4c1.9,11.1,9.7,19.5,19,19.5,10.7,0,19.5-11,19.5-24.6S158.7,192.7,148,192.7Z" fill="#443247"/>
      <path id="Path_649" data-name="Path 649" d="M258.1,216.5a7.9,7.9,0,0,1,0-15.8,7.512,7.512,0,0,1,2.6.5c-2.6-9.7-9.9-16.6-18.4-16.6-10.7,0-19.5,11-19.5,24.6s8.7,24.6,19.5,24.6c8.9,0,16.4-7.6,18.7-17.9A6.528,6.528,0,0,1,258.1,216.5Z" fill="#443247"/>
      <path id="Path_650" data-name="Path 650" d="M163.5,84.4c8.4,31.5,16.8,63.8,33.1,92.3a169.014,169.014,0,0,0,15.6,22.7c1.4,1.7,4.5-.6,3.1-2.4-19.8-25.7-31.4-56.1-41-86.8-2.8-8.8-5.3-17.7-7.8-26.6a1.554,1.554,0,0,0-3,.8Z" fill="#443247"/>
      <path id="Path_651" data-name="Path 651" d="M228.5,81.1a220.938,220.938,0,0,1,21.7,55.3,204.977,204.977,0,0,1,5.1,29.2c.5,4.9,1,9.9,1.2,14.9.2,4.8.1,9.7,1.2,14.4a1.458,1.458,0,0,0,2.8,0c2-7.3,1-15.7.4-23.2a203.849,203.849,0,0,0-3.2-23.3,221.8,221.8,0,0,0-13.8-45.1,218.465,218.465,0,0,0-12.1-24.2c-1.1-2.3-4.6-.3-3.3,2Z" fill="#443247"/>
      <path id="Path_652" data-name="Path 652" d="M260.9,124.2a114.445,114.445,0,0,1,7.4,36.1,132.389,132.389,0,0,1-.6,17.8c-.7,6.4-2.1,12.6-3,18.9a1.506,1.506,0,0,0,2.9.8c2.2-5.8,3.1-12.2,3.7-18.3a111.826,111.826,0,0,0,.2-19.2,122.9,122.9,0,0,0-8.3-36.8c-.5-1.4-2.9-.8-2.3.7Z" fill="#443247"/>
      <path id="Path_653" data-name="Path 653" d="M162.6,85.6a259.792,259.792,0,0,0-9.9,97.2q.6,6.6,1.5,13.2c.6,4.3.9,9.3,2.7,13.3.6,1.4,2.6.6,2.7-.7.3-5-1.3-10.5-1.9-15.5-.6-4.9-1-9.8-1.3-14.7a265.447,265.447,0,0,1,0-30.9,271.642,271.642,0,0,1,10.4-60.7c.8-2.7-3.4-3.9-4.2-1.2Z" fill="#443247"/>
      <path id="Path_654" data-name="Path 654" d="M118.7,90.6c-6.5,31.9-13,65.5-2.9,97.4a76.379,76.379,0,0,0,11.7,22.9c1.3,1.7,4.1.2,2.9-1.7-9.9-16.2-14.7-34.9-15.3-53.8-.7-21.5,3.1-42.7,7-63.8.5-2.2-2.9-3.2-3.4-1Z" fill="#443247"/>
      <path id="Path_655" data-name="Path 655" d="M226.3,182.8a18.913,18.913,0,0,1,16.4-7.3,17.477,17.477,0,0,1,14,9.7c1.3,2.6,6,.8,4.9-2a21.326,21.326,0,0,0-7.4-9.9,21.935,21.935,0,0,0-11.1-3.7c-8.2-.5-15.9,3.6-20.8,10-1.8,2.4,2.2,5.5,4,3.2Z" fill="#443247"/>
      <path id="Path_656" data-name="Path 656" d="M127,193.9c7.1-13,24.4-14.5,35.8-6.5,2.1,1.5,3.9-1.6,2.5-3.3-5.6-7.1-14.7-9.5-23.4-8a26.3,26.3,0,0,0-19.6,15c-1.5,3.2,2.9,6,4.7,2.8Z" fill="#443247"/>
      <path id="Path_657" data-name="Path 657" d="M112.8,129.8c-5.9,24.7-24.5,42.5-41.6,60-1.5,1.5.8,3.8,2.4,2.4,17.9-17,36.5-36.6,42.1-61.5.4-2-2.4-2.8-2.9-.9Z" fill="#443247"/>
      <path id="Path_658" data-name="Path 658" d="M97.9,167.9c-3.3,5-6.7,10-10,15s-6.7,9.9-9.7,15.1c-.9,1.6,1.3,2.8,2.4,1.4,3.6-4.8,6.9-9.8,10.2-14.9l9.9-15c1.1-1.7-1.7-3.3-2.8-1.6Z" fill="#443247"/>
      <path id="Path_659" data-name="Path 659" d="M244.4,185.1c1.2,4.4,2.2,8.8,3.8,13.1a1.506,1.506,0,0,0,2.9-.8c-.8-4.5-2.1-8.8-3.3-13.2a1.768,1.768,0,0,0-2.2-1.2,1.741,1.741,0,0,0-1.2,2.1Z" fill="#443247"/>
      <path id="Path_660" data-name="Path 660" d="M75,262.2A84.744,84.744,0,0,1,67.4,291c-3.4,7.6-7.7,14.7-11,22.3-7.9,17.8-7.7,39.7,3.9,56,6.5,9.2,16.3,16.1,27.7,16.9,1.7.1,2-2.6.4-3A41.994,41.994,0,0,1,64.3,367c-6.3-9-8.8-20.1-8.4-31,.5-16.2,10-29.2,16.2-43.5a83.8,83.8,0,0,0,7-30.4c0-2.5-3.9-2.4-4.1.1Z" fill="#443247"/>
      <path id="Path_661" data-name="Path 661" d="M108.6,290.1a102.951,102.951,0,0,1-1.4,48.1c-3.1,11-8.5,21.2-11.4,32.2-2.3,8.9-2.7,20,3.1,27.7a1.347,1.347,0,0,0,2.3-1.4c-6-14.1.1-27.9,5.4-41,4.8-11.8,8.3-24,8.5-36.9a122.894,122.894,0,0,0-3.5-29.6c-.4-2-3.4-1.2-3,.9Z" fill="#443247"/>
      <path id="Path_662" data-name="Path 662" d="M95.8,313.6c-.4,17.4-9.4,33-11.5,50.1-1.5,12.5,1.5,29,14,35.1,1.1.5,2.4-.9,1.3-1.7-11-9.5-13.2-23.5-10.6-37.2,2.9-15.5,9.9-30.2,9.6-46.2a1.4,1.4,0,0,0-2.8-.1Z" fill="#443247"/>
      <path id="Path_663" data-name="Path 663" d="M74.8,261.8c-3.2,13.4-10.7,24.9-17.4,36.7a63.107,63.107,0,0,0-6.7,15,67.581,67.581,0,0,0-1.6,21c.6,8.1,2.5,16.2,6.6,23.3.4.8,1.9.2,1.5-.6-6.5-15.8-8.5-35.3-.7-51,7.2-14.6,17.3-27.5,21.2-43.5.4-2-2.5-2.8-2.9-.9Z" fill="#443247"/>
      <path id="Path_664" data-name="Path 664" d="M130.7,187.6a37.776,37.776,0,0,0,5.3,15.3,1.278,1.278,0,0,0,2.2-1.3,47.561,47.561,0,0,1-5.1-14.7,1.258,1.258,0,0,0-1.5-.9,1.486,1.486,0,0,0-.9,1.6Z" fill="#443247"/>
      <path id="Path_665" data-name="Path 665" d="M182.5,248.8c4.7,3.8,10.5,6.6,16.7,5.9a18.918,18.918,0,0,0,14.3-10c1.4-2.4-2.1-4.2-3.6-2.1-2.7,3.7-6.5,6.7-11.2,7.2-4.9.6-9.6-1.6-13.5-4.6-2-1.5-4.6,2-2.7,3.6Z" fill="#443247"/>
      <path id="Path_666" data-name="Path 666" d="M274.7,156.3a112.388,112.388,0,0,0,31,31.6,99.143,99.143,0,0,0,19.6,10.3c6.5,2.4,13.8,3.3,19.4-1.4,1.3-1.1-.4-3.1-1.8-2.3-6.2,3.3-13.8.9-19.7-2a114.121,114.121,0,0,1-17.1-10.3c-10.9-7.8-20.3-17.6-29.2-27.6-1.1-1.2-3.1.4-2.2,1.7Z" fill="#443247"/>
      <path id="Path_667" data-name="Path 667" d="M279.5,176.2a170.916,170.916,0,0,0,22.9,22.1c8,6.4,16.7,12.6,26.2,16.5,1.5.6,2.3-1.7,1.1-2.5-8.6-5.8-17.5-10.9-25.7-17.3a177.171,177.171,0,0,1-22.4-20.9c-1.3-1.5-3.3.6-2.1,2.1Z" fill="#443247"/>
      <path id="Path_668" data-name="Path 668" d="M299.7,204.2c2.2,1.8,4.5,3.6,6.9,5.2a26.37,26.37,0,0,0,3.5,2.3c1.3.7,2.6,1.4,3.9,2a.918.918,0,0,0,.9-1.6l-3.3-2.4c-1.1-.8-2.3-1.6-3.5-2.4a81.619,81.619,0,0,1-6.6-5,1.369,1.369,0,0,0-1.8,0,1.385,1.385,0,0,0,0,1.9Z" fill="#443247"/>
      <path id="Path_669" data-name="Path 669" d="M61.9,223.2c-12.3-20.4-20.2-43.3-20-67.2.1-20,5.7-39.7,14.7-57.5C73.3,65.2,99.5,37.1,134,22.3c32.6-14,69.9-15.4,103.8-5.3,35.9,10.6,68.8,34.5,87.1,67.4,19.6,35.3,22.3,78.9,8.4,116.7a141.28,141.28,0,0,1-5.9,13.9c-1.3,2.7,2.6,5.1,4.1,2.4,20.1-37,21.3-83.2,5.2-121.9-15.5-37.1-47.1-65.1-84.1-79.8a160.564,160.564,0,0,0-108.3-3.6A151.486,151.486,0,0,0,95.7,39C80.5,51.5,68.4,67.1,58.4,84,48,101.6,40.5,120.9,38,141.3c-2.8,22.8,1.3,45.7,10.8,66.6a164.822,164.822,0,0,0,9.4,17.6c1.5,2.2,5.2.1,3.7-2.3Z" fill="#443247"/>
      <path id="Path_670" data-name="Path 670" d="M297.3,196.9c-.3,12.1-.8,24.1-1.6,36.1-.2,2.3,3.6,2.8,4,.5a112.463,112.463,0,0,0,1.9-18.3c.1-6.1-.3-12.3-.5-18.4,0-2.4-3.7-2.4-3.8.1Z" fill="#443247"/>
      <path id="Path_671" data-name="Path 671" d="M292.9,248.7c-1.5,11.8-6.1,22.9-14.4,31.6-7,7.4-16.2,12.7-25.7,16.4a142.069,142.069,0,0,1-15.2,5,1.917,1.917,0,0,0,1,3.7c20.9-5.3,43-14,52.9-34.7a56.352,56.352,0,0,0,5.2-22.1c.1-2.4-3.5-2.2-3.8.1Z" fill="#443247"/>
      <path id="Path_672" data-name="Path 672" d="M77.1,199.8a232.779,232.779,0,0,0,10,33.7,1.553,1.553,0,0,0,3-.8A96.253,96.253,0,0,0,86.3,218c-2-6.4-3.9-12.7-5.5-19.2-.6-2.5-4.3-1.5-3.7,1Z" fill="#443247"/>
      <path id="Path_673" data-name="Path 673" d="M89.6,253c3.7,15.7,9.9,30.8,23.1,40.9,12.4,9.5,28.7,13.9,44.2,14.3,1.9.1,2.4-3,.5-3.3-14.4-2.7-29.2-5.6-41-15-12.1-9.7-18.2-23.5-22.4-38.1-.8-2.8-5-1.6-4.4,1.2Z" fill="#443247"/>
      <path id="Path_674" data-name="Path 674" d="M300.3,210.2c6.3-4.1,14.8-1.2,19.5,4.2,5.8,6.8,4.9,17,2.2,24.9a37.631,37.631,0,0,1-9.8,15.3c-6,5.6-13.3,8.6-20.7,11.8-2,.9-.5,3.7,1.4,3.4,13.2-2.6,25.7-10.8,32-22.9,6.4-12.3,8.2-31.9-5.9-39.9-6.5-3.7-14.5-3.9-20.5,1-1.2,1,.4,3.1,1.8,2.2Z" fill="#443247"/>
      <path id="Path_675" data-name="Path 675" d="M305.7,246a28.126,28.126,0,0,1,4.1-5.5c.8-.8,1.7-1.6,2.6-2.4.5-.4.9-.8,1.4-1.2s.8-.7,1.4-1.2a1.52,1.52,0,0,0,.1-2,1.677,1.677,0,0,0-2-.4,11.9,11.9,0,0,0-3.3,2.2,22.258,22.258,0,0,0-2.6,2.7,30.492,30.492,0,0,0-4.3,6.3,1.5,1.5,0,1,0,2.6,1.5Z" fill="#443247"/>
      <path id="Path_676" data-name="Path 676" d="M79.5,206.9c-13.7,2.7-22,15.6-21.5,29.1.4,12,6.8,23.5,17.3,29.5,6.9,3.9,14.5,5.3,22.4,5.1a.767.767,0,0,0,.2-1.5c-10-3.4-21.9-6.3-28.4-15.3-6.2-8.5-8-20.8-3.2-30.3a21,21,0,0,1,14.6-11.3c3.4-.8,1.9-5.9-1.4-5.3Z" fill="#443247"/>
      <path id="Path_677" data-name="Path 677" d="M72.4,235.2c.2.1.4.1.6.2.3.1,0,0,.2.1a4.672,4.672,0,0,1,1,.5,9.5,9.5,0,0,1,1.7,1l1.8,1.2s.4.3.3.2.2.2.3.2a5.716,5.716,0,0,1,.8.7l1.5,1.5a4.62,4.62,0,0,0,.7.7c.1.2.3.3.4.5,0,0,.4.5.2.2-.2-.2.2.2.2.3.1.2.2.3.3.5a9.017,9.017,0,0,0,.9,1,5.547,5.547,0,0,1,.6.8c.4.5-.2-.3.2.2a1.756,1.756,0,0,0,.4.5,2.039,2.039,0,0,0,2.3.8,1.845,1.845,0,0,0,1.1-2.2,24.424,24.424,0,0,0-1-2.4,10.707,10.707,0,0,0-1.5-2.2,24.176,24.176,0,0,0-3.2-3.2,25.332,25.332,0,0,0-8.5-4.7,1.972,1.972,0,0,0-2.4,1.4c-.5.9.1,1.8,1.1,2.2Z" fill="#443247"/>
      <path id="Path_678" data-name="Path 678" d="M296.7,205.1c6.6,18.3,13,36.7,16.3,55.9a125.536,125.536,0,0,1,1.7,28.7c-.5,7.4-1.8,15.7-8.8,19.8-1.5.9-.5,3.6,1.2,2.9,12.3-4.4,11.7-23,11.4-33.5-.5-16.5-4.5-32.5-9.7-48-3-8.9-6.3-17.8-9.7-26.6-.5-1.5-3-.8-2.4.8Z" fill="#443247"/>
      <path id="Path_679" data-name="Path 679" d="M297.7,233.3a168.755,168.755,0,0,1,11.5,32.4c1.3,5.3,2.4,10.7,3.2,16.1.9,5.8,1.5,11.9-.6,17.5-.6,1.8,2.1,2.4,2.8.8,2.2-5.3,2.1-10.8,1.3-16.3a157.533,157.533,0,0,0-3.6-17.9A185.974,185.974,0,0,0,299.9,232c-.7-1.5-2.9-.2-2.2,1.3Z" fill="#443247"/>
      <path id="Path_680" data-name="Path 680" d="M81.1,208.6c-2,13.9-9.7,25.7-17.7,37-4.2,5.8-8.5,11.5-12.4,17.5-3.9,5.9-7.8,12.2-8.5,19.5-.6,6.4,2.1,13.2,8.1,16.1,1.4.6,2.5-1.3,1.2-2-8.4-4.9-6.8-15.8-2.9-23,4-7.5,9.6-14.3,14.7-21.1,9.6-13.1,18.9-26.9,20.9-43.4.1-2.1-3.2-2.5-3.4-.6Z" fill="#443247"/>
      <path id="Path_681" data-name="Path 681" d="M83.1,220.1c-1.4,15.6-13.1,26.8-22.3,38.4-8.5,10.7-17,24.3-12.7,38.5.3.8,1.7.7,1.6-.2-3.7-31.5,34.1-46.6,36.2-76.6.2-1.9-2.6-1.9-2.8-.1Z" fill="#443247"/>
    </g>
    <path id="Path_682" data-name="Path 682" d="M162.1,86.4c-2.8,28.9,6,58.5,23.6,81.5,4.7,6.2,10.5,12.6,17,17,.7.5,1.4-.5.9-1.1-2.4-2.6-5-4.9-7.4-7.5-2.3-2.5-4.4-5.1-6.5-7.8a118.686,118.686,0,0,1-11.8-18,113.167,113.167,0,0,1-12.6-40.1,119.237,119.237,0,0,1-.3-23.9c.1-1.9-2.8-1.9-2.9-.1Z" fill="#443247"/>
    <g id="Group_319" data-name="Group 319">
      <path id="Path_683" data-name="Path 683" d="M75,210a.349.349,0,0,0-.2.1,6.148,6.148,0,0,0-1.1.3c-.5.3-.9.5-.9.5-.1,0-.1.1-.2.1a.637.637,0,0,1-.6,0,1.057,1.057,0,0,1-.6-.7,79.25,79.25,0,0,1-2.3-11.2c-4.3.6-17.4,1.1-22-13.3-.8-2.6-1-4.7-.4-6.3a4.361,4.361,0,0,1,2.1-2.5c4.5-2.2,14,2.7,19.1,10.5q-.3-5.7-.3-11.4v-1.5c-4.3-.4-14.8-2.9-18.3-16.9-1.4-5.7.2-7.5,1.4-8.1,1.7-.9,4,.1,5.7,1.1,4.1,2.4,9.1,7.9,11.9,14.2a133.2,133.2,0,0,1,2.3-15.6c-4.1-1.5-13.7-6.4-15.2-20.6-.5-5.1.8-6.8,1.9-7.4,1.2-.6,2.7-.3,4.6,1,4.1,2.9,8.9,9.9,11,17.4a113.421,113.421,0,0,1,5.2-15.2c-3.1-3.3-10.3-13-7.4-28.5.7-3.6,1.6-5.6,3-6.3.7-.3,1.7-.5,3,.9,3.2,3.3,6.1,14.2,5.9,23.9,1.5-3,3.1-6,4.9-8.9-.9-6-2.3-23.8,9.8-32.7a22.222,22.222,0,0,1,2.3-1.5c4.8-2.4,6.4.9,6.9,2.5,2.5,7.8-4.8,29-15,34.2h0c-.1.1-.2.1-.4.2-1.4,2.3-2.7,4.7-4,7.1a29.488,29.488,0,0,1,5.4-3.5c5.7-2.9,12.6-3.9,14.7-.3.8,1.4,1.2,3.9-1.5,8.1a20.656,20.656,0,0,1-8,7.6c-6.6,3.3-13.4,1.2-16.1.1-1.7,4.3-3.2,8.6-4.5,13a24.345,24.345,0,0,1,7-5.4c3.9-2,7.1-2,8.4-.1,1,1.5.9,3.6-.4,6.5a16.646,16.646,0,0,1-7.4,8.4,16.411,16.411,0,0,1-10.2,1.3,131.041,131.041,0,0,0-2,14,23.494,23.494,0,0,1,8.9-8c3.7-1.9,6.8-1.9,8.3,0,.8,1,1.5,2.9.3,6.6a15.453,15.453,0,0,1-7.8,9.7A17.915,17.915,0,0,1,71.9,175v1a114.262,114.262,0,0,0,.3,11.7c2.5-5.9,7.2-11,11.1-12.9,2.5-1.2,4.5-1.2,5.8.1,1.3,1.2,1.7,3.5,1.4,6.6-.8,7.1-4.4,12.5-10.5,15.6a23.566,23.566,0,0,1-6.5,2.2,78.849,78.849,0,0,0,1.9,9.2,1.183,1.183,0,0,1-.1,1A.55.55,0,0,1,75,210Z" fill="#17ffdd"/>
      <path id="Path_684" data-name="Path 684" d="M107.7,113.4s-8,15.2-24.6,14.5c3.8,2.5,3.3,1.4,3.3,1.4l6.8.2,4.2-1,5.5-3.9,2.9-3.6,2.4-3.8Z" fill="#0dd6b4"/>
      <path id="Path_685" data-name="Path 685" d="M75.3,151.6s4.2-1.4,8.3-3.3,7.5-6.5,7.5-6.5l2.6-2.1-1.8,3.2-2.2,3.5-2.9,3.3L84,151l-3.1,1H77.4l-2.1-.4Z" fill="#0dd6b4"/>
      <path id="Path_686" data-name="Path 686" d="M72.9,175.5s7.5-3,9.9-4.6a49.425,49.425,0,0,0,6.3-5.9l1.6-1.7-.5,2.6L88,169.6,84.9,173l-3.5,1.7-3.7,1.2-4.8-.4Z" fill="#0dd6b4"/>
      <path id="Path_687" data-name="Path 687" d="M74,199.9c.3-.3,7.1-5.2,9.4-7.6a43.535,43.535,0,0,0,5-6.9l2.4-4.5a38.857,38.857,0,0,1-.1,4.8c-.2.1-3.1,5.9-3.1,5.9l-3.7,4.2-4.3,2.6L74,199.9Z" fill="#0dd6b4"/>
      <path id="Path_688" data-name="Path 688" d="M105.2,71.3a48.122,48.122,0,0,1-2,14.8c-2.6,7.8-9.1,15.3-12.7,21.5-1.3,2.2,1.8,1,3.9-.6a15.822,15.822,0,0,0,4.7-5.5l3.1-5.6a39.112,39.112,0,0,0,4.1-11.3l1.1-9.1Z" fill="#0dd6b4"/>
      <path id="Path_689" data-name="Path 689" d="M99.9,72.6c12.5-6.3,4.3,28.1-8.8,34.6l-.6.3a137.488,137.488,0,0,0-7,13.1,26.5,26.5,0,0,1,9.2-7.5c8.9-4.5,18.2-3.3,12.3,6.1a19,19,0,0,1-7.6,7.2c-7.2,3.6-14.5.5-16.3-.3a119.558,119.558,0,0,0-5.5,16.6c-.2.9-.4,1.7-.6,2.6a21.832,21.832,0,0,1,9.5-9.1c5.3-2.7,9.9-1.9,7,4.9a15.407,15.407,0,0,1-7,7.9A15.712,15.712,0,0,1,74,150a146.368,146.368,0,0,0-2.6,19.9c1.7-5.2,6.3-9.5,10.4-11.6,5.1-2.6,9.7-1.7,7.5,5.2a14.224,14.224,0,0,1-7.3,9.1A18.239,18.239,0,0,1,71.2,174a17.7,17.7,0,0,1-.1,2.3,132.407,132.407,0,0,0,.7,16.2c1.6-7.2,7.4-14.1,12-16.4,3.7-1.9,6.7-.8,6,5.5a17.751,17.751,0,0,1-10,14.7,23.631,23.631,0,0,1-7.2,2.2A95.327,95.327,0,0,0,74.7,209a4.951,4.951,0,0,0-1.3.4,7.2,7.2,0,0,0-1,.6A88.314,88.314,0,0,1,70,198c-3.2.6-17.2,2.2-21.9-12.5-1.3-4.2-.6-6.5,1.2-7.4,4.5-2.3,16,4.3,20,13.7a145.393,145.393,0,0,1-.6-15.5,20.083,20.083,0,0,1,.1-2.5c-3.1-.2-14.7-1.7-18.4-16.2-1-3.9-.5-6,.8-6.7,3.9-2,15.1,7.9,17.8,18.6a144.457,144.457,0,0,1,2.8-20.8c-3.5-1.1-13.9-5.5-15.4-20-.4-3.7.2-5.7,1.4-6.3,3.8-1.9,13.6,10.1,15.1,21.4.2-.6.3-1.2.5-1.9a133.295,133.295,0,0,1,5.9-17.5c-2.4-2.4-10.6-12-7.6-27.9.6-3.3,1.5-5,2.4-5.5,3.8-1.9,9.3,15.8,7.3,28.6a144.89,144.89,0,0,1,7.1-13.5c-.9-6-2.5-23.4,9.3-32a9.116,9.116,0,0,1,2.1-1.5m-.6-2a15.763,15.763,0,0,0-2.4,1.5c-5.5,4.1-9,10.3-10.3,18.5a52.226,52.226,0,0,0,0,14.9c-1.1,1.8-2.1,3.7-3.1,5.6-.5-9-3.1-18-6.1-21.1-1.7-1.8-3.2-1.4-3.9-1-1.6.8-2.8,3.1-3.5,7-2.8,15.2,3.7,25.1,7.1,29-1.5,3.9-2.9,7.8-4.1,11.9-2.5-6.7-6.8-12.7-10.5-15.3-2.1-1.5-3.9-1.8-5.3-1.1-1.5.7-3.1,2.8-2.5,8.6,1.5,14,10.5,19.3,15.1,21.2-.7,3.8-1.3,7.7-1.8,11.6A32.641,32.641,0,0,0,57.1,150c-2.6-1.6-4.8-1.9-6.4-1.1-1.4.7-3.5,2.9-1.9,9.4,3.5,13.8,13.4,16.9,18.3,17.6v.5c0,2.8,0,5.6.1,8.4a29.426,29.426,0,0,0-6.7-6c-4.6-3-8.9-3.9-11.6-2.5a5.387,5.387,0,0,0-2.6,3.1,12.144,12.144,0,0,0,.4,7.2c4.6,14.2,17,14.5,22.1,14A80.133,80.133,0,0,0,71,211a2.07,2.07,0,0,0,1.1,1.3,1.656,1.656,0,0,0,1.2,0c.1-.1.2-.1.3-.2h0a7.234,7.234,0,0,1,.7-.4,6.89,6.89,0,0,0,.8-.3c.2,0,.3-.1.5-.1a2.361,2.361,0,0,0,.8-.9,3.132,3.132,0,0,0,.2-1.9s-.8-2.9-1.7-7.9a33.538,33.538,0,0,0,5.8-2c6.4-3.2,10.3-8.9,11.1-16.5.4-3.5-.2-6.1-1.7-7.6a4.512,4.512,0,0,0-4.9-.9,17.889,17.889,0,0,0,6.1-9c1.3-4.2.5-6.6-.5-7.8-1.8-2.2-5.1-2.3-9.3-.2a23.221,23.221,0,0,0-7.3,5.8q.6-4.8,1.5-9.6a16.176,16.176,0,0,0,17.8-10.3c1.8-4.1,1.1-6.5.2-7.8-2.3-3.3-7.4-1.3-9.4-.2a21.146,21.146,0,0,0-4.8,3.2c.9-2.8,1.9-5.7,3-8.4,3.2,1.2,9.6,2.8,16-.4a21.494,21.494,0,0,0,8.3-7.9c3-4.7,2.5-7.7,1.5-9.4-2.5-4.2-9.9-3-15.8-.1a16.368,16.368,0,0,0-2.2,1.2c.6-1,1.1-2,1.7-2.9a.1.1,0,0,0,.1-.1c4.8-2.4,9.5-8.4,12.7-16.5,3.7-9,3.9-15.8,2.8-19.1a5.8,5.8,0,0,0-3.1-3.8c-1.7-.9-3.3-.7-5.2.3ZM73,184.4c-.1-2.7-.2-5.4-.1-8.1a20.287,20.287,0,0,0,8-1,28.428,28.428,0,0,0-7.9,9.1Z" fill="#443247" stroke="#443247" stroke-width="0.965"/>
    </g>
    <g id="Group_320" data-name="Group 320">
      <path id="Path_690" data-name="Path 690" d="M312.3,207a.349.349,0,0,1,.2.1,3.809,3.809,0,0,1,1,.3c.5.3.9.5.9.5a.349.349,0,0,0,.2.1.637.637,0,0,0,.6,0,.752.752,0,0,0,.5-.7,79.25,79.25,0,0,0,2.3-11.2c4.2.6,17.3,1.1,21.9-13.3.8-2.6,1-4.7.4-6.3a4.361,4.361,0,0,0-2.1-2.5c-4.4-2.2-13.9,2.7-19,10.5q.3-5.7.3-11.4v-1.5c4.3-.4,14.7-2.9,18.3-16.9,1.4-5.7-.2-7.5-1.4-8.1-1.7-.9-4,.1-5.7,1.1-4.1,2.4-9.1,7.9-11.8,14.2a133.21,133.21,0,0,0-2.3-15.6c4.1-1.5,13.7-6.4,15.2-20.6.5-5.1-.8-6.8-1.9-7.4-1.2-.6-2.7-.3-4.5,1-4,2.9-8.9,9.9-11,17.4a129.111,129.111,0,0,0-5.1-15.2c3.1-3.3,10.2-13,7.4-28.5-.7-3.6-1.6-5.6-3-6.3-.7-.3-1.7-.5-3,.9-3.2,3.3-6.1,14.2-5.9,23.9-1.5-3-3.1-6-4.9-8.9.9-6,2.3-23.8-9.8-32.7a22.223,22.223,0,0,0-2.3-1.5c-4.8-2.4-6.4.9-6.9,2.5-2.5,7.8,4.8,29,15,34.2h0c.1.1.2.1.4.2,1.4,2.3,2.7,4.7,4,7.1a32.425,32.425,0,0,0-5.3-3.5c-5.7-2.9-12.6-3.9-14.7-.3-.8,1.4-1.2,3.9,1.4,8.1a21.13,21.13,0,0,0,7.9,7.6c6.6,3.3,13.3,1.2,16.1.1a124.253,124.253,0,0,1,4.4,13,23.064,23.064,0,0,0-7-5.4c-3.9-2-7.1-2-8.4-.1-1,1.5-.9,3.6.4,6.5a16.647,16.647,0,0,0,7.4,8.4,16.411,16.411,0,0,0,10.2,1.3,131.041,131.041,0,0,1,2,14,24.032,24.032,0,0,0-8.8-8c-3.7-1.9-6.8-1.9-8.3,0-.8,1-1.5,2.9-.3,6.6a15.32,15.32,0,0,0,7.7,9.7,17.915,17.915,0,0,0,10.3,1.6v1a114.264,114.264,0,0,1-.3,11.7c-2.5-5.9-7.2-11-11.1-12.9-2.5-1.2-4.4-1.2-5.8.1-1.3,1.2-1.7,3.5-1.4,6.6.8,7.1,4.4,12.5,10.5,15.6a23.566,23.566,0,0,0,6.5,2.2,78.849,78.849,0,0,1-1.9,9.2,1.183,1.183,0,0,0,.1,1A2.18,2.18,0,0,0,312.3,207Z" fill="#17ffdd"/>
      <path id="Path_691" data-name="Path 691" d="M279.7,110.4s8,15.2,24.5,14.5c-3.7,2.5-3.3,1.4-3.3,1.4l-6.8.2-4.2-1-5.5-3.9-2.9-3.6-2.4-3.8Z" fill="#0dd6b4"/>
      <path id="Path_692" data-name="Path 692" d="M312,148.6s-4.2-1.4-8.3-3.3-7.5-6.5-7.5-6.5l-2.6-2.1,1.8,3.2,2.2,3.5,2.9,3.3,2.7,1.3,3.1,1h3.5l2.2-.4Z" fill="#0dd6b4"/>
      <path id="Path_693" data-name="Path 693" d="M314.4,172.5s-7.5-3-9.9-4.6a49.425,49.425,0,0,1-6.3-5.9l-1.6-1.7.5,2.6,2.2,3.7,3.1,3.4,3.5,1.7,3.7,1.2,4.8-.4Z" fill="#0dd6b4"/>
      <path id="Path_694" data-name="Path 694" d="M313.3,196.9c-.3-.3-7.1-5.2-9.4-7.6a40.494,40.494,0,0,1-4.9-6.9l-2.4-4.5a38.854,38.854,0,0,0,.1,4.8c.2.1,3.1,5.9,3.1,5.9l3.7,4.2,4.3,2.6,5.5,1.5Z" fill="#0dd6b4"/>
      <path id="Path_695" data-name="Path 695" d="M282.2,68.3a48.123,48.123,0,0,0,2,14.8c2.6,7.8,9,15.3,12.6,21.5,1.3,2.2-1.8,1-3.9-.6a15.822,15.822,0,0,1-4.7-5.5l-3.1-5.6A39.113,39.113,0,0,1,281,81.6l-1.1-9.1Z" fill="#0dd6b4"/>
      <path id="Path_696" data-name="Path 696" d="M287.5,69.6a11.348,11.348,0,0,1,2.2,1.4c11.8,8.7,10.2,26.1,9.3,32a144.89,144.89,0,0,1,7.1,13.5c-1.9-12.8,3.5-30.5,7.3-28.6,1,.5,1.8,2.2,2.4,5.5,3,15.9-5.2,25.5-7.6,27.9a156.472,156.472,0,0,1,5.9,17.5c.2.6.3,1.2.5,1.9,1.5-11.3,11.3-23.3,15.1-21.4,1.2.6,1.8,2.5,1.4,6.3-1.5,14.5-11.9,18.9-15.4,20a144.457,144.457,0,0,1,2.8,20.8c2.7-10.8,13.8-20.6,17.7-18.6,1.3.7,1.8,2.8.8,6.7-3.7,14.5-15.2,16.1-18.3,16.2a20.9,20.9,0,0,0,.1,2.5,145.393,145.393,0,0,1-.6,15.5c4-9.4,15.4-16,19.9-13.7,1.8.9,2.5,3.3,1.2,7.4-4.7,14.6-18.6,13-21.8,12.5a87.981,87.981,0,0,1-2.4,12.1,7.194,7.194,0,0,0-1-.6,2.836,2.836,0,0,0-1.3-.4,102.5,102.5,0,0,0,2.1-10.5,23.631,23.631,0,0,1-7.2-2.2,17.751,17.751,0,0,1-10-14.7c-.7-6.3,2.3-7.4,6-5.5,4.6,2.3,10.3,9.1,11.9,16.4a131.472,131.472,0,0,0,.7-16.2,17.7,17.7,0,0,0-.1-2.3,18.239,18.239,0,0,1-10.8-1.4c-2.9-1.5-5.7-4.2-7.3-9.1-2.2-6.9,2.3-7.7,7.5-5.2A22.074,22.074,0,0,1,316,166.9a146.364,146.364,0,0,0-2.6-19.9,15.712,15.712,0,0,1-10.5-1,15.011,15.011,0,0,1-7-7.9c-2.9-6.7,1.7-7.5,7-4.9a23.628,23.628,0,0,1,9.5,9.1c-.2-.9-.4-1.7-.6-2.6a134.473,134.473,0,0,0-5.5-16.6c-1.7.8-9.1,3.9-16.2.3a19,19,0,0,1-7.6-7.2c-5.9-9.4,3.4-10.5,12.2-6.1a26.5,26.5,0,0,1,9.2,7.5,126.379,126.379,0,0,0-7-13.1l-.6-.3c-13.1-6.5-21.3-40.8-8.8-34.6m.6-2c-1.9-.9-3.5-1.2-4.9-.6a5.361,5.361,0,0,0-3.1,3.8c-1,3.3-.9,10.1,2.8,19.1,3.3,8.1,7.9,14.1,12.7,16.5a.1.1,0,0,1,.1.1c.6,1,1.1,1.9,1.7,2.9a16.366,16.366,0,0,0-2.2-1.2c-5.8-2.9-13.2-4.1-15.7.1-1,1.7-1.5,4.7,1.5,9.4a21.493,21.493,0,0,0,8.3,7.9c6.4,3.2,12.8,1.6,16,.4q1.65,4.2,3,8.4a35.471,35.471,0,0,0-4.7-3.2c-2.1-1-7.1-3.1-9.4.2-.9,1.3-1.6,3.6.2,7.8a16.138,16.138,0,0,0,17.7,10.3q.9,4.8,1.5,9.6a24.756,24.756,0,0,0-7.3-5.8c-4.1-2.1-7.5-2-9.2.2-1,1.2-1.8,3.6-.5,7.8a17.291,17.291,0,0,0,6.1,9c-2.5-.7-4,0-4.9.9-1.5,1.5-2.1,4.1-1.7,7.6.8,7.5,4.6,13.2,11,16.5a21.09,21.09,0,0,0,5.8,2,62.989,62.989,0,0,1-1.7,7.9,2.491,2.491,0,0,0,.2,1.9,2.361,2.361,0,0,0,.8.9.749.749,0,0,0,.5.1,1.6,1.6,0,0,1,.8.3,7.236,7.236,0,0,1,.7.4h0c.1.1.2.2.3.2a1.275,1.275,0,0,0,1.2,0,2.07,2.07,0,0,0,1.1-1.3,72.091,72.091,0,0,0,2.1-10.4c5.1.5,17.5.2,22-14,.9-2.9,1.1-5.3.4-7.2a5.387,5.387,0,0,0-2.6-3.1c-2.7-1.4-7-.4-11.6,2.5a29.426,29.426,0,0,0-6.7,6c.1-2.8.2-5.6.1-8.4v-.5c4.9-.7,14.7-3.8,18.2-17.6,1.7-6.5-.5-8.7-1.9-9.4-1.6-.8-3.8-.4-6.4,1.1a32.641,32.641,0,0,0-10.9,11.9,111.946,111.946,0,0,0-1.8-11.6c4.6-1.9,13.5-7.2,15-21.2.6-5.8-1-7.9-2.5-8.6s-3.2-.4-5.3,1.1c-3.7,2.6-8,8.6-10.5,15.3-1.2-4-2.6-8-4.1-11.9,3.4-3.9,10-13.7,7.1-29-.7-3.9-1.9-6.2-3.5-7-.7-.4-2.2-.7-3.9,1-3,3.1-5.7,12.1-6.1,21.1-1-1.9-2-3.7-3.1-5.6a52.156,52.156,0,0,0,0-14.9c-1.3-8.2-4.7-14.5-10.3-18.5-.8-.3-1.6-.8-2.4-1.2Zm26.2,113.8a29.465,29.465,0,0,0-7.8-9.1,19.822,19.822,0,0,0,7.9,1c.1,2.7,0,5.4-.1,8.1Z" fill="#443247" stroke="#443247" stroke-width="0.963"/>
    </g>
    <path id="Path_697" data-name="Path 697" d="M145.6,307.9s6.1,11.5,5,24.8l4.6-4.8s.2-18-5.6-21.9Z" fill="#443247"/>
    <path id="Path_698" data-name="Path 698" d="M245.5,303.2s-7.6,17.6-7.2,36.7l-2.4-9.1s.4-17.6,7.4-28.7Z" fill="#443247"/>
  </g>
</svg>
