<?xml version="1.0" encoding="utf-8"?>
<!-- Generator: Adobe Illustrator 26.0.3, SVG Export Plug-In . SVG Version: 6.00 Build 0)  -->
<svg version="1.0" id="Layer_1" xmlns="http://www.w3.org/2000/svg" xmlns:xlink="http://www.w3.org/1999/xlink" x="0px" y="0px"
	 viewBox="0 0 342 500" style="enable-background:new 0 0 342 500;" xml:space="preserve">
<style type="text/css">
	.st0{fill:#FFE2C5;}
	.st1{fill:#C46B3F;}
	.st2{fill:#002135;}
	.st3{fill:#00FFDB;}
	.st4{fill:#FFD6B8;}
	.st5{opacity:0.4;fill:#FF9B8E;}
	.st6{fill:#FFB2A7;}
	.st7{fill:#FF8888;}
	.st8{fill:#FF5555;}
	.st9{fill:#AF4C2B;}
	.st10{opacity:0.25;fill:#FF8D90;}
	.st11{fill:#00D9B2;}
</style>
<g>
	<path class="st0" d="M339.4,201.6c-0.8-11.5,1.1-27.9-11.5-33.2c-4.2-1.8-9.8-2.7-14.2-1.1c-6.1,2.1-7,7.7-6.9,13.5
		c0.1,7.6,0.4,15.3,0.6,22.9c0.1,2.3,0,4.6,0.2,6.7c-2.8,3.2-0.8,8.4,2.9,10.2c-0.7,0.6-1.4,1.2-2.1,1.8c-6.5,5.5,2.8,15,9.3,9.5
		c5.6-4.7,11.3-9.6,16.4-14.9C338.4,212.5,339.8,208,339.4,201.6z"/>
	<path class="st1" d="M253.6,22.6C218.7-2.1,174.4,1,135.5,12.4c-3.9,1.1-6.5,3.7-7.8,6.8c-5.5,2.7-10.7,5.6-15.9,8.8
		c0.7-0.8,1.5-1.6,2.1-2.5c2.6-3.4,3.4-7.6,0.7-11.2c-2.3-3-7.5-4.8-10.8-2.2c-1.4,1.1-2.8,2.1-4.2,3.2c-1.2-0.2-2.4,0-3.8,0.5
		c-4.5,1.8-8.9,3.7-13.4,5.5c-2.9,1.2-4.7,3.4-5.5,5.7c-0.3,0.2-0.5,0.3-0.8,0.5c-5,3.1-10,6.5-13.2,11.7c-1.7,2.7-2.8,5.8-3.8,9
		c-0.2,0.2-0.4,0.4-0.6,0.7c-11.1,11.9-18,27.2-21.2,43.3c-2.3,11.5-2.7,23.1-2.1,34.7c-0.2,0.3-0.4,0.7-0.3,1.1
		c0.5,6.9,0.8,13.7,0.9,20.6c-0.1,5,0,10,0.1,15c0,1.8,2,2.2,3,1.3c0.1,1.6,0.3,3.2,0.4,4.8c0.1,0.6,0.4,1.1,0.8,1.4
		c1.4,11.1,2.9,22.1,4.3,33.2c0.9,7,7.1,10.3,12.8,7c0,0.6,0.1,1.1,0.1,1.7c-3.8,2.9-7.5,6-11,9.1c-1.6-1.3-4-1.4-5.7,0.1
		c-8.7,7.8-16.4,16.9-22.8,26.8c-1.2,1.2-2.4,2.5-3.4,3.9c-7,9.4-13.3,27.2-6.9,38.5c5.9,10.4,28.1,5.4,28.3,18
		c-1.6,2.2-3,4.7-4.1,7.3c-1.5,2.5-3,5-4.3,7.6c-2,3.8-2.2,7.3,0.8,10.7c4.6,5.2,11.5,8.2,18.4,9.3c1.6,0.7,3.2,0.8,4.7,0.5
		c1.2,0.1,2.4,0.1,3.6,0c0.9,0,1.7-0.4,2.4-0.9c1.3,0.3,2.5,0.6,3.7,0.8c4.7,0.9,7-5.6,3.6-7.7c1.1-0.9,1.9-2.1,2.2-3.7
		c0.3,0,0.8-0.2,1.6-0.7c1.3-0.2,2.6-0.4,3.9-0.6c2-0.3,4-0.5,5.9-0.8c4.6-0.7,9.1-1.6,13.4-3.3c7.2-2.8,16.2-9.6,8-17.5
		c-2.4-2.4-5.5-3.8-8.7-4.5c1.1-2,1.4-4.3,0.7-7c-1.1-4.1-4-6-7.4-6.7c0.3-2.2,0-4.3-1-6.1c-2.4-4.3-6.4-4.9-10.9-3.5
		c-3-1.8-5.9-2.8-9.2-3.3c0-1.5,0-3.1-0.1-4.7c-0.3-4.4-4.9-7.1-8.5-6.5c-0.1-0.2-0.2-0.5-0.4-0.7c8.3-14.6,15.3-29.9,17.8-46.7
		c0-0.3,0.1-0.6,0.1-0.9c1.4-1.4,2.2-3.4,2.1-6c-0.6-13.9-3.3-27.3-7.8-40.3c0.1-0.1,0.2-0.2,0.2-0.3c20-25.3,39.1-51.4,57.3-78.1
		c2.8-4.2,1.3-8.2-1.8-10.5c3.7-4,7.6-7.8,11.6-11.5c0.2-0.2,0.4-0.4,0.6-0.6c2.3,0.8,4.9,1.1,7.7,0.6c5.9-1.1,9.7-5.7,14.8-8.5
		c1.2-0.7,2.5-1.3,3.8-1.8c0.3,0.9,0.7,1.8,1.2,2.7c7.4,12.2,16.2,23.4,26.3,33.3c4.7,12.4,11.1,24.2,19.1,35
		c6.6,8.8,19.1,8,22.9-3.1c0.4-1.3,0.8-2.5,1.2-3.8c1,1.2,2,2.3,3,3.4c6.3,6.7,15.5,3.8,19.5-2.9c5.5-2.3,9.7-8.1,8.2-15.2
		c-1.3-6.1-2.4-12.2-3-18.3c11.4,12.8,22.8,25.6,34.2,38.4c6.5,7.3,18.5,3.3,21-5.7C326.4,81.8,285.9,45.4,253.6,22.6z M46.9,198.3
		C46.9,198.3,46.9,198.3,46.9,198.3C46.9,199,46.9,199,46.9,198.3z M16,274.4c0.4,2.2,1,4.3,1.9,6.3c0.1,0.4,0.1,0.9,0.2,1.3
		C16.6,279.8,16,277.2,16,274.4z M52.4,316.9c-0.2,0.3-0.5,0.6-0.7,0.9c0.1-0.5,0.2-1.1,0.4-1.6C52.2,316.5,52.3,316.7,52.4,316.9z
		 M84.8,48.2c-0.1-0.1-0.2-0.2-0.4-0.3c1.4-1.1,2.8-2.3,4.2-3.4C87.4,45.7,86.1,46.9,84.8,48.2z M123.1,51.8c-1,0.2-1.9,0.4-2.9,0.8
		c1-0.7,2-1.3,3.1-2C123.2,51,123.2,51.4,123.1,51.8z M226.3,64.1c-0.8-2.3-1.6-4.6-2.4-6.9c-0.1-0.3-0.2-0.5-0.3-0.8
		c2.4,2,4.6,4,6.9,6.2C229,62.9,227.6,63.4,226.3,64.1z"/>
	<path class="st2" d="M85.7,291.1c2.8,3.2,5.6,6.4,8.3,9.7c2.5,3,5.7,6.3,6.9,10.1c2.4,7.5-5.6,12.9-11.6,14.7
		c-7.2,2.1-15.3,2.2-21.6,6.7c-5,3.6-8.6,8.8-7.5,15.3c0.2,1.5,2.5,1.1,2.5-0.3c0.1-8.6,9.2-12.5,16.2-13.9c7.7-1.6,15.7-2,22.1-7.2
		c5.5-4.5,8-11.5,5-18.3c-1.7-3.8-4.6-7-7.3-10.1c-3-3.5-6.1-6.9-9.3-10.3C87,284.8,83.4,288.5,85.7,291.1L85.7,291.1z"/>
	<path class="st3" d="M137.8,5.5c-4.7-2.1-11.1,0.1-15.3,2.4c-4.8,2.7-8.5,6.9-11,11.8c-2.4,4.7,4.8,7.8,7.3,3.3
		c1.9-3.6,4.8-6.3,8.3-8.3c3.4-1.9,7.1-1.7,10.6-3.1C140.3,10.6,140.4,6.7,137.8,5.5z"/>
	<path class="st2" d="M122.6,20.3c2-1.7,4.2-3.2,6.5-4.4c2.4-1.2,4.8-2.5,7.4-3.4c1.7-0.6,1-3.5-0.8-3.2c-2.9,0.5-5.7,1.2-8.3,2.5
		c-2.6,1.4-5.1,3-7.3,5c-0.9,0.8-1.1,2-0.4,3C120.3,20.8,121.7,21.1,122.6,20.3L122.6,20.3z"/>
	<path class="st2" d="M115.8,22.7c-2.4-1.7,1-6.7,2.2-8.3c2.1-2.7,4.8-4.8,7.9-6.1c2.6-1.1,5.9-1.8,8.7-1.5c2.9,0.2,5.3,1.7,7.5,3.6
		c1.5,1.2,3.8-0.9,2.5-2.4c-2.6-3-5.7-5.2-9.7-5.4c-4-0.2-8.4,0.7-12,2.6c-3.9,2-7.1,5.1-9.3,9.1c-1.7,3.1-3.7,8.7,0.1,11.2
		C115.5,26.3,117.5,23.9,115.8,22.7L115.8,22.7z"/>
	<path class="st2" d="M119,8.6C90.3,6.1,66.8,27.7,52.4,50.8C44.5,63.5,38.5,77.3,35,91.9c-3.8,15.6-4.7,31.8-3.7,47.8
		c1,16.1,4.4,31.7,8.8,47.2c2,6.9,4,14.4,2.7,21.6c-1.4,7.9-7.8,12.3-13.2,17.4c-11,10.5-21.2,23.7-26.5,38.2
		c-4.8,13-5.2,29.3,7.7,37.5c2.8,1.8,5.8,3,9,3.8c3.4,0.8,6.7,0.6,10.1,1c4.5,0.5-0.9,6.1-2.1,7.4c-2.1,2.3-3.6,5.1-4,8.3
		c-0.9,6.2,1.8,12.6,6,17c4.8,5.1,11.8,7.4,18.5,8.4c3.7,0.6,7.4,0.8,11.1,1c2.9,0.2,3.7-4.5,0.7-4.7c-11.9-0.6-30.5-2.5-31.5-18.4
		c-0.2-3.1,0.9-5.8,2.9-8.1c2.2-2.5,4.6-4.7,5-8.2c0.3-2.7-0.7-5.8-3.2-7.1c-2.8-1.4-6.5-0.6-9.5-1c-6.6-0.8-13.2-3.6-16.8-9.6
		c-3.6-6-3.2-13.6-1.5-20.2c1.8-7.2,5.5-13.9,9.5-20.1c4.2-6.4,9-12.4,14.3-17.8c5.1-5.1,11.6-9.3,15.4-15.6c3.5-5.8,4-12.7,3-19.4
		c-1-7.1-3.4-13.9-5.3-20.8c-2.1-7.5-3.7-15.2-4.9-22.9C33,124.4,36,93.3,49.7,65.8c11.7-23.5,31.9-48.1,58.8-52.5
		c3.3-0.5,6.6-0.8,9.9-0.7C120.9,12.7,121.6,8.8,119,8.6L119,8.6z"/>
	<path class="st4" d="M311.4,230.9c4.1-13.6-3.8-47.9-5.6-61.7c-1.8-13.4,12.2-24.9,4.2-35.9c-8.1-11.1-32-8.2-42.1-17.3
		c-1.9-1.7-3.4-3.2-4.7-4.7c-0.4,5.9-5.1,11.8-10.4,14c-6.4,2.6-12.3,5.8-19.3,6.5c-7,0.7-13.9-1.6-19.6-5.7
		c-13-9.2-24.3-21.3-35.7-32.4c-4.7-4.6-9.1-9.3-13.3-14.4c-3.8-4.5-8.1-10.3-12.5-13.5c-2.2-1.7-2.4-1.7-5.2-2.1
		c0.9,0.1-0.7,0.1-1.6,0.1c-14.6,29.5-34.3,56.2-53.7,82.5c-5,6.8-10.1,13.6-14.9,20.5c-2.5,3.6-5.5,7.4-7.8,11.4
		c1.4,5.7,2.3,11.5,3,17.4c0.6,4.4,2.4,9,1.6,13.5c-0.5,2.5-1.5,4.9-2.5,7.2c-1,2.5-2.2,5.3-3.9,7.3c-4.5,5.2-6.6-4.4-7.6-7.4
		c-2.2-6.9-11-14.4-18.6-10c-8.3,4.9-0.5,15.4,1.3,21.7c0.3,1-0.5,2.3-1.6,2.2c-7.3-1-18.9-6.4-24.8,0.5c-7.6,9,5.7,15.3,11.7,19.6
		c1.3,1,0.9,3.2-0.9,3.2c-4.1,0.1-9.7,1.4-10.9,6.1c-1,3.8,2.2,6.9,4.5,9.8c3.2-0.5,6.3-0.8,9.5-0.9c5.3-0.2,11,0.3,15.8,3
		c2.8,1.6,5.4,3.7,8.1,5.5c2.6,1.9,5.6,3.3,8.1,5.3c4.8,3.7,8.2,9,12.2,13.4c3.7,4.1,7.7,7.9,11,12.3c9.2,6.6,17.8,14.1,25.3,22.5
		c6.5,7.3,12.1,15.3,16.7,23.9c3.6,6.7,5.9,14.3,11.8,19.4c0.2,0.2,0.3,0.5,0.6,0.7c6.7,5.8,14.6,5.9,23,5.2c12.1-1,24-3.4,35.9-5.9
		c13.5-2.9,26.9-5.2,40.6-5.9c6.6-0.3,13.1-0.4,19.7-0.5c6.3-0.1,19.1-2.6,20.8,6.4c0.6,3-1.7,4.5,1.5,7c1.7,1.3,4,1.4,6,0.7
		c6.5-2.5,10.6-13.7,13-19.6c6.9-17.3,6.5-25.9-2.4-42.8c-1.1-2.1-11.1-10.3-12.9-9.4c-8.5-5.3-26.4-11.4-35.6-15.1
		c23.1-9.9,31.9-13.8,49.3-31.5C306.8,254.6,307.8,242.5,311.4,230.9z"/>
	<path class="st0" d="M229.3,66.6c2.5,2.8,4.9,5.7,7.3,8.5c-1.4-4.3-3-8.5-6.6-11.4C229.8,64.6,229.6,65.6,229.3,66.6z"/>
	<path class="st4" d="M193.5,431.4c-6.2-0.1-12.2,0.8-18.4,1.1c-11.5,0.7-23.2,0.5-34.5-2.1c0.5,1.5,0.9,2.9,1.1,4.2
		c0,1.6,0,3.1-0.1,4.6c-0.3,3.4-1,6.8-2.1,10c-3.4,4.2-6.5,8.7-8,14c-1.3,4.6-2.1,13.6,0.7,17.7c2.5,3.7,8.1,5.5,12.4,5.5
		c9.8-0.2,18.3-7.7,28,0.4c1.6,1.3,3.8,0.9,4.5-1.2c6.1-18.6,15.2-35.6,26.7-51.2c0.5-0.7,0.6-1.4,0.4-2.1
		C200.8,432.2,197.2,431.4,193.5,431.4z"/>
	<path class="st4" d="M273.6,443.3c-0.1-5.9,1.4-18-3.1-22.6c0,0,0,0-0.1-0.1c-3.9,2.2-8.2,3.6-12.6,4.1c-4.1,1.2-8.3,2.2-12.2,3
		c-5.5,1.2-11.3,1.4-16.8,2.8c-4.7,1.2-9.3,2.8-14.1,1.9c0,0.5,0.1,1,0.5,1.5c3.3,4.6,6.7,10,8.6,15.3c2.2,6.2,1.4,12.6,1.2,19
		c-0.1,2.7-0.8,7.2,1.3,9.5c2.5,2.5,5.8,0.5,8.7,3.6c0.8,0.9,2.4,1.2,3.5,0.5c5.6-3.8,26.3-14.6,31.5-4.7c1.5,2.9,6,1.5,6-1.7
		C276,464.6,273.9,454.2,273.6,443.3z"/>
	<path class="st5" d="M157.6,337.1c0.1-0.3-0.2-0.4-0.4-0.3c-4.2,1.9-8.3,3.8-12.5,4.7c-13.1-3.2-23.2-13-33.1-22.1
		c-10.8-9.9-21.4-20-31.5-30.7c-3.9-4.1-7.6-9.2-12.1-12.6c-4.4-3.3-10.2-3.9-15.1-6.4c-4.1-2.1-8-6.4-12.6-7.2
		c-2.9-0.4-5.9,0.9-8.7,1.5c-5.1,1-9.7,1.2-14.8,0.6c-3-0.3-3.8,5-0.7,5.5c3.4,0.5,6.7,1,10.1,0.8c3.4-0.1,6.8-1.6,10.1-1.7
		c7-0.2,13.1,5.3,19.6,7.5c4,1.3,7.3,1.9,10.4,5.1c1.9,2,3.5,4.4,5.3,6.6c5.1,6,10.5,11.7,16,17.3c6.7,6.9,14,15.5,22,23.2
		c0.1,0.5,0.3,1.1,0.7,1.6c4.5,5.8,8.3,12,13.1,17.7c3.2,3.8,6.6,8.4,10.6,11.7c-0.4,2.4,1,4.9,3.3,5.6c2.2,0.7,4.3-0.4,5.2-2.3
		c0.5-0.2,0.9-0.5,1.1-1.1c2.3-4.9,5.2-9,8.5-13.3c1.1-1.4,1.2-3,0.6-4.3C154.9,342.7,156.6,340.3,157.6,337.1z"/>
	<path class="st5" d="M213.4,337.1c-2.1-2.4-4-5-5.6-7.6c0-0.6-0.2-1.3-0.6-1.8c-0.8-1.2-1.6-2.3-2.5-3.4
		c-2.6-5.2-4.6-10.6-5.9-16.4c-0.6-2.7-3.7-2.6-5-0.8c-0.6-0.3-1.2-0.5-1.9-0.5c-3.6-0.2-7.1-0.5-10.6-1.4c-3.1-0.8-5.2,2.5-3.9,5.2
		c7.1,14.9,18.7,23.9,33.2,30.6C212.9,341.8,215.1,339.1,213.4,337.1z"/>
	<path class="st5" d="M163.7,432.2L163.7,432.2c-1.5-0.1-3,0.1-4.4,0.4c-4.2,0.4-8.4,0.4-12.6,0.4c-0.2,0-0.3,0-0.4,0.1
		c-0.4-0.7-0.8-1.3-1.3-2c-1-1.3-3.8-1.2-3.6,1c1.1,9.9-3.6,17.6-7.1,26.4c-2.9,7.4-3.8,14.8-1.9,22.6c0.9,3.7,6.4,2.4,6-1.1
		c-0.8-11.2,3.8-18.1,7.5-27.7c0.1-0.2,0.2-0.3,0.3-0.6c3.1-7.8,10.4-12.4,18.1-14.3C167.4,436.5,166.4,432.5,163.7,432.2z"/>
	<path class="st5" d="M260.7,426.5c-5.9-0.9-11.1,0.4-15.6,3c-1.4-0.2-3,0.2-4.4,0.6c-0.9-0.8-2.1-1.3-3.6-0.9
		c-5.8,1.4-11.1,2.8-17.1,2.6c-2.4-0.1-4.2,3.6-2.1,5.2c8.6,7.1,8.6,22,8.9,32.3c0.2,6.7,3.2,7.6,9.2,9.8c1.9,0.7,3.8-1.8,2.6-3.5
		c-10.9-16.3-0.3-47.4,21.5-45.1C262.4,430.8,263,426.9,260.7,426.5z"/>
	<path class="st5" d="M285.4,329.5c-2.6-3.9-9-6.2-12.8-9c-6.8-5.1-12.8-11.4-17.7-18.5c-1.5-2.3-4.8-0.3-3.6,2.2
		c3.2,6.9,7.1,13.2,12.2,18.6c-0.8,1-1.1,2.2-0.6,3.5c4.7,11.5,10.9,22.5,14.9,34.3c1,2.8,4.3,3.1,6,0.8
		C288.7,354.5,290.3,336.9,285.4,329.5z"/>
	<path class="st6" d="M285.2,368.4c-0.6,0.2-2.3,1.1-2.8,0.9c-0.1,0-0.2-0.3-0.3-0.3c0,0,0,0,0,0c1-1.4-0.3-3.3-2.1-2.5
		c-2.2,1-2.5,4.3-1.2,6c0.6,0.8,1.4,1.3,2.2,1.5c-0.2,0.4-0.4,0.8-0.6,1.2c-0.9,2.3,2.4,3.9,3.9,2.3c1.5-1.6,2.3-3.7,3.6-5.4
		C289.1,370.3,287,367.6,285.2,368.4z"/>
	<path class="st6" d="M202.1,177.3c0-1.7-1.5-3.5-3.3-3.4c-0.1,0-0.2,0-0.4,0c0,0-0.1,0-0.1-0.1c-0.8-0.3-1.7-0.5-2.5-0.2
		c-0.9,0.3-1.9,0.9-2.3,1.8c-0.2,0.4-0.3,0.8-0.5,1.1c-0.3,1-0.1,2.1,0.4,3c0.3,0.6,0.7,0.9,1.2,1.3c0.9,0.7,1.8,1,2.9,1
		c0.9,0,1.8-0.3,2.6-0.7c1.1-0.7,1.7-1.8,1.8-3.1C202.1,177.9,202.1,177.6,202.1,177.3z"/>
	<path class="st7" d="M215.5,191.3c-1.1-1.4-2.4-2.3-3.7-2.9c-8.7,1.4-17.3,2.9-26.1,3.6c-0.3,0.2-0.7,0.4-1,0.6
		c-0.3-0.2-0.5-0.4-0.8-0.5c-1.1,0.1-2.3,0.1-3.4,0.1c-0.5,0.3-0.9,0.8-1.2,1.6c-2.5,5.7-2,11-1.3,17.2c0.9,7.5,1.7,15.1,3.1,22.5
		c2.1,10.9,10.2,26.2,23.3,24.3c11.8-1.6,15.2-19,16.4-28.8C222.3,217.7,223.3,200.8,215.5,191.3z"/>
	<path class="st8" d="M217.3,194.9c-3.1-6.5-10.5-6.3-16.8-5.9c-6,0.4-17.2,1.2-21.2,6.3c-1.9,2.3-1.7,5.6-1.9,8.5
		c-0.3,5.9-0.5,11.9-0.2,17.9c0.1,1.1,0.5,2,1.2,2.5c-0.5,1.3-0.9,2.6-1.2,3.9c-0.7,2.8,3.4,4.9,4.8,2.1c3.1-6.3,6.7-13.5,14-15.2
		c7.9-1.9,15.3,4.1,20.8,9c1.7,1.5,5.2,0.7,5-2.1C221.3,213.4,221,202.6,217.3,194.9z"/>
	<path class="st9" d="M147.9,57.5c-25.1,22-44.2,51.9-61.8,80.3c-4.2,6.7-8.3,13.5-13.3,19.6c-4.3,5.4-10.4,9.6-14.1,15.4
		c-7.5,11.9,2.2,29.1,7,40.5c1.5,3.6,7.5,1.8,7.2-2c-0.5-7.4-1.3-14.8-2.6-22.1c-0.8-4.8-0.7-6.4,2.5-10c2.4-2.7,5.4-5,7.8-7.7
		c8.7-9.7,15.3-21,22.2-32c16.3-26.2,35.7-50.3,51.8-76.6C157.4,58.4,151.5,54.4,147.9,57.5z"/>
	<path class="st9" d="M330.1,141.1c-26.2-10.2-51.3-24.6-67.1-49.2c-1.1-1.7-2.9-1.9-4.2-1.2c-10.2-15.6-23.3-29.2-38-39.5
		c-4-2.8-7.2,3-4.7,6.2c10.1,13.3,20.1,26.9,27.3,42c2.9,6,8.4,16.6,7.6,23.6c-0.7,6.1-5.8,2.5-9.2,0.2c-4.3-2.9-7.9-6.1-11.4-9.9
		c-2.4-2.6-6.3-0.4-6.5,2.8c-0.2,2.2,0.1,7.1-0.7,9.2c-2,4.9-4.1,2.6-6.6-0.2c-3.7-4.1-7.3-8.5-10.9-12.7c-7.6-9-15.2-18.3-22-28
		c-0.4-0.5-0.8-0.9-1.3-1.2c-3.7-7.2-8.1-14-11.7-21.2c-2.1-4.2-8.5-1.3-7.3,3.1c2.4,8.8,3.9,17.3,7.4,25.7
		c3.6,8.7,7.5,17.3,11.9,25.6c4.2,7.9,8.5,15.6,13.2,23.1c4.1,6.8,9.4,16.4,16.8,19.7c1.7,0.8,3.8,0.5,5.1-0.6c1,0.9,2,1.7,3.2,2.5
		c2.9,1.9,6.9-0.6,6.8-4c0,3.4,4.3,5.3,7,5.3c2.1,0,3-0.8,4-1.8c4,1.8,7.2,5,11.8,0.9c0.8-0.7,1.2-1.8,1.9-2.5
		c0.7-0.8,0.6-1.2,0.4-1.3c0.2,0,0.5,0,0.9,0c3,0,5.3,2.3,8.7,2c2.1-0.2,2.2-0.3,3.5-0.3c2.3-0.1,4.2,0.3,6.2-1.1
		c0.8-0.6,1.4-1.2,1.9-2c2.6,0.8,6.1-0.8,5.9-4.2c-0.6-9.3-2.4-18.6-5.2-27.6c6.8,5.4,13.7,10.8,20.8,15.8c4,2.8,8.4,6.4,13,8.9
		c-0.1,0.2-0.3,0.3-0.4,0.5c-1,1.7-0.3,3.7,1.2,4.8c0.5,0.3,1.1,0.8,1.7,1.2c0.3,2.1,0.3,4.2,0.1,6.5c-0.3,3.6,4.3,5,6.6,2.8
		c4.9-4.6,9.8-9.3,14.6-14C336.2,147.8,334,142.6,330.1,141.1z"/>
	<path class="st3" d="M294.7,402c-2.9-7.7-5.8-15.3-8.7-23c-0.1,0-0.1,0.1-0.2,0.1c-0.1,0-0.2,0.1-0.3,0.1c-0.1,0-0.3,0-0.4,0
		c-0.1,0.1-0.2,0.2-0.3,0.2c-0.3,0.2-0.9,0.3-1.3,0.2c-1.1-0.4-2.3-1-2.6-2.3c-0.2-0.6-0.1-1.2,0.2-1.7c0.2-0.4,0.6-0.7,0.9-1
		c0.3-0.2,0.6-0.3,0.9-0.4c0,0,0,0,0,0c0,0,0.1-0.1,0.1-0.1c0.2-0.2,0.5-0.4,0.7-0.5c0,0,0.1,0,0.1,0c-0.1-0.3-0.2-0.6-0.3-0.9
		c-0.8,0.2-1.7,0.2-2.5,0.1c-1.1-0.2-2.2-0.8-2.7-1.9c-0.3-0.6-0.4-1.1-0.4-1.8c0-0.5,0.1-1,0.2-1.4c0.2-0.8,0.7-1.7,1.3-2.3
		c0.3-0.3,0.6-0.5,1-0.6c-3.6-9.1-7.5-18-11.8-26.8c0.2-1.1,0.1-2.3-0.5-3.6c-5-10.3-9.5-21.1-15.2-31c-3.1-5.2-7.6-8.7-13.6-6.2
		c-2.9,1.2-3.7,4.2-1.7,6.7c6.2,7.8,5.9,24.4-2.7,29.6c-8.8,5.3-20.5,6.8-30.4,4.1c-10.3-2.9-15.5-10.1-20.5-19.1
		c-3.7-6.6-5-12.9-12.3-12.8c-1.1-0.9-3-0.5-3.4,1c0,0.2-0.1,0.4-0.1,0.5c-0.2,0.4-0.3,0.7-0.3,1.1c-0.7,3.3-1.5,6.5-2.2,9.8
		c-1.1,2.9-2,5.9-2.4,9c-0.9,2.9-1.8,5.8-2.9,8.6c-1.7,4.4-4.4,8.3-7,12.2c-4.7,5.7-10.4,11.4-16.2,14.8c-2.1-0.4-4.1,1.7-3.6,4
		c2.4,9.8,2.3,19.7,2.1,29.7c-0.2,9.3-0.1,21-6.7,28c-1.7,1.9-0.5,5,2,5c4.5,0.1,9,0.3,13.5,0.2c13.7,4.7,29,3.2,43.2,3.2
		c13.2,0,26.1,0.6,39.3-1.1c13-1.7,25.9-4.6,38.3-8.9c8.2-2.8,22.1-5.7,25.4-15C293.6,407.8,296,405.4,294.7,402z"/>
	<path class="st3" d="M175.7,487.3c-6.6-3.2-12.9-4.4-20.1-3c-4.2,0.8-8.3,2.9-12.6,1.9c-2.1-1-4.3-2.2-6.8-3.3
		c-0.4-0.2-0.8-0.3-1.3-0.3c-0.8-0.4-1.7-0.9-2.5-1.2c-1.2-0.5-2.3,0.7-2.3,1.8c-0.1,5.2,2.9,8.8,7.1,10.8c4.1,2.8,9,3.9,14.5,3.7
		c8.6-0.3,17.8-0.1,24.7-5.8C177.7,490.8,177.3,488.1,175.7,487.3z"/>
	<path class="st3" d="M275.6,481.6c-5.4-5.4-11.8-8.7-19.5-8.5c-3.3,0.1-6.6,0.9-9.5,2.5c-1.9,1-3.8,3.2-5.7,3.9
		c-0.2,0.1-0.3,0.1-0.5,0.1c-0.7,0.1-1.4,0.2-2.1,0.3c-3.6-0.1-6.8-2.7-9.5-4.8c-1.5-1.2-3.1-1.2-4.4-0.5c0.2,2.7,0.4,5.3,0.6,8
		c0.3,0.3,0.6,0.5,1,0.8c2,1.9,4.2,3.3,6.6,4.2c7.1,3.7,15.6,5.7,22.5,2.6c6.3-0.7,12.6-2.2,18.5-2.8
		C275.9,487,277.7,483.8,275.6,481.6z"/>
	<g>
		<path class="st2" d="M131.7,365.3c3.3,16.7,0.8,33.3,1.5,50.1c0.1,2.2,3.5,2.2,3.4,0c-0.3-8.5,0.2-16.9,0.4-25.4
			c0.2-8.6-0.3-17.2-2-25.7C134.6,362.2,131.3,363.1,131.7,365.3L131.7,365.3z"/>
		<path class="st2" d="M139.1,431.8c24,3.3,48.2,4.2,72.3,2.6c11.3-0.8,22.5-2.1,33.7-3.9c9.1-1.5,18.2-3.3,26.7-6.8
			c9.5-3.9,18-9.9,24.3-18.1c1.3-1.7-1-4.2-2.4-2.5c-11.6,15-29.1,20.6-46.9,23.6c-22.2,3.8-44.7,5.4-67.2,4.9
			c-13.3-0.3-26.5-1.4-39.7-3.2C137.9,428.2,136.9,431.6,139.1,431.8L139.1,431.8z"/>
		<g>
			<path class="st2" d="M36,249.7c-4-2-25.1-10.1-18.4-16.9c3-3,8.8-3.3,12.7-3c4.5,0.3,9,1.6,13.1,3.7c1.9,1,3.6-1.8,1.7-3
				c-1.5-0.9-2.3-3.4-2.9-4.9c-0.8-1.9-1.4-4-2-6c-1-3.5-1.7-9.3,2.7-10.7c4.7-1.5,9.4,2.5,12.3,5.8c3.2,3.5,5.8,7.9,7.2,12.4
				c0.6,2.1,3.9,1.2,3.3-0.9c-2.5-8.3-9.2-18.3-17.8-20.6c-4.2-1.1-8.8,0.1-10.8,4.3c-1.8,3.7-1,7.8,0.1,11.5
				c1.1,3.8,2.5,9.8,6.1,12.1c0.6-1,1.1-2,1.7-3c-5-2.6-10.6-4.1-16.2-4.2c-4.9-0.1-11.3,0.8-14.5,5c-7.9,10.5,13.7,18.3,19.9,21.4
				C36.2,253.7,37.9,250.7,36,249.7L36,249.7z"/>
			<path class="st2" d="M34.4,249.5c-3.2,0.6-6.3,1.7-9.2,3c-2.8,1.2-5.6,2.7-7.9,4.8c-2.5,2.3-4.3,6.4-2.2,9.6
				c1.6,2.5,4.6,3.5,7.3,4c3.4,0.6,6.8,0.7,10.2,0.4c2.9-0.2,6.1-0.4,8.8-1.5c2-0.8,1.1-4.1-0.9-3.3c-2,0.8-4.1,1-6.1,1.2
				c-3,0.3-6,0.4-9,0.1c-2.4-0.2-5-0.6-6.8-2c-0.5-0.4-0.9-0.9-1.1-1.7c0.1,0.4,0-0.3,0-0.4c0-0.4,0-0.3,0-0.5
				c0.2-0.8,0.4-1.5,0.9-2.2c1.7-2.4,4.8-3.8,7.3-5c3-1.4,6.2-2.4,9.4-3.1C37.4,252.4,36.5,249.1,34.4,249.5L34.4,249.5z"/>
			<path class="st2" d="M65.6,228.7c1.7-2.6,3.4-5.2,5.1-7.8c1.4-2.2,2.8-5.3,5.2-6.6c4.8-2.8,9.9,1.6,13.1,4.9
				c3.1,3.1,7.7,7.2,6.5,12.2c-0.5,2.4-2.3,3.6-4.7,3.6c-2.5,0.1-4.9-0.4-7.5,0c-2.1,0.4-1.2,3.7,0.9,3.3c4.5-0.8,9.6,1.6,13-2.8
				c2.7-3.5,2.1-8.3,0-11.9c-1.3-2.1-3-3.9-4.7-5.7c-1.8-1.9-3.7-3.7-5.8-5.2c-3.7-2.6-9-3.8-13-1.1c-2.3,1.6-3.8,4.2-5.3,6.5
				c-1.9,3-3.9,6-5.8,8.9C61.4,228.8,64.4,230.5,65.6,228.7L65.6,228.7z"/>
			<path class="st2" d="M95.7,238.6c3.4-0.2,5.8,3.3,6.1,6.5c0.4,4.6-2.6,8.8-5,12.3c-1.3,1.8,1.7,3.6,2.9,1.7
				c3.1-4.5,6.3-9.7,5.3-15.4c-0.8-4.5-4.5-8.9-9.3-8.6C93.5,235.3,93.5,238.8,95.7,238.6L95.7,238.6z"/>
			<path class="st2" d="M83.8,239c-0.1,1.4-0.2,2.7-0.2,4.1c0,0.4,0.2,0.9,0.5,1.2c0.3,0.3,0.8,0.5,1.2,0.5c0.4,0,0.9-0.2,1.2-0.5
				c0.1-0.1,0.2-0.2,0.3-0.4c0.2-0.3,0.2-0.6,0.2-0.9c0.1-0.5,0.1-1,0.2-1.5c0.1-0.4-0.2-0.9-0.5-1.2c-0.3-0.3-0.8-0.5-1.2-0.5
				c-0.4,0-0.9,0.2-1.2,0.5c-0.1,0.1-0.2,0.2-0.3,0.4c-0.2,0.3-0.2,0.6-0.2,0.9c-0.1,0.5-0.1,1-0.2,1.5c1.1,0,2.3,0,3.4,0
				c0.1-1.4,0.2-2.7,0.2-4.1c0-0.4-0.2-0.9-0.5-1.2c-0.3-0.3-0.8-0.5-1.2-0.5C84.6,237.3,83.9,238,83.8,239L83.8,239z"/>
			<path class="st2" d="M39,270.3c8.4,3.1,16.3,7.2,23.1,13.2c1.6,1.5,4.1-1,2.4-2.5c-7.3-6.5-15.6-10.8-24.6-14.1
				C37.8,266.2,37,269.5,39,270.3L39,270.3z"/>
			<path class="st2" d="M62,282.3c17.9,21.4,38.1,40.6,56.8,61.3c1.5,1.6,3.9-0.8,2.4-2.5c-18.7-20.6-38.9-39.9-56.8-61.3
				C63,278.1,60.6,280.6,62,282.3L62,282.3z"/>
		</g>
		<path class="st2" d="M41.1,254.9c1.5-4.3,4.1-8.3,6.5-12.1c2.7-4.2,5.6-8.2,8.8-12c1.4-1.7-1-4.1-2.4-2.5c-3.4,4-6.5,8.3-9.3,12.7
			c-2.6,4.1-5.2,8.3-6.9,12.9C37.1,256.1,40.3,257,41.1,254.9L41.1,254.9z"/>
		<path class="st2" d="M179.6,195.1c6.2-1.2,12.6-1.6,18.9-2.2c3.1-0.3,6.2-0.6,9.3-1.1c1.3-0.2,2.5-0.4,3.7-0.6
			c2.8-0.5,3.1,2.9,3.7,5c2.4,8.1,3.9,16.4,4.5,24.7c0.4,5.4,0.4,10.6-0.8,15.9c-1.8,7.6-6,19.1-14.8,20.5
			c-5.1,0.8-9.9-2.6-13.3-6.1c-4.1-4.1-6.7-9.5-8.3-15c-3.8-13.1-3.1-27.1-2.6-40.6c0.1-2.2-3.3-2.2-3.4,0
			c-0.5,13.3-1.1,27.1,2.3,40.1c1.7,6.3,4.4,12.4,8.8,17.2c3.7,4.1,8.9,7.8,14.6,8c10.4,0.4,16.4-11.2,19.1-19.8
			c1.5-5,2.3-10.2,2.1-15.5c-0.4-9.3-1.8-18.5-4.1-27.4c-0.9-3.3-1.6-9.5-5.6-10.4c-1.7-0.4-3.7,0.3-5.4,0.6
			c-1.9,0.3-3.9,0.5-5.9,0.8c-7.9,0.9-16,1.2-23.8,2.7C176.6,192.2,177.5,195.5,179.6,195.1L179.6,195.1z"/>
		<path class="st2" d="M97.1,262.7c22,14.8,43.6,30.1,66,44.2c1.9,1.2,3.6-1.8,1.7-3c-22.4-14.1-44.1-29.4-66-44.2
			C97,258.5,95.3,261.5,97.1,262.7L97.1,262.7z"/>
		<path class="st2" d="M112.8,201.2c14-3.4,28.2-5,42.6-5.4c-1-3.8-2-7.6-3-11.4c-7,3.5-13.8,7.1-20.5,11.2
			c-5.6,3.4-12,6.4-15.1,12.5c-1.4,2.7,0.2,7.1,3.8,6.7c6.8-0.8,11.6-5.1,17.4-8.6c6.7-4.1,13.5-7.8,20.5-11.2
			c5.4-2.7,2.7-11.5-3-11.4c-15.5,0.4-30.5,3.1-45.3,7.6C103.8,193.1,106.4,202.8,112.8,201.2L112.8,201.2z"/>
		<path class="st2" d="M276.6,166.8c-16-0.4-31,3.1-45.4,10.2c-3.5,1.7-3,6.9,0,8.8c6.4,4,16,3.3,23.4,4.1c8,0.9,17.4,3.7,24.8-0.1
			c2.4-1.2,1.7-4.2,0-5.6c-5.1-4-12-3.5-18.2-4.1c-7.1-0.7-18.9,0.6-25-3.1c0,2.9,0,5.9,0,8.8c12.7-6.5,26.2-9.8,40.4-9.9
			C282.3,175.7,282.3,166.9,276.6,166.8L276.6,166.8z"/>
		<path class="st2" d="M234.3,158.8c10.2-6.7,21.4-9.8,32.2-15.1c3.5-1.7,1.8-7.8-2-7.5c-12.4,0.9-24.3,8.3-34.2,15.6
			C226.3,154.8,230,161.6,234.3,158.8L234.3,158.8z"/>
		<path class="st2" d="M127.2,149.8c8.7,2.3,16.9,5.9,24.8,10.3c4.9,2.7,9-4.5,4.3-7.6c-8.2-5.5-17.3-9-26.9-11.3
			C124,140,121.7,148.4,127.2,149.8L127.2,149.8z"/>
		<path class="st2" d="M306.1,157.1c0,8.1,0,16.1,0.1,24.2c0,2.2,3.4,2.2,3.4,0c-0.1-8.1-0.1-16.1-0.1-24.2
			C309.5,154.9,306.1,154.9,306.1,157.1L306.1,157.1z"/>
		<path class="st2" d="M306.2,200.2c1.8,16.7,4,34.6-2.1,50.7c-6,16-20,27-34.6,34.2c-8.3,4.1-17,7.2-25.8,10
			c-2.1,0.7-1.2,4,0.9,3.3c15.9-5,31.8-11.2,44.8-22.1c6.6-5.5,12.4-12.3,16.1-20.2c3.8-7.9,5.4-16.6,5.9-25.3
			c0.5-10.3-0.6-20.5-1.8-30.7C309.4,198,306,198,306.2,200.2L306.2,200.2z"/>
		<path class="st10" d="M125.6,230.6c-2.8,6.1-5,12.4-6.5,18.9c-0.5,2.2,2.8,3.1,3.3,0.9c1.5-6.2,3.5-12.3,6.2-18
			c0.4-0.8,0.2-1.9-0.6-2.4C127.2,229.6,126,229.8,125.6,230.6L125.6,230.6z"/>
		<path class="st10" d="M130.2,232.6c-1.2,3.1-2.4,6.1-3.6,9.2c-0.4,1.1,0.6,2.2,1.6,2.2c2.4,0.1,4.6-0.9,6.3-2.5
			c0.6-0.6,0.7-1.8,0-2.5c-0.7-0.7-1.7-0.7-2.4,0c-0.1,0.1-0.1,0.1-0.2,0.2c0,0-0.3,0.3-0.2,0.1c0.2-0.1-0.1,0.1-0.1,0.1
			c-0.1,0.1-0.2,0.1-0.3,0.2c-0.2,0.1-0.4,0.2-0.6,0.3c-0.1,0-0.2,0.1-0.3,0.1c-0.2,0.1,0.4-0.1-0.1,0c-0.4,0.1-0.8,0.3-1.2,0.3
			c-0.2,0-0.3,0-0.1,0c-0.1,0-0.2,0-0.3,0c-0.2,0-0.5,0-0.7,0c0.5,0.7,1.1,1.5,1.6,2.2c1.2-3.1,2.4-6.1,3.6-9.2
			c0.3-0.8-0.4-1.9-1.2-2.1C131.3,231.2,130.5,231.7,130.2,232.6L130.2,232.6z"/>
		<path class="st10" d="M280.5,204.6c-1.4,5.1-2.7,10.1-4.1,15.2c-0.6,2.2,2.7,3.1,3.3,0.9c1.4-5.1,2.7-10.1,4.1-15.2
			C284.3,203.3,281,202.4,280.5,204.6L280.5,204.6z"/>
		<path class="st10" d="M287.4,208.5c-1,2.7-2.1,5.4-3.1,8c-0.3,0.8,0.4,1.9,1.2,2.1c1,0.2,1.7-0.3,2.1-1.2c1-2.7,2.1-5.4,3.1-8
			c0.3-0.8-0.4-1.9-1.2-2.1C288.5,207.1,287.8,207.6,287.4,208.5L287.4,208.5z"/>
		<path class="st2" d="M222.8,306c7.2-1.6,14.3-3.9,21.2-6.7c0.8-0.4,1.4-1.2,1.2-2.1c-0.2-0.8-1.2-1.6-2.1-1.2
			c-6.9,2.8-14,5.1-21.2,6.7C219.7,303.2,220.6,306.5,222.8,306L222.8,306z"/>
		<path class="st2" d="M169.9,307c8.7,1.6,17.6,2.3,26.5,2.2c2.2,0,2.2-3.5,0-3.5c-8.6,0.2-17.1-0.5-25.6-2.1
			C168.6,303.3,167.7,306.6,169.9,307L169.9,307z"/>
		<path class="st2" d="M167,308.6c-0.7,12.5-6.2,23.9-12.8,34.2c-5.4,8.5-10.8,18-21.3,20.3c-2.1,0.5-1.2,3.8,0.9,3.3
			c11.2-2.4,17.1-12.2,22.9-21.2c7.1-11,12.9-23.3,13.7-36.7C170.5,306.4,167.2,306.4,167,308.6L167,308.6z"/>
		<path class="st2" d="M176.8,310.3c4,9.6,9,18.9,17.6,25c5.4,3.8,11.9,6.1,18.4,6.8c11.7,1.2,25.1-3.5,29.4-15.6
			c2.9-8.3,0.5-17.5-3-25.2c-0.9-2-3.8-0.3-2.9,1.7c2.8,6.3,4.9,13.7,3.2,20.6c-1.3,5.2-4.7,9.3-9.2,11.8c-10,5.7-23.3,3.8-32.7-2.2
			c-8.8-5.6-13.9-15.2-17.8-24.7C178.8,306.5,175.9,308.2,176.8,310.3L176.8,310.3z"/>
		<path class="st2" d="M134.2,415.3c-2.3,4.3-4.7,8.5-7,12.8c-0.6,1.2,0.2,2.6,1.5,2.6c2.8,0.1,5.6,0.7,8.2,1.7
			c0.9,0.3,1.9-0.4,2.1-1.2c0.3-1-0.3-1.8-1.2-2.1c-2.9-1.2-6-1.8-9.1-1.8c0.5,0.9,1,1.7,1.5,2.6c2.3-4.3,4.7-8.5,7-12.8
			C138.2,415.1,135.2,413.3,134.2,415.3L134.2,415.3z"/>
		<path class="st2" d="M68.1,177.3c2.3,9.3,4.2,18.6,5.5,28.1c0.1,0.9,1.3,1.4,2.1,1.2c1-0.3,1.3-1.2,1.2-2.1
			c-1.3-9.5-3.2-18.9-5.5-28.1C70.8,174.3,67.5,175.2,68.1,177.3L68.1,177.3z"/>
		<path class="st2" d="M119.2,344.4c4.5,6.3,9.8,12.5,12.7,19.8c0.4,0.9,1.1,1.5,2.1,1.2c0.8-0.2,1.5-1.3,1.2-2.1
			c-3.1-7.6-8.3-14-13.1-20.6c-0.5-0.8-1.5-1.1-2.3-0.6C119.1,342.5,118.7,343.7,119.2,344.4L119.2,344.4z"/>
		<path class="st2" d="M286.1,382.6c2.2,7.3,5,14.3,6.9,21.7c0.6,2.2,3.8,1.2,3.3-0.9c-1.9-7.4-4.7-14.4-6.9-21.7
			C288.7,379.6,285.4,380.5,286.1,382.6L286.1,382.6z"/>
		<path class="st2" d="M257.2,317.4c8.4,14.8,14.7,30.7,21.1,46.4c0.8,2,4.1,1.1,3.3-0.9c-6.5-16-12.9-32.2-21.4-47.3
			C259,313.7,256.1,315.5,257.2,317.4L257.2,317.4z"/>
		<path class="st2" d="M201.5,434.6c-4.3,9.8-10.3,18.6-15.5,27.8c-4.9,8.6-10.2,18.5-10.6,28.6c-0.1,2.2,3.3,2.2,3.4,0
			c0.2-5.2,2.1-10.1,4.1-14.8c2-4.6,4.3-9.1,6.8-13.5c5-8.7,10.6-17.1,14.7-26.4C205.3,434.3,202.4,432.5,201.5,434.6L201.5,434.6z"
			/>
		<path class="st2" d="M138.9,431.7c0.5,4.7,0,9.5-1.2,14.1c-1.2,4.3-3.8,7.6-5.6,11.6c-3.9,8.7-4.1,18.2-2.9,27.6
			c0.3,2.2,3.7,2.2,3.4,0c-1.3-9.7-1.1-19.7,3.7-28.5c2-3.7,4-6.9,4.9-11.1c1-4.4,1.4-9.1,1-13.7C142,429.5,138.6,429.5,138.9,431.7
			L138.9,431.7z"/>
		<path class="st2" d="M129.1,487.3c3.6,11.2,17.4,13.2,27.4,12.6c4.8-0.3,9.6-1,14.2-2.3c2.6-0.8,6.8-1.9,7.7-4.9
			c0.6-2.1-2.6-3.1-3.3-0.9c-0.4,1.5-5.2,2.5-6.6,2.8c-3.9,1-8,1.6-12,1.9c-8.2,0.5-21.1-0.6-24.1-10.1
			C131.7,484.2,128.4,485.1,129.1,487.3L129.1,487.3z"/>
		<path class="st2" d="M146.9,488.2c2.8-1,5.7-1.9,8.7-2.5c2.6-0.5,5.2-0.5,7.9-0.5c3.7,0.1,8.8,0.1,11.4,3.3
			c1.4,1.7,3.8-0.7,2.4-2.5c-3-3.8-8.6-4.2-13-4.3c-2.7-0.1-5.5-0.1-8.2,0.4c-3.4,0.5-6.8,1.6-10,2.7
			C144,485.5,144.9,488.9,146.9,488.2L146.9,488.2z"/>
		<path class="st2" d="M270,423.9c2.7,18.8,3.9,38.1,2.8,57.1c-0.1,2.2,3.3,2.2,3.4,0c1.1-19.3-0.2-38.9-2.9-58
			C273,420.8,269.7,421.8,270,423.9L270,423.9z"/>
		<path class="st2" d="M213.5,433.9c4.5,5.8,7.1,13.2,8.5,20.5c1.6,8.2,0.8,16.7,0.5,25c-0.1,2.2,3.3,2.2,3.4,0
			c0.3-8.9,1.1-17.8-0.7-26.6c-1.6-7.6-4.5-15.2-9.2-21.3C214.6,429.7,212.2,432.2,213.5,433.9L213.5,433.9z"/>
		<path class="st2" d="M222.5,477.6c-0.7,7.8,7.6,11.7,13.8,13.3c9.1,2.4,19,2.4,28.2,0.8c4.4-0.8,8.9-2,12.7-4.5
			c1.8-1.2,0.1-4.2-1.7-3c-6.3,4.2-14.9,5-22.2,5.1c-7.6,0.1-16.4-0.5-23.1-4.6c-2.6-1.6-4.5-3.9-4.2-7.1
			C226.1,475.4,222.7,475.4,222.5,477.6L222.5,477.6z"/>
		<path class="st2" d="M239.5,482.3c4.2-5.4,12.4-6.6,18.6-7.7c7.2-1.2,13.7,4.9,16.7,11.1c1,2,3.9,0.2,2.9-1.7
			c-3.3-6.9-11.2-14.2-19.2-13c-7.2,1.1-16.6,2.6-21.5,8.8C235.7,481.5,238.1,484,239.5,482.3L239.5,482.3z"/>
		<path class="st2" d="M248,298c2-0.5,4.4,0.1,6.4,0.7c3.3,0.9,6.6,2.1,9.8,3.4c7.3,3,14.5,6.6,21.3,10.7c5.6,3.4,11,6.8,14.2,12.8
			c4.3,8,4.1,17.7,2,26.3c-2,8.3-5.7,16.9-11.2,23.5c-1.4,1.7,1,4.1,2.4,2.5c5.2-6.2,8.9-13.9,11.2-21.7c2.7-9,3.7-19.2,0.4-28.2
			c-2.7-7.4-7.8-12.2-14.2-16.3c-7.1-4.6-14.7-8.5-22.4-11.8c-4-1.7-8-3.3-12.1-4.4c-2.7-0.7-5.8-1.4-8.6-0.8
			C245,295.2,245.9,298.5,248,298L248,298z"/>
		<path class="st2" d="M160.8,66.2c7.9,28,19.9,54.7,35.8,78.9c4.5,6.8,9.3,13.5,14.3,19.9c1.4,1.7,3.8-0.7,2.4-2.5
			c-17.5-22.4-31.6-47.5-41.7-74.2c-2.8-7.5-5.3-15.2-7.5-23C163.5,63.1,160.2,64,160.8,66.2L160.8,66.2z"/>
		<path class="st2" d="M180.7,85.3c11.5,24.9,24.4,49,38.7,72.4c1.2,1.9,4.1,0.1,2.9-1.7c-14.3-23.3-27.2-47.5-38.7-72.4
			C182.7,81.5,179.8,83.2,180.7,85.3L180.7,85.3z"/>
		<path class="st2" d="M150.1,62.2c-18.7,35.4-40.6,69-65.5,100.1c-6.3,7.8-12.8,17.3-22.4,20.9c-2,0.8-1.1,4.1,0.9,3.3
			c8.5-3.2,14.4-10.2,20-17.1c6.4-7.9,12.7-15.9,18.8-24.1c12.1-16.4,23.5-33.3,33.9-50.8c6-10,11.7-20.2,17.2-30.6
			C154.1,62,151.2,60.3,150.1,62.2L150.1,62.2z"/>
		<path class="st2" d="M108.1,143.5c-11.5,17.7-25.2,33.8-40.6,48c-1.6,1.5,0.8,3.9,2.4,2.5c15.6-14.4,29.5-30.8,41.1-48.7
			C112.2,143.4,109.3,141.7,108.1,143.5L108.1,143.5z"/>
		<path class="st2" d="M311.9,170.9c3.4-2.3,7.3-4,11.5-2.9c3.6,0.9,6.6,3.6,8.9,6.5c3.5,4.5,5.5,10,6.1,15.6
			c1.3,11.6-2.4,24.1-10,32.8c-4.3,4.9-9.8,8.4-16.1,9.8c-2.1,0.5-1.2,3.8,0.9,3.3c25.7-5.8,37.8-43.3,21.5-64.1
			c-2.7-3.4-6.3-6.5-10.6-7.4c-4.9-1.1-9.7,0.6-13.8,3.4C308.3,169.1,310,172.1,311.9,170.9L311.9,170.9z"/>
		<path class="st2" d="M329,194.4c-5.2,3.3-9.5,8-12.3,13.5c-0.4,0.8-0.2,1.9,0.6,2.4c0.8,0.5,1.9,0.2,2.3-0.6
			c2.6-5,6.4-9.3,11.1-12.3c0.8-0.5,1.1-1.5,0.6-2.4C330.8,194.2,329.7,193.9,329,194.4L329,194.4z"/>
		<path class="st2" d="M322.4,202.9c1.1,0.9,2.1,1.9,3,2.9c0.5,0.5,0.9,1,1.3,1.6c0.2,0.3,0,0,0,0c0,0,0.1,0.2,0.2,0.2
			c0.1,0.1,0.2,0.3,0.3,0.4c0.2,0.3,0.4,0.6,0.6,0.9c0.5,0.8,1.5,1.2,2.3,0.6c0.7-0.5,1.1-1.6,0.6-2.4c-1.6-2.5-3.6-4.8-5.9-6.7
			c-0.4-0.3-0.7-0.5-1.2-0.5c-0.4,0-0.9,0.2-1.2,0.5C321.9,201.1,321.7,202.3,322.4,202.9L322.4,202.9z"/>
		<path class="st2" d="M224,475.1c3.2,4,7.9,6.7,12.8,7.4c0.9,0.1,1.8-0.2,2.1-1.2c0.2-0.8-0.3-2-1.2-2.1c-4.5-0.6-8.4-2.9-11.3-6.5
			c-0.6-0.7-1.8-0.6-2.4,0C223.3,473.3,223.4,474.3,224,475.1L224,475.1z"/>
		<path class="st2" d="M132.3,482.7c2.9,2.8,6.6,4.9,10.6,5.7c0.9,0.2,1.9-0.3,2.1-1.2c0.2-0.9-0.3-1.9-1.2-2.1
			c-0.9-0.2-1.7-0.4-2.6-0.7c-0.2-0.1-0.5-0.2-0.7-0.3c-0.1,0-0.2-0.1-0.3-0.1c0.2,0.1,0.1,0,0,0c-0.4-0.2-0.8-0.4-1.2-0.6
			c-0.8-0.4-1.6-0.9-2.3-1.4c-0.2-0.1-0.4-0.3-0.5-0.4c0.1,0.1,0,0,0,0c-0.1-0.1-0.2-0.1-0.3-0.2c-0.4-0.3-0.7-0.6-1.1-1
			c-0.6-0.6-1.8-0.7-2.4,0C131.7,480.9,131.6,482,132.3,482.7L132.3,482.7z"/>
		<path class="st2" d="M281.2,360.2c-1.5,1.2-2.5,2.8-3.3,4.5c-1,1.8-2.2,3.7-1.9,5.8c0.7,4.6,6.1,4.9,9.6,4.3
			c-0.3-1.1-0.6-2.2-0.9-3.3c-2.1,0.4-4,1.7-4.9,3.7c-0.9,2.1-0.5,4.7,1.2,6.3c3.7,3.6,9.8-0.3,12.3-3.5c0.6-0.7,0.7-1.7,0-2.5
			c-0.6-0.6-1.8-0.7-2.4,0c-0.9,1.2-2,2.2-3.3,2.9c-1,0.6-2.8,1.5-3.9,0.8c-0.8-0.5-1.1-1.6-0.8-2.5c0.4-1.2,1.6-1.7,2.7-1.9
			c0.9-0.2,1.4-1.3,1.2-2.1c-0.3-1-1.2-1.4-2.1-1.2c-1.5,0.3-6,0.6-5.2-2.2c0.3-1.3,1.2-2.5,1.8-3.6c0.6-1.2,1.3-2.1,2.4-3
			c0.7-0.6,0.6-1.8,0-2.5C282.9,359.4,281.9,359.6,281.2,360.2L281.2,360.2z"/>
		<path class="st2" d="M263.5,372c4,0.2,7.9,1,11.6,2.4c0.9,0.3,1.9-0.4,2.1-1.2c0.3-1-0.3-1.8-1.2-2.1c-4-1.5-8.3-2.4-12.5-2.6
			c-0.9,0-1.7,0.8-1.7,1.7C261.8,371.3,262.6,372,263.5,372L263.5,372z"/>
		<path class="st2" d="M267.6,365.1c2.1,1.7,4.1,3.4,6.2,5c0.4,0.3,0.7,0.5,1.2,0.5c0.4,0,0.9-0.2,1.2-0.5c0.6-0.6,0.7-1.9,0-2.5
			c-2.1-1.7-4.1-3.4-6.2-5c-0.4-0.3-0.7-0.5-1.2-0.5c-0.4,0-0.9,0.2-1.2,0.5C267,363.3,266.9,364.5,267.6,365.1L267.6,365.1z"/>
		<path class="st2" d="M246.3,299.9c4,4.6,7,10.1,9.8,15.6c1,2,3.9,0.2,2.9-1.7c-2.9-5.7-6.1-11.4-10.3-16.3
			C247.2,295.7,244.8,298.2,246.3,299.9L246.3,299.9z"/>
		<path class="st2" d="M218.2,48.7c12.9,11.2,24.7,23.9,34.1,38.4c8.8,13.6,15.4,28.7,19.8,44.4c2.7,9.6,4.7,19.5,6.1,29.4
			c0.3,2.2,3.6,1.3,3.3-0.9c-2.5-17.3-6.6-34.3-13.4-50.4c-6.4-15.3-15.3-29.3-26-41.9c-6.6-7.7-13.8-14.8-21.4-21.5
			C219,44.9,216.6,47.3,218.2,48.7L218.2,48.7z"/>
		<path class="st2" d="M233.6,153.3c-0.5-2.7-1-5.5-1.6-8.2c-1,0.4-2.1,0.9-3.1,1.3c3.2,5,6.3,9.9,9.5,14.9c0.9,1.4,3.2,0.9,3.2-0.9
			c-0.1-3.4,0.2-6.9,0.7-10.2c-1,0.1-2.1,0.3-3.1,0.4c1.2,2.7,2.5,5.5,3.7,8.2c0.4,0.9,1.6,1.1,2.3,0.6c0.9-0.5,1-1.5,0.6-2.4
			c-1.2-2.7-2.5-5.5-3.7-8.2c-0.6-1.3-2.9-1-3.1,0.4c-0.6,3.7-0.9,7.4-0.8,11.2c1.1-0.3,2.1-0.6,3.2-0.9c-3.2-5-6.3-9.9-9.5-14.9
			c-1.1-1.7-3.5-0.6-3.1,1.3c0.5,2.7,1,5.5,1.6,8.2c0.2,0.9,1.3,1.4,2.1,1.2C233.3,155.1,233.7,154.2,233.6,153.3L233.6,153.3z"/>
		<path class="st2" d="M252.4,161.3c8-0.5,16-1,23.9-1.6c2.2-0.1,2.2-3.6,0-3.5c-8,0.5-16,1-23.9,1.6
			C250.3,158,250.3,161.5,252.4,161.3L252.4,161.3z"/>
		<path class="st2" d="M265,147.9c2.7,3.7,4.9,7.8,6.4,12.3c0.3,0.9,1.2,1.5,2.1,1.2c0.8-0.2,1.5-1.2,1.2-2.1
			c-1.5-4.7-3.8-9.1-6.7-13.1c-0.6-0.7-1.5-1.1-2.3-0.6C264.9,145.9,264.5,147.1,265,147.9L265,147.9z"/>
		<path class="st2" d="M275.2,127.1c4.9,6.5,11.7,11,18.8,14.7c8.4,4.5,17,8.5,25.6,12.7c2,1,3.7-2,1.7-3
			c-8.3-4.1-16.7-8.1-24.9-12.4c-7-3.7-13.8-8-18.7-14.5C276.3,122.9,273.9,125.4,275.2,127.1L275.2,127.1z"/>
		<path class="st2" d="M295.8,151.9c6.3,2.2,12.7,4.5,19,6.7c2.1,0.7,3-2.6,0.9-3.3c-6.3-2.2-12.7-4.5-19-6.7
			C294.6,147.8,293.7,151.2,295.8,151.9L295.8,151.9z"/>
		<path class="st2" d="M278.3,332.4c-0.8,4-1.5,8-1.9,12c-0.4,4-0.5,8-0.7,12c-0.1,2.2,3.3,2.2,3.4,0c0.2-3.9,0.3-7.8,0.7-11.7
			c0.4-3.8,1-7.6,1.8-11.4C282,331.2,278.7,330.2,278.3,332.4L278.3,332.4z"/>
		<path class="st2" d="M150.8,67.5c9.1,27.7,11.8,59.5,32.9,81.2c6.2,6.4,13.4,11.6,20.7,16.5c0.8,0.5,1.6-0.7,0.8-1.3
			c-12.5-8.9-24.2-18.6-31.9-32.4c-7-12.6-10.7-26.7-14.4-40.6c-2.1-8-4.2-15.9-6.8-23.7C151.9,66.3,150.5,66.6,150.8,67.5
			L150.8,67.5z"/>
		<path class="st2" d="M238,56.1c26.7,17.5,42.6,48.1,42.5,80.4c0,9.9-1.5,19.8-4.3,29.3c-0.3,0.9,1,1.3,1.3,0.4
			c11.3-32.3,3.5-69-19-94.3c-5.8-6.6-12.4-12.3-19.7-17C238,54.3,237.2,55.6,238,56.1L238,56.1z"/>
		<path class="st2" d="M125.7,77.7c-10,14.2-20.3,28.2-30.9,42c-10.6,13.7-21.6,27.1-32.4,40.7c-0.3,0.3,0.3,0.8,0.6,0.5
			c23.1-25.8,43.7-54.1,63.3-82.8C126.6,77.7,126,77.3,125.7,77.7L125.7,77.7z"/>
		<path class="st2" d="M94.5,99.8c-7.5,12.5-16.2,24.1-25.7,35.1c-0.2,0.2,0.1,0.6,0.3,0.4c10-10.5,18.6-22.5,26.1-35
			C95.4,99.8,94.7,99.4,94.5,99.8L94.5,99.8z"/>
	</g>
	<path class="st2" d="M129.5,14.8c-22.7,10.8-43,27.6-57.2,48.8C57.5,85.7,51.5,112.4,53.9,139c0.7,7.7,2.1,15.4,4.1,22.9
		c2.1,8.1,4.8,16.3,8.7,23.7c1.1,1.9,4,0.9,3.2-1.3c-2.4-6.8-5.1-13.4-7.1-20.4c-1.9-6.6-3.2-13.2-4.1-20
		c-1.7-13.1-1.4-26.5,1.3-39.5c5.1-24.9,19.4-46.2,37.5-63.3c9.9-9.4,20.9-17.6,33-23.7C132.1,16.6,131.1,14.1,129.5,14.8
		L129.5,14.8z"/>
	<path class="st2" d="M138,13.5c18.4-6.7,38.6-9.8,58.1-8.3c18.4,1.4,36.1,7,52.2,16.3c30.5,17.6,56.7,49.7,60,86.3
		c1.5,16.9,1.4,34.6-1.6,51.3c-0.4,2,2.8,3.1,3.5,1.1c2.3-7.2,3.1-15,3.7-22.5c0.6-8.5,0.8-17.1,0.3-25.6c-1.2-19.6-8-37.7-19-53.8
		c-21.1-31-54.7-51.5-91.2-56.8c-22.8-3.3-46-0.6-67.2,8.8C134.6,11.1,135.9,14.3,138,13.5L138,13.5z"/>
	<g>
		<g>
			<path class="st3" d="M107.6,92c-2.5,0.4-4.9,1.1-7.1,2c2-2,4.1-4,6.3-5.9c0.2,0,0.3,0,0.5-0.1c0,0,0,0,0,0
				c13.4-2.3,26.4-21,25.1-29.3c-0.3-1.6-1.6-5.3-7.8-4.2c-0.9,0.2-2,0.4-3.1,0.8c-16.3,5.4-18.3,23.1-18.5,29.2
				c-2.7,2.4-5.3,4.9-7.7,7.4c2.2-9.4,1-20.8-2.1-24.8c-1.3-1.6-2.6-1.8-3.4-1.6c-1.7,0.3-3.3,2-4.8,5.3c-6.6,14.3,0,25.6,3,29.6
				c-3.4,4.3-6.5,8.8-9.3,13.4c-0.9-7.9-5.3-16-9.6-19.9c-1.9-1.7-3.7-2.5-5.3-2.2c-1.5,0.3-3.5,1.6-3.9,6.7
				c-1.1,14.2,9.4,21.6,14,24.1c-2.3,4.7-4.3,9.6-5.9,14.6c-2-6.8-6.9-13.5-11.3-16.9c-1.8-1.4-4.3-3-6.6-2.6
				c-1.5,0.3-3.9,1.6-3.3,7.5c1.4,14.6,13.4,19.8,18.5,21.3c-0.1,0.5-0.2,1-0.3,1.4c-0.8,3.7-1.5,7.4-2,11.1c-1.6-3.2-4-6.1-6.6-8.6
				c0.6,10.2,5.8,19.3,11,28.4c-0.1-1.6-0.2-3.9-0.1-6.8c2,0.1,5,0.2,8.2-0.4c8-1.4,13.5-5.7,15.8-12.4c1-2.9,0.9-5.2-0.3-6.8
				c-1.3-1.6-3.7-2.2-6.9-1.6c-5.1,0.9-11.8,4.5-16,9.6c0.5-3.8,1.2-7.7,2-11.4c0.1-0.3,0.2-0.7,0.2-1c2.7,0.9,7.6,2,12.7,1.2
				c4.8-0.8,8.6-3.3,11.3-7.4c2.1-3.3,1.7-5.3,1-6.5c-1.4-2.2-5.1-3-10-2.2c-3.7,0.6-8.5,2.4-12.3,5.4c1.5-4.5,3.3-8.9,5.3-13.1
				c2.5,1,7.3,2.4,12.5,1.5c4.2-0.7,7.8-2.8,10.6-6.2c2.1-2.5,2.7-4.6,1.8-6.2c-1.2-2.2-5-3-10.1-2.2c-3.4,0.6-6.7,1.8-9.5,3.4
				c2.4-4,5.1-7.8,8-11.5c3.1,1.9,10.7,5.7,19.4,4.2c4-0.7,7.8-2.5,11.1-5.3c4-3.4,4.1-5.9,3.4-7.5C123.5,91.6,115.1,90.7,107.6,92z
				"/>
			<path class="st11" d="M125.6,97.2c0,0-12.7,12.7-32.5,7.6c4,3.5,3.7,2.3,3.7,2.3l8.1,2l5.2,0.1l7.4-2.3l4.2-2.8l3.6-3.1
				L125.6,97.2z"/>
			<path class="st11" d="M78.9,125.9c0,0,5.4-0.3,10.6-1c5.3-0.8,10.4-4.3,10.4-4.3l3.5-1.3l-2.8,2.6l-3.4,2.8l-4.2,2.4l-3.5,0.5
				l-3.9,0.2l-4.2-0.9L78.9,125.9L78.9,125.9z"/>
			<path class="st11" d="M71.2,148.5c0,0,9.7-0.9,12.9-1.9c3.2-1,8.7-4.1,8.7-4.1l2.3-1.3l-1.1,2.4l-3.3,3l-4.4,2.5l-4.5,0.8L77,150
				L71.2,148.5L71.2,148.5z"/>
			<path class="st11" d="M67.5,172.5c0.4-0.2,9.6-3.2,12.9-4.9s7.4-5.4,7.4-5.4l3.8-3.7c0,0-0.9,4.6-1.1,4.7c-0.2,0-4.9,4.9-4.9,4.9
				l-5.3,3.1l-5.7,1.4L67.5,172.5L67.5,172.5z"/>
			<path class="st11" d="M131.4,55.6c0,0-1.3,7.8-5.4,13.9c-4.7,6.9-14,12.5-19.6,17.5c-2,1.8,2,1.4,4.8,0.5
				c2.5-0.8,4.8-2.2,6.8-4.1l4.9-4.6c3-2.8,5.5-6.2,7.2-10l3.2-8.6L131.4,55.6z"/>
			<path class="st2" d="M107.5,90.9c-0.9,0.2-1.8,0.3-2.9,0.6c0.9-0.8,1.7-1.6,2.6-2.4c0.1,0,0.1,0,0.2,0
				c6.3-1.1,13.1-5.7,18.7-12.7c6.3-7.8,7.9-14.3,7.3-17.9c-0.3-2-1.4-3.6-3-4.5c-1.5-0.9-3.6-1.1-6-0.7c-1,0.2-2.1,0.5-3.3,0.8
				c-7.5,2.5-12.9,7.6-16.1,15.3c-2.3,5.5-3,11.1-3.1,14.5c-1.7,1.5-3.3,3-4.9,4.6c1.3-8.9-0.1-18.3-3-22.2
				c-1.7-2.2-3.5-2.2-4.5-2.1c-2.1,0.4-3.9,2.3-5.6,5.9c-6.5,14.1-0.7,25.4,2.6,30.1c-2.6,3.4-5.1,6.9-7.4,10.4
				c-1.6-7.2-5.6-14.2-9.5-17.7c-2.2-2-4.3-2.8-6.1-2.5c-1.9,0.3-4.3,1.9-4.8,7.7c-1.1,14,8.6,21.6,13.7,24.6
				c-1.7,3.5-3.2,7.2-4.5,10.8c-2.4-5.9-6.7-11.4-10.6-14.5c-2.8-2.2-5.3-3.2-7.4-2.8c-1.8,0.3-4.8,1.9-4.2,8.7
				c0.5,5.1,2.2,9.1,4.5,12.2c1.8,1.1,3.3,2.7,4.4,4.6c3.3,2.7,6.9,4.3,9.4,5.1c0,0.2-0.1,0.3-0.1,0.4c-0.6,2.7-1.1,5.4-1.6,8.2
				c-1.6-2.4-3.7-4.8-6-6.9c0,1.1,0.1,2.1,0.2,3.2c3.2,3.2,5.9,7.2,7,11.3c0.4-4.5,1.2-9.7,2.5-15.3c0.2-0.8,0.4-1.6,0.6-2.5
				c-3.7-1-17.3-5.6-18.7-20.7c-0.4-4.1,0.6-6,2.4-6.3c5.1-0.9,16.4,11.6,17.5,22.8c2-6.7,4.5-13.2,7.6-19.5c-4-2-15.5-9-14.4-23.5
				c0.3-3.7,1.4-5.5,3-5.7c5-0.9,14.2,13.4,13.8,24.8c0.3-0.6,0.6-1.1,1-1.7c3.1-5.4,6.7-10.6,10.7-15.5c-2.4-3-10.3-14.5-3.4-29.2
				c1.4-3.1,2.8-4.5,4-4.7c5-0.9,7.8,17.8,2.9,29.7c3.5-3.9,7.2-7.7,11.3-11.2c0.1-6.1,1.8-23.4,17.8-28.7c1.1-0.4,2.1-0.6,2.9-0.8
				C141,52.8,124.1,84,107,86.9c-0.3,0-0.5,0.1-0.8,0.1c-4,3.5-7.7,7.1-11.1,10.9c3.6-2.5,8.1-4.1,12.6-4.9
				c11.6-2,22.5,1.6,13.5,9.1c-3.5,2.9-7.1,4.4-10.6,5c-9.3,1.6-17.5-3.3-19.4-4.5c-3.8,4.7-7.1,9.6-10.1,14.7
				c-0.4,0.8-0.9,1.6-1.3,2.3c3.4-3.4,8.7-5.6,13.3-6.4c6.9-1.2,12.3,0.8,7.4,6.6c-3,3.6-6.6,5.2-10,5.8c-5.8,1-11.1-1-12.8-1.8
				c-2.9,6-5.4,12.2-7.2,18.7c3.2-4.6,9.5-7.6,14.9-8.5c6.7-1.1,11.9,0.9,7.9,7c-2.8,4.3-6.7,6.2-10.6,6.9c-5.8,1-11.4-0.8-13.3-1.5
				c-0.2,0.7-0.4,1.5-0.5,2.2c-1.4,5.9-2.1,11.3-2.5,15.9c3.4-6.6,11.7-11.7,17.7-12.7c4.8-0.8,8.1,1,6,6.9
				c-2.8,7.8-9.3,10.7-15,11.7c-3.8,0.7-7.3,0.5-9.1,0.3c-0.1,2.3,0,4.3,0,5.9c0.8,1.5,1.6,2.9,2.5,4.3c-0.1-0.8-0.4-3.6-0.4-7.9
				c2,0.1,4.6,0,7.3-0.5c8.4-1.4,14.1-6,16.7-13.1c1.2-3.3,1-6-0.5-7.8c-0.9-1.1-2.6-2.3-5.7-2.2c3.8-1.3,6.8-3.7,9.1-7.1
				c2.5-3.8,1.9-6.3,1-7.7c-1.7-2.6-5.7-3.6-11.1-2.7c-2.9,0.5-6.6,1.7-9.9,3.7c1.1-3,2.4-6,3.7-8.9c2.8,1,7.3,2,12.1,1.2
				c4.4-0.8,8.2-3,11.3-6.5c3-3.5,2.7-6,1.9-7.5c-2.1-3.8-8.6-3.2-11.3-2.7c-2.2,0.4-4.3,1-6.3,1.8c1.7-2.5,3.4-5,5.3-7.4
				c3.6,2,11,5.3,19.3,3.9c4.2-0.7,8.1-2.6,11.6-5.5c4.6-3.8,4.5-6.9,3.7-8.8C124.2,90.4,115.1,89.6,107.5,90.9z M69.4,157.2
				c0.4-2.6,0.9-5.3,1.5-7.9c2.4,0.7,6,1.4,9.8,1.1C77,151.7,72.8,154.1,69.4,157.2z"/>
		</g>
		<g>
			<path class="st3" d="M307.9,145.5c0.1,0,0.3,0,0.4-0.1c0.2-1.1,0.4-2.2,0.5-3.3c-0.2-2-0.5-5.2-1.3-9.2c0.7-0.2,1.5-0.4,2.5-0.8
				c0.1-1.5,0.2-2.9,0.2-4.4c0-4.7-0.7-9.4-1.5-14c-1.6,2.4-3,5.1-3.9,7.8c-1.1-3.6-2.3-7.2-3.7-10.6c-0.2-0.5-0.4-0.9-0.6-1.4
				c1.7-0.8,4.2-2.3,6.7-4.5c-0.2-1.5-0.5-3-0.7-4.5c-0.7-5.8-1.7-11.4-2.7-17.1c-3.4,4.3-6.6,10.9-7.4,17.3
				c-2.4-4.7-5.2-9.2-8.2-13.4c3.5-2.7,10.5-9.4,10.8-19.7c-2.6-3.9-6.1-7.3-9.2-10.7c-0.4,0.4-0.8,0.8-1.2,1.3
				c-3.6,4.5-6.7,13.3-6.4,21.2c-3.5-4.1-7.2-8.1-11.3-11.7c2.3-4.5,7.1-16.7-1.7-29.7c-2-3-3.9-4.4-5.6-4.5c-0.9,0-2.2,0.4-3.1,2.2
				c-2.5,4.5-1.9,16,1.8,24.9c-2.8-2.1-5.7-4.1-8.8-6c-1.1-6-5.9-23.1-22.9-25.8c-1.2-0.2-2.2-0.3-3.2-0.3c-6.3,0-7,3.8-7,5.5
				c0,8.3,15.8,24.7,29.3,24.8h0c0.2,0,0.3,0,0.5,0c2.4,1.5,4.8,3.1,7.1,4.8c-2.3-0.5-4.8-0.7-7.4-0.8c-7.5,0-15.8,2.2-16.9,6.5
				c-0.4,1.6,0,4.1,4.5,6.8c3.7,2.2,7.7,3.3,11.8,3.4c8.8,0,15.7-5,18.5-7.3c3.5,3.2,6.7,6.5,9.7,10c-3-1.1-6.5-1.8-9.9-1.8
				c-5.2,0-8.8,1.4-9.7,3.8c-0.6,1.8,0.3,3.8,2.7,5.9c3.4,2.9,7.2,4.3,11.5,4.3c5.3,0,9.8-2.1,12.1-3.5c2.7,3.9,5.1,7.9,7.3,12.1
				c-4.2-2.4-9.2-3.3-13-3.3c-4.9,0-8.5,1.4-9.5,3.8c-0.5,1.3-0.6,3.4,2,6.3c3.3,3.6,7.4,5.4,12.3,5.4c5.1,0,9.8-1.9,12.3-3.2
				c0.1,0.3,0.3,0.6,0.4,1c1.5,3.6,2.7,7.3,3.8,11c-5-4.3-12.1-6.8-17.3-6.9c-3.3,0-5.5,0.9-6.6,2.7c-1,1.7-0.8,4,0.7,6.7
				c3.4,6.3,9.5,9.6,17.6,9.6c3.3,0,6.3-0.5,8.2-1c1,5.8,1.1,9.4,1.1,9.4c0,0.3,0.2,0.7,0.4,0.9c0.2,0.1,0.4,0.2,0.6,0.2
				c0.1,0,0.2,0,0.3,0c0.4-0.1,0.8-0.2,1.3-0.2c0.7,0,1.2,0.1,1.2,0.1C307.7,145.5,307.8,145.5,307.9,145.5z"/>
			<path class="st11" d="M233.1,71c0,0,14.6,10.4,33.3,2.2c-3.4,4.1-3.3,2.8-3.3,2.8l-7.7,3.3l-5.1,1l-7.6-1.1l-4.6-2l-4.1-2.5
				L233.1,71z"/>
			<path class="st11" d="M283.8,91.6c0,0-5.3,0.6-10.7,0.7c-5.3,0.1-10.9-2.6-10.9-2.6l-3.7-0.7l3.1,2.1l3.8,2.2l4.5,1.7l3.6-0.1
				l3.9-0.5l4-1.6L283.8,91.6L283.8,91.6z"/>
			<path class="st11" d="M295,112.6c0,0-9.7,0.7-13,0.3c-3.3-0.4-9.3-2.6-9.3-2.6l-2.5-0.9l1.5,2.2l3.8,2.4l4.7,1.7l4.6,0l4.6-0.6
				L295,112.6L295,112.6z"/>
			<path class="st11" d="M302.4,135.8c-0.4-0.1-10-1.6-13.5-2.7c-3.5-1.1-8.1-4.1-8.1-4.1l-4.4-3.1c0,0,1.6,4.4,1.8,4.4
				c0.2,0,5.6,4,5.6,4l5.7,2.1l5.8,0.5L302.4,135.8L302.4,135.8z"/>
			<path class="st11" d="M220.9,30.9c0,0,2.5,7.5,7.5,12.8c5.8,6,15.8,10,22.1,14.1c2.3,1.5-1.7,1.7-4.7,1.2
				c-2.6-0.4-5.1-1.4-7.3-2.9l-5.6-3.7c-3.4-2.3-6.4-5.2-8.7-8.6l-4.5-7.9L220.9,30.9z"/>
			<path class="st2" d="M307.4,146.5c0.1,0,0.3,0,0.4,0c0.1,0,0.2,0,0.2,0c0.5-2.9,0.9-5.8,1.3-8.7c-0.2-1.2-0.4-2.6-0.6-4.1
				c0.3-0.1,0.7-0.2,1.1-0.4c0.1-0.8,0.1-1.6,0.2-2.4c-1.6,0.6-3,1-3.8,1.2c1.4,7.3,1.6,12.3,1.6,12.3s-0.6-0.1-1.4-0.1
				c-0.5,0-1.1,0-1.6,0.2c0-0.1-0.1-4.2-1.3-10.7c-1.7,0.5-5.1,1.3-9,1.2c-5.8,0-12.7-1.8-16.6-9.1c-3-5.5,0-7.8,4.9-7.8
				c6.1,0,15.1,3.7,19.5,9.7c-1.1-4.5-2.7-9.7-5-15.3c-0.3-0.7-0.6-1.4-0.9-2.1c-1.7,1-7,3.7-12.8,3.7c-3.9,0-8.1-1.3-11.5-5.1
				c-4.9-5.4-0.1-8.2,6.7-8.2c5.5,0,12.2,1.9,16,6c-2.8-6.1-6.2-11.8-10.1-17.2c-1.6,1-6.5,3.9-12.4,3.9c-3.5,0-7.2-1-10.8-4.1
				c-5.8-4.9-0.8-7.8,6.3-7.7c4.7,0,10.2,1.3,14.1,4.1c-0.5-0.7-1.1-1.4-1.7-2.1c-3.7-4.6-7.8-8.9-12.2-12.8
				c-1.7,1.5-9,7.7-18.5,7.7c-3.5,0-7.3-0.9-11.3-3.2c-10.1-6,0.1-11.3,11.8-11.2c4.5,0,9.3,0.9,13.2,2.8c-4-3.2-8.2-6.2-12.6-9
				c-0.3,0-0.5,0-0.8,0c-17.3-0.1-38.9-28.1-22.4-28c0.9,0,1.9,0.1,3,0.3c16.6,2.6,21,19.4,22.1,25.4c4.5,2.8,8.8,5.9,12.9,9.2
				c-6.8-10.9-6.9-29.8-1.8-29.8c1.3,0,2.8,1.2,4.7,4c9.1,13.4,3.1,26,1.2,29.4c4.7,4.2,9,8.7,13,13.6c0.4,0.5,0.8,1,1.2,1.5
				c-1.8-9.1,2.4-21.2,6.8-25.3c-0.5-0.5-1-1.1-1.5-1.6c-0.4,0.4-0.9,0.9-1.3,1.4c-3.3,4.1-6.2,11.7-6.6,19
				c-2.8-3.2-5.8-6.2-8.9-9.1c2.5-5.2,6.5-17.3-2.2-30.1c-2.2-3.3-4.4-4.9-6.5-4.9c-1,0-2.8,0.3-4.1,2.8c-2.3,4.3-2.2,13.8,0.5,22.4
				c-1.8-1.3-3.7-2.5-5.5-3.7c-0.7-3.3-2.2-8.7-5.3-13.8c-4.4-7-10.6-11.2-18.3-12.4c-1.2-0.2-2.3-0.3-3.3-0.3
				c-2.5,0-4.5,0.5-5.9,1.7c-1.5,1.2-2.2,2.9-2.2,4.9c0,3.6,2.6,9.7,10,16.4c6.6,6,14.1,9.4,20.4,9.5c0.1,0,0.1,0,0.2,0
				c1,0.6,2,1.3,3,1.9c-1.1-0.1-2-0.1-2.9-0.1c-7.7,0-16.6,2.2-18,7.3c-0.5,2-0.1,5,5,8c3.9,2.3,8.1,3.5,12.3,3.5
				c8.4,0,15.2-4.4,18.4-7c2.2,2.1,4.4,4.2,6.4,6.5c-2.1-0.5-4.3-0.7-6.6-0.8c-2.7,0-9.2,0.4-10.7,4.5c-0.6,1.6-0.5,4.1,3,7.1
				c3.6,3,7.6,4.6,12.2,4.6c4.9,0,9.2-1.8,11.8-3.2c1.8,2.7,3.5,5.4,5.1,8.2c-3.6-1.4-7.4-2-10.4-2c-5.4,0-9.3,1.6-10.5,4.5
				c-0.7,1.6-0.8,4.2,2.2,7.5c2.8,3.1,6.2,4.9,10.1,5.5c-3.1,0.5-4.6,1.9-5.3,3.1c-1.2,2.1-1,4.7,0.7,7.8c3.6,6.6,10,10.1,18.5,10.2
				c2.8,0,5.4-0.4,7.3-0.8c0.8,5,0.9,8.1,0.9,8.1c0,0.7,0.3,1.3,0.9,1.7c0.4,0.3,0.8,0.4,1.3,0.4c0.2,0,0.4,0,0.6-0.1
				c0.3-0.1,0.6-0.1,1-0.1C307,146.5,307.4,146.5,307.4,146.5L307.4,146.5z M295.3,113.4c1,2.5,1.9,5,2.7,7.5
				c-3.8-2.5-8.3-4.2-12.2-4.8C289.6,115.8,293,114.5,295.3,113.4z"/>
			<path class="st2" d="M303.6,82.2c-3.3,3.8-6.3,9.5-7.7,15.5c-1.9-3.4-4-6.8-6.2-10c3.6-3,9.5-9.2,10.3-18.3
				c-0.6-1.1-1.3-2.1-2.1-3.1c0.5,11.5-7.9,18.6-11.2,21c4.1,5.7,7.6,11.7,10.6,18c-0.5-6.9,2.9-15.1,6.8-20.2
				C304,84,303.8,83.1,303.6,82.2z"/>
			<path class="st2" d="M304.9,126.1c0.4-3.6,2-7.3,4.1-10.7c-0.2-1-0.3-2.1-0.5-3.1c-1.4,2-2.6,4-3.5,6c-0.9-2.6-1.8-5.2-2.8-7.8
				c-0.1-0.1-0.1-0.3-0.2-0.4c1.6-0.8,3.5-2.1,5.5-3.7c-0.1-0.9-0.3-1.7-0.4-2.6c-3.1,2.9-6.4,4.6-7.9,5.2c0.3,0.8,0.7,1.6,1,2.3
				C302.2,116.7,303.8,121.7,304.9,126.1z"/>
		</g>
	</g>
</g>
</svg>
