<?xml version="1.0" encoding="utf-8"?>
<!-- Generator: Adobe Illustrator 26.0.3, SVG Export Plug-In . SVG Version: 6.00 Build 0)  -->
<svg version="1.0" id="Layer_1" xmlns="http://www.w3.org/2000/svg" xmlns:xlink="http://www.w3.org/1999/xlink" x="0px" y="0px"
	 viewBox="0 0 500 337" style="enable-background:new 0 0 500 337;" xml:space="preserve">
<style type="text/css">
	.st0{fill:#FFDFC8;}
	.st1{opacity:0.25;fill:#FF8D90;}
	.st2{opacity:0.45;fill:#FF9B8E;}
	.st3{fill:#FFFFFF;}
	.st4{fill:#00FFDB;}
	.st5{fill:#D7D7D7;}
	.st6{fill:#002135;}
	.st7{fill:none;}
	.st8{fill:#00C7A3;}
	.st9{fill:#FF9B8E;}
	.st10{fill:#C46B3F;}
	.st11{fill:#AF4C2B;}
	.st12{fill:#FF9E57;}
	.st13{fill:#FF5252;}
	.st14{fill:#D13737;}
	.st15{fill:#432929;}
	.st16{fill:#00D9B2;}
	.st17{fill:#FFC900;}
	.st18{fill:#FFDA33;}
	.st19{fill:#FFA700;}
	.st20{fill:#FC8400;}
</style>
<g>
	<g>
		<path class="st0" d="M51.5,236.4C58,246.6,71,248.2,82,245.2c3.9,4.2,13.3,5.5,17.8,6.1c0.9,0.1,1.4-0.5,1.6-1.3
			c0.8,0,1.7,0,2.5-0.1c7.5-0.9,14.6-3.7,21-7.6c0,0,0,0,0,0c2.3,2.8,5.2,8.7,9.3,9.2c4.1,0.5,4.6-4.1,7.7-5.3
			c4-1.5,6.2-2.8,8.4-6.8c1-1.8,1.6-3.7,0.5-5c0.3-0.7,0.4-1.5,0.2-2.3c1.9-1.8,3.3-3.8,4.5-6.2c0.3-0.6,0.3-1.1,0.2-1.5
			c2.8-5.4,2.6-11.9-0.8-17.2c-1.9-6.3-1.7-13.5-3.3-19.8c-1.9-7.3-4.9-14.2-8.8-20.6c-0.6-1-1.7-0.8-2.3-0.2
			c-2.8-3.5-5.9-6.4-10.4-8.3c-6.6-2.8-14-3-21.1-2c-11.8,1.6-23.1,6.5-31.7,14.9c-9,8.8-13.6,20.7-18.1,32.2
			c-2.5,6.3-5.4,12-8.6,17.9C47.5,226.7,48.1,231.2,51.5,236.4z"/>
		<path class="st1" d="M141.3,215.3c0,3.9,5.5,7.1,12.3,7.1c5.6,0,4.1-3.2,4.1-7.1c0-3.9,0-7.3-4.1-7.1
			C146.8,208.5,141.3,211.4,141.3,215.3z"/>
		<path class="st0" d="M104.5,308.7c0.1-0.7,0.6-1.1,1.3-1.2c0.4-0.2,1-0.3,1.5-0.2c5.4,1,10.8,1.1,16.2,2c0.3,0,0.6,0.2,0.8,0.3
			c0,0,0,0,0,0c0.2-0.2,0.4-0.4,0.6-0.5c0.1-0.1,0.1-0.2,0.2-0.3c1-1.2,2.8,0.3,2.1,1.6c-0.1,0.2-0.2,0.4-0.3,0.6
			c-0.5,2.5-1.7,6.3-3.7,7.9c-2.3,1.9-6.7,1.8-9.5,1.5c-2.8-0.3-6.5-1.1-8.5-3.3C103.3,315,104.1,311.2,104.5,308.7z"/>
		<path class="st2" d="M104.4,309.7c0.1-0.7,0.9-1.3,1.6-1.2c6.7,0.7,13.2,1.4,20,0.8c1.6-0.1,2,2.5,0.4,2.8
			c-6.3,1.1-12.8,1.4-19.1,0.1c-0.3,1.2-0.4,2.4-0.7,3.5c-0.4,1.6-2.6,1.1-2.7-0.4C103.7,313.4,104.1,311.6,104.4,309.7z"/>
		<path class="st3" d="M103.8,318.2c0.3-1.5,2.3-1.8,3.2-0.9c3.3,3.4,7.2,3.1,11.5,3.7c0.2,0,0.4,0.1,0.6,0.1
			c0.4-0.6,0.8-1.2,1.3-1.8c1.1-1.5,3.4-0.2,2.5,1.5c-1.4,2.5-2.5,5.1-3.6,7.7c-0.3,0.6-1,1-1.6,0.9c-3.5-0.2-6.2,0.5-9.1,2.1
			c-1.4,0.8-3,0.9-4.3-0.2C100.8,328.5,103.2,321.7,103.8,318.2z"/>
		<path class="st4" d="M104.1,327.3c0.9,2.4,2.7,3.1,4.7,3.2c1.1-0.4,2.3-0.6,3.5-0.9c1.2-0.3,2.4-0.6,3.6-0.5
			c2.3,0.2,3.2,1.5,3.8,3.5c0.3,0.8-0.1,1.4-0.7,1.6c-0.2,0.3-0.5,0.6-0.8,0.7c-3.2,1.3-7.6,2.3-10.8,0.4c-0.2-0.1-0.4-0.3-0.5-0.5
			c-0.2-0.1-0.5-0.1-0.7-0.2c-2.8-1.3-4-4.1-4.4-7C101.7,326.2,103.7,326.1,104.1,327.3z"/>
		<path class="st5" d="M105,316.7c0.4-1,2-0.3,1.7,0.7c-1.5,4.7-1.9,10,3.3,12.5c0.5,0.3,0.1,0.9-0.4,0.9c-2.8-0.4-4.9-1.7-6-4.5
			C102.3,323,103.6,319.8,105,316.7z"/>
		<path class="st6" d="M128.5,309.7c-1.4,3.6-3,7-4.5,10.5c-0.8,1.8-1.6,3.6-2.4,5.4c-0.4,0.9-0.8,1.8-1.2,2.7
			c-0.3,0.8-0.6,1.6-1.3,2.1c-0.4,0.3-1.1,0.3-1.2-0.3c-0.3-1.7,0.9-3.4,1.6-4.9c0.8-1.8,1.7-3.6,2.5-5.3c1.7-3.5,3.4-7,4.9-10.7
			C127.2,308.2,128.9,308.6,128.5,309.7L128.5,309.7z"/>
		<path class="st6" d="M117,330.6c-2.4-0.6-4.9-0.2-7.1,1c-0.5,0.3-1.1,0.1-1.3-0.4c-0.3-0.5-0.1-1,0.4-1.3c2.5-1.7,5.8-2.1,8.7-1.3
			C118.8,329,118.3,331,117,330.6L117,330.6z"/>
		<path class="st6" d="M119.5,329.6c1.4,1.6,1.4,4.2-0.3,5.7c-0.9,0.8-2.1,1-3.3,1.2c-1.5,0.3-3,0.5-4.5,0.5c-2.6,0-5.2-0.6-7.3-2.4
			c-1.8-1.5-2.9-3.8-2.3-6.2c0.2-0.8,1.4-0.6,1.4,0.2c0,1.7,0.9,3.3,2.2,4.4c1.5,1.3,3.4,1.7,5.3,1.8c2,0.1,4.3-0.1,6.2-0.6
			c1.4-0.4,2.2-2,1.2-3.2C117.4,330,118.7,328.7,119.5,329.6L119.5,329.6z"/>
		<path class="st6" d="M124.2,318.7c-3,2.2-7.2,3.5-10.9,3c-3.6-0.4-7.9-2.6-9.3-6.1c-0.2-0.6,0.6-0.8,0.9-0.5
			c1.4,1.1,2.6,2.3,4.1,3.1c1.5,0.8,3.1,1.4,4.8,1.5c3.3,0.3,6.8-0.6,9.5-2.5C124.3,316.6,125.1,318.1,124.2,318.7L124.2,318.7z"/>
		<path class="st6" d="M105.4,308.8c0,1.1-0.1,2.2-0.1,3.3c0,0.5,0,1.1-0.1,1.6c-0.1,0.6-0.1,1.2-0.3,1.7c-0.2,0.4-0.8,0.4-1,0
			c-0.1-0.3-0.2-0.6-0.2-0.9c0-0.3,0-0.5,0-0.8c0-0.6,0-1.1,0-1.7c0-1.1,0.1-2.2,0.1-3.3c0-0.4,0.4-0.8,0.8-0.8
			C105.1,308,105.5,308.3,105.4,308.8L105.4,308.8z"/>
		<path class="st6" d="M105.4,316.7c-1.1,2-1.8,4.2-2.1,6.4c-0.3,2.3,0,4.5,0.2,6.7c0.1,0.8-1.2,1.1-1.5,0.4
			c-2.1-4.6-0.7-10.3,2-14.4C104.6,315,105.9,315.8,105.4,316.7L105.4,316.7z"/>
		<path class="st0" d="M82.7,301.6c2.2-2.6,6.5-6.3,10.2-6.1c1.8,0.1,2.2,1.2,2.9,2.6c0.9,1.7,2.3,3.6,2.6,5.5
			c1.8-0.8,3.1,1.7,1.5,2.8c-1.7,1.2-3.3,2.5-5,3.8c-1.5,1.1-2.3,2.8-4.1,3.3c-3.6,1.1-7.1,0.5-8.9-3.2
			C80.5,307.4,80.6,304.1,82.7,301.6z"/>
		<path class="st2" d="M87.3,299.2c2,0,3.6-0.6,5.3-1.3c0.1-0.2,0.2-0.5,0.4-0.7c0.3-0.8,1.4-1,2.1-0.7c0.7,0.3,1.3,1.2,1,2
			c-0.4,0.9-0.9,2.3-1.8,3.1c1.7,0.7,3.3,1.4,5,2.2c1.5,0.8,0.4,3.1-1.1,2.7c-4.1-1.1-7.8-2.3-11.6-4.3
			C85.1,301.3,85.8,299.2,87.3,299.2z"/>
		<path class="st3" d="M76.4,299c0.9-3.2,2.4-6,5.4-4.4c0.9,0.5,3.5,1.4,3.9,2.4c1.3-0.3,2.5,1.5,1.4,2.6c-1.2,1.1-2.2,2.3-3,3.7
			c-0.8,1.3-1.3,2.7-2.3,3.9c-0.8,1-2.2,0.5-2.8-0.4c-1-1.3-1-3.2-1.8-4.7C76.3,300.8,75.9,300.8,76.4,299z"/>
		<path class="st4" d="M76.3,292.2c0.1-0.1,0.2-0.2,0.3-0.2c0.1-0.1,0.3-0.2,0.4-0.3c0.3-0.3,0.7-0.4,1.1-0.1l0,0
			c0.4,0.1,0.8,0.3,1,0.7c0.2,0.1,0.3,0.2,0.5,0.3c0.9,0.6,0.2,1.9-0.7,1.6c-0.7,1.3-1.4,2.6-2.1,3.9c-0.3,0.7-0.6,1.3-1,2
			c0,0.1-0.1,0.1-0.1,0.2c0,0,0,0.1,0.1,0.1c0,0.1,0.1,0.2,0.1,0.3c0.4,0.1,0.8,0.3,1.1,0.8c0.2,0.3,0.4,0.5,0.5,0.8
			c0.7,0.4,1.2,1.2,1.3,2.1c0.1,0.9-0.1,1.5-0.8,2c-3,2.1-6.4-0.3-6.8-3.6C70.7,299,73.7,294.7,76.3,292.2z"/>
		<path class="st6" d="M100.8,306.4c-2.1,2.1-4.4,4.1-6.8,5.9c-2.3,1.7-5,3.6-8,2.7c-2.7-0.8-4.7-3.1-6.2-5.3
			c-1.6-2.4-2.5-5.1-2.9-8c-0.1-0.9,1.4-1.1,1.6-0.2c0.6,2.3,1.6,4.5,3,6.5c1.3,1.8,3,3.9,5.3,4.5c2.3,0.5,4.6-1.4,6.4-2.6
			c2.2-1.5,4.2-3.1,6-5C100.3,304,101.8,305.4,100.8,306.4L100.8,306.4z"/>
		<path class="st6" d="M77.7,291.6c-2.5,2.2-3.9,5.5-4.9,8.7c-0.5,1.5-1.3,3.2,0.2,4.5c1.6,1.3,3.7,0.9,5.6,0.6
			c1.1-0.2,1.6,1.5,0.5,1.7c-2.3,0.5-4.9,1-7-0.3c-2.1-1.3-2.4-3.5-1.7-5.7c0.6-2,1.4-3.9,2.5-5.7c1-1.8,2.1-3.6,3.7-4.9
			C77.3,289.6,78.5,290.8,77.7,291.6L77.7,291.6z"/>
		<path class="st6" d="M87.9,299.6c-2.9,2.5-5.9,5.3-6.3,9.4c0,0.4-0.2,0.7-0.6,0.7c-0.3,0-0.7-0.2-0.8-0.5
			c-0.2-1.1-0.2-2.2,0.2-3.2c0.4-1,0.9-2,1.6-2.9c1.3-1.8,3-3.3,4.7-4.7c0.4-0.3,0.9-0.4,1.3,0C88.2,298.6,88.3,299.2,87.9,299.6
			L87.9,299.6z"/>
		<path class="st6" d="M77.5,303.7c-0.1-0.3-0.3-0.6-0.5-0.8c0.2,0.2,0,0,0,0c-0.1-0.1-0.1-0.1-0.2-0.2c-0.1-0.1-0.2-0.2-0.3-0.3
			c0,0-0.1-0.1,0,0c0.1,0.1,0,0,0,0c-0.1,0-0.1-0.1-0.2-0.1c-0.1-0.1-0.3-0.2-0.4-0.2c-0.1-0.1-0.3-0.2-0.4-0.2
			c-0.1,0-0.1-0.1-0.2-0.1c0,0-0.1,0-0.1-0.1c0,0,0.1,0,0.1,0c0,0-0.1,0-0.1,0c-0.4-0.1-0.6-0.4-0.5-0.8c0-0.4,0.4-0.7,0.7-0.6
			c0.4,0,0.8,0.1,1.2,0.2c0.4,0.2,0.8,0.4,1.2,0.7c0.6,0.5,1.1,1.2,1.4,1.9c0.1,0.2,0,0.5-0.1,0.7c-0.1,0.2-0.2,0.3-0.4,0.3
			C78.2,304.2,77.6,304.1,77.5,303.7L77.5,303.7z"/>
		<path class="st4" d="M131.3,254.4l9.9,39.5l-3.8,2.4l-5.9,2.1c0,0-7,1.8-7.5,1.6c-0.5-0.2-6.6,0.4-6.6,0.4l-5-0.9l-5.7-2.6
			l-7.3-4.2l-1-1.5l-0.9-9.2l-4.5-2.8l-2.8-3.6l-1.9-4.2L93,257L131.3,254.4z"/>
		<g>
			<path class="st7" d="M165.4,251C165.4,251,165.4,251,165.4,251C165.4,251,165.4,251,165.4,251z"/>
			<path class="st0" d="M166.7,250.4c-0.7,0.3-1.2,0.5-1.2,0.6C165.6,250.6,166.1,250.2,166.7,250.4z"/>
			<path class="st0" d="M121.8,261.9l-7.1,5.3c0,0-3.1,4.3-3.5,4.4c-0.5,0.1-5.6,4.5-5.6,4.5l-5.6,1.3l-3.5-0.9l-7-5.9
				c-0.8-4.2,2.5-9.6,3.5-13.7c1.2-5.1,3.4-6,7.7-8.3c4.9-2.5,8.4-5.4,13.5-7.5c5.2-2.2,10.9-4.1,15.3-7.8
				c1.2-1,22.5-15.5,22.6-13.8c0.8,13.8-22,24-19.4,27.5c1.8,2.4,2.3,3,4.6,1.5c1.8-1.2,3.3-2.4,4.7-4c0.3-0.4,1-0.6,1.5-0.4
				c2.6,1,5.7-5.4,7.2-6.6c1-0.8,1.3-0.9,2.4-0.9c0.1-0.2,0.2-0.3,0.2-0.5c0.5-0.9,2-0.3,1.7,0.7c0,0.1,2.2-1.6,2.2-1.4
				c0.2,0.4,18.6-5.4,18.2-5.1c-0.8,2.9,5.7,7.7,7.8,9.8c2,2.1-15.1,8.5-12.3,8.5c0.1,0-2.5,1.1-4.2,1.7c-0.6-0.2-1,0.1-1.2,0.6
				c0,0,0,0,0,0c0,0,0,0,0,0c0.1-0.1,0.6-0.3,1.2-0.6c0,0,0,0,0.1,0c2.3,0.9-1.3,0.6-0.9,2.1c-0.1-0.1-0.2-0.1-0.2-0.2
				c-0.1,0.1-0.2,0.2-0.4,0.2c-0.2,0-0.4,0.1-0.6,0.1c-0.1,0.1-0.2,0.2-0.4,0.3c-1.9,0.8-3.8,1.6-5.6,2.4c-3.7,2.6-6.7,4.6-10.5,7.1
				c-3.3,2.2-8.4,5-12.2,5.8c0,0.1-0.8,0.8-0.8,0.8c0,0.1-0.1,0.2-0.1,0.3l-3.6-15L121.8,261.9z"/>
		</g>
		<path class="st8" d="M107.4,274.6c0,0,2.6,14.2,6,16.8c3.4,2.5,8.4,2.8,8.4,2.8l8.5,0.4c0,0,4.6-0.4,4.8-0.4s6-0.3,6-0.3l-3.8,2.4
			l-7.4,2.9c0,0-4.9,1-6.1,0.8c-1.2-0.2-6.6,0.4-6.6,0.4l-5-0.9l-6.6-1.3l-3.9-3.2l-4.1-1.8l-0.3-11.1l-4.5-2.8l-3-2.3l-1.2-4.9
			l4.7,3l3.1,1.4l4.9,1.7l4.2-2.1L107.4,274.6z"/>
		<path class="st4" d="M73.5,283.7c-0.1-1.1-0.2-2.1-0.2-3.2c0,0,0-0.4,0-0.4c0-0.1,0.1-0.3,0.1-0.2c0,0,0-0.1,0.1-0.1c0,0,0,0,0,0
			c0,0,0.1-0.1,0.1-0.1c0,0,0,0,0.1,0c0.5-0.3,1.6-0.6,2.3-0.9c0.9-0.4,1.9-0.7,2.8-1.2c2.4-1.3,4.7-3,6.2-5.3
			c0.4,0.1,0.8,0,1.1-0.2c0.8-0.5,1.3-1.1,1.8-1.7c0.6,0.3,1.1,1.1,0.9,1.8c-0.6,2.4,2.9,5.2,5.7,7c-0.2,0.8,0.3,1.8,1.1,1.9
			c0.7,0.1,1.5,0.3,2.3,0.2c0,0,0,0,0,0.1c0.3,0.4,0.2,0.9-0.1,1.3c0,1.6,0,3.2,0.2,4.8c0,0,0,0.1,0,0.1c-0.2,0.4-0.3,0.9-0.2,1.3
			c0.5,3,2.3,5.5,5.1,6.7c0.7,0.3,1.4,0.5,2.1,0.8c0.6,0.3,1.2,0.6,1.8,1c1.3,0.7,2.6,1.3,4.1,1.6c0.2,0.2,0.4,0.3,0.7,0.4
			c2.5,0.8,5.1,0.6,7.6,0.4c2.3-0.1,4.5-0.1,6.8-0.3c2.3-0.2,4.7-0.6,6.7-1.6c0.9-0.4,1.6-1.1,2.5-1.4c0.7-0.2,1.4-0.3,2.1-0.5
			c1.5-0.4,2.7-1.2,3.3-2.6c0.2,0.1,0.4,0.3,0.6,0.6c0.2,0.4,0.4,0.7,0.5,1.1c0.7,0.5,1.2,1.2,1.6,2.1c0.2,0.6,0.3,1.2,0.3,1.8
			c0.6,1.1,1.2,2.2,2,3.2c0.5,0.6,0.3,1.3-0.4,1.5c-3.4,1.4-6.2,4.1-9.9,4.9c-0.5,0.1-1.3-0.1-1.5-0.6c-0.8-1.8-1.5-3.5-2.3-5.3
			c-0.2,0.1-0.3,0.1-0.5,0.2c0,0.6-1.2-0.9-1.5-0.4c0.1,1.2,1.2,4.7,1.2,5c-0.1,1-0.9,2.1-2,2c-0.3,0-0.6,0-0.8-0.1
			c-0.2,0.4-0.6,0.8-1.2,0.9c-6.7,1.5-13.6-0.6-19.8-2.8c-2.2-0.8-5.5-1.8-7.8-3.6c-1.6-0.7-3.1-1.6-4.1-2.9c-1-1.3,0.8-3.5,1.2-4.7
			c-1.2,0.7-4.3,2.2-5.4,2.1c-2.5-0.3-5.7-2-7.8-3.3c-4.3-2.7-7.3-6.5-9.3-10.9C73.4,284.1,73.5,283.9,73.5,283.7z"/>
		<path class="st8" d="M132,299.9c1.2-0.7,1.9,0.4,2.6,1.4c1,1.4,3,2.4,3.4,4.1c0.2,1-0.1,2-1,2.5c-0.8,0.5-2.1,0.4-2.7-0.3
			c-1.2-1.4-1.9-3.1-3-4.6C130.6,302,131,300.5,132,299.9z"/>
		<path class="st8" d="M88.6,295c1.8-1.8,4.1-3,6.1-4.5c0.7-0.5,1.7-0.2,2.2,0.4c0.5,0.7,0.4,1.6-0.1,2.2c-1.6,2-3.1,4.2-5.3,5.6
			C89.2,300.3,86.7,296.9,88.6,295z"/>
		<path class="st8" d="M76.1,283.3c1.4-1.1,3.2,0,4.9-0.5c2.5-0.7,4.2,1.7,1.8,2.9c-1.8,0.9-3.5,1.9-5.5,2.1c-1,0.1-2.1-0.8-2.3-1.8
			C74.7,284.9,75.3,283.9,76.1,283.3z"/>
		<path class="st6" d="M181.3,229.4c-9.6,2.9-19.2,6.1-29,8.4c-1.2,0.3-1.7-1.4-0.5-1.8c9.5-3.1,19.4-5.5,29.1-8.1
			C181.9,227.6,182.3,229.1,181.3,229.4L181.3,229.4z"/>
		<path class="st6" d="M184.1,241.9c-12.3,7.8-25.1,14.9-37.8,22c-3.3,1.8-6.6,3.5-9.9,5.2c-1,0.5-1.8-0.9-0.9-1.5
			c12.5-7.6,25.4-14.4,38-21.7c3.2-1.9,6.4-3.8,9.6-5.7C184.2,239.5,185.2,241.2,184.1,241.9L184.1,241.9z"/>
		<path class="st2" d="M129.9,237.6c0.2-0.6,1.1-0.6,1.2,0c0.5,2.3,2.1,6.1,5.1,5.8c1.7-0.2,2.8-2.2,4.4-2.7
			c1.5-0.5,2.8,0.1,4.4-0.8c2-1.1,3.1-3,4.2-5c0.8-1.4,3.3-0.4,2.7,1.1c-1,2.5-2.2,5.2-4.5,6.8c-1.2,0.8-2.5,1.1-3.9,1.3
			c-1.8,0.3-2.3,0.5-3.9,1.4c-0.4,0.2-0.7,0.4-1.1,0.5c0,0.3,0,0.6-0.2,0.9c-1.8,2.5-3.9,3.2-6.2,0.7
			C129.6,245.2,128.9,241.1,129.9,237.6z"/>
		<path class="st2" d="M58.2,234c0.8-2.3,2.9-2.4,4.9-1.8c0.8,0,1.6,0.1,2.4,0.2c1.6,0.2,3.3,0.6,4.2,2c0.9,1.6,0.4,3.5-1.2,4.4
			c-1.4,0.8-3.5,1.1-5.1,0.9C60.6,239.4,57,237.5,58.2,234z"/>
		<g>
			<path class="st9" d="M125.7,208.6C125.7,208.6,125.7,208.6,125.7,208.6c0.1-0.2,0.1-0.3,0.2-0.4
				C125.8,208.4,125.8,208.5,125.7,208.6z"/>
			<path class="st9" d="M121.9,207.4c0-0.1,0-0.3,0-0.5c0.1-0.5,0.5-0.8,1-1c0.7-0.2,1.3-0.2,2-0.1c0.6,0.1,0.9,0.7,1,1.2
				c0.1,0.5,0.1,1-0.2,1.5c-0.3,0.7-1,1.2-1.8,1.2c-0.9,0-1.8-0.6-2-1.5C121.9,208,121.9,207.7,121.9,207.4z"/>
		</g>
		<path class="st2" d="M82.1,242.2c5.6,3.7,14.1,5.7,20.6,4.7c1.5-0.2,2.2,2,0.7,2.4c-3.9,0.9-8,1.1-12,0.1
			c-4.4-1.1-6.8-3.5-9.7-6.7C81.4,242.4,81.7,241.9,82.1,242.2z"/>
		
			<ellipse transform="matrix(0.9923 -0.1238 0.1238 0.9923 -27.1285 13.2909)" class="st1" cx="93.4" cy="224.9" rx="11.3" ry="7.4"/>
		<ellipse class="st3" cx="100.8" cy="211" rx="4.2" ry="5.8"/>
		<path class="st10" d="M5.1,228.2c1.6,10.5,9.6,18.6,17.7,24.8c3.8,2.9,15.4,9.2,8.5,14.8c-1.9,1.5-4.2,2.1-6.1,3.3
			c-3.2,0.8-6.4,3.1-8.2,5.7c-2.2,3.1-1.4,6.5,0.1,9.7c4.3,9.3,13.5,9.3,22.4,10.5c1.1,0.2,2.1-1.4,0.9-2c-0.5-0.2-1-0.4-1.5-0.6
			c-0.2-1.6-0.4-3.1-0.5-4.7c0.5-0.8,3.4-1.2,4.2-1.4c2.5-0.7,5-1.4,7.4-2.4c3.8-1.6,7.9-3.3,10.6-6.5c5.7-6.6,6-15.4,2.5-23.1
			c-4.2-9.1-12.6-15.1-19.3-22.3c-3.8-4.1-7.8-9-8.3-14.8c-0.2-2.2,0.1-4.7,0.7-7.3c1.6,8.7,5.7,16.8,12.7,22.5
			c0.9,0.7,2.4,0.1,2.1-1.2c-1.4-4.8-0.2-11.2,4.8-13.3c4.9-2.1,9.6,0.7,12.6,4.6c0.1,0.1,0.2,0.2,0.3,0.3c0.6,0.8,1.2,1.7,1.6,2.8
			c1.4,4.1,2.3,8.5,3.2,12.8c0.1,0.4,0.4,0.6,0.7,0.7c1.2,4.5,2.3,9,2,13.7c0,0.4,0.6,0.5,0.7,0.2c3-7,0.3-13.5-1.1-20.5
			c-1.5-8.1,1.4-16.9,4.6-24.6c11-5.4,18.2-15.6,23.1-26.5c2.5-5.6,4.4-11.6,5.1-17.7c0.2-1.7,0.3-3.3,0.4-5c1.4,4.5,2.1,9.2,2.7,14
			c1,8.3,2,16.9,1.5,25.3c-0.1,1.2,1.6,1.9,2.4,1c1.2-1.4,2.2-3,3.1-4.5c2.2-2.1,3-5.2,3.1-8.6c1.4-7.3,0.4-15.1-2-22.4
			c1.1,1.6,2.1,3.1,3.2,4.7c0.1,0.4,0.2,0.7,0.3,1.1c2.2,8.4,3.4,16.9,4.5,25.5c0.1,1.1,0.7,1.9,1.7,2.2c-0.1,0.1-0.2,0.2-0.2,0.4
			c-0.1,0.2-0.2,0.4-0.2,0.7c0,0.2,0,0.3,0.1,0.5c0.1,0.2,0.2,0.4,0.3,0.6c0.1,0.2,0.3,0.3,0.5,0.4c0.3,0.2,0.7,0.3,1.1,0.3
			c0.3,0,0.7-0.1,1-0.3c0.3-0.2,0.5-0.4,0.7-0.7c0.2-0.3,0.2-0.6,0.2-0.9c0-0.2,0-0.4-0.1-0.6c1.8,0.2,3.7,0.3,5.5,0.5
			c0.8,0.1,1.7-0.6,2-1.4c0.2,0.4,0.4,0.7,0.6,1.1c0.4,0.9,1.7,0.6,2-0.3c2.4-6.7,2.1-12.9,1.6-19.9c-0.3-3.6-1-6.8-2-9.9
			c1.9,2.3,3.6,4.8,4.9,7.9c3,6.8,5.4,14.3,6.7,21.6c0.2,1.1,1.7,1.1,2.2,0.3c6.8-9.8,6.8-22.6,2-33.4c-2.3-5.1-5.6-9.6-9.6-13.5
			c-2.5-2.4-5.3-4.4-8.1-6.4c-0.1-0.2-0.3-0.4-0.5-0.6c-1.8-1.3-3.7-2.5-5.6-3.6c-0.4-0.3-0.8-0.6-1.2-0.9c-0.3-0.2-0.5-0.2-0.8-0.2
			c-9.1-4.7-19.4-7-29.7-7.9c-13.8-1.2-26.6,1.2-38.2,9c-5.2,3.5-10.5,7.1-14.6,11.8c-4.2,4.7-7.2,10.3-9.6,16
			c-2.7,6.4-4.9,13.1-5.8,20c-0.2,1.7-0.5,3.6-0.6,5.5c-6-0.3-13.1,3.2-17.1,6.5C9.5,207.5,3.6,218.5,5.1,228.2z"/>
		<path class="st11" d="M135.2,155.1c7.2,5.1,13.3,10.6,17.4,18.5c3.3,6.5,6.6,15.8,2.8,22.7c-0.5,0.9-1.9,0.7-2.1-0.3
			c-2.2-7.2-2.3-14.2-6.2-21c-3.6-6.4-8.6-12.3-13.8-17.5C132.1,156.3,133.7,154,135.2,155.1z"/>
		<path class="st11" d="M116.6,155.4c5.4,6.5,10.3,12.9,13.5,20.8c2.7,6.8,4.6,16.2,0.7,22.9c-0.5,0.8-1.8,0.7-2-0.3
			c-1.4-7.2-1.6-14.1-4.3-21.1c-2.7-7-6.8-13.7-10.8-20.1C112.6,155.9,115.2,153.8,116.6,155.4z"/>
		<path class="st11" d="M138.8,198c0.1-0.9,0.5-1.8,0.7-2.7c0.2-0.9,0.2-1.8,0.1-2.8c-0.2-1.5,2.5-1.9,2.7-0.4
			c0.3,2.3,0.3,5.4-1.7,6.9C139.7,199.8,138.6,199.1,138.8,198z"/>
		<path class="st11" d="M110.6,157.2c6,12.6,8.7,26.9,5.1,40.6c-0.3,1-1.7,0.8-1.7-0.2c0.1-13.4-1.2-26.6-6.2-39.2
			C107.2,156.7,109.9,155.6,110.6,157.2z"/>
		<path class="st11" d="M82.2,202.8c1.9-3.6,4.9-6.5,7.2-9.9c2.3-3.4,4.2-7,5.9-10.8c3.5-7.7,6.9-15.8,9.7-23.8
			c0.6-1.6,2.9-1,2.6,0.7c-0.1,0.8-0.3,1.6-0.4,2.4c0,0,0,0.1,0,0.1c1.5,9.4,0.9,18.4-4,26.8c-3.1,5.4-7.4,10.1-12.7,13.2
			c-1.6,1.7-3.3,3.2-5.2,4.3C83.4,207.1,81.1,204.8,82.2,202.8z"/>
		<path class="st11" d="M46.3,196.3c4.1-0.5,8.4,0.6,12.6,0.4c4.2-0.2,8.5-0.6,12.7-1c1.9-0.2,2,2.6,0.4,3.2
			c-4.8,1.8-11.9,4.1-18.1,3.6c4.6,1.8,9.6,3,14.2,3.2c3.9,0.1,9,0.4,9.8-4.2c0.4-2.4,0.1-5,0.6-7.5c2-11.8,7.8-22.3,15.6-31.2
			c1.1-1.3,3.4,0.4,2.4,1.8c-4.6,6.2-8.2,13.3-10.6,20.6c-2,6.3-1.6,14.3-5,20c-3.2,5.3-10.3,5.2-15.8,4.6
			c-7.3-0.8-12.5-3.4-17.7-8.5c-0.3-0.3-0.3-0.7-0.1-1c-0.7-0.5-1.4-1-2-1.7C44.5,197.6,45.2,196.4,46.3,196.3z"/>
		<path class="st11" d="M71.8,212.1c1-1.4,3-0.2,2.3,1.3c-1,2-1.5,4.4-2,6.5c-0.5,2-0.6,4-1.8,5.7c-0.8,1.2-2.5,0.9-3-0.4
			C65.5,220.8,69.3,215.6,71.8,212.1z"/>
		<path class="st11" d="M64.4,216c0-0.7,0.6-1.4,1.4-1.4c0.7,0,1.4,0.6,1.4,1.4c-0.1,1.4,0.2,3.3-1.1,4.2c-0.4,0.2-0.8,0.1-1.1-0.1
			C63.9,219.1,64.4,217.3,64.4,216z"/>
		<path class="st11" d="M32.5,204.9c1.5-2.6,5.4-0.3,4,2.3c-3.4,6.1-3.1,15.5-0.6,21.9c2.9,7.4,9.3,11.4,14.7,16.9
			c8.8,8.9,13,23.1,5,33.9c-0.4,0.5-1.3,0-0.9-0.5c5.5-7.3,6.1-17.7-1.4-23.9c-5.9-4.8-12.9-7.6-18.1-13.2c-4.6-5-7.2-11.2-7.9-18
			C26.5,216.8,28.7,211.2,32.5,204.9z"/>
		<path class="st12" d="M36.4,181.6c3.7-11.8,7.7-22.6,17.3-30.9c9.1-7.8,20.4-12.9,32-15.5c24.3-5.5,50.2,2.5,65.7,22.2
			c0.6,0.8-0.5,2-1.2,1.2c-15.6-18.6-40.5-25.7-64-21.5c-11.2,2-22.4,6.6-31,14.2c-9.4,8.3-13.9,18.9-17.4,30.7
			C37.6,183,36.2,182.6,36.4,181.6z"/>
		<path class="st12" d="M34.9,190.7c0.1-1.2,1.9-1.2,1.8,0c-0.1,1.5-0.2,3-0.4,4.4c-0.1,1.1-1.7,1.1-1.7,0
			C34.6,193.6,34.7,192.2,34.9,190.7z"/>
		<path class="st12" d="M10.2,215.2c1.6-4.9,4-10.1,8-13.6c3.9-3.4,9-5,13.9-6.6c1.5-0.5,2.1,1.8,0.6,2.3c-4.1,1.4-8.3,2.8-11.7,5.5
			c-4,3.1-6.1,7.9-8,12.5c-4.2,10.3-4.8,20.5,2.9,29.2c0.2,0.2-0.1,0.5-0.3,0.3C7.5,237.6,7,224.8,10.2,215.2z"/>
		<path class="st13" d="M119.9,212.7c0.8-0.6,1.9-0.8,3.2-0.7c2.2-0.7,4.8-0.5,6.8-0.4c0.1,0,0.1,0,0.2,0c0.6,0,1.2,0,1.8,0
			c0.9,0,1.4,1,1.2,1.7c0.1,0.2,0.1,0.4,0.1,0.6c-0.1,3.5-0.1,7-0.5,10.5c-0.3,2.4-0.4,5.9-1.9,7.8c-0.2,0.3-0.5,0.6-0.8,0.8
			c0,0.1-0.1,0.2-0.1,0.3c-0.3,0.9-1.1,1.1-1.9,0.8c-0.1,0-0.2-0.1-0.3-0.2c-1.1,0-2.3-0.5-3.1-1.7c-1.5-2.1-2.2-5-3-7.4
			c-0.5-1.4-1-2.9-1.4-4.3c-0.6-1.5-1.1-3.1-1.4-4.6C118.6,214.5,118.7,213.4,119.9,212.7z"/>
		<path class="st14" d="M132.7,223.9c-2.2-1.4-4.7-2.4-7.1-3.4c-2-0.8-4-1.4-6.1-2c-0.3-0.9-0.6-1.9-0.7-2.8
			c-0.2-1.3-0.1-2.4,1.1-3.1c0.8-0.6,1.9-0.8,3.2-0.7c2.2-0.7,4.8-0.5,6.8-0.4c0.1,0,0.1,0,0.2,0c0.6,0,1.2,0,1.8,0
			c0.9,0,1.4,1,1.2,1.7c0.1,0.2,0.1,0.4,0.1,0.6C133.1,217.2,133.1,220.6,132.7,223.9z"/>
		<path class="st4" d="M34.4,193.2c0.8-2,4-1.2,3.2,0.9c-0.6,1.5-0.8,2.9-0.7,4.5c0.1,1.4,0.6,2.7,0.3,4.1c-0.2,0.7-1.1,1.1-1.8,0.7
			C32.4,201.3,33.2,196.1,34.4,193.2z"/>
		<path class="st5" d="M80.5,294.7c2,1.2,4.3,2,6.2,3.4c0.6,0.5,0,1.4-0.7,1.3c-0.1,0.7-0.9,1.4-1.8,0.9c-2-1-4-2.2-5.2-4.2
			C78.4,295.3,79.5,294.1,80.5,294.7z"/>
		<path class="st6" d="M96.9,252.8c-2.4,1.4-3.3,4.8-4,7.3c-1.1,3.6-2,7.2-3.9,10.5c-0.6,1-2.4,0.3-1.9-0.8
			c1.5-3.7,2.6-7.5,3.9-11.2c1-2.7,2.2-6,4.9-7.5C97,250.5,98,252.2,96.9,252.8L96.9,252.8z"/>
		<path class="st6" d="M144.9,222.9c0.7-0.7,1.5-1.5,2.2-2.2c0.7-0.7,1.3-1.4,2-2c0.7-0.6,1.7-1.1,2.6-0.7c0.8,0.3,1.4,1,1.6,1.8
			c0.2,1,0,2-0.3,2.9c-0.3,0.9-0.6,1.7-1,2.6c-0.7,1.7-1.6,3.3-2.8,4.8c-0.4,0.6-1.3-0.2-1-0.7c0.7-1.3,1.5-2.6,2-4
			c0.6-1.3,1.2-2.8,1.3-4.3c0-0.4,0-1.2-0.5-1.2c-0.4-0.1-1,0.7-1.3,1c-1.2,1.1-2.5,2.3-3.7,3.4C145.4,225,144.1,223.7,144.9,222.9
			L144.9,222.9z"/>
		<path class="st6" d="M148.8,228.7c1.3-0.3,2.7,0.6,3.4,1.6c0.9,1.4-0.1,3.1-1,4.3c-0.5,0.7-1.2,1.2-2.1,1
			c-0.8-0.3-1.3-1.2-0.6-1.8c1.2-1.1,3.1-0.3,3.6,1.1c0.8,1.9-0.5,3.8-1.8,5c-0.8,0.7-1.9-0.4-1.2-1.2c0.7-0.8,1.7-1.7,1.7-2.8
			c0-0.4-0.2-0.8-0.6-1c-0.3-0.1-0.6-0.1-0.8,0.1c0.1-0.2,0.1-0.5,0.2-0.7c0-0.1-0.1-0.1-0.2-0.1c-0.1,0,0,0,0.1-0.1
			c0-0.1,0.2-0.2,0.3-0.3c0.2-0.2,0.4-0.5,0.6-0.8c0.3-0.4,0.7-1.1,0.6-1.6c-0.1-0.5-1.2-1.3-1.7-1.2
			C148.2,230.4,147.8,228.9,148.8,228.7L148.8,228.7z"/>
		<path class="st6" d="M150.3,239.6c-0.4,1-1,1.8-1.7,2.7c-0.7,0.8-1.5,1.6-2.4,2.1c-1,0.6-2.3,0.8-3.5,0.6
			c-0.6-0.1-1.3-0.3-1.8-0.6c-0.6-0.3-1.2-0.8-1.3-1.5c-0.1-0.4,0.2-0.9,0.7-0.9c0.5,0,1,0.3,1.4,0.4c0.4,0.2,0.9,0.3,1.3,0.4
			c0.5,0.1,1,0.1,1.4,0c0.1,0,0.2,0,0.3-0.1c0,0,0.3-0.1,0.2-0.1c-0.1,0.1,0.1-0.1,0.1-0.1c0.1,0,0.2-0.1,0.3-0.2
			c1.3-0.8,2.6-2.1,3.2-3.6C148.9,237.8,150.8,238.6,150.3,239.6L150.3,239.6z"/>
		<path class="st6" d="M131,255.5c-6.3,5-10.8,10-17.4,14.1c-1.1,0.7-1.9-0.3-1-1.2c5.9-5.9,10.6-9.9,17.5-14.3
			C131,253.5,131.8,254.9,131,255.5L131,255.5z"/>
		<path class="st6" d="M82.6,242.9c2.1,2.3,4.9,3.8,7.9,4.8c2.6,0.9,5.4,1.6,8.1,1.7c1.3,0,1.2,1.8,0,1.9c-3,0.3-6.2-0.2-9-1.3
			c-3.2-1.2-6.3-2.9-8.5-5.6C80.1,243.4,81.6,241.9,82.6,242.9L82.6,242.9z"/>
		<path class="st6" d="M109.5,199.3c-2.1-1.5-4.5-2.9-7-3.4c-1-0.2-1.9-0.2-2.9,0.1c-0.7,0.2-1.4,0.6-1.6,1.3
			c-0.2,0.7-0.9,1.1-1.6,0.9c-0.8-0.2-1-0.9-0.9-1.6c0.4-3.1,4-4,6.7-3.7c3.4,0.5,6.1,2.4,8.8,4.5
			C111.9,198.3,110.6,200,109.5,199.3L109.5,199.3z"/>
		<path class="st15" d="M98.3,215.2c0.4,0.1,0.8,0.1,1.1,0.2c0.2,0,0.4,0,0.6-0.1c0.5,0,0.9-0.1,1.3-0.3c0.2-0.1,0.4-0.2,0.5-0.4
			c0.1-0.1,0.2-0.3,0.3-0.4c0-0.1,0.1-0.1,0.1-0.2c0.3-0.5,0.4-1,0.4-1.6c0-0.2,0-0.4,0-0.6c0-0.3-0.1-0.7-0.2-1
			c-0.1-0.3-0.2-0.6-0.4-0.8c-0.1-0.2-0.2-0.3-0.4-0.4c-0.1-0.1-0.3-0.2-0.4-0.3c-0.2-0.1-0.4-0.2-0.7-0.3c-0.2-0.1-0.5-0.1-0.8-0.1
			c-0.5,0-1,0.1-1.5,0.4c-0.4,0.2-0.7,0.4-1.1,0.7c-0.2,0.2-0.4,0.4-0.6,0.7c-0.7-4.6,1.2-8.8,4.8-9.9c4.1-1.3,8.8,2,10.5,7.4
			c1.7,5.4-0.2,10.8-4.3,12.1c-3.4,1.1-7.2-1-9.4-4.9C98.2,215.2,98.3,215.2,98.3,215.2z"/>
		<path class="st6" d="M130.8,197.3c0.9-1.1,1.9-2.2,2.9-3.2c1.3-1.3,2.7-2.6,4.2-3.6c0.6-0.4,1.3-0.9,2-1c0.6-0.1,1.3,0.2,1.5,0.8
			c0.2,0.6-0.2,1.3-0.8,1.5c0,0-0.3,0.1-0.3,0.1c0,0,0.3-0.1,0.1,0c-0.1,0-0.1,0.1-0.2,0.1c-0.3,0.2-0.6,0.3-0.8,0.5
			c-0.1,0.1-0.1,0.1-0.2,0.2c-0.1,0,0.2-0.1,0,0c-0.2,0.1-0.3,0.3-0.5,0.4c-0.3,0.3-0.6,0.6-0.9,0.8c-1.3,1.2-2.5,2.4-3.7,3.7
			c-0.5,0.5-0.9,1-1.4,1.6c-0.5,0.6-1.4,0.5-1.9,0C130.3,198.7,130.4,197.9,130.8,197.3L130.8,197.3z"/>
		<path class="st6" d="M36.9,191.7c-1.3,2-1.8,4.6-1.9,7c-0.1,2.6,0.4,5.2,2,7.4c0.5,0.8-0.6,1.5-1.2,1c-2.3-2-2.7-5.4-2.6-8.2
			c0.1-2.7,0.7-5.7,2.2-8C36,189.9,37.5,190.8,36.9,191.7L36.9,191.7z"/>
		<path class="st6" d="M37.9,190.9c-0.3,1.7-0.4,3.4-0.5,5.2c-0.1,1.7,0,3.4-0.1,5.1c-0.1,0.9-1.4,0.9-1.4,0
			c-0.1-1.8,0.2-3.5,0.4-5.2c0.3-1.7,0.6-3.5,1.1-5.2C37.4,190.4,37.9,190.5,37.9,190.9L37.9,190.9z"/>
		<path class="st6" d="M34,196.1c-10-1.1-18.2,7.1-22.8,15c-2.4,4.2-4.1,9-4.1,13.9c0,4.9,1.8,9.4,4.7,13.3
			c3.1,4.1,7.2,7.4,11.2,10.6c2.2,1.7,4.3,3.4,6.4,5.2c1.8,1.6,3.8,3.2,4.7,5.5c1.8,4.9-3.1,8.6-6.3,11.3c-2,1.7-4.1,3.3-6.1,5
			c-1.6,1.3-3.2,2.7-4.3,4.5c-1.3,2.3-1,4.6,1.1,6.3c2.1,1.7,4.8,2.8,7.2,4c5.3,2.6,11.1,5,17.1,4.5c1-0.1,1.2,1.6,0.2,1.7
			c-5.6,0.8-10.8-0.7-15.9-3c-2.6-1.1-5-2.4-7.5-3.8c-2.1-1.2-4.2-2.5-5.1-4.9c-1.7-4.4,2-8.3,5.1-10.9c2.1-1.8,4.4-3.5,6.5-5.2
			c2-1.6,4.3-3.3,5.5-5.6c1.4-2.6-0.1-4.7-2-6.5c-2.1-2-4.4-3.8-6.6-5.6c-4.3-3.4-8.8-6.7-12.3-11c-3.3-4-5.6-8.6-6-13.7
			c-0.4-5.1,0.9-10.2,3.1-14.8c4.6-9.5,14.7-19.6,26.2-18.2C35.3,194.1,35.3,196.2,34,196.1L34,196.1z"/>
		<path class="st6" d="M35,206.4c-3.8,1.5-5.3,5.3-5.8,9.1c-0.5,3.7-0.1,7.5,0.8,11.1c1.8,7.5,5.8,14.5,10.8,20.3
			c2.5,2.9,5.3,5.2,8.2,7.6c3.1,2.6,6.2,5.4,7.8,9.2c1.5,3.5,1.8,7.6,0.7,11.3c-1.1,3.6-3.5,6.4-6.4,8.6c-3.3,2.5-7.3,4.1-11.1,5.6
			c-1,0.4-2,0.7-2.9,1.2c-0.4,0.2-1.2,0.6-1.4,1c-0.3,0.6,0.4,0.9,0.9,1.2c2.4,1.3,5.1,2.1,7.7,2.8c0.8,0.2,0.5,1.4-0.3,1.2
			c-2.5-0.4-4.8-1.1-7.1-2c-1.6-0.7-3.7-1.5-3.1-3.7c0.6-1.8,2.8-2.5,4.3-3.2c1.8-0.8,3.7-1.5,5.5-2.4c3.5-1.6,7-3.5,9.5-6.6
			c2.6-3.3,3.4-7.7,2.4-11.8c-1.1-4.3-4.1-7.4-7.4-10.1c-3.1-2.5-6.1-5-8.7-8.1c-5.2-6.1-9.2-13.5-11.1-21.3
			c-1-4.2-1.3-8.5-0.5-12.8c0.8-4.2,2.8-8.1,7-9.7C35.5,204.7,35.9,206.1,35,206.4L35,206.4z"/>
		<path class="st6" d="M39.3,201.2c-1.9,6.7-2.1,13.9,0.3,20.4c2.1,5.6,6,10,11,13.1c0.8,0.5,0.3,2-0.7,1.6
			c-5.9-2.4-10.1-7.8-12.3-13.6c-2.7-7-2.2-14.9-0.1-22C37.9,199.7,39.6,200.1,39.3,201.2L39.3,201.2z"/>
		<path class="st6" d="M155.9,197.6c5-5.9,5.4-14.2,4-21.5c-1.2-6.2-3.6-12.1-7.1-17.3c-6.7-10-17.2-17-28.4-21
			c-11.4-4.1-24-5.4-36-3.6c-13.5,2.1-25.9,8.4-35.4,18.2c-10,10.3-16.7,24.3-15.5,38.9c0.1,1.9,0.4,3.7,0.7,5.6
			c0.2,1-1.3,1.5-1.6,0.4c-3.8-14.9,1.5-30.4,10.9-42c9.1-11.3,22-19.4,36.2-22.5c12.4-2.7,25.6-1.9,37.7,1.7
			c12,3.6,23.3,10.3,31.1,20.3c3.9,5,6.7,10.8,8.3,16.9c1.9,7.2,2.3,15.4-0.9,22.3c-0.8,1.7-1.8,3.2-3,4.6
			C156.3,199.4,155.2,198.4,155.9,197.6L155.9,197.6z"/>
		<path class="st6" d="M142.9,167.9c3.9,4.8,6.9,10.2,8.7,16.1c1.9,6,2.7,12.3,3,18.6c0,1.1-1.5,1-1.6,0c-0.7-6-1.6-11.9-3.2-17.7
			c-1.7-5.7-4.4-11-8-15.7C141,168.3,142.2,167,142.9,167.9L142.9,167.9z"/>
		<path class="st6" d="M116.5,267c-4.6,4.2-8.4,10.3-15.1,11.2c-6.8,1-13.2-3.8-13.9-10.6c-0.1-0.9,1.4-1.1,1.6-0.2
			c1.5,5.9,7.2,10.1,13.3,8.5c5.4-1.4,8.9-6.6,12.9-10.1C116.1,265.1,117.3,266.3,116.5,267L116.5,267z"/>
		<path class="st6" d="M97.4,282.1c-3-0.7-5.6-2.6-7.5-5c-1.8-2.3-3-5.6-2.3-8.6c0.1-0.4,0.8-0.5,0.9,0c0.2,1.4,0.4,2.7,0.9,4
			c0.5,1.3,1.1,2.5,1.9,3.6c1.6,2.2,3.9,3.9,6.6,4.6C98.8,280.9,98.4,282.3,97.4,282.1L97.4,282.1z"/>
		<path class="st6" d="M141.5,294.5c-6.4,4.6-8.2,4.7-16,5.9c-3.6,0.5-7.3,0.9-10.9,0.5c-3.1-0.3-6.1-1.4-8.9-2.7
			c-3.1-1.4-6.3-3.2-8.5-5.9c-0.6-0.7,0.4-1.8,1.1-1.1c2,2,4.6,3.5,7.2,4.7c2.7,1.3,5.6,2.4,8.6,2.8c3.3,0.5,6.9,0.2,10.2-0.3
			c3.7-0.5,7.2-1.4,10.7-2.7c4-1.5,2.2-0.5,5.8-2.7C141.6,292.6,142.3,293.9,141.5,294.5L141.5,294.5z"/>
		<path class="st6" d="M98.1,282.8c0.2,3.4,0.7,6.7,1.3,10c0.2,1.1-1.3,1.5-1.7,0.5c-0.5-1.7-0.9-3.4-1.2-5.1
			c-0.3-1.8-0.5-3.5-0.6-5.3C95.9,281.5,98,281.5,98.1,282.8L98.1,282.8z"/>
		<path class="st6" d="M146.1,224.1c-1.8,2.2-3.8,4.3-5.9,6.2c-2.1,1.9-11.7,6.4-14.3,7.7c-0.8,0.4-1.7-0.6-1-1.3
			c2.1-1.8,11.8-6,14-7.8c2.1-1.8,4.2-3.8,6-5.9C145.7,222.1,146.8,223.3,146.1,224.1L146.1,224.1z"/>
		<path class="st6" d="M126.2,237.9c-4.9,2.8-10,5.1-15.1,7.5c-4.8,2.3-9.4,4.8-14,7.5c-1,0.6-2.1-0.8-1.2-1.6c1.8-1.6,4-2.9,6.1-4
			c2.6-1.3,5.2-2.6,7.8-3.8c5.2-2.4,10.4-4.6,15.4-7.3C126.3,235.6,127.3,237.2,126.2,237.9L126.2,237.9z"/>
		<path class="st6" d="M143.1,245.1c-1.1,0.8-2.1,1.7-3.1,2.7c-0.5,0.5-1.1,1-1.6,1.4c-0.5,0.4-13.1,11.3-13.7,11.7
			c-0.9,0.6-1.9-0.8-1.1-1.5c0.5-0.4,13-11.4,13.5-11.8c0.5-0.5,1.1-0.9,1.6-1.4c1.1-0.9,2.1-1.9,3.2-2.7c0.4-0.3,1-0.1,1.3,0.3
			C143.4,244.2,143.5,244.8,143.1,245.1L143.1,245.1z"/>
		<path class="st6" d="M132.9,212.9c-4-0.3-7.9-0.2-11.9,0.4c-0.4,0.1-1.1,0-1.3,0.5c-0.3,0.5-0.1,1.2,0,1.7
			c0.2,1.1,0.4,2.2,0.7,3.3c0.4,1.8,0.9,3.6,1.5,5.3c0.6,1.7,1.3,3.4,2.1,5c0.4,0.8,0.8,1.6,1.3,2.4c0.5,0.9,1,2.1,2.1,2.4
			c3.3,0.9,3.8-7.1,4.1-9c0.2-2.3,0.4-4.5,0.5-6.8c0.1-2,0-4.2,0.5-6.2c0.1-0.5,1.1-0.6,1.1,0c0.3,2.2,0.1,4.5,0,6.8
			c-0.1,2.4-0.3,4.8-0.6,7.2c-0.4,2.9-0.9,9.6-5,9.8c-2.4,0.1-3.5-2-4.5-3.7c-1-1.9-2-3.8-2.7-5.9c-0.7-2-1.2-4-1.7-6.1
			c-0.3-1.2-0.5-2.4-0.7-3.6c-0.2-1.1-0.7-2.2-0.1-3.3c0.6-1,1.6-1.2,2.7-1.4c1.3-0.2,2.6-0.4,3.9-0.4c2.7-0.2,5.4,0,8.2,0.3
			C133.8,211.4,133.9,213,132.9,212.9L132.9,212.9z"/>
		<path class="st6" d="M154.9,203.1c1.5,2.7,2.9,5.3,3.7,8.3c0.6,2.6,0.9,5.2,0.6,7.8c-0.6,5.2-3.2,10.4-7.5,13.6
			c-0.5,0.4-1.2-0.4-0.9-0.9c2.6-4.1,5.5-8,6-13c0.2-2.4,0-4.7-0.6-7.1c-0.6-2.7-1.5-5.5-2.7-8C153,203,154.3,202.2,154.9,203.1
			L154.9,203.1z"/>
		<path class="st6" d="M143,296c0.9,2.3,2.9,4,4.1,6.2c0.3,0.6,0.1,1.3-0.4,1.7c-0.5,0.3-1,0.6-1.5,0.7c-0.3,0.1-0.5,0-0.7,0.1
			c-0.2,0.2-0.4,0.4-0.7,0.6c-0.9,0.8-2.1,1.4-3.1,2.1c-2,1.2-4.2,2.2-6.5,2.5c-0.9,0.1-1.1-1.4-0.2-1.5c2.2-0.4,4.2-1.6,6.1-2.6
			c1-0.6,2-1.2,3.1-1.7c0.2-0.1,0.6-0.2,0.7-0.3c0.1,0,0.2-0.4,0.3-0.6c0.3-0.5,0.8-0.9,1.3-1.2c-0.1,0.6-0.3,1.1-0.4,1.7
			c-0.6-1.1-1.4-2.1-2.2-3.1c-0.9-1.1-1.6-2.3-2.2-3.6c-0.3-0.6,0.3-1.4,0.9-1.6C142.1,294.9,142.7,295.3,143,296L143,296z"/>
		<path class="st6" d="M132.2,301.5c0.6,1.2,1.1,2.5,1.5,3.8c0.2,0.6,0.4,1.2,0.6,1.8c0.1,0.3,0.1,0.6,0.2,0.9c0.1,0.4,0,0.8,0,1.2
			c0,0.7-0.9,1-1.3,0.4c-0.1-0.3-0.3-0.5-0.5-0.8c-0.2-0.3-0.3-0.7-0.4-1c-0.2-0.6-0.4-1.2-0.6-1.8c-0.4-1.2-0.9-2.3-1.4-3.4
			c-0.2-0.5-0.1-1.1,0.4-1.4C131.2,300.9,132,301,132.2,301.5L132.2,301.5z"/>
		<path class="st6" d="M130.2,302.4c0.2,2,0.4,4,0.5,6c0,0.3-0.3,0.5-0.5,0.5c-0.3,0-0.5-0.3-0.5-0.5c-0.2-2-0.2-4-0.3-6
			c0-0.2,0.2-0.4,0.4-0.4C130.1,302,130.2,302.2,130.2,302.4L130.2,302.4z"/>
		<path class="st6" d="M130.5,309.5c-12.2,4-27.6,1.4-36.9-7.8c-0.7-0.7,0.3-1.6,1-1c4.8,4,10.8,6.5,16.8,7.6
			c6.1,1.1,12.5,1.1,18.4-0.9C131.3,307,131.8,309,130.5,309.5L130.5,309.5z"/>
		<path class="st6" d="M97.5,294.9c-0.5,1-0.9,1.9-1.4,2.9c-0.2,0.5-0.5,1-0.7,1.5c-0.2,0.5-0.5,0.9-0.8,1.4
			c-0.4,0.6-1.4,0.2-1.2-0.5c0.2-0.5,0.3-1.1,0.6-1.6c0.2-0.5,0.5-1,0.7-1.5c0.5-1,1-2,1.4-2.9c0.2-0.4,0.7-0.5,1-0.3
			C97.6,294.1,97.7,294.5,97.5,294.9L97.5,294.9z"/>
		<path class="st6" d="M90.9,300c-3.3-0.6-6.4-1.8-9-3.8c-1.3-1-2.5-2.1-3.6-3.4c-1-1.2-2.3-2.7-2.6-4.3c-0.1-0.8,0.7-1.4,1.3-0.8
			c0.6,0.5,1,1.2,1.4,1.8c0.5,0.6,0.9,1.2,1.4,1.8c1,1.1,2.1,2.2,3.3,3.1c2.4,1.9,5.2,3.3,8.1,4.1C92.3,298.8,91.9,300.2,90.9,300
			L90.9,300z"/>
		<path class="st6" d="M88.2,271.6c-2.5,1.8-4.9,3.8-7.5,5.5c-2.4,1.6-5.3,3.5-8.3,3.6c0.4-0.5,0.7-1,1.1-1.5
			c0.6,2.9,1.6,5.7,2.9,8.4c0.5,1-0.9,1.9-1.5,0.9c-1.7-2.7-2.9-5.5-3.6-8.6c-0.2-0.8,0.3-1.4,1.1-1.5c2.7-0.1,5.4-2,7.6-3.4
			c2.5-1.6,4.8-3.4,7.2-5.1C88.3,269.3,89.2,270.9,88.2,271.6L88.2,271.6z"/>
		<path class="st6" d="M80.3,294.8c-0.9,0.9-1.6,1.9-2.2,3c-0.6,1.1-1.2,2.3-1.8,3.4c-0.2,0.3-0.6,0.4-0.9,0.3
			c-0.3-0.2-0.5-0.5-0.4-0.9c0.5-2.7,2.3-5.1,4.3-7C79.9,293,81,294.1,80.3,294.8L80.3,294.8z"/>
		<path class="st6" d="M131.8,253.8c1.5,5.4,8.6,34.9,10.2,40.3c0.3,1.1-1.5,1.9-1.9,0.8c-2.2-5.2-8.6-33.8-10.1-39.3
			c-0.4-1.3,1.5-2.7,1.9-1.4L131.8,253.8z"/>
		<path class="st6" d="M97.4,294.2c-0.7,1.3-1.6,2.5-2.7,3.4c-1.2,1-2.5,1.8-4,2c-0.4,0.1-0.7-0.1-0.9-0.4c-0.1-0.3,0-0.8,0.3-0.9
			c1.2-0.5,2.5-1.1,3.5-1.9c1-0.7,1.9-1.8,2.5-2.9C96.6,292.6,97.8,293.4,97.4,294.2L97.4,294.2z"/>
		<path class="st6" d="M83.1,285.7c-1,0.7-2,1.4-3.1,1.9c-0.5,0.3-1.1,0.5-1.7,0.8c-0.3,0.1-0.6,0.3-0.9,0.4
			c-0.3,0.1-0.6,0.1-0.9,0.2c-0.3,0-0.5,0-0.6-0.3c-0.1-0.3,0-0.5,0.2-0.7c0.3-0.2,0.5-0.4,0.8-0.5c0.3-0.1,0.6-0.2,0.9-0.3
			c0.5-0.2,1-0.5,1.6-0.7c1.1-0.5,2.1-1.2,3.1-1.8c0.3-0.2,0.7-0.1,0.9,0.2C83.5,285.2,83.3,285.5,83.1,285.7L83.1,285.7z"/>
		<path class="st6" d="M67.9,235.1c-1.6-1.1-3.3-1.8-5.2-2.1c-1.9-0.4-3.7-0.3-5.6-0.3c-1.1,0-1.2-1.5-0.3-1.9
			c2-0.7,4.3-0.6,6.3-0.1c2,0.5,3.9,1.4,5.6,2.7c0.4,0.3,0.6,0.8,0.3,1.3C68.9,235.2,68.3,235.4,67.9,235.1L67.9,235.1z"/>
		<path class="st6" d="M62.8,232.9C62.8,232.8,62.8,232.8,62.8,232.9c0,0.1-0.1,0.1-0.1,0.1c-0.1,0.1-0.1,0.2-0.2,0.3
			c-0.1,0.2-0.2,0.3-0.3,0.5c0,0.1,0,0.1,0,0c0,0,0,0.1-0.1,0.1c0,0.1-0.1,0.2-0.1,0.3c-0.1,0.2-0.1,0.4-0.2,0.6c0,0,0,0.1,0,0.1
			c0,0,0,0.2,0,0.1c0-0.1,0,0,0,0.1c0,0,0,0.1,0,0.1c0,0.2,0,0.4,0,0.6c0,0.2,0,0.4,0,0.6c0,0.3,0,0.5,0,0.7c0,0.3-0.3,0.5-0.6,0.5
			c-0.3,0-0.6-0.1-0.7-0.3c-0.3-0.4-0.4-1-0.4-1.6c0-0.5,0.1-1,0.2-1.5c0.2-1,0.7-1.9,1.4-2.6c0.3-0.3,0.9-0.3,1.2,0
			C63.1,232.1,63,232.5,62.8,232.9L62.8,232.9z"/>
		<path class="st6" d="M80.3,210.4c-4.1,6.1-4.5,13.6-3.5,20.6c0.5,3.8,1.5,7.4,2.3,11.1c0.7,3.2,1.2,6.8,0,10
			c-1.1,2.8-3.2,5.3-6.3,5.8c-0.7,0.1-1-0.9-0.3-1.1c2.9-0.7,4.7-3.3,5.4-6.1c0.8-3.5-0.2-7.2-1-10.7c-1.6-6.7-2.8-13.6-1.6-20.5
			c0.6-3.5,1.9-6.9,4-9.9C79.7,209.1,80.8,209.8,80.3,210.4L80.3,210.4z"/>
		<path class="st6" d="M73.6,214.5c-1.5,4.1-2.1,8.4-1.9,12.7c0.2,4.2,1.4,8.2,2.6,12.2c1.1,3.5,2.3,7.2,2.4,10.9
			c0,2.8-0.7,6-3.3,7.5c-0.6,0.3-1.1-0.5-0.5-0.9c2.7-2,3-5.5,2.5-8.6c-0.6-3.9-2.1-7.6-3.3-11.3c-1.1-3.8-1.9-7.5-1.8-11.5
			c0.1-3.9,0.8-7.8,2.2-11.4C72.8,213.6,73.9,213.9,73.6,214.5L73.6,214.5z"/>
		<path class="st6" d="M73.1,198.9c-9.9,4-22.1,3.2-31-2.9c-0.7-0.5-0.1-1.5,0.6-1.1c9.2,5.1,20.1,6.4,30.1,2.8
			C73.6,197.4,73.9,198.6,73.1,198.9L73.1,198.9z"/>
		<path class="st6" d="M83.3,205.9c-5.7,3.8-12.6,5.5-19.4,4.7c-6.3-0.7-12.1-3.5-16.7-7.8c-2.5-2.4-4.9-5.3-6.2-8.5
			c-0.2-0.6,0.5-1,0.8-0.5c1.6,2.6,3.2,5,5.3,7.1c2.1,2,4.5,3.8,7,5.1c5.6,2.9,12,3.7,18.3,2.6c3.6-0.6,7.1-2,10.2-3.9
			C83.4,204.3,84,205.5,83.3,205.9L83.3,205.9z"/>
		<path class="st6" d="M59.3,213.2c-4-1.1-7.7-3.2-10.3-6.4c-0.4-0.4,0.2-1.1,0.6-0.6c2.7,2.9,6.1,5,10,6.1
			C60.2,212.4,59.9,213.4,59.3,213.2L59.3,213.2z"/>
		<path class="st6" d="M97.8,163c-10.2,13.7-15.5,30.6-15.5,47.6c0,4.8,0.5,9.5,1.1,14.2c0.1,0.8-1.1,0.9-1.3,0.2
			c-2.3-8.3-2.3-17.2-1.2-25.7c1.2-8.6,3.8-17,7.6-24.7c2.2-4.4,4.8-8.6,7.8-12.5C96.9,161.3,98.5,162.1,97.8,163L97.8,163z"/>
		<path class="st6" d="M108.7,157.1c2.7,7,4.5,14.3,5.5,21.7c1,7.2,1.3,14.7,0.1,21.9c-0.1,0.6-1.1,0.5-1.1-0.1
			c0.2-7.3,0.3-14.5-0.6-21.8c-0.9-7.3-2.7-14.5-5.3-21.3C107,156.7,108.4,156.3,108.7,157.1L108.7,157.1z"/>
		<path class="st6" d="M115.3,155.7c4.8,6.6,8.4,13.9,10.7,21.8c2.2,7.7,3.4,15.9,2.3,23.9c-0.1,0.5-0.9,0.4-0.9-0.1
			c-0.3-8-0.8-15.8-3.1-23.5c-2.2-7.6-5.6-14.9-10.1-21.4C113.7,155.7,114.9,155.1,115.3,155.7L115.3,155.7z"/>
		<path class="st6" d="M131.2,154.7c3.8,5.6,7,11.6,9.4,18c2.3,6,4.2,12.7,4.6,19.2c0.2,3.3-0.3,6.8-2.5,9.3
			c-0.5,0.6-1.5-0.2-1.1-0.8c2.1-3.3,2.3-7.2,1.7-11c-0.6-4-1.6-7.9-2.8-11.8c-2.5-7.9-6.1-15.3-10.7-22.1
			C129.3,154.6,130.6,153.9,131.2,154.7L131.2,154.7z"/>
		<path class="st6" d="M139.5,198.7c-0.1-1.5-0.3-3-0.4-4.5c0.5,0,1.1,0,1.6,0c0,1.3-0.1,2.6-0.3,3.9c-0.1,0.5-0.1,1.1-0.4,1.6
			c-0.3,0.5-0.9,0.6-1.4,0.7c-1.3,0.1-2.6,0.2-3.9,0.3c-1.4,0.1-2.8,0-4.1,0c-0.6,0-0.8-1-0.1-1.1c1.1-0.2,2.3-0.3,3.4-0.5
			c1.2-0.1,2.4-0.2,3.5-0.2c0.3,0,0.6,0,0.9-0.1c0.1,0,0.3,0,0.4,0c0.1,0,0.2-0.1,0.1,0c-0.1,0.1,0-0.3,0-0.4c0-0.3,0.1-0.6,0.1-0.8
			c0.1-1.2,0.2-2.3,0.2-3.5c0-1,1.5-1,1.6,0c0.1,1.5,0.3,3,0.4,4.5c0,0.4-0.4,0.8-0.8,0.8C139.8,199.5,139.6,199.1,139.5,198.7
			L139.5,198.7z"/>
		<path class="st6" d="M130.3,181.5c1.3,5.6,1.9,11.5,1.1,17.2c-0.1,0.7-1.2,0.8-1.2,0c0.4-5.7,0.1-11.3-1.1-16.9
			C129.1,181.1,130.2,180.8,130.3,181.5L130.3,181.5z"/>
		<path class="st6" d="M116.4,157.6c3.5,5.5,5.6,11.9,6.3,18.3c0.4,3.4,0.5,6.8,0.3,10.2c-0.2,3.2-0.8,6.5-2.5,9.3
			c-1.6,2.8-4.1,5.3-7.1,6.7c-0.6,0.3-1-0.5-0.5-0.9c3-2.3,5.5-5,7-8.5c1.5-3.7,1.6-7.8,1.5-11.8c-0.2-7.9-1.7-16-5.8-22.9
			C115.3,157.5,116,157.1,116.4,157.6L116.4,157.6z"/>
		<path class="st6" d="M108.1,158.4c1.7,15.1-3.8,30.9-14.5,41.7c-3,3-6.4,5.7-10,7.8c-0.3,0.1-0.5-0.2-0.2-0.4
			c12-8.6,20.4-22.1,22.8-36.6c0.7-4.1,0.8-8.3,0.5-12.5C106.5,157.4,108,157.4,108.1,158.4L108.1,158.4z"/>
		<path class="st6" d="M85.4,198.5c-1.9,7.9-2.3,16-2.1,24.1c0,0.5-0.8,0.6-0.9,0.1c-1.2-8.2-0.2-16.5,1.9-24.5
			C84.6,197.5,85.6,197.8,85.4,198.5L85.4,198.5z"/>
		<path class="st6" d="M134.7,155.3c4.8,5.8,8.3,12.7,9.9,20c0.8,3.6,1.3,7.4,1.2,11.1c0,1.9-0.2,3.7-0.4,5.6
			c-0.3,1.9-0.5,3.9-1.2,5.6c-0.1,0.3-0.7,0.3-0.6-0.1c0.1-1.8,0.5-3.5,0.7-5.3c0.2-1.8,0.2-3.6,0.2-5.4c-0.1-3.7-0.4-7.3-1.3-10.9
			c-1.7-7.2-4.7-14-9.3-19.7C133.3,155.6,134.2,154.7,134.7,155.3L134.7,155.3z"/>
		<path class="st6" d="M37.2,206.7c-4.1,6.9-1.7,15.6,2.6,21.8c4.7,6.8,11.4,11.8,16.7,18c4.8,5.7,8.8,12.5,8.3,20.2
			c-0.4,6.6-3.8,12.9-9,17c-3,2.3-6.4,3.5-10,4.5c-3.5,0.9-7.4,1.8-9.6,4.9c-0.5,0.7-1.7,0.1-1.2-0.7c3.2-6.1,11.4-5.6,16.8-8.4
			c5.9-3.2,10.1-9.4,11-16c1.1-7.9-3.3-15-8.3-20.6c-5.5-6-12.1-11.1-16.6-17.9c-4.6-6.9-6.8-16.4-2-23.7
			C36.4,205.2,37.6,205.9,37.2,206.7L37.2,206.7z"/>
		<path class="st6" d="M33.7,196.2c-10.8-0.2-21.3,5.1-27.2,14.2c-2.8,4.3-4.8,9.5-5.1,14.6c-0.2,2.9,0.2,5.8,1.7,8.3
			c1.3,2.2,3.2,4,5.3,5.4c5.4,3.6,12,4.5,17.9,6.9c0.4,0.2,0.2,0.8-0.2,0.6c-5.8-1.9-12-2.9-17.4-6c-4.6-2.7-8-6.9-8.6-12.3
			c-0.6-5.6,1.2-11.5,4-16.4c2.7-4.7,6.5-8.7,11.1-11.6c5.5-3.4,12-5.1,18.5-4.8C34.4,195.1,34.4,196.2,33.7,196.2L33.7,196.2z"/>
		<path class="st6" d="M46,160.1c-5.9,3.1-11,8.2-13.4,14.6c-2.4,6.5-1.8,13.8,2.1,19.6c0.4,0.6-0.5,1-0.9,0.5
			c-4.3-5.7-4.9-13.8-2.4-20.4c2.5-6.6,7.8-11.8,14.1-15C46,159,46.5,159.8,46,160.1L46,160.1z"/>
		<g>
			<path class="st6" d="M150.4,209c-2.2-1.3-4.9-1.8-7.4-1.2c-1.1,0.3-2.3,0.7-3.3,1.3c-1.1,0.7-1.8,1.7-2.9,2.2
				c-0.8,0.4-1.4-0.2-1.3-1c0.2-1.5,1.6-2.7,2.7-3.5c1.2-0.9,2.6-1.6,4.1-2c3.3-0.7,6.7-0.1,9.4,1.9c0.6,0.4,0.8,1.1,0.5,1.8
				C151.8,209.1,151,209.3,150.4,209L150.4,209z"/>
			<path class="st6" d="M151.1,206.8c-2.2-1.3-5-1.7-7.4-1.2c-3.1,0.6-5.5,2.6-8.1,4.2c-0.6,0.4-1.1-0.3-0.8-0.8
				c1.5-3.3,5-5.3,8.5-5.9c1.6-0.3,3.2-0.2,4.8,0.1c1.5,0.4,2.9,1.2,4.1,2.1C153,206,151.9,207.3,151.1,206.8L151.1,206.8z"/>
			<path class="st6" d="M147.3,200.8c-4.1-0.8-8.6,1.1-11.1,4.5c-0.5,0.6-1.5,0.1-1.1-0.6c2.6-4.1,7.8-6.1,12.5-5.1
				C148.4,199.7,148.1,201,147.3,200.8L147.3,200.8z"/>
		</g>
		<g>
			<path class="st4" d="M64,219.4c-0.1,0-0.1,0-0.2,0c-0.2,0-0.5,0-0.7,0c-0.3,0.1-0.6,0.2-0.6,0.2c0,0-0.1,0-0.1,0
				c-0.1,0-0.3,0-0.4-0.1c-0.2-0.1-0.3-0.2-0.3-0.4c0-0.1-0.3-2.4-0.2-6c-2.8-0.3-11.3-1.9-12.6-9.8c-0.2-1.4-0.1-2.5,0.4-3.3
				c0.4-0.5,0.9-0.9,1.6-1c3.1-0.5,8.6,3.3,11.1,8c0.3-1.9,0.6-3.9,1.1-5.8c0.1-0.3,0.1-0.5,0.2-0.8c-2.7-0.8-9.1-3.5-9.9-11.1
				c-0.3-3.1,1-3.8,1.8-3.9c1.2-0.2,2.6,0.6,3.5,1.3c2.4,1.8,5,5.3,6,8.8c0.9-2.6,1.9-5.2,3.2-7.6c-2.5-1.3-8.1-5.2-7.5-12.6
				c0.2-2.6,1.2-3.4,2.1-3.5c0.8-0.1,1.8,0.2,2.8,1.2c2.3,2,4.6,6.3,5.1,10.4c1.5-2.4,3.1-4.8,5-7c-1.6-2.1-5.1-8-1.6-15.5
				c0.8-1.7,1.7-2.6,2.6-2.8c0.5-0.1,1.2,0,1.8,0.9c1.7,2.1,2.3,8.1,1.1,13c1.3-1.3,2.7-2.6,4.1-3.9c0.1-3.2,1.2-12.4,9.9-15.3
				c0.6-0.2,1.1-0.3,1.7-0.4c3.3-0.6,4,1.4,4.2,2.2c0.7,4.3-6.2,14.1-13.4,15.3c0,0,0,0,0,0c-0.1,0-0.2,0-0.3,0
				c-1.2,1-2.3,2-3.3,3.1c1.2-0.5,2.5-0.8,3.8-1c4-0.7,8.5-0.2,9.5,1.9c0.4,0.8,0.3,2.1-1.8,3.9c-1.8,1.5-3.8,2.4-5.9,2.7
				c-4.6,0.8-8.7-1.2-10.3-2.2c-1.6,1.9-3,4-4.3,6c1.5-0.8,3.3-1.5,5.1-1.8c2.7-0.5,4.8,0,5.4,1.1c0.5,0.9,0.2,2-0.9,3.3
				c-1.5,1.8-3.4,2.8-5.7,3.2c-2.8,0.5-5.3-0.3-6.7-0.8c-1.1,2.2-2,4.5-2.8,6.8c2-1.6,4.6-2.5,6.5-2.8c2.6-0.4,4.6,0,5.3,1.1
				c0.4,0.6,0.6,1.7-0.5,3.4c-1.4,2.1-3.5,3.4-6,3.9c-2.7,0.5-5.3-0.2-6.8-0.6c0,0.2-0.1,0.4-0.1,0.5c-0.5,2-0.8,4-1.1,6
				c2.3-2.7,5.8-4.6,8.5-5c1.7-0.3,3,0,3.7,0.8c0.7,0.8,0.7,2,0.2,3.5c-1.3,3.5-4.2,5.8-8.5,6.5c-1.7,0.3-3.3,0.3-4.4,0.2
				c-0.1,3.1,0.2,4.9,0.2,4.9c0,0.2,0,0.4-0.2,0.5C64.2,219.3,64.1,219.4,64,219.4z"/>
			<path class="st16" d="M95.5,174.8c0,0-6.8,6.6-17.4,4c2.1,1.8,2,1.2,2,1.2l4.3,1l2.8,0.1l3.9-1.2l2.2-1.5l1.9-1.6L95.5,174.8z"/>
			<path class="st16" d="M70.5,189.8c0,0,2.9-0.1,5.7-0.5c2.8-0.4,5.5-2.3,5.5-2.3l1.9-0.7l-1.5,1.4l-1.8,1.5l-2.2,1.3l-1.9,0.3
				l-2.1,0.1l-2.2-0.5L70.5,189.8L70.5,189.8z"/>
			<path class="st16" d="M66.4,201.6c0,0,5.2-0.5,6.9-1c1.7-0.5,4.7-2.1,4.7-2.1l1.2-0.7l-0.6,1.3l-1.8,1.6l-2.4,1.3l-2.4,0.4
				l-2.5,0.1L66.4,201.6L66.4,201.6z"/>
			<path class="st16" d="M64.4,214.2c0.2-0.1,5.1-1.7,6.9-2.5s3.9-2.8,3.9-2.8l2-2c0,0-0.5,2.4-0.6,2.4c-0.1,0-2.6,2.6-2.6,2.6
				l-2.8,1.6l-3,0.7L64.4,214.2L64.4,214.2z"/>
			<path class="st16" d="M98.5,153.1c0,0-0.7,4.1-2.9,7.2c-2.5,3.6-7.5,6.5-10.5,9.2c-1.1,0.9,1.1,0.7,2.6,0.2
				c1.3-0.4,2.6-1.2,3.6-2.1l2.6-2.4c1.6-1.5,2.9-3.2,3.9-5.2l1.7-4.5L98.5,153.1z"/>
			<path class="st6" d="M95,153.1c8.7-1.5-0.3,14.9-9.4,16.4c-0.1,0-0.3,0-0.4,0.1c-2.1,1.8-4.1,3.7-5.9,5.7
				c1.9-1.3,4.3-2.2,6.7-2.6c6.2-1,12,0.8,7.2,4.8c-1.9,1.5-3.8,2.3-5.7,2.6c-5,0.8-9.4-1.7-10.4-2.4c-2,2.4-3.8,5-5.4,7.7
				c-0.2,0.4-0.5,0.8-0.7,1.2c1.8-1.8,4.6-2.9,7.1-3.3c3.7-0.6,6.6,0.4,3.9,3.4c-1.6,1.9-3.5,2.7-5.3,3c-3.1,0.5-5.9-0.5-6.9-0.9
				c-1.6,3.1-2.9,6.4-3.9,9.8c1.7-2.4,5.1-4,7.9-4.4c3.6-0.6,6.4,0.5,4.2,3.7c-1.5,2.3-3.6,3.3-5.7,3.6c-3.1,0.5-6.1-0.4-7.1-0.8
				c-0.1,0.4-0.2,0.8-0.3,1.1c-0.7,3.1-1.1,5.9-1.3,8.3c1.8-3.5,6.3-6.1,9.5-6.7c2.6-0.4,4.3,0.5,3.2,3.6c-1.5,4.1-5,5.6-8,6.1
				c-2.1,0.3-3.9,0.2-4.9,0.1c-0.1,3.5,0.2,5.6,0.2,5.6c-0.3,0-0.6,0-0.9,0c-0.4,0.1-0.7,0.2-0.7,0.2s-0.4-2.6-0.2-6.5
				c-2.1-0.2-11.3-1.3-12.7-9.4c-0.4-2.3,0.3-3.4,1.6-3.6c3.2-0.5,9.8,4.4,11.3,9.7c0.2-2.4,0.6-5,1.3-8c0.1-0.4,0.2-0.9,0.3-1.3
				c-2-0.5-9.2-2.9-10-10.8c-0.2-2.1,0.3-3.1,1.3-3.3c2.7-0.5,8.8,6.1,9.3,11.9c1-3.5,2.4-6.9,4.1-10.2c-2.1-1-8.3-4.7-7.7-12.3
				c0.2-1.9,0.8-2.8,1.6-3c2.7-0.4,7.6,7,7.4,12.9c0.2-0.3,0.3-0.6,0.5-0.9c1.7-2.8,3.6-5.5,5.7-8.1c-1.3-1.6-5.5-7.6-1.8-15.2
				c0.8-1.6,1.5-2.3,2.2-2.5c2.7-0.4,4.2,9.3,1.5,15.5c1.9-2.1,3.9-4,6-5.9c0.1-3.2,1-12.2,9.5-15C94,153.3,94.5,153.1,95,153.1
				 M94.8,151.9c-0.5,0.1-1.1,0.2-1.7,0.4c-4,1.3-6.9,4-8.6,8c-1.3,2.9-1.6,5.8-1.7,7.6c-0.9,0.8-1.8,1.6-2.6,2.4
				c0.7-4.6,0-9.6-1.6-11.6c-0.9-1.1-1.9-1.2-2.4-1.1c-1.1,0.2-2.1,1.2-3,3.1c-3.5,7.4-0.4,13.3,1.4,15.7c-1.4,1.8-2.7,3.6-3.9,5.5
				c-0.8-3.7-3-7.4-5.1-9.2c-1.2-1-2.3-1.5-3.3-1.3c-1,0.2-2.3,1-2.5,4c-0.6,7.3,4.6,11.3,7.3,12.9c-0.9,1.8-1.7,3.7-2.4,5.7
				c-1.3-3.1-3.6-5.9-5.7-7.6c-1.5-1.2-2.8-1.6-4-1.5c-1,0.2-2.6,1-2.2,4.5c0.7,7.5,6.7,10.4,9.8,11.5c0,0.1,0,0.2-0.1,0.2
				c-0.3,1.4-0.6,2.8-0.8,4.3c-1-1.4-2.2-2.8-3.7-4c-2.6-2.1-5.3-3.2-7.2-2.9c-0.9,0.1-1.5,0.6-2,1.2c-0.6,0.9-0.8,2.1-0.5,3.7
				c1.4,7.9,9.3,9.7,12.6,10.2c-0.1,3.3,0.2,5.5,0.2,5.6c0,0.4,0.3,0.7,0.6,0.8c0.2,0.1,0.5,0.2,0.8,0.1c0.1,0,0.2,0,0.2-0.1
				c0,0,0,0,0,0c0,0,0.2-0.1,0.5-0.1c0.2,0,0.4,0,0.6,0c0.1,0,0.2,0,0.3,0c0.2,0,0.5-0.2,0.6-0.3c0.2-0.3,0.4-0.6,0.3-1
				c0,0-0.2-1.6-0.2-4.3c1.1,0,2.4,0,3.9-0.2c4.5-0.8,7.6-3.1,8.9-6.8c0.6-1.7,0.5-3.1-0.3-4.1c-0.5-0.6-1.4-1.2-3.1-1.2
				c2-0.7,3.7-1.9,4.9-3.7c1.3-2,1-3.3,0.5-4c-0.9-1.4-3-1.9-5.9-1.4c-1.6,0.3-3.5,0.9-5.3,1.9c0.6-1.6,1.3-3.1,2-4.7
				c1.5,0.5,3.9,1.1,6.5,0.6c2.4-0.4,4.4-1.5,6-3.4c1.6-1.9,1.4-3.2,1-3.9c-1.1-2-4.6-1.7-6-1.4c-1.2,0.2-2.3,0.5-3.4,1
				c0.9-1.3,1.8-2.6,2.8-3.9c1.9,1.1,5.9,2.8,10.3,2c2.2-0.4,4.3-1.3,6.2-2.9c2.4-2,2.4-3.6,2-4.6c-1.1-2.5-6-2.9-10.1-2.2
				c-0.5,0.1-1,0.2-1.5,0.3c0.5-0.4,0.9-0.8,1.4-1.3c0,0,0.1,0,0.1,0c3.3-0.6,7-3,10-6.6c3.3-4.1,4.2-7.5,3.9-9.3
				c-0.2-1.1-0.7-1.9-1.6-2.3C97.2,151.8,96.1,151.7,94.8,151.9L94.8,151.9z M65.5,206.2c0.2-1.4,0.5-2.8,0.8-4.1
				c1.3,0.4,3.2,0.7,5.2,0.6C69.5,203.3,67.3,204.5,65.5,206.2L65.5,206.2z"/>
		</g>
		<path class="st6" d="M66.5,224.1c-1.7-1.9-3.6-3.9-6-4.7c-2.4-0.8-4.8-0.1-6.6,1.6c-3.1,3-3.8,7.9-2.6,11.9
			c2,6.9,9.6,11,16.4,11.6c4.8,0.4,9.5-0.5,14.2-1.3c1-0.2,1.4,1.3,0.4,1.5c-4.7,1.3-9.7,2.3-14.6,1.8c-3.8-0.4-7.6-1.6-10.9-3.7
			c-3.7-2.3-6.7-5.8-7.8-10c-1.2-4.6-0.1-10.2,3.5-13.5c2.2-2,5-2.9,7.8-2c3.1,0.9,5.3,3.3,7.4,5.6
			C68.3,223.7,67.2,224.8,66.5,224.1L66.5,224.1z"/>
	</g>
	<g>
		<ellipse class="st17" cx="331.4" cy="168.5" rx="168.6" ry="168.5"/>
		<path class="st18" d="M331.4,0c-93.1,0-168.6,75.4-168.6,168.5c0,16.2,2.3,31.9,6.6,46.8l255.6-187C398.1,10.4,366,0,331.4,0z"/>
		<ellipse class="st19" cx="332.7" cy="166.5" rx="128.3" ry="128.2"/>
		<path class="st20" d="M338.8,44.6c33.8,0,64.6,13.1,87.5,34.5c-23.4-25-56.7-40.7-93.7-40.7c-70.9,0-128.3,57.4-128.3,128.2
			c0,37,15.7,70.3,40.7,93.6c-21.4-22.9-34.5-53.6-34.5-87.5C210.5,102,268,44.6,338.8,44.6z"/>
		<path class="st17" d="M330.9,210.4l0.4-0.2l0.1,0.1c-0.1-0.1-0.1-0.1-0.2-0.2C331.1,210.2,331,210.3,330.9,210.4z"/>
		<path class="st18" d="M421.6,74.2c22.2,23,35.8,54.4,35.8,88.9c0,70.8-57.4,128.2-128.3,128.2c-34.5,0-65.9-13.6-88.9-35.8
			c23.3,24.2,56.1,39.3,92.5,39.3c70.9,0,128.3-57.4,128.3-128.2C460.9,130.3,445.8,97.6,421.6,74.2z"/>
		<path class="st18" d="M370.2,133.2l-9,8.9c15.7-4.8,33-2.7,47.2,6.5c1.6,1,1.6,3.4,0,4.5c-17.8,11.5-40.8,12.1-59.3,1.1
			l-22.5,22.4c20.6-7.4,43.9-4.9,62.8,7.3c1.6,1,1.6,3.4,0,4.5c-22.9,14.8-52.4,15.3-75.7,1.1l-24.9,24.9
			c25.4-9.9,54.5-7.3,77.9,7.8c1.6,1,1.6,3.4,0,4.5c-27.9,18-63.5,18.2-91.4,1.1c-19.7,19.7-18.6,19-20.2,19c-2.4,0-8.1-3.2-6.4-4.8
			l22.8-18c-17.2-28-18.9-67-1-94.7c1.1-1.6,5.6,1.8,6.7,3.4c15.2,23.4,17.8,52.5,7.8,77.8l24.9-24.9c-14.1-23.3-16-56.1-1.1-79.1
			c1.1-1.6,5.7,1.8,6.7,3.4c12.2,18.9,14.6,42.1,7.3,62.8l22.5-22.4c-10.9-18.3-14.2-43.6-2.6-61.6c2.3-3.4,7.2,0.7,8.2,2.3
			c9.2,14.2,11.3,31.5,6.5,47.1l9.1-9.1c4.9-21.2,18-40,39.3-44.6c3.2-0.9,7.3,3.6,6.9,5.5C408.2,111.6,391.5,128.4,370.2,133.2
			L370.2,133.2z"/>
		<path class="st17" d="M366.5,130.9l-9,8.9c15.7-4.8,33-2.7,47.2,6.5c1.6,1,1.6,3.4,0,4.5c-17.8,11.5-40.8,12.1-59.3,1.1
			l-22.5,22.4c20.6-7.4,43.9-4.9,62.8,7.3c1.6,1,1.6,3.4,0,4.5c-22.9,14.8-52.4,15.3-75.7,1.1l-24.9,24.9
			c25.4-9.9,54.5-7.3,77.9,7.8c1.6,1,1.6,3.4,0,4.5c-27.9,18-63.5,18.2-91.4,1.1c-19.7,19.7-18.6,19-20.2,19c-2.4,0-3.6-2.9-1.9-4.6
			l18.3-18.3c-17.2-28-16.8-63.6,1.2-91.3c1.1-1.6,3.4-1.6,4.5,0c15.2,23.4,17.8,52.5,7.8,77.8l24.9-24.9
			c-14.1-23.3-13.7-52.7,1.1-75.7c1.1-1.6,3.4-1.6,4.5,0c12.2,18.9,14.6,42.1,7.3,62.8l22.5-22.4c-10.9-18.3-10.5-41.3,1.1-59.3
			c1.1-1.6,3.4-1.6,4.5,0c9.2,14.2,11.3,31.5,6.5,47.1l9.1-9.1c4.9-21.2,21.7-37.7,43-42.3c1.9-0.4,3.6,1.3,3.2,3.2
			C404.5,109.3,387.8,126.1,366.5,130.9L366.5,130.9z"/>
	</g>
</g>
</svg>
