<svg xmlns="http://www.w3.org/2000/svg" xmlns:xlink="http://www.w3.org/1999/xlink" width="502.564" height="592.23" viewBox="0 0 502.564 592.23">
  <defs>
    <clipPath id="clip-path">
      <rect id="Rectangle_109" data-name="Rectangle 109" width="502.564" height="592.23" fill="none"/>
    </clipPath>
    <clipPath id="clip-path-2">
      <path id="Path_550" data-name="Path 550" d="M251.282,0C112.5,0,0,112.5,0,251.282A250.375,250.375,0,0,0,21.373,352.809c-3.588,13.286-2.316,27.47,9.562,36.908a39.613,39.613,0,0,0,11.316,6.152,31.562,31.562,0,0,0,4.337,1.189q3.336,4.675,6.876,9.192c-.779.7-1.475,1.284-1.862,1.623a20.176,20.176,0,0,0-6.471,10.071c-2.058,7.869.561,16.494,5.43,22.8,5.613,7.266,14.426,11.237,23.1,13.538,3.563.946,7.184,1.639,10.817,2.26a21.287,21.287,0,0,0-7.265,14.423,20.451,20.451,0,0,0,4.523,14.212c-.22,2.825,1.9,4,4.072,3.792a19.261,19.261,0,0,0,1.9,1.18,1.947,1.947,0,0,0,2.923-1.132,1.337,1.337,0,0,0,.642-1.124c.069-5.315,3.4-8.969,7.676-11.411,4.778-2.377,10.518-3.231,16.24-4.7a62.055,62.055,0,0,0,10.856-2.6A251.384,251.384,0,0,0,440.6,416.505c11.037-1.073,21.166-5.686,26.956-12.553,5.112-6.064,6.862-13.76,5.062-22.255-.015-.072-.051-.134-.07-.2a18.133,18.133,0,0,0,6.573-6.5c1.939-3.542.548-6.483-.794-9.327a23.08,23.08,0,0,1-1.442-3.634c.446-.909.894-1.818,1.33-2.732,2.2-3.2,4.415-6.7,4.7-10.457a250.5,250.5,0,0,0,19.646-97.566C502.564,112.5,390.061,0,251.282,0Z" fill="none"/>
    </clipPath>
    <clipPath id="clip-path-3">
      <rect id="Rectangle_103" data-name="Rectangle 103" width="12.004" height="18.623" transform="translate(457.742 323.894)" fill="none"/>
    </clipPath>
    <clipPath id="clip-path-4">
      <rect id="Rectangle_104" data-name="Rectangle 104" width="30.31" height="35.334" transform="translate(421.294 269.676)" fill="none"/>
    </clipPath>
    <clipPath id="clip-path-5">
      <rect id="Rectangle_105" data-name="Rectangle 105" width="78.133" height="94.928" transform="translate(390.701 322.444)" fill="none"/>
    </clipPath>
    <clipPath id="clip-path-6">
      <rect id="Rectangle_106" data-name="Rectangle 106" width="51.328" height="37.841" transform="translate(352.93 374.934)" fill="none"/>
    </clipPath>
    <clipPath id="clip-path-7">
      <rect id="Rectangle_107" data-name="Rectangle 107" width="24.105" height="73.252" transform="translate(199.098 383.423)" fill="none"/>
    </clipPath>
    <clipPath id="clip-path-8">
      <rect id="Rectangle_108" data-name="Rectangle 108" width="10.6" height="12.896" transform="translate(205.907 469.726)" fill="none"/>
    </clipPath>
  </defs>
  <g id="Group_287" data-name="Group 287" transform="translate(-375.436 -1119)">
    <circle id="Ellipse_15" data-name="Ellipse 15" cx="245.5" cy="245.5" r="245.5" transform="translate(384 1130)" fill="#04d8cc"/>
    <g id="Group_286" data-name="Group 286" transform="translate(375.436 1119)">
      <g id="Group_285" data-name="Group 285" clip-path="url(#clip-path)">
        <g id="Group_284" data-name="Group 284">
          <g id="Group_283" data-name="Group 283" clip-path="url(#clip-path-2)">
            <path id="Path_419" data-name="Path 419" d="M123.872,363.875c0,26.058-23.576,34.123-3.1,64.214l-41.258,3.722-4.033-53.046,25.748-34.433,14.58,7.445Z" fill="#b76f48"/>
            <path id="Path_420" data-name="Path 420" d="M237.727,377.047l-16.621,6.305L185,418.314l-6.3,16.048,4.585,22.926,22.477,26.838,27.96,15L256.641,446.4Z" fill="#ffd9bd"/>
            <path id="Path_421" data-name="Path 421" d="M254.77,377.255l-33.272.121-4.3,100.086-3.025,15.287s-.007,4.425-1.973,4.637-10.374.2-10.374.2l4.631,2.626,4.272,6.563-2.5,10.109-7.957,12.363s48.283,8.415,49.453,8.129,56.162-1.972,57.04-1.714,47.873-4.383,47.873-4.383l27.489-6.837L366.869,487.35s-10.51-47.084-10.737-48.254-3.731-63.258-3.731-63.258l-2.433-5.353L321,372.424l1.886,6.818-17.671,6.748-18.427,3.084-14.02-2.289-10.494-4.171Z" fill="#17ffdd"/>
            <path id="Path_422" data-name="Path 422" d="M399.717,502.3l.057-.026.016.008-.029-.033c-.014.018-.029.034-.044.051" fill="#fc0"/>
            <path id="Path_423" data-name="Path 423" d="M433.732,240.251c-4.156-4.832-10.213-6.452-14.234-11.476-1.431-1.788-2.784-3.651-4.114-5.536,2.675-1.22,4.9-3.935,3.587-7.074l-.228-.543A7.579,7.579,0,0,0,415,211.585c-20.055-15.672-34.884-38.377-51.482-57.343-1.9-2.177-3.838-4.276-5.791-6.33-.431-1.064-.855-2.114-1.256-3.13-4.786-12.133-11.3-23.5-18.412-34.4-3.452-5.3-11.2-.7-8.435,4.93,2.079,4.224,3.963,8.519,5.768,12.843a149.043,149.043,0,0,0-29.848-17c-12.225-5.214-22.068-12.088-33.364-18.76-6.912-4.083-14.494-5.128-21.9-1.473-10.751,5.31-19.139,16.784-26.462,25.874a201.738,201.738,0,0,0-15.373,22.171,3.989,3.989,0,0,0-2.945,1.56c-16.549,23.391-33.065,46.5-51.791,68.238-6.681,7.758-11.981,14.995-13.937,25.211-1.246,6.5-.291,5.246-6.1,9-3.65,2.356-6.638,4.475-9.309,8.082-19.606,26.473,8.5,85.239,41.822,70.545,9.153,21.628,31.169,35.768,52.627,42.947,14.673,4.909,31.567,8.95,48.44,10.012-.832,3.421.587,7.376,5.125,9.059a50.342,50.342,0,0,0,54.4-12.862,6.949,6.949,0,0,0,.982-1.338c11.752-3.365,23.394-7.179,33.981-13.409a91.084,91.084,0,0,0,29.5-27.939c2.011-3,3.5-13.445,6.6-15.461,3.268-2.13,5.559.067,9.606-.589,5.643-.914,13.3-2.214,17.253-6.077,16.359-15.974,26.615-45.248,9.036-65.684" fill="#ffd9bd"/>
            <path id="Path_424" data-name="Path 424" d="M430.622,275.176a5.379,5.379,0,0,0-6.316-3.1c-5.511,1.34-10.049,6.393-10.254,12.132-.175,4.908,5.387,7.547,9.4,5.392a12.286,12.286,0,0,0,6.062-7.277,12.486,12.486,0,0,0,.355-1.626,5.636,5.636,0,0,0,.756-5.521" fill="#ffa294"/>
            <path id="Path_425" data-name="Path 425" d="M285.039,267.71a5.618,5.618,0,0,0-5.114-1.347c-3.725.766-6.478,6.16-2.61,8.645a3.559,3.559,0,0,0,.57.276,5.814,5.814,0,0,0,1.884,1.334,4.989,4.989,0,0,0,5.4-.933,5.24,5.24,0,0,0,1.613-4.016,5.9,5.9,0,0,0-1.741-3.959" fill="#ffa294"/>
            <path id="Path_426" data-name="Path 426" d="M317.8,368.581c-7.655.631-15.123,4.79-22.822,6.356a54.194,54.194,0,0,1-28.31-1.834c-6.131-2.093-9.883,6.634-4.389,9.511a53.786,53.786,0,0,0,33.705,5.84c9.133-1.358,22.592-7.052,25.021-16.031a3.132,3.132,0,0,0-3.2-3.842" fill="#ffa294"/>
            <path id="Path_427" data-name="Path 427" d="M449.866,142.276c-10.645-27.152-33.857-53.778-56.434-71.767-22.33-17.793-49.268-32.515-76.554-41.086-14.842-4.662-29.444-4.982-44.756-2.763C263.363,27.929,254.2,29.17,245.7,32c-4.53-9.914-19.448-9.094-26.962-3.422-1.1.828-2.633,3.344-3.85,4.18a3.249,3.249,0,0,0-2.446-3.414c-20.987-4.837-44.78,11.279-61.68,22.133-20.974,13.47-37,30.42-46.937,53.45a272.494,272.494,0,0,0-20.518,73.94c-2.436,19.716-4.739,49.569,5.684,68.559.255,14.624-1.128,28.867-8.633,41.629-.038.021-.075.032-.113.055-22.9,13.864-44.888,31.559-55.426,57.092-8.634,20.917-3.03,39.739,18.971,47.038,7,2.321,6.624.805,9.43,9.706,4.124,13.082,1.9,4.312-.715,11.424-1.712,4.646-3.813,7.547-3.082,12.845,1.362,9.868,9.8,16.544,18.246,20.47,4.91,2.282,14.137,3.309,17.9,7.292,3,3.182,1.275-.554-.536,3.691-.757,1.775-2.084,3.184-2.788,5.056a17.921,17.921,0,0,0,.825,14.428,34.39,34.39,0,0,0-1.332,6.924c-.49,5.081,6.488,4.966,8.118,1.1,5.894-13.985,20.746-11.386,33.157-17.044,9.2-4.193,16.61-11.522,15.949-22.317-.64-10.442-8.586-18.622-16.644-24.335-5.118-3.628-10.639-4.16-16.383-3.8a2.329,2.329,0,0,0-1.822-.589c-.748.054-11.451.721-13.922,1.5.754-.9,2.064-3.042,2.049-2.974a6.471,6.471,0,0,0-1.135-4.34c-1.481-2.416-3.3-1.762-2.993-4.948.24-2.46,1.651-1.815,2.286-3.621,1.986-5.649-4.718-10.2-.851-14.278a10.56,10.56,0,0,1,1-.921,3.583,3.583,0,0,0,1.214.723l1.954.663a4.079,4.079,0,0,0,4.007-1.059c5.1-5.163,2.507-11.894,1.266-18.336a14.777,14.777,0,0,1,2.051,1.09c1.613.893,3.228,2.1,4.943,2.925.6,1.04,1.168,2.115,1.7,3.282,1.119,2.443,4.781,2.081,6,0,1.475-2.515,5.49-2.637,7.3-5.022a8.978,8.978,0,0,0,.865-2.692,4.707,4.707,0,0,0,2.758-3.031,13.778,13.778,0,0,1,7.315-7.643c3.673-1.6,2.909-1.61,5.092,1.709,2.917,4.435,4.618,8.663,8.789,12.148,2.779,2.322,7.976-.791,5.458-4.211-2.39-3.249-4.435-6.542-6.477-9.865-.381-.858-.716-1.73-1.063-2.6a5.548,5.548,0,0,0,1.394-6.182c-.137-.407-.245-.817-.367-1.225a26.823,26.823,0,0,0,7.372-7.748,12.631,12.631,0,0,0,3.679-6.95c1.088-2.432,2.137-5.015,3.287-7.778a2.759,2.759,0,0,0-1.268-3.116c-3.79-2.033-7.942-2.474-12.027-3.824-.257-.085-.479-.206-.73-.3,3.892-17.041,11.594-34.323,10.426-51.368-.2-2.979-4.872-4.053-5.535-.75-3.269,16.271-8.222,31.738-12.674,47.693-.04.145-.085.294-.126.439-.862-.548-1.73-1.165-2.585-1.744a3.213,3.213,0,0,0-.5-1.346c-7.921-12.041-16.066-22.319-16.4-37.625-.219-9.877,2.317-17.893,10.178-24.091,3.944-3.109,14.183-9.9,19.539-7.108,3.845,2,8.609-3.279,4.894-6.344-.176-.145-.36-.264-.539-.4,8.344-7.142,13.637-18.143,20.464-26.58,3.349-4.137-1.057-9.749-5.168-7.911,11.575-14.37,22.017-29.974,32.1-45.06a217.081,217.081,0,0,0,6.849,59.476c1.446,5.528,8.19,6.772,12.156,3.21a16,16,0,0,1,13.331-4.765c2.273-.064,5.145-1.717,5.524-4.206,3.571-23.449,5.842-46.987,9.158-70.369,2.016-6.363,4.259-12.643,5.8-19.18.275-1.163.516-2.333.782-3.5,1.24,9.417,4.154,18.979,5.888,27.159,4.4,20.773,11.263,42.782,10.734,64.141-.087,3.478,3.237,7.231,6.894,6.894,20.57-1.9,40.461.95,60.914,2.092,4.949.277,7.662-4.245,7.407-8.416a5.957,5.957,0,0,0,9.246-1.11c4.075-7.065,4.916-16.738,4.3-26.685a84.781,84.781,0,0,0,14.48,14.67c8.168,6.646,17.238,15.061,27.052,20.489-.18,6.9-.626,14.061,2.288,20.089,1.342,2.777,4.732,2.456,6.653.7.116.017.225.047.346.055,5.721.371,12.342.705,17.667,2.952,4.527,1.91,6.542,6.387,10.761,8.179,2.975,1.264,6.658.466,7.589-3.087a9.294,9.294,0,0,0-.012-4.792,7.906,7.906,0,0,0,3.148-4.365c9.1-28.988,13.1-65.747,1.773-94.636" fill="#b76f48"/>
            <path id="Path_428" data-name="Path 428" d="M404.4,253.771c-1.35-2.618-5.3-.771-4.635,1.954,4.232,17.375,10.3,33.681,16.865,50.3,7.223,18.273,9.795,34.249,7.7,53.79-.3,2.815,4.535,3.5,4.981.674,5.882-37.194-8.139-74.186-24.915-106.716" fill="#b76f48"/>
            <path id="Path_429" data-name="Path 429" d="M250.363,97.879c-17.293,27.452-28.919,67.34-21.728,99.945.6,2.739,5.062,2.816,5.616,0,3.21-16.344,3.535-33.138,7.076-49.56,3.5-16.244,8.6-32.617,13.672-48.431.9-2.81-3.141-4.327-4.636-1.954" fill="#a25234"/>
            <path id="Path_430" data-name="Path 430" d="M304.7,113.952c-2.146-4.415-9.323-1.318-7.9,3.329,4.942,16.1,9.179,32.44,14.033,48.58,4.8,15.96,7.281,32.821,12.593,48.552,1.325,3.925,8.019,4.809,8.876,0,6.224-34.931-12.913-70.238-27.605-100.461" fill="#a25234"/>
            <path id="Path_431" data-name="Path 431" d="M353.762,155.9c-4.685-16.615-11.943-31.906-20.741-46.688-1.047-1.759-4.235-.6-3.433,1.447a230.631,230.631,0,0,1,12.666,45.932c2.575,15.385,1.26,32.536,5.6,47.409,1.453,4.982,8.706,5.022,10.144,0,4.192-14.642-.179-33.729-4.231-48.1" fill="#a25234"/>
            <path id="Path_432" data-name="Path 432" d="M190.684,152.317c-10.245,11.6-21.7,22.391-33.055,32.9-5.153,4.77-10.447,9.33-15.8,13.871-5.333,4.525-16.531,16.934-20.934,8.048q-.829-3.391-1.65-6.788l-.11.015c-.9-2.492-4.833-2.432-4.892.662-.257,13.262,2,25.861,5.021,38.744a4.636,4.636,0,0,0,3,3.561c3.41,2.422,6.7,1.02,10.982.4,5.663-.813,11.747-.775,16.521-4.123,2.511-1.761,2.668-5.918-.224-7.244,7.407-6.474,13.493-14.635,19.974-22.843,4.045-5.121-2.257-11.879-7.3-7.305a105.612,105.612,0,0,1-10.513,8.073c-.1-.056-.2-.121-.308-.173,19.108-13.386,34.068-33.009,46.821-52,3.012-4.485-3.916-9.889-7.523-5.8" fill="#a25234"/>
            <path id="Path_433" data-name="Path 433" d="M146.625,322.783a30.755,30.755,0,0,1-4.592,12.167c-2.36,3.587-5.5,6.591-7.777,10.2-2.1,3.326,1.4,7.994,5.2,6.761,11.231-3.644,16.182-17.075,16.95-27.805.4-5.524-8.858-6.886-9.778-1.323" fill="#a25234"/>
            <path id="Path_434" data-name="Path 434" d="M126.139,350.566c-4.356,2.8-8.821,4.7-12.131,8.851-2.975,3.731-5.11,8.6-2.159,12.947a3.238,3.238,0,0,0,5.515,0c1.772-2.717,2.907-5.8,5.286-8.1,2.689-2.6,5.433-5.149,7.928-7.947,2.643-2.964-.767-8.114-4.439-5.753" fill="#a25234"/>
            <path id="Path_435" data-name="Path 435" d="M115.016,422.168c-3.519-3.5-9.126.939-6.786,5.236,3.145,5.773,11.845,16.984,7.607,23.37-4.414,6.653-14.812,6.612-21.485,9.6-6.94,3.111-11.928,9.015-9.318,16.762.6,1.779,3.574,2.145,3.985,0,2.152-11.218,16.343-7.681,24.54-9.64,6.308-1.507,12.4-4.761,15.756-10.469,8.52-14.5-5.014-25.633-14.3-34.863" fill="#a25234"/>
            <path id="Path_436" data-name="Path 436" d="M114.089,317.306c-6.469,6.955-15.667,10.083-21.536,17.866-5.45,7.228-9.932,16.151-11.238,25.177-.155,1.071,1.273,1.911,1.889.8,5.069-9.189,10.32-16.346,18.619-22.909,6.593-5.213,13.339-9.411,17.281-17.06,1.6-3.1-2.436-6.643-5.015-3.87" fill="#a25234"/>
            <path id="Path_437" data-name="Path 437" d="M83.95,374.606c0-3.747-5.823-3.753-5.823,0,0,3.056-.154,5.976.647,8.947a2.368,2.368,0,0,0,4.529,0c.8-2.972.647-5.888.647-8.947" fill="#a25234"/>
            <path id="Path_438" data-name="Path 438" d="M419.852,208.345a104.774,104.774,0,0,1-29.677-16.866c-7.869-6.535-18.243-14.561-23.721-23.222-3.221-5.093-11.111-.544-8.11,4.741,7.1,12.507,11.848,22.726,23.469,31.981a104.587,104.587,0,0,0,20.923,13.014,9.291,9.291,0,0,0-.524,2.92,7.6,7.6,0,0,0,2.793,6.5c-.231.318-.474.657-.747,1.044-1.822,2.573,1.175,5.556,3.818,4.967a28.7,28.7,0,0,0,7.373-2.594c2.584-1.183,3.158-4.809,1.8-7.118,1.969-.618,4-1.2,4.427-1.4,6.6-3.033,3.643-11.882-1.826-13.968" fill="#a25234"/>
            <path id="Path_439" data-name="Path 439" d="M240.274,27.711c-5.838-3.416-14.545-1.525-20.5.865a35.365,35.365,0,0,0-16.086,13.6c-3.79,5.678,5.239,10.792,9.083,5.309a26.945,26.945,0,0,1,12.134-9.4c4.767-1.944,9.568-1.141,14.334-2.481a4.372,4.372,0,0,0,1.032-7.9" fill="#17ffdd"/>
            <path id="Path_440" data-name="Path 440" d="M209.93,505.172c-3.383,7.958-6.278,16.114-9.66,24.072-.718,1.691-.378,4.494,1.964,4.828,46.18,6.578,93.905,7.982,140.029.2a202.271,202.271,0,0,0,36.592-9.4c2.388-.883,1.393-4.717-1.065-3.864-21.375,7.413-43.84,10.77-66.369,12a511.463,511.463,0,0,1-71.321-1.445c-12.35-1.057-24.7-2.341-36.992-3.943l3.169,4.16c3.289-8,6.087-16.192,9.375-24.192,1.337-3.251-4.335-5.674-5.722-2.412" fill="#002033"/>
            <path id="Path_441" data-name="Path 441" d="M221.5,377.376c-1.1,6.393-5.706,91.984-6.805,98.376q-.864,5.023-1.727,10.046c-.416,2.418-.576,5.266-1.657,7.511-1,2.082-2.64,1.141-4.57,1.151-2.126.011-4.234.976-4.911,3.123-1.578,5,4.806,8.82,8.9,9.19,1.946.175,2.546-2.687.969-3.579a29.53,29.53,0,0,1-2.6-1.71c-.2-.145-2.192-2.3-2.282-2.3q-1.31,1.072-.361,1.024c.166.011.33.026.5.044a6.889,6.889,0,0,0,1.607.215,9,9,0,0,0,2.761,0c4.126-.741,6.233-4.983,6.921-8.754,2.034-11.146,6.834-101.681,8.489-112.89.5-3.391-4.636-4.913-5.233-1.443" fill="#002033"/>
            <path id="Path_442" data-name="Path 442" d="M349.794,377.292c2.86,10.35,3.627,73.437,6.462,83.794,2.793,10.2,5.1,20.7,9.285,30.452,1.241,2.89,5.025.608,4.654-1.962-1.5-10.43-5.033-20.583-7.906-30.695-2.887-10.162-3.707-73.054-6.618-83.209-1.079-3.764-6.925-2.174-5.877,1.62" fill="#002033"/>
            <path id="Path_443" data-name="Path 443" d="M255.676,381.535c9.861,10.039,25.93,14.682,39.025,13.186,9.465-1.082,28.4-5.215,28.747-19.13.1-3.848-5.363-4.792-6.093-.921-.779,4.133-6.087,6.144-9.143,7.528a57.6,57.6,0,0,1-15.26,4.38c-10.82,1.593-24.832-1.434-33.288-9.5-2.731-2.606-6.7,1.7-3.988,4.457" fill="#002033"/>
            <path id="Path_444" data-name="Path 444" d="M314.99,376.045a9.462,9.462,0,0,1,1.727-.52c.134-.026.271-.044.4-.071-.556.113-.081.012.053,0,.316-.031.633-.05.949-.059.649-.019,24.97-.874,25.616-.825.327.025.654.057.979.094.055.007.522.067.206.024-.354-.048.312.048.31.048,1.2.186,2.387.435,3.572.7a19.9,19.9,0,0,0,3.6.406,2.257,2.257,0,0,0,.6-4.427c-1.017-.319-1.988-.7-3.033-.926-1.377-.293-2.758-.551-4.154-.739-2.8-.376-29.495.362-32.156,1.469a2.573,2.573,0,0,0-1.749,3.081c.377,1.166,1.782,2.279,3.081,1.749" fill="#002033"/>
            <path id="Path_445" data-name="Path 445" d="M229.675,378.844q2.474.105,4.942.236c.224.013,2.269.131,1.218.067q1.236.075,2.47.157,4.244.281,8.463.623c2.878.229,5.746.484,8.626.707,1.877.145,3.756.21,5.653.273,2.131.07,4.1-.034,6.216-.171,2.019-.13,3.6-1.134,3.815-1.943.236-.868-.624-1.918-2.543-2.33-6.056-1.3-12.688-1.584-19.293-1.985-6.5-.394-13.011-.73-19.567-.894-3.135-.078-6.132,1.266-5.992,2.63.157,1.539,2.639,2.487,5.992,2.63" fill="#002033"/>
            <path id="Path_446" data-name="Path 446" d="M255.333,96.36c.086,40.064,2.622,80.606,11.175,119.82.738,3.384,5.529,1.856,5.072-1.4-5.527-39.341-10.453-78.647-11.154-118.422-.058-3.273-5.1-3.285-5.093,0" fill="#002033"/>
            <path id="Path_447" data-name="Path 447" d="M269.915,220.232c10.245.105,20.672.835,30.854-.417a2.173,2.173,0,0,0,0-4.342c-10.181-1.252-20.61-.523-30.854-.417-3.33.034-3.336,5.142,0,5.176" fill="#002033"/>
            <path id="Path_448" data-name="Path 448" d="M297.025,196.04a63.362,63.362,0,0,1,1.778,9.124c.376,3.3.345,6.6.97,9.866.409,2.139,3.685,2,4.186,0a28.943,28.943,0,0,0,.208-10.228,73.4,73.4,0,0,0-1.829-10.227,2.756,2.756,0,0,0-5.313,1.465" fill="#002033"/>
            <path id="Path_449" data-name="Path 449" d="M306.968,199.213a17.583,17.583,0,0,0-.438,3.1l-.141,2.983c-.094,2-.01,3.968.074,5.966a1.753,1.753,0,1,0,3.506,0c.084-2,.168-3.968.074-5.966l-.141-2.983a17.6,17.6,0,0,0-.438-3.1,1.3,1.3,0,0,0-2.5,0" fill="#002033"/>
            <path id="Path_450" data-name="Path 450" d="M311.966,90.821c12.05,16.951,18.895,36.511,23.221,56.715a284.539,284.539,0,0,1,4.9,33.725c1.031,11.27,1.169,22.692,2.912,33.878.45,2.889,4.82,2.036,4.92-.665.432-11.68-.9-23.555-2.142-35.161a289.876,289.876,0,0,0-5.393-33.814c-4.6-20.182-12.78-39.9-25.172-56.574-1.417-1.907-4.659-.094-3.244,1.9" fill="#002033"/>
            <path id="Path_451" data-name="Path 451" d="M298.206,119.1q6.863,23.222,11.472,47.021c3.05,15.846,4.926,31.856,7.392,47.791.353,2.28,4.124,1.74,4.018-.543-.744-16.11-3.576-32.072-6.826-47.853q-4.948-24.021-12.272-47.459c-.748-2.4-4.5-1.391-3.784,1.043" fill="#002033"/>
            <path id="Path_452" data-name="Path 452" d="M334.733,114.036a144.007,144.007,0,0,1,18.608,45.8c3.556,16.379,3.749,32.622,3.029,49.279-.08,1.851,2.924,2.311,3.28.443,3.139-16.434,1.659-34.075-2.177-50.27a150.491,150.491,0,0,0-20-46.849c-1.1-1.707-3.827-.141-2.739,1.6" fill="#002033"/>
            <path id="Path_453" data-name="Path 453" d="M255.181,96.064c-5.236,19.824-10.068,39.79-13.634,59.989-1.752,9.918-3.137,19.885-4.049,29.916-.918,10.1-1.746,20.505-.565,30.61a2.13,2.13,0,0,0,4.258,0c.869-9.765.951-19.6,1.83-29.372.93-10.358,2.307-20.69,3.957-30.957,3.194-19.863,7.637-39.484,12.55-58.987.709-2.814-3.605-4.008-4.347-1.2" fill="#002033"/>
            <path id="Path_454" data-name="Path 454" d="M219.334,94.306c-18.627,39.459-25.647,86.856-13.62,129.328.79,2.788,4.74,1.584,4.267-1.176-3.617-21.118-5.322-42.365-3.221-63.751A200.394,200.394,0,0,1,223.083,96.5c1.127-2.514-2.548-4.735-3.749-2.191" fill="#002033"/>
            <path id="Path_455" data-name="Path 455" d="M203.079,112.122c-12.57,30.152-14.1,64.556-3.122,95.422.676,1.9,3.7,1.114,3.059-.844-10.018-30.527-9.535-64.019,2.478-93.912.6-1.5-1.806-2.128-2.415-.666" fill="#002033"/>
            <path id="Path_456" data-name="Path 456" d="M228.034,38.5c-31.362,10.54-60.409,29.213-82.073,54.325-22.645,26.25-34.385,59.669-35.073,94.2a178.625,178.625,0,0,0,2.036,30.067c1.607,10.7,3.9,21.711,8.081,31.73,1.106,2.65,5.14,1.743,4.427-1.221-2.185-9.091-4.784-18.028-6.382-27.26a172.974,172.974,0,0,1-2.509-26.33,153.591,153.591,0,0,1,7.351-50.554c10.243-31.325,32.124-56.525,58.3-75.9a184.26,184.26,0,0,1,46.8-25.6c2.147-.777,1.256-4.205-.954-3.462" fill="#002033"/>
            <path id="Path_457" data-name="Path 457" d="M239.43,38.1a189.6,189.6,0,0,1,77.449-2.2,164.4,164.4,0,0,1,66.178,28.6c37.5,27.123,67.337,72.219,66.38,119.727-.442,21.952-3.145,44.684-9.5,65.741-.774,2.566,3.264,4.4,4.426,1.866,4.1-8.953,6.236-18.8,8.044-28.439a242.354,242.354,0,0,0,4.08-32.872c1.235-25.378-5.109-49.709-17.2-71.993C416,75.618,374.877,44.253,327.707,32.091c-29.5-7.607-60.378-7.487-89.52,1.506A2.34,2.34,0,0,0,239.43,38.1" fill="#002033"/>
            <path id="Path_458" data-name="Path 458" d="M218.175,44.579a46.266,46.266,0,0,1,9.16-4.67,95.434,95.434,0,0,1,10.147-3.335c2.306-.565,1.854-4.285-.566-4.182a35.069,35.069,0,0,0-11.266,2.06,52.379,52.379,0,0,0-10.3,5.3,2.864,2.864,0,0,0-1,3.827,2.827,2.827,0,0,0,3.827,1" fill="#002033"/>
            <path id="Path_459" data-name="Path 459" d="M208.837,46.572c-2.957-2.583,2.322-8.5,4.137-10.337a25.753,25.753,0,0,1,11.244-6.644,26.94,26.94,0,0,1,11.667-.708c3.769.714,6.721,2.986,9.351,5.679,1.775,1.819,5.122-.594,3.606-2.782-2.936-4.237-6.717-7.488-11.939-8.354a32.5,32.5,0,0,0-16.119,1.53,28.992,28.992,0,0,0-13.468,10.278c-2.683,3.712-6.138,10.7-1.49,14.349,2.1,1.651,5.114-1.174,3.011-3.011" fill="#002033"/>
            <path id="Path_460" data-name="Path 460" d="M215.152,28.954c-37.3-7.473-71.291,16.85-93.576,44.513a179.2,179.2,0,0,0-28.73,50.275C85.659,143.215,82.109,163.9,81.127,184.6c-.99,20.852,1.172,41.429,4.751,61.944,1.6,9.15,3.195,19.077.472,28.172-2.991,9.989-11.993,14.633-19.831,20.441-16,11.854-31.249,27.3-40.328,45.217-8.122,16.035-10.982,36.851,4.744,49.346a39.6,39.6,0,0,0,11.316,6.152c4.339,1.565,8.721,1.78,13.145,2.8,5.9,1.362-2.05,7.673-3.793,9.2a20.177,20.177,0,0,0-6.472,10.07c-2.057,7.869.56,16.495,5.431,22.8,5.612,7.265,14.426,11.236,23.1,13.537,4.758,1.263,9.619,2.077,14.473,2.867,3.834.624,5.49-5.237,1.62-5.877C74.18,448.7,50.03,443.627,50.99,423.032a13.74,13.74,0,0,1,5-10c3.227-2.829,6.733-5.379,7.806-9.778.845-3.465-.062-7.5-3.189-9.538-3.461-2.248-8.426-1.724-12.358-2.632-8.6-1.986-16.849-6.55-20.689-14.848s-2.224-17.966.894-26.208c3.42-9.043,9.2-17.108,15.381-24.459a147.412,147.412,0,0,1,21.4-20.79c7.4-5.854,16.517-10.247,22.4-17.8,5.429-6.964,7.048-15.79,6.741-24.446-.329-9.279-2.515-18.373-4.007-27.5a256.694,256.694,0,0,1-3.121-30.205c-1.727-39.58,6.719-79.1,28.663-112.459,18.771-28.535,48.784-57.114,84.775-58.921a69.125,69.125,0,0,1,13.067.578c3.257.458,4.785-4.393,1.4-5.072" fill="#002033"/>
            <path id="Path_461" data-name="Path 461" d="M157.843,322.66c-.884,10.238-7.662,18.2-15.868,23.789-8.135,5.543-21.674,9.268-21.678,21.22,0,3.317,4.617,3.1,5.009,0,.713-5.635,6.893-7.907,11.218-10.158a77.71,77.71,0,0,0,12.929-8.322,35.329,35.329,0,0,0,9.272-11.214A33.66,33.66,0,0,0,162.1,322.66c.024-2.778-4.026-2.691-4.258,0" fill="#002033"/>
            <path id="Path_462" data-name="Path 462" d="M116.648,427.285q4.7,5.152,9.211,10.477c2.768,3.281,6.243,6.76,7.609,10.929,2.66,8.119-6.216,13.913-12.82,15.843-7.9,2.308-16.876,2.386-23.842,7.206-5.558,3.846-9.5,9.559-8.323,16.528.273,1.614,2.768,1.176,2.788-.378.121-9.287,10.188-13.509,17.892-15.038,8.51-1.688,17.317-2.158,24.364-7.8,6.1-4.881,8.838-12.447,5.509-19.811-1.873-4.143-5.107-7.562-8.084-10.936q-4.993-5.66-10.23-11.094c-2.582-2.688-6.565,1.344-4.074,4.073" fill="#002033"/>
            <path id="Path_463" data-name="Path 463" d="M89.648,453.209a21.323,21.323,0,0,0-12.436,17.753,20.314,20.314,0,0,0,10.494,19.184c2.433,1.3,4.2-2.017,2.107-3.605a18.216,18.216,0,0,1-7.092-15.579,17.185,17.185,0,0,1,9.413-13.5,2.491,2.491,0,0,0,.884-3.369,2.521,2.521,0,0,0-3.37-.884" fill="#002033"/>
            <path id="Path_464" data-name="Path 464" d="M399.991,283.63c.467,19.492-8.261,38.633-21.828,52.465-11.841,12.071-26.98,20.093-42.888,25.447a271.584,271.584,0,0,1-30.85,8.2c-2.906.61-1.588,4.726,1.2,4.348,35.648-4.845,74.216-19.019,91.263-53.236a73.86,73.86,0,0,0,7.53-37.22c-.161-2.822-4.494-2.867-4.425,0" fill="#002033"/>
            <path id="Path_465" data-name="Path 465" d="M153.117,288.6c2.218,19.4,8.441,37.944,22.074,52.344C189.92,356.5,210.2,364.389,230.528,369.7c15.686,4.1,31.793,6.44,47.9,8.12,3.475.362,3.436-5.054,0-5.427-40.787-4.43-90.88-13.725-111.216-54.165a101.805,101.805,0,0,1-9.174-30.291c-.429-2.759-5.241-2.143-4.92.666" fill="#002033"/>
            <path id="Path_466" data-name="Path 466" d="M195.988,156.1a299.574,299.574,0,0,1-27.763,36.333c-4.9,5.476-10.02,10.736-15.278,15.868-5.491,5.359-11.733,10.2-16.869,15.885-1.652,1.826.471,4.962,2.732,3.54,6.287-3.957,11.81-9.645,17.138-14.784,5.7-5.5,11.1-11.341,16.283-17.321a307.956,307.956,0,0,0,27.65-37.246c1.558-2.464-2.316-4.7-3.893-2.275" fill="#002033"/>
            <path id="Path_467" data-name="Path 467" d="M171.463,206.424Q165.2,211.959,158.6,217.1c-4.394,3.407-8.926,6.6-13.262,10.085-1.662,1.333.464,3.884,2.226,2.884a118.416,118.416,0,0,0,13.971-9.69q6.705-5.2,13.061-10.821c2.138-1.889-1-5.009-3.129-3.129" fill="#002033"/>
            <path id="Path_468" data-name="Path 468" d="M361.326,165.761a192.963,192.963,0,0,0,28.4,32.572,166.608,166.608,0,0,0,16.41,13.331c5.628,3.956,12.044,7.646,19.1,7.688,3.031.019,3.484-4.27.7-5.165a65.838,65.838,0,0,1-17.6-8.382A162.846,162.846,0,0,1,392.5,193.268a183.268,183.268,0,0,1-27-29.951c-1.8-2.5-5.972-.138-4.181,2.444" fill="#002033"/>
            <path id="Path_469" data-name="Path 469" d="M370.8,197.584c13.291,10.308,28.709,18.2,45.246,21.6,2.505.516,3.579-3.189,1.065-3.864-15.865-4.262-30.8-10.868-43.984-20.753-1.728-1.3-4.05,1.68-2.327,3.016" fill="#002033"/>
            <path id="Path_470" data-name="Path 470" d="M407.378,240.226c8.313-3.088,17.74-.159,23.781,6.171,6.344,6.647,8.3,16.691,6.982,25.575-1.344,9.066-6.039,17.54-11.766,24.573a41.2,41.2,0,0,1-10.786,9.769,21.566,21.566,0,0,1-6.177,2.544c-2.552.571-4.931.109-7.494.165a2.1,2.1,0,0,0-1.053,3.89c7.285,4.4,17.373-1.043,23.133-5.608a59.016,59.016,0,0,0,16.487-21.021c7.112-15.408,6.365-35.909-8.335-46.764a26.921,26.921,0,0,0-25.926-3.48c-2.522,1.037-1.505,5.174,1.154,4.186" fill="#002033"/>
            <path id="Path_471" data-name="Path 471" d="M415.219,287.344l6.766-10.734c2.261-3.587,4.2-7.33,6.117-11.112a2.213,2.213,0,0,0-3.821-2.234c-2.6,3.373-5.145,6.753-7.415,10.355L410.1,284.352a2.964,2.964,0,1,0,5.118,2.992" fill="#002033"/>
            <path id="Path_472" data-name="Path 472" d="M418.3,279.316a13.976,13.976,0,0,1,2.739.759c.154.06.358.235-.034-.018a2.214,2.214,0,0,0,.267.119c.221.1.439.209.655.322a14.052,14.052,0,0,1,1.257.742c.183.121.363.247.541.376.249.182.167.067-.029-.029a1.674,1.674,0,0,1,.284.229c.356.295.712.594,1.062.9a13.952,13.952,0,0,1,1.052,1.011q.224.238.435.487c.078.092.153.187.23.279.257.309-.212-.285.052.07a1.92,1.92,0,1,0,3.316-1.938,16.421,16.421,0,0,0-1.986-2.8,12.361,12.361,0,0,0-2.665-2.21,15.569,15.569,0,0,0-6.066-2.319,2.288,2.288,0,0,0-1.609.21,2.088,2.088,0,0,0,.5,3.815" fill="#002033"/>
            <path id="Path_473" data-name="Path 473" d="M145.084,240.521c-10.057-1.607-19.37,3.1-25.459,11.081-6.838,8.958-8.2,20.393-5.69,31.191a63.16,63.16,0,0,0,17.384,30.189c7.529,7.276,18.1,13.186,28.807,10.04,2.918-.857,2.508-5.729-.743-5.493-19.047,1.381-33.745-17.612-38.43-34.318-2.443-8.715-2.155-18.083,2.843-25.85,4.512-7.015,12.092-11.983,20.6-11.756,2.844.076,3.619-4.615.688-5.084" fill="#002033"/>
            <path id="Path_474" data-name="Path 474" d="M126.691,279.583c8.491,3.525,15.318,9.53,21.678,16.025,1.667,1.7,4.656-.509,3.343-2.58A31.546,31.546,0,0,0,147.065,287a59.5,59.5,0,0,0-5.913-4.9,56.94,56.94,0,0,0-13.2-7.107,2.4,2.4,0,0,0-2.927,1.662,2.44,2.44,0,0,0,1.662,2.927" fill="#002033"/>
            <path id="Path_475" data-name="Path 475" d="M133.944,291.121c.26-.13.524-.254.787-.379.511-.241-.257.084.228-.1s.956-.349,1.446-.495.984-.267,1.483-.368c.286-.059.573-.106.86-.155s.288-.043.012,0c.109-.013.217-.026.326-.035a18.017,18.017,0,0,1,3.055-.048c.506.035,1.011.1,1.517.138.17.02.144.014-.078-.014.145.021.289.043.434.067.288.05.574.107.859.168a2.254,2.254,0,1,0,1.2-4.346A19.659,19.659,0,0,0,131.5,286.94a2.437,2.437,0,0,0-.869,3.313,2.48,2.48,0,0,0,3.313.868" fill="#002033"/>
            <path id="Path_476" data-name="Path 476" d="M402.094,251.661a264.473,264.473,0,0,1,22.421,64.607c3.958,19.154,8.98,47.347-12.018,58.762-1.5.815-.465,3.477,1.19,2.823,23.023-9.087,20.407-37.883,16.443-57.489a268.036,268.036,0,0,0-25.008-70.473c-1.045-2.009-4.032-.24-3.028,1.77" fill="#002033"/>
            <path id="Path_477" data-name="Path 477" d="M401.029,271.907A220.563,220.563,0,0,1,419.5,325.69c3.26,16.005,7.524,34.256-3.188,48.476-1.061,1.407,1.243,3.136,2.425,1.872,11.782-12.6,9.555-33.176,6.218-48.684a223.971,223.971,0,0,0-20.9-57.217c-1.058-2.007-4.023-.24-3.028,1.77" fill="#002033"/>
            <path id="Path_478" data-name="Path 478" d="M146.985,268.728c-1.614,24.313-16.419,45.53-17.579,69.925-.851,17.9,9.073,38.711,28.831,40.58,2.548.241,3.173-4.122.61-4.51-8.471-1.284-15.21-6.79-19.388-14.123-5.064-8.89-5.643-19.349-4.026-29.275,3.478-21.351,14.636-40.685,15.559-62.6.11-2.59-3.837-2.555-4.007,0" fill="#002033"/>
            <path id="Path_479" data-name="Path 479" d="M151.057,287.324c-2.661,9.991-5.435,19.96-7.962,29.986-2.31,9.164-5.04,18.584-4.223,28.131,1.294,15.139,10.029,30.253,23.52,37.639a1.88,1.88,0,0,0,1.9-3.244c-12.42-8.538-20.75-22.049-20.965-37.346-.127-9.021,2.846-17.761,4.878-26.454,2.16-9.238,4.265-18.49,6.4-27.735.53-2.3-2.931-3.271-3.542-.977" fill="#002033"/>
            <path id="Path_480" data-name="Path 480" d="M203.386,238.946c1.442-9.95,7.93-18.994,17.86-21.619,9.422-2.491,18.32,2.428,24.145,10.41,1.727,2.366,6.44,1.069,5.189-2.187A24.381,24.381,0,0,0,227.6,208.985a29.4,29.4,0,0,0-24.565,12.526,33.031,33.031,0,0,0-5.555,16.636c-.242,3.332,5.416,4.168,5.9.8" fill="#002033"/>
            <path id="Path_481" data-name="Path 481" d="M149.4,229.33a138.651,138.651,0,0,0,3.2,34.125c.614,2.644,5.167,2.141,4.838-.655a247.629,247.629,0,0,1-2.032-33.47c.073-3.87-5.938-3.87-6.011,0" fill="#002033"/>
            <path id="Path_482" data-name="Path 482" d="M398.572,220.744a164.616,164.616,0,0,1-.022,32.613,2.735,2.735,0,0,0,2.714,2.714,2.783,2.783,0,0,0,2.713-2.714,131.717,131.717,0,0,0,.105-32.613,2.838,2.838,0,0,0-2.755-2.755,2.774,2.774,0,0,0-2.755,2.755" fill="#002033"/>
            <path id="Path_483" data-name="Path 483" d="M249.414,251.128c0,15.557-9.453,28.168-21.114,28.168s-21.114-12.611-21.114-28.168,9.453-28.168,21.114-28.168,21.114,12.611,21.114,28.168" fill="#002033"/>
            <path id="Path_484" data-name="Path 484" d="M222.786,242.5a8.528,8.528,0,1,1-8.524-8.281,8.405,8.405,0,0,1,8.524,8.281" fill="#fff"/>
            <path id="Path_485" data-name="Path 485" d="M266.052,291.907a21.433,21.433,0,0,0,18.4,8.685,20.244,20.244,0,0,0,10.443-3.118c3.054-2.032,6.247-5.307,6.537-9.133a1.594,1.594,0,0,0-2.387-1.37c-2.425,1.868-4.207,4.194-6.986,5.652a19.689,19.689,0,0,1-7.786,2.145c-5.3.256-11.013-1.363-14.618-5.643-1.663-1.975-5.11.645-3.606,2.782" fill="#002033"/>
            <path id="Path_486" data-name="Path 486" d="M319.266,196.752c4.183-4.047,9.945-6.308,15.484-7.781,5.415-1.441,12.042-2.409,17.3-1.7,1.83.246,3.675-.438,4.211-2.39.454-1.653-.561-3.888-2.391-4.211-7.032-1.241-14.138-.316-20.936,1.729-6.539,1.968-13.255,4.98-18.1,9.927-2.823,2.885,1.528,7.234,4.428,4.428" fill="#002033"/>
            <path id="Path_487" data-name="Path 487" d="M210.954,189.381c11.721-3.967,23.64-1.132,34.073,4.946,3.439,2,7.463-2.867,4.35-5.639a29.906,29.906,0,0,0-9.478-5.861,42.624,42.624,0,0,0-10.517-2.451,41.14,41.14,0,0,0-20.776,3.435c-3.154,1.371-.908,6.672,2.348,5.57" fill="#002033"/>
            <path id="Path_488" data-name="Path 488" d="M198.325,303.62a30.054,30.054,0,0,0,4.2-4.229c.688-.847,1.347-1.721,1.954-2.628a16.6,16.6,0,0,0,1.417-2.719,2.06,2.06,0,0,0,.189-1.447,1.878,1.878,0,0,0-3.433-.449c-.519.822-1.085,1.611-1.614,2.426q-.4.609-.822,1.2c-.134.186-.272.37-.409.554-.23.307.147-.181-.01.013-.08.1-.158.2-.238.3a30.035,30.035,0,0,1-4.071,4.145,2.013,2.013,0,0,0,0,2.834,2.059,2.059,0,0,0,2.834,0" fill="#002033"/>
            <path id="Path_489" data-name="Path 489" d="M210.373,299.206l1.836-2.137c.3-.349.6-.7.9-1.047a5.24,5.24,0,0,0,.574-.834c.055-.1.111-.2.167-.3.04-.071.267-.432.028-.127l-1.072.444,1.274-.035a2.993,2.993,0,0,0,2.708-1.822,2.949,2.949,0,0,0-.612-3.238,3.088,3.088,0,0,0-2.884-.762,2.941,2.941,0,0,0-1.54,1.062,2.713,2.713,0,0,0-.636,1.8q.087.741.173,1.482l.444-1.072c-.314.335-.744.551-1.066.879s-.627.73-.937,1.091l-1.836,2.136a1.865,1.865,0,0,0-.514,1.24,1.753,1.753,0,0,0,2.993,1.24" fill="#002033"/>
            <path id="Path_490" data-name="Path 490" d="M359.7,305.272a23.886,23.886,0,0,0,2.418-2.4,18.866,18.866,0,0,0,2.22-3.129,1.965,1.965,0,0,0-3.082-2.379q-.915.934-1.831,1.866a1.795,1.795,0,0,0,1.269,3.064l.477-.064a1.768,1.768,0,0,0,.792-.462l2.068-1.629-3.082-2.377c-.071.1-.142.19-.215.283l.311-.4c-.644.835-1.324,1.656-2.025,2.444a23.79,23.79,0,0,1-2.272,2.229,2.088,2.088,0,0,0,1.476,3.564,2.32,2.32,0,0,0,1.476-.612" fill="#002033"/>
            <path id="Path_491" data-name="Path 491" d="M369.578,303.623c.839-.8,1.681-1.607,2.517-2.416.408-.4.754-.875,1.12-1.31l1.142-1.36a.835.835,0,1,0-1.181-1.181l-1.231,1.2a17.361,17.361,0,0,0-1.256,1.245c-.748.9-1.488,1.8-2.233,2.7a.816.816,0,0,0,0,1.122.806.806,0,0,0,1.122,0" fill="#002033"/>
            <path id="Path_492" data-name="Path 492" d="M144.622,242.158a1.21,1.21,0,0,1-.324.01,5.433,5.433,0,0,0-1.473.064,7.074,7.074,0,0,0-1.258.327,1.194,1.194,0,0,1-1.612-.95,83.507,83.507,0,0,1-.464-12.435c-5.763-.614-23.284-3.828-26.137-20.23-.515-2.96-.22-5.246.877-6.795a5.036,5.036,0,0,1,3.375-2.034c6.42-1.08,17.873,6.825,22.918,16.516.541-4.015,1.283-8.041,2.215-12.019q.182-.781.376-1.557c-5.6-1.676-18.89-7.292-20.442-23.05-.63-6.4,2-7.809,3.623-8.082,2.473-.415,5.319,1.286,7.272,2.787a39.206,39.206,0,0,1,12.478,18.307,126.618,126.618,0,0,1,6.554-15.8c-5.081-2.71-16.73-10.659-15.511-26.013.436-5.48,2.559-6.973,4.264-7.259,1.722-.29,3.675.516,5.805,2.394,4.723,4.167,9.587,13,10.614,21.484A129.861,129.861,0,0,1,168.045,153.3a30.34,30.34,0,0,1-3.316-32.044c1.683-3.547,3.431-5.428,5.343-5.75a3.906,3.906,0,0,1,3.808,1.782c3.473,4.407,4.817,16.686,2.354,26.845,2.689-2.75,5.528-5.427,8.486-8,.208-6.581,2.408-25.715,20.44-31.592a24.006,24.006,0,0,1,3.418-.866c6.858-1.153,8.289,2.826,8.586,4.591,1.5,8.9-12.906,29.17-27.673,31.655h0c-.175.03-.349.056-.523.08q-3.58,3.086-6.9,6.36a41.487,41.487,0,0,1,7.884-2.121c8.213-1.382,17.569-.485,19.562,3.9.753,1.661.715,4.406-3.752,8.062a26.014,26.014,0,0,1-12.258,5.685c-9.551,1.606-17.978-2.516-21.4-4.532a124.647,124.647,0,0,0-8.852,12.446,32.468,32.468,0,0,1,10.492-3.682c5.661-.952,9.845-.083,11.2,2.325,1.021,1.824.368,4.1-1.943,6.75a19.533,19.533,0,0,1-11.746,6.659,27.292,27.292,0,0,1-13.787-1.6,120.8,120.8,0,0,0-5.872,14.166,31.033,31.033,0,0,1,13.54-5.862c5.354-.9,9.468-.018,11,2.361.815,1.262,1.291,3.507-1.07,7.032a18.074,18.074,0,0,1-12.488,7.978,31.126,31.126,0,0,1-13.989-1.254q-.135.545-.263,1.09a119.9,119.9,0,0,0-2.236,12.378c4.685-5.505,12.045-9.463,17.675-10.41,3.543-.6,6.184.01,7.635,1.751,1.392,1.669,1.513,4.128.36,7.31-2.635,7.276-8.682,11.9-17.487,13.385a39.571,39.571,0,0,1-9.084.408,74.3,74.3,0,0,0,.416,10.223,1.195,1.195,0,0,1-.984,1.342" fill="#17ffdd"/>
            <path id="Path_493" data-name="Path 493" d="M209.822,149.9a39.565,39.565,0,0,1-35.869,8.263c4.4,3.734,4.069,2.44,4.069,2.44l8.973,2.136,5.774.114,8.143-2.53,4.648-3,4.009-3.362Z" fill="#0dd6b4"/>
            <path id="Path_494" data-name="Path 494" d="M158.24,180.9s5.923-.283,11.759-1.135,11.437-4.7,11.437-4.7l3.912-1.414-3.05,2.829-3.773,3.056-4.638,2.647-3.9.554-4.289.164-4.615-.974Z" fill="#0dd6b4"/>
            <path id="Path_495" data-name="Path 495" d="M149.692,205.262s10.663-.993,14.192-2.033,9.65-4.444,9.65-4.444l2.539-1.354-1.255,2.621-3.7,3.248-4.858,2.653-5,.841-5.159.153Z" fill="#0dd6b4"/>
            <path id="Path_496" data-name="Path 496" d="M145.627,231.286c.411-.209,10.6-3.475,14.225-5.246a44.95,44.95,0,0,0,8.123-5.828l4.23-4.036s-.944,5-1.205,5.044-5.438,5.291-5.438,5.291l-5.878,3.3-6.286,1.55Z" fill="#0dd6b4"/>
            <path id="Path_497" data-name="Path 497" d="M216.136,104.92s-1.4,8.428-6,14.977c-5.224,7.423-15.462,13.525-21.673,18.967-2.24,1.962,2.183,1.521,5.316.5a20.526,20.526,0,0,0,7.482-4.4l5.424-4.97a35.466,35.466,0,0,0,7.992-10.758l3.518-9.265Z" fill="#0dd6b4"/>
            <path id="Path_498" data-name="Path 498" d="M208.776,104.849c18.026-3.032-.67,30.732-19.483,33.9-.279.047-.555.086-.834.12A138.015,138.015,0,0,0,176.238,150.7a34.986,34.986,0,0,1,13.908-5.287c12.772-2.148,24.823,1.714,14.858,9.869a24.736,24.736,0,0,1-11.7,5.432c-10.288,1.731-19.369-3.576-21.463-4.918a124.712,124.712,0,0,0-11.112,15.882c-.491.836-.968,1.678-1.439,2.524,3.758-3.688,9.582-6.054,14.654-6.907,7.653-1.287,13.6.869,8.157,7.12a18.346,18.346,0,0,1-11.045,6.265,26.726,26.726,0,0,1-14.167-1.937,121.532,121.532,0,0,0-7.98,20.194c3.484-4.961,10.469-8.2,16.422-9.2,7.38-1.241,13.173.952,8.748,7.556a16.947,16.947,0,0,1-11.7,7.467c-6.353,1.068-12.585-.88-14.632-1.62q-.3,1.176-.581,2.357a120.566,120.566,0,0,0-2.76,17.2c3.768-7.146,12.957-12.672,19.555-13.782,5.345-.9,8.989,1.1,6.678,7.48-3.044,8.4-10.239,11.552-16.565,12.616a38.677,38.677,0,0,1-10.049.289,79.018,79.018,0,0,0,.4,11.684,6.7,6.7,0,0,0-1.8.074,8.285,8.285,0,0,0-1.492.391,85.137,85.137,0,0,1-.416-13.359c-4.435-.318-23.287-2.648-26.192-19.35-.826-4.748.649-7.008,3.276-7.45,6.536-1.1,20.207,9.045,23.369,20.1a125.085,125.085,0,0,1,2.726-16.511c.208-.891.429-1.778.657-2.662-4.112-1.058-19.089-6.01-20.7-22.333-.435-4.416.693-6.463,2.635-6.79,5.642-.949,18.161,12.593,19.295,24.672A124.829,124.829,0,0,1,154.2,176.7c-4.438-2.144-17.166-9.7-15.919-25.4.32-4.026,1.566-5.892,3.273-6.179,5.485-.922,15.721,14.459,15.209,26.791q.519-.921,1.053-1.833a128.1,128.1,0,0,1,11.761-16.766c-2.647-3.231-11.323-15.627-3.768-31.548,1.569-3.307,3.089-4.854,4.464-5.086,5.506-.926,8.665,19.272,3.186,32.146A140.958,140.958,0,0,1,185.9,136.687c.119-6.543,2.03-25.277,19.633-31.015a22.713,22.713,0,0,1,3.247-.823m-.4-2.349a25.15,25.15,0,0,0-3.589.908c-8.24,2.685-14.236,8.245-17.821,16.523a45.161,45.161,0,0,0-3.423,15.643q-2.766,2.422-5.385,4.96c1.445-9.6-.075-19.832-3.347-23.985a5.072,5.072,0,0,0-4.941-2.218c-2.324.39-4.359,2.488-6.221,6.413a31.405,31.405,0,0,0,2.888,32.52,131.939,131.939,0,0,0-8.133,11.295c-1.724-7.755-6.15-15.306-10.462-19.111-2.413-2.127-4.7-3.028-6.791-2.676-2.122.357-4.757,2.094-5.253,8.34-1.2,15.1,9.46,23.328,15.129,26.6-1.853,3.816-3.519,7.736-4.984,11.724a40.255,40.255,0,0,0-11.754-15.668c-3.113-2.393-5.87-3.408-8.195-3.017-2.033.342-5.335,2.014-4.61,9.373,1.529,15.526,13.907,21.622,20.206,23.732q-.06.246-.115.486c-.686,2.925-1.269,5.876-1.746,8.83a38.437,38.437,0,0,0-7.573-8.233c-5.4-4.411-10.953-6.653-14.851-6a6.207,6.207,0,0,0-4.151,2.521c-1.286,1.818-1.649,4.4-1.078,7.686,2.83,16.271,19.252,20.163,26.1,21.08a82.745,82.745,0,0,0,.5,11.543,2.38,2.38,0,0,0,2.755,2.027,2.428,2.428,0,0,0,.475-.131,6.194,6.194,0,0,1,1.017-.26,4.349,4.349,0,0,1,1.148-.055,2.362,2.362,0,0,0,.651-.019,2.381,2.381,0,0,0,1.964-2.682,70.682,70.682,0,0,1-.417-8.8,40.251,40.251,0,0,0,8.1-.489c9.253-1.556,15.619-6.45,18.41-14.154,1.306-3.608,1.117-6.46-.565-8.477-1-1.2-2.879-2.47-6.336-2.4a18.982,18.982,0,0,0,10.076-7.708c2.722-4.063,2.09-6.778,1.081-8.341-1.83-2.833-6.278-3.886-12.2-2.89a33.584,33.584,0,0,0-10.985,4q1.846-4.908,4.119-9.645a28.073,28.073,0,0,0,13.381,1.288,20.7,20.7,0,0,0,12.447-7.05c3.332-3.831,2.972-6.527,2.082-8.115-2.314-4.131-9.464-3.417-12.431-2.918a34.293,34.293,0,0,0-7.011,1.969q2.75-4.095,5.863-8.02c3.981,2.192,12.128,5.711,21.3,4.168a27.188,27.188,0,0,0,12.816-5.938c5.052-4.134,5.008-7.435,4.081-9.475-2.345-5.165-12.448-6-20.843-4.586-.966.163-2.036.374-3.173.65q1.43-1.31,2.9-2.587l.206-.033c6.917-1.164,14.429-6.166,20.609-13.725,6.9-8.443,8.679-15.506,8.041-19.3a6.514,6.514,0,0,0-3.288-4.841,10.221,10.221,0,0,0-6.67-.727m-60.6,112.213c.452-2.862,1.011-5.714,1.672-8.535a33.32,33.32,0,0,0,10.773,1.224,35.589,35.589,0,0,0-12.445,7.311" fill="#002033"/>
            <path id="Path_499" data-name="Path 499" d="M420,234.372a1.2,1.2,0,0,0,.323.01,5.439,5.439,0,0,1,1.474.064,7.077,7.077,0,0,1,1.258.327,1.194,1.194,0,0,0,1.612-.95,83.511,83.511,0,0,0,.464-12.435c5.763-.614,23.284-3.828,26.137-20.23.515-2.96.22-5.246-.877-6.795a5.036,5.036,0,0,0-3.375-2.034c-6.42-1.08-17.873,6.825-22.918,16.516-.541-4.015-1.283-8.041-2.215-12.019q-.182-.782-.376-1.557c5.6-1.676,18.89-7.292,20.442-23.05.63-6.395-2-7.809-3.623-8.082-2.473-.415-5.319,1.286-7.272,2.787a39.215,39.215,0,0,0-12.479,18.307,126.459,126.459,0,0,0-6.553-15.8c5.081-2.71,16.73-10.659,15.511-26.013-.436-5.48-2.559-6.973-4.264-7.259-1.722-.29-3.675.516-5.8,2.394-4.723,4.167-9.587,13-10.614,21.484a129.862,129.862,0,0,0-10.273-14.526,30.34,30.34,0,0,0,3.316-32.044c-1.683-3.547-3.431-5.428-5.343-5.75a3.906,3.906,0,0,0-3.808,1.782c-3.473,4.407-4.817,16.686-2.354,26.845-2.689-2.75-5.528-5.427-8.486-8-.208-6.581-2.408-25.715-20.44-31.592a24.008,24.008,0,0,0-3.418-.866c-6.858-1.153-8.289,2.826-8.586,4.591-1.5,8.9,12.906,29.17,27.673,31.655h0c.175.03.349.056.523.08q3.58,3.085,6.9,6.36a41.486,41.486,0,0,0-7.884-2.121c-8.213-1.382-17.569-.485-19.562,3.9-.753,1.661-.715,4.407,3.752,8.062a26.014,26.014,0,0,0,12.258,5.685c9.551,1.606,17.978-2.516,21.4-4.532a124.65,124.65,0,0,1,8.852,12.446,32.468,32.468,0,0,0-10.492-3.682c-5.661-.952-9.845-.083-11.2,2.325-1.021,1.824-.368,4.1,1.943,6.75a19.533,19.533,0,0,0,11.746,6.659,27.292,27.292,0,0,0,13.787-1.6,120.8,120.8,0,0,1,5.872,14.166,31.033,31.033,0,0,0-13.54-5.862c-5.354-.9-9.468-.018-11.005,2.361-.815,1.262-1.291,3.507,1.07,7.032a18.074,18.074,0,0,0,12.488,7.978,31.126,31.126,0,0,0,13.989-1.254q.135.544.263,1.09a119.9,119.9,0,0,1,2.236,12.378c-4.685-5.505-12.045-9.463-17.675-10.41-3.543-.6-6.184.01-7.635,1.751-1.392,1.669-1.513,4.128-.36,7.31,2.635,7.276,8.682,11.9,17.487,13.385a39.571,39.571,0,0,0,9.084.408,74.3,74.3,0,0,1-.416,10.223,1.195,1.195,0,0,0,.984,1.342" fill="#17ffdd"/>
            <path id="Path_500" data-name="Path 500" d="M354.8,142.114a39.565,39.565,0,0,0,35.869,8.263c-4.395,3.734-4.069,2.44-4.069,2.44l-8.973,2.136-5.774.114-8.143-2.53-4.648-3-4.009-3.362Z" fill="#0dd6b4"/>
            <path id="Path_501" data-name="Path 501" d="M406.384,173.11s-5.923-.283-11.759-1.135-11.437-4.7-11.437-4.7l-3.912-1.414,3.05,2.829,3.773,3.056,4.638,2.647,3.9.554,4.289.164,4.615-.974Z" fill="#0dd6b4"/>
            <path id="Path_502" data-name="Path 502" d="M414.932,197.477s-10.663-.993-14.192-2.033S391.09,191,391.09,191l-2.539-1.354,1.255,2.621,3.7,3.248,4.858,2.653,5,.841,5.159.153Z" fill="#0dd6b4"/>
            <path id="Path_503" data-name="Path 503" d="M419,223.5c-.411-.209-10.6-3.475-14.225-5.246a44.951,44.951,0,0,1-8.123-5.828l-4.23-4.036s.944,5,1.2,5.044,5.438,5.291,5.438,5.291l5.878,3.3,6.286,1.55Z" fill="#0dd6b4"/>
            <path id="Path_504" data-name="Path 504" d="M348.488,97.135s1.4,8.428,6,14.977c5.224,7.423,15.462,13.525,21.673,18.967,2.24,1.962-2.183,1.521-5.316.5a20.526,20.526,0,0,1-7.482-4.4l-5.424-4.97a35.466,35.466,0,0,1-7.992-10.758l-3.518-9.265Z" fill="#0dd6b4"/>
            <path id="Path_505" data-name="Path 505" d="M355.848,97.063a22.712,22.712,0,0,1,3.247.823c17.6,5.738,19.514,24.472,19.633,31.015a140.958,140.958,0,0,1,12.441,12.138c-5.479-12.874-2.32-33.072,3.186-32.146,1.375.232,2.895,1.779,4.464,5.086,7.555,15.921-1.121,28.317-3.768,31.548a128.1,128.1,0,0,1,11.761,16.766q.535.912,1.053,1.833c-.512-12.332,9.724-27.713,15.209-26.791,1.707.287,2.953,2.153,3.273,6.179,1.247,15.694-11.481,23.251-15.919,25.395a124.829,124.829,0,0,1,8.408,21.075c1.134-12.079,13.653-25.621,19.3-24.672,1.942.327,3.07,2.374,2.635,6.79-1.608,16.323-16.585,21.275-20.7,22.333.228.884.449,1.771.657,2.662a125.082,125.082,0,0,1,2.726,16.511c3.162-11.06,16.833-21.205,23.369-20.1,2.627.442,4.1,2.7,3.276,7.45-2.9,16.7-21.757,19.032-26.192,19.35a85.139,85.139,0,0,1-.416,13.359,8.286,8.286,0,0,0-1.492-.391,6.7,6.7,0,0,0-1.8-.074,79.014,79.014,0,0,0,.4-11.684,38.677,38.677,0,0,1-10.049-.289c-6.326-1.064-13.521-4.211-16.565-12.616-2.311-6.381,1.333-8.379,6.678-7.48,6.6,1.11,15.787,6.636,19.555,13.782a120.566,120.566,0,0,0-2.76-17.2q-.277-1.182-.581-2.357c-2.047.74-8.279,2.688-14.632,1.62a16.947,16.947,0,0,1-11.7-7.467c-4.425-6.6,1.368-8.8,8.748-7.556,5.953,1,12.938,4.238,16.422,9.2a121.531,121.531,0,0,0-7.98-20.194,26.726,26.726,0,0,1-14.167,1.937,18.346,18.346,0,0,1-11.045-6.265c-5.439-6.251.5-8.407,8.157-7.12,5.072.853,10.9,3.219,14.654,6.907-.471-.846-.948-1.688-1.439-2.524a124.715,124.715,0,0,0-11.112-15.882c-2.094,1.342-11.175,6.649-21.463,4.918a24.736,24.736,0,0,1-11.7-5.432c-9.965-8.155,2.085-12.017,14.858-9.869a34.985,34.985,0,0,1,13.908,5.287,138.017,138.017,0,0,0-12.221-11.835c-.279-.034-.555-.073-.834-.12-18.813-3.164-37.509-36.928-19.483-33.9m.4-2.349a10.221,10.221,0,0,0-6.67.727,6.514,6.514,0,0,0-3.288,4.841c-.638,3.8,1.139,10.858,8.041,19.3,6.18,7.559,13.692,12.561,20.609,13.725l.206.033q1.473,1.276,2.9,2.587c-1.137-.276-2.207-.487-3.173-.65-8.395-1.412-18.5-.579-20.843,4.586-.927,2.04-.971,5.341,4.081,9.475a27.188,27.188,0,0,0,12.816,5.938c9.17,1.543,17.317-1.976,21.3-4.168q3.108,3.915,5.863,8.02a34.293,34.293,0,0,0-7.011-1.969c-2.967-.5-10.117-1.213-12.431,2.918-.89,1.588-1.25,4.284,2.082,8.115a20.7,20.7,0,0,0,12.447,7.05,28.073,28.073,0,0,0,13.381-1.288q2.27,4.727,4.119,9.645a33.584,33.584,0,0,0-10.985-4c-5.925-1-10.373.057-12.2,2.89-1.009,1.563-1.641,4.278,1.081,8.341a18.982,18.982,0,0,0,10.076,7.708c-3.457-.07-5.336,1.2-6.336,2.4-1.682,2.017-1.872,4.869-.565,8.477,2.791,7.7,9.157,12.6,18.41,14.154a40.25,40.25,0,0,0,8.1.489,70.683,70.683,0,0,1-.417,8.8,2.382,2.382,0,0,0,2.615,2.7,4.349,4.349,0,0,1,1.148.055,6.194,6.194,0,0,1,1.017.26,2.43,2.43,0,0,0,.475.131,2.38,2.38,0,0,0,2.755-2.027,82.742,82.742,0,0,0,.5-11.543c6.844-.917,23.266-4.809,26.1-21.08.571-3.283.208-5.868-1.078-7.686a6.207,6.207,0,0,0-4.151-2.521c-3.9-.656-9.45,1.586-14.851,6a38.438,38.438,0,0,0-7.573,8.233c-.477-2.954-1.06-5.9-1.746-8.83-.037-.16-.075-.322-.115-.486,6.3-2.11,18.677-8.206,20.206-23.732.725-7.359-2.577-9.031-4.61-9.373-2.325-.391-5.082.624-8.2,3.017a40.245,40.245,0,0,0-11.754,15.668c-1.465-3.988-3.131-7.908-4.984-11.724,5.669-3.27,16.328-11.5,15.129-26.6-.5-6.246-3.131-7.983-5.253-8.34-2.094-.352-4.378.549-6.791,2.676-4.313,3.8-8.738,11.356-10.462,19.111a131.945,131.945,0,0,0-8.133-11.295,31.405,31.405,0,0,0,2.888-32.52c-1.862-3.925-3.9-6.023-6.221-6.413a5.074,5.074,0,0,0-4.941,2.218c-3.272,4.153-4.792,14.386-3.347,23.985q-2.615-2.532-5.385-4.96a45.16,45.16,0,0,0-3.423-15.643c-3.585-8.278-9.581-13.838-17.821-16.523a25.152,25.152,0,0,0-3.589-.908m60.6,112.213a35.588,35.588,0,0,0-12.445-7.311,33.32,33.32,0,0,0,10.773-1.224c.661,2.821,1.22,5.673,1.672,8.535" fill="#002033"/>
            <path id="Path_506" data-name="Path 506" d="M232.8,378.776c-2.571.124-5.184,1.7-7.362,2.99a94.653,94.653,0,0,0-10.408,7.31,196.722,196.722,0,0,0-21.476,19.8c-5.519,5.875-10.642,11.719-12.436,19.8-2.389,10.76,1.155,21.878,6.554,31.163,5.206,8.953,12.452,17.624,21.242,23.261,2.255,1.446.269,5.126-2,3.67-8.281-5.31-15.2-13-20.584-21.165-6.271-9.5-10.917-20.977-10.044-32.551.719-9.543,5.06-16.784,11.214-23.75a195.738,195.738,0,0,1,22.481-21.494,109.145,109.145,0,0,1,12.841-9.359c2.973-1.788,6.357-3.693,9.907-3.864,2.686-.129,2.763,4.051.072,4.181" fill="#002033"/>
            <path id="Path_507" data-name="Path 507" d="M207.975,488.429a3.28,3.28,0,0,1-1.771-.54c-7.657-4.912-14.91-12.363-20.973-21.551-5.23-7.925-11.255-20.149-10.258-33.376.838-11.106,6.608-18.94,11.542-24.524A197.422,197.422,0,0,1,209.147,386.8a110.875,110.875,0,0,1,13-9.47c3.24-1.95,6.722-3.869,10.524-4.052a3.142,3.142,0,0,1,2.885,1.432,3.654,3.654,0,0,1,.151,3.6,3.275,3.275,0,0,1-2.836,1.788c-2.175.106-4.512,1.485-6.574,2.7l-.183.108a94.641,94.641,0,0,0-10.26,7.209,196.032,196.032,0,0,0-21.333,19.671c-5.623,5.988-10.416,11.564-12.108,19.187-2.55,11.483,2.077,22.769,6.406,30.214,4.005,6.887,10.866,16.437,20.814,22.813a3.507,3.507,0,0,1,1,4.9,3.149,3.149,0,0,1-2.659,1.532m24.881-112.517H232.8c-3.191.152-6.34,1.9-9.292,3.676a108.825,108.825,0,0,0-12.683,9.248,195.1,195.1,0,0,0-22.331,21.348c-7.014,7.942-10.27,14.813-10.886,22.976-.941,12.483,4.826,24.141,9.83,31.724,5.86,8.882,12.844,16.069,20.2,20.782.163.107.469.3.783-.2a.889.889,0,0,0-.208-1.254c-10.389-6.662-17.518-16.569-21.668-23.708-4.567-7.852-9.437-19.8-6.7-32.113,1.837-8.276,6.866-14.145,12.762-20.422a198.632,198.632,0,0,1,21.622-19.936,96.988,96.988,0,0,1,10.554-7.41l.182-.107c2.209-1.3,4.96-2.927,7.786-3.065h0a.65.65,0,0,0,.618-.36,1.037,1.037,0,0,0-.024-.961.5.5,0,0,0-.479-.224" fill="#002033"/>
            <path id="Path_508" data-name="Path 508" d="M214.781,462.251a17.038,17.038,0,0,1,5.488,4.034c1.759,1.747,3.833,3.487,4.186,6.089.751,5.532-5.486,7.776-9.848,8.252l-.072-4.181a8.161,8.161,0,0,1,7.016,2.606,6.813,6.813,0,0,1,.738,7.721c-3.1,5.417-11.635,3.063-15.7.191a2.156,2.156,0,0,1-.834-2.836,2.1,2.1,0,0,1,2.835-.835,13.249,13.249,0,0,0,4.9,2.209c1.381.3,3.8.725,4.9-.423a2.574,2.574,0,0,0,.12-3.185,4.171,4.171,0,0,0-3.9-1.267,2.112,2.112,0,0,1-2.127-2.055,2.137,2.137,0,0,1,2.055-2.126c1.863-.2,7.227-1.421,5.455-4.355a19.708,19.708,0,0,0-3.391-3.552,11.8,11.8,0,0,0-3.819-2.617,2.1,2.1,0,0,1-.835-2.835,2.142,2.142,0,0,1,2.836-.835" fill="#002033"/>
            <path id="Path_509" data-name="Path 509" d="M215.9,491.348a18.729,18.729,0,0,1-10.067-3.309,3.464,3.464,0,0,1-1.232-4.544,3.633,3.633,0,0,1,2.322-1.714,2.992,2.992,0,0,1,2.434.433,11.889,11.889,0,0,0,4.413,2c2.608.562,3.416.213,3.666-.046a1.267,1.267,0,0,0,.014-1.486c-.6-.818-1.953-.82-2.7-.741h-.009a3.064,3.064,0,0,1-2.372-.813,3.548,3.548,0,0,1-1.2-2.53,3.458,3.458,0,0,1,3.232-3.463c1.853-.2,4.213-1.01,4.6-1.788.028-.059.1-.2-.131-.571a12.368,12.368,0,0,0-2.3-2.472c-.3-.275-.6-.544-.877-.811a10.432,10.432,0,0,0-3.4-2.345,2.978,2.978,0,0,1-1.684-1.812,3.618,3.618,0,0,1,.183-2.879,3.425,3.425,0,0,1,4.485-1.429h0a18.368,18.368,0,0,1,5.926,4.323l.58.568c1.69,1.647,3.606,3.513,3.983,6.279a6.845,6.845,0,0,1-1.4,5.329,8.289,8.289,0,0,1-1.308,1.326,8.083,8.083,0,0,1,.377,8.576,7.6,7.6,0,0,1-5.118,3.67,11.232,11.232,0,0,1-2.423.251m-8.22-7.016a.743.743,0,0,0-.16.02.991.991,0,0,0-.6.407c-.3.546.26,1,.438,1.126,2.578,1.822,7.1,3.366,10.4,2.635a4.9,4.9,0,0,0,3.4-2.4,5.515,5.515,0,0,0-.325-5.86,15.384,15.384,0,0,1-1.447.61c.067.079.131.159.193.243a3.879,3.879,0,0,1-.228,4.879c-1.492,1.561-4.057,1.249-6.129.8a14.475,14.475,0,0,1-5.38-2.422.27.27,0,0,0-.154-.037m8.2-6.6.025,1.363a16.681,16.681,0,0,0,2.6-.715,7.272,7.272,0,0,0-2.624-.648m3.983-1.638a8.877,8.877,0,0,1,1.362.845,5.919,5.919,0,0,0,1.067-1.04,4.25,4.25,0,0,0,.858-3.348c-.253-1.866-1.688-3.264-3.208-4.745l-.6-.587a15.866,15.866,0,0,0-5.049-3.746c-.324-.13-.909-.271-1.186.242a.988.988,0,0,0-.016.726.433.433,0,0,0,.185.255,12.871,12.871,0,0,1,4.241,2.889c.26.251.539.5.823.76a14.482,14.482,0,0,1,2.783,3.063,3.086,3.086,0,0,1,.236,3.1,4.145,4.145,0,0,1-1.5,1.582" fill="#002033"/>
            <path id="Path_510" data-name="Path 510" d="M208.732,429.137a141.173,141.173,0,0,1,6.312,13.23c1.819,4.48,3.339,9.076,4.9,13.649.871,2.547-3.141,3.723-4.01,1.18-1.523-4.452-3-8.926-4.76-13.293a129.947,129.947,0,0,0-6-12.562c-1.261-2.366,2.287-4.581,3.553-2.2" fill="#002033"/>
            <path id="Path_511" data-name="Path 511" d="M217.915,459.933a3.64,3.64,0,0,1-.7-.067,3.3,3.3,0,0,1-2.531-2.243l-.621-1.819c-1.283-3.771-2.611-7.668-4.114-11.409a129.582,129.582,0,0,0-5.939-12.433,3.455,3.455,0,0,1,1.516-4.747,3.115,3.115,0,0,1,4.368,1.3h0a141.739,141.739,0,0,1,6.369,13.354c1.587,3.911,2.965,7.955,4.3,11.867l.631,1.852a3.121,3.121,0,0,1-.564,3.144,3.622,3.622,0,0,1-2.715,1.2m-10.777-30.5a.8.8,0,0,0-.369.111.877.877,0,0,0-.426,1.177,132.038,132.038,0,0,1,6.057,12.69c1.53,3.806,2.87,7.739,4.165,11.542l.62,1.817a.68.68,0,0,0,.542.506,1,1,0,0,0,.915-.277c.087-.1.162-.244.055-.555l-.632-1.854c-1.32-3.877-2.684-7.886-4.245-11.727a138.742,138.742,0,0,0-6.253-13.105.492.492,0,0,0-.429-.325" fill="#002033"/>
            <path id="Path_512" data-name="Path 512" d="M221.5,377.376c-1.1,6.393-5.706,91.984-6.805,98.376q-.864,5.023-1.727,10.046c-.416,2.418-.576,5.266-1.657,7.511-1,2.082-2.64,1.141-4.57,1.151-2.126.011-4.234.976-4.911,3.123-1.578,5,4.806,8.82,8.9,9.19,1.946.175,2.546-2.687.969-3.579a29.53,29.53,0,0,1-2.6-1.71c-.2-.145-2.192-2.3-2.282-2.3q-1.31,1.072-.361,1.024c.166.011.33.026.5.044a6.889,6.889,0,0,0,1.607.215,9,9,0,0,0,2.761,0c4.126-.741,6.233-4.983,6.921-8.754,2.034-11.146,6.834-101.681,8.489-112.89.5-3.391-4.636-4.913-5.233-1.443" fill="#002033"/>
            <path id="Path_513" data-name="Path 513" d="M229.675,378.844q2.474.105,4.942.236c.224.013,2.269.131,1.218.067q1.236.075,2.47.157,4.244.281,8.463.623c2.878.229,5.746.484,8.626.707,1.877.145,3.756.21,5.653.273,2.131.07,4.1-.034,6.216-.171,2.019-.13,3.6-1.134,3.815-1.943.236-.868-.624-1.918-2.543-2.33-6.056-1.3-12.688-1.584-19.293-1.985-6.5-.394-13.011-.73-19.567-.894-3.135-.078-6.132,1.266-5.992,2.63.157,1.539,2.639,2.487,5.992,2.63" fill="#002033"/>
            <path id="Path_514" data-name="Path 514" d="M366.87,487.35s6.12,24.96,13,35.277" fill="#002033"/>
            <path id="Path_515" data-name="Path 515" d="M379.87,525.266a2.636,2.636,0,0,1-2.2-1.175c-7.054-10.581-13.111-35.075-13.365-36.112a2.639,2.639,0,1,1,5.126-1.258c.061.245,6.091,24.632,12.63,34.442a2.639,2.639,0,0,1-2.193,4.1" fill="#002033"/>
            <path id="Path_516" data-name="Path 516" d="M428.446,252.018s24.093,5.009,23.336,53.007c0,0,15.432,2.509,18.792,22.828,1.138,6.883,7.6,8.085,9.438,17.539.669,3.426-5.1,9.687-5.894,15.428-.472,3.392,4,6.844,3.872,8.768-.242,3.614-7.677,8-7.93,10.973-.613,7.2-1.16,12.019-1.16,12.019l-9.083,16.22-31.374,4.841-16.832,2.07s-7.671-1.7-9.677-3.988c-14.942,1.137-43.631-7.773-43.631-7.773s-.752-25.792-3.439-29.016c3.117.215,13.828-.752,25.748-15.825.116-5.847,6.182-24.369,13.62-30.246s6.954-18.026,6.954-18.026,8.434-54.561,27.26-58.819" fill="#ffd9bd"/>
            <path id="Path_517" data-name="Path 517" d="M408.084,350.75c-11.507-.411-18.76-12.228-17-23.469,2.547-16.248,24.2-25.847,38.638-27.479,14.38-1.626,34.373,2.743,41.051,17.341,1.585,3.464,1.242,6.874,2.133,10.46,1.687,6.78,7.719,11.589,9.346,18.021,1.523,6.019-3.041,11.379-6.324,16.288-1.858,2.778-5.941-.412-4.1-3.17,5.48-8.2,5.25-10.161.807-18.809-1.382-2.689-3.133-4.886-4.05-7.8-1.745-5.549-.516-10.132-4.176-15.558-4.008-5.94-10.687-8.67-17.285-10.327a48.536,48.536,0,0,0-42.156,9.313c-10.248,8.215-12.258,29.488,3.863,30.063,3.324.119,2.553,5.243-.752,5.125" fill="#002033"/>
            <path id="Path_518" data-name="Path 518" d="M474.083,363.388c-.058,0-.115,0-.174-.007a3.307,3.307,0,0,1-2.631-1.84,2.961,2.961,0,0,1,.219-3.025c5.43-8.122,5.159-9.88.782-18.4-.47-.917-.993-1.791-1.5-2.636a24.414,24.414,0,0,1-2.576-5.227,32.155,32.155,0,0,1-1.136-5.984c-.387-3.163-.751-6.151-2.989-9.468-4.281-6.346-11.78-8.838-17.049-10.161a48.4,48.4,0,0,0-41.8,9.236c-6.13,4.914-9.367,14.927-7.067,21.867,1.085,3.274,3.82,7.229,10.689,7.475a2.5,2.5,0,0,1,2.532,2.738,3.232,3.232,0,0,1-3.186,3.2l-.125,0a17.18,17.18,0,0,1-12.733-6.44,22.392,22.392,0,0,1-4.652-17.5c2.579-16.439,24.353-26.164,38.993-27.818a54.507,54.507,0,0,1,23.6,2.607c8.613,3.062,14.793,8.24,17.871,14.968a20.8,20.8,0,0,1,1.5,6.481,31.9,31.9,0,0,0,.654,4.049c.839,3.375,2.816,6.309,4.728,9.147,1.868,2.772,3.8,5.639,4.616,8.873,1.373,5.422-2.048,10.349-5.066,14.7-.448.646-.892,1.284-1.314,1.916a2.594,2.594,0,0,1-2.183,1.251M435.55,304.419a47.918,47.918,0,0,1,11.678,1.437c5.4,1.355,13.086,3.918,17.522,10.493,2.347,3.479,2.723,6.56,3.121,9.824a31.438,31.438,0,0,0,1.106,5.839,23.5,23.5,0,0,0,2.5,5.054c.513.856,1.043,1.741,1.527,2.681,4.433,8.631,4.775,10.837-.831,19.22a2.142,2.142,0,0,0-.165,2.216,2.475,2.475,0,0,0,1.958,1.39,1.794,1.794,0,0,0,1.63-.887c.424-.634.87-1.277,1.321-1.927,3.063-4.41,6.228-8.972,4.946-14.037-.783-3.1-2.59-5.779-4.5-8.619-1.952-2.9-3.97-5.891-4.842-9.4a32.847,32.847,0,0,1-.674-4.149,19.842,19.842,0,0,0-1.435-6.239c-6.2-13.549-25.133-18.859-40.639-17.109-14.383,1.626-35.77,11.121-38.281,27.14a21.565,21.565,0,0,0,4.475,16.856,16.377,16.377,0,0,0,12.136,6.146c.031,0,.062,0,.092,0a2.431,2.431,0,0,0,2.381-2.418,1.7,1.7,0,0,0-1.75-1.9c-5.723-.2-9.782-3.055-11.43-8.029-2.437-7.355.851-17.562,7.329-22.754a49.445,49.445,0,0,1,30.83-10.827" fill="#002033"/>
            <path id="Path_519" data-name="Path 519" d="M472.22,381.78c5.037,23.766-18.506,35.307-38.511,34.524-3.325-.13-2.555-5.254.752-5.125,16.895.661,36.9-8.583,32.612-28.808-.689-3.255,4.46-3.834,5.147-.591" fill="#002033"/>
            <path id="Path_520" data-name="Path 520" d="M435.665,416.748c-.657,0-1.313-.013-1.972-.039a2.51,2.51,0,0,1-2.53-2.759,3.212,3.212,0,0,1,3.314-3.176c11.451.425,22.517-3.619,28.2-10.362,4.138-4.908,5.483-10.95,4-17.958a2.513,2.513,0,0,1,.728-2.5,3.3,3.3,0,0,1,3.145-.576,3.035,3.035,0,0,1,2.067,2.314c1.8,8.495.05,16.192-5.063,22.255-6.643,7.881-19,12.8-31.889,12.8m-1.326-5.166a2.393,2.393,0,0,0-2.366,2.4,1.709,1.709,0,0,0,1.751,1.918c13.355.5,26.385-4.375,33.21-12.472,5.017-5.949,6.662-13.2,4.889-21.564a2.215,2.215,0,0,0-1.524-1.711,2.471,2.471,0,0,0-2.352.407,1.714,1.714,0,0,0-.476,1.726c1.539,7.265.135,13.539-4.173,18.648-5.841,6.927-17.173,11.12-28.852,10.649h-.107" fill="#002033"/>
            <path id="Path_521" data-name="Path 521" d="M392.689,335.521c-7.873,8.33-9.3,19.512-7.78,30.487.455,3.3-4.69,3.9-5.147.591-1.683-12.184.1-25.013,8.83-34.248,2.274-2.4,6.386.748,4.1,3.17" fill="#002033"/>
            <path id="Path_522" data-name="Path 522" d="M382.331,369.207a2.878,2.878,0,0,1-2.972-2.553c-1.38-10-.951-24.118,8.937-34.581a3.2,3.2,0,0,1,4.563-.046,2.531,2.531,0,0,1,.125,3.772c-6.855,7.251-9.436,17.4-7.674,30.154a2.772,2.772,0,0,1-2.51,3.221,3.5,3.5,0,0,1-.469.033m8.207-37.312a2.229,2.229,0,0,0-1.651.735c-9.669,10.229-10.082,24.088-8.724,33.913a2.126,2.126,0,0,0,2.526,1.829,1.973,1.973,0,0,0,1.817-2.308c-1.8-13.013.858-23.383,7.888-30.821a1.729,1.729,0,0,0-.092-2.627,2.615,2.615,0,0,0-1.764-.721m2.151,3.626h0Z" fill="#002033"/>
            <path id="Path_523" data-name="Path 523" d="M393.276,391.559a25.316,25.316,0,0,0,34.455,20.256c3.114-1.175,5.063,3.624,1.937,4.8a30.577,30.577,0,0,1-41.539-24.468c-.485-3.3,4.66-3.892,5.147-.591" fill="#002033"/>
            <path id="Path_524" data-name="Path 524" d="M418.349,419.11a30.694,30.694,0,0,1-15.609-4.229,31.36,31.36,0,0,1-15.012-22.671,2.666,2.666,0,0,1,.961-2.588,3.335,3.335,0,0,1,3.2-.442,2.831,2.831,0,0,1,1.788,2.32,24.911,24.911,0,0,0,33.912,19.935,2.926,2.926,0,0,1,3.856,1.822,2.77,2.77,0,0,1-1.633,3.74,32.488,32.488,0,0,1-11.462,2.113m-27.668-29.346a2.421,2.421,0,0,0-1.49.493,1.854,1.854,0,0,0-.662,1.834,30.171,30.171,0,0,0,40.995,24.148,1.97,1.97,0,0,0,1.161-2.7,2.121,2.121,0,0,0-2.811-1.35,25.721,25.721,0,0,1-35-20.575,2.049,2.049,0,0,0-1.285-1.684,2.455,2.455,0,0,0-.908-.17" fill="#002033"/>
            <path id="Path_525" data-name="Path 525" d="M449.37,302.248c-.451-9.293-1.578-18.55-4.919-27.3-1.792-4.694-4.183-11.118-8.1-14.36-10.134-8.384-17.4-2.645-21.24,6.4-3.307,7.8-3.737,17.2-5.538,25.454A207.027,207.027,0,0,1,403.2,315.8c-1.085,3.157-5.845,1.113-4.765-2.027,4.917-14.3,6.315-29.105,10.213-43.585,2.244-8.334,7.1-17.3,16.41-19.072,22.8-4.337,28.74,35.772,29.455,50.538.16,3.308-4.985,3.933-5.146.591" fill="#002033"/>
            <path id="Path_526" data-name="Path 526" d="M401.088,317.782a3.195,3.195,0,0,1-3.032-4.137c2.868-8.346,4.566-17.02,6.209-25.408,1.167-5.965,2.375-12.132,3.994-18.152,1.715-6.37,6.169-17.356,16.727-19.365a16.07,16.07,0,0,1,13.479,3.255c11.611,9.146,15.806,34.263,16.455,47.662a2.957,2.957,0,0,1-1.364,2.7,3.311,3.311,0,0,1-3.207.22,2.582,2.582,0,0,1-1.384-2.287c-.371-7.653-1.262-17.661-4.893-27.18l-.113-.3c-1.736-4.552-4.113-10.786-7.868-13.894-4-3.312-7.763-4.569-11.176-3.737-3.737.912-7.087,4.458-9.433,9.987-2.191,5.163-3.119,11.112-4.015,16.865-.444,2.836-.9,5.767-1.5,8.517a206.142,206.142,0,0,1-6.378,23.409,2.554,2.554,0,0,1-2.5,1.847m27.3-66.581a17.236,17.236,0,0,0-3.248.316c-10.124,1.925-14.43,12.592-16.1,18.78-1.613,5.991-2.818,12.144-3.983,18.1-1.648,8.415-3.351,17.117-6.239,25.515a2.269,2.269,0,0,0,1.523,2.937,1.827,1.827,0,0,0,2.478-1.173,205.675,205.675,0,0,0,6.352-23.319c.6-2.725,1.05-5.644,1.491-8.469.906-5.8,1.841-11.8,4.072-17.057,1.73-4.082,4.869-9.209,9.986-10.458,3.675-.894,7.674.418,11.884,3.9,3.919,3.243,6.34,9.593,8.11,14.229l.113.3c3.671,9.625,4.57,19.715,4.944,27.43a1.78,1.78,0,0,0,.946,1.605,2.483,2.483,0,0,0,2.4-.182,2.137,2.137,0,0,0,.993-1.976c-.643-13.262-4.766-38.1-16.148-47.064a15.154,15.154,0,0,0-9.577-3.411" fill="#002033"/>
            <path id="Path_527" data-name="Path 527" d="M422.7,350.358l-13.311.4c-3.3.1-3.933-5.046-.591-5.146l13.311-.4c3.3-.1,3.933,5.046.591,5.147" fill="#002033"/>
            <path id="Path_528" data-name="Path 528" d="M409.29,351.165a3.131,3.131,0,0,1-3.114-3.156,2.567,2.567,0,0,1,2.609-2.8l13.311-.4.108,0a3.13,3.13,0,0,1,3.115,3.156,2.566,2.566,0,0,1-2.609,2.8l-13.311.4c-.036,0-.073,0-.109,0m13.409-.807h0Zm-.5-4.744h-.081l-13.311.4a1.767,1.767,0,0,0-1.823,1.969,2.339,2.339,0,0,0,2.309,2.369h.081l13.312-.4a1.766,1.766,0,0,0,1.823-1.969,2.339,2.339,0,0,0-2.31-2.371" fill="#002033"/>
            <path id="Path_529" data-name="Path 529" d="M410.327,351.385c-9.174,2.686-8.24,12.691-6.2,20.007,2.278,8.153,10.482,6.949,17.5,6.569,3.309-.179,3.932,4.966.591,5.147-5.248.284-12.226.932-17.2-1.071-4.663-1.879-5.525-7.6-6.567-11.962-2.2-9.223-.412-20.464,9.935-23.493,3.169-.928,5.139,3.866,1.937,4.8" fill="#002033"/>
            <path id="Path_530" data-name="Path 530" d="M414.427,383.842a26.231,26.231,0,0,1-9.557-1.429c-4.417-1.781-5.581-6.881-6.515-10.978-.1-.432-.2-.856-.294-1.267-2.332-9.762-.078-20.961,10.216-23.975a3.049,3.049,0,0,1,3.026.732,3.29,3.29,0,0,1,.987,3.034,2.506,2.506,0,0,1-1.85,1.814c-8.686,2.544-8.013,12.013-5.919,19.508,2.015,7.211,8.84,6.784,15.445,6.373.551-.034,1.1-.068,1.64-.1A2.92,2.92,0,0,1,424.3,378.9a3.317,3.317,0,0,1,.234,3.208,2.6,2.6,0,0,1-2.291,1.406l-1.528.088c-1.963.114-4.118.242-6.286.242m-5.233-36.974a2.469,2.469,0,0,0-.691.1c-9.782,2.864-11.9,13.62-9.653,23.009.1.414.2.84.295,1.274.939,4.118,2,8.785,6.029,10.406,4.417,1.782,10.559,1.42,15.492,1.13l1.532-.087a1.784,1.784,0,0,0,1.612-.964,2.485,2.485,0,0,0-.19-2.4,2.122,2.122,0,0,0-1.97-.974c-.539.029-1.085.063-1.634.1-6.6.412-14.085.878-16.276-6.964-3.144-11.253-.906-18.344,6.473-20.505a1.707,1.707,0,0,0,1.29-1.228,2.459,2.459,0,0,0-.759-2.256,2.239,2.239,0,0,0-1.55-.643" fill="#002033"/>
            <path id="Path_531" data-name="Path 531" d="M410.523,383.213c-3.882,4.507-2.711,10.216,2.194,13.37,4.317,2.774,9.756,2.873,14.726,3.081,3.325.14,2.556,5.264-.752,5.125-7.513-.315-15.843-1.155-20.886-7.473a13.426,13.426,0,0,1,.621-17.273c2.172-2.521,6.275.641,4.1,3.17" fill="#002033"/>
            <path id="Path_532" data-name="Path 532" d="M426.82,405.2c-.049,0-.1,0-.145,0-7.559-.316-16.051-1.192-21.187-7.624a13.788,13.788,0,0,1,.632-17.791,2.915,2.915,0,0,1,2.809-1.012,3.321,3.321,0,0,1,2.473,2.065,2.613,2.613,0,0,1-.572,2.645,8.32,8.32,0,0,0-2.142,6.634,8.906,8.906,0,0,0,4.249,6.13c4.027,2.59,9.015,2.794,13.839,2.991l.683.028a2.5,2.5,0,0,1,2.223,1.311,3.293,3.293,0,0,1-.232,3.179,3.05,3.05,0,0,1-2.63,1.448m-18.459-25.675a2.119,2.119,0,0,0-1.627.785,12.987,12.987,0,0,0-.612,16.757c4.922,6.165,13.207,7.011,20.586,7.32a2.172,2.172,0,0,0,2.058-1.07,2.459,2.459,0,0,0,.2-2.369,1.7,1.7,0,0,0-1.537-.876l-.682-.029c-4.7-.192-10.033-.408-14.246-3.117a9.709,9.709,0,0,1-4.612-6.7,9.115,9.115,0,0,1,2.33-7.278,1.8,1.8,0,0,0,.421-1.85,2.488,2.488,0,0,0-1.86-1.536,2.28,2.28,0,0,0-.416-.04" fill="#002033"/>
            <path id="Path_533" data-name="Path 533" d="M414.621,398.252a19.172,19.172,0,0,0,17.762,12.739c3.289,0,3.928,5.151.591,5.146a24.436,24.436,0,0,1-23.156-15.948c-1.138-3.125,3.66-5.076,4.8-1.937" fill="#002033"/>
            <path id="Path_534" data-name="Path 534" d="M432.978,416.542h0a24.711,24.711,0,0,1-23.536-16.213,2.953,2.953,0,0,1,1.886-3.876A2.734,2.734,0,0,1,415,398.114a18.743,18.743,0,0,0,17.383,12.473,3.245,3.245,0,0,1,3.207,3.338,2.481,2.481,0,0,1-2.612,2.617m-20.551-19.477a2.435,2.435,0,0,0-.825.149,2.171,2.171,0,0,0-1.4,2.836,23.916,23.916,0,0,0,22.776,15.683h0a1.679,1.679,0,0,0,1.8-1.809,2.446,2.446,0,0,0-2.4-2.528,19.55,19.55,0,0,1-18.142-13,1.864,1.864,0,0,0-1.814-1.327" fill="#002033"/>
            <path id="Path_535" data-name="Path 535" d="M476.2,360.97c.8,4.96,5.4,8.656,2.566,13.833a18.681,18.681,0,0,1-9.392,7.8c-3.1,1.208-5.049-3.592-1.937-4.8,2.392-.931,5.987-3.108,6.913-5.671.6-1.658-.46-3.2-1.2-4.7a20.071,20.071,0,0,1-2.1-5.873c-.529-3.289,4.617-3.882,5.147-.591" fill="#002033"/>
            <path id="Path_536" data-name="Path 536" d="M468.387,383.2a2.711,2.711,0,0,1-1.716-.616,3.331,3.331,0,0,1-1.184-3.006,2.718,2.718,0,0,1,1.8-2.159c2.643-1.029,5.86-3.168,6.679-5.432.452-1.25-.177-2.448-.842-3.716-.116-.222-.23-.441-.34-.66a20.52,20.52,0,0,1-2.132-5.989,2.629,2.629,0,0,1,.907-2.568,3.323,3.323,0,0,1,3.19-.473A2.9,2.9,0,0,1,476.6,360.9a18.089,18.089,0,0,0,1.728,4.766c1.342,2.844,2.733,5.786.793,9.326a19.123,19.123,0,0,1-9.6,7.983,3.118,3.118,0,0,1-1.133.223m5.185-24.022a2.394,2.394,0,0,0-1.5.5,1.819,1.819,0,0,0-.621,1.811,19.869,19.869,0,0,0,2.061,5.758c.105.213.217.427.331.644.684,1.3,1.458,2.782.886,4.368-1.038,2.875-4.981,5.069-7.147,5.912a1.9,1.9,0,0,0-1.294,1.525,2.494,2.494,0,0,0,.891,2.252,2,2,0,0,0,2.048.27,18.282,18.282,0,0,0,9.181-7.617c1.741-3.178.5-5.807-.816-8.59a18.713,18.713,0,0,1-1.793-4.984,2.085,2.085,0,0,0-1.335-1.692,2.534,2.534,0,0,0-.892-.161" fill="#002033"/>
            <path id="Path_537" data-name="Path 537" d="M404.26,414.664l-.112,0c-27.51-1.617-46.728-8.463-47.532-8.752a1.891,1.891,0,0,1,1.283-3.557c.192.07,19.543,6.952,46.471,8.534a1.891,1.891,0,0,1-.11,3.778" fill="#002033"/>
            <path id="Path_538" data-name="Path 538" d="M404.26,414.664l-.112,0c-27.51-1.617-46.728-8.463-47.532-8.752a1.891,1.891,0,0,1,1.283-3.557c.192.07,19.543,6.952,46.471,8.534a1.891,1.891,0,0,1-.11,3.778Z" fill="none" stroke="#002033" stroke-width="2"/>
            <path id="Path_539" data-name="Path 539" d="M356.665,376.21a12.389,12.389,0,0,1-4.458-.711A1.891,1.891,0,0,1,353.652,372c.439.17,11.387,4.142,25.121-15.186a1.89,1.89,0,1,1,3.082,2.19c-10.415,14.657-19.876,17.2-25.19,17.2" fill="#002033"/>
            <path id="Path_540" data-name="Path 540" d="M356.665,376.21a12.389,12.389,0,0,1-4.458-.711A1.891,1.891,0,0,1,353.652,372c.439.17,11.387,4.142,25.121-15.186a1.89,1.89,0,1,1,3.082,2.19C371.44,373.665,361.979,376.21,356.665,376.21Z" fill="none" stroke="#002033" stroke-width="2"/>
            <g id="Group_267" data-name="Group 267" opacity="0.4" style="mix-blend-mode: multiply;isolation: isolate">
              <g id="Group_266" data-name="Group 266">
                <g id="Group_265" data-name="Group 265" clip-path="url(#clip-path-3)">
                  <path id="Path_541" data-name="Path 541" d="M460.738,326.877a6.329,6.329,0,0,1,1.186-2.114,3.13,3.13,0,0,1,3.777-.438c4.044,2.348,3.52,9.561,4.012,13.66.26,2.162-1.013,4.754-3.623,4.516a9.059,9.059,0,0,1-8-6.485c-1.153-3.628.762-6.323,2.647-9.139" fill="#f8b6ab"/>
                </g>
              </g>
            </g>
            <g id="Group_270" data-name="Group 270" opacity="0.4" style="mix-blend-mode: multiply;isolation: isolate">
              <g id="Group_269" data-name="Group 269">
                <g id="Group_268" data-name="Group 268" clip-path="url(#clip-path-4)">
                  <path id="Path_542" data-name="Path 542" d="M426.9,273.161c5.125-6.15,13.573-3.51,17.08,2.863,2.076,3.774,2.924,8.445,3.557,12.654.113.75.21,1.506.279,2.258,5.007,2.882,5.61,12.019-1.652,13.824-4.653,1.158-7.883-1.877-8.787-5.492-1.059.244-2.31.809-2.969.937a15.365,15.365,0,0,1-4.776.256,8.894,8.894,0,0,1-7.572-5.632c-2.3-5.825.912-16.955,4.84-21.668" fill="#f8b6ab"/>
                </g>
              </g>
            </g>
            <g id="Group_273" data-name="Group 273" opacity="0.4" style="mix-blend-mode: multiply;isolation: isolate">
              <g id="Group_272" data-name="Group 272">
                <g id="Group_271" data-name="Group 271" clip-path="url(#clip-path-5)">
                  <path id="Path_543" data-name="Path 543" d="M393.378,404.354c.123.13.248.258.369.391m2.541.39c3.915,6.922,13.508,12.873,20.834,11.124a4.933,4.933,0,0,0,1.066-.4c4.034,2.775,9.5,1.368,13.3-1.326,15.929.671,41.411-9.734,36.8-28.874a28.8,28.8,0,0,0,.295-3.066c.1-2.433-3.463-2.914-4.142-.649-2.282,7.613-8.864,11.932-16.317,13.359a27.581,27.581,0,0,1-10.964-.2A45.968,45.968,0,0,1,431,392.657a18.067,18.067,0,0,0,2.572-2.057c1.914-2.045,2.99-4.877,1.743-7.564-1.55-3.34-5.039-3.854-8.329-4.19a40.307,40.307,0,0,0-8.474-.1,13.058,13.058,0,0,1-6.419-5.974c-3.48-6.951.573-15.265,8.726-14.926,4.2.175,5.328-6.44,1.149-7.345-.319-.069-.64-.09-.961-.145v-.006c-.014,0-.028,0-.042,0-.38-.063-.76-.13-1.142-.172-10.414-4.167-21.464-13.038-17.869-25.652.492-1.727-2.117-2.972-2.94-1.29q-.529,1.083-1.059,2.165a1.093,1.093,0,0,0-.042.933,30.4,30.4,0,0,0-1.376,10.339,3.238,3.238,0,0,0-.6.63c-2.325,3.375-1.4,8.11,1.4,10.938a10.7,10.7,0,0,0,2.055,1.612c-13.658,6.746-7.674,25.622-5.624,37.485a58.223,58.223,0,0,0,2.2,8.68,6.773,6.773,0,0,1-3.168-.573,3.006,3.006,0,0,0-1.195-.437m12.817-4.933c-.561-2.8-.957-5.4-1.372-7.243-2.021-8.942-7.219-21.723.459-29.163a2.36,2.36,0,0,0,.492-3.049,21.124,21.124,0,0,0,2.81,1.915c-6.126,5.166-8,16.42-5.238,23.144,1.422,3.458,4.974,6.959,8.966,8.938-.21.047-.422.078-.632.127a3.279,3.279,0,0,0-1.692.942,19.121,19.121,0,0,0-3.793,4.389" fill="#f8b6ab"/>
                </g>
              </g>
            </g>
            <g id="Group_276" data-name="Group 276" opacity="0.4" style="mix-blend-mode: multiply;isolation: isolate">
              <g id="Group_275" data-name="Group 275">
                <g id="Group_274" data-name="Group 274" clip-path="url(#clip-path-6)">
                  <path id="Path_544" data-name="Path 544" d="M390.184,392.809s-20.06,9.17-29.231,2.866c0,0,.43-18.269-6.089-20.741l-1.935,3.26,2.293,25.791s29.581,8.409,49.036,8.79c0,0-12.641-12.515-14.074-19.966" fill="#f8b6ab"/>
                </g>
              </g>
            </g>
            <g id="Group_279" data-name="Group 279" opacity="0.4" style="mix-blend-mode: multiply;isolation: isolate">
              <g id="Group_278" data-name="Group 278">
                <g id="Group_277" data-name="Group 277" clip-path="url(#clip-path-7)">
                  <path id="Path_545" data-name="Path 545" d="M199.357,425.308c1-4.964,6.547-9.952,9.134-14.285a85.97,85.97,0,0,0,10.181-25.7,2.285,2.285,0,0,1,4.528.6,73.529,73.529,0,0,1-4.625,23.474,3.579,3.579,0,0,1,2.039,3.193c.033,13.377-1.7,26.789-.893,40.164a3.615,3.615,0,0,1-5.674,3.3c-7.726-4.688-16.584-21.383-14.69-30.751" fill="#f8b6ab"/>
                </g>
              </g>
            </g>
            <g id="Group_282" data-name="Group 282" opacity="0.4" style="mix-blend-mode: multiply;isolation: isolate">
              <g id="Group_281" data-name="Group 281">
                <g id="Group_280" data-name="Group 280" clip-path="url(#clip-path-8)">
                  <path id="Path_546" data-name="Path 546" d="M208.2,473.861c.664-.026,2.758.161,3.246-.3.07-.067.1-.4.153-.441,0-.016.012-.03.016-.046a1.8,1.8,0,0,1,1.1-3.344c2.577.033,4.3,3.14,3.654,5.415a4.8,4.8,0,0,1-1.635,2.448,12.1,12.1,0,0,1,1.077.924c1.852,1.846-.778,4.888-2.966,3.926-2.134-.939-3.885-2.675-5.9-3.852-1.948-1.14-.959-4.64,1.251-4.726" fill="#f8b6ab"/>
                </g>
              </g>
            </g>
            <path id="Path_547" data-name="Path 547" d="M122.942,367.6a52.537,52.537,0,0,1-3.723,19.543c-6.2,14.89-11.477,28.23,4.654,44.05" fill="none" stroke="#002033" stroke-linecap="round" stroke-linejoin="round" stroke-width="5.713"/>
            <path id="Path_548" data-name="Path 548" d="M320.633,256.021c11.953-12.112,28.357-7.974,40.357,1.542,3.016,2.392,7.569-1.1,5.3-4.54-11.341-17.175-38.208-15.884-51.149-1.9-3.232,3.494,2.185,8.251,5.5,4.895" fill="#002033"/>
            <path id="Path_549" data-name="Path 549" d="M316.5,241.571a28.581,28.581,0,0,1,10.631-4.925,1.689,1.689,0,1,0-.864-3.265,24.987,24.987,0,0,0-11.862,5.478,1.73,1.73,0,0,0,2.1,2.712" fill="#002033"/>
          </g>
        </g>
      </g>
    </g>
  </g>
</svg>
