<svg width="311" height="313" viewBox="0 0 311 313" fill="none" xmlns="http://www.w3.org/2000/svg">
<g clip-path="url(#clip0_813_217)">
<path d="M173.746 0.0922241C173.687 0.0922241 173.63 0.115838 173.588 0.157842C173.546 0.199846 173.523 0.256856 173.523 0.316258C173.523 0.37566 173.546 0.43259 173.588 0.474594C173.63 0.516597 173.687 0.540212 173.746 0.540212C173.806 0.540212 173.863 0.516597 173.905 0.474594C173.947 0.43259 173.97 0.37566 173.97 0.316258C173.97 0.256856 173.947 0.199846 173.905 0.157842C173.863 0.115838 173.806 0.0922241 173.746 0.0922241Z" fill="white"/>
<path d="M193.737 155.999C193.453 155.793 193.245 155.501 193.141 155.166C193.038 154.831 193.046 154.472 193.164 154.142C190.355 153.331 187.4 153.621 184.531 153.918C183.709 154.003 182.847 154.115 181.985 154.181C179.324 157.294 176.066 159.841 172.404 161.671C172.057 161.86 171.663 161.943 171.269 161.912C170.875 161.88 170.499 161.735 170.186 161.494C169.873 161.253 169.637 160.925 169.506 160.552C169.376 160.179 169.356 159.776 169.45 159.392C170.108 155.387 169.733 151.138 169.108 147.152C168.651 144.225 168.009 141.329 167.186 138.483C163.784 133.121 160.606 127.587 157.724 121.968C157.831 121.7 157.883 121.413 157.876 121.124C157.87 120.835 157.804 120.551 157.685 120.288C155.441 115.064 153.427 109.748 151.598 104.353C149.953 99.5178 148.663 94.597 147.183 89.7156C144.643 81.3033 141.379 72.7922 133.95 67.5222C132.805 66.7119 131.187 67.5222 130.818 68.7475C128.759 75.6249 127.528 82.6999 125.659 89.63C124.808 92.9784 123.729 96.2645 122.429 99.4652C121.761 101.064 121.003 102.623 120.159 104.136C119.31 105.651 118.619 107.192 116.684 107.206C112.861 107.206 108.854 106.481 105.09 105.888C101.406 105.371 97.7542 104.641 94.1541 103.701C92.6407 103.273 91.3181 102.667 90.4495 101.29C89.581 99.9131 89.2191 98.2135 88.8111 96.6786C87.8336 92.9276 87.0908 89.1192 86.587 85.2756C85.4535 76.5721 85.582 67.7503 86.9686 59.0836C87.2845 57.1073 84.4617 55.3023 83.3628 57.5026C78.3093 67.5507 73.4094 77.6714 68.663 87.8645C66.0967 80.526 63.8375 73.0864 61.8855 65.5459C61.7948 65.221 61.6225 64.9248 61.3851 64.6854C61.1477 64.446 60.853 64.2714 60.5291 64.1783C60.2052 64.0852 59.8629 64.0767 59.5348 64.1535C59.2067 64.2303 58.9037 64.3899 58.6546 64.6171C48.7319 74.3403 41.6912 86.468 32.5976 96.896V99.419C32.5976 107.219 32.5384 115.038 31.558 122.785C30.7947 128.826 30.0972 134.913 28.4587 140.795C26.7987 146.559 24.5726 152.144 21.8129 157.468C21.0496 158.97 20.2205 160.439 19.3453 161.882C18.414 163.808 17.7732 165.861 17.4437 167.976C16.5225 175.057 20.3718 181.684 25.2476 186.486C28.1836 189.314 31.3779 191.859 34.7887 194.088L35.0257 194.24C32.9069 193.95 30.7947 193.651 28.6891 193.344C24.5502 192.745 20.1678 192.481 16.1211 191.447C15.3572 191.347 14.6557 190.972 14.1471 190.393C13.7062 189.734 13.6667 188.911 13.239 188.265C12.535 187.204 11.094 186.513 9.88981 187.204C8.53431 187.982 8.42247 189.978 8.26455 191.348C8.03332 193.377 7.96947 195.422 8.0737 197.461C6.83226 199.156 5.56237 200.83 4.2639 202.481C4.33237 204.222 4.18872 205.965 3.83618 207.672C4.14542 207.76 4.46295 207.815 4.78367 207.837C5.26284 207.8 5.73959 207.736 6.21157 207.646C6.01417 208.061 5.79048 208.469 5.66546 208.765L4.63893 211.157C4.56334 211.414 4.57537 211.688 4.67307 211.938C4.77077 212.187 4.94855 212.397 5.17846 212.533C6.38658 213.129 7.73077 213.392 9.07388 213.298C8.83042 213.904 8.56065 214.503 8.25796 215.096C8.15431 215.269 8.09173 215.464 8.07507 215.665C8.0584 215.866 8.08807 216.068 8.16182 216.256C8.23557 216.444 8.35146 216.612 8.50046 216.748C8.64946 216.884 8.82766 216.983 9.02127 217.039C12.4758 217.935 15.0552 214.984 18.411 214.964C20.4772 214.964 22.5367 215.623 24.5041 216.163C26.4715 216.703 28.3666 217.237 30.288 217.817C34.1264 218.976 37.9165 220.276 41.6584 221.717C43.5359 222.432 45.4002 223.179 47.2514 223.956C48.4358 224.457 49.6466 225.195 50.8836 225.274C51.4956 224.233 52.1469 223.199 52.7984 222.171L52.7523 222.099C54.5215 217.801 56.6501 213.66 59.1153 209.721C59.1153 209.628 59.1679 209.543 59.1876 209.451C59.2864 209.016 59.5448 208.635 59.9114 208.383C60.0891 208.087 60.2931 207.804 60.4247 207.771C60.5807 207.828 60.7239 207.915 60.8458 208.028C61.2962 207.974 61.7525 208.05 62.1618 208.245C66.0572 210.142 70.4461 210.696 74.3284 212.672C74.7251 212.908 75.0266 213.276 75.1804 213.712C75.3343 214.147 75.3308 214.623 75.1706 215.057C78.3024 217.142 81.9416 218.335 85.6987 218.508C88.0664 218.712 90.4399 218.188 92.5025 217.006C94.2528 215.972 95.5425 215.439 97.6218 215.537C103.603 215.821 109.597 215.801 115.585 215.722C120.744 215.656 125.811 214.273 130.976 214.404C131.471 214.413 131.943 214.613 132.292 214.964L132.726 214.885C132.718 215.282 132.837 215.671 133.067 215.994C133.297 216.317 133.625 216.556 134.003 216.677C133.111 223.536 133.651 230.506 135.589 237.145C135.665 237.422 135.812 237.674 136.014 237.879C136.216 238.083 136.467 238.232 136.743 238.311C137.019 238.39 137.31 238.397 137.59 238.332C137.869 238.266 138.127 238.129 138.339 237.935C140.557 235.886 143.906 236.341 146.656 236.716C150.42 237.278 154.216 237.591 158.02 237.652C159.867 237.671 161.714 237.567 163.547 237.342C164.863 237.171 167.173 237.461 167.989 236.156C168.256 235.698 168.382 235.171 168.351 234.641C168.351 234.51 168.351 234.332 168.351 234.154C168.502 234.22 168.667 234.272 168.805 234.319C169.336 234.503 169.913 234.503 170.443 234.319C170.743 234.228 171.007 234.047 171.2 233.801C171.393 233.555 171.506 233.255 171.522 232.942C171.7 231.288 170.582 230.129 170.489 228.587C170.384 226.881 172.759 226.611 174.003 226.394C174.202 226.338 174.386 226.239 174.542 226.104C174.697 225.969 174.821 225.8 174.904 225.611C174.986 225.422 175.025 225.216 175.019 225.01C175.012 224.803 174.96 224.601 174.865 224.417C171.7 217.948 164.574 217.224 158.211 216.196C152.151 215.221 146.097 214.22 140.03 213.271C142.162 212.744 144.281 212.193 146.387 211.618C151.697 210.169 158.178 208.983 162.37 205.142C162.879 204.668 163.345 204.15 163.765 203.594C164.179 203.054 164.133 202.903 164.482 202.85C164.926 202.823 165.371 202.874 165.798 203.001C166.085 202.867 166.402 202.806 166.719 202.823C173.957 203.146 181.61 202.073 188.288 199.187C196.29 195.742 201.685 188.061 202.817 179.477C203.418 175.114 202.899 170.67 201.311 166.562C199.722 162.455 197.116 158.82 193.737 155.999Z" fill="#FFE1CC"/>
<path d="M56.516 276.228C52.2061 272.467 48.9424 267.829 45.784 263.099C43.0993 259.074 40.1777 252.928 34.4334 253.528C31.6105 253.818 29.1692 255.504 26.807 256.96C24.4448 258.416 21.9904 260.036 19.6742 261.729C15.1576 264.936 11.1378 268.791 7.74459 273.172C4.573 274.417 1.66462 276.466 2.40817 280.418C2.85561 282.803 4.21773 285.201 5.32976 287.328C6.45314 289.583 7.97329 291.615 9.81732 293.33C13.4693 296.557 18.128 297.717 22.688 295.787C27.952 293.554 33.0647 290.688 38.2103 288.139C44.1543 285.187 50.1005 282.241 56.0488 279.298C56.3086 279.151 56.5315 278.946 56.7008 278.7C56.8702 278.454 56.9816 278.172 57.0265 277.877C57.0715 277.581 57.0489 277.279 56.9605 276.994C56.8721 276.708 56.7201 276.447 56.516 276.228Z" fill="#FFE1CC"/>
<path d="M156.145 283.428C153.934 278.605 151.432 273.921 148.65 269.404C146.518 265.886 143.761 261.499 139.181 261.406C133.917 261.281 129.548 265.155 127.706 269.825C126.752 272.243 126.206 274.779 124.89 277.072C123.68 279.129 122.068 280.921 120.152 282.342C119.815 282.375 119.496 282.51 119.236 282.728C118.976 282.946 118.789 283.237 118.697 283.563C118.605 283.89 118.614 284.237 118.722 284.558C118.83 284.879 119.033 285.161 119.303 285.365C121.488 286.933 123.705 288.475 125.883 290.075C126.213 290.253 126.468 290.544 126.602 290.895C126.736 291.245 126.74 291.632 126.613 291.986C126.442 292.6 126.222 293.199 125.955 293.778C125.473 295.095 124.99 296.399 124.508 297.69C123.745 299.752 122.606 301.966 123.56 304.166C124.324 305.925 126.002 307.065 127.647 307.921C131.853 310.09 136.465 311.357 141.188 311.643C144.998 311.88 150.4 312.058 150.736 307.084C150.874 304.97 150.321 303.132 151.466 301.156C152.611 299.179 154.46 297.862 155.77 296.03C157.142 294.221 157.927 292.035 158.02 289.766C158.027 287.506 157.046 285.431 156.145 283.428Z" fill="#FFE1CC"/>
<path d="M169.397 226.67C169.325 226.414 169.173 226.187 168.964 226.023C168.754 225.858 168.498 225.764 168.232 225.755C167.967 225.756 167.71 225.843 167.498 226.002C167.286 226.161 167.131 226.383 167.054 226.637C166.962 226.927 166.89 227.211 166.811 227.5C166.811 227.606 166.745 227.698 166.712 227.797C166.712 227.797 166.607 228.034 166.574 228.093C166.423 228.357 166.239 228.594 166.067 228.838L165.936 228.989C165.824 229.101 165.719 229.207 165.6 229.305C165.482 229.404 165.133 229.635 165.456 229.431C165.324 229.516 165.199 229.602 165.061 229.674C164.923 229.747 164.87 229.773 164.771 229.819L164.469 229.925L164.034 230.023H163.837C163.736 230.03 163.635 230.03 163.534 230.023C163.534 230.023 163.35 230.023 163.277 230.023C163.157 229.997 163.038 229.962 162.922 229.918L162.824 229.885C162.58 229.74 162.343 229.589 162.106 229.431L161.994 229.332C161.889 229.233 161.79 229.128 161.692 229.022L161.507 228.798C161.448 228.713 161.389 228.62 161.336 228.528C161.259 228.408 161.191 228.283 161.132 228.153C161.132 228.153 161.053 227.955 161.027 227.896C160.947 227.652 160.884 227.403 160.836 227.151C160.836 227.079 160.836 227.013 160.836 226.947C160.826 226.807 160.826 226.666 160.836 226.526C160.833 226.479 160.833 226.433 160.836 226.387C160.836 226.387 160.836 226.387 160.836 226.308C160.836 226.229 160.909 226.031 160.948 225.9C161.013 225.638 160.983 225.361 160.862 225.119C160.742 224.878 160.539 224.687 160.29 224.582C160.04 224.468 159.758 224.451 159.496 224.532C159.234 224.613 159.011 224.788 158.869 225.024C158.351 226.175 158.222 227.465 158.502 228.697C158.782 229.928 159.456 231.035 160.422 231.848C161.529 232.717 162.923 233.137 164.325 233.026C165.728 232.915 167.038 232.281 167.995 231.249C169.075 230.07 169.963 228.205 169.397 226.67Z" fill="#F8B6AB"/>
<g opacity="0.4">
<path opacity="0.4" d="M146.702 235.946C146.906 235.801 146.841 235.847 146.702 235.946V235.946Z" fill="#F8B6AB"/>
<path opacity="0.4" d="M165.495 234.167C159.119 233.087 152.164 232.467 146.275 229.556C141.511 227.217 136.839 222.092 138.431 216.381C138.918 214.628 136.457 213.996 135.799 215.617C135.245 217.012 134.979 218.505 135.017 220.006C135.054 221.507 135.394 222.985 136.016 224.352C135.089 224.352 134.128 225.432 134.746 226.387C135.101 226.894 135.327 227.479 135.404 228.093C135.404 228.139 135.464 228.541 135.464 228.515L135.503 228.877C135.543 229.325 135.575 229.773 135.648 230.195C135.806 231.773 136.426 233.27 137.431 234.496C138.647 235.705 140.251 236.442 141.958 236.578C142.656 236.675 143.36 236.712 144.064 236.69C144.544 236.682 145.022 236.626 145.492 236.525C145.753 236.469 146.005 236.378 146.242 236.255C146.321 236.255 146.571 236.044 146.729 235.939C147.07 235.702 147.328 235.363 147.466 234.971C147.893 235.089 148.314 235.214 148.742 235.32C149.392 235.476 150.051 235.589 150.716 235.656C151.041 235.705 151.368 235.738 151.697 235.755C152.025 235.748 152.352 235.721 152.677 235.676C152.791 235.663 152.902 235.632 153.006 235.583L153.217 235.636C157.283 236.532 161.35 237.342 165.521 236.795C166.772 236.631 166.798 234.391 165.495 234.167Z" fill="#F8B6AB"/>
</g>
<path opacity="0.4" d="M59.1481 206.407C56.6937 208.08 55.4106 211.157 53.3774 213.271C50.7914 215.959 47.6527 216.433 44.0798 215.755C40.359 214.975 36.7131 213.873 33.1832 212.461C30.4788 211.427 27.0901 210.057 26.2676 206.974C25.9122 205.656 23.8329 205.142 23.1355 206.506C21.905 208.917 20.589 210.827 18.0688 211.993C15.8514 213.021 13.3838 213.456 11.0084 213.97C9.77139 214.22 9.9819 216.282 11.2782 216.196C14.1668 216.012 17.0686 215.682 19.7467 214.53C20.6956 214.124 21.5819 213.585 22.3787 212.929C22.316 213.149 22.2976 213.379 22.3248 213.606C22.3519 213.832 22.4239 214.052 22.5366 214.25C22.6494 214.449 22.8005 214.623 22.9813 214.763C23.1621 214.902 23.3689 215.005 23.5895 215.063C29.8274 216.927 36.0916 218.798 42.3295 220.557L46.9356 221.875C48.324 222.263 49.7584 222.784 51.2192 222.652C53.8512 222.415 55.6212 220.136 56.1015 217.672C56.1503 217.384 56.1272 217.088 56.0342 216.811C55.9412 216.534 55.7813 216.284 55.5686 216.084C56.3564 215.147 57.063 214.144 57.6808 213.087C58.6744 211.44 59.8588 209.793 60.7405 208.113C61.2274 207.119 60.2207 205.676 59.1481 206.407Z" fill="#F8B6AB"/>
<path opacity="0.4" d="M162.982 199.003C152.598 207.474 138.556 208.087 125.725 209.451C112.512 210.854 98.9772 211.018 85.8237 208.943C72.2293 206.802 60.5233 201.48 48.6858 194.694C37.0852 188.034 23.7934 179.879 22.1287 165.261C21.9839 163.983 19.9178 163.904 19.8257 165.261C18.8847 178.397 27.6559 187.699 38.0985 194.358C49.5939 201.69 61.7209 207.751 74.8811 211.183C74.6493 211.539 74.5663 211.971 74.65 212.388C74.7337 212.804 74.9774 213.171 75.3285 213.41C77.6887 215.126 80.3765 216.337 83.2246 216.967C84.657 217.26 86.1125 217.425 87.574 217.461C89.1057 217.445 90.625 217.185 92.0748 216.69C92.3114 216.603 92.5235 216.459 92.6932 216.272C92.8628 216.085 92.985 215.86 93.0496 215.616C93.1141 215.372 93.119 215.116 93.0639 214.87C93.0087 214.623 92.8952 214.393 92.7328 214.2C103.445 215.136 114.25 214.714 124.975 213.838C139.037 212.692 154.151 211.862 165.416 202.408C167.561 200.63 165.094 197.283 162.982 199.003ZM87.8964 213.713C86.639 213.713 85.3847 213.587 84.1523 213.337C83.2904 213.159 82.4481 212.929 81.619 212.678C83.8826 213.118 86.1527 213.469 88.4294 213.732L87.8964 213.713Z" fill="#F8B6AB"/>
<path opacity="0.4" d="M54.825 278.844C54.5935 278.459 54.235 278.168 53.8116 278.02L54.1341 278.159C54.0225 278.101 53.9168 278.032 53.8182 277.954L53.1997 277.447L53.5156 277.704C53.2919 277.52 53.0747 277.322 52.8576 277.118C52.9631 276.379 52.8268 275.625 52.4693 274.97C51.2717 272.632 49.4819 270.438 48.0343 268.244C47.7831 267.847 47.4121 267.54 46.975 267.368C46.975 267.223 46.9289 267.078 46.8894 266.94C45.4681 261.848 41.6254 257.889 38.0524 254.193C37.2168 253.324 35.9863 254.555 36.7364 255.464C39.6448 259.101 42.5532 263.152 43.606 267.777C44.6193 272.25 43.0467 276.274 39.8356 279.404C36.6245 282.533 32.5975 284.542 28.6495 286.512C24.4885 288.601 20.1957 290.416 15.7986 291.946C15.6297 290.962 15.3195 290.008 14.8775 289.114C13.7951 286.608 12.2855 284.31 10.4162 282.322C9.38641 281.141 8.07937 280.236 6.61289 279.687C5.85719 279.433 5.05411 279.354 4.26344 279.454C3.47277 279.555 2.71493 279.832 2.04636 280.267C1.73952 280.45 1.51367 280.743 1.4147 281.087C1.31574 281.43 1.35102 281.799 1.51334 282.118C1.66199 282.387 1.89989 282.595 2.18589 282.707C2.47188 282.819 2.78797 282.827 3.0794 282.73C3.07261 282.905 3.08582 283.079 3.11884 283.251C3.73954 285.771 4.79512 288.163 6.23786 290.319C6.99513 291.44 7.84236 292.498 8.77117 293.481C9.82398 294.575 11.14 295.998 12.7652 296.011C13.0279 296.008 13.289 295.971 13.5417 295.899C17.3318 297.822 21.7536 295.596 25.3858 294.186C29.9404 292.487 34.3956 290.531 38.7302 288.33C42.9447 286.16 46.904 283.526 50.5348 280.477C50.6269 280.405 50.7125 280.319 50.798 280.24C51.0368 280.545 51.3182 280.813 51.6337 281.037C52.1321 281.354 52.7148 281.513 53.305 281.492C53.7286 281.49 54.1376 281.336 54.4576 281.058C54.7776 280.78 54.9873 280.396 55.0487 279.977C55.1138 279.584 55.0343 279.182 54.825 278.844Z" fill="#F8B6AB"/>
<path opacity="0.4" d="M148.598 303.863C147.387 306.136 144.906 307.374 142.432 307.717C139.418 308.138 135.924 307.117 133.273 305.741C132.099 305.22 131.16 304.281 130.641 303.106C130.407 302.415 130.322 301.684 130.391 300.958C130.861 299.797 131.39 298.66 131.976 297.552C133.409 294.67 135.154 291.955 137.181 289.456C137.371 289.262 137.509 289.021 137.58 288.758C137.651 288.496 137.654 288.219 137.588 287.955C137.522 287.69 137.389 287.447 137.203 287.249C137.017 287.051 136.783 286.903 136.523 286.821C132.852 285.234 131.167 280.998 131.299 277.217C131.39 275.036 131.878 272.891 132.74 270.886C133.062 270.128 135.306 264.898 136.424 265.431C137.543 265.965 138.734 264.345 137.543 263.607C135.01 262.032 132.74 264.7 131.463 266.637C130.615 267.929 129.897 269.301 129.318 270.734C128.891 270.71 128.467 270.826 128.111 271.063C127.755 271.301 127.486 271.648 127.344 272.052C125.957 275.575 124.008 278.85 121.573 281.749C121.347 281.987 121.181 282.275 121.088 282.59C120.996 282.905 120.979 283.238 121.04 283.56C120.726 283.608 120.432 283.749 120.197 283.963C119.962 284.178 119.795 284.458 119.719 284.767C119.642 285.076 119.658 285.401 119.766 285.701C119.874 286.001 120.067 286.263 120.323 286.452L123.554 288.89C124.607 289.693 125.811 290.431 126.785 291.334C126.832 291.381 126.888 291.419 126.949 291.446C126.931 291.466 126.917 291.491 126.91 291.518C126.806 291.778 126.673 292.025 126.515 292.256C126.212 292.809 125.923 293.376 125.646 293.942C125.052 295.161 124.545 296.42 124.126 297.71C123.376 300.056 123.284 302.427 124.422 304.66C125.449 306.689 127.199 308.231 128.982 309.575C130.055 310.378 131.154 308.81 130.456 307.855C131.931 308.858 133.545 309.637 135.247 310.167C138.116 311.169 141.603 311.874 144.571 310.892C147.538 309.91 149.946 307.829 150.558 304.726C150.749 303.606 149.203 302.737 148.598 303.863Z" fill="#F8B6AB"/>
<path d="M84.4353 137.548C83.3054 136.979 82.0765 136.635 80.8162 136.533C79.6484 136.386 78.463 136.578 77.4011 137.087C77.0654 137.26 76.7678 137.5 76.5259 137.79C76.2841 138.081 76.1029 138.417 75.993 138.779C75.8861 139.215 75.8955 139.672 76.0202 140.103C76.1449 140.534 76.3806 140.925 76.7037 141.237C77.181 141.669 77.7255 142.021 78.3158 142.278C78.9493 142.586 79.6101 142.836 80.2898 143.022C81.4969 143.421 82.8004 143.421 84.0075 143.022C84.2184 142.937 84.4192 142.828 84.6063 142.699C85.7381 142.594 86.8435 142.04 87.0278 140.822C87.2317 139.241 85.7052 138.18 84.4353 137.548Z" fill="#F8B6AB"/>
<path d="M308.75 140.025C307.822 141.158 306.836 142.242 305.795 143.272C305.711 143.305 305.634 143.354 305.569 143.418C305.505 143.481 305.454 143.557 305.42 143.641C301.564 147.35 296.925 150.136 291.378 150.38C283.785 150.71 278.942 144.965 275.738 138.845C271.092 129.979 268.328 121.191 261.103 113.879C255.892 108.609 248.332 102.897 240.409 103.958C238.214 104.247 236.128 105.085 234.342 106.395C231.322 87.2387 227.545 67.397 216.576 51.4157C205.39 35.0852 191.098 19.644 172.977 11.0736C135.622 -6.58094 86.1199 4.24898 54.3777 28.5504C52.6142 29.8679 28.7155 58.4775 30.2223 59.2615C27.3337 70.513 22.8592 74.696 18.1808 85.3283C15.4303 91.593 17.8584 89.9988 16.3516 96.6786C15.8646 98.8525 17.4768 97.3967 20.1417 101.191C22.9777 105.216 26.0176 103.675 28.3404 105.71C29.8275 107.028 36.1312 108.154 38.1052 107.515C41.8164 106.31 42.6718 101.231 44.0273 97.983C45.2643 95.0581 46.497 92.131 47.7252 89.2018C48.1464 101.52 50.6994 118.655 61.3525 111.303C64.3004 109.267 65.2545 105.552 66.2942 102.357C68.0094 97.087 69.8913 91.8741 71.9399 86.7182C73.8415 81.9225 76.1708 77.1137 78.3817 72.2652C77.6382 78.0491 76.6841 84.4786 76.5854 85.5457C76.513 86.3033 76.4604 87.0674 76.388 87.825C74.5749 95.7923 73.1781 103.849 72.2031 111.962C72.133 112.568 72.2586 113.181 72.5618 113.711C72.8649 114.241 73.3295 114.66 73.8876 114.906L77.4079 116.468C78.6055 117.001 80.461 116.395 80.8492 115.051C81.1453 114.05 81.5073 113.075 81.8034 112.074C82.0995 114.583 82.4153 116.151 84.8828 117.344C86.7121 118.213 89.4889 117.937 91.4629 118.18C94.6937 118.589 97.918 119.109 101.116 119.722C108.08 121.065 114.948 122.872 121.672 125.13C122.128 125.278 122.611 125.326 123.087 125.273C123.563 125.22 124.023 125.065 124.436 124.821C124.604 124.944 124.779 125.056 124.962 125.157C133.095 129.313 136.958 120.605 137.925 114.089C138.302 111.577 138.673 109.065 139.037 106.553C139.757 104.173 140.344 101.753 140.794 99.307C141.873 106.342 143.928 113.191 146.9 119.656C152.026 130.413 160.185 141.395 170.588 147.627C170.821 152.432 170.105 157.235 168.483 161.763C168.349 162.13 168.349 162.533 168.481 162.9C168.614 163.267 168.871 163.576 169.208 163.773C169.544 163.97 169.94 164.042 170.324 163.977C170.709 163.912 171.058 163.714 171.312 163.417C177.892 156.269 191.467 148.872 199.172 158.984C205.62 167.449 202.14 182.909 196.889 191.032C196.231 192.079 196.553 193.983 198.099 194.016C218.971 194.517 230.342 178.865 234.553 160.841C236.133 155.761 237.315 150.565 238.086 145.301C241.245 164.405 247.733 186.236 268.164 188.779C278.152 190.024 289.542 182.191 296.248 175.505C304.144 167.646 307.848 156.474 307.019 145.472C308.151 144.043 309.204 142.567 310.197 141.125C310.312 140.931 310.351 140.702 310.308 140.482C310.265 140.261 310.143 140.064 309.964 139.928C309.785 139.792 309.562 139.727 309.338 139.745C309.114 139.762 308.905 139.862 308.75 140.025Z" fill="#B76F48"/>
<path d="M57.2793 61.0796C48.7253 70.5723 41.1384 83.418 38.6775 96.4217C38.5544 96.4877 38.4377 96.5649 38.3287 96.6523C37.0127 97.8183 35.8678 96.4546 35.4796 95.1371C34.9466 93.3321 35.5848 91.2307 36.0323 89.4785C36.6311 87.0938 18.6346 85.3876 17.7332 87.5813C17.1278 89.0371 16.2461 90.8421 15.9829 92.4099C15.6933 92.5614 18.2201 99.1095 18.003 99.373C16.3514 101.395 22.4972 99.7879 22.4314 102.482C22.3524 105.69 28.7547 105.361 31.4197 106.079C35.9796 107.311 42.1781 105.875 42.994 100.96C45.8235 95.0317 48.0212 88.8395 50.8901 82.9502C54.1143 76.3627 57.7597 69.8871 61.4182 63.4972C62.8592 61.0071 58.9967 59.1758 57.2793 61.0796Z" fill="#B76C4D"/>
<path d="M288.727 173.054C274.171 184.036 259.32 168.325 254.885 155.038C250.095 140.69 250.029 125.618 242.442 112.219C241.172 109.972 237.672 112.087 238.573 114.373C239.231 116.079 239.817 117.811 240.33 119.564C239.448 118.734 237.889 118.529 237.172 119.709C233.533 125.637 229.605 131.171 223.946 135.374C220.478 137.949 216.385 140.11 212.016 140.492C206.496 140.973 199.304 137.739 199.922 131.026C199.979 130.496 199.882 129.962 199.644 129.486C199.405 129.009 199.035 128.612 198.577 128.341C198.119 128.07 197.593 127.937 197.061 127.958C196.529 127.978 196.015 128.151 195.579 128.457C181.564 138.799 168.002 123.661 161.225 112.166C154.138 100.13 150.039 86.4086 145.479 73.2994C144.584 70.7369 140.287 71.7712 140.826 74.4918C141.662 78.6881 142.57 82.9041 143.616 87.1004C143.243 86.8464 142.814 86.6856 142.365 86.6312C141.917 86.5769 141.462 86.6305 141.038 86.7877C140.615 86.945 140.235 87.2013 139.93 87.5352C139.625 87.8692 139.405 88.2711 139.287 88.7077H137.865C137.62 87.4648 137.427 86.2088 137.286 84.9396C137.069 83.2598 136.925 81.5734 136.819 79.8804C136.523 74.9858 136.655 70.0782 136.819 65.177C137.036 57.6804 136.997 50.2892 136.668 42.7794C136.563 40.2564 132.621 40.3091 132.318 42.7794C131.075 52.7266 129.844 62.7067 127.568 72.4826C126.312 77.9826 124.697 83.3939 122.731 88.6814C122.125 90.3921 121.424 92.0679 120.632 93.7011C119.264 96.3361 112.815 104.314 109.887 97.6536C108.801 95.1964 105.636 95.8617 105.044 98.2464C103.195 105.697 95.174 100.414 93.6013 96.1845C92.134 92.1793 93.042 87.6208 93.8514 83.6155C94.2725 81.468 90.6996 80.4337 90.0942 82.5944C89.7323 83.9119 87.6662 92.7327 83.6063 86.2835C83.1588 85.5655 84.0603 82.2717 84.1721 81.3955C84.7512 76.9226 85.4421 72.4628 86.337 68.0426C88.2379 59.0203 90.6546 50.1147 93.5751 41.3697C93.6998 41.0053 93.6812 40.607 93.523 40.2558C93.3649 39.9046 93.079 39.6269 92.7236 39.4792C92.3682 39.3315 91.9699 39.3249 91.6098 39.4607C91.2497 39.5965 90.9549 39.8645 90.7851 40.2103C86.9145 47.4002 83.8599 55.0012 81.6783 62.8714C81.3755 62.7658 81.0447 62.7744 80.7479 62.8957C80.4511 63.017 80.2086 63.2426 80.0662 63.5302C75.1772 71.6592 70.7094 79.999 66.5968 88.5298C65.215 90.0252 63.6753 90.5785 62.6488 87.5483C61.4973 84.103 64.024 76.2375 64.9255 72.891C65.7349 69.9346 66.7305 67.0325 67.9063 64.2021C68.3076 63.6092 68.7024 63.0163 69.1236 62.43C69.3384 62.1535 69.4909 61.8336 69.5704 61.4925C69.6499 61.1513 69.6545 60.7969 69.5841 60.4537C69.9723 59.6435 70.3474 58.8333 70.762 58.0362C71.5384 56.5342 69.1235 55.1047 68.1826 56.5276C67.7812 57.1337 67.3996 57.7463 67.018 58.359C66.6479 58.3589 66.2829 58.4459 65.9526 58.613C65.6223 58.78 65.3359 59.0225 65.1163 59.3207C57.2202 69.202 50.9889 82.5879 50.9889 95.7036C50.1973 100.601 51.2199 105.619 53.8644 109.814C55.0028 111.573 57.3913 110.993 58.3586 109.557C59.2337 111.079 61.7999 110.822 62.4579 109.182C64.4407 104.272 66.5069 99.4081 68.6564 94.5904C69.1681 94.0422 69.6326 93.4516 70.0448 92.8249C73.9928 86.7907 76.0984 79.5905 78.9673 72.8778L79.066 72.6868C78.5067 75.0188 78.0264 77.3903 77.704 79.7355C73.3743 91.8565 69.6105 102.845 73.0256 115.888C73.4072 117.344 75.5523 118.18 76.8485 117.535C78.7389 116.643 80.4444 115.403 81.8757 113.879C81.8757 113.938 81.9218 114.004 81.9481 114.056C82.6729 115.382 83.7652 116.468 85.0934 117.186C89.502 119.63 94.9635 117.752 99.7208 118.681C110.249 120.736 118.75 127.719 129.904 126.494C132.213 126.237 132.851 123.977 132.167 122.311C138.839 112.93 142.149 100.974 144.294 89.8342C146.531 98.2333 149.413 106.461 153.506 114.043C153.281 114.283 153.138 114.589 153.097 114.915C153.055 115.242 153.118 115.573 153.276 115.861C156.803 122.449 160.04 129.149 163.501 135.749C166.963 142.35 173.01 150.96 170.739 158.865C169.989 161.441 173.253 163.918 175.109 161.421C181.09 153.358 193.23 154.405 199.507 161.342C206.311 168.865 205.37 179.537 199.692 187.409C197.955 189.82 200.35 193.337 203.245 192.152C212.832 188.199 222.38 183.911 227.841 174.635C228.136 174.147 228.284 173.585 228.267 173.015C228.251 172.445 228.071 171.891 227.749 171.421C230.233 168.254 232.215 164.724 233.625 160.953C238.231 148.476 238.271 134.603 240.863 121.599C241.304 123.325 241.679 125.071 242.028 126.823C242.011 126.987 242.011 127.153 242.028 127.317C242.785 144.221 241.251 167.844 254.609 180.722C264.209 189.984 280.311 190.314 289.483 180.531C289.838 180.213 290.053 179.766 290.08 179.29C290.107 178.813 289.945 178.345 289.628 177.989C290.327 177.372 290.987 176.712 291.602 176.012C293.168 174.234 290.569 171.645 288.727 173.054Z" fill="#B76C4D"/>
<path d="M96.4768 148.127C96.1649 147.724 95.7094 147.457 95.2053 147.382C94.7013 147.307 94.1878 147.43 93.7724 147.725C90.1641 150.081 85.8659 151.145 81.577 150.744C77.2881 150.343 73.2607 148.502 70.15 145.519C69.7897 145.168 69.33 144.938 68.834 144.86C68.176 143.76 66.3138 143.463 65.8532 144.945C63.9581 150.973 61.0168 156.546 58.4901 162.317C56.7727 166.223 53.1405 173.634 54.1143 178.127C54.7328 180.966 56.4964 181.73 59.2731 181.967C63.4581 182.317 66.9981 182.205 70.9132 184.201C74.2559 185.907 77.3354 188.074 80.5267 190.037C83.3035 191.756 86.3764 193.904 89.5414 191.756C93.0354 189.385 94.1474 183.193 95.1673 179.418C96.7704 173.302 97.6972 167.028 97.931 160.709C98.0758 156.823 98.6548 151.454 96.4768 148.127Z" fill="#EF8F8F"/>
<path d="M95.2726 148.384C92.2392 147.468 87.6069 150.044 84.5537 150.36C80.4075 150.928 76.2041 149.85 72.8412 147.357C71.3739 146.322 70.2092 145.031 68.5774 144.32C68.1322 144.141 67.6419 144.109 67.1771 144.227C66.7123 144.345 66.2971 144.609 65.9914 144.978C62.8198 148.338 61.3459 154.491 59.6877 158.753C57.4307 164.55 55.483 170.439 53.7657 176.421C53.6632 176.756 53.6443 177.112 53.7109 177.456C53.7774 177.801 53.9272 178.124 54.1473 178.397L54.0157 178.621C53.3577 179.84 55.3317 180.999 56.1147 179.853C56.2595 179.642 56.4108 179.431 56.5622 179.194C56.8202 179.094 57.0499 178.933 57.2311 178.724C57.4124 178.515 57.5396 178.265 57.6018 177.995C57.6163 177.937 57.6339 177.88 57.6544 177.824C58.4177 175.189 64.1687 172.435 66.373 171.131C69.8373 169.081 73.7728 167.965 77.796 167.89C83.1542 167.822 88.3718 169.606 92.5683 172.942C93.3513 173.601 94.1738 174.26 95.2003 174.346C97.9968 174.53 97.3256 167.56 97.4309 165.782C97.6875 161.829 97.8718 157.877 97.7797 153.872C97.681 151.533 98.0363 149.247 95.2726 148.384Z" fill="#F26464"/>
<path d="M90.1204 148.509C86.8304 149.425 84.0997 150.281 80.6583 149.636C77.4272 149.029 74.2596 148.122 71.1962 146.928C69.6564 146.335 68.8208 147.31 69.2222 148.904C69.9591 151.539 76.7629 153.358 79.0461 153.766C83.4285 154.55 87.995 154.063 91.5482 151.21C93.0353 150.044 91.7523 148.048 90.1204 148.509Z" fill="white"/>
<path d="M154.987 272.803C153.631 267.454 151.697 260.945 146.972 258.31C146.96 258.255 146.944 258.2 146.926 258.146C144.48 251.844 143.224 245.143 143.222 238.383C143.222 236.407 140.05 236.058 139.464 237.863C138.701 240.201 137.727 236.334 137.49 235.511C136.767 233.25 136.247 230.928 135.937 228.574C135.424 224.372 135.589 220.115 136.424 215.966C136.747 214.292 135.016 212.428 133.299 212.797C121.514 215.32 108.834 217.29 96.865 214.701C96.2985 214.627 95.7253 214.774 95.2638 215.111C94.8022 215.448 94.4874 215.95 94.3843 216.512C90.9693 217.58 87.3766 218.601 83.797 218.1C80.0661 217.58 78.3356 215.511 75.901 213.034C73.1505 210.215 70.6369 209.53 66.8073 208.489C64.7477 207.935 61.9051 206.559 59.8061 207.599C59.7981 207.695 59.7805 207.79 59.7535 207.883C59.2863 209.075 59.0099 210.327 58.4374 211.48C58.1727 211.935 57.7405 212.268 57.2333 212.408C56.9461 212.481 56.6453 212.481 56.3581 212.408C55.6212 214.108 55.0421 215.808 54.5815 216.769C52.0065 222.263 49.4688 227.77 46.9684 233.291C46.0669 235.267 45.0799 238.653 43.7639 240.392C40.3357 244.911 38.1577 243.337 33.9991 243.963C28.0178 244.865 23.1749 248.66 23.55 255.063C23.5623 255.293 23.6281 255.517 23.7422 255.718C23.8563 255.918 24.0155 256.089 24.2072 256.217C24.3988 256.345 24.6176 256.426 24.8462 256.454C25.0748 256.483 25.3069 256.457 25.524 256.38C25.7808 256.457 26.0558 256.446 26.3059 256.35C26.556 256.253 26.7669 256.076 26.9058 255.847C35.0782 243.89 56.7595 270.563 55.2658 280.082C55.0289 281.604 56.2463 283.376 57.8584 283.488C67.8864 284.008 77.8881 284.95 87.9227 285.464C95.6213 285.846 104.57 287.44 112.045 285.003C114.205 284.805 116.277 284.056 118.066 282.829H118.119C119.207 282.396 120.199 281.751 121.038 280.933C121.877 280.114 122.546 279.138 123.008 278.06C123.159 277.748 123.231 277.404 123.218 277.058C123.409 276.742 123.587 276.4 123.764 276.09C124.745 274.272 125.495 272.309 126.324 270.385C129.074 266.63 131.772 263.369 137.267 262.539C140.8 262.006 143.603 261.841 146.255 264.391C148.578 266.617 151.414 270.431 152.44 273.415C152.927 274.845 155.355 274.272 154.987 272.803Z" fill="#17FFDD"/>
<path d="M117.395 277.651C117.112 277.348 116.671 276.927 116.145 276.419C113.756 273.185 113.631 269.239 114.967 265.59C115.315 264.967 115.616 264.32 115.868 263.653C115.871 263.616 115.871 263.578 115.868 263.541C116 263.297 116.131 263.06 116.276 262.823C117.138 261.374 115.237 259.733 114.144 261.156L114.105 261.202C112.361 261.861 111.131 263.712 109.683 264.858C109.262 265.194 108.828 265.517 108.367 265.813C96.6084 268.528 85.6395 268.001 74.427 263.877C73.2252 263.127 72.1557 262.183 71.262 261.084C70.4197 259.984 68.301 260.333 68.2154 261.868C68.0114 265.576 63.3199 266.835 60.247 266.584C58.7467 266.466 57.615 268.561 59.0231 269.496C59.8318 270.033 60.6809 270.507 61.563 270.912C62.6816 272.665 64.5569 274.292 66.623 274.522C71.5975 277.816 77.9605 279.456 83.5798 280.53C94.5043 282.548 105.731 282.234 116.526 279.608C117.342 279.417 118.105 278.402 117.395 277.651Z" fill="#11BC9F"/>
<path d="M63.6885 246.268C61.3394 243.943 58.0625 242.447 55.1344 240.939C53.0288 239.852 51.1009 243.179 53.0288 244.549C55.7595 246.492 58.2929 248.818 61.2473 250.412C61.7858 250.637 62.3879 250.657 62.9403 250.469C63.4928 250.281 63.9577 249.898 64.2478 249.391C64.5355 248.887 64.6372 248.299 64.5349 247.728C64.4327 247.157 64.133 246.64 63.6885 246.268Z" fill="#11BC9F"/>
<path d="M102.386 225.919C101.979 226.299 101.538 226.641 101.07 226.94C100.997 226.94 100.925 226.94 100.846 226.94C98.4426 227.026 96.0362 226.929 93.6474 226.651C89.0635 225.169 84.8467 222.728 81.2769 219.49C80.9687 219.257 80.5934 219.132 80.2076 219.132C79.8218 219.132 79.4465 219.257 79.1383 219.49C75.7628 222.309 67.439 224.76 63.5502 221.308C63.3854 221.156 63.1855 221.048 62.9684 220.992C62.7512 220.937 62.5238 220.937 62.3066 220.992C61.9325 220.289 61.6452 219.544 61.4511 218.772C61.1156 217.454 59.0494 218.067 59.2139 219.345C60.5299 229.635 71.5515 230.162 78.5725 225.274C79.5694 226.007 80.6062 226.685 81.6782 227.303C84.2445 229.595 88.5742 231.038 90.989 231.598C96.0425 232.777 100.918 232.072 104.537 228.159C105.682 226.848 103.662 224.74 102.386 225.919Z" fill="#11BC9F"/>
<path d="M273.342 142.791C262.952 129.195 262.156 102.265 238.757 105.671C236.52 105.993 236.974 109.195 239.179 109.109C258.629 108.312 262.097 131.909 271.822 143.918C272.586 144.86 274.079 143.76 273.342 142.791Z" fill="#DDAA75"/>
<path d="M77.7367 215.603C77.4143 215.531 77.1181 215.412 76.8155 215.314C76.2693 214.655 75.6311 214.049 75.0784 213.377C74.5366 212.619 73.9312 211.91 73.2689 211.256C71.8805 210.037 70.1696 210.195 68.597 209.47C68.4525 209.409 68.2993 209.371 68.143 209.358C67.9982 209.26 67.8666 209.154 67.7219 209.049C66.4297 208.135 64.8885 207.641 63.3067 207.632C63.2587 207.449 63.1609 207.282 63.024 207.15C62.8871 207.019 62.7164 206.928 62.531 206.888C62.3456 206.847 62.1527 206.859 61.9737 206.922C61.7947 206.985 61.6365 207.096 61.5168 207.244C52.4758 218.199 73.6834 230.195 79.4344 218.574C80.1121 217.217 78.9935 215.906 77.7367 215.603Z" fill="white"/>
<path d="M109.486 216.071C105.584 216.321 102.129 215.742 98.2994 215.412C95.1015 215.142 92.1537 216.539 88.857 216.414C88.3014 216.386 87.7485 216.508 87.2556 216.766C86.7628 217.024 86.3478 217.41 86.0539 217.883C85.1919 217.342 84.3497 216.763 83.547 216.15C81.5335 214.595 79.3291 217.54 81.1452 219.226C89.7454 227.191 104.702 230.952 111.683 218.956C112.552 217.494 110.874 215.979 109.486 216.071Z" fill="white"/>
<path d="M130.976 259.582C130.891 259.582 130.91 259.713 130.976 259.713C131.042 259.713 131.075 259.582 130.976 259.582Z" fill="white"/>
<path d="M29.4853 254.648C43.1258 252.724 46.8698 269.707 53.6275 277.954C60.1681 285.945 69.7223 287.23 79.4608 287.638C86.5476 287.934 93.6475 288.02 100.734 288.027C106.386 288.027 112.848 288.685 118.138 286.248C124.824 283.126 128.048 274.535 129.489 267.744C129.531 267.543 129.507 267.334 129.42 267.148C129.333 266.962 129.188 266.809 129.007 266.713C128.826 266.616 128.619 266.581 128.416 266.613C128.214 266.644 128.027 266.74 127.884 266.887C124.83 269.476 124.14 273.053 122.462 276.545C119.112 283.508 112.934 283.995 105.939 284.035C93.8514 284.107 79.9873 285.181 68.1761 282.309C55.8253 279.311 53.6999 268.35 46.7974 259.555C42.2835 253.811 36.368 250.056 28.9457 251.281C27.0441 251.598 27.5508 254.924 29.4853 254.648Z" fill="#002033"/>
<path d="M43.0666 241.69C37.5525 241.993 31.6699 242.177 26.6756 244.852C21.9577 247.375 19.1283 252.823 22.1157 257.79C22.2985 258.067 22.5653 258.277 22.8767 258.391C23.1882 258.504 23.5279 258.514 23.8456 258.42C24.1633 258.325 24.4423 258.131 24.6414 257.866C24.8406 257.601 24.9493 257.279 24.9516 256.947C25.0767 251.822 25.7939 249.042 30.9856 247.138C34.8349 245.728 39.1054 245.227 43.1653 244.819C45.1393 244.621 45.0998 241.578 43.0666 241.69Z" fill="#002033"/>
<path d="M173.701 164.352C178.866 160.176 186.565 153.852 193.651 157.613C200.738 161.375 201.949 174.477 200.547 181.328C197.145 197.876 180.399 199.741 166.331 199.833C163.58 199.833 163.87 203.746 166.449 203.989C186.663 205.887 207.621 197.613 205.739 173.911C205.127 166.236 202.172 155.841 193.974 153.167C185.314 150.334 177.655 156.283 171.47 161.586C169.93 162.903 172.128 165.676 173.733 164.385L173.701 164.352Z" fill="#002033"/>
<path d="M173.2 185.287C178.761 182.876 184.439 181.388 190.262 179.807C192.355 179.234 191.894 175.663 189.651 175.966C183.367 176.816 177.346 179.036 171.575 181.605C169.496 182.534 171.095 186.216 173.2 185.287Z" fill="#002033"/>
<path d="M183.083 182.949C183.625 183.489 183.986 184.184 184.116 184.937C184.247 185.691 184.142 186.467 183.814 187.158C183.632 187.543 183.606 187.983 183.739 188.386C183.873 188.79 184.158 189.127 184.533 189.326C184.908 189.525 185.346 189.572 185.755 189.457C186.164 189.341 186.513 189.073 186.729 188.706C187.503 187.386 187.804 185.841 187.582 184.326C187.361 182.811 186.631 181.417 185.512 180.373C183.873 178.792 181.445 181.368 183.083 182.949Z" fill="#002033"/>
<path d="M34.1307 113.714C33.2227 118.207 32.3103 122.699 31.3935 127.192C30.8539 129.827 34.9598 130.795 35.4797 128.134C36.357 123.633 37.2344 119.133 38.1117 114.636C38.6184 112.047 34.644 111.112 34.111 113.714H34.1307Z" fill="#002033"/>
<path d="M49.0675 244.984C53.1668 246.578 56.9154 248.959 60.1022 251.993C61.313 253.132 62.9908 251.334 61.8591 250.122C58.5586 246.681 54.5037 244.056 50.015 242.454C48.5937 241.927 47.6396 244.43 49.0741 244.984H49.0675Z" fill="#002033"/>
<path d="M56.6805 243.554L63.0698 246.282C63.1599 246.338 63.2614 246.374 63.367 246.386C63.4726 246.399 63.5798 246.387 63.6805 246.353C63.7813 246.319 63.8732 246.263 63.9496 246.189C64.026 246.115 64.085 246.025 64.1224 245.925C64.1597 245.826 64.1744 245.719 64.1655 245.613C64.1566 245.507 64.1241 245.404 64.0706 245.312C64.0171 245.22 63.9438 245.141 63.8561 245.081C63.7684 245.021 63.6683 244.981 63.5633 244.964L56.9174 242.942C56.5555 242.83 56.3252 243.422 56.6805 243.6V243.554Z" fill="#002033"/>
<path d="M169.752 144.497C170.489 153.648 168.357 161.559 164.929 169.945C164.861 170.075 164.82 170.217 164.807 170.363C164.794 170.509 164.809 170.655 164.853 170.795C164.897 170.935 164.968 171.065 165.061 171.177C165.155 171.29 165.27 171.382 165.4 171.45C165.529 171.518 165.671 171.56 165.817 171.573C165.962 171.586 166.109 171.57 166.249 171.527C166.389 171.483 166.518 171.412 166.63 171.318C166.743 171.224 166.835 171.109 166.903 170.979C171.72 163.114 172.931 153.476 171.983 144.432C171.838 143.022 169.654 143.061 169.766 144.497H169.752Z" fill="#002033"/>
<path d="M174.576 149.774C173.808 155.935 171.268 161.739 167.265 166.48C166.515 167.389 167.825 168.647 168.581 167.745C172.849 162.758 175.155 156.386 175.069 149.82C175.069 149.537 174.589 149.471 174.556 149.774H174.576Z" fill="#002033"/>
<path d="M55.6935 31.1656C86.5079 3.78121 133.338 -3.88668 170.95 13.3792C207.417 30.105 231.19 64.9267 231.736 105.269C231.736 107.159 234.625 107.054 234.658 105.176C234.946 89.2368 231.472 73.4541 224.518 59.1123C217.564 44.7704 207.326 32.2746 194.638 22.6414C168.824 2.95122 135.904 -4.16992 104.175 2.36491C85.0509 6.31128 67.3565 15.3848 52.9825 28.6162C51.2059 30.2433 53.9168 32.7532 55.6935 31.1722V31.1656Z" fill="#002033"/>
<path d="M203.863 148.727C218.59 140.585 231.723 127.35 237.422 111.263C238.08 109.393 235.04 108.299 234.178 110.051C226.716 125.321 217.3 137.653 202.297 146.184C200.626 147.133 202.172 149.649 203.837 148.727H203.863Z" fill="#002033"/>
<path d="M237.659 107.851C239.942 125.947 227.71 140.077 216.267 152.488C214.872 154.003 217.188 156.204 218.603 154.688C230.73 141.691 243.186 126.79 240.389 107.765C240.139 106.053 237.435 106.086 237.659 107.851Z" fill="#002033"/>
<path d="M234.039 106.026C238.159 108.576 239.718 112.844 239.679 117.508C239.679 119.28 242.501 119.61 242.798 117.818C243.765 111.982 240.435 106.257 235.454 103.326C233.763 102.337 232.401 104.979 234.039 105.993V106.026Z" fill="#002033"/>
<path d="M231.651 107.252C233.813 110.449 235.358 114.024 236.204 117.792C236.626 119.564 239.198 118.734 238.876 117.008C238.068 112.967 236.401 109.147 233.987 105.809C232.98 104.379 230.651 105.809 231.651 107.232V107.252Z" fill="#002033"/>
<path d="M235.632 106.059C246.818 102.245 257.188 109.919 262.959 119.004C268.223 127.291 270.5 137.159 275.83 145.354C285.7 160.505 301.887 149.03 310.506 139.241L307.46 138.088C308.118 152.804 302.854 166.809 291.905 176.915C285.877 182.488 277.869 187.587 269.381 187.382C260.893 187.178 253.813 180.643 250.161 173.338C246.213 165.472 245.601 155.42 244.423 146.862C243.219 138.16 241.982 129.392 241.383 120.631C241.258 118.819 238.501 118.885 238.553 120.716C238.889 132.436 240.33 144.181 242.1 155.762C243.87 167.343 245.838 178.463 255.681 186.012C268.058 195.511 283.351 189.629 293.681 179.952C304.999 169.352 311.375 153.443 310.987 137.982C310.968 137.638 310.849 137.306 310.646 137.027C310.442 136.748 310.162 136.534 309.84 136.411C309.517 136.289 309.166 136.262 308.829 136.335C308.492 136.408 308.183 136.578 307.94 136.823C301.65 143.7 289.7 155.354 280.429 145.808C274.04 139.221 271.756 128.022 267.269 120.117C260.86 108.806 248.588 98.6285 234.974 103.846C233.658 104.366 234.224 106.481 235.632 106.02V106.059Z" fill="#002033"/>
<path d="M237.185 125.13C239.31 152.798 230.881 187.843 198.882 193.305C197 193.627 197.501 196.875 199.415 196.598C213.233 194.859 224.538 186.388 231.658 174.596C240.626 159.774 241.376 141.797 239.481 125.031C239.317 123.569 237.06 123.595 237.172 125.097L237.185 125.13Z" fill="#002033"/>
<path d="M21.9905 155.835C3.29659 184.062 44.3628 202.356 65.3598 209.378C83.6194 215.498 103.583 217.942 122.784 216.947C131.452 216.603 140.057 215.315 148.446 213.107C154.803 211.354 162.922 208.897 167.476 203.805C167.702 203.554 167.832 203.229 167.842 202.891C167.851 202.552 167.739 202.221 167.527 201.958C167.314 201.694 167.015 201.515 166.682 201.453C166.349 201.391 166.006 201.449 165.712 201.618C159.586 204.609 154.138 207.876 147.453 209.721C139.996 211.702 132.356 212.912 124.653 213.331C107.229 214.451 89.3507 212.995 72.532 208.206C52.5418 202.52 8.21194 184.662 24.4976 157.159C25.4385 155.571 22.9907 154.339 21.9971 155.841L21.9905 155.835Z" fill="#002033"/>
<path d="M66.5705 146.764C66.7877 144.669 74.2363 150.057 75.5918 150.565C79.2783 152.043 83.3397 152.306 87.1858 151.316C89.4559 150.657 91.2984 148.746 93.7001 149.609C96.5756 150.644 96.2137 156.763 96.3321 159.827C96.5974 166.954 95.6859 174.077 93.6343 180.907C92.4499 184.859 90.9365 191.098 85.6329 191.374C82.5008 191.539 78.1909 186.612 75.7628 184.787C72.4136 182.297 68.5248 179.998 64.1885 179.938C61.2999 179.899 56.7465 181.724 54.6277 178.739C53.4104 177.033 57.1808 169.517 57.8322 167.771C60.4181 160.835 63.3529 154.049 66.5311 147.35C67.4062 145.519 64.6294 144.056 63.7411 145.868C59.2995 155.09 53.871 165.255 51.693 175.307C50.4494 181.006 52.5089 184.319 58.2731 184.425C61.6026 184.477 61.313 182.652 66.0704 183.469C69.979 184.128 73.1966 186.941 76.2563 189.194C78.8489 191.104 81.6586 193.66 84.9355 194.279C91.6472 195.557 94.0949 189.009 95.9439 183.739C99.156 174.579 100.293 164.818 99.2734 155.163C98.793 150.551 98.7339 144.715 92.7526 145.525C87.4886 146.243 84.5144 149.603 78.5923 148.16C74.9272 147.264 73.0453 144.866 69.7816 143.378C66.5179 141.889 64.1162 142.594 63.9451 146.5C63.8793 147.976 66.3929 148.259 66.5771 146.757L66.5705 146.764Z" fill="#002033"/>
<path d="M133.22 216.018C132.713 222.125 131.437 243.646 143.478 238.95C145.841 238.034 144.735 234.226 142.36 235.149C135.168 237.942 136.911 219.523 137.214 215.9C137.425 213.337 133.424 213.476 133.22 216.018Z" fill="#002033"/>
<path d="M137.352 215.478C146.285 215.771 155.182 216.74 163.969 218.377C165.627 218.673 166.239 216.144 164.561 215.801C155.576 214.032 146.443 213.123 137.286 213.087C135.74 213.087 135.826 215.439 137.352 215.478Z" fill="#002033"/>
<path d="M165.423 218.014C170.187 218.673 173.589 221.717 175.806 225.834C175.964 225.175 176.115 224.582 176.267 223.95C174.293 225.419 171.213 224.141 170.345 226.908C170.145 227.649 170.21 228.436 170.529 229.134C170.641 229.424 171.562 230.498 171.509 230.728C171.174 232.243 169.766 231.506 168.996 231.315C168.677 231.244 168.344 231.301 168.068 231.475C167.792 231.649 167.596 231.925 167.522 232.243C167.403 233.35 167.732 234.503 166.943 235.234C166.002 236.11 164.192 235.234 162.824 235.122C160.494 234.905 160.909 239.477 163.732 238.185C165.469 237.395 167.41 239.668 169.338 238.185C171.266 236.703 169.766 234.523 169.95 232.487L168.443 233.726C170.674 234.325 174.253 236.123 174.51 232.25C174.622 230.597 172.76 229.371 173.141 228.014C173.385 227.138 176.49 226.954 177.662 226.301C177.919 226.144 178.117 225.907 178.226 225.626C178.336 225.346 178.35 225.037 178.267 224.747C176.201 219.24 171.299 216.302 165.594 216.038C164.462 215.985 164.278 217.856 165.397 218.014H165.423Z" fill="#002033"/>
<path d="M159.461 224.207C159.626 227.125 160.428 230.794 163.949 231.183C167.318 231.539 167.851 228.073 168.91 225.748C168.988 225.602 169.035 225.442 169.051 225.277C169.067 225.112 169.049 224.946 169.001 224.788C168.952 224.63 168.873 224.483 168.768 224.356C168.662 224.228 168.533 224.123 168.387 224.045C168.241 223.968 168.081 223.92 167.917 223.904C167.752 223.889 167.586 223.906 167.428 223.954C167.27 224.003 167.123 224.082 166.996 224.188C166.869 224.293 166.763 224.423 166.686 224.569C166.028 225.59 165.824 228.021 164.666 228.568C163.758 229.002 162.784 228.027 162.416 227.309C161.993 226.304 161.77 225.225 161.758 224.134C161.626 222.672 159.382 222.718 159.461 224.207Z" fill="#002033"/>
<path d="M141.563 236.697C148.63 237.592 155.757 238.528 162.896 238.166C164.08 238.106 164.37 236.189 163.107 236.025C156.053 234.99 148.907 234.786 141.813 234.121C140.353 233.982 140.09 236.512 141.563 236.697Z" fill="#002033"/>
<path d="M140.932 237.178C142.498 243.284 142.248 249.865 144.274 255.86C146.656 262.843 154.487 266.907 154.013 274.852C153.94 276.07 155.763 276.169 156.059 275.049C157.935 268.251 153.177 264.588 149.973 259.101C145.906 252.118 146.387 243.798 144.294 236.183C143.695 233.996 140.346 234.99 140.932 237.178Z" fill="#002033"/>
<path d="M15.9895 192.955C23.1617 194.497 30.4064 195.59 37.5655 197.211C39.2698 197.593 39.8553 195.031 38.1708 194.576C31.0775 192.652 23.7342 191.994 16.5159 190.623C15.0354 190.347 14.4958 192.6 15.9895 192.923V192.955Z" fill="#002033"/>
<path d="M9.00164 196.835C6.28407 198.614 0.809457 202.382 2.08599 206.341C2.36415 207.084 2.86827 207.719 3.52714 208.159C4.18602 208.599 4.96628 208.82 5.75763 208.792C8.00143 208.792 9.6333 207.112 11.7718 206.881L10.5809 206.223L10.7848 206.572C10.9342 206.811 11.1436 207.007 11.3921 207.139C11.6406 207.272 11.9195 207.338 12.2011 207.329C12.4826 207.32 12.757 207.238 12.9969 207.09C13.2368 206.942 13.4337 206.734 13.5682 206.486C14.1011 205.478 13.3313 204.003 12.1074 204.128C10.8835 204.253 10.0808 204.128 8.94244 204.675C7.92253 205.136 6.4815 206.341 5.32341 205.867C2.64532 204.78 9.27139 199.503 10.2058 198.818C11.4165 197.962 10.265 195.999 9.00164 196.842V196.835Z" fill="#002033"/>
<path d="M11.8769 204.997C9.96214 206.275 4.9876 209.266 6.19176 212.198C7.39591 215.129 11.9625 213.397 13.9431 212.692L12.5218 210.366C10.9294 211.789 7.63276 215.636 9.61994 217.856C10.4688 218.811 11.7585 218.634 12.831 218.324C15.4225 217.505 17.9608 216.526 20.431 215.393C21.8523 214.773 21.3062 212.527 19.727 213.008C17.4569 213.667 15.2722 214.609 13.0087 215.327C11.5019 215.808 12.1599 215.821 12.4231 214.846C12.6863 213.871 13.8378 212.955 14.5747 212.303C15.6276 211.381 14.4235 209.516 13.1469 209.978C12.4165 210.248 11.6796 210.511 10.9229 210.715C10.1662 210.92 8.99488 211.638 9.33704 210.195C9.61341 209.042 12.1073 207.408 12.9561 206.769C14.0023 205.985 13.0021 204.246 11.8769 204.997Z" fill="#002033"/>
<path d="M21.089 215.781C30.7287 218.535 39.6974 223.423 49.5345 225.504C51.3572 225.893 52.0152 223.06 50.1926 222.685C40.3817 220.709 31.2815 216.097 21.6417 213.416C20.1348 213.001 19.6019 215.353 21.0955 215.781H21.089Z" fill="#002033"/>
<path d="M57.2794 211.743C54.1013 214.292 52.397 219.648 50.6994 223.219C47.712 229.332 44.876 235.504 42.2506 241.782C41.3359 243.976 44.5997 245.735 45.5406 243.528C48.1068 237.54 50.673 231.552 53.3116 225.59C55.0356 221.71 58.2665 217.112 58.8784 212.889C58.9903 212.105 58.0822 211.117 57.2992 211.743H57.2794Z" fill="#002033"/>
<path d="M10.8111 197.079C10.5972 194.613 10.7346 192.129 11.2191 189.701C11.2783 189.451 11.3769 188.66 11.6007 188.535C12.002 188.318 12.818 189.016 13.1207 189.24C14.0153 190.014 14.8069 190.899 15.4763 191.875C16.4239 193.061 18.3518 192.007 17.5491 190.617C16.3712 188.581 12.943 184.121 10.2386 186.203C8.98842 187.152 8.71208 188.838 8.541 190.301C8.27021 192.585 8.21946 194.89 8.38959 197.185C8.50145 198.733 10.8901 198.673 10.8111 197.112V197.079Z" fill="#002033"/>
<path d="M20.9114 215.34C23.8527 214.681 25.6162 211.901 25.7873 208.996C25.8596 207.725 23.7145 207.494 23.55 208.772C23.3066 210.748 22.3525 212.725 20.2995 213.258C18.944 213.621 19.5625 215.656 20.9114 215.34Z" fill="#002033"/>
<path d="M9.51485 201.763C10.64 204.932 11.5283 208.416 13.3642 211.262C13.8577 212.033 15.2855 211.743 15.1737 210.729C14.8052 207.356 13.351 204.141 12.2258 200.959C11.6205 199.247 8.93581 200.037 9.51485 201.763Z" fill="#002033"/>
<path d="M90.9562 39.0377C79.2194 63.0656 71.9802 89.0433 69.5973 115.684C69.4262 117.66 72.8347 117.996 73.0387 116.02C75.6812 89.8829 82.7553 64.3885 93.9567 40.632C94.8911 38.6557 91.9103 37.0615 90.9562 39.0377Z" fill="#002033"/>
<path d="M131.957 44.9336C132.7 58.7674 132.884 72.7263 131.338 86.5536C129.858 99.8143 125.89 112.396 123.639 125.466C123.455 126.527 124.955 127.225 125.475 126.125C136.971 101.751 136.392 71.0465 134.595 44.8216C134.477 43.1286 131.864 43.1944 131.963 44.9006L131.957 44.9336Z" fill="#002033"/>
<path d="M139.905 76.6328C141.221 93.2729 139.116 109.775 132.272 125.084C131.614 126.593 133.845 127.824 134.562 126.296C141.912 110.651 143.873 93.6747 142.36 76.5603C142.215 74.9925 139.78 75.0518 139.905 76.6328Z" fill="#002033"/>
<path d="M140.642 86.6195C145.321 109.063 155.48 130.459 170.858 147.561C172.437 149.313 174.806 146.665 173.345 144.926C158.784 127.568 148.492 107.97 143.63 85.7499C143.195 83.7737 140.234 84.6827 140.642 86.6326V86.6195Z" fill="#002033"/>
<path d="M146.11 118.49C150.716 130.598 159.27 140.611 170.858 146.526C171.153 146.656 171.486 146.669 171.79 146.563C172.095 146.456 172.348 146.239 172.498 145.954C172.649 145.669 172.687 145.337 172.603 145.025C172.52 144.714 172.322 144.445 172.049 144.274C161.264 138.345 152.967 129.313 148.466 117.792C147.893 116.336 145.544 117.008 146.11 118.49Z" fill="#002033"/>
<path d="M81.1321 117.95L86.2053 104.65L83.5733 103.675C82.9152 107.825 79.5134 116.138 84.6195 118.576C87.9096 120.157 93.1209 119.485 96.8255 120.255C101.82 121.296 106.577 123.233 111.552 124.208C111.807 124.263 112.073 124.224 112.302 124.099C112.53 123.973 112.706 123.769 112.797 123.525C112.888 123.28 112.888 123.011 112.797 122.766C112.706 122.521 112.531 122.318 112.302 122.192C107.696 119.155 101.872 117.706 96.5097 116.771C94.3514 116.388 91.6536 116.58 89.5874 115.894C84.0997 114.07 85.7776 108.767 86.3303 104.274C86.3735 104.094 86.3808 103.907 86.3518 103.723C86.3228 103.54 86.2579 103.364 86.1611 103.206C86.0643 103.048 85.9373 102.911 85.7874 102.802C85.6374 102.693 85.4675 102.614 85.2873 102.571C85.1072 102.528 84.9203 102.521 84.7373 102.55C84.5543 102.579 84.3788 102.644 84.2209 102.741C84.063 102.837 83.9257 102.965 83.8168 103.115C83.7079 103.265 83.6296 103.435 83.5864 103.615C82.0204 108.095 80.4587 112.574 78.9014 117.054C78.454 118.325 80.6452 119.168 81.1321 117.89V117.95Z" fill="#002033"/>
<path d="M115.651 109.458C114.136 113.906 113.291 118.556 113.144 123.253C113.105 124.834 115.427 124.695 115.552 123.18C115.88 118.708 116.778 114.296 118.224 110.051C118.777 108.457 116.191 107.851 115.651 109.458Z" fill="#002033"/>
<path d="M120.639 110.605C120.404 114.288 119.617 117.914 118.303 121.362C118.086 121.942 118.908 122.423 119.178 121.83C120.764 118.293 121.568 114.455 121.534 110.578C121.534 109.992 120.672 110.038 120.639 110.578V110.605Z" fill="#002033"/>
<path d="M79.9215 66.3628C76.2366 74.0241 72.8808 81.8105 69.7618 89.7156C66.9587 96.8235 63.5765 104.34 62.3395 111.889C62.1158 113.253 64.1359 114.221 64.7478 112.785C67.6628 106.039 69.2091 98.6549 71.6503 91.705C74.5784 83.3982 78.0132 75.2955 81.7112 67.3312C82.2574 66.152 80.4873 65.1968 79.9215 66.3759V66.3628Z" fill="#002033"/>
<path d="M69.4329 56.8966C59.0496 71.5077 50.9495 91.7709 54.154 109.999C54.2071 110.159 54.3105 110.298 54.4487 110.395C54.587 110.491 54.7527 110.541 54.9213 110.536C55.0899 110.53 55.2523 110.471 55.3844 110.366C55.5165 110.261 55.6111 110.116 55.6543 109.952C56.6808 101.099 57.0295 92.3572 59.4707 83.721C62.1273 74.5662 66.3145 65.9284 71.8544 58.1745C72.8611 56.7384 70.4396 55.4802 69.4329 56.8966Z" fill="#002033"/>
<path d="M59.7996 60.546C51.0349 73.2204 45.7841 89.2149 48.0608 104.715C48.0642 104.827 48.0896 104.937 48.1355 105.039C48.1813 105.14 48.2467 105.232 48.328 105.309C48.4093 105.385 48.5048 105.445 48.6091 105.484C48.7134 105.524 48.8244 105.542 48.9359 105.539C49.0474 105.535 49.1571 105.51 49.2588 105.464C49.3605 105.418 49.4521 105.353 49.5284 105.271C49.6048 105.19 49.6644 105.094 49.7039 104.99C49.7433 104.885 49.7619 104.774 49.7584 104.663C49.8966 88.9909 52.8643 74.729 61.7605 61.5868C62.5567 60.4011 60.6024 59.3866 59.7865 60.546H59.7996Z" fill="#002033"/>
<path d="M49.5083 80.9871C45.1459 89.1348 41.9433 97.8533 39.9936 106.889L41.9676 105.974C38.6249 104.696 35.4994 103.918 31.9133 104.287C30.6565 104.419 30.2353 106.487 31.6764 106.665C34.8477 106.946 37.9774 107.583 41.0069 108.562C41.3662 108.642 41.7421 108.576 42.0535 108.38C42.365 108.184 42.587 107.873 42.6717 107.515C44.5063 98.6937 47.5696 90.174 51.7719 82.2058C51.8731 81.9092 51.8653 81.5862 51.7501 81.2948C51.6348 81.0033 51.4195 80.7626 51.1429 80.6158C50.8663 80.469 50.5465 80.4258 50.2409 80.4938C49.9353 80.5619 49.6639 80.7368 49.4755 80.9871H49.5083Z" fill="#002033"/>
<path d="M206.311 34.6241C217.221 42.5291 227.973 52.0349 233 64.9267C239.047 80.3877 234.125 95.7893 231.684 111.349C231.645 111.524 231.676 111.707 231.772 111.858C231.868 112.01 232.019 112.117 232.194 112.156C232.368 112.195 232.551 112.164 232.702 112.068C232.854 111.972 232.961 111.82 233 111.646C238.31 96.5865 241.317 78.4839 234.921 63.3128C229.499 50.4474 218.57 41.0008 207.285 33.3066C206.528 32.7928 205.581 34.0905 206.331 34.6241H206.311Z" fill="#002033"/>
<path d="M237.244 105.499C246.627 94.6299 261.709 100.098 268.947 110.367C274.349 118.035 275.902 127.429 279.159 136.059C280.83 140.486 283.726 148.463 288.792 150.071C294.517 151.889 299.978 144.306 302.42 140.334C302.775 139.748 301.88 139.32 301.505 139.847C299.985 141.968 297.07 145.953 294.412 147.04C287.996 149.675 285.404 144.768 283.324 140.888C281.094 136.718 279.718 132.172 278.304 127.713C276.08 120.637 273.803 113.516 269.045 107.673C260.86 97.6206 245.416 93.5495 236.079 104.445C235.421 105.223 236.566 106.329 237.244 105.545V105.499Z" fill="#002033"/>
<path d="M238.619 129.333C241.909 146.283 236.389 165.4 244.857 181.249C250.246 191.322 262.34 198.074 273.211 192.448C273.869 192.106 273.375 190.966 272.678 191.249C256.616 197.771 245.127 182.244 242.699 168.193C240.449 155.183 242.62 141.895 239.929 128.911C239.751 128.048 238.455 128.444 238.613 129.3L238.619 129.333Z" fill="#002033"/>
<path d="M91.3971 54.8741C82.6719 73.5037 75.9339 94.8802 76.0458 115.644C76.0458 115.98 76.6051 116.053 76.6511 115.703C79.3292 94.4454 82.8495 74.775 91.7853 55.0981C91.9103 54.8214 91.4958 54.5974 91.3642 54.8741H91.3971Z" fill="#002033"/>
<path d="M127.785 273.284C130.18 267.065 136.108 260.959 143.248 265.142C147.854 267.836 152.309 273.455 154.473 278.172C154.573 278.323 154.718 278.439 154.889 278.501C155.059 278.563 155.244 278.569 155.418 278.517C155.591 278.465 155.744 278.359 155.852 278.214C155.961 278.068 156.019 277.892 156.02 277.711C155.006 270.669 147.466 261.953 140.228 260.866C132.713 259.733 127.581 266.005 125.37 272.394C124.896 273.758 127.238 274.654 127.765 273.284H127.785Z" fill="#002033"/>
<path d="M145.841 267.421C150.118 272.348 154.243 278.798 155.711 285.207C157.257 291.867 152.651 298.218 149.302 303.652C148.683 304.654 150.164 305.629 150.947 304.832C154.895 300.78 159.619 293.461 158.915 287.552C157.954 279.483 152.21 272.012 147.025 266.149C146.268 265.293 145.051 266.584 145.814 267.427L145.841 267.421Z" fill="#002033"/>
<path d="M119.02 286.413C121.135 288.454 123.415 290.316 125.837 291.979C126.752 292.638 128.364 291.716 127.554 290.589C125.791 288.126 122.771 286.821 120.619 284.72C119.546 283.666 117.987 285.346 119.02 286.413Z" fill="#002033"/>
<path d="M126.739 290.372C125.127 294.568 121.725 298.857 122.909 303.639C124.041 308.198 128.831 310.055 132.858 311.314C139.695 313.435 152.96 315.523 151.605 304.383C151.581 304.175 151.481 303.983 151.322 303.846C151.164 303.708 150.96 303.635 150.751 303.641C150.542 303.646 150.342 303.731 150.192 303.877C150.042 304.023 149.952 304.22 149.94 304.43C149.848 313.586 138.135 310.628 132.569 308.711C128.456 307.302 124.508 304.1 125.653 299.252C126.311 296.452 127.745 293.824 128.693 291.103C129.081 289.99 127.166 289.252 126.719 290.372H126.739Z" fill="#002033"/>
<path d="M139.148 304.502C141.524 303.666 144.32 302.737 146.551 304.423C147.643 305.247 149.065 303.843 148.038 302.842C145.36 300.207 141.649 301.307 138.576 302.539C137.372 303.013 137.918 304.937 139.148 304.515V304.502Z" fill="#002033"/>
<path d="M32.6964 252.717C26.8731 254.694 21.5103 257.184 16.7332 261.103C14.4181 263.029 12.2412 265.116 10.2189 267.348C7.99487 269.753 6.73811 270.445 3.8363 271.558C-3.07934 274.193 1.02005 281.834 3.27701 286.768C6.47492 293.758 11.3112 300.207 20.0101 298.448C25.9321 297.256 31.6831 293.297 36.9735 290.543C43.3167 287.249 50.1336 284.318 56.1346 280.484C57.2335 279.786 56.4899 277.902 55.187 278.343C47.2383 281.044 39.7963 285.793 32.3345 289.608C27.9982 291.821 22.7671 295.484 17.8584 295.774C11.6731 296.143 8.54102 291.399 6.19194 286.498C4.61272 283.205 2.29653 280.036 4.2837 276.617C5.65236 274.252 7.38296 274.404 9.43594 272.559C12.5944 269.726 15.029 266.182 18.3256 263.409C22.8856 259.575 27.8469 257.19 33.4005 255.063C34.8547 254.503 34.2164 252.204 32.703 252.711L32.6964 252.717Z" fill="#002033"/>
<path d="M50.7783 282.724C54.5074 284.402 58.4863 285.457 62.5566 285.846C64.2477 285.998 64.5306 283.093 62.8527 282.869C59.1719 282.449 55.5591 281.564 52.1009 280.234C50.4427 279.575 49.0872 281.999 50.7849 282.743L50.7783 282.724Z" fill="#002033"/>
<path d="M54.9699 281.327L60.7604 283.725C62.2409 284.338 63.3923 282.091 61.9316 281.512L56.0754 279.239C54.687 278.705 53.5552 280.741 54.9699 281.327Z" fill="#002033"/>
<path d="M57.2795 281.492C58.8557 282.696 60.592 283.674 62.4383 284.397C63.4024 284.765 64.392 285.062 65.3993 285.286C65.7612 285.365 68.0906 285.405 68.3275 285.688C69.3408 286.907 71.3082 285.747 71.2621 284.371C71.2161 282.994 69.2289 282.006 68.2485 283.224L67.9129 283.639L69.0051 283.31C65.0571 282.651 61.7671 282.256 58.3125 280.016C57.4703 279.483 56.4636 280.859 57.2795 281.465V281.492Z" fill="#002033"/>
<path d="M104.735 148.786C113.421 145.98 122.106 148.536 128.318 155.123C131.253 158.233 135.661 153.437 132.845 150.308C125.377 142.007 113.493 139.313 103.05 143.061C99.4512 144.379 101.076 149.985 104.735 148.799V148.786Z" fill="#002033"/>
<path d="M38.8554 133.174C47.6793 132.884 53.9172 137.271 61.4053 141.079C63.6688 142.231 66.5706 139.55 64.9848 137.278C59.1944 129.004 48.1464 127.054 38.6646 127.752C35.2035 128.009 35.3285 133.279 38.8225 133.16L38.8554 133.174Z" fill="#002033"/>
<path d="M46.7513 128.002C51.6745 129.078 56.0642 131.85 59.1547 135.835C59.3335 136.103 59.5663 136.331 59.838 136.504C60.1097 136.676 60.4145 136.791 60.7328 136.839C61.0511 136.887 61.3759 136.869 61.6866 136.785C61.9973 136.7 62.2871 136.552 62.5374 136.349C62.7877 136.146 62.993 135.894 63.1402 135.607C63.2874 135.32 63.3734 135.006 63.3925 134.684C63.4116 134.363 63.3636 134.04 63.2514 133.738C63.1392 133.436 62.9653 133.161 62.7408 132.93C58.8866 128.35 53.4828 125.35 47.5606 124.504C45.3102 124.168 44.468 127.489 46.7513 128.002Z" fill="#002033"/>
<path d="M124.751 139.004C117.943 137.789 110.926 138.681 104.636 141.559C102.004 142.765 103.978 147.291 106.702 146.237C112.157 144.122 117.77 143.18 123.593 144.036C126.837 144.511 128.048 139.55 124.751 139.004Z" fill="#002033"/>
<path d="M101.741 121.889C106.182 128.101 114.75 133.747 122.725 131.942C125.047 131.408 124.896 127.745 122.587 127.33C119.461 126.751 116.447 126.784 113.467 125.479C110.442 124.15 107.811 122.063 105.827 119.419C103.998 117.001 99.905 119.379 101.741 121.902V121.889Z" fill="#002033"/>
<path d="M70.762 110.526C63.7461 112.225 56.4811 112.64 49.3176 111.751C45.0998 111.257 43.4745 117.68 47.8042 118.338C56.0829 119.508 64.5143 118.934 72.5584 116.652C76.5064 115.558 74.7101 109.57 70.762 110.552V110.526Z" fill="#002033"/>
<path d="M120.961 176.454C124.515 174.446 127.852 172.075 130.917 169.379C131.463 168.885 130.687 167.903 130.094 168.364C126.923 170.834 123.751 173.285 120.343 175.433C120.222 175.521 120.139 175.652 120.11 175.799C120.081 175.946 120.108 176.098 120.186 176.226C120.263 176.354 120.386 176.449 120.529 176.491C120.673 176.533 120.827 176.52 120.961 176.454Z" fill="#F8B6AB"/>
<path d="M127.956 177.145C130.588 175.571 133.496 174.174 135.76 172.106C136.332 171.585 135.569 170.874 134.977 171.138C132.246 172.35 129.805 174.431 127.37 176.177C127.249 176.258 127.163 176.383 127.132 176.525C127.1 176.668 127.124 176.817 127.2 176.942C127.275 177.067 127.396 177.158 127.537 177.196C127.678 177.234 127.828 177.216 127.956 177.145Z" fill="#F8B6AB"/>
<path d="M135.141 178.16L143.57 173.305C144.696 172.646 143.643 170.927 142.524 171.585L134.161 176.546C133.947 176.676 133.794 176.886 133.735 177.129C133.675 177.373 133.715 177.63 133.845 177.844C133.975 178.058 134.185 178.211 134.428 178.27C134.671 178.33 134.928 178.29 135.141 178.16Z" fill="#F8B6AB"/>
<path d="M28.4652 152.989C30.6564 151.507 32.8081 150.011 34.9006 148.378C35.6573 147.791 34.9401 146.526 34.1176 147.06C31.9198 148.529 29.8142 150.09 27.7086 151.671C26.9716 152.231 27.7085 153.456 28.4652 152.923V152.989Z" fill="#F8B6AB"/>
<path d="M33.4135 152.613C35.9484 151.881 38.2839 150.581 40.2437 148.812C40.9017 148.226 39.8686 147.205 39.2172 147.844C37.4389 149.567 35.4489 151.057 33.2952 152.277C33.2566 152.3 33.2277 152.336 33.2139 152.379C33.2 152.422 33.2021 152.468 33.2199 152.509C33.2376 152.55 33.2698 152.584 33.3103 152.603C33.3507 152.622 33.3968 152.626 33.4399 152.613H33.4135Z" fill="#F8B6AB"/>
<path d="M43.1849 154.965C45.818 154.256 48.1444 152.697 49.8045 150.532C50.3901 149.768 49.2978 148.727 48.7056 149.497C47.2296 151.456 45.147 152.869 42.7835 153.516C42.6045 153.583 42.4576 153.716 42.3723 153.887C42.2871 154.059 42.2698 154.256 42.324 154.44C42.3782 154.623 42.4998 154.78 42.6644 154.877C42.829 154.975 43.0244 155.006 43.2112 154.965H43.1849Z" fill="#F8B6AB"/>
<path d="M71.0449 209.964C76.1971 218.298 89.423 222.85 97.4112 215.682C97.5316 215.547 97.6053 215.377 97.6215 215.196C97.6376 215.016 97.5953 214.835 97.5008 214.681C97.4064 214.526 97.2647 214.407 97.0969 214.339C96.9291 214.271 96.7439 214.26 96.5689 214.306C88.0149 217.705 78.3619 217.31 72.8413 208.871C72.1043 207.738 70.3277 208.812 71.0449 209.964Z" fill="#002033"/>
<path d="M60.6551 205.597C58.9898 207.673 58.1265 210.28 58.2231 212.941C58.3198 215.602 59.37 218.14 61.1815 220.089C63.4292 222.423 66.499 223.785 69.7356 223.884C73.348 224.114 75.8813 222.204 79.145 221.539C82.7114 220.807 85.2185 224.694 88.7125 226.427C91.9963 228.102 95.6663 228.873 99.3459 228.66C105.873 228.179 111.92 224.049 113.697 217.613C114.085 216.203 111.901 215.36 111.269 216.71C105.196 229.714 90.2127 226.532 81.7244 217.804C81.521 217.614 81.2611 217.495 80.9844 217.467C80.7076 217.438 80.4291 217.501 80.1912 217.645C76.2827 219.977 72.2557 221.835 67.6299 220.432C62.1751 218.779 58.0099 212.613 62.2475 207.079C63.0897 205.992 61.55 204.497 60.6683 205.59L60.6551 205.597Z" fill="#002033"/>
<path d="M11.4164 279.054C13.7278 281.272 15.5248 283.971 16.6804 286.959C17.2068 288.336 19.4177 287.691 18.8847 286.301C17.5853 282.928 15.564 279.881 12.9627 277.375C11.9099 276.36 10.3307 278.033 11.4098 279.028L11.4164 279.054Z" fill="#002033"/>
<path d="M21.2405 161.487C20.8804 161.487 20.5306 161.366 20.2469 161.144C20.0765 161.014 19.9335 160.851 19.8261 160.665C19.7186 160.479 19.6489 160.274 19.6208 160.061C19.5927 159.848 19.6067 159.631 19.6622 159.424C19.7177 159.217 19.8136 159.022 19.9442 158.852C20.0824 158.674 33.4005 140.789 30.0841 106.356C30.0633 106.141 30.0848 105.925 30.1476 105.718C30.2104 105.512 30.3132 105.32 30.4501 105.154C30.587 104.988 30.7552 104.85 30.9454 104.748C31.1355 104.647 31.3437 104.585 31.5581 104.564C31.772 104.543 31.988 104.565 32.1936 104.628C32.3992 104.691 32.5903 104.794 32.756 104.931C32.9217 105.068 33.0587 105.236 33.1591 105.427C33.2596 105.617 33.3214 105.825 33.3412 106.04C36.7958 141.863 23.1224 160.057 22.5433 160.848C22.3901 161.048 22.1928 161.209 21.9668 161.32C21.7408 161.431 21.4922 161.488 21.2405 161.487Z" fill="#002033"/>
<path d="M40.0001 107.317C37.0917 107.317 22.5169 106.982 16.7001 100.374C15.7163 99.2732 14.995 97.963 14.5903 96.5423C14.1857 95.1217 14.1084 93.6276 14.3642 92.1727C14.3642 92.1002 14.3642 92.0344 14.4103 91.9619C19.6496 73.324 28.7523 56.0003 41.1253 41.1193C50.3374 30.1708 57.8386 24.9205 58.1545 24.7032C58.5126 24.4561 58.9539 24.3611 59.3817 24.4389C59.8096 24.5167 60.1893 24.7609 60.4378 25.1182C60.6836 25.4764 60.7772 25.9177 60.6982 26.3451C60.6193 26.7724 60.3742 27.151 60.0167 27.3975C59.6745 27.6413 30.1892 48.5237 17.595 92.7524C17.4262 93.7199 17.4796 94.7132 17.7509 95.657C18.0222 96.6009 18.5044 97.4706 19.161 98.2003C21.3127 100.651 25.6161 102.436 31.6105 103.371C34.5286 103.815 37.4763 104.035 40.4278 104.03C40.6429 104.025 40.8569 104.063 41.0573 104.141C41.2578 104.219 41.4408 104.336 41.5957 104.486C41.7505 104.635 41.8742 104.814 41.9595 105.012C42.0448 105.21 42.0901 105.422 42.0926 105.638C42.097 105.853 42.0588 106.067 41.9804 106.267C41.902 106.467 41.7848 106.65 41.6357 106.805C41.4865 106.96 41.3083 107.084 41.1112 107.169C40.914 107.255 40.7019 107.301 40.487 107.304L40.0001 107.317Z" fill="#002033"/>
<path d="M206.68 124.583C206.218 123.934 205.631 123.385 204.952 122.969C204.274 122.552 203.519 122.277 202.732 122.159C199.521 121.612 195.283 123.259 191.105 126.678C189.929 127.63 188.829 128.672 187.815 129.794C187.703 129.274 187.597 128.747 187.479 128.233C192.085 126.369 200.172 121.645 201.231 110.842C201.889 104.155 198.257 102.812 196.671 102.541C194.585 102.192 192.243 103.009 189.703 104.959C186.889 107.224 184.521 109.994 182.722 113.128C182.23 111.951 181.717 110.782 181.182 109.623C185.268 106.929 192.046 100.822 191.217 90.3677C190.769 84.6827 187.887 83.3652 186.209 83.0819C184.235 82.746 182.195 83.5101 180.136 85.3282C177.412 87.7327 174.872 91.7708 173.358 96.033C172.391 94.6364 171.384 93.2596 170.325 91.9158C172.568 88.5028 173.882 84.5628 174.137 80.4854C174.392 76.4081 173.579 72.3348 171.779 68.6684C170.239 65.4208 168.43 63.6619 166.252 63.293C165.302 63.1485 164.331 63.2731 163.448 63.6527C162.566 64.0322 161.807 64.6515 161.258 65.4405C159.185 68.0755 158.053 73.3983 158.218 79.0372L158.073 78.9186C157.87 75.2152 157.033 71.5743 155.599 68.1546C152.914 61.9491 148.413 57.7726 142.221 55.7502C141.328 55.4651 140.416 55.2449 139.491 55.0914C137.574 54.657 135.566 54.8894 133.799 55.7502C132.966 56.2138 132.251 56.8642 131.711 57.6505C131.171 58.4369 130.821 59.3377 130.687 60.2824C130.443 61.7383 130.147 67.0939 136.609 75.0187C139.128 78.1826 142.217 80.846 145.715 82.8711C144.833 82.9141 143.954 83.013 143.083 83.1675C139.57 83.7801 137.161 85.2492 136.207 87.4099C135.49 89.0041 134.957 92.2254 139.497 95.9737C142.272 98.292 145.609 99.8371 149.17 100.453C150.706 100.711 152.267 100.795 153.822 100.704C153.657 100.91 153.509 101.131 153.381 101.362C152.664 102.68 151.92 105.315 155.02 108.885C157.284 111.551 160.357 113.402 163.771 114.155C162.072 114.469 160.564 115.439 159.573 116.856C158.783 118.088 157.829 120.71 160.343 124.465C161.374 126.028 162.683 127.388 164.205 128.477C163.771 128.773 163.379 129.128 163.041 129.531C161.962 130.848 160.975 133.18 162.383 137.04C164.534 142.969 169.397 146.757 176.444 147.943C177.85 148.176 179.271 148.303 180.695 148.325C180.682 149.74 180.594 151.154 180.432 152.561C180.362 153.058 180.406 153.564 180.561 154.041C180.716 154.518 180.978 154.954 181.327 155.314C181.816 155.822 182.455 156.159 183.149 156.276C183.449 156.316 183.752 156.316 184.051 156.276C184.166 156.259 184.284 156.259 184.4 156.276C184.54 156.303 184.678 156.338 184.814 156.381C185.014 156.458 185.221 156.516 185.433 156.553C185.613 156.581 185.796 156.596 185.979 156.599C186.566 156.599 187.144 156.442 187.65 156.144C188.08 155.891 188.446 155.544 188.722 155.129C188.998 154.713 189.176 154.241 189.243 153.746C189.511 151.473 189.637 149.185 189.618 146.895C192.882 146.344 196.026 145.23 198.909 143.602C203.817 140.716 206.805 136.52 207.713 131.131C208.18 128.424 207.831 126.191 206.68 124.583ZM184.367 123.114C184.86 117.844 188.973 111.738 192.73 108.872C194.151 107.779 195.197 107.403 195.73 107.403H195.869C196.237 107.469 196.527 108.523 196.342 110.354C195.382 120.11 186.814 123.444 183.59 124.353C183.806 124.22 183.988 124.039 184.123 123.824C184.257 123.609 184.341 123.367 184.367 123.114ZM182.057 124.432C182.305 124.543 182.576 124.593 182.847 124.577C182.567 124.726 182.338 124.956 182.189 125.236C182.014 125.138 181.822 125.078 181.623 125.058C181.812 124.892 181.961 124.684 182.057 124.452V124.432ZM136.194 64.7752C135.279 62.3114 135.431 60.8226 135.878 60.3088C136.096 60.1169 136.351 59.9726 136.627 59.8853C136.904 59.7979 137.196 59.7694 137.484 59.8015C137.89 59.8045 138.295 59.842 138.694 59.9136C139.38 60.0321 140.056 60.2039 140.715 60.4274C144.373 61.6198 152.907 65.9477 153.217 80.3217C153.065 80.3217 152.921 80.2822 152.769 80.2559C145.979 79.136 138.583 71.198 136.194 64.7949V64.7752ZM150.012 95.5455C147.3 95.0678 144.76 93.8842 142.649 92.1134C141.076 90.7959 140.55 89.8209 140.728 89.4322C141.122 88.5693 143.629 87.7459 147.229 87.7459C148.715 87.7527 150.198 87.8804 151.664 88.1279C154.874 88.6072 157.943 89.7709 160.665 91.5403C160.996 91.77 161.399 91.8701 161.798 91.8215C162.197 91.7729 162.564 91.579 162.83 91.2768C163.027 91.0553 163.158 90.7842 163.212 90.4929C163.627 90.5805 164.06 90.4999 164.416 90.2689C164.75 90.0669 165 89.7515 165.121 89.3802C165.242 89.0089 165.225 88.6066 165.074 88.2465C162.554 82.3178 162.797 73.6354 164.594 69.5511C164.775 69.0073 165.103 68.5242 165.541 68.1546C165.686 68.2139 166.39 68.6223 167.403 70.7896C172.213 80.9344 166.745 88.8196 165.002 91.0001C164.739 91.3142 164.607 91.7177 164.633 92.1266C164.34 92.1339 164.056 92.2229 163.811 92.3835C162.613 93.1082 156.638 96.6786 149.986 95.5653L150.012 95.5455ZM164.278 98.5823L163.745 98.4901C163.501 98.444 163.245 98.4045 162.968 98.3716L163.817 97.9763L164.278 98.5823ZM158.764 105.618C157.763 104.458 157.671 103.846 157.704 103.747C157.737 103.648 158.639 103.128 160.428 103.128C161.267 103.133 162.103 103.208 162.929 103.352C166.554 103.964 170.121 105.638 172.233 107.713C172.514 107.989 172.885 108.155 173.278 108.179C173.671 108.203 174.059 108.084 174.372 107.844C174.569 107.698 174.73 107.508 174.844 107.291C174.958 107.073 175.022 106.832 175.03 106.586C175.222 106.599 175.416 106.579 175.602 106.527C175.955 106.424 176.263 106.206 176.478 105.908C176.692 105.609 176.801 105.248 176.786 104.88C176.55 99.2082 180.076 91.9619 183.452 89.0107C184.518 88.0687 185.202 87.8908 185.426 87.9304C185.65 87.9699 186.183 88.7076 186.341 90.7432C186.597 93.9711 186.124 102.001 176.201 106.804C175.806 106.996 175.503 107.337 175.359 107.752C175.324 107.86 175.3 107.97 175.286 108.082C174.985 108.033 174.677 108.072 174.398 108.194C173.319 108.655 169.502 110.111 165.469 109.432C162.846 109.008 160.46 107.663 158.737 105.638L158.764 105.618ZM174.01 115.255C172.961 114.869 171.889 114.552 170.799 114.307C171.657 114.177 172.508 113.997 173.345 113.767C173.549 114.28 173.746 114.775 173.983 115.275L174.01 115.255ZM164.462 121.698C163.666 120.499 163.574 119.774 163.745 119.518C163.975 119.162 164.909 118.76 166.594 118.76C167.371 118.765 168.145 118.835 168.91 118.971C172.483 119.57 177.063 121.606 179.254 124.695C179.486 125.025 179.83 125.259 180.221 125.354C177.415 126.288 174.435 126.574 171.503 126.191C170.076 125.988 168.708 125.484 167.49 124.713C166.272 123.942 165.231 122.921 164.436 121.718L164.462 121.698ZM178.997 130.855L178.899 130.789H178.978L178.997 130.855ZM202.87 130.288C201.093 140.538 189.637 142.146 186.17 142.396C185.861 142.418 185.566 142.527 185.316 142.71C185.067 142.893 184.875 143.143 184.761 143.43C184.523 143.3 184.256 143.232 183.985 143.233H183.814C181.635 143.452 179.436 143.388 177.273 143.042C172.009 142.159 168.561 139.557 167.028 135.328C166.574 134.069 166.515 133.075 166.857 132.66C167.199 132.245 168.114 132.001 169.858 132.297C173.983 132.956 179.899 136.527 182.274 141.032C182.45 141.367 182.736 141.63 183.084 141.778C183.432 141.926 183.82 141.949 184.182 141.843C184.427 141.77 184.652 141.641 184.838 141.466C185.024 141.291 185.167 141.075 185.255 140.835C185.432 140.922 185.624 140.975 185.821 140.993C186.2 141.028 186.58 140.929 186.895 140.714C187.209 140.499 187.439 140.18 187.545 139.814C189.565 132.745 198.349 126.388 201.935 126.988C202.081 126.999 202.223 127.042 202.351 127.112C202.479 127.183 202.591 127.279 202.679 127.396C202.817 127.666 203.172 128.424 202.843 130.308L202.87 130.288Z" fill="#002033"/>
<path d="M183.544 153.858C183.618 153.868 183.694 153.868 183.768 153.858C184.111 153.826 184.456 153.841 184.794 153.904C185.092 153.956 185.384 154.031 185.67 154.128C185.72 154.15 185.773 154.165 185.827 154.175C186.021 154.21 186.22 154.172 186.387 154.069C186.495 154.006 186.587 153.92 186.657 153.816C186.726 153.712 186.771 153.594 186.788 153.47C187.111 150.599 187.219 147.707 187.111 144.82C191.118 144.392 203.291 142.185 205.272 130.743C205.633 128.687 205.429 127.093 204.666 126.019C204.389 125.638 204.038 125.317 203.635 125.073C203.231 124.83 202.783 124.67 202.317 124.603C197.856 123.852 189.901 129.353 186.393 136.092C186.018 133.299 185.505 130.499 184.854 127.732C184.768 127.37 184.683 127.008 184.59 126.652C188.486 125.486 197.751 121.573 198.797 110.611C199.238 106.165 197.408 105.183 196.283 104.992C194.559 104.702 192.585 105.888 191.23 106.929C187.173 110.248 184.162 114.67 182.557 119.662C181.285 115.903 179.764 112.232 178.004 108.675C181.531 106.79 189.631 101.257 188.782 90.5785C188.479 86.7643 187.005 85.7236 185.821 85.5259C184.636 85.3283 183.261 85.8883 181.781 87.1926C178.491 90.0911 175.122 96.2372 174.411 102.14C172.265 98.6117 169.88 95.2354 167.272 92.0344C169.581 88.9844 174.661 80.4799 169.575 69.7422C168.403 67.2719 167.186 65.9675 165.864 65.7436C165.206 65.625 164.186 65.7436 163.232 66.982C160.823 70.0452 159.889 78.5892 161.6 85.6577C159.731 83.7407 157.757 81.883 155.678 80.0912C155.533 75.4799 154 62.1995 141.471 58.1152C140.696 57.8541 139.902 57.6515 139.096 57.5091C134.332 56.7055 133.338 59.4854 133.128 60.7041C132.088 66.8964 142.096 81.0003 152.361 82.7262L152.723 82.7789C154.381 84.215 156.013 85.6906 157.52 87.2057C155.746 86.5355 153.91 86.0413 152.039 85.7301C146.334 84.7683 139.833 85.3941 138.451 88.4442C137.925 89.6036 137.951 91.514 141.083 94.0568C143.525 96.1002 146.462 97.4635 149.598 98.0093C156.237 99.1292 162.1 96.257 164.469 94.8539C166.692 97.6145 168.747 100.507 170.621 103.516C168.355 102.25 165.889 101.384 163.33 100.954C159.382 100.295 156.487 100.895 155.546 102.574C154.835 103.839 155.296 105.42 156.902 107.265C158.988 109.723 161.88 111.358 165.061 111.876C168.297 112.336 171.597 111.953 174.641 110.763C176.21 113.966 177.572 117.267 178.721 120.644C175.958 118.547 172.73 117.148 169.312 116.566C165.594 115.941 162.731 116.566 161.665 118.213C161.1 119.089 160.771 120.651 162.409 123.101C163.382 124.588 164.658 125.852 166.154 126.809C167.65 127.766 169.332 128.395 171.088 128.654C174.352 129.104 177.676 128.805 180.807 127.778C180.873 128.035 180.932 128.286 180.991 128.536C181.66 131.379 182.178 134.255 182.544 137.152C179.287 133.318 174.174 130.565 170.266 129.906C167.798 129.491 165.962 129.906 164.956 131.125C163.949 132.344 163.903 133.997 164.705 136.21C166.535 141.27 170.739 144.491 176.859 145.525C178.945 145.86 181.062 145.955 183.169 145.808C183.237 148.182 183.141 150.557 182.88 152.916C182.868 153.036 182.882 153.157 182.922 153.271C182.962 153.385 183.026 153.489 183.11 153.575C183.219 153.715 183.372 153.815 183.544 153.858Z" fill="#17FFDD"/>
</g>
<defs>
<clipPath id="clip0_813_217">
<rect width="311" height="313" fill="white"/>
</clipPath>
</defs>
</svg>
