<svg width="65" height="47" viewBox="0 0 65 47" fill="none" xmlns="http://www.w3.org/2000/svg">
<g clip-path="url(#clip0_718_96)">
<path d="M39.9547 33.1451C39.8923 33.1009 39.8464 33.0379 39.8238 32.9659C39.8011 32.8938 39.8031 32.8164 39.8293 32.7455C39.2139 32.5732 38.5668 32.6339 37.937 32.6975C37.7583 32.7158 37.5695 32.7412 37.3807 32.7554C36.7972 33.4223 36.0832 33.9678 35.2808 34.3596C35.2049 34.3999 35.1187 34.4177 35.0327 34.411C34.9466 34.4043 34.8644 34.3733 34.796 34.3218C34.7275 34.2702 34.6757 34.2003 34.647 34.1206C34.6182 34.0408 34.6136 33.9546 34.6337 33.8724C34.7779 33.0138 34.6972 32.1015 34.5602 31.2472C34.4602 30.6196 34.3197 29.9989 34.1394 29.3887C33.3943 28.2406 32.6982 27.0544 32.0655 25.8498C32.0893 25.7922 32.1009 25.7305 32.0996 25.6684C32.0984 25.6062 32.0843 25.545 32.0583 25.4883C31.5673 24.368 31.1225 23.2293 30.7237 22.0723C30.3649 21.0372 30.081 19.9809 29.7581 18.9344C29.2004 17.1311 28.4855 15.3079 26.8584 14.1782C26.6076 14.0031 26.2545 14.1782 26.1724 14.4395C25.7227 15.9138 25.4518 17.4305 25.0425 18.9175C24.8556 19.635 24.6197 20.3394 24.3363 21.0258C24.1901 21.3681 24.0241 21.7019 23.8391 22.0257C23.6532 22.3505 23.5004 22.6809 23.0767 22.6837C22.2393 22.6837 21.3631 22.5298 20.5387 22.4013C19.7312 22.2904 18.931 22.1338 18.142 21.9325C17.8105 21.8421 17.5208 21.7107 17.3306 21.417C17.1403 21.1233 17.0611 20.7575 16.9731 20.4285C16.7586 19.6249 16.5954 18.8089 16.4846 17.9854C16.2377 16.1196 16.2658 14.2286 16.5682 12.3706C16.6388 11.947 16.0205 11.5586 15.7784 12.0303C14.6715 14.1843 13.5988 16.3544 12.5602 18.5404C11.9981 16.9654 11.5033 15.3706 11.0757 13.756C11.056 13.6861 11.0182 13.6223 10.9661 13.5708C10.914 13.5192 10.8493 13.4817 10.7781 13.4617C10.707 13.4417 10.6318 13.44 10.5597 13.4566C10.4877 13.4733 10.4212 13.5078 10.3666 13.5569C8.19329 15.6398 6.65264 18.241 4.66088 20.4765C4.66088 20.6559 4.66088 20.8366 4.66088 21.016C4.66088 22.6894 4.64935 24.3642 4.43461 26.0264C4.26743 27.3213 4.11467 28.6262 3.75581 29.8858C3.39176 31.1219 2.90369 32.3196 2.29874 33.4615C2.133 33.782 1.95141 34.0983 1.75973 34.4076C1.55535 34.8203 1.41497 35.2606 1.34322 35.7139C1.14001 37.2305 1.98456 38.6526 3.0525 39.6807C3.6967 40.2831 4.39679 40.8253 5.14369 41.3004L5.19558 41.3329L4.58738 41.2496C4.70503 41.3211 4.81859 41.3989 4.92751 41.4826C4.51677 41.1663 4.95489 41.4727 5.04857 41.5292C5.21431 41.6281 5.38293 41.7199 5.55588 41.8117C5.83259 41.9529 6.11651 42.0772 6.40043 42.2C6.99709 42.4584 7.59087 42.7098 8.17456 42.9965C8.33165 43.0727 9.13584 43.4201 8.58098 43.1885C9.03352 43.3735 9.4875 43.5557 9.93572 43.7534C10.2797 43.9048 10.6107 44.0828 10.9258 44.2858C11.0006 44.2874 11.0742 44.3042 11.142 44.3352C11.9938 44.7419 12.9565 44.8605 13.8054 45.2856C13.8922 45.336 13.9583 45.4145 13.9923 45.5076C14.0262 45.6007 14.0259 45.7025 13.9913 45.7954C14.6772 46.2424 15.4743 46.4981 16.2972 46.5354C16.8158 46.5796 17.3359 46.4672 17.7874 46.2134C18.1694 45.9931 18.4533 45.8773 18.9073 45.8985C20.2188 45.9606 21.5303 45.955 22.8432 45.938C23.9717 45.9239 25.0828 45.6274 26.2142 45.6556C26.2745 45.6567 26.3339 45.6702 26.3886 45.6951C26.563 45.6838 26.7373 45.6711 26.9117 45.6556L27.0559 45.6443C27.0876 45.6372 27.1539 45.6259 27.2749 45.6062C27.654 45.5454 28.0344 45.489 28.4135 45.4367L28.2002 45.4028C28.6657 45.2898 29.1312 45.1712 29.5909 45.0484C30.7554 44.7391 32.1736 44.4835 33.0931 43.6616C33.2038 43.5595 33.3055 43.4486 33.3972 43.3298C33.4894 43.2125 33.4779 43.18 33.5543 43.1687C33.6515 43.1636 33.749 43.1746 33.8425 43.2012C33.9063 43.1731 33.9759 43.16 34.0457 43.1631C35.6311 43.2323 37.3072 43.0021 38.77 42.385C40.5225 41.645 41.7043 39.9984 41.9508 38.1583C42.0782 37.2255 41.9619 36.2762 41.6128 35.3994C41.2637 34.5226 40.6932 33.747 39.9547 33.1451Z" fill="#FFE4CA"/>
<path d="M38.5769 38.2247C38.3074 38.1569 38.0091 38.2162 37.7381 38.2516C37.4255 38.291 37.1152 38.3466 36.8085 38.4182C36.5203 38.4832 36.2493 38.5594 35.977 38.6554C35.6839 38.7379 35.4011 38.852 35.1338 38.9958C35.0328 39.0528 34.9453 39.1303 34.8772 39.223C34.8091 39.3158 34.7619 39.4218 34.739 39.5338C34.4738 39.1582 33.8555 39.4787 34.0933 39.8911C34.5876 40.7483 35.608 41.3583 36.6284 41.2863C37.1486 41.2488 37.6484 41.0723 38.0735 40.776C38.4985 40.4798 38.8326 40.0751 39.0395 39.6058C39.2672 39.0847 39.2485 38.3956 38.5769 38.2247Z" fill="#F8B6AB"/>
<path d="M32.5786 42.6618C30.3043 44.4764 27.2288 44.6078 24.4184 44.9015C21.5245 45.2023 18.5599 45.2376 15.6789 44.7928C12.7028 44.3338 10.1375 43.1928 7.54475 41.7368C5.0039 40.3105 2.0941 38.5608 1.72803 35.4286C1.69632 35.1462 1.24378 35.1377 1.22361 35.4286C1.01896 38.2445 2.93864 40.2385 5.22728 41.6662C7.74364 43.2366 10.4012 44.5371 13.2837 45.2729C13.2324 45.3487 13.2139 45.4412 13.2319 45.5303C13.25 45.6195 13.3033 45.698 13.3802 45.7488C13.8967 46.1177 14.4856 46.3778 15.1097 46.5128C15.4235 46.5749 15.7422 46.6103 16.0623 46.6187C16.3978 46.6153 16.7306 46.5596 17.0481 46.4535C17.0999 46.4347 17.1464 46.404 17.1835 46.3639C17.2207 46.3238 17.2475 46.2756 17.2616 46.2232C17.2757 46.1709 17.2768 46.116 17.2647 46.0632C17.2527 46.0103 17.2278 45.9611 17.1922 45.9197C19.5385 46.1188 21.905 46.0298 24.2541 45.842C27.3354 45.5963 30.6445 45.4184 33.1118 43.3905C33.5817 43.0163 33.0412 42.289 32.5786 42.6618ZM16.1329 45.8194C15.8576 45.8187 15.5829 45.7918 15.3129 45.7389C15.1241 45.7008 14.941 45.6514 14.7594 45.5977C15.2533 45.6918 15.75 45.7672 16.2497 45.8237C16.2108 45.8194 16.1718 45.8194 16.1329 45.8194Z" fill="#F8B6AB"/>
<path d="M15.3748 29.4876C15.1274 29.3657 14.8582 29.2918 14.5821 29.2702C14.3264 29.2381 14.0666 29.2792 13.8342 29.3888C13.7606 29.4258 13.6955 29.4771 13.6428 29.5395C13.59 29.6018 13.5507 29.674 13.5272 29.7517C13.5031 29.845 13.5047 29.9429 13.5318 30.0354C13.5589 30.128 13.6105 30.2118 13.6814 30.2784C13.7862 30.3708 13.9054 30.4461 14.0345 30.5016C14.1709 30.5674 14.3132 30.6208 14.4596 30.6611C14.724 30.7468 15.0095 30.7468 15.2739 30.6611C15.3198 30.6423 15.3638 30.6191 15.4051 30.5919C15.6544 30.5693 15.8951 30.4507 15.9354 30.1881C15.9873 29.8492 15.6544 29.6232 15.3748 29.4876Z" fill="#F8B6AB"/>
<path d="M32.9274 28.8253C31.1518 26.6491 29.8071 24.1157 28.8617 21.482C28.915 21.0682 28.9511 20.6502 28.9626 20.2266C28.9813 19.4739 27.8356 19.279 27.7476 20.067C27.6096 21.3623 27.3348 22.6401 26.9276 23.8799C26.9867 23.4011 27.0559 22.9253 27.1467 22.455C27.2749 21.7786 26.2041 21.4933 25.9562 22.1401C25.6233 23.0058 25.3452 23.8898 25.0555 24.7695C24.9243 25.1692 24.8061 25.5759 24.6606 25.9699C24.4329 26.5828 24.6116 26.4458 24.3522 26.21C24.0293 25.9176 23.989 25.6564 23.5148 25.5703C22.7726 25.4291 22.1024 26.0038 21.3083 25.9289C20.4883 25.8499 19.723 25.4884 18.9274 25.2779C18.4627 25.1554 17.9891 25.0676 17.5107 25.0153C16.8074 24.9319 16.6763 24.8317 15.9672 24.4575C15.5348 24.2287 15.1731 24.1482 14.8431 24.216L14.7479 23.7203C14.6615 23.2656 14.0619 22.8914 13.6469 23.2585L13.5128 23.3772C13.3687 22.4861 13.7088 20.8847 13.7679 20.4116C13.9243 19.235 14.149 18.068 14.441 16.9165C14.6197 16.2019 13.4119 15.8813 13.1655 16.5789L11.8252 20.3692C11.5989 21.0118 11.191 23.1413 10.5958 23.7584C10.2067 23.476 9.86224 23.1427 9.49473 22.8207C9.40865 22.752 9.30523 22.7074 9.19539 22.6915C9.08556 22.6756 8.97338 22.689 8.87069 22.7304C8.48733 21.393 8.45706 20.0035 8.48444 18.5814C8.49453 18.0377 7.78258 17.7977 7.52172 18.3272C7.06053 19.2578 6.66708 20.2139 6.29236 21.1798C6.16842 21.5004 5.98394 22.479 5.74326 22.6329C5.45502 22.8193 4.75315 22.6329 4.43608 22.5708C3.78754 22.4564 3.61027 23.2246 4.00372 23.5763C3.73854 23.8813 3.84231 24.4815 4.34241 24.5153C4.57877 24.5309 4.81513 24.5549 5.05293 24.5775C4.63464 25.1882 4.29255 25.8457 4.03399 26.5362C4.00392 26.6193 4.00754 26.7106 4.0441 26.7912C4.08065 26.8718 4.14737 26.9356 4.2305 26.9695C4.31363 27.0033 4.40684 27.0047 4.49094 26.9732C4.57503 26.9417 4.64361 26.8798 4.68253 26.8003C5.06891 26.0543 5.53253 25.3492 6.06609 24.6961C7.95552 24.9531 9.84639 25.3796 11.7099 25.6846C14.1167 26.0716 16.5177 26.4952 18.8986 27.0163C20.3615 27.3355 23.8377 28.7307 26.024 28.2943C26.3036 28.2914 26.5806 28.2407 26.8426 28.1447C27.6655 27.8227 28.2377 26.7664 28.6326 25.744C29.2152 27.088 29.927 28.3746 30.7583 29.5865C31.3521 30.4465 32.0857 31.2571 32.4791 32.2315C32.9302 33.3485 33.0672 34.9937 33.0354 36.1856C33.0404 36.2156 33.0551 36.2432 33.0773 36.2644C33.0996 36.2856 33.1282 36.2992 33.1589 36.3032C33.1897 36.3071 33.2209 36.3013 33.248 36.2865C33.2751 36.2716 33.2966 36.2486 33.3093 36.2209C33.3093 36.1983 33.3194 36.1771 33.3251 36.1531C33.3572 36.1502 33.3878 36.1384 33.4133 36.1192C33.4388 36.0999 33.4582 36.074 33.4693 36.0444C33.9564 34.7974 34.1899 33.2539 34.334 31.9279C34.4781 30.6018 33.733 29.8124 32.9274 28.8253ZM11.8151 24.1651C11.9419 23.9166 12.0644 23.6652 12.1797 23.4068C12.1843 23.6958 12.2374 23.982 12.3368 24.2541L11.8151 24.1651Z" fill="#F8B6AB"/>
<path d="M64.4999 30.0214C64.2974 30.2644 64.0818 30.4969 63.8543 30.7177C63.8352 30.7239 63.8178 30.7343 63.8034 30.748C63.7889 30.7616 63.7778 30.7783 63.7707 30.7967C62.9261 31.5904 61.9101 32.1891 60.6966 32.2414C59.032 32.312 57.9713 31.0806 57.2694 29.7687C56.2533 27.8665 55.6466 25.984 54.0641 24.4165C52.9241 23.2868 51.2668 22.0624 49.5315 22.2898C49.0511 22.352 48.5943 22.5312 48.2027 22.8109C47.5412 18.7057 46.714 14.4522 44.3115 11.0263C41.8614 7.52551 38.7297 4.21534 34.7606 2.3781C26.5788 -1.40653 15.7366 0.915089 8.78419 6.1246C8.39795 6.40704 3.16348 12.5401 3.49352 12.7082C2.86083 15.1202 1.8808 16.0169 0.857538 18.2962C0.253671 19.6391 0.785482 19.2974 0.456886 20.7279C0.348795 21.1939 0.701893 20.8832 1.28702 21.6967C1.90674 22.5595 2.57259 22.2277 3.08133 22.6654C3.40705 22.9479 4.78772 23.1893 5.22008 23.0524C6.03293 22.7939 6.22028 21.7052 6.51717 21.0089L7.32569 19.1265C7.41937 21.7673 7.97712 25.4389 10.3104 23.8644C10.9575 23.4266 11.1651 22.6315 11.3928 21.9466C11.7694 20.8169 12.1816 19.6994 12.6293 18.5941C13.0459 17.5661 13.556 16.5352 14.0417 15.4958C13.8774 16.7357 13.6685 18.114 13.6468 18.3413C13.631 18.5051 13.6195 18.669 13.6036 18.8314C13.2066 20.5389 12.9007 22.2655 12.687 24.0042C12.6717 24.1346 12.6993 24.2663 12.766 24.3802C12.8326 24.494 12.9348 24.584 13.0574 24.6368L13.827 24.9715C14.0893 25.0859 14.4957 24.956 14.5822 24.6665C14.6456 24.4532 14.7191 24.2428 14.7897 24.0296C14.8546 24.5676 14.9238 24.9037 15.4642 25.1593C15.8649 25.3471 16.4731 25.2878 16.9054 25.3401C17.6131 25.4262 18.3178 25.5392 19.0182 25.6705C20.5435 25.9587 22.0475 26.3455 23.5206 26.8285C23.6203 26.8608 23.726 26.8717 23.8304 26.8605C23.9349 26.8493 24.0356 26.8162 24.1259 26.7636C24.1629 26.7903 24.202 26.8144 24.2426 26.8356C26.0225 27.7267 26.8685 25.8598 27.0804 24.4631C27.162 23.9237 27.2437 23.3852 27.3254 22.8476C27.4828 22.3373 27.6107 21.8186 27.7087 21.2942C27.9449 22.8027 28.3951 24.2714 29.0462 25.6578C30.1703 27.9639 31.956 30.318 34.2345 31.6525C34.2848 32.6855 34.1271 33.7181 33.7705 34.6915C33.74 34.7702 33.7389 34.8569 33.7675 34.9363C33.7961 35.0156 33.8524 35.0825 33.9266 35.125C34.0007 35.1675 34.0878 35.1829 34.1724 35.1684C34.257 35.1539 34.3337 35.1105 34.3887 35.046C35.8299 33.5137 38.8032 31.9279 40.4908 34.0956C41.9032 35.9102 41.1422 39.2232 39.9907 40.9658C39.8466 41.1903 39.9187 41.597 40.2559 41.6055C44.8289 41.7128 47.3178 38.3575 48.2402 34.4938C48.5871 33.405 48.8458 32.2911 49.0141 31.1625C49.7059 35.2578 51.127 39.9377 55.6019 40.4828C57.7897 40.7511 60.2844 39.0707 61.753 37.6373C63.4824 35.954 64.2938 33.5589 64.1137 31.2006C64.3601 30.8942 64.5922 30.5779 64.8098 30.2672C64.837 30.2265 64.8478 30.1773 64.8401 30.1293C64.8324 30.0812 64.8068 30.0377 64.7682 30.0071C64.7296 29.9765 64.6808 29.961 64.6312 29.9637C64.5817 29.9663 64.5349 29.9869 64.4999 30.0214Z" fill="#B76F48"/>
<path d="M9.4284 13.0937C7.55483 15.1286 5.89311 17.8838 5.35554 20.6714C5.32815 20.685 5.3021 20.7011 5.27772 20.7194C4.98947 20.9708 4.7387 20.6785 4.65367 20.3946C4.53693 20.0091 4.67817 19.5586 4.77474 19.183C4.90589 18.6718 0.965618 18.306 0.766731 18.7763C0.63414 19.0884 0.441013 19.4753 0.383365 19.8114C0.319951 19.8439 0.873377 21.2476 0.825817 21.304C0.464073 21.7362 1.81016 21.393 1.79575 21.9706C1.77845 22.6569 3.18076 22.5877 3.76445 22.7417C4.76465 23.0057 6.12082 22.6979 6.29953 21.6444C6.92069 20.3734 7.40061 19.046 8.02898 17.7835C8.73662 16.3713 9.5336 14.9832 10.3349 13.6133C10.6491 13.0781 9.80311 12.6856 9.4284 13.0937Z" fill="#B76C4D"/>
<path d="M60.12 37.0992C56.9321 39.4533 53.6792 36.0853 52.7079 33.2369C51.6587 30.1612 51.6457 26.9302 49.9825 24.0578C49.7044 23.5777 48.9377 24.0296 49.1351 24.521C49.2792 24.8853 49.4089 25.2582 49.5199 25.6338C49.3268 25.4559 48.9852 25.4121 48.8281 25.6649C48.0311 26.9358 47.1707 28.1221 45.9313 29.023C45.1732 29.5752 44.2754 30.0384 43.3184 30.1203C42.1092 30.2234 40.534 29.53 40.6695 28.0896C40.6816 27.9762 40.6602 27.8617 40.6079 27.7599C40.5555 27.6581 40.4744 27.5731 40.3741 27.5152C40.2739 27.4573 40.1587 27.4289 40.0424 27.4333C39.9261 27.4378 39.8136 27.4749 39.7183 27.5402C36.6485 29.7574 33.6781 26.5122 32.1951 24.0479C30.6415 21.4665 29.7451 18.5263 28.7463 15.7161C28.5489 15.1668 27.6078 15.387 27.7274 15.9717C27.909 16.8712 28.1093 17.775 28.3385 18.6746C28.2567 18.6202 28.1628 18.5856 28.0647 18.5739C27.9665 18.5622 27.8669 18.5735 27.7742 18.6071C27.6814 18.6407 27.5982 18.6954 27.5314 18.7669C27.4646 18.8383 27.4162 18.9243 27.3901 19.0177H27.0774C27.0241 18.7494 26.9823 18.4811 26.9506 18.21C26.903 17.8485 26.8713 17.4884 26.8482 17.1254C26.7834 16.0762 26.8122 15.0241 26.8482 13.9735C26.8972 12.3664 26.8872 10.782 26.8151 9.17207C26.792 8.63262 25.9288 8.64392 25.8625 9.17207C25.5901 11.3045 25.3206 13.4453 24.8219 15.541C24.547 16.72 24.1931 17.88 23.7626 19.0135C23.6304 19.3805 23.4769 19.7398 23.3029 20.0896C23.0031 20.6545 21.5907 22.3646 20.9494 20.944C20.7116 20.4172 20.0184 20.5598 19.8886 21.0711C19.4837 22.6682 17.7268 21.5343 17.3824 20.6291C17.061 19.7705 17.2599 18.7932 17.4371 17.9346C17.5294 17.4743 16.7468 17.2525 16.6142 17.7157C16.5349 17.9982 16.0824 19.8891 15.1946 18.5066C15.0952 18.3526 15.2926 17.6465 15.3171 17.4587C15.4454 16.4998 15.5953 15.5438 15.7913 14.5962C16.2075 12.6621 16.7368 10.7529 17.3766 8.87833C17.4056 8.79988 17.4026 8.71353 17.3684 8.63716C17.3341 8.56079 17.2712 8.50026 17.1926 8.46812C17.114 8.43599 17.0259 8.4347 16.9464 8.46454C16.8668 8.49437 16.8021 8.55303 16.7655 8.62837C15.9181 10.1682 15.2481 11.7956 14.768 13.4806C14.7026 13.4574 14.6307 13.4582 14.5658 13.4829C14.5009 13.5076 14.4473 13.5544 14.4149 13.6148C13.3441 15.356 12.3655 17.1452 11.4648 18.981C11.1621 19.3002 10.8249 19.4202 10.6 18.7706C10.3478 18.0321 10.9013 16.3459 11.1001 15.6285C11.276 14.9936 11.4936 14.3705 11.7516 13.7631C11.838 13.636 11.9245 13.5089 12.0182 13.3832C12.0648 13.3237 12.098 13.2551 12.1154 13.182C12.1328 13.109 12.134 13.0331 12.1191 12.9595C12.2027 12.7858 12.2848 12.6121 12.3756 12.4412C12.5457 12.1193 12.0168 11.8129 11.8107 12.1179C11.7227 12.2464 11.6392 12.3791 11.5556 12.5104C11.4745 12.5101 11.3944 12.5286 11.322 12.5645C11.2496 12.6003 11.1869 12.6525 11.1391 12.7166C9.40961 14.8349 8.04479 17.7044 8.04479 20.5161C7.87154 21.5659 8.0955 22.6415 8.6746 23.5409C8.92537 23.918 9.44708 23.7937 9.65894 23.4859C9.85062 23.8121 10.4127 23.7584 10.5568 23.4068C10.9901 22.3533 11.4427 21.3106 11.9144 20.2788C12.0265 20.1613 12.1282 20.0347 12.2185 19.9004C13.0833 18.6068 13.5459 17.0633 14.1728 15.6243L14.1944 15.5819C14.0734 16.0818 13.9667 16.5902 13.8961 17.0944C12.9478 19.6928 12.1234 22.0483 12.8728 24.8444C12.9564 25.1565 13.4248 25.3358 13.7087 25.1974C14.123 25.0067 14.4966 24.7407 14.8098 24.4137C14.8147 24.4267 14.8205 24.4395 14.8271 24.4518C14.9853 24.7358 15.2241 24.9688 15.5146 25.1226C16.4816 25.6465 17.6836 25.244 18.7184 25.4431C21.0243 25.8837 22.8864 27.3807 25.3306 27.118C25.8351 27.0629 25.9749 26.5785 25.825 26.2213C27.2864 24.2089 28.0113 21.6472 28.4811 19.2578C28.9712 21.0597 29.6024 22.8236 30.4988 24.449C30.4496 24.5005 30.4183 24.566 30.4095 24.636C30.4007 24.7061 30.4148 24.777 30.4498 24.8387C31.2209 26.2509 31.93 27.6857 32.688 29.1007C33.4576 30.5369 34.7706 32.3628 34.2734 34.0574C34.1091 34.6096 34.8239 35.1406 35.2303 34.6054C36.5404 32.8768 39.1994 33.1 40.5743 34.5884C42.0645 36.2011 41.8599 38.4888 40.6147 40.1764C40.2342 40.6918 40.7588 41.4473 41.3929 41.1931C43.4928 40.3458 45.584 39.4251 46.7802 37.4381C46.845 37.3336 46.8776 37.2129 46.874 37.0907C46.8704 36.9684 46.8308 36.8497 46.76 36.749C47.3045 36.0705 47.7386 35.3136 48.047 34.5051C49.0558 31.8304 49.0645 28.8479 49.6323 26.0687C49.7303 26.4387 49.811 26.813 49.8874 27.1886C49.8813 27.2231 49.8789 27.2581 49.8802 27.2931C50.0474 30.9182 49.7102 35.9808 52.6358 38.743C54.7385 40.7285 58.2652 40.7977 60.2742 38.7021C60.3129 38.6684 60.3444 38.6275 60.3669 38.5818C60.3895 38.5362 60.4026 38.4866 60.4055 38.4359C60.4085 38.3853 60.4012 38.3346 60.3841 38.2867C60.367 38.2389 60.3404 38.1948 60.3059 38.157C60.4587 38.0245 60.6031 37.883 60.7383 37.7333C61.0943 37.3464 60.5236 36.8013 60.12 37.0992Z" fill="#B76C4D"/>
<path d="M18.0123 31.7541C17.9438 31.6683 17.8442 31.6115 17.7342 31.5958C17.6241 31.58 17.5121 31.6064 17.4214 31.6694C16.6304 32.1732 15.6891 32.4006 14.7497 32.3148C13.8104 32.2289 12.9282 31.8348 12.246 31.1963C12.1675 31.1207 12.0666 31.0713 11.9578 31.0551C11.8209 30.8193 11.4072 30.7558 11.3049 31.0735C10.8898 32.3642 10.2456 33.5603 9.69219 34.796C9.31747 35.6348 8.52192 37.2221 8.73378 38.1852C8.86926 38.7938 9.2555 38.9577 9.86369 39.0085C10.7803 39.0834 11.5557 39.0593 12.4132 39.4872C13.1453 39.8516 13.8213 40.3176 14.5188 40.7384C15.127 41.1056 15.8 41.566 16.4933 41.1056C17.2585 40.5986 17.5021 39.2697 17.7255 38.462C18.0766 37.1509 18.2796 35.806 18.3308 34.4514C18.3683 33.6196 18.4908 32.4673 18.0123 31.7541Z" fill="#F08FAB"/>
<path d="M17.7485 31.8106C17.0841 31.6144 16.0695 32.1665 15.4008 32.2343C14.4927 32.3554 13.5722 32.1243 12.8354 31.5903C12.5155 31.3672 12.2589 31.0918 11.9015 30.9393C11.804 30.9012 11.6966 30.8944 11.5949 30.9198C11.4931 30.9452 11.4022 31.0014 11.3351 31.0805C10.6419 31.8007 10.3176 33.1197 9.95443 34.032C9.4601 35.2761 9.03494 36.5386 8.65734 37.8209C8.63502 37.8928 8.63096 37.969 8.64553 38.0428C8.6601 38.1167 8.69284 38.1859 8.74093 38.2445L8.7121 38.2925C8.56798 38.5538 9.00034 38.8023 9.17185 38.5552L9.26986 38.4225C9.32636 38.4011 9.37666 38.3665 9.41636 38.3217C9.45606 38.2769 9.48394 38.2233 9.49756 38.1654C9.50074 38.153 9.5046 38.1407 9.50909 38.1287C9.67627 37.5638 10.9373 36.9735 11.4201 36.6939C12.1783 36.2544 13.0398 36.015 13.9206 35.9991C15.0943 35.9843 16.2371 36.3669 17.1561 37.0823C17.3277 37.215 17.5078 37.3647 17.7326 37.3817C18.3437 37.4226 18.1967 35.9271 18.2212 35.5458C18.276 34.6985 18.3163 33.8512 18.2961 32.9912C18.276 32.4856 18.3538 31.9886 17.7485 31.8106Z" fill="#F36291"/>
<path d="M16.62 31.8389C15.8994 32.0352 15.3013 32.2173 14.549 32.0804C13.8409 31.9503 13.1466 31.756 12.4751 31.5C12.1379 31.3729 11.9548 31.5819 12.05 31.9236C12.2114 32.4885 13.7016 32.8768 14.2017 32.9644C15.1615 33.1324 16.1617 33.0294 16.94 32.4165C17.2585 32.1651 16.9789 31.7386 16.62 31.8389Z" fill="white"/>
<path d="M56.7505 30.6117C54.4748 27.697 54.3005 21.924 49.1755 22.6541C48.6869 22.7233 48.7864 23.4096 49.2677 23.3913C53.528 23.2204 54.2875 28.2774 56.419 30.8532C56.5848 31.0537 56.9119 30.8193 56.7505 30.6117Z" fill="#DDAA75"/>
<path d="M34.9263 35.2281C36.0577 34.3314 37.7453 32.9771 39.2961 33.7834C40.8468 34.5898 41.1134 37.3972 40.8065 38.8673C40.0613 42.4133 36.3935 42.8143 33.305 42.8341C32.7025 42.8341 32.7659 43.6729 33.3309 43.7251C37.7583 44.1319 42.3486 42.3582 41.9364 37.2758C41.8023 35.632 41.1552 33.4036 39.3595 32.8288C37.4628 32.223 35.7853 33.4982 34.4305 34.635C34.0933 34.9174 34.5747 35.5105 34.9263 35.2352V35.2281Z" fill="#002033"/>
<path d="M34.8109 39.7217C36.0287 39.2048 37.2725 38.8857 38.548 38.5453C39.0063 38.4239 38.9054 37.6585 38.4139 37.7234C37.0376 37.9056 35.7189 38.3815 34.4549 38.9323C33.9995 39.1314 34.3497 39.9208 34.8109 39.7217Z" fill="#002033"/>
<path d="M36.9814 39.2203C37.1 39.3361 37.179 39.4851 37.2077 39.6467C37.2363 39.8082 37.2132 39.9745 37.1414 40.1227C37.1016 40.2051 37.0958 40.2995 37.1251 40.386C37.1544 40.4726 37.2167 40.5447 37.2989 40.5874C37.3811 40.6302 37.477 40.6402 37.5665 40.6155C37.6561 40.5907 37.7325 40.5331 37.7799 40.4546C37.9493 40.1715 38.0153 39.8403 37.9668 39.5155C37.9183 39.1907 37.7584 38.8919 37.5132 38.6682C37.1544 38.3293 36.624 38.8814 36.9814 39.2203Z" fill="#002033"/>
<path d="M4.35824 24.3784L3.75726 27.2676C3.63908 27.8325 4.53839 28.0401 4.65369 27.4696L5.23017 24.5761C5.34114 24.0211 4.47065 23.8205 4.35536 24.3784H4.35824Z" fill="#002033"/>
<path d="M34.063 30.9775C34.2229 32.939 33.7574 34.635 33.0051 36.4327C32.9751 36.4889 32.9691 36.5544 32.9884 36.6149C33.0078 36.6755 33.0508 36.726 33.1082 36.7554C33.1655 36.7848 33.2324 36.7906 33.2942 36.7717C33.3559 36.7528 33.4075 36.7106 33.4375 36.6544C34.4924 34.9683 34.7576 32.9009 34.5501 30.9634C34.5184 30.6612 34.0399 30.6696 34.0659 30.9775H34.063Z" fill="#002033"/>
<path d="M35.1179 32.1072C34.949 33.4286 34.3917 34.6733 33.5138 35.6899C33.3496 35.8848 33.6363 36.1545 33.8021 35.961C34.7367 34.892 35.2419 33.526 35.2231 32.1185C35.2231 32.0564 35.1193 32.0437 35.1107 32.1072H35.1179Z" fill="#002033"/>
<path d="M9.07962 6.68242C15.8288 0.81201 26.0859 -0.831761 34.3238 2.86955C42.311 6.45365 47.5181 13.9198 47.6377 22.5666C47.6377 22.9733 48.2704 22.9506 48.2776 22.5482C48.3413 19.1312 47.5807 15.7478 46.0578 12.6733C44.5349 9.59882 42.2927 6.92005 39.5136 4.85504C33.8583 0.63405 26.6494 -0.892515 19.6985 0.508362C15.5098 1.35462 11.6343 3.2997 8.48585 6.13589C8.09672 6.4847 8.6905 7.02134 9.07962 6.68383V6.68242Z" fill="#002033"/>
<path d="M41.5328 31.8841C44.7582 30.1372 47.6349 27.3016 48.883 23.8531C49.0271 23.452 48.3612 23.2162 48.1739 23.5932C46.5381 26.8667 44.4757 29.5088 41.1898 31.339C40.8237 31.5423 41.1624 32.0818 41.527 31.8841H41.5328Z" fill="#002033"/>
<path d="M48.9349 23.1201C49.4364 27.0008 46.7558 30.0285 44.2495 32.6904C43.944 33.0152 44.4527 33.4855 44.7611 33.1621C47.4173 30.3759 50.1469 27.1801 49.533 23.1032C49.4782 22.736 48.8859 22.7431 48.9349 23.1201Z" fill="#002033"/>
<path d="M48.1422 22.7304C49.0444 23.2769 49.386 24.1919 49.3788 25.1918C49.3788 25.5716 49.997 25.6408 50.0605 25.2581C50.2723 24.0069 49.5431 22.7798 48.4521 22.1513C48.0831 21.9409 47.7834 22.5058 48.1422 22.7247V22.7304Z" fill="#002033"/>
<path d="M47.6205 22.993C48.0947 23.6782 48.433 24.4447 48.6178 25.2525C48.7101 25.6324 49.2736 25.4544 49.203 25.083C49.0265 24.2169 48.6618 23.3981 48.1336 22.6823C47.9116 22.3759 47.4014 22.6823 47.6205 22.9874V22.993Z" fill="#002033"/>
<path d="M48.491 22.7375C50.9411 21.9198 53.2124 23.565 54.4763 25.5124C55.6293 27.2889 56.128 29.4043 57.2953 31.1611C59.4572 34.4091 63.0025 31.9476 64.8905 29.8506L64.2232 29.602C64.3674 32.7582 63.2144 35.7605 60.8162 37.9338C59.4961 39.1285 57.7421 40.2216 55.883 40.1778C54.0238 40.134 52.4731 38.7331 51.6746 37.167C50.8099 35.4795 50.6759 33.3259 50.4165 31.4915C50.1527 29.626 49.8818 27.7464 49.7506 25.8682C49.7232 25.4785 49.1194 25.494 49.1309 25.8866C49.2044 28.3989 49.52 30.9168 49.9077 33.3994C50.2954 35.882 50.7263 38.2643 52.8824 39.8841C55.5947 41.919 58.9426 40.6594 61.2068 38.5835C63.6842 36.3127 65.0808 32.9009 64.9957 29.5865C64.9913 29.5127 64.9652 29.4417 64.9205 29.3821C64.8758 29.3226 64.8145 29.2769 64.7439 29.2508C64.6733 29.2247 64.5965 29.2191 64.5228 29.2348C64.4491 29.2506 64.3816 29.2869 64.3284 29.3394C62.9507 30.8137 60.3334 33.3118 58.3028 31.2641C56.9033 29.852 56.4032 27.4513 55.4203 25.7567C54.018 23.332 51.3287 21.1502 48.3469 22.2686C48.0586 22.3788 48.1826 22.8335 48.491 22.7346V22.7375Z" fill="#002033"/>
<path d="M48.8311 26.8257C49.2966 32.7639 47.4504 40.2696 40.4418 41.4403C40.0296 41.5095 40.1406 42.2057 40.5586 42.1534C43.5851 41.7806 46.0625 39.9631 47.6205 37.4367C49.5848 34.2579 49.7491 30.4055 49.3341 26.8101C49.298 26.498 48.8037 26.5037 48.8282 26.8257H48.8311Z" fill="#002033"/>
<path d="M1.69779 33.4022C-2.39669 39.4548 6.59791 43.3764 11.1968 44.8818C15.1962 46.1937 19.5688 46.7176 23.7757 46.5029C25.6741 46.4294 27.5588 46.1538 29.3964 45.681C30.7872 45.3054 32.5671 44.7786 33.5629 43.6856C33.6115 43.6316 33.639 43.5624 33.6405 43.4904C33.642 43.4184 33.6175 43.3481 33.5712 43.2921C33.525 43.2362 33.46 43.198 33.3878 43.1845C33.3155 43.1709 33.2408 43.1829 33.1767 43.2182C31.8349 43.8593 30.643 44.5598 29.1773 44.9552C27.5441 45.3795 25.8707 45.6384 24.1835 45.7277C20.3672 45.9691 16.4515 45.657 12.7677 44.6304C8.38933 43.4117 -1.31866 39.5833 2.24689 33.686C2.45298 33.3471 1.91685 33.0816 1.69923 33.4036L1.69779 33.4022Z" fill="#002033"/>
<path d="M11.4633 31.4633C11.5109 31.0142 13.1423 32.1623 13.4407 32.2781C14.2478 32.5944 15.1367 32.6507 15.9786 32.4391C16.4759 32.2978 16.8794 31.8883 17.4054 32.0733C18.0352 32.295 17.956 33.6055 17.9819 34.2636C18.0391 35.7891 17.8395 37.3135 17.391 38.7755C17.1316 39.6228 16.8001 40.9601 15.6385 41.0194C14.9525 41.0547 14.0085 39.9984 13.4767 39.6073C12.7431 39.0749 11.8842 38.5806 10.9416 38.5693C10.3089 38.5608 9.3116 38.952 8.84753 38.3109C8.58235 37.9451 9.40672 36.3338 9.5494 35.961C10.1172 34.474 10.7586 33.0194 11.4561 31.5833C11.6464 31.1921 11.0382 30.8772 10.8436 31.2669C9.87079 33.2369 8.6818 35.423 8.20476 37.5779C7.93237 38.7995 8.38347 39.5098 9.64597 39.531C10.3752 39.5437 10.3118 39.1525 11.3552 39.3276C12.2113 39.4689 12.9161 40.0704 13.5862 40.5548C14.1526 40.9643 14.768 41.5123 15.4857 41.645C16.9558 41.9176 17.4919 40.5153 17.8969 39.3855C18.6001 37.4217 18.8497 35.3294 18.6276 33.2595C18.5209 32.271 18.5094 31.0198 17.1993 31.1935C16.0392 31.3474 15.3935 32.0676 14.0964 31.7584C13.2937 31.5663 12.8815 31.0523 12.1666 30.7345C11.4518 30.4168 10.9258 30.5665 10.8883 31.4039C10.8739 31.7202 11.4244 31.7796 11.4648 31.459L11.4633 31.4633Z" fill="#002033"/>
<path d="M16.8031 8.36997C14.2332 13.5207 12.6477 19.0889 12.1249 24.7992C12.0874 25.2228 12.834 25.2963 12.8801 24.8726C13.4587 19.2693 15.0075 13.8037 17.4603 8.71029C17.6649 8.28664 17.0135 7.94632 16.8031 8.36997Z" fill="#002033"/>
<path d="M25.7832 9.63386C25.9461 12.5994 25.9864 15.5918 25.6478 18.5546C25.3235 21.3987 24.4544 24.0945 23.9615 26.8977C23.9212 27.1236 24.2498 27.2733 24.3636 27.0389C26.8814 21.8139 26.7546 15.2331 26.3612 9.61127C26.3352 9.24835 25.7631 9.26245 25.7847 9.6282L25.7832 9.63386Z" fill="#002033"/>
<path d="M27.5242 16.4292C27.8124 19.9964 27.3512 23.5325 25.8524 26.8158C25.7083 27.1392 26.1983 27.4019 26.3539 27.0756C27.9652 23.7217 28.3932 20.0826 28.0617 16.4137C28.0315 16.0776 27.4968 16.0903 27.5242 16.4292Z" fill="#002033"/>
<path d="M27.6857 18.5644C28.7104 23.3757 30.9356 27.9625 34.3037 31.6271C34.651 32.0041 35.1684 31.4364 34.8499 31.0622C31.6605 27.3411 29.405 23.1399 28.34 18.3766C28.2449 17.953 27.5963 18.1479 27.6857 18.5659V18.5644Z" fill="#002033"/>
<path d="M28.879 25.4008C29.8878 27.9978 31.7614 30.1443 34.2994 31.4124C34.364 31.4402 34.437 31.4429 34.5036 31.4202C34.5703 31.3974 34.6257 31.3508 34.6587 31.2896C34.6917 31.2285 34.6999 31.1574 34.6816 31.0906C34.6634 31.0238 34.62 30.9662 34.5602 30.9295C32.1995 29.6585 30.3807 27.721 29.3949 25.2525C29.2695 24.9404 28.755 25.0845 28.879 25.3937V25.4008Z" fill="#002033"/>
<path d="M14.6528 25.2864C15.0217 24.3365 15.3917 23.3861 15.7625 22.4352L15.186 22.2262C15.0419 23.1159 14.2968 24.8967 15.4166 25.4206C16.1372 25.7595 17.2772 25.614 18.0886 25.7807C19.1825 26.0038 20.2245 26.4175 21.3141 26.635C21.3699 26.6468 21.4282 26.6385 21.4783 26.6116C21.5284 26.5847 21.567 26.541 21.5869 26.4886C21.6068 26.4361 21.6068 26.3784 21.5869 26.3259C21.567 26.2735 21.5285 26.2298 21.4784 26.2029C20.4695 25.5519 19.194 25.2412 18.0195 25.0393C17.5467 24.9588 16.9573 24.9997 16.5033 24.8529C15.3013 24.4617 15.6688 23.3249 15.7827 22.3618C15.8018 22.2837 15.7885 22.2014 15.7456 22.1329C15.7028 22.0645 15.634 22.0155 15.5543 21.9967C15.4746 21.978 15.3906 21.9911 15.3207 22.033C15.2508 22.075 15.2008 22.1425 15.1817 22.2206L14.1556 25.1014C14.059 25.374 14.5389 25.5547 14.6456 25.2808L14.6528 25.2864Z" fill="#002033"/>
<path d="M22.2119 23.4661C21.8801 24.4197 21.6951 25.4163 21.6628 26.4232C21.6628 26.7621 22.1629 26.7311 22.1903 26.4077C22.262 25.4489 22.4586 24.5031 22.7754 23.5932C22.8965 23.2515 22.3301 23.1216 22.2119 23.4661Z" fill="#002033"/>
<path d="M23.3043 23.7118C23.2527 24.5013 23.0802 25.2787 22.7927 26.0179C22.7451 26.1422 22.9253 26.2452 22.9844 26.1181C23.3324 25.3602 23.5084 24.5372 23.5003 23.7061C23.5003 23.5804 23.3115 23.5903 23.3043 23.7061V23.7118Z" fill="#002033"/>
<path d="M14.3862 14.2277C13.5791 15.87 12.8441 17.5392 12.161 19.2338C11.547 20.7561 10.8062 22.3674 10.5353 23.9872C10.4863 24.2781 10.9287 24.4857 11.0642 24.1793C11.7012 22.7332 12.0399 21.1501 12.576 19.6603C13.2159 17.8795 13.9697 16.1426 14.7782 14.4353C14.8978 14.1839 14.5101 13.9777 14.3862 14.2319V14.2277Z" fill="#002033"/>
<path d="M12.0889 12.1983C9.81469 15.3305 8.04055 19.6744 8.74242 23.5819C8.75364 23.6168 8.77621 23.6472 8.80669 23.6685C8.83717 23.6897 8.87389 23.7005 8.91126 23.6994C8.94863 23.6983 8.9846 23.6853 9.0137 23.6623C9.0428 23.6393 9.06343 23.6076 9.07245 23.572C9.29584 21.674 9.37223 19.8001 9.90836 17.9487C10.4882 15.9862 11.4039 14.1345 12.6164 12.4723C12.8369 12.1645 12.3065 11.8947 12.086 12.1983H12.0889Z" fill="#002033"/>
<path d="M9.97898 12.9807C8.05929 15.6977 6.9092 19.1265 7.40786 22.4493C7.40861 22.4732 7.41418 22.4968 7.42422 22.5186C7.43426 22.5404 7.44859 22.5601 7.46639 22.5765C7.48419 22.5929 7.50511 22.6057 7.52796 22.6141C7.5508 22.6226 7.57513 22.6266 7.59954 22.6258C7.62396 22.6251 7.64798 22.6197 7.67025 22.6098C7.69251 22.6 7.71259 22.586 7.72932 22.5685C7.74604 22.5511 7.7591 22.5306 7.76775 22.5082C7.77639 22.4858 7.78045 22.4619 7.77969 22.438C7.8114 19.0785 8.45994 16.0211 10.4085 13.2024C10.5843 12.9496 10.1548 12.7321 9.97609 12.9807H9.97898Z" fill="#002033"/>
<path d="M7.72492 17.3627C6.7692 19.1092 6.06773 20.9783 5.64093 22.9154L6.07329 22.7191C5.3426 22.4451 4.65659 22.2771 3.87113 22.3576C3.59586 22.3858 3.50362 22.8292 3.82068 22.8673C4.51465 22.9278 5.19961 23.0637 5.86288 23.2727C5.9414 23.29 6.02374 23.2763 6.09201 23.2346C6.16029 23.1928 6.20898 23.1263 6.2275 23.0495C6.62957 21.1581 7.30051 19.3313 8.2207 17.6225C8.39076 17.3062 7.89067 17.0464 7.71772 17.3627H7.72492Z" fill="#002033"/>
<path d="M42.0704 7.41816C44.4585 9.11277 46.8134 11.152 47.9159 13.9142C49.239 17.2285 48.1609 20.5302 47.6277 23.8658C47.6234 23.8843 47.6229 23.9035 47.6262 23.9222C47.6296 23.9409 47.6366 23.9589 47.647 23.9749C47.6573 23.991 47.6708 24.0049 47.6867 24.0158C47.7025 24.0268 47.7204 24.0346 47.7394 24.0387C47.7583 24.0429 47.7779 24.0434 47.797 24.0401C47.8161 24.0369 47.8344 24.03 47.8508 24.0198C47.8672 24.0097 47.8814 23.9965 47.8925 23.9809C47.9037 23.9654 47.9117 23.9478 47.9159 23.9293C49.079 20.7011 49.7376 16.8204 48.3368 13.5668C47.1492 10.8102 44.7553 8.78374 42.2837 7.13573C42.1179 7.02417 41.9104 7.30378 42.0761 7.41816H42.0704Z" fill="#002033"/>
<path d="M48.844 22.616C50.9006 20.2873 54.2024 21.4594 55.7878 23.661C56.9725 25.3048 57.3111 27.3185 58.0245 29.1685C58.3906 30.1161 59.0247 31.8276 60.1345 32.1722C61.3883 32.5605 62.5845 30.9351 63.1192 30.0836C63.197 29.9593 63.001 29.8675 62.9189 29.9805C62.586 30.4352 61.949 31.2881 61.3653 31.5226C59.9601 32.0874 59.3922 31.0354 58.9368 30.2036C58.4483 29.3097 58.147 28.3353 57.8372 27.3722C57.3515 25.8555 56.8528 24.3275 55.8094 23.0763C54.0165 20.9214 50.634 20.0487 48.5889 22.383C48.4448 22.551 48.6956 22.7869 48.844 22.6188V22.616Z" fill="#002033"/>
<path d="M49.1452 27.7266C49.8658 31.3602 48.6567 35.4583 50.513 38.856C51.6919 41.0152 54.3408 42.4627 56.7217 41.2567C56.8658 41.1833 56.7577 40.939 56.6064 40.9997C53.087 42.3978 50.5706 39.0693 50.0388 36.0571C49.5459 33.2694 50.0229 30.4211 49.4335 27.6377C49.3931 27.4513 49.1092 27.5374 49.1452 27.721V27.7266Z" fill="#002033"/>
<path d="M16.8996 11.7648C14.99 15.7585 13.5128 20.341 13.5373 24.7907C13.5373 24.8642 13.6598 24.8797 13.6699 24.8048C14.2579 20.2477 15.0275 16.031 16.9919 11.8128C17.0192 11.7535 16.9284 11.7055 16.8996 11.7648Z" fill="#002033"/>
<path d="M19.8223 31.8968C21.7262 31.2952 23.6271 31.8431 24.9876 33.2539C25.6304 33.9218 26.596 32.8938 25.9792 32.223C24.3434 30.4437 21.7406 29.8661 19.4534 30.6696C18.6651 30.952 19.021 32.1538 19.8223 31.8996V31.8968Z" fill="#002033"/>
<path d="M5.39153 28.5499C7.32419 28.4878 8.6919 29.4283 10.3306 30.2445C10.8263 30.4917 11.4619 29.9169 11.1146 29.4297C9.84631 27.656 7.42796 27.238 5.34973 27.3877C4.59166 27.4414 4.61904 28.5725 5.38432 28.5471L5.39153 28.5499Z" fill="#002033"/>
<path d="M7.12248 27.44C8.20134 27.6702 9.16309 28.2651 9.83916 29.1205C9.87834 29.1779 9.92932 29.2267 9.98883 29.2638C10.0483 29.3008 10.1151 29.3254 10.1848 29.3357C10.2545 29.3461 10.3257 29.3421 10.3937 29.324C10.4618 29.3059 10.5252 29.2741 10.5801 29.2307C10.6349 29.1872 10.6798 29.133 10.7121 29.0716C10.7443 29.0102 10.7632 28.9428 10.7674 28.8738C10.7715 28.8048 10.761 28.7358 10.7364 28.671C10.7119 28.6063 10.6738 28.5472 10.6246 28.4977C9.78104 27.5151 8.59717 26.872 7.29975 26.6915C6.80686 26.6181 6.62238 27.3298 7.12248 27.44Z" fill="#002033"/>
<path d="M24.2051 29.7997C22.7139 29.5388 21.1771 29.7295 19.7993 30.3462C19.2228 30.606 19.6552 31.5762 20.2519 31.3503C21.4466 30.897 22.6774 30.695 23.9514 30.8786C24.662 30.9803 24.9271 29.9169 24.2051 29.7997Z" fill="#002033"/>
<path d="M19.1652 26.1309C20.1395 27.4626 22.0145 28.6728 23.7613 28.2859C24.2715 28.1715 24.2369 27.3863 23.731 27.2974C23.0479 27.1731 22.3864 27.1787 21.7335 26.8991C21.071 26.6148 20.4947 26.1678 20.0602 25.6013C19.6596 25.0831 18.7704 25.5929 19.1652 26.1337V26.1309Z" fill="#002033"/>
<path d="M12.38 23.6935C10.8435 24.059 9.25216 24.1485 7.6831 23.9575C6.75929 23.8516 6.4033 25.2285 7.35306 25.3697C9.16591 25.6208 11.0123 25.4972 12.7735 25.0068C13.6382 24.7724 13.2462 23.4901 12.38 23.6991V23.6935Z" fill="#002033"/>
<path d="M12.4419 45.0116C13.5718 46.798 16.4672 47.7738 18.2168 46.236C18.2434 46.2073 18.2598 46.171 18.2635 46.1324C18.2672 46.0938 18.2581 46.0551 18.2375 46.022C18.2169 45.9889 18.1859 45.9633 18.1492 45.9489C18.1125 45.9346 18.072 45.9322 18.0338 45.9423C16.1602 46.671 14.0445 46.5862 12.8354 44.7772C12.6739 44.5343 12.2848 44.7631 12.4419 45.0116Z" fill="#002033"/>
<path d="M1.53486 34.6195C1.45555 34.6195 1.37849 34.5936 1.3158 34.546C1.24066 34.489 1.19153 34.4053 1.17912 34.313C1.1667 34.2207 1.192 34.1273 1.24951 34.0532C1.27977 34.0164 4.19822 30.1824 3.4704 22.7996C3.46157 22.7069 3.4906 22.6146 3.55111 22.5428C3.61163 22.4711 3.6987 22.4258 3.79324 22.4169C3.84011 22.4124 3.88741 22.417 3.93244 22.4305C3.97747 22.444 4.01932 22.4661 4.05561 22.4955C4.09191 22.5249 4.12191 22.561 4.14391 22.6018C4.16591 22.6426 4.17947 22.6872 4.18381 22.7332C4.94044 30.4126 1.94705 34.3201 1.81878 34.4825C1.78537 34.5251 1.74237 34.5597 1.69314 34.5834C1.6439 34.6072 1.58974 34.6195 1.53486 34.6195Z" fill="#002033"/>
<path d="M5.64233 23.0071C5.00531 23.0071 1.81304 22.9337 0.540452 21.5187C0.324517 21.283 0.166214 21.0021 0.0775655 20.6975C-0.0110832 20.3929 -0.0277558 20.0724 0.0288156 19.7606C0.0306404 19.7452 0.0340209 19.7301 0.0389051 19.7154C1.18663 15.7216 3.17984 12.0094 5.88878 8.82045C7.90647 6.47341 9.55089 5.34792 9.62007 5.30132C9.69828 5.24844 9.79469 5.2281 9.88817 5.24478C9.98165 5.26146 10.0646 5.31378 10.1187 5.39027C10.1456 5.42824 10.1645 5.47102 10.1744 5.51618C10.1843 5.56134 10.1849 5.60798 10.1764 5.6534C10.1678 5.69881 10.1501 5.74209 10.1244 5.78079C10.0987 5.81949 10.0654 5.85283 10.0265 5.87888C9.95155 5.93113 3.49349 10.4077 0.735012 19.8891C0.698163 20.0965 0.709897 20.3094 0.769318 20.5117C0.828739 20.714 0.934294 20.9004 1.07802 21.0569C1.5493 21.5823 2.49184 21.965 3.80479 22.1655C4.44388 22.2611 5.08953 22.3083 5.73601 22.3067C5.78307 22.3058 5.82985 22.314 5.87368 22.3308C5.9175 22.3476 5.9575 22.3728 5.99138 22.4048C6.02526 22.4368 6.05235 22.4751 6.0711 22.5174C6.08985 22.5597 6.09988 22.6052 6.10063 22.6513C6.10178 22.6974 6.09362 22.7433 6.07663 22.7863C6.05963 22.8293 6.03413 22.8686 6.00158 22.9019C5.96904 22.9353 5.9301 22.962 5.887 22.9805C5.8439 22.999 5.79748 23.0091 5.75042 23.01L5.64233 23.0071Z" fill="#002033"/>
<path d="M42.1496 26.7071C42.0485 26.5679 41.9198 26.4503 41.7712 26.361C41.6227 26.2717 41.4573 26.2126 41.2849 26.1874C40.5801 26.0716 39.652 26.4246 38.7368 27.1561C38.4793 27.3607 38.2384 27.5845 38.0162 27.8255C37.9932 27.7125 37.9687 27.601 37.9427 27.4894C38.9588 27.0912 40.7228 26.0772 40.9548 23.7627C41.099 22.3293 40.3049 22.0412 39.9561 21.9833C39.4992 21.9085 38.9861 22.0822 38.4313 22.5016C37.8141 22.9866 37.295 23.5806 36.9007 24.2527C36.7941 23.9999 36.6802 23.7486 36.5635 23.5014C37.4585 22.9238 38.9429 21.6148 38.7613 19.3736C38.6633 18.1549 38.0321 17.8711 37.6646 17.8118C37.2322 17.7397 36.7854 17.9022 36.3343 18.2933C35.7391 18.8074 35.1814 19.6744 34.8499 20.5881C34.638 20.2887 34.4175 19.9936 34.1855 19.7055C34.677 18.974 34.965 18.1293 35.0208 17.2552C35.0767 16.3811 34.8985 15.5078 34.504 14.7219C34.1667 14.0257 33.7704 13.6487 33.2934 13.5696C33.0854 13.5388 32.8727 13.5656 32.6794 13.647C32.4861 13.7283 32.3199 13.8609 32.1995 14.03C31.7455 14.5948 31.4976 15.7359 31.5337 16.9447L31.5034 16.9179C31.4574 16.1245 31.2737 15.3446 30.9601 14.6118C30.372 13.2801 29.3863 12.3862 28.0301 11.9527C27.8345 11.8914 27.6346 11.8442 27.432 11.8114C27.0121 11.719 26.5726 11.7688 26.1853 11.9527C26.0029 12.052 25.8463 12.1915 25.7281 12.36C25.6098 12.5286 25.533 12.7217 25.5036 12.9242C25.4503 13.2349 25.3855 14.3844 26.8007 16.0833C27.3525 16.7615 28.029 17.3325 28.7954 17.7666C28.5997 17.7758 28.4048 17.7965 28.2117 17.8287C27.4421 17.9615 26.9218 18.2764 26.707 18.7396C26.5485 19.0813 26.4318 19.7719 27.4277 20.5754C28.0341 21.0736 28.7647 21.405 29.5448 21.5357C29.8813 21.5906 30.223 21.6091 30.5637 21.5907C30.528 21.6354 30.4957 21.6826 30.4672 21.732C30.3101 22.0073 30.1472 22.5793 30.826 23.3447C31.3217 23.9165 31.995 24.3134 32.7428 24.4744C32.3704 24.542 32.0401 24.7505 31.8233 25.0548C31.6504 25.3175 31.4414 25.8795 31.992 26.6845C32.2173 27.0199 32.5041 27.3115 32.8379 27.5445C32.7435 27.6089 32.6582 27.6854 32.5843 27.7718C32.3479 28.0543 32.1303 28.5542 32.4402 29.3803C32.9114 30.6513 33.9765 31.4647 35.52 31.7189C35.8279 31.7688 36.1391 31.7962 36.4511 31.8008C36.4395 32.3656 36.3963 32.6947 36.3949 32.7088C36.3788 32.8153 36.3882 32.9241 36.4222 33.0265C36.4562 33.1289 36.5139 33.2222 36.5909 33.2991C36.6978 33.4072 36.8372 33.4789 36.9886 33.5039C37.0541 33.513 37.1206 33.513 37.1861 33.5039C37.2115 33.5016 37.2371 33.5016 37.2625 33.5039C37.2934 33.5088 37.3237 33.5163 37.3533 33.5265C37.4 33.5428 37.4483 33.5546 37.4974 33.5618C37.5369 33.5686 37.5769 33.5719 37.617 33.5717C37.7451 33.572 37.871 33.5388 37.9816 33.4756C38.0757 33.4214 38.156 33.347 38.2164 33.2579C38.2768 33.1689 38.3158 33.0675 38.3304 32.9616C38.3893 32.4742 38.4167 31.9837 38.4125 31.4929C39.1281 31.3754 39.8172 31.1365 40.449 30.7868C41.5227 30.1697 42.1712 29.2702 42.3773 28.1136C42.4782 27.5318 42.4018 27.0573 42.1496 26.7071ZM37.2625 26.3921C37.3706 25.2624 38.2713 23.9547 39.0942 23.3405C39.407 23.106 39.6347 23.0241 39.7514 23.0241H39.7831C39.8624 23.0368 39.9273 23.2628 39.8855 23.6554C39.6765 25.7482 37.7986 26.4614 37.0924 26.6562C37.1396 26.6282 37.1795 26.5897 37.2088 26.5438C37.238 26.498 37.2559 26.446 37.261 26.3921H37.2625ZM36.7566 26.6746C36.8109 26.6984 36.8702 26.709 36.9295 26.7056C36.8696 26.7362 36.8196 26.7827 36.7854 26.8398V26.8469C36.7461 26.8274 36.7037 26.8145 36.66 26.8087C36.7019 26.7738 36.735 26.7298 36.7566 26.6802V26.6746ZM26.7114 13.8845C26.511 13.3578 26.5442 13.0372 26.6422 12.9285C26.6898 12.8873 26.7457 12.8564 26.8063 12.8377C26.8668 12.8189 26.9307 12.8128 26.9938 12.8197C27.0827 12.8207 27.1713 12.8282 27.259 12.8423C27.4091 12.8689 27.557 12.9062 27.7015 12.9539C28.5042 13.2095 30.372 14.1373 30.4398 17.2187L30.3418 17.2046C28.8544 16.9659 27.2345 15.2642 26.7114 13.8902V13.8845ZM29.7379 20.4808C29.1432 20.3796 28.5864 20.1262 28.1237 19.7465C27.7793 19.464 27.664 19.255 27.7029 19.1717C27.7894 18.9853 28.3385 18.8102 29.1268 18.8102C29.4524 18.8116 29.7772 18.839 30.0982 18.8921C30.8013 18.9948 31.4736 19.2443 32.0698 19.6236C32.1425 19.6728 32.2311 19.6941 32.3188 19.6834C32.4065 19.6727 32.4872 19.6308 32.5454 19.5657C32.5876 19.5185 32.616 19.4608 32.6275 19.399C32.7185 19.4178 32.8133 19.4006 32.8913 19.3511C32.9642 19.3076 33.0188 19.2399 33.0452 19.1604C33.0716 19.0809 33.0682 18.9947 33.0354 18.9175C32.4834 17.6466 32.5367 15.7853 32.9302 14.9098C32.9707 14.7931 33.0423 14.6892 33.1377 14.609C33.1694 14.6231 33.3236 14.7106 33.5456 15.1738C34.5991 17.3486 33.4087 19.0389 33.0195 19.5064C32.9624 19.5739 32.9335 19.6602 32.9388 19.7479C32.8747 19.7494 32.8123 19.7685 32.7587 19.8029C32.505 19.9597 31.1863 20.7265 29.7336 20.4865L29.7379 20.4808ZM32.861 21.1332L32.7443 21.112L32.5756 21.088L32.7601 21.0033L32.861 21.1332ZM31.6533 22.64C31.4342 22.3929 31.4155 22.2615 31.4212 22.2404C31.427 22.2192 31.6259 22.1076 32.0193 22.1076C32.2025 22.1088 32.3852 22.1249 32.5656 22.1556C33.3597 22.2869 34.1408 22.6442 34.6034 23.0905C34.6649 23.1498 34.7462 23.1853 34.8322 23.1905C34.9183 23.1957 35.0034 23.1702 35.0718 23.1187C35.1152 23.0875 35.1508 23.047 35.1758 23.0002C35.2008 22.9535 35.2145 22.9018 35.2159 22.849C35.2582 22.8511 35.3004 22.8468 35.3413 22.8363C35.4187 22.8145 35.4864 22.7678 35.5334 22.7038C35.5805 22.6398 35.6042 22.5621 35.6007 22.4832C35.5503 21.266 36.33 19.714 37.0607 19.0813C37.2942 18.8794 37.4455 18.8398 37.4931 18.8483C37.5406 18.8568 37.6574 19.015 37.6919 19.4513C37.7482 20.1447 37.6444 21.8661 35.471 22.8942C35.3847 22.936 35.3189 23.0096 35.288 23.099C35.2794 23.1217 35.2736 23.1455 35.2707 23.1696C35.2048 23.1593 35.1374 23.1677 35.0762 23.1936C34.4604 23.4525 33.7848 23.5442 33.1204 23.4591C32.547 23.3674 32.0255 23.0791 31.649 22.6456L31.6533 22.64ZM34.9926 24.706C34.7634 24.6236 34.5289 24.5562 34.2907 24.5041C34.4787 24.476 34.6649 24.4373 34.8484 24.3883C34.8931 24.4956 34.9407 24.6058 34.9882 24.7117L34.9926 24.706ZM32.9014 26.0871C32.727 25.8315 32.7082 25.6762 32.7443 25.6211C32.7947 25.5448 32.9994 25.4573 33.3683 25.4573C33.5384 25.4591 33.708 25.4742 33.8756 25.5025C34.6582 25.6324 35.6613 26.0674 36.1412 26.7297C36.1917 26.8007 36.2671 26.851 36.3531 26.8709C35.7385 27.0711 35.0856 27.1324 34.4435 27.0502C34.1313 27.0069 33.832 26.8991 33.5654 26.734C33.2989 26.569 33.071 26.3504 32.897 26.0928L32.9014 26.0871ZM36.085 28.0514L36.0634 28.0373H36.0807L36.085 28.0514ZM41.3137 27.93C40.9246 30.1274 38.4154 30.4719 37.6559 30.5256C37.5883 30.5299 37.5234 30.5531 37.4687 30.5924C37.4141 30.6317 37.372 30.6854 37.3475 30.7473C37.2954 30.7193 37.2369 30.7047 37.1774 30.7049H37.1414C36.6637 30.7533 36.1816 30.74 35.7074 30.6654C34.5544 30.4747 33.7992 29.9183 33.4649 29.0103C33.3654 28.742 33.351 28.5288 33.426 28.4454C33.5009 28.3621 33.7012 28.3042 34.0846 28.3664C34.9868 28.516 36.2824 29.2744 36.8027 30.2403C36.8413 30.312 36.904 30.3683 36.9802 30.3997C37.0564 30.4312 37.1414 30.4357 37.2207 30.4126C37.2745 30.3978 37.3239 30.3706 37.3647 30.3332C37.4056 30.2959 37.4367 30.2495 37.4556 30.1979C37.4946 30.2162 37.5365 30.2277 37.5795 30.2319C37.6628 30.2393 37.7462 30.2179 37.8151 30.1715C37.8841 30.1251 37.9343 30.0565 37.9571 29.9777C38.3996 28.4624 40.3236 27.1011 41.1091 27.2296C41.141 27.2318 41.1722 27.2407 41.2003 27.2559C41.2284 27.271 41.2528 27.2919 41.2719 27.3171C41.3051 27.3694 41.3814 27.5304 41.3094 27.9357L41.3137 27.93Z" fill="#002033"/>
<path d="M37.0823 32.9799C37.0991 32.9821 37.116 32.9821 37.1328 32.9799C37.2073 32.973 37.2825 32.9763 37.3562 32.9898C37.4212 33.0008 37.4853 33.0169 37.5478 33.0378L37.5839 33.0477C37.6257 33.0546 37.6686 33.0466 37.7049 33.0251C37.7288 33.0119 37.7492 32.9934 37.7644 32.9711C37.7797 32.9488 37.7894 32.9233 37.7929 32.8966C37.8636 32.2812 37.8872 31.6614 37.8635 31.0424C38.7412 30.9507 41.4074 30.4776 41.8426 28.0246C41.9205 27.584 41.8758 27.2423 41.7086 27.0121C41.6482 26.93 41.5715 26.8608 41.4831 26.8086C41.3947 26.7565 41.2963 26.7224 41.1941 26.7085C40.217 26.5475 38.4745 27.7267 37.7064 29.1713C37.6242 28.5726 37.5118 27.9724 37.3691 27.3792L37.3129 27.1462C38.1647 26.8963 40.1867 26.0589 40.4231 23.709C40.5196 22.7558 40.119 22.5439 39.8725 22.5044C39.4964 22.4423 39.0626 22.6951 38.7657 22.9196C37.8781 23.6319 37.2186 24.5795 36.8662 25.6493C36.5875 24.8433 36.2543 24.0564 35.8688 23.2938C36.6413 22.8899 38.4155 21.7037 38.2295 19.4146C38.1632 18.5969 37.8404 18.3738 37.581 18.3315C37.3216 18.2891 37.0218 18.4091 36.6975 18.6887C35.9769 19.3101 35.2376 20.6262 35.0819 21.893C34.6108 21.1368 34.0869 20.4134 33.5139 19.7281C34.0198 19.0742 35.1338 17.2511 34.0183 14.9493C33.7618 14.4197 33.4966 14.1387 33.2055 14.0907C33.0614 14.0667 32.838 14.0907 32.629 14.3576C32.1001 15.0142 31.8954 16.8458 32.2701 18.3611C31.8608 17.9502 31.4285 17.5505 30.9731 17.1678C30.9413 16.1793 30.6055 13.3323 27.8615 12.4554C27.6914 12.4003 27.5176 12.3574 27.3412 12.3269C26.2978 12.1546 26.0801 12.7505 26.034 13.0118C25.8063 14.3392 27.9984 17.3613 30.2467 17.7327L30.326 17.744C30.6911 18.0518 31.0413 18.3681 31.3766 18.6929C30.9886 18.5486 30.587 18.4427 30.1775 18.3766C28.9265 18.1704 27.5026 18.3046 27.2 18.9585C27.0847 19.2056 27.0904 19.6151 27.7765 20.1602C28.3114 20.599 28.9553 20.8913 29.6428 21.0075C31.0956 21.2462 32.3811 20.6319 32.8985 20.3311C33.3858 20.9226 33.8359 21.5428 34.246 22.1881C33.7502 21.9158 33.2099 21.73 32.6492 21.6388C31.7845 21.4975 31.1503 21.626 30.9457 21.9847C30.79 22.2573 30.8895 22.5962 31.2339 22.9916C31.6903 23.5193 32.3241 23.8699 33.021 23.9802C33.7297 24.0798 34.4526 23.9981 35.1194 23.7429C35.4629 24.4296 35.7614 25.1372 36.013 25.8612C35.4078 25.4115 34.7008 25.1117 33.952 24.987C33.1377 24.8529 32.5108 24.987 32.2773 25.3387C32.1534 25.5279 32.0813 25.8626 32.4402 26.3879C32.6533 26.7066 32.9328 26.9775 33.2605 27.1827C33.5882 27.3879 33.9565 27.5228 34.3412 27.5784C35.0561 27.6748 35.784 27.6106 36.4698 27.3905C36.4842 27.4442 36.4972 27.4993 36.5102 27.5529C36.6571 28.1618 36.7707 28.7779 36.8503 29.3987C36.1383 28.5782 35.0171 27.9865 34.161 27.8453C33.6206 27.7563 33.2199 27.8453 32.9979 28.1065C32.776 28.3678 32.7688 28.7222 32.9432 29.1967C33.3453 30.2813 34.2648 30.9718 35.6051 31.1921C36.0619 31.2643 36.5256 31.2852 36.9872 31.2543C37.0021 31.763 36.9814 32.2721 36.9252 32.778C36.9211 32.8047 36.9233 32.8321 36.9318 32.8578C36.9403 32.8836 36.9549 32.907 36.9742 32.9263C37.003 32.9557 37.0411 32.9746 37.0823 32.9799Z" fill="#17FFDD"/>
</g>
<defs>
<clipPath id="clip0_718_96">
<rect width="65" height="47" fill="white"/>
</clipPath>
</defs>
</svg>
