<svg width="36" height="35" viewBox="0 0 36 35" fill="none" xmlns="http://www.w3.org/2000/svg">
<circle cx="18" cy="17.2574" r="17.2574" fill="#8755CD"/>
<g clip-path="url(#clip0_52_1334)">
<path d="M29.7135 12.2159C29.6285 11.9545 29.4025 11.7639 29.1304 11.7244L26.5326 11.3469L25.3708 8.99283C25.2491 8.7463 24.998 8.59024 24.7231 8.59024C24.4482 8.59024 24.1971 8.74635 24.0754 8.99283L22.9136 11.3469L20.3158 11.7244C20.0437 11.7639 19.8177 11.9545 19.7328 12.2159C19.6478 12.4774 19.7186 12.7644 19.9155 12.9563L21.7954 14.7887L21.3515 17.3761C21.3051 17.647 21.4165 17.9209 21.6389 18.0825C21.8613 18.244 22.1562 18.2654 22.3996 18.1375L24.7232 16.9159L27.0467 18.1375C27.1524 18.193 27.2678 18.2204 27.3828 18.2204C27.5325 18.2204 27.6816 18.1739 27.8074 18.0825C28.0298 17.9209 28.1412 17.6471 28.0948 17.3761L27.651 14.7887L29.5308 12.9563C29.7276 12.7644 29.7984 12.4774 29.7135 12.2159ZM26.3707 14.0193C26.2004 14.1853 26.1228 14.4243 26.163 14.6586L26.4235 16.1778L25.0592 15.4606C24.9539 15.4052 24.8385 15.3776 24.7231 15.3776C24.6077 15.3776 24.4922 15.4052 24.387 15.4606L23.0227 16.1778L23.2833 14.6586C23.3235 14.4243 23.2458 14.1853 23.0756 14.0193L21.9718 12.9434L23.4972 12.7218C23.7324 12.6876 23.9357 12.5398 24.041 12.3266L24.7232 10.9444L25.4053 12.3266C25.5106 12.5398 25.7139 12.6876 25.9491 12.7218L27.4745 12.9434L26.3707 14.0193Z" fill="white"/>
<path d="M27.4762 23.6565C26.3229 24.1812 25.1037 24.4473 23.8525 24.4473C20.8695 24.4473 18.0991 22.9244 16.4881 20.4358L17.9877 19.1548C18.1534 19.0133 18.2464 18.8045 18.2407 18.5866C18.2349 18.3688 18.1312 18.1652 17.9582 18.0326L15.0848 15.8285C15.082 15.7757 15.0803 15.7244 15.0803 15.675C15.0803 11.3277 18.1991 7.68731 22.4963 7.01892C22.8239 6.96793 23.0748 6.7005 23.1047 6.37027C23.1345 6.04005 22.9357 5.73193 22.6225 5.62301C21.3013 5.1636 19.9404 4.93069 18.5778 4.93069C15.2852 4.93069 12.1897 6.21287 9.86142 8.54108C7.53326 10.8693 6.25104 13.9648 6.25104 17.2574C6.25104 20.55 7.53326 23.6455 9.86142 25.9738C12.1897 28.3019 15.2852 29.5842 18.5778 29.5842C20.5243 29.5842 22.3868 29.1412 24.1136 28.2677C25.7558 27.4369 27.2201 26.2219 28.348 24.7541C28.55 24.4911 28.5471 24.1244 28.3408 23.8648C28.1346 23.6051 27.778 23.5193 27.4762 23.6565ZM18.5778 28.1396C12.5773 28.1396 7.69558 23.2579 7.69558 17.2574C7.69558 11.257 12.5773 6.37523 18.5778 6.37523C18.9013 6.37523 19.2248 6.39021 19.5477 6.41997C18.2465 7.02484 17.075 7.9023 16.1212 9.00362C14.5184 10.8543 13.6357 13.2236 13.6357 15.675C13.6357 15.8236 13.645 15.9601 13.6539 16.0921C13.6573 16.1418 13.6607 16.1915 13.6634 16.2414C13.675 16.4518 13.7778 16.6466 13.945 16.7749L16.3712 18.6359L15.0852 19.7343C14.8238 19.9577 14.756 20.3343 14.9232 20.6348C15.4903 21.6537 16.2171 22.5512 17.062 23.3031C16.436 23.5521 15.6298 23.6785 14.7534 23.328C14.383 23.1797 13.9627 23.36 13.8146 23.7304C13.6665 24.1007 13.8466 24.5211 14.217 24.6692C14.7969 24.9012 15.3506 24.9938 15.8657 24.9938C16.8747 24.9938 17.7345 24.6382 18.3474 24.2771C19.9647 25.3131 21.8681 25.8918 23.8525 25.8918C24.3502 25.8918 24.8435 25.8558 25.3307 25.7841C23.4293 27.302 21.0722 28.1396 18.5778 28.1396Z" fill="white"/>
<path d="M11.4764 15.254C11.3023 15.4282 11.0712 15.524 10.8256 15.524C10.58 15.524 10.3489 15.4281 10.1748 15.254C9.89274 14.972 9.4354 14.972 9.15333 15.254C8.87125 15.5361 8.87125 15.9934 9.15333 16.2755C9.60027 16.7224 10.1942 16.9685 10.8256 16.9685C11.457 16.9685 12.0509 16.7224 12.4978 16.2754C12.7799 15.9934 12.7799 15.5361 12.4978 15.254C12.2158 14.972 11.7584 14.972 11.4764 15.254Z" fill="white"/>
</g>
<defs>
<clipPath id="clip0_52_1334">
<rect width="24.6535" height="24.6535" fill="white" transform="translate(5.67322 4.93069)"/>
</clipPath>
</defs>
</svg>
