<svg width="85" height="85" viewBox="0 0 85 85" fill="none" xmlns="http://www.w3.org/2000/svg">
<g clip-path="url(#clip0_133_280)">
<path d="M1.56087 31.0449C0.544565 34.6825 0.0210335 38.4401 0.00420689 42.2177C-0.0280503 47.909 1.08468 53.5507 3.27654 58.8088C4.73058 59.397 5.9618 60.4282 6.79437 61.7552C7.21257 62.4774 7.40298 63.3082 7.34072 64.1393C7.28449 64.6649 7.13636 65.1764 6.90302 65.6507C8.67447 68.3601 10.7484 70.8604 13.0851 73.1036C13.4375 73.4282 13.7611 73.7446 14.106 74.0492L14.139 74.0588C17.4526 73.5626 21.2449 74.1889 23.7123 76.6307C25.0544 77.9631 26.2799 79.8983 26.5505 81.8776C31.4103 83.8523 36.5925 84.9152 41.8364 85.0131C45.6651 85.089 49.4858 84.6516 53.1963 83.7129C56.1236 82.9711 58.9624 81.9187 61.6642 80.5737C61.2445 79.3422 61.1956 78.0156 61.5235 76.7579C61.9604 75.2808 62.8078 73.958 63.9678 72.9427C65.1546 71.8712 66.5637 71.074 68.0952 70.6077C69.6105 70.1238 71.2242 70.0291 72.7871 70.3325C73.3492 70.4503 73.8955 70.6339 74.4146 70.8795C77.1872 67.7953 79.49 64.3208 81.2494 60.5674C80.5875 59.7119 80.15 58.7053 79.9766 57.6391C79.667 55.4704 80.7541 53.4124 82.2231 51.9013C82.9313 51.1798 83.7236 50.5453 84.583 50.0116C85.2343 46.3444 85.3994 42.607 85.0741 38.8953C85.0673 38.7954 85.0564 38.6943 85.0443 38.5973C84.3681 31.3236 81.8159 24.3454 77.636 18.3422L77.5826 18.2644C75.9828 15.9846 74.1654 13.8646 72.156 11.934C64.0086 4.11083 53.0847 -0.168622 41.787 0.0369279C30.4894 0.242485 19.7432 4.91622 11.9121 13.0301C7.01268 18.0809 3.45496 24.2726 1.56087 31.0449Z" fill="#EC008C"/>
<g style="mix-blend-mode:multiply" opacity="0.29">
<g style="mix-blend-mode:multiply" opacity="0.29">
<path d="M1.7256 31.0926C1.09265 33.3255 0.637065 35.6051 0.363104 37.9099C-0.0935805 41.7843 -1.00324 49.8902 1.3406 53.329C3.04685 55.8398 3.94306 53.5929 5.32567 51.162C6.76163 48.6084 7.51366 45.6877 9.65103 43.5644C11.3868 41.8411 13.8821 40.8098 14.9943 38.6344C16.614 35.4619 14.4934 31.5757 15.2305 28.0898C15.9993 24.4483 20.3555 22.0326 23.8674 23.3033C27.9742 24.7864 30.0896 30.0778 34.406 30.7446C37.3554 31.198 40.1325 29.2243 42.1306 27.0116C44.1286 24.799 45.8039 22.1901 48.3671 20.662C51.3186 18.9035 55.1527 18.8919 58.2873 20.3249C61.4218 21.758 63.8382 24.5144 65.1976 27.6682C65.6854 28.9062 66.4306 30.0275 67.3839 30.9582C68.3373 31.8888 69.4773 32.6076 70.7287 33.0672C75.8567 35.0136 80.7035 37.6312 85.1416 40.8513C84.4303 24.806 73.7757 9.59396 58.8994 3.42523C44.0231 -2.7435 25.7172 0.418236 13.8306 11.2307C8.02473 16.5999 3.83343 23.477 1.7256 31.0926Z" fill="#DA1C5C"/>
</g>
</g>
<g style="mix-blend-mode:multiply" opacity="0.29">
<g style="mix-blend-mode:multiply" opacity="0.29">
<path d="M1.7257 31.0926C1.09275 33.3256 0.637168 35.6051 0.363207 37.9099C-0.0280352 40.8272 -0.211434 43.7687 -0.185606 46.7124C1.54273 46.1712 2.99966 44.9638 4.16246 43.6311C5.53784 42.021 6.69288 40.2357 7.59739 38.322C8.47619 36.535 9.19845 34.6753 9.75615 32.7637C10.2569 31.0345 10.5481 29.258 10.9735 27.5114C12.0132 23.2272 13.4575 18.7485 16.3465 15.3248C17.6911 13.6838 19.4546 12.4352 21.4517 11.7103C23.495 11.0065 26.0051 10.803 28.056 11.5839C32.1278 13.1414 34.1648 17.4396 37.6276 19.8357C38.3887 20.394 39.2688 20.7692 40.1988 20.932C41.4206 21.0732 42.6522 20.7766 43.6737 20.0952C46.0284 18.6091 47.0963 15.8155 48.5849 13.5889C49.8512 11.6985 51.4702 10.2397 53.7537 9.77022C55.8937 9.40019 58.0949 9.6102 60.1274 10.3783C62.1766 11.0494 64.0456 12.1784 65.5919 13.6792C67.2421 15.3813 67.7145 17.9131 68.5572 20.0447C68.9136 21.1376 69.5331 22.1271 70.3614 22.9265C71.1326 23.5121 72.0509 23.8735 73.0146 23.9709C74.9021 24.237 76.8318 23.7096 78.5108 22.8914C78.9166 22.6929 79.3118 22.469 79.7012 22.2345C75.0422 13.9317 67.7088 7.09367 58.8901 3.42697C44.0203 -2.74878 25.7079 0.419976 13.8213 11.2324C8.01914 16.6024 3.83119 23.4787 1.7257 31.0926Z" fill="#DA1C5C"/>
</g>
</g>
<path d="M19.146 49.9377C19.5574 49.511 20.0136 49.1297 20.5067 48.8004C24.328 46.2432 30.0364 47.0058 34.0582 50.8638C38.08 54.7217 39.0559 60.3865 36.6385 64.2941C36.329 64.7985 35.9655 65.2679 35.5544 65.6941C35.4215 65.8292 35.2898 65.9602 35.1523 66.0807C31.384 69.5035 25.0106 68.9712 20.637 64.7709C16.2634 60.5707 15.4883 54.2429 18.7709 50.3544C18.8885 50.2104 19.0131 50.0729 19.146 49.9377Z" fill="#E0276E"/>
<g style="mix-blend-mode:color-dodge">
<g style="mix-blend-mode:color-dodge">
<path d="M18.3663 50.7493C18.495 50.613 18.632 50.479 18.7708 50.3545C15.4883 54.243 16.2592 60.5696 20.6369 64.771C25.0146 68.9724 31.3839 69.5036 35.1522 66.0807C35.0293 66.2276 34.9046 66.3652 34.7705 66.5044C31.073 70.3306 24.4012 69.9345 19.8584 65.5784C15.3156 61.2223 14.6598 54.5907 18.3663 50.7493Z" fill="#F73C91"/>
</g>
</g>
<path d="M20.5104 48.788C24.3317 46.2308 30.0401 46.9934 34.0618 50.8514C38.0836 54.7093 39.0596 60.3742 36.6421 64.2817C32.8197 66.8431 27.1113 66.0804 23.0907 62.2183C19.0701 58.3562 18.0883 52.712 20.5104 48.788Z" fill="#BC1958"/>
<path d="M72.3989 20.8857C73.7003 19.5497 75.4021 18.6724 77.2483 18.3858L77.6112 18.335C81.7961 24.3381 84.3527 31.3177 85.0319 38.5938C85.044 38.6907 85.0549 38.7919 85.0617 38.8918C81.4962 39.9338 77.151 38.8269 73.9034 35.7184C69.3647 31.3635 68.6937 24.723 72.3989 20.8857Z" fill="#E0276E"/>
<path d="M74.6283 20.218C75.3744 19.4439 76.2642 18.8217 77.2483 18.3858L77.5579 18.2573L77.6113 18.3351C81.7962 24.3382 84.3527 31.3177 85.032 38.5938C83.3866 38.6327 81.7498 38.3389 80.2204 37.7299C78.6909 37.121 77.3004 36.2096 76.1328 35.0507C71.5929 30.6999 70.9354 24.0589 74.6283 20.218Z" fill="#BC1958"/>
<path d="M63.0176 54.2372C63.2448 54.0005 63.4962 53.7884 63.768 53.6042C65.8084 52.2319 68.8194 52.5651 71.0391 54.49C71.1402 54.5727 71.2348 54.6624 71.3293 54.7521C73.576 56.9074 74.1214 60.0658 72.7666 62.2466C72.5953 62.5264 72.3929 62.7858 72.1631 63.0201C70.0969 65.1596 66.3766 64.9326 63.8514 62.5052C63.7569 62.4155 63.6635 62.3217 63.5754 62.225C61.2988 59.8028 61.0283 56.2966 63.0176 54.2372Z" fill="#E0276E"/>
<g style="mix-blend-mode:color-dodge">
<g style="mix-blend-mode:color-dodge">
<path d="M62.4514 53.6948C62.68 53.4585 62.9329 53.2467 63.2058 53.063C65.3348 51.6317 68.5204 52.0556 70.7672 54.2109C70.8617 54.3006 70.9551 54.3944 71.0391 54.49C68.8194 52.5651 65.8084 52.2318 63.7679 53.6042C63.4962 53.7883 63.2447 54.0005 63.0176 54.2372C61.0282 56.2965 61.2988 59.8028 63.5754 62.2249C63.4784 62.1434 63.3797 62.0525 63.2852 61.9628C60.7553 59.5519 60.3935 55.8367 62.4514 53.6948Z" fill="#F73C91"/>
</g>
</g>
<path d="M63.768 53.6042C65.8084 52.2318 68.8194 52.5651 71.0391 54.4899C71.1402 54.5726 71.2347 54.6624 71.3293 54.7521C73.576 56.9074 74.1214 60.0658 72.7666 62.2466C72.2464 62.5946 71.6632 62.8384 71.0495 62.9647C69.9976 63.1501 68.9159 63.0775 67.8975 62.7531C66.8792 62.4287 65.9548 61.8624 65.2041 61.1028C62.9573 58.9475 62.4131 55.785 63.768 53.6042Z" fill="#BC1958"/>
<path d="M43.5263 35.251C43.7318 35.0406 43.9561 34.8492 44.1963 34.6793C46.3278 33.1775 49.5731 33.5653 51.8421 35.7671C54.111 37.9689 54.6416 41.1631 53.2202 43.3424C53.0583 43.5887 52.8748 43.8201 52.6717 44.0339C52.6091 44.0959 52.5518 44.155 52.4863 44.2117C50.3906 46.1601 46.8076 45.8749 44.3559 43.5178C41.9042 41.1607 41.4784 37.605 43.3508 35.4406C43.4069 35.3856 43.4678 35.3142 43.5263 35.251Z" fill="#E0276E"/>
<g style="mix-blend-mode:color-dodge">
<g style="mix-blend-mode:color-dodge">
<path d="M43.1826 35.6055C43.2399 35.5464 43.2949 35.4956 43.3551 35.4418C41.4826 37.6062 41.9073 41.166 44.3602 43.519C46.8131 45.872 50.3961 46.1572 52.4906 44.2129C52.4414 44.2749 52.3885 44.334 52.3322 44.3896C50.2649 46.5333 46.5416 46.3009 43.9988 43.8729C41.456 41.4449 41.1153 37.7492 43.1826 35.6055Z" fill="#F73C91"/>
</g>
</g>
<path d="M44.1965 34.6793C46.328 33.1775 49.5732 33.5653 51.8422 35.7671C54.1112 37.9689 54.6417 41.1631 53.2204 43.3424C51.0889 44.8442 47.8436 44.4565 45.5735 42.2588C43.3033 40.0611 42.7751 36.8587 44.1965 34.6793Z" fill="#BC1958"/>
<path d="M0.00408735 42.2178C2.10975 43.01 4.39639 42.684 5.85712 41.1704C7.92035 39.0256 7.54965 35.3257 5.01975 32.9148C4.05755 31.9813 2.85125 31.3373 1.53951 31.0567L0.00408735 42.2178Z" fill="#BC1958"/>
<path d="M35.0505 10.9116C35.7477 10.194 36.6537 9.71351 37.6405 9.53814C38.6723 9.38137 39.727 9.47033 40.7185 9.79769C41.7101 10.1251 42.6103 10.6815 43.3457 11.4218C45.8762 13.8462 46.2457 17.5502 44.1831 19.6774C43.8509 20.019 43.4664 20.3059 43.044 20.5273C40.9205 21.6931 37.9718 21.1909 35.8508 19.1566C33.3592 16.7523 32.9844 13.0511 35.0505 10.9116Z" fill="#E0276E"/>
<path d="M36.4962 10.3909C36.83 10.0495 37.2146 9.76141 37.6364 9.53689C38.6682 9.38012 39.723 9.46908 40.7145 9.79644C41.706 10.1238 42.6062 10.6803 43.3417 11.4205C45.8721 13.845 46.2416 17.549 44.179 19.6762C43.8468 20.0178 43.4624 20.3047 43.04 20.5261C42.0046 20.6855 40.9458 20.5977 39.9502 20.27C38.9547 19.9422 38.0509 19.3838 37.3129 18.6406C34.8037 16.2356 34.4465 12.5352 36.4962 10.3909Z" fill="#BC1958"/>
<path d="M42.8608 79.6561C43.3154 79.1956 43.857 78.8297 44.4544 78.5794C45.0518 78.3291 45.6932 78.1994 46.3415 78.1977C46.5878 78.1885 46.8344 78.1974 47.0794 78.2244C48.624 78.4 50.0662 79.0856 51.1766 80.1722C52.1849 81.1296 52.8888 82.3614 53.2004 83.7142C50.2474 84.4619 47.2221 84.8917 44.1764 84.9963C43.3996 85.0266 42.621 85.0326 41.8405 85.0143C41.2081 83.0817 41.5224 81.0403 42.8608 79.6561Z" fill="#E0276E"/>
<g style="mix-blend-mode:color-dodge">
<g style="mix-blend-mode:color-dodge">
<path d="M42.3026 79.6412C42.8256 79.1163 43.4595 78.7144 44.1581 78.4647C44.8568 78.215 45.6026 78.1238 46.3415 78.1977C45.6932 78.1993 45.0518 78.329 44.4544 78.5793C43.857 78.8296 43.3154 79.1955 42.8608 79.656C41.52 81.0484 41.2081 83.0816 41.8376 85.0089L41.2822 84.9995C40.6474 83.075 40.9629 81.0295 42.3026 79.6412Z" fill="#F73C91"/>
</g>
</g>
<path d="M44.2696 79.6321C45.0202 78.8592 46.0105 78.3617 47.0805 78.2202C48.6251 78.3958 50.0673 79.0814 51.1777 80.168C52.186 81.1254 52.8899 82.3573 53.2015 83.71C50.2485 84.4577 47.2232 84.8875 44.1774 84.9921C43.8682 84.9961 43.5614 84.9918 43.2504 84.9863C42.6198 83.063 42.9312 81.0164 44.2696 79.6321Z" fill="#BC1958"/>
</g>
<defs>
<clipPath id="clip0_133_280">
<rect width="85" height="85" fill="white"/>
</clipPath>
</defs>
</svg>
