<svg width="132" height="133" viewBox="0 0 132 133" fill="none" xmlns="http://www.w3.org/2000/svg">
<g clip-path="url(#clip0_133_309)">
<path d="M132 65.8778C131.84 50.9719 126.723 36.5478 117.462 24.9009C115.076 24.5615 112.636 23.7049 110.941 22.0024C109.999 21.0946 109.353 19.9202 109.091 18.6353C108.949 17.819 108.949 16.9841 109.091 16.1678C105.276 12.8688 101.1 10.015 96.6445 7.66105C96.0063 7.32164 95.3628 6.9984 94.714 6.68592L94.6603 6.71286C89.9305 8.90016 83.9834 9.60592 79.2697 7.00917C76.6903 5.59227 74.0305 3.23795 72.7703 0.361055C63.4107 -0.623391 53.9498 0.404778 45.0163 3.37722C36.0828 6.34967 27.8813 11.1983 20.957 17.6009C22.1108 19.2724 22.7538 21.2459 22.8071 23.2793C22.8072 25.6898 22.1226 28.0504 20.8336 30.0836C19.522 32.2107 17.7631 34.0238 15.6802 35.3956C13.6285 36.781 11.2621 37.6241 8.8 37.8469C7.91736 37.912 7.03019 37.874 6.15625 37.7338C3.35479 43.5767 1.42155 49.8008 0.418281 56.2074C1.7734 57.2032 2.85918 58.5237 3.57685 60.0486C4.98185 63.1787 4.25788 66.7291 2.7081 69.6544C1.96429 71.049 1.05497 72.3479 0 73.5226C0.621492 79.3096 1.98971 84.9907 4.0702 90.4231C4.12919 90.5685 4.18282 90.714 4.24717 90.8594C8.39879 101.496 15.2194 110.872 24.0458 118.077C24.0887 118.077 24.1209 118.136 24.1638 118.168C31.7721 124.347 40.6482 128.755 50.1543 131.076C59.6603 133.397 69.5602 133.574 79.1423 131.593C88.7243 129.612 97.7507 125.524 105.572 119.621C113.394 113.718 119.817 106.148 124.38 97.4537C129.491 87.7278 132.11 76.8757 132 65.8778Z" fill="#FDE41B"/>
<g style="mix-blend-mode:multiply" opacity="0.29">
<g style="mix-blend-mode:multiply" opacity="0.29">
<path d="M131.732 65.8832C131.71 62.2516 131.405 58.6273 130.82 55.0436C129.828 49.0096 127.683 36.4461 122.701 32.287C119.071 29.2593 118.69 33.0251 117.693 37.2812C116.652 41.742 116.792 46.4398 114.523 50.5774C112.679 53.923 109.397 56.5629 108.684 60.3179C107.611 65.7862 112.475 70.7103 112.882 76.2648C113.306 82.0778 107.858 87.5784 102.066 87.2228C95.3039 86.7811 89.8609 79.7451 83.1362 80.6232C78.5351 81.2266 75.2478 85.4019 73.2261 89.5987C71.2044 93.7955 69.8316 98.4449 66.6677 101.855C63.0211 105.783 57.31 107.469 52.0225 106.677C46.735 105.885 41.9462 102.814 38.5463 98.6496C35.747 95.2232 32.3311 93.2945 27.9606 92.9389C19.4726 92.2455 11.1142 90.4211 3.10498 87.5138C11.0845 111.326 33.5591 129.536 58.4093 132.359C83.2595 135.182 109.204 122.441 122.267 101.015C128.67 90.5092 131.812 78.1773 131.732 65.8832Z" fill="#FFAE2C"/>
</g>
</g>
<g style="mix-blend-mode:multiply" opacity="0.29">
<g style="mix-blend-mode:multiply" opacity="0.29">
<path d="M131.732 65.8831C131.71 62.2516 131.405 58.6273 130.82 55.0436C130.146 50.4881 129.148 45.987 127.833 41.575C125.495 43.1373 123.86 45.5778 122.68 48.0992C121.323 51.1123 120.373 54.2938 119.854 57.5595C119.311 60.6292 119.035 63.7405 119.028 66.8583C119.028 69.6705 119.366 72.472 119.484 75.2789C119.784 82.1694 119.564 89.5287 116.733 95.9344C115.44 98.9889 113.348 101.635 110.678 103.59C107.938 105.535 104.281 106.936 100.886 106.65C94.1348 106.111 89.2388 100.514 83.0396 98.418C81.6698 97.9096 80.2018 97.7252 78.7496 97.8792C76.8644 98.1968 75.1534 99.1785 73.9233 100.648C71.0543 103.908 70.6682 108.573 69.408 112.565C68.3354 115.96 66.5497 118.858 63.3482 120.555C60.3774 122.123 56.9132 122.597 53.583 122.414C50.2362 122.299 46.9599 121.417 44.0054 119.833C40.7879 117.996 39.0075 114.392 36.8303 111.553C35.7577 110.157 34.5243 108.74 32.8888 108.002C31.4862 107.463 29.9633 107.322 28.4861 107.593C25.5581 108.018 22.9036 109.651 20.7532 111.628C20.217 112.107 19.7397 112.609 19.2625 113.136C29.7999 123.588 43.6944 130.673 58.4093 132.337C83.2595 135.155 109.204 122.419 122.267 100.993C128.67 90.5092 131.812 78.1773 131.732 65.8831Z" fill="#FFAE2C"/>
</g>
</g>
<path d="M97.6097 45.1361C97.1791 45.9571 96.6632 46.73 96.0707 47.4419C91.4696 52.9533 82.6267 54.2894 74.9635 50.238C67.3004 46.1866 63.3964 38.1055 65.3109 31.161C65.5551 30.2684 65.8949 29.4049 66.3244 28.5858C66.4638 28.3218 66.6033 28.074 66.7588 27.8262C70.9041 21.0488 80.6318 19.0716 88.9706 23.4839C97.3094 27.8962 101.197 37.0657 97.9851 44.3387C97.8671 44.6297 97.7438 44.8775 97.6097 45.1361Z" fill="#FFAF10"/>
<g style="mix-blend-mode:color-dodge">
<g style="mix-blend-mode:color-dodge">
<path d="M98.4195 43.5845C98.2854 43.8485 98.1406 44.1233 97.9851 44.3549C101.203 37.0819 97.3094 27.907 88.9706 23.5001C80.6318 19.0932 70.9041 21.065 66.7588 27.8424C66.8714 27.573 67.0055 27.3036 67.1395 27.045C71.0113 19.6589 81.1466 17.3476 89.7857 21.9431C98.4249 26.5386 102.291 36.1983 98.4195 43.5845Z" fill="#FDE41B"/>
</g>
</g>
<g style="mix-blend-mode:multiply" opacity="0.29">
<g style="mix-blend-mode:multiply" opacity="0.29">
<path d="M96.0707 47.442C91.4696 52.9533 82.6267 54.2894 74.9635 50.2381C67.3004 46.1867 63.3964 38.1055 65.3109 31.1611C69.9066 25.6497 78.7549 24.3083 86.418 28.365C94.0811 32.4218 97.9851 40.5137 96.0707 47.442Z" fill="#FFAE2C"/>
</g>
</g>
<path d="M30.7222 111.973C29.3552 114.547 27.1928 116.606 24.5606 117.84C24.3943 117.921 24.2227 118.001 24.0243 118.077C15.1979 110.872 8.3773 101.496 4.22568 90.8594C4.16133 90.7139 4.10769 90.5685 4.04871 90.423C8.92329 87.3037 15.8786 87.0612 22.0616 90.3368C30.7222 94.9107 34.5886 104.603 30.7222 111.973Z" fill="#FFAF10"/>
<g style="mix-blend-mode:multiply" opacity="0.29">
<g style="mix-blend-mode:multiply" opacity="0.29">
<path d="M27.6817 113.961C26.9045 115.45 25.8441 116.771 24.5606 117.851C24.4373 117.964 24.3032 118.071 24.1638 118.179C24.1209 118.147 24.0887 118.115 24.0458 118.088C15.2194 110.883 8.39881 101.507 4.24719 90.8702C8.7035 89.3348 14.1197 89.7119 19.0479 92.3195C27.6817 96.888 31.5535 106.585 27.6817 113.961Z" fill="#FFAE2C"/>
</g>
</g>
<path d="M30.3093 57.775C30.0728 58.228 29.7888 58.6542 29.462 59.0465C27.006 61.9988 22.3781 62.8177 18.2006 60.889L17.6643 60.6196C13.3743 58.3569 11.2292 53.8422 12.3018 49.9794C12.4286 49.4871 12.6084 49.0102 12.838 48.5571C14.983 44.4357 20.6459 43.1696 25.4615 45.7071C25.6439 45.8041 25.8208 45.9065 25.9978 46.0088C30.4702 48.6595 32.3846 53.7883 30.3093 57.775Z" fill="#FFAF10"/>
<g style="mix-blend-mode:color-dodge">
<g style="mix-blend-mode:color-dodge">
<path d="M31.3872 58.346C31.1488 58.7991 30.863 59.2254 30.5345 59.6175C27.9766 62.6991 23.0269 63.448 18.7368 61.1852C18.5599 61.0937 18.3829 60.9913 18.2006 60.8889C22.3512 62.8122 26.9791 61.9987 29.462 59.0464C29.7887 58.6542 30.0728 58.2279 30.3093 57.775C32.3846 53.8098 30.4701 48.6594 26.0192 46.0088C26.2015 46.095 26.3839 46.1812 26.5555 46.2782C31.3871 48.8264 33.5429 54.2246 31.3872 58.346Z" fill="#FDE41B"/>
</g>
</g>
<g style="mix-blend-mode:multiply" opacity="0.29">
<g style="mix-blend-mode:multiply" opacity="0.29">
<path d="M29.462 59.0464C27.006 61.9987 22.3781 62.8176 18.2006 60.8889L17.6643 60.6195C13.3743 58.3568 11.2292 53.8421 12.3018 49.9793C12.9255 49.2275 13.6909 48.6069 14.554 48.153C17.2353 46.7091 20.8443 46.6984 24.078 48.4062C28.3627 50.6689 30.5399 55.1836 29.462 59.0464Z" fill="#FFAE2C"/>
</g>
</g>
<path d="M67.5792 77.8272C67.3675 78.2355 67.116 78.6217 66.8285 78.9802C64.2973 82.1641 59.2887 82.9615 54.9557 80.6718C50.6227 78.3821 48.4455 73.7812 49.6253 69.8969C49.7628 69.4567 49.9424 69.0309 50.1616 68.6255C50.2259 68.5069 50.2903 68.3884 50.36 68.2753C52.6444 64.434 58.1143 63.308 62.7904 65.7755C67.4666 68.243 69.6331 73.4149 67.7777 77.4824C67.6865 77.5902 67.6436 77.7087 67.5792 77.8272Z" fill="#FFAF10"/>
<g style="mix-blend-mode:color-dodge">
<g style="mix-blend-mode:color-dodge">
<path d="M67.9386 77.143C67.8796 77.2561 67.8207 77.3638 67.7563 77.4662C69.6118 73.3987 67.4453 68.2321 62.7691 65.7593C58.0929 63.2864 52.6231 64.4178 50.3386 68.259C50.3869 68.1459 50.4405 68.0328 50.4995 67.925C52.6445 63.8036 58.3128 62.5376 63.1284 65.0751C67.944 67.6126 70.0998 73.0216 67.9386 77.143Z" fill="#FDE41B"/>
</g>
</g>
<g style="mix-blend-mode:multiply" opacity="0.29">
<g style="mix-blend-mode:multiply" opacity="0.29">
<path d="M66.8285 78.98C64.2973 82.164 59.2887 82.9613 54.9557 80.6717C50.6227 78.382 48.4455 73.7811 49.6253 69.8968C52.1511 66.7128 57.1597 65.9101 61.4927 68.2051C65.8257 70.5002 68.0082 75.0849 66.8285 78.98Z" fill="#FFAE2C"/>
</g>
</g>
<path d="M129.496 48.4008C126.01 48.1207 122.744 49.613 121.216 52.5222C119.071 56.6382 121.216 62.0418 126.042 64.5847C127.871 65.5696 129.941 66.0124 132.011 65.8615L129.496 48.4008Z" fill="#FFAF10"/>
<path d="M90.7457 110.717C90.0153 112.099 88.8709 113.215 87.4745 113.907C84.7932 115.264 81.2861 115.238 78.1222 113.567C73.2958 111.019 71.1508 105.616 73.2958 101.5C73.6367 100.843 74.0783 100.245 74.6043 99.7271C77.2856 97.0711 81.8813 96.5215 85.9193 98.6496C90.7457 101.198 92.8907 106.585 90.7457 110.717Z" fill="#FFAF10"/>
<g style="mix-blend-mode:multiply" opacity="0.29">
<g style="mix-blend-mode:multiply" opacity="0.29">
<path d="M88.7776 112.134C88.4367 112.791 87.9952 113.389 87.4691 113.907C84.7878 115.265 81.2807 115.238 78.1168 113.567C73.2905 111.019 71.1454 105.616 73.2905 101.5C73.6313 100.843 74.0729 100.245 74.5989 99.7271C77.2802 98.3695 80.7874 98.391 83.9566 100.067C88.783 102.615 90.9387 108.013 88.7776 112.134Z" fill="#FFAE2C"/>
</g>
</g>
<path d="M49.3947 10.7964C48.9166 11.6869 48.2676 12.4734 47.4852 13.1105C46.7029 13.7476 45.8027 14.2227 44.8365 14.5084C44.4712 14.6246 44.0985 14.7164 43.7211 14.7831C41.3356 15.1995 38.88 14.7971 36.7497 13.641C34.8319 12.6434 33.2499 11.0991 32.2023 9.20175C36.2803 6.78809 40.6063 4.82461 45.1047 3.34558C46.2523 2.96487 47.4106 2.61648 48.5796 2.30042C50.3814 4.92949 50.789 8.12964 49.3947 10.7964Z" fill="#FFAF10"/>
<g style="mix-blend-mode:color-dodge">
<g style="mix-blend-mode:color-dodge">
<path d="M50.2367 10.5756C49.6821 11.5916 48.9101 12.4713 47.9763 13.1514C47.0425 13.8315 45.9702 14.2949 44.8365 14.5084C45.8027 14.2228 46.7029 13.7477 47.4852 13.1105C48.2676 12.4734 48.9166 11.6869 49.3947 10.7965C50.789 8.12969 50.3814 4.92955 48.6118 2.31125C48.8906 2.23043 49.1481 2.14963 49.443 2.07959C51.2234 4.6925 51.6309 7.90881 50.2367 10.5756Z" fill="#FDE41B"/>
</g>
</g>
<g style="mix-blend-mode:multiply" opacity="0.29">
<g style="mix-blend-mode:multiply" opacity="0.29">
<path d="M47.3087 11.4483C46.5216 12.9327 45.2597 14.1075 43.7265 14.7831C41.341 15.1994 38.8854 14.7971 36.7551 13.641C34.8373 12.6434 33.2553 11.099 32.2076 9.20172C36.2857 6.78806 40.6117 4.82458 45.11 3.34555C45.5712 3.20548 46.027 3.07618 46.4936 2.95227C48.2847 5.57057 48.6976 8.7815 47.3087 11.4483Z" fill="#FFAE2C"/>
</g>
</g>
</g>
<defs>
<clipPath id="clip0_133_309">
<rect width="132" height="133" fill="white"/>
</clipPath>
</defs>
</svg>
