<svg width="23" height="24" viewBox="0 0 23 24" fill="none" xmlns="http://www.w3.org/2000/svg">
<g clip-path="url(#clip0_133_214)">
<path d="M10.3614 2.10417L12.5436 4.00132C12.8463 4.26592 13.207 4.4505 13.5945 4.53894C13.9821 4.62737 14.3847 4.61701 14.7675 4.50882L17.5179 3.72808C17.9585 3.60292 18.4243 3.60757 18.8625 3.74152C19.3006 3.87547 19.6935 4.13335 19.9965 4.48585C20.2995 4.83835 20.5006 5.27136 20.5768 5.73569C20.6529 6.20001 20.6012 6.67701 20.4275 7.11256L19.3516 9.84516C19.2009 10.2246 19.1423 10.6362 19.1805 11.0443C19.2188 11.4524 19.3529 11.8447 19.5713 12.1874L21.1359 14.6428C21.3878 15.0362 21.5277 15.4945 21.5397 15.9656C21.5517 16.4367 21.4353 16.9018 21.2038 17.3082C20.9722 17.7147 20.6348 18.0461 20.2297 18.265C19.8247 18.4839 19.3682 18.5814 18.9121 18.5465L16.0669 18.3318C15.6707 18.301 15.2731 18.3702 14.9087 18.5335C14.5443 18.6967 14.224 18.9492 13.9756 19.2688L12.1913 21.5602C11.9055 21.9269 11.5259 22.2041 11.0953 22.3602C10.6648 22.5163 10.2003 22.5453 9.75465 22.4438C9.30895 22.3423 8.89969 22.1144 8.5731 21.7858C8.24651 21.4572 8.01563 21.041 7.90651 20.5843L7.22456 17.7306C7.12877 17.3333 6.94081 16.9659 6.67686 16.66C6.41291 16.354 6.08085 16.1186 5.70915 15.974L3.0572 14.9317C2.63022 14.7651 2.25696 14.4789 1.97962 14.1052C1.70228 13.7315 1.53193 13.2853 1.48779 12.8171C1.44365 12.3488 1.52748 11.8772 1.72984 11.4555C1.9322 11.0338 2.24501 10.6788 2.63289 10.4307L5.05754 8.86923C5.3917 8.65216 5.66972 8.35475 5.86769 8.00252C6.06566 7.6503 6.17767 7.25382 6.19409 6.84714L6.33047 3.91154C6.35102 3.44012 6.49951 2.98415 6.75909 2.59537C7.01867 2.2066 7.37891 1.90066 7.79884 1.71237C8.21878 1.52408 8.68157 1.46098 9.13458 1.53024C9.58759 1.5995 10.0127 1.79835 10.3614 2.10417Z" fill="#FDE41B"/>
<g opacity="0.53">
<path opacity="0.53" d="M2.64441 10.4072H2.62166C2.23377 10.6553 1.92097 11.0102 1.71861 11.4319C1.51625 11.8537 1.43241 12.3253 1.47656 12.7935C1.5207 13.2617 1.69109 13.7079 1.96843 14.0816C2.24577 14.4553 2.61899 14.7416 3.04597 14.9081L5.69792 15.9505C6.06962 16.0951 6.40172 16.3304 6.66568 16.6364C6.92963 16.9424 7.11754 17.3098 7.21333 17.7071L7.89527 20.5607C8.0044 21.0174 8.23528 21.4336 8.56187 21.7622C8.88846 22.0908 9.29776 22.3187 9.74346 22.4202C10.1892 22.5217 10.6535 22.4927 11.0841 22.3366C11.5147 22.1805 11.8943 21.9034 12.18 21.5366L13.9645 19.2452C14.2131 18.9258 14.5334 18.6737 14.8977 18.5105C15.2621 18.3472 15.6595 18.2779 16.0557 18.3083L17.8893 18.4449C12.5263 16.3747 7.41131 13.6779 2.64441 10.4072Z" fill="#FFAD12"/>
</g>
<path d="M9.30836 3.18157C11.0511 4.6962 12.665 6.57384 15.1843 5.96486C16.0519 5.75406 16.8967 5.42221 17.7719 5.23873C18.7493 5.03184 19.3441 5.75405 18.988 6.72998C18.2076 8.87702 16.9952 10.8132 18.3591 13.0618C18.8327 13.8425 19.3744 14.5804 19.829 15.3728C20.3253 16.2356 19.829 17.0124 18.8819 17.0124C16.6959 17.0124 14.5706 16.2316 12.8847 18.2303C12.3088 18.9134 10.657 22.0326 9.52428 20.6389C9.03556 20.0339 8.98257 18.7612 8.8083 18.0273C8.48248 16.6688 7.95206 15.4704 6.69049 14.7599C5.83046 14.3422 4.94454 13.9836 4.03854 13.6864C3.88321 13.624 3.7241 13.5693 3.57256 13.503C3.42102 13.4366 3.67488 13.7098 3.36422 13.3936C3.21699 13.2761 3.10212 13.121 3.03101 12.9437C2.95991 12.7663 2.93501 12.5729 2.95882 12.3825C3.10279 11.5628 4.47423 11.0436 5.05008 10.661C6.38364 9.81393 7.47473 8.84188 7.66037 7.12035C7.76266 6.13271 7.72099 5.13341 7.81192 4.14577C7.91042 3.04102 8.80447 2.76772 9.62658 3.41964C10.263 3.92322 11.2708 3.51337 11.6459 2.87316C12.0967 2.09242 11.7444 1.29212 11.1155 0.79245C10.3864 0.238136 9.49389 -0.0397236 8.5889 0.00579928C7.68391 0.0513222 6.82198 0.417393 6.14876 1.04225C5.0804 2.03769 4.89852 3.3377 4.83411 4.73133C4.79244 5.57843 5.016 6.96425 4.30376 7.56152C3.59152 8.15878 2.70123 8.55691 1.93974 9.0722C1.2504 9.50275 0.703476 10.138 0.37083 10.8946C0.038184 11.6512 -0.0646583 12.4938 0.0757784 13.3117C0.363705 14.9122 1.46238 15.9076 2.87549 16.4697C3.39072 16.6766 3.90974 16.8601 4.42497 17.0748C4.63713 17.1568 4.85309 17.2349 5.06146 17.3247C5.36833 17.4535 5.23194 17.2974 5.44031 17.5238C6.08436 18.1913 6.15253 19.6161 6.36468 20.4984C6.68671 21.853 7.33454 23.0202 8.63778 23.6213C9.40944 23.9889 10.2758 24.0893 11.1074 23.9078C11.9391 23.7263 12.6914 23.2725 13.2522 22.6141C13.8622 21.8959 14.3887 21.0995 14.9949 20.3773C15.673 19.5693 16.6581 19.8816 17.5938 19.9519C18.9387 20.0534 20.223 20.1705 21.3823 19.2883C22.1181 18.7364 22.6458 17.939 22.8757 17.0317C23.1057 16.1244 23.0238 15.1632 22.6439 14.311C22.1498 13.3697 21.5915 12.4656 20.9732 11.6057C20.3973 10.6922 20.9239 9.87636 21.28 8.9707C21.8938 7.40922 22.4545 5.98441 21.6589 4.33705C20.7648 2.47888 18.7569 1.83081 16.9005 2.32658C15.9989 2.56861 14.4039 3.41577 13.525 2.86925C12.7859 2.2951 12.0777 1.68003 11.4034 1.02671C9.96378 -0.22638 7.86494 1.91676 9.30836 3.18157Z" fill="#F7941D"/>
<path d="M14.8964 6.40988C13.703 6.35522 12.6233 7.05791 11.4867 6.23032C10.6116 5.5784 9.4182 6.78858 10.3009 7.52638C11.5928 8.6038 14.6274 9.41189 15.4533 7.35073C15.5006 7.25214 15.5229 7.14277 15.5182 7.03289C15.5135 6.92301 15.4819 6.81619 15.4263 6.72229C15.3707 6.62839 15.293 6.55046 15.2003 6.49584C15.1077 6.44123 15.0031 6.41165 14.8964 6.40988Z" fill="#FFFDE3"/>
</g>
<defs>
<clipPath id="clip0_133_214">
<rect width="23" height="24" fill="white"/>
</clipPath>
</defs>
</svg>
