<svg width="49" height="40" viewBox="0 0 49 40" fill="none" xmlns="http://www.w3.org/2000/svg">
<path d="M21.0139 9.25998L22.0586 8.88532C22.2697 8.56952 22.6378 8.52133 22.9518 8.39822C25.182 7.53645 27.4447 6.74428 29.702 5.94139C31.9593 5.1385 34.1787 4.30886 36.4306 3.51132C37.3887 3.1527 38.3522 2.81013 39.305 2.4408C40.5392 2.13035 41.6705 1.55762 42.8777 1.16688C43.1158 1.09194 43.3432 0.942041 43.6193 1.03839C44.3457 0.845628 45.0597 0.609713 45.7575 0.331873C46.7481 0.0107169 47.7495 -0.3265 48.6643 0.529917C48.797 0.640803 48.8978 0.784212 48.9568 0.945802C49.0157 1.10739 49.0306 1.28147 49 1.45055C48.9585 2.66832 48.8137 3.8805 48.5669 5.07427C48.3504 6.18226 48.1176 7.29559 47.8902 8.40357C47.8879 8.54256 47.8548 8.67936 47.793 8.80424C47.7313 8.92912 47.6425 9.03901 47.533 9.12616C47.053 11.0424 46.6236 12.9658 46.2446 14.8963C46.294 14.9675 46.3252 15.0495 46.3356 15.1353C46.3459 15.221 46.3352 15.308 46.3042 15.3887C46.001 16.8661 45.5896 18.322 45.254 19.7886C45.225 19.9362 45.1468 20.0699 45.0321 20.1686C44.4691 22.4381 43.9098 24.7059 43.354 26.9718C42.9282 28.7274 42.5078 30.4831 42.0927 32.2387C42.1956 33.1326 41.8221 33.9516 41.6326 34.7973C41.4432 35.643 41.205 36.5369 40.9939 37.4094C40.8384 38.3018 40.3472 39.103 39.6189 39.6521C39.3271 39.8199 39.0035 39.9264 38.6682 39.9651C38.333 40.0038 37.9932 39.9738 37.6702 39.8769C37.1693 39.807 36.7104 39.562 36.3764 39.1864C35.4188 38.3211 34.4024 37.5217 33.3342 36.7938C32.0838 35.8839 30.855 34.9418 29.545 34.1175C28.7439 33.5501 27.9211 32.972 27.1416 32.4153C26.7681 32.1531 26.5082 32.3243 26.2267 32.5492C25.4472 33.1808 24.7435 33.8981 23.9586 34.5243C22.8381 35.5948 21.6147 36.6172 20.5321 37.7359C20.1023 38.1909 19.57 38.5393 18.9785 38.7529C18.7563 38.805 18.5225 38.7737 18.3224 38.6649C18.1223 38.556 17.9703 38.3775 17.8959 38.164C17.7792 37.0823 17.823 35.9896 18.0258 34.9204C18.2044 33.1433 18.3289 31.3609 18.6158 29.5945C18.6916 28.615 18.7999 27.6408 18.8919 26.6613C18.9514 26.019 19.4928 25.7621 19.9042 25.4034C21.9341 23.5782 23.9911 21.7798 26.0102 19.9438C27.5151 18.5682 29.0362 17.2032 30.5356 15.8223C32.7388 13.7776 34.9582 11.7543 37.0801 9.62398C37.6215 9.08872 38.1249 8.43034 38.7041 7.86832C38.9188 7.67143 39.0615 7.40981 39.1101 7.1243C37.1563 8.07936 35.2636 9.15189 33.4425 10.3359C33.1285 10.5178 32.8146 10.6998 32.5114 10.8711C29.2635 12.8355 26.0752 14.8428 22.8706 16.8554C20.3751 18.3434 17.9229 19.9117 15.4599 21.4479C14.6534 21.9457 13.836 22.4221 13.0565 22.9627C12.8846 23.0754 12.6916 23.1529 12.4889 23.1906C12.2863 23.2283 12.078 23.2254 11.8764 23.1821C9.95475 22.6468 8.08721 21.9457 6.1926 21.389C4.56865 20.9019 3.00966 20.3185 1.40736 19.8314C0.941308 19.714 0.528018 19.4467 0.232694 19.0713C0.131471 18.9742 0.0634924 18.8482 0.0382573 18.7109C0.0130223 18.5737 0.0318039 18.4321 0.0919628 18.3059C0.0919628 18.2202 0.0919628 18.1346 0.0919628 18.049C0.276011 17.2782 0.903929 16.9463 1.53727 16.6198C2.0028 16.2719 2.61992 16.1809 3.09086 15.8705C5.96526 14.6233 8.90459 13.5421 11.8385 12.4448C12.9915 12.0113 14.1445 11.583 15.2921 11.1334C16.9919 10.5981 18.605 9.87557 20.2777 9.30284C20.505 9.29749 20.7378 9.14757 21.0139 9.25998Z" fill="#FEFEFE"/>
</svg>
