<svg width="46" height="38" viewBox="0 0 46 38" fill="none" xmlns="http://www.w3.org/2000/svg">
<path d="M2.36468 9.84867C1.76929 8.19602 1.6663 6.40365 2.06846 4.69266C2.099 4.53997 2.11718 4.38503 2.12279 4.22937C2.40912 3.44227 2.61645 2.61033 3.19898 1.97268C3.44582 2.00257 3.54455 2.2118 3.69265 2.37121C7.44561 6.74036 12.4843 9.7845 18.0732 11.0592C18.868 11.2136 19.6579 11.4229 20.4626 11.5225C20.6685 11.5868 20.8843 11.6122 21.0994 11.5972C21.2833 11.5938 21.467 11.6105 21.6473 11.647C21.8338 11.7067 22.0304 11.727 22.2249 11.7068C22.6149 11.4029 22.2595 10.9994 22.3632 10.6557C22.3782 10.419 22.3532 10.1815 22.2891 9.95328C22.2546 9.76725 22.2546 9.57637 22.2891 9.39035C22.3564 9.15428 22.3798 8.9077 22.3582 8.66303C22.5046 6.80961 23.1917 5.04147 24.3329 3.58175C24.7835 3.07889 25.2597 2.6 25.7596 2.14704C25.8534 2.08228 25.9521 2.02748 26.0509 1.97268C26.6383 1.59906 27.211 1.20551 27.8231 0.871736C28.5089 0.563723 29.2233 0.325093 29.9558 0.159357C30.2057 0.148022 30.4537 0.111312 30.6963 0.0497678C30.7607 0.0309451 30.8269 0.0192487 30.8938 0.0148926C31.4368 0.0148926 31.9798 0.0148926 32.5229 0.0148926C32.9523 0.0148926 33.367 0.134456 33.7965 0.174309C34.5409 0.34972 35.268 0.59316 35.9687 0.901625C36.4102 1.12858 36.8372 1.38314 37.2473 1.66382C37.708 1.96552 38.138 2.31262 38.5308 2.7C38.6382 2.81564 38.7766 2.89707 38.9293 2.93424C39.0819 2.97142 39.242 2.96272 39.3898 2.90923C40.9236 2.56741 42.4025 2.01072 43.7835 1.25533L44.1537 1.08594C44.3067 1.0162 44.4647 0.876717 44.6474 1.01122C44.83 1.14573 44.7214 1.33503 44.6819 1.50939C44.5375 1.91772 44.3727 2.31843 44.1882 2.70996C43.9167 3.03875 43.6946 3.39743 43.4527 3.74615C42.8269 4.5723 42.0774 5.29501 41.2312 5.88825C42.2728 5.73208 43.3009 5.49559 44.3067 5.18086C44.8448 5.09119 45.294 4.74745 45.842 4.68269C46.1728 4.8172 45.9556 5.00152 45.842 5.141C45.547 5.59032 45.2168 6.01512 44.8547 6.41133C43.977 7.44904 43.0015 8.39834 41.942 9.24589C41.8086 9.38351 41.6361 9.47579 41.4484 9.50992C41.3029 10.1238 41.2828 10.761 41.3891 11.383C41.4286 11.6739 41.4286 11.9689 41.3891 12.2598C41.1867 13.4853 41.2312 14.7506 40.9794 15.9711C41.0357 16.4236 40.953 16.8827 40.7424 17.2863C40.3426 18.5715 39.997 19.8717 39.4984 21.1221C39.3084 21.64 39.0738 22.1401 38.7974 22.6166C38.4697 23.3934 38.1005 24.1518 37.6915 24.8883C37.0991 25.7451 36.5463 26.6269 35.9193 27.4588C35.3812 28.1612 34.8431 28.8636 34.2408 29.5162C33.9101 29.83 33.5941 30.1588 33.2535 30.4826L32.9672 30.7766C32.0374 31.694 31.0298 32.5275 29.9558 33.2674C29.6295 33.4931 29.3163 33.7376 29.0178 33.9997C26.6529 35.4563 24.0878 36.5525 21.4054 37.2527C20.7735 37.3872 20.1417 37.5416 19.4999 37.6313C18.3546 37.7608 17.2191 37.9601 16.0442 38.0049C15.0865 38.0049 14.1288 38.0049 13.176 38.0049C12.8551 38.0049 12.5293 38.0049 12.1887 38.0049C11.2309 37.9252 10.2732 37.8256 9.32539 37.6712C6.17581 37.0439 3.15875 35.8672 0.409745 34.194C0.32301 34.145 0.241892 34.0865 0.167852 34.0196C0.0691188 33.92 -0.0394821 33.8104 0.019758 33.6609C0.0789982 33.5115 0.197467 33.5165 0.315947 33.4965C0.452127 33.4816 0.58952 33.4816 0.7257 33.4965C3.1693 33.7218 5.6328 33.4456 7.9678 32.6845C9.95849 32.0928 11.8208 31.1278 13.4574 29.84C10.056 29.4265 7.40996 27.7975 5.68706 24.7338C5.50171 24.4126 5.33682 24.0798 5.19339 23.7375C4.94162 23.1347 5.10453 22.8956 5.75124 23.0102C6.72848 23.1401 7.72066 23.098 8.68363 22.8856C6.18565 22.1459 4.06483 20.4659 2.75961 18.1929C2.49254 17.7728 2.28171 17.3188 2.13264 16.8429C2.10427 16.7015 2.06295 16.5631 2.00923 16.4294C1.92283 16.2408 1.86939 16.0386 1.85125 15.8316C1.71296 15.2518 1.63357 14.6592 1.6143 14.0631C1.64885 13.3856 1.74266 13.3159 2.33506 13.5998C3.30366 14.0611 4.35506 14.3187 5.4254 14.357C4.77797 13.8114 4.18747 13.2005 3.66303 12.5338C3.18519 11.9009 2.77947 11.2158 2.45354 10.4913C2.39114 10.3981 2.35068 10.2918 2.33527 10.1804C2.31987 10.069 2.32994 9.95553 2.36468 9.84867Z" fill="#FEFEFE"/>
</svg>
